<?xml version="1.0" encoding="UTF-8" standalone="no"?>
<svg
   xmlns:dc="http://purl.org/dc/elements/1.1/"
   xmlns:cc="http://creativecommons.org/ns#"
   xmlns:rdf="http://www.w3.org/1999/02/22-rdf-syntax-ns#"
   xmlns:svg="http://www.w3.org/2000/svg"
   xmlns="http://www.w3.org/2000/svg"
   xmlns:sodipodi="http://sodipodi.sourceforge.net/DTD/sodipodi-0.dtd"
   xmlns:inkscape="http://www.inkscape.org/namespaces/inkscape"
   inkscape:export-ydpi="576"
   inkscape:export-xdpi="576"
   inkscape:export-filename="D:\Project Real\DESEMBER\export flat\png\12 - Certificated and Toga.png"
   width="64pt"
   height="64pt"
   viewBox="0 0 22.577778 22.577778"
   version="1.1"
   id="svg831"
   inkscape:version="1.0 (4035a4fb49, 2020-05-01)"
   sodipodi:docname="14 - Globe.svg">
  <defs
     id="defs825">
    <pattern
       id="EMFhbasepattern"
       patternUnits="userSpaceOnUse"
       width="6"
       height="6"
       x="0"
       y="0" />
    <pattern
       id="EMFhbasepattern-9"
       patternUnits="userSpaceOnUse"
       width="6"
       height="6"
       x="0"
       y="0" />
    <pattern
       id="EMFhbasepattern-0"
       patternUnits="userSpaceOnUse"
       width="6"
       height="6"
       x="0"
       y="0" />
    <pattern
       id="EMFhbasepattern-7"
       patternUnits="userSpaceOnUse"
       width="6"
       height="6"
       x="0"
       y="0" />
    <pattern
       id="EMFhbasepattern-2"
       patternUnits="userSpaceOnUse"
       width="6"
       height="6"
       x="0"
       y="0" />
    <pattern
       id="EMFhbasepattern-98"
       patternUnits="userSpaceOnUse"
       width="6"
       height="6"
       x="0"
       y="0" />
    <pattern
       id="EMFhbasepattern-6"
       patternUnits="userSpaceOnUse"
       width="6"
       height="6"
       x="0"
       y="0" />
    <pattern
       id="EMFhbasepattern-01"
       patternUnits="userSpaceOnUse"
       width="6"
       height="6"
       x="0"
       y="0" />
    <pattern
       id="EMFhbasepattern-07"
       patternUnits="userSpaceOnUse"
       width="6"
       height="6"
       x="0"
       y="0" />
    <pattern
       id="EMFhbasepattern-8"
       patternUnits="userSpaceOnUse"
       width="6"
       height="6"
       x="0"
       y="0" />
    <pattern
       id="EMFhbasepattern-4"
       patternUnits="userSpaceOnUse"
       width="6"
       height="6"
       x="0"
       y="0" />
    <pattern
       id="EMFhbasepattern-40"
       patternUnits="userSpaceOnUse"
       width="6"
       height="6"
       x="0"
       y="0" />
    <pattern
       id="EMFhbasepattern-08"
       patternUnits="userSpaceOnUse"
       width="6"
       height="6"
       x="0"
       y="0" />
    <pattern
       id="EMFhbasepattern-04"
       patternUnits="userSpaceOnUse"
       width="6"
       height="6"
       x="0"
       y="0" />
    <pattern
       id="EMFhbasepattern-014"
       patternUnits="userSpaceOnUse"
       width="6"
       height="6"
       x="0"
       y="0" />
    <pattern
       id="EMFhbasepattern-27"
       patternUnits="userSpaceOnUse"
       width="6"
       height="6"
       x="0"
       y="0" />
    <pattern
       id="EMFhbasepattern-09"
       patternUnits="userSpaceOnUse"
       width="6"
       height="6"
       x="0"
       y="0" />
    <pattern
       id="EMFhbasepattern-5"
       patternUnits="userSpaceOnUse"
       width="6"
       height="6"
       x="0"
       y="0" />
    <pattern
       id="EMFhbasepattern-018"
       patternUnits="userSpaceOnUse"
       width="6"
       height="6"
       x="0"
       y="0" />
  </defs>
  <sodipodi:namedview
     id="base"
     pagecolor="#ffffff"
     bordercolor="#666666"
     borderopacity="1.0"
     inkscape:pageopacity="0.0"
     inkscape:pageshadow="2"
     inkscape:zoom="6.2578125"
     inkscape:cx="42.666667"
     inkscape:cy="42.666667"
     inkscape:document-units="pt"
     inkscape:current-layer="layer1"
     showgrid="false"
     units="pt"
     inkscape:window-width="1366"
     inkscape:window-height="706"
     inkscape:window-x="-8"
     inkscape:window-y="-8"
     inkscape:window-maximized="1"
     inkscape:pagecheckerboard="true"
     inkscape:showpageshadow="false"
     inkscape:object-paths="true"
     inkscape:snap-intersection-paths="true"
     inkscape:snap-smooth-nodes="true"
     inkscape:snap-midpoints="true"
     showguides="true"
     inkscape:snap-bbox="true"
     inkscape:bbox-nodes="true"
     inkscape:snap-nodes="false"
     inkscape:snap-global="true"
     inkscape:document-rotation="0">
    <inkscape:grid
       type="xygrid"
       id="grid1378" />
    <sodipodi:guide
       position="0.97013831,21.607643"
       orientation="78.000048,0"
       id="guide1380"
       inkscape:locked="false" />
    <sodipodi:guide
       position="0.97013831,0.97013129"
       orientation="0,78.000005"
       id="guide1382"
       inkscape:locked="false" />
    <sodipodi:guide
       position="21.607639,0.97013129"
       orientation="-78.000048,0"
       id="guide1384"
       inkscape:locked="false" />
    <sodipodi:guide
       position="21.607639,21.607643"
       orientation="0,-78.000005"
       id="guide1386"
       inkscape:locked="false" />
  </sodipodi:namedview>
  <metadata
     id="metadata828">
    <rdf:RDF>
      <cc:Work
         rdf:about="">
        <dc:format>image/svg+xml</dc:format>
        <dc:type
           rdf:resource="http://purl.org/dc/dcmitype/StillImage" />
        <dc:title></dc:title>
      </cc:Work>
    </rdf:RDF>
  </metadata>
  <g
     inkscape:label="Icon"
     inkscape:groupmode="layer"
     id="layer1"
     transform="translate(0,-274.42223)">
    <g
       transform="matrix(1.2563975,0,0,1.2563975,38.863449,-76.801374)"
       style="display:inline;stroke-width:0.795926"
       id="g1254">
      <path
         style="color:#000000;font-style:normal;font-variant:normal;font-weight:normal;font-stretch:normal;font-size:medium;line-height:normal;font-family:sans-serif;font-variant-ligatures:normal;font-variant-position:normal;font-variant-caps:normal;font-variant-numeric:normal;font-variant-alternates:normal;font-variant-east-asian:normal;font-feature-settings:normal;font-variation-settings:normal;text-indent:0;text-align:start;text-decoration:none;text-decoration-line:none;text-decoration-style:solid;text-decoration-color:#000000;letter-spacing:normal;word-spacing:normal;text-transform:none;writing-mode:lr-tb;direction:ltr;text-orientation:mixed;dominant-baseline:auto;baseline-shift:baseline;text-anchor:start;white-space:normal;shape-padding:0;shape-margin:0;inline-size:0;clip-rule:nonzero;display:inline;overflow:visible;visibility:visible;isolation:auto;mix-blend-mode:normal;color-interpolation:sRGB;color-interpolation-filters:linearRGB;solid-color:#000000;solid-opacity:1;vector-effect:none;fill:#ececec;fill-opacity:1;fill-rule:nonzero;stroke:none;stroke-width:0.421178;stroke-linecap:round;stroke-linejoin:round;stroke-miterlimit:1.5;stroke-dasharray:none;stroke-dashoffset:0;stroke-opacity:1;color-rendering:auto;image-rendering:auto;shape-rendering:auto;text-rendering:auto;enable-background:accumulate;stop-color:#000000"
         d="m -18.144531,280.81836 a 0.26460996,0.26460996 0 0 0 -0.171875,0.0664 l -1,0.89062 a 0.2645835,0.2645835 0 0 0 -0.02148,0.375 0.2645835,0.2645835 0 0 0 0.373047,0.0215 l 0.775391,-0.69141 c 0.924431,1.03244 1.521483,2.36714 1.521484,3.86328 -2e-6,3.2257 -2.61024,5.83594 -5.835937,5.83594 -1.476354,0 -2.794885,-0.58167 -3.822266,-1.48438 l 0.697266,-0.73437 a 0.2645835,0.2645835 0 0 0 -0.0098,-0.375 0.2645835,0.2645835 0 0 0 -0.373047,0.01 l -0.912109,0.96094 a 0.26460996,0.26460996 0 0 0 0.0078,0.37305 c 1.143823,1.10086 2.700297,1.77929 4.41211,1.77929 3.51168,0 6.365232,-2.85355 6.365234,-6.36523 -1e-6,-1.72885 -0.692178,-3.29839 -1.8125,-4.44531 a 0.26460996,0.26460996 0 0 0 -0.193359,-0.0801 z"
         id="path1594" />
      <path
         style="color:#000000;font-style:normal;font-variant:normal;font-weight:normal;font-stretch:normal;font-size:medium;line-height:normal;font-family:sans-serif;font-variant-ligatures:normal;font-variant-position:normal;font-variant-caps:normal;font-variant-numeric:normal;font-variant-alternates:normal;font-variant-east-asian:normal;font-feature-settings:normal;font-variation-settings:normal;text-indent:0;text-align:start;text-decoration:none;text-decoration-line:none;text-decoration-style:solid;text-decoration-color:#000000;letter-spacing:normal;word-spacing:normal;text-transform:none;writing-mode:lr-tb;direction:ltr;text-orientation:mixed;dominant-baseline:auto;baseline-shift:baseline;text-anchor:start;white-space:normal;shape-padding:0;shape-margin:0;inline-size:0;clip-rule:nonzero;display:inline;overflow:visible;visibility:visible;isolation:auto;mix-blend-mode:normal;color-interpolation:sRGB;color-interpolation-filters:linearRGB;solid-color:#000000;solid-opacity:1;vector-effect:none;fill:#70c2ef;fill-opacity:1;fill-rule:nonzero;stroke:none;stroke-width:0.421179;stroke-linecap:round;stroke-linejoin:round;stroke-miterlimit:1.5;stroke-dasharray:none;stroke-dashoffset:0;stroke-opacity:1;color-rendering:auto;image-rendering:auto;shape-rendering:auto;text-rendering:auto;enable-background:accumulate;stop-color:#000000"
         d="m -22.503906,280.32031 c -2.776183,0 -5.031257,2.25702 -5.03125,5.03321 5e-6,2.77618 2.255076,5.03125 5.03125,5.03125 2.776174,0 5.033198,-2.25507 5.033203,-5.03125 6e-6,-2.77619 -2.257021,-5.03321 -5.033203,-5.03321 z"
         id="path1573" />
      <path
         style="color:#000000;font-style:normal;font-variant:normal;font-weight:normal;font-stretch:normal;font-size:medium;line-height:normal;font-family:sans-serif;font-variant-ligatures:normal;font-variant-position:normal;font-variant-caps:normal;font-variant-numeric:normal;font-variant-alternates:normal;font-variant-east-asian:normal;font-feature-settings:normal;font-variation-settings:normal;text-indent:0;text-align:start;text-decoration:none;text-decoration-line:none;text-decoration-style:solid;text-decoration-color:#000000;letter-spacing:normal;word-spacing:normal;text-transform:none;writing-mode:lr-tb;direction:ltr;text-orientation:mixed;dominant-baseline:auto;baseline-shift:baseline;text-anchor:start;white-space:normal;shape-padding:0;shape-margin:0;inline-size:0;clip-rule:nonzero;display:inline;overflow:visible;visibility:visible;isolation:auto;mix-blend-mode:normal;color-interpolation:sRGB;color-interpolation-filters:linearRGB;solid-color:#000000;solid-opacity:1;vector-effect:none;fill:#ececec;fill-opacity:1;fill-rule:nonzero;stroke:none;stroke-width:0.421179;stroke-linecap:round;stroke-linejoin:round;stroke-miterlimit:1.5;stroke-dasharray:none;stroke-dashoffset:0;stroke-opacity:1;color-rendering:auto;image-rendering:auto;shape-rendering:auto;text-rendering:auto;enable-background:accumulate;stop-color:#000000"
         d="m -22.503906,291.17969 a 0.264584,0.264584 0 0 0 -0.263672,0.26367 v 1.04102 a 0.264584,0.264584 0 0 0 0.263672,0.26367 0.264584,0.264584 0 0 0 0.265625,-0.26367 v -1.04102 a 0.264584,0.264584 0 0 0 -0.265625,-0.26367 z"
         id="path1607" />
      <path
         style="color:#000000;font-style:normal;font-variant:normal;font-weight:normal;font-stretch:normal;font-size:medium;line-height:normal;font-family:sans-serif;font-variant-ligatures:normal;font-variant-position:normal;font-variant-caps:normal;font-variant-numeric:normal;font-variant-alternates:normal;font-variant-east-asian:normal;font-feature-settings:normal;font-variation-settings:normal;text-indent:0;text-align:start;text-decoration:none;text-decoration-line:none;text-decoration-style:solid;text-decoration-color:#000000;letter-spacing:normal;word-spacing:normal;text-transform:none;writing-mode:lr-tb;direction:ltr;text-orientation:mixed;dominant-baseline:auto;baseline-shift:baseline;text-anchor:start;white-space:normal;shape-padding:0;shape-margin:0;inline-size:0;clip-rule:nonzero;display:inline;overflow:visible;visibility:visible;isolation:auto;mix-blend-mode:normal;color-interpolation:sRGB;color-interpolation-filters:linearRGB;solid-color:#000000;solid-opacity:1;vector-effect:none;fill:#9a605a;fill-opacity:1;fill-rule:nonzero;stroke:none;stroke-width:0.421179;stroke-linecap:round;stroke-linejoin:round;stroke-miterlimit:1.5;stroke-dasharray:none;stroke-dashoffset:0;stroke-opacity:1;color-rendering:auto;image-rendering:auto;shape-rendering:auto;text-rendering:auto;enable-background:accumulate;stop-color:#000000"
         d="m -23.75,292.21875 a 0.26461046,0.26461046 0 0 0 -0.265625,0.26563 v 1.24609 a 0.26461046,0.26461046 0 0 0 0.265625,0.26562 h 2.492188 a 0.26461046,0.26461046 0 0 0 0.265624,-0.26562 v -1.24609 a 0.26461046,0.26461046 0 0 0 -0.265624,-0.26563 z"
         id="path1619" />
      <path
         id="path1214"
         style="color:#000000;font-style:normal;font-variant:normal;font-weight:normal;font-stretch:normal;font-size:medium;line-height:normal;font-family:sans-serif;font-variant-ligatures:normal;font-variant-position:normal;font-variant-caps:normal;font-variant-numeric:normal;font-variant-alternates:normal;font-variant-east-asian:normal;font-feature-settings:normal;font-variation-settings:normal;text-indent:0;text-align:start;text-decoration:none;text-decoration-line:none;text-decoration-style:solid;text-decoration-color:#000000;letter-spacing:normal;word-spacing:normal;text-transform:none;writing-mode:lr-tb;direction:ltr;text-orientation:mixed;dominant-baseline:auto;baseline-shift:baseline;text-anchor:start;white-space:normal;shape-padding:0;shape-margin:0;inline-size:0;clip-rule:nonzero;display:inline;overflow:visible;visibility:visible;isolation:auto;mix-blend-mode:normal;color-interpolation:sRGB;color-interpolation-filters:linearRGB;solid-color:#000000;solid-opacity:1;vector-effect:none;fill:#66342d;fill-opacity:1;fill-rule:nonzero;stroke:none;stroke-width:0.42118;stroke-linecap:round;stroke-linejoin:round;stroke-miterlimit:1.5;stroke-dasharray:none;stroke-dashoffset:0;stroke-opacity:1;color-rendering:auto;image-rendering:auto;shape-rendering:auto;text-rendering:auto;enable-background:accumulate;stop-color:#000000"
         d="m -23.749976,292.21889 a 0.26461046,0.26461046 0 0 0 -0.265616,0.26562 v 0.26355 h 2.228804 a 0.26461046,0.26461046 0 0 1 0.265617,0.26561 v 0.98237 h 0.26355 a 0.26461046,0.26461046 0 0 0 0.265617,-0.26561 v -1.24592 a 0.26461046,0.26461046 0 0 0 -0.265617,-0.26562 z" />
      <path
         style="color:#000000;font-style:normal;font-variant:normal;font-weight:normal;font-stretch:normal;font-size:medium;line-height:normal;font-family:sans-serif;font-variant-ligatures:normal;font-variant-position:normal;font-variant-caps:normal;font-variant-numeric:normal;font-variant-alternates:normal;font-variant-east-asian:normal;font-feature-settings:normal;font-variation-settings:normal;text-indent:0;text-align:start;text-decoration:none;text-decoration-line:none;text-decoration-style:solid;text-decoration-color:#000000;letter-spacing:normal;word-spacing:normal;text-transform:none;writing-mode:lr-tb;direction:ltr;text-orientation:mixed;dominant-baseline:auto;baseline-shift:baseline;text-anchor:start;white-space:normal;shape-padding:0;shape-margin:0;inline-size:0;clip-rule:nonzero;display:inline;overflow:visible;visibility:visible;isolation:auto;mix-blend-mode:normal;color-interpolation:sRGB;color-interpolation-filters:linearRGB;solid-color:#000000;solid-opacity:1;vector-effect:none;fill:#66342d;fill-opacity:1;fill-rule:nonzero;stroke:none;stroke-width:0.421179;stroke-linecap:round;stroke-linejoin:round;stroke-miterlimit:1.5;stroke-dasharray:none;stroke-dashoffset:0;stroke-opacity:1;color-rendering:auto;image-rendering:auto;shape-rendering:auto;text-rendering:auto;enable-background:accumulate;stop-color:#000000"
         d="m -24.998047,293.4668 a 0.26461046,0.26461046 0 0 0 -0.117187,0.0273 l -1.248047,0.62305 a 0.26461046,0.26461046 0 0 0 -0.144531,0.23633 v 0.88086 a 0.26461046,0.26461046 0 0 0 0.263671,0.26562 h 7.480469 a 0.26461046,0.26461046 0 0 0 0.265625,-0.26562 v -0.88086 a 0.26461046,0.26461046 0 0 0 -0.146484,-0.23633 l -1.248047,-0.62305 a 0.26461046,0.26461046 0 0 0 -0.117188,-0.0273 z"
         id="path1635" />
      <path
         id="path1226"
         style="color:#000000;font-style:normal;font-variant:normal;font-weight:normal;font-stretch:normal;font-size:medium;line-height:normal;font-family:sans-serif;font-variant-ligatures:normal;font-variant-position:normal;font-variant-caps:normal;font-variant-numeric:normal;font-variant-alternates:normal;font-variant-east-asian:normal;font-feature-settings:normal;font-variation-settings:normal;text-indent:0;text-align:start;text-decoration:none;text-decoration-line:none;text-decoration-style:solid;text-decoration-color:#000000;letter-spacing:normal;word-spacing:normal;text-transform:none;writing-mode:lr-tb;direction:ltr;text-orientation:mixed;dominant-baseline:auto;baseline-shift:baseline;text-anchor:start;white-space:normal;shape-padding:0;shape-margin:0;inline-size:0;clip-rule:nonzero;display:inline;overflow:visible;visibility:visible;isolation:auto;mix-blend-mode:normal;color-interpolation:sRGB;color-interpolation-filters:linearRGB;solid-color:#000000;solid-opacity:1;vector-effect:none;fill:#311a12;fill-opacity:1;fill-rule:nonzero;stroke:none;stroke-width:0.42118;stroke-linecap:round;stroke-linejoin:round;stroke-miterlimit:1.5;stroke-dasharray:none;stroke-dashoffset:0;stroke-opacity:1;color-rendering:auto;image-rendering:auto;shape-rendering:auto;text-rendering:auto;enable-background:accumulate;stop-color:#000000"
         d="m -24.997963,293.46688 a 0.26461046,0.26461046 0 0 0 -0.117305,0.0274 l -1.247986,0.62271 a 0.26461046,0.26461046 0 0 0 -0.144694,0.23667 v 0.10077 l 0.863513,-0.43098 a 0.26461046,0.26461046 0 0 1 0.117305,-0.0274 h 4.988327 a 0.26461046,0.26461046 0 0 1 0.117305,0.0274 l 1.247986,0.6227 a 0.26461046,0.26461046 0 0 1 0.146244,0.23668 v 0.61702 h 0.26355 a 0.26461046,0.26461046 0 0 0 0.265617,-0.26562 v -0.88057 a 0.26461046,0.26461046 0 0 0 -0.146244,-0.23667 l -1.247986,-0.62271 a 0.26461046,0.26461046 0 0 0 -0.117306,-0.0274 z" />
      <path
         style="color:#000000;font-style:normal;font-variant:normal;font-weight:normal;font-stretch:normal;font-size:medium;line-height:normal;font-family:sans-serif;font-variant-ligatures:normal;font-variant-position:normal;font-variant-caps:normal;font-variant-numeric:normal;font-variant-alternates:normal;font-variant-east-asian:normal;font-feature-settings:normal;font-variation-settings:normal;text-indent:0;text-align:start;text-decoration:none;text-decoration-line:none;text-decoration-style:solid;text-decoration-color:#000000;letter-spacing:normal;word-spacing:normal;text-transform:none;writing-mode:lr-tb;direction:ltr;text-orientation:mixed;dominant-baseline:auto;baseline-shift:baseline;text-anchor:start;white-space:normal;shape-padding:0;shape-margin:0;inline-size:0;clip-rule:nonzero;display:inline;overflow:visible;visibility:visible;isolation:auto;mix-blend-mode:normal;color-interpolation:sRGB;color-interpolation-filters:linearRGB;solid-color:#000000;solid-opacity:1;vector-effect:none;fill:#9a605a;fill-opacity:1;fill-rule:nonzero;stroke:none;stroke-width:0.421179;stroke-linecap:round;stroke-linejoin:round;stroke-miterlimit:1.5;stroke-dasharray:none;stroke-dashoffset:0;stroke-opacity:1;color-rendering:auto;image-rendering:auto;shape-rendering:auto;text-rendering:auto;enable-background:accumulate;stop-color:#000000"
         d="m -27.490234,294.9707 a 0.26461046,0.26461046 0 0 0 -0.265625,0.26368 v 1.24804 a 0.26461046,0.26461046 0 0 0 0.265625,0.26367 h 9.972656 a 0.26461046,0.26461046 0 0 0 0.265625,-0.26367 v -1.24804 a 0.26461046,0.26461046 0 0 0 -0.265625,-0.26368 z"
         id="path1649" />
      <path
         id="path1542"
         style="color:#000000;font-style:normal;font-variant:normal;font-weight:normal;font-stretch:normal;font-size:medium;line-height:normal;font-family:sans-serif;font-variant-ligatures:normal;font-variant-position:normal;font-variant-caps:normal;font-variant-numeric:normal;font-variant-alternates:normal;font-variant-east-asian:normal;font-feature-settings:normal;font-variation-settings:normal;text-indent:0;text-align:start;text-decoration:none;text-decoration-line:none;text-decoration-style:solid;text-decoration-color:#000000;letter-spacing:normal;word-spacing:normal;text-transform:none;writing-mode:lr-tb;direction:ltr;text-orientation:mixed;dominant-baseline:auto;baseline-shift:baseline;text-anchor:start;white-space:normal;shape-padding:0;shape-margin:0;inline-size:0;clip-rule:nonzero;display:inline;overflow:visible;visibility:visible;isolation:auto;mix-blend-mode:normal;color-interpolation:sRGB;color-interpolation-filters:linearRGB;solid-color:#000000;solid-opacity:1;vector-effect:none;fill:#50b86b;fill-opacity:1;fill-rule:nonzero;stroke:none;stroke-width:1.59185;stroke-linecap:round;stroke-linejoin:round;stroke-miterlimit:1.5;stroke-dasharray:none;stroke-dashoffset:0;stroke-opacity:1;color-rendering:auto;image-rendering:auto;shape-rendering:auto;text-rendering:auto;enable-background:accumulate;stop-color:#000000"
         d="m -88.222656,1.2441406 c -8.983704,1.5153762 -15.847684,9.3276994 -15.847654,18.7382814 0,0.176821 0.0225,0.347766 0.0273,0.523437 l 1.88477,-2.347656 h 0.008 c 0.90786,-0.998286 1.9967,-2.084672 3.240234,-2.65625 1.245226,-0.572372 2.59768,-0.72563 4.458984,0.205078 0.62276,0.311433 0.987696,1.083993 1.351563,2.126953 0.181946,0.521462 0.358928,1.07664 0.626953,1.617188 0.268006,0.540548 0.656331,1.110407 1.314453,1.439453 1.024089,0.51205 1.990676,0.719914 2.878906,0.478516 0.888231,-0.241512 1.531583,-0.934914 1.904297,-1.71875 0.745436,-1.567597 0.782923,-3.662215 0.619141,-5.951172 -0.327572,-4.577953 -1.670316,-9.8556623 -2.199219,-11.6113284 a 1.0001006,1.0001006 0 0 0 0,-0.015625 z"
         transform="matrix(0.26458334,0,0,0.26458334,0,280.06666)" />
      <path
         id="path1208"
         style="color:#000000;font-style:normal;font-variant:normal;font-weight:normal;font-stretch:normal;font-size:medium;line-height:normal;font-family:sans-serif;font-variant-ligatures:normal;font-variant-position:normal;font-variant-caps:normal;font-variant-numeric:normal;font-variant-alternates:normal;font-variant-east-asian:normal;font-feature-settings:normal;font-variation-settings:normal;text-indent:0;text-align:start;text-decoration:none;text-decoration-line:none;text-decoration-style:solid;text-decoration-color:#000000;letter-spacing:normal;word-spacing:normal;text-transform:none;writing-mode:lr-tb;direction:ltr;text-orientation:mixed;dominant-baseline:auto;baseline-shift:baseline;text-anchor:start;white-space:normal;shape-padding:0;shape-margin:0;inline-size:0;clip-rule:nonzero;display:inline;overflow:visible;visibility:visible;isolation:auto;mix-blend-mode:normal;color-interpolation:sRGB;color-interpolation-filters:linearRGB;solid-color:#000000;solid-opacity:1;vector-effect:none;fill:#5aabdd;fill-opacity:1;fill-rule:nonzero;stroke:none;stroke-width:0.42118;stroke-linecap:round;stroke-linejoin:round;stroke-miterlimit:1.5;stroke-dasharray:none;stroke-dashoffset:0;stroke-opacity:1;color-rendering:auto;image-rendering:auto;shape-rendering:auto;text-rendering:auto;enable-background:accumulate;stop-color:#000000"
         d="m -22.504052,280.32039 c -0.178911,0 -0.355049,0.0101 -0.529167,0.0284 2.528163,0.26517 4.504124,2.40741 4.504118,5.00487 -5e-6,2.59747 -1.975926,4.73788 -4.504118,5.00279 0.174094,0.0183 0.350283,0.0284 0.529167,0.0284 2.776174,0 5.03328,-2.25503 5.033285,-5.03121 6e-6,-2.77619 -2.257103,-5.03329 -5.033285,-5.03329 z" />
      <path
         id="path1559"
         style="color:#000000;font-style:normal;font-variant:normal;font-weight:normal;font-stretch:normal;font-size:medium;line-height:normal;font-family:sans-serif;font-variant-ligatures:normal;font-variant-position:normal;font-variant-caps:normal;font-variant-numeric:normal;font-variant-alternates:normal;font-variant-east-asian:normal;font-feature-settings:normal;font-variation-settings:normal;text-indent:0;text-align:start;text-decoration:none;text-decoration-line:none;text-decoration-style:solid;text-decoration-color:#000000;letter-spacing:normal;word-spacing:normal;text-transform:none;writing-mode:lr-tb;direction:ltr;text-orientation:mixed;dominant-baseline:auto;baseline-shift:baseline;text-anchor:start;white-space:normal;shape-padding:0;shape-margin:0;inline-size:0;clip-rule:nonzero;display:inline;overflow:visible;visibility:visible;isolation:auto;mix-blend-mode:normal;color-interpolation:sRGB;color-interpolation-filters:linearRGB;solid-color:#000000;solid-opacity:1;vector-effect:none;fill:#50b86b;fill-opacity:1;fill-rule:nonzero;stroke:none;stroke-width:1.59185;stroke-linecap:round;stroke-linejoin:round;stroke-miterlimit:1.5;stroke-dasharray:none;stroke-dashoffset:0;stroke-opacity:1;color-rendering:auto;image-rendering:auto;shape-rendering:auto;text-rendering:auto;enable-background:accumulate;stop-color:#000000"
         d="m -72.335938,6.2050781 a 1.0001006,1.0001006 0 0 0 -0.06641,0.00195 1.0001006,1.0001006 0 0 0 -0.833984,0.5546876 c -1.055445,2.10017 -1.077177,4.2967503 -1.896484,5.7714843 -1.402704,2.524876 -2.538657,4.676325 -3.728516,7.353516 -0.400675,0.90153 -0.607755,1.667401 -0.574219,2.398437 0.03364,0.731036 0.390763,1.419044 0.892578,1.837891 1.003631,0.837657 2.257784,0.90715 3.50586,1.070312 1.248075,0.163276 2.509312,0.339687 3.396484,0.775391 0.887172,0.43578 1.446071,0.983226 1.630859,2.369141 a 1.0001006,1.0001006 0 0 0 1.742188,0.53125 c 0.0195,-0.02204 0.03535,-0.04809 0.05469,-0.07031 1.386961,-2.637775 2.181635,-5.633043 2.181641,-8.816406 1.2e-5,-5.339179 -2.215451,-10.1634455 -5.767578,-13.621094 -0.04464,-0.021065 -0.08575,-0.045799 -0.13086,-0.066406 a 1.0001006,1.0001006 0 0 0 -0.40625,-0.089844 z"
         transform="matrix(0.26458334,0,0,0.26458334,0,280.06666)" />
      <path
         sodipodi:nodetypes="sccscccccscccccccs"
         style="color:#000000;font-style:normal;font-variant:normal;font-weight:normal;font-stretch:normal;font-size:medium;line-height:normal;font-family:sans-serif;font-variant-ligatures:normal;font-variant-position:normal;font-variant-caps:normal;font-variant-numeric:normal;font-variant-alternates:normal;font-variant-east-asian:normal;font-feature-settings:normal;font-variation-settings:normal;text-indent:0;text-align:start;text-decoration:none;text-decoration-line:none;text-decoration-style:solid;text-decoration-color:#000000;letter-spacing:normal;word-spacing:normal;text-transform:none;writing-mode:lr-tb;direction:ltr;text-orientation:mixed;dominant-baseline:auto;baseline-shift:baseline;text-anchor:start;white-space:normal;shape-padding:0;shape-margin:0;inline-size:0;clip-rule:nonzero;display:inline;overflow:visible;visibility:visible;isolation:auto;mix-blend-mode:normal;color-interpolation:sRGB;color-interpolation-filters:linearRGB;solid-color:#000000;solid-opacity:1;vector-effect:none;fill:#50b86b;fill-opacity:1;fill-rule:nonzero;stroke:none;stroke-width:0.421178;stroke-linecap:round;stroke-linejoin:round;stroke-miterlimit:1.5;stroke-dasharray:none;stroke-dashoffset:0;stroke-opacity:1;color-rendering:auto;image-rendering:auto;shape-rendering:auto;text-rendering:auto;enable-background:accumulate;stop-color:#000000"
         d="m -23.039064,288.87707 c 0.09956,0.11539 0.258994,0.2321 0.460937,0.26367 0.197563,0.0309 0.419822,-0.007 0.703125,-0.0996 0.59753,-0.14685 0.968716,-0.61003 1.039062,-1.0879 0.03532,-0.23994 -0.0031,-0.48846 -0.130859,-0.69921 -0.127772,-0.21076 -0.347417,-0.37482 -0.62695,-0.43946 -0.498882,-0.10838 -0.938313,-0.19323 -1.695311,-0.23828 -0.09373,0.002 -0.466994,-0.0196 -0.828127,-0.0117 l -10e-7,-1.4e-4 c -0.180566,0.004 -0.364423,0.014 -0.53125,0.043 -0.166826,0.029 -0.322668,0.0581 -0.46289,0.19727 -0.01251,0.0132 -0.02364,0.0276 -0.0332,0.043 -0.10897,0.16523 -0.177164,0.32417 -0.19336,0.48632 -0.01619,0.16216 0.02914,0.32384 0.113282,0.44532 0.168288,0.24295 0.43436,0.34252 0.693359,0.41211 0.258999,0.0696 0.526173,0.10061 0.730469,0.12109 0.102148,0.0102 0.18932,0.0167 0.252927,0.0254 0.258784,0.1272 0.310422,0.3092 0.508787,0.53911 z"
         id="path1528" />
      <path
         id="path1660"
         style="fill:#349951;fill-opacity:1;stroke:none;stroke-width:1.59185;stroke-linecap:round;stroke-linejoin:round;stroke-miterlimit:1.5;stroke-opacity:1"
         d="m -88.222656,1.2441406 c -4.423148,0.7460991 -8.327028,3.023519 -11.15625,6.2617188 l 0.698834,-0.00588 a 8.1083114,8.1083114 44.551396 0 1 8.176354,8.0493116 l 0.04083,5.638212 c 0.768087,0.281237 1.499044,0.367684 2.183594,0.181641 0.888231,-0.241512 1.531583,-0.934914 1.904297,-1.71875 0.745436,-1.567597 0.782923,-3.662215 0.619141,-5.951172 -0.327572,-4.5779535 -1.670316,-9.8556624 -2.199219,-11.6113286 4.1e-5,-0.00521 4.1e-5,-0.010417 0,-0.015625 z"
         transform="matrix(0.26458334,0,0,0.26458334,0,280.06666)" />
      <path
         sodipodi:nodetypes="ccscsscccscc"
         id="path1193"
         style="fill:#349951;fill-opacity:1;stroke:none;stroke-width:1.59185;stroke-linecap:round;stroke-linejoin:round;stroke-miterlimit:1.5"
         d="m -72.402348,6.2070281 c -0.357224,0.02234 -0.675275,0.2338774 -0.833984,0.5546876 -1.055445,2.10017 -1.077177,4.2967503 -1.896484,5.7714843 -0.474284,0.853713 -0.888768,1.644179 -1.314454,2.447266 l 0.275702,-0.01454 c 3.509021,-0.18501 6.485331,2.548724 6.598593,6.060793 l 0.262424,8.137336 c 0.375407,0.114933 0.783338,-4.18e-4 1.042969,-0.294921 0.0195,-0.02204 0.03535,-0.04809 0.05469,-0.07031 1.386961,-2.637775 2.181635,-5.633043 2.181641,-8.816406 1.2e-5,-5.339179 -2.215451,-10.1634454 -5.767578,-13.621094 z"
         transform="matrix(0.26458334,0,0,0.26458334,0,280.06666)" />
      <path
         sodipodi:nodetypes="sssccscsscsccccs"
         id="path1200"
         style="fill:#349951;fill-opacity:1;stroke:none;stroke-width:1.59185;stroke-linecap:round;stroke-linejoin:round;stroke-miterlimit:1.5"
         d="m -91.152338,24.558596 -6e-6,-2e-6 c -0.682454,0.01512 -1.377285,0.0525 -2.007812,0.162109 -0.630524,0.109606 -1.218074,0.220097 -1.748047,0.746094 -0.04778,0.04952 -0.09032,0.103849 -0.126953,0.162109 -0.411855,0.624492 -0.669256,1.22504 -0.730469,1.837891 -0.04518,0.452531 0.0391,0.902845 0.212891,1.292969 l 8.475702,-0.125226 c 2.681132,-0.03961 4.87586,2.122928 4.87586,4.804353 v 0.326732 c 1.973212,-0.671803 3.204928,-2.286217 3.451172,-3.958984 0.133493,-0.90686 -0.01127,-1.846043 -0.494141,-2.642579 -0.482917,-0.796573 -1.314148,-1.415847 -2.363281,-1.660156 -0.0046,-3.1e-5 -0.0091,-3.1e-5 -0.01367,0 -1.878168,-0.409625 -3.53867,-0.730123 -6.400388,-0.90039 -0.354879,0.0076 -1.765946,-0.07478 -3.130858,-0.04492 z"
         transform="matrix(0.26458334,0,0,0.26458334,0,280.06666)" />
      <path
         id="path1233"
         style="color:#000000;font-style:normal;font-variant:normal;font-weight:normal;font-stretch:normal;font-size:medium;line-height:normal;font-family:sans-serif;font-variant-ligatures:normal;font-variant-position:normal;font-variant-caps:normal;font-variant-numeric:normal;font-variant-alternates:normal;font-variant-east-asian:normal;font-feature-settings:normal;font-variation-settings:normal;text-indent:0;text-align:start;text-decoration:none;text-decoration-line:none;text-decoration-style:solid;text-decoration-color:#000000;letter-spacing:normal;word-spacing:normal;text-transform:none;writing-mode:lr-tb;direction:ltr;text-orientation:mixed;dominant-baseline:auto;baseline-shift:baseline;text-anchor:start;white-space:normal;shape-padding:0;shape-margin:0;inline-size:0;clip-rule:nonzero;display:inline;overflow:visible;visibility:visible;isolation:auto;mix-blend-mode:normal;color-interpolation:sRGB;color-interpolation-filters:linearRGB;solid-color:#000000;solid-opacity:1;vector-effect:none;fill:#66342d;fill-opacity:1;fill-rule:nonzero;stroke:none;stroke-width:0.42118;stroke-linecap:round;stroke-linejoin:round;stroke-miterlimit:1.5;stroke-dasharray:none;stroke-dashoffset:0;stroke-opacity:1;color-rendering:auto;image-rendering:auto;shape-rendering:auto;text-rendering:auto;enable-background:accumulate;stop-color:#000000"
         d="m -27.490312,294.97064 a 0.26461046,0.26461046 0 0 0 -0.265618,0.26355 v 0.26562 h 9.708969 a 0.26461046,0.26461046 0 0 1 0.265617,0.26355 v 0.98289 h 0.26355 a 0.26461046,0.26461046 0 0 0 0.265617,-0.26407 v -1.24799 a 0.26461046,0.26461046 0 0 0 -0.265617,-0.26355 z" />
    </g>
  </g>
</svg>
