<?xml version="1.0" encoding="UTF-8" standalone="no"?>
<!-- Created with Inkscape (http://www.inkscape.org/) -->

<svg
   width="64pt"
   height="64pt"
   viewBox="0 0 22.577778 22.577778"
   version="1.1"
   id="svg831"
   inkscape:version="1.1.1 (3bf5ae0d25, 2021-09-20)"
   sodipodi:docname="1 - Trophy.svg"
   inkscape:export-filename="C:\Users\User\Desktop\DESEMBER\1 - Trophy.png"
   inkscape:export-xdpi="576"
   inkscape:export-ydpi="576"
   xmlns:inkscape="http://www.inkscape.org/namespaces/inkscape"
   xmlns:sodipodi="http://sodipodi.sourceforge.net/DTD/sodipodi-0.dtd"
   xmlns="http://www.w3.org/2000/svg"
   xmlns:svg="http://www.w3.org/2000/svg"
   xmlns:rdf="http://www.w3.org/1999/02/22-rdf-syntax-ns#"
   xmlns:cc="http://creativecommons.org/ns#"
   xmlns:dc="http://purl.org/dc/elements/1.1/">
  <defs
     id="defs825">
    <pattern
       id="EMFhbasepattern"
       patternUnits="userSpaceOnUse"
       width="6"
       height="6"
       x="0"
       y="0" />
    <pattern
       id="EMFhbasepattern-9"
       patternUnits="userSpaceOnUse"
       width="6"
       height="6"
       x="0"
       y="0" />
    <pattern
       id="EMFhbasepattern-0"
       patternUnits="userSpaceOnUse"
       width="6"
       height="6"
       x="0"
       y="0" />
    <pattern
       id="EMFhbasepattern-7"
       patternUnits="userSpaceOnUse"
       width="6"
       height="6"
       x="0"
       y="0" />
    <pattern
       id="EMFhbasepattern-2"
       patternUnits="userSpaceOnUse"
       width="6"
       height="6"
       x="0"
       y="0" />
    <pattern
       id="EMFhbasepattern-98"
       patternUnits="userSpaceOnUse"
       width="6"
       height="6"
       x="0"
       y="0" />
    <pattern
       id="EMFhbasepattern-6"
       patternUnits="userSpaceOnUse"
       width="6"
       height="6"
       x="0"
       y="0" />
    <pattern
       id="EMFhbasepattern-01"
       patternUnits="userSpaceOnUse"
       width="6"
       height="6"
       x="0"
       y="0" />
    <pattern
       id="EMFhbasepattern-07"
       patternUnits="userSpaceOnUse"
       width="6"
       height="6"
       x="0"
       y="0" />
    <pattern
       id="EMFhbasepattern-8"
       patternUnits="userSpaceOnUse"
       width="6"
       height="6"
       x="0"
       y="0" />
    <pattern
       id="EMFhbasepattern-4"
       patternUnits="userSpaceOnUse"
       width="6"
       height="6"
       x="0"
       y="0" />
    <pattern
       id="EMFhbasepattern-40"
       patternUnits="userSpaceOnUse"
       width="6"
       height="6"
       x="0"
       y="0" />
    <pattern
       id="EMFhbasepattern-08"
       patternUnits="userSpaceOnUse"
       width="6"
       height="6"
       x="0"
       y="0" />
    <pattern
       id="EMFhbasepattern-04"
       patternUnits="userSpaceOnUse"
       width="6"
       height="6"
       x="0"
       y="0" />
    <pattern
       id="EMFhbasepattern-014"
       patternUnits="userSpaceOnUse"
       width="6"
       height="6"
       x="0"
       y="0" />
    <pattern
       id="EMFhbasepattern-27"
       patternUnits="userSpaceOnUse"
       width="6"
       height="6"
       x="0"
       y="0" />
    <pattern
       id="EMFhbasepattern-09"
       patternUnits="userSpaceOnUse"
       width="6"
       height="6"
       x="0"
       y="0" />
    <pattern
       id="EMFhbasepattern-5"
       patternUnits="userSpaceOnUse"
       width="6"
       height="6"
       x="0"
       y="0" />
    <pattern
       id="EMFhbasepattern-018"
       patternUnits="userSpaceOnUse"
       width="6"
       height="6"
       x="0"
       y="0" />
  </defs>
  <sodipodi:namedview
     id="base"
     pagecolor="#ffffff"
     bordercolor="#666666"
     borderopacity="1.0"
     inkscape:pageopacity="0.0"
     inkscape:pageshadow="2"
     inkscape:zoom="4.6006733"
     inkscape:cx="42.71114"
     inkscape:cy="42.71114"
     inkscape:document-units="pt"
     inkscape:current-layer="layer1"
     showgrid="false"
     units="pt"
     inkscape:window-width="958"
     inkscape:window-height="1003"
     inkscape:window-x="952"
     inkscape:window-y="0"
     inkscape:window-maximized="0"
     inkscape:pagecheckerboard="true"
     inkscape:showpageshadow="false"
     inkscape:object-paths="false"
     inkscape:snap-intersection-paths="true"
     inkscape:snap-smooth-nodes="true"
     inkscape:snap-midpoints="true"
     showguides="true"
     inkscape:snap-bbox="true"
     inkscape:bbox-nodes="true"
     inkscape:snap-nodes="false"
     inkscape:snap-global="true">
    <inkscape:grid
       type="xygrid"
       id="grid1378" />
    <sodipodi:guide
       position="0.97013831,21.607643"
       orientation="78.000048,0"
       id="guide1380"
       inkscape:locked="false" />
    <sodipodi:guide
       position="0.97013831,0.97013129"
       orientation="0,78.000005"
       id="guide1382"
       inkscape:locked="false" />
    <sodipodi:guide
       position="21.607639,0.97013129"
       orientation="-78.000048,0"
       id="guide1384"
       inkscape:locked="false" />
    <sodipodi:guide
       position="21.607639,21.607643"
       orientation="0,-78.000005"
       id="guide1386"
       inkscape:locked="false" />
  </sodipodi:namedview>
  <metadata
     id="metadata828">
    <rdf:RDF>
      <cc:Work
         rdf:about="">
        <dc:format>image/svg+xml</dc:format>
        <dc:type
           rdf:resource="http://purl.org/dc/dcmitype/StillImage" />
      </cc:Work>
    </rdf:RDF>
  </metadata>
  <g
     inkscape:label="Icon"
     inkscape:groupmode="layer"
     id="layer1"
     transform="translate(0,-274.42223)"
     style="display:inline">
    <g
       id="g58837"
       style="display:inline;stroke-width:0.796143"
       transform="matrix(1.2560557,0,0,1.2560557,38.968279,-38.390053)">
      <path
         style="color:#000000;fill:#50b86b;fill-opacity:1;stroke-width:3.00905;stroke-linecap:round;stroke-linejoin:round;-inkscape-stroke:none"
         d="m -109.33984,-72.298828 c -0.55305,0.0011 -1.00021,0.450858 -0.99805,1.003906 0.002,0.549999 0.44805,0.995025 0.99805,0.996094 h 1.0039 v 6.998047 h -1.0039 c -0.55305,0.0011 -1.00021,0.450858 -0.99805,1.003906 0.002,0.549999 0.44805,0.995025 0.99805,0.996094 7.33463,0 14.669268,0 22.003902,0 2.749573,0 4.998036,-2.246526 4.998047,-4.996094 v -1.003906 c -1.1e-5,-2.749607 -2.248474,-4.998047 -4.998047,-4.998047 -7.334634,0 -14.669272,0 -22.003902,0 z"
         transform="matrix(0.26458334,0,0,0.26458334,0,280.06666)"
         id="rect41350"
         sodipodi:nodetypes="csccccsccsscc" />
      <path
         id="path51505"
         style="fill:#349951;fill-opacity:1;stroke:none;stroke-width:0.210646px;stroke-linecap:butt;stroke-linejoin:miter;stroke-opacity:1"
         d="m -28.663885,262.34164 v 0.97669 H -28.9295 c -0.146325,2.8e-4 -0.264635,0.11929 -0.264067,0.26561 5.68e-4,0.14552 0.118546,0.26327 0.264067,0.26355 1.940622,0 3.881243,0 5.821865,0 0.727491,0 1.322399,-0.59439 1.322401,-1.32188 v -0.18397 z"
         sodipodi:nodetypes="cccsccscc" />
      <path
         style="color:#000000;fill:#dc1c4b;stroke-width:0.796143;stroke-linecap:round;stroke-linejoin:round;-inkscape-stroke:none"
         d="m -27.341797,263.31836 c -0.435244,0 -0.792971,0.35968 -0.792969,0.79492 v 0.26367 c -2e-6,0.43525 0.357725,0.79493 0.792969,0.79492 h 5.556641 c 0.435244,10e-6 0.792971,-0.35967 0.792969,-0.79492 v -0.26367 c 2e-6,-0.43524 -0.357725,-0.79492 -0.792969,-0.79492 z"
         id="path1344" />
      <path
         style="color:#000000;fill:#fafcbd;fill-opacity:1;stroke:none;stroke-width:3.00905;stroke-linecap:round;stroke-linejoin:round;stroke-opacity:1;-inkscape-stroke:none"
         d="m -108.33594,-70.298828 h 21.000002 c 1.668696,0 2.99804,1.329348 2.998047,2.998047 v 1.003906 c -7e-6,1.668699 -1.329351,2.996094 -2.998047,2.996094 h -21.000002 z"
         transform="matrix(0.26458334,0,0,0.26458334,0,280.06666)"
         id="path205992"
         sodipodi:nodetypes="csssscc" />
      <path
         id="path44446"
         style="fill:#e8cf76;fill-opacity:1;stroke:none;stroke-width:0.796142px;stroke-linecap:butt;stroke-linejoin:miter;stroke-opacity:1"
         d="m -108.33594,-66.992188 v 3.691407 h 21.000002 c 1.668697,0 2.99804,-1.327395 2.998047,-2.996094 v -0.695313 z"
         transform="matrix(0.26458334,0,0,0.26458334,0,280.06666)" />
      <path
         style="color:#000000;fill:#dc1c4b;stroke-width:0.796143;stroke-linecap:round;stroke-linejoin:round;-inkscape-stroke:none"
         d="m -18.609375,260.9375 c -0.435244,0 -0.794925,0.35968 -0.794922,0.79492 v 0.52735 a 0.26460996,0.26460996 0 0 0 0.265625,0.26562 h 1.058594 a 0.26460996,0.26460996 0 0 0 0.263672,-0.26562 v -0.52735 c 3e-6,-0.43524 -0.357726,-0.79492 -0.792969,-0.79492 z"
         id="path4643" />
      <path
         id="path36287"
         style="color:#000000;fill:#b01d47;fill-opacity:1;stroke-width:0.796143;stroke-linecap:round;stroke-linejoin:round;-inkscape-stroke:none"
         d="m -18.629871,260.93759 c -0.346559,0.009 -0.641892,0.24571 -0.740007,0.56431 0.07337,-0.0227 0.151218,-0.0351 0.231511,-0.0351 0.435243,0 0.792719,0.35954 0.792716,0.79478 v 0.26407 h 0.265617 a 0.26460996,0.26460996 0 0 0 0.26355,-0.26562 v -0.52761 c 3e-6,-0.43524 -0.357473,-0.79479 -0.792716,-0.79479 -0.0068,0 -0.01391,-1.7e-4 -0.02067,0 z" />
      <path
         style="color:#000000;fill:#a8c2e1;stroke-width:0.796143;stroke-linecap:round;stroke-linejoin:round;-inkscape-stroke:none"
         d="m -19.404297,261.99609 c -0.435244,0 -0.792969,0.35773 -0.792969,0.79297 v 1.58789 c 0,0.43525 0.357725,0.79492 0.792969,0.79492 h 4.763672 c 0.435225,0 0.792969,-0.35969 0.792969,-0.79492 v -1.05078 c -5.76e-4,-0.10756 -0.0662,-0.20406 -0.166016,-0.24414 -0.911971,-0.35331 -1.835881,-0.76726 -2.74805,-1.08591 z"
         id="path4835"
         sodipodi:nodetypes="cssssscccc" />
      <path
         style="color:#000000;fill:#a8c2e1;stroke-width:0.796143;stroke-linecap:round;stroke-linejoin:round;-inkscape-stroke:none"
         d="m -15.474609,258.01367 a 0.26460996,0.26460996 0 0 0 -0.324219,0.1875 l -0.714844,2.66797 a 0.26460996,0.26460996 0 0 0 0.25586,0.33398 h 1.095703 a 0.26460996,0.26460996 0 0 0 0.255859,-0.19531 l 0.640625,-2.39453 a 0.26460996,0.26460996 0 0 0 -0.1875,-0.32422 z"
         id="path4259" />
      <path
         id="path11084"
         style="color:#000000;fill:#91a9d9;fill-opacity:1;stroke-width:0.796143;stroke-linecap:round;stroke-linejoin:round;-inkscape-stroke:none"
         d="m -15.566492,258.00547 a 0.26460996,0.26460996 0 0 0 -0.232544,0.19586 l -0.09922,0.37 0.915707,0.24701 a 0.26460996,0.26460996 0 0 1 0.187585,0.32402 l -0.550871,2.06085 h 0.183968 a 0.26460996,0.26460996 0 0 0 0.255799,-0.19534 l 0.640271,-2.39468 a 0.26460996,0.26460996 0 0 0 -0.187586,-0.32401 l -1.021126,-0.27544 a 0.26460996,0.26460996 0 0 0 -0.09198,-0.008 z" />
      <path
         id="path38127"
         style="color:#000000;fill:#91a9d9;fill-opacity:1;stroke-width:3.00905;stroke-linecap:round;stroke-linejoin:round;-inkscape-stroke:none"
         d="m -63.166994,-68.261714 c -0.05319,-0.02093 -3.172854,-0.0371 -3.172854,-0.0371 l -6.999996,-9e-6 c -1.442772,-2e-6 -2.70356,1.136378 -2.867187,2 3.289062,0 6.578125,0 9.867187,0 v 2.998047 c 1.2e-5,1.645001 1.358916,3.003906 3.003906,3.003906 h 8.998047 c 0.0029,1.257737 1.28e-4,2.705982 0,3.871094 1.22781,-0.376819 2,-1.52882 2,-2.873047 v -3.972656 c -3.125039,-2.505337 -7.147915,-3.524435 -10.829103,-4.99023 z"
         transform="matrix(0.26458334,0,0,0.26458334,0,280.06666)"
         sodipodi:nodetypes="ccsccccccsccc" />
      <path
         style="color:#000000;fill:#3a4d5c;stroke-width:0.796143;stroke-linecap:round;stroke-linejoin:round;-inkscape-stroke:none"
         d="m -16.228516,260.67383 c -0.435237,0 -0.794919,0.35773 -0.794921,0.79297 v 1.32226 c 2e-6,0.43524 0.359684,0.79492 0.794921,0.79492 h 2.117188 a 0.26460996,0.26460996 0 0 0 0.263672,-0.26562 v -1.85156 c -3e-6,-0.43524 -0.357731,-0.79297 -0.792969,-0.79297 z"
         id="path4451" />
      <path
         style="color:#000000;fill:#a8c2e1;stroke-width:0.796143;stroke-linecap:round;stroke-linejoin:round;-inkscape-stroke:none"
         d="m -16.662109,253.53516 -0.917969,0.52929 a 0.26460996,0.26460996 0 0 0 -0.09766,0.36133 l 1.849609,3.20313 a 0.26460996,0.26460996 0 0 0 0.332031,0.11328 l 0.984375,-0.41211 a 0.26460996,0.26460996 0 0 0 0.126953,-0.375 l -1.917968,-3.32227 a 0.26460996,0.26460996 0 0 0 -0.359375,-0.0977 z"
         id="path3875" />
      <path
         style="color:#000000;fill:#fff79c;stroke-width:0.796143;stroke-linecap:round;stroke-linejoin:round;-inkscape-stroke:none"
         d="m -25.486328,255.50195 a 0.26460996,0.26460996 0 0 0 -0.302734,0.0293 c -0.105743,0.0902 -0.198507,0.19976 -0.271485,0.32617 -0.347759,0.60233 -0.132607,1.38102 0.472656,1.73047 0.605265,0.34945 1.38662,0.1453 1.734375,-0.45703 0.07392,-0.12802 0.123439,-0.26382 0.148438,-0.40234 a 0.26460996,0.26460996 0 0 0 -0.128906,-0.27735 z"
         id="path2850" />
      <path
         id="path50838"
         style="color:#000000;fill:#fed883;stroke-width:3.00905;stroke-linecap:round;stroke-linejoin:round;-inkscape-stroke:none"
         d="m -102.14258,-85.291016 -2.59961,1.50586 c -0.47612,0.277725 -0.63773,0.888346 -0.36133,1.365234 0.27773,0.476118 0.88835,0.637728 1.36524,0.361328 l 2.59961,-1.498047 c 0.47612,-0.277725 0.63773,-0.888346 0.36133,-1.365234 -0.35217,-0.528405 -1.07595,-0.525546 -1.36524,-0.369141 z m 3.203127,2.191404 -2.501957,4.333984 c -0.2764,0.476888 -0.11479,1.087509 0.36133,1.365234 0.48067,0.280434 1.097805,0.114518 1.373049,-0.36914 l 2.49414,-4.326172 c 0.276397,-0.476888 0.114787,-1.087509 -0.361328,-1.365235 -0.547604,-0.271245 -1.094428,-0.02403 -1.365234,0.361329 z m 4.230469,1.675784 c -0.55534,-0.0022 -1.00608,0.448566 -1.003907,1.003906 v 2.998047 c -0.0022,0.55534 0.448567,1.00608 1.003907,1.003906 0.552286,-0.0022 0.998254,-0.45162 0.996093,-1.003906 v -2.998047 c 0.0022,-0.552286 -0.443807,-1.001752 -0.996093,-1.003906 z"
         transform="matrix(0.26458334,0,0,0.26458334,0,280.06666)"
         sodipodi:nodetypes="ccccccccccccccsccsccs" />
      <path
         style="color:#000000;fill:#a8c2e1;stroke-width:0.796143;stroke-linecap:round;stroke-linejoin:round;-inkscape-stroke:none"
         d="m -21.525391,251.33398 a 0.26460996,0.26460996 0 0 0 -0.324218,0.1875 l -0.273438,1.02149 a 0.26460996,0.26460996 0 0 0 0.185547,0.32422 l 3.798828,1.01758 a 0.26460996,0.26460996 0 0 0 0.275391,-0.0899 l 0.71875,-0.9043 a 0.26460996,0.26460996 0 0 0 -0.138672,-0.41992 z"
         id="path3489" />
      <path
         id="path41087"
         style="color:#000000;fill:#e8cf76;fill-opacity:1;stroke-width:0.796143;stroke-linecap:round;stroke-linejoin:round;-inkscape-stroke:none"
         d="m -25.602055,255.46816 a 0.26460996,0.26460996 0 0 0 -0.187068,0.063 c -0.105744,0.0902 -0.198324,0.19966 -0.271302,0.32607 -0.02641,0.0457 -0.04977,0.0925 -0.06977,0.14005 a 0.26460996,0.26460996 0 0 1 0.114723,0.0336 l 1.652096,0.94929 a 0.26460996,0.26460996 0 0 1 0.129191,0.27751 c -0.02193,0.12156 -0.06284,0.24105 -0.122473,0.35501 0.203813,-0.10655 0.380658,-0.26915 0.503327,-0.48162 0.07392,-0.12802 0.123314,-0.26404 0.148312,-0.40256 a 0.26460996,0.26460996 0 0 0 -0.12919,-0.2775 l -1.652096,-0.9493 a 0.26460996,0.26460996 0 0 0 -0.115755,-0.0336 z" />
      <path
         style="color:#000000;fill:#a8c2e1;stroke-width:0.796143;stroke-linecap:round;stroke-linejoin:round;-inkscape-stroke:none"
         d="m -25.210937,252.70117 -1.41211,2.44727 c -0.07317,0.12623 -0.03036,0.28787 0.0957,0.36133 l 3.207032,1.85156 c 0.126752,0.0728 0.288552,0.0291 0.361328,-0.0977 l 1.412109,-2.44531 c 0.43672,-0.75643 0.320209,-1.68537 -0.224609,-2.31836 -0.413706,-0.26971 -0.874806,-0.54939 -1.487673,-0.74191 -0.612867,-0.19251 -1.505274,0.16976 -1.951777,0.94312 z"
         id="path3105"
         sodipodi:nodetypes="ccccccccc" />
      <path
         id="path5023"
         style="color:#000000;fill:#91a9d9;fill-opacity:1;stroke-width:3.00905;stroke-linecap:round;stroke-linejoin:round;-inkscape-stroke:none"
         d="m -88.958984,-107.20117 c -2.418079,-0.019 -4.642123,1.25385 -6.035157,3.30859 1.406427,-0.95243 3.106956,-1.41034 4.810547,-1.29687 -0.490969,2.08537 0.772663,4.22316 2.855469,4.78125 1.346395,0.36077 2.727236,-0.0206 3.703125,-0.88868 1.472188,2.320862 1.642974,5.348174 0.1875,7.869146 l -4.451172,7.708984 c 0.434364,0.112136 0.890256,-0.07868 1.115234,-0.466797 l 5.335938,-9.242187 c 1.650595,-2.858948 1.211506,-6.369316 -0.847656,-8.761716 -2.517846,-1.86852 -3.83906,-2.9025 -6.673828,-3.01172 z"
         transform="matrix(0.26458334,0,0,0.26458334,0,280.06666)"
         sodipodi:nodetypes="cccsccccscc" />
      <path
         id="path7950"
         style="color:#000000;fill:#91a9d9;fill-opacity:1;stroke-width:0.796143;stroke-linecap:round;stroke-linejoin:round;-inkscape-stroke:none"
         d="m -21.849829,251.52163 -0.09922,0.37001 4.136697,1.10794 c 0.183873,0.0494 0.256927,0.27105 0.138494,0.42013 -0.782311,1.06341 0.230119,-0.15289 0.529166,-0.52912 0.118433,-0.14908 0.04538,-0.3707 -0.138493,-0.42013 l -4.242118,-1.13636 c -0.178423,-0.0294 -0.248662,0.11127 -0.324526,0.18753 z"
         sodipodi:nodetypes="cccccccc" />
      <path
         id="path9790"
         style="color:#000000;fill:#91a9d9;fill-opacity:1;stroke-width:0.796143;stroke-linecap:round;stroke-linejoin:round;-inkscape-stroke:none"
         d="m -16.513204,253.50135 c -0.05183,-0.004 -0.103594,0.008 -0.148828,0.0336 l -0.91829,0.52968 c -0.10249,0.0597 -0.152752,0.18027 -0.12299,0.29507 l 0.512113,-0.29559 c 0.126262,-0.0714 0.286439,-0.0278 0.359151,0.0977 l 1.918229,3.32228 c 0.110602,-0.0122 0.280489,-0.10304 0.402042,-0.15398 0.146356,-0.0616 0.205896,-0.2373 0.127123,-0.37517 l -1.918229,-3.32228 c -0.04401,-0.0759 -0.122787,-0.12509 -0.210323,-0.13126 z"
         sodipodi:nodetypes="cccccccccccc" />
      <path
         style="color:#000000;fill:#3a4d5c;stroke-width:0.796143;stroke-linecap:round;stroke-linejoin:round;-inkscape-stroke:none"
         d="m -17.814453,252.59961 c -0.503477,0.29068 -0.6774,0.94379 -0.386719,1.44726 0.290685,0.50348 0.941835,0.67741 1.445313,0.38672 0.503476,-0.29068 0.677399,-0.94183 0.386718,-1.44531 -0.345143,-0.49414 -0.963065,-0.65713 -1.445312,-0.38867 z"
         id="path3681"
         sodipodi:nodetypes="csccc" />
      <path
         style="color:#000000;fill:#3a4d5c;stroke-width:0.796143;stroke-linecap:round;stroke-linejoin:round;-inkscape-stroke:none"
         d="m -14.605469,256.8125 c -0.561559,-0.15047 -1.144455,0.18649 -1.294922,0.74805 -0.150467,0.56155 0.186491,1.1464 0.748047,1.29687 0.56156,0.15047 1.144456,-0.18649 1.294922,-0.74805 0.150468,-0.56155 -0.18649,-1.1464 -0.748047,-1.29687 z"
         id="path4067" />
      <path
         style="color:#000000;fill:#3a4d5c;stroke-width:0.796143;stroke-linecap:round;stroke-linejoin:round;-inkscape-stroke:none"
         d="m -22.029297,250.92578 c -0.561555,-0.15047 -1.144449,0.18649 -1.294922,0.74805 -0.150468,0.56155 0.186491,1.1464 0.748047,1.29687 0.561555,0.15047 1.146403,-0.18649 1.296875,-0.74804 0.150468,-0.56156 -0.188443,-1.14641 -0.75,-1.29688 z"
         id="path3297" />
      <path
         id="path1319"
         style="color:#000000;fill:#cba158;fill-opacity:1;stroke-width:3.00905;stroke-linecap:round;stroke-linejoin:round;-inkscape-stroke:none"
         d="m -108.33594,-67.796875 v 2.001953 h 5.03321 a 1.0000006,1.0000006 0 0 0 0.99804,-1.003906 1.0000006,1.0000006 0 0 0 -0.99804,-0.998047 z m 8.968752,0 a 1.0000006,1.0000006 0 0 0 -1.003902,0.998047 1.0000006,1.0000006 0 0 0 1.003902,1.003906 h 12.03125 a 1.0000006,1.0000006 0 0 0 0.998047,-1.003906 1.0000006,1.0000006 0 0 0 -0.998047,-0.998047 z"
         transform="matrix(0.26458334,0,0,0.26458334,0,280.06666)" />
      <path
         style="color:#000000;fill:#a8c2e1;stroke-width:0.796143;stroke-linecap:round;stroke-linejoin:round;-inkscape-stroke:none"
         d="m -29.986328,264.64258 a 0.2645835,0.2645835 0 0 0 -0.265625,0.26367 0.2645835,0.2645835 0 0 0 0.265625,0.26562 h 15.345703 a 0.2645835,0.2645835 0 0 0 0.263672,-0.26562 0.2645835,0.2645835 0 0 0 -0.263672,-0.26367 z"
         id="path41208" />
      <path
         style="color:#000000;fill:#fafcbd;fill-opacity:1;stroke-width:0.796143;stroke-linecap:round;stroke-linejoin:round;-inkscape-stroke:none"
         d="m -27.341797,263.84766 h 5.556641 c 0.14926,0 0.265626,0.11636 0.265625,0.26562 v 0.26367 c 1e-6,0.14926 -0.116365,0.26563 -0.265625,0.26563 h -5.556641 c -0.14926,0 -0.263673,-0.11637 -0.263672,-0.26563 v -0.26367 c -1e-6,-0.14926 0.114412,-0.26562 0.263672,-0.26562 z"
         id="path1350" />
      <path
         id="path12881"
         style="color:#000000;fill:#143441;fill-opacity:1;stroke-width:0.796143;stroke-linecap:round;stroke-linejoin:round;-inkscape-stroke:none"
         d="m -23.267313,251.5144 c 0.918279,-0.35609 1.686354,0.62082 1.402495,1.39632 0.278354,-0.12688 0.50079,-0.3717 0.585493,-0.68781 0.150468,-0.56156 -0.188269,-1.14661 -0.749826,-1.29708 -0.492776,-0.12489 -1.005607,0.10078 -1.238162,0.58857 z"
         sodipodi:nodetypes="ccscc" />
      <path
         id="path31412"
         style="color:#000000;fill:#143441;fill-opacity:1;stroke-width:0.796143;stroke-linecap:round;stroke-linejoin:round;-inkscape-stroke:none"
         d="m -18.246949,253.07968 c 0.227398,-0.10166 0.476661,-0.11565 0.7059,-0.0543 0.262157,0.0703 0.497513,0.24021 0.642855,0.49196 0.176226,0.30523 0.181712,0.66475 0.04651,0.96531 0.0325,-0.0146 0.06413,-0.0309 0.0956,-0.0491 0.503476,-0.29068 0.677738,-0.94191 0.387057,-1.44539 -0.145342,-0.25174 -0.380698,-0.42171 -0.642855,-0.49196 -0.534191,-0.13089 -1.043517,0.10853 -1.235067,0.58348 z"
         sodipodi:nodetypes="cccccscc" />
      <path
         id="path32940"
         style="color:#000000;fill:#143441;fill-opacity:1;stroke-width:0.796143;stroke-linecap:round;stroke-linejoin:round;-inkscape-stroke:none"
         d="m -15.843478,257.40086 c 0.924169,-0.36165 1.558835,0.75363 1.399919,1.39736 0.278707,-0.12664 0.501117,-0.37201 0.586011,-0.68885 0.150468,-0.56155 -0.186201,-1.14661 -0.747758,-1.29707 -0.492756,-0.12489 -1.009413,0.10892 -1.238172,0.58856 z"
         sodipodi:nodetypes="ccccc" />
      <path
         id="path56964"
         style="color:#000000;fill:#143441;fill-opacity:1;stroke-width:0.796143;stroke-linecap:round;stroke-linejoin:round;-inkscape-stroke:none"
         d="m -16.228467,260.67404 c -0.355706,0 -0.660999,0.23888 -0.760677,0.56379 0.583692,-0.0844 1.214314,-0.0346 1.819527,-0.0346 0.435238,0 0.792713,0.35748 0.792716,0.79272 v 1.58801 h 0.265617 c 0.146117,-5.8e-4 0.264103,-0.11949 0.26355,-0.26561 v -1.85157 c -3e-6,-0.43524 -0.357478,-0.79272 -0.792716,-0.79272 z"
         sodipodi:nodetypes="cccccccccc" />
    </g>
  </g>
</svg>
