<?xml version="1.0" encoding="UTF-8" standalone="no"?>
<svg
   xmlns:dc="http://purl.org/dc/elements/1.1/"
   xmlns:cc="http://creativecommons.org/ns#"
   xmlns:rdf="http://www.w3.org/1999/02/22-rdf-syntax-ns#"
   xmlns:svg="http://www.w3.org/2000/svg"
   xmlns="http://www.w3.org/2000/svg"
   xmlns:sodipodi="http://sodipodi.sourceforge.net/DTD/sodipodi-0.dtd"
   xmlns:inkscape="http://www.inkscape.org/namespaces/inkscape"
   inkscape:export-ydpi="576"
   inkscape:export-xdpi="576"
   inkscape:export-filename="D:\Project Real\DESEMBER\export flat\png\05 - Library.png"
   width="64pt"
   height="64pt"
   viewBox="0 0 22.577778 22.577778"
   version="1.1"
   id="svg831"
   inkscape:version="1.0 (4035a4fb49, 2020-05-01)"
   sodipodi:docname="07 - Science.svg">
  <defs
     id="defs825">
    <pattern
       id="EMFhbasepattern"
       patternUnits="userSpaceOnUse"
       width="6"
       height="6"
       x="0"
       y="0" />
    <pattern
       id="EMFhbasepattern-9"
       patternUnits="userSpaceOnUse"
       width="6"
       height="6"
       x="0"
       y="0" />
    <pattern
       id="EMFhbasepattern-0"
       patternUnits="userSpaceOnUse"
       width="6"
       height="6"
       x="0"
       y="0" />
    <pattern
       id="EMFhbasepattern-7"
       patternUnits="userSpaceOnUse"
       width="6"
       height="6"
       x="0"
       y="0" />
    <pattern
       id="EMFhbasepattern-2"
       patternUnits="userSpaceOnUse"
       width="6"
       height="6"
       x="0"
       y="0" />
    <pattern
       id="EMFhbasepattern-98"
       patternUnits="userSpaceOnUse"
       width="6"
       height="6"
       x="0"
       y="0" />
    <pattern
       id="EMFhbasepattern-6"
       patternUnits="userSpaceOnUse"
       width="6"
       height="6"
       x="0"
       y="0" />
    <pattern
       id="EMFhbasepattern-01"
       patternUnits="userSpaceOnUse"
       width="6"
       height="6"
       x="0"
       y="0" />
    <pattern
       id="EMFhbasepattern-07"
       patternUnits="userSpaceOnUse"
       width="6"
       height="6"
       x="0"
       y="0" />
    <pattern
       id="EMFhbasepattern-8"
       patternUnits="userSpaceOnUse"
       width="6"
       height="6"
       x="0"
       y="0" />
    <pattern
       id="EMFhbasepattern-4"
       patternUnits="userSpaceOnUse"
       width="6"
       height="6"
       x="0"
       y="0" />
    <pattern
       id="EMFhbasepattern-40"
       patternUnits="userSpaceOnUse"
       width="6"
       height="6"
       x="0"
       y="0" />
    <pattern
       id="EMFhbasepattern-08"
       patternUnits="userSpaceOnUse"
       width="6"
       height="6"
       x="0"
       y="0" />
    <pattern
       id="EMFhbasepattern-04"
       patternUnits="userSpaceOnUse"
       width="6"
       height="6"
       x="0"
       y="0" />
    <pattern
       id="EMFhbasepattern-014"
       patternUnits="userSpaceOnUse"
       width="6"
       height="6"
       x="0"
       y="0" />
    <pattern
       id="EMFhbasepattern-27"
       patternUnits="userSpaceOnUse"
       width="6"
       height="6"
       x="0"
       y="0" />
    <pattern
       id="EMFhbasepattern-09"
       patternUnits="userSpaceOnUse"
       width="6"
       height="6"
       x="0"
       y="0" />
    <pattern
       id="EMFhbasepattern-5"
       patternUnits="userSpaceOnUse"
       width="6"
       height="6"
       x="0"
       y="0" />
    <pattern
       id="EMFhbasepattern-018"
       patternUnits="userSpaceOnUse"
       width="6"
       height="6"
       x="0"
       y="0" />
  </defs>
  <sodipodi:namedview
     id="base"
     pagecolor="#ffffff"
     bordercolor="#666666"
     borderopacity="1.0"
     inkscape:pageopacity="0.0"
     inkscape:pageshadow="2"
     inkscape:zoom="6.2578125"
     inkscape:cx="42.666667"
     inkscape:cy="42.666667"
     inkscape:document-units="pt"
     inkscape:current-layer="layer1"
     showgrid="false"
     units="pt"
     inkscape:window-width="1366"
     inkscape:window-height="706"
     inkscape:window-x="-8"
     inkscape:window-y="-8"
     inkscape:window-maximized="1"
     inkscape:pagecheckerboard="true"
     inkscape:showpageshadow="false"
     inkscape:object-paths="true"
     inkscape:snap-intersection-paths="true"
     inkscape:snap-smooth-nodes="true"
     inkscape:snap-midpoints="true"
     showguides="true"
     inkscape:snap-bbox="true"
     inkscape:bbox-nodes="true"
     inkscape:snap-nodes="false"
     inkscape:snap-global="true"
     inkscape:document-rotation="0">
    <inkscape:grid
       type="xygrid"
       id="grid1378" />
    <sodipodi:guide
       position="0.97013831,21.607643"
       orientation="78.000048,0"
       id="guide1380"
       inkscape:locked="false" />
    <sodipodi:guide
       position="0.97013831,0.97013129"
       orientation="0,78.000005"
       id="guide1382"
       inkscape:locked="false" />
    <sodipodi:guide
       position="21.607639,0.97013129"
       orientation="-78.000048,0"
       id="guide1384"
       inkscape:locked="false" />
    <sodipodi:guide
       position="21.607639,21.607643"
       orientation="0,-78.000005"
       id="guide1386"
       inkscape:locked="false" />
  </sodipodi:namedview>
  <metadata
     id="metadata828">
    <rdf:RDF>
      <cc:Work
         rdf:about="">
        <dc:format>image/svg+xml</dc:format>
        <dc:type
           rdf:resource="http://purl.org/dc/dcmitype/StillImage" />
        <dc:title></dc:title>
      </cc:Work>
    </rdf:RDF>
  </metadata>
  <g
     inkscape:label="Icon"
     inkscape:groupmode="layer"
     id="layer1"
     transform="translate(0,-274.42223)">
    <g
       transform="matrix(1.2943848,0,0,1.2943848,-39.153041,-48.279676)"
       style="display:inline;stroke-width:0.772568"
       id="g1210">
      <path
         style="color:#000000;font-style:normal;font-variant:normal;font-weight:normal;font-stretch:normal;font-size:medium;line-height:normal;font-family:sans-serif;font-variant-ligatures:normal;font-variant-position:normal;font-variant-caps:normal;font-variant-numeric:normal;font-variant-alternates:normal;font-variant-east-asian:normal;font-feature-settings:normal;font-variation-settings:normal;text-indent:0;text-align:start;text-decoration:none;text-decoration-line:none;text-decoration-style:solid;text-decoration-color:#000000;letter-spacing:normal;word-spacing:normal;text-transform:none;writing-mode:lr-tb;direction:ltr;text-orientation:mixed;dominant-baseline:auto;baseline-shift:baseline;text-anchor:start;white-space:normal;shape-padding:0;shape-margin:0;inline-size:0;clip-rule:nonzero;display:inline;overflow:visible;visibility:visible;isolation:auto;mix-blend-mode:normal;color-interpolation:sRGB;color-interpolation-filters:linearRGB;solid-color:#000000;solid-opacity:1;vector-effect:none;fill:#e2f0fa;fill-opacity:1;fill-rule:nonzero;stroke:none;stroke-width:0.408817;stroke-linecap:round;stroke-linejoin:round;stroke-miterlimit:1.5;stroke-dasharray:none;stroke-dashoffset:0;stroke-opacity:1;color-rendering:auto;image-rendering:auto;shape-rendering:auto;text-rendering:auto;enable-background:accumulate;stop-color:#000000"
         d="m 38.308596,251.12111 c -1e-6,-0.20466 -0.123665,-0.369 -0.267578,-0.48242 -0.143914,-0.11342 -0.322532,-0.19735 -0.533204,-0.26758 -0.421343,-0.14045 -0.971745,-0.21875 -1.580078,-0.21875 l -2e-6,-2e-5 c -0.608332,0 -1.160687,0.0783 -1.582031,0.21875 -0.210672,0.0702 -0.389289,0.15416 -0.533203,0.26758 -0.143914,0.11342 -0.292968,0.25823 -0.292969,0.46289 10e-7,0.21567 0.135315,0.38612 0.290771,0.50596 l -0.01734,5.63125 c -0.0013,0.43806 -0.384028,1.09048 -0.751953,1.4336 -0.828303,0.77247 -1.347657,1.87492 -1.347657,3.0957 0,2.33487 1.899504,4.23437 4.234375,4.23437 2.334872,0 4.232422,-1.8995 4.232422,-4.23437 0,-1.23979 -0.533796,-2.3568 -1.384765,-3.13086 -0.370822,-0.33731 -0.753486,-0.98311 -0.751953,-1.41992 l 0.01635,-5.61322 c 0.143092,-0.11044 0.268807,-0.27654 0.268808,-0.48296 z"
         id="path1533"
         sodipodi:nodetypes="csscccssccsssssccsc" />
      <path
         style="color:#000000;font-style:normal;font-variant:normal;font-weight:normal;font-stretch:normal;font-size:medium;line-height:normal;font-family:sans-serif;font-variant-ligatures:normal;font-variant-position:normal;font-variant-caps:normal;font-variant-numeric:normal;font-variant-alternates:normal;font-variant-east-asian:normal;font-feature-settings:normal;font-variation-settings:normal;text-indent:0;text-align:start;text-decoration:none;text-decoration-line:none;text-decoration-style:solid;text-decoration-color:#000000;letter-spacing:normal;word-spacing:normal;text-transform:none;writing-mode:lr-tb;direction:ltr;text-orientation:mixed;dominant-baseline:auto;baseline-shift:baseline;text-anchor:start;white-space:normal;shape-padding:0;shape-margin:0;inline-size:0;clip-rule:nonzero;display:inline;overflow:visible;visibility:visible;isolation:auto;mix-blend-mode:normal;color-interpolation:sRGB;color-interpolation-filters:linearRGB;solid-color:#000000;solid-opacity:1;vector-effect:none;fill:#c8dae5;fill-opacity:1;fill-rule:nonzero;stroke:none;stroke-width:0.408817;stroke-linecap:round;stroke-linejoin:round;stroke-miterlimit:1.5;stroke-dasharray:none;stroke-dashoffset:0;stroke-opacity:1;color-rendering:auto;image-rendering:auto;shape-rendering:auto;text-rendering:auto;enable-background:accumulate;stop-color:#000000"
         d="m 38.033297,253.30078 h -1.312594 c -0.146942,-5.8e-4 -0.266207,0.11869 -0.265625,0.26563 5.04e-4,0.14618 0.119449,0.26425 0.265625,0.26367 h 1.312594 z"
         id="path1420"
         sodipodi:nodetypes="cccccc" />
      <path
         style="color:#000000;font-style:normal;font-variant:normal;font-weight:normal;font-stretch:normal;font-size:medium;line-height:normal;font-family:sans-serif;font-variant-ligatures:normal;font-variant-position:normal;font-variant-caps:normal;font-variant-numeric:normal;font-variant-alternates:normal;font-variant-east-asian:normal;font-feature-settings:normal;font-variation-settings:normal;text-indent:0;text-align:start;text-decoration:none;text-decoration-line:none;text-decoration-style:solid;text-decoration-color:#000000;letter-spacing:normal;word-spacing:normal;text-transform:none;writing-mode:lr-tb;direction:ltr;text-orientation:mixed;dominant-baseline:auto;baseline-shift:baseline;text-anchor:start;white-space:normal;shape-padding:0;shape-margin:0;inline-size:0;clip-rule:nonzero;display:inline;overflow:visible;visibility:visible;isolation:auto;mix-blend-mode:normal;color-interpolation:sRGB;color-interpolation-filters:linearRGB;solid-color:#000000;solid-opacity:1;vector-effect:none;fill:#c8dae5;fill-opacity:1;fill-rule:nonzero;stroke:none;stroke-width:0.408817;stroke-linecap:round;stroke-linejoin:round;stroke-miterlimit:1.5;stroke-dasharray:none;stroke-dashoffset:0;stroke-opacity:1;color-rendering:auto;image-rendering:auto;shape-rendering:auto;text-rendering:auto;enable-background:accumulate;stop-color:#000000"
         d="m 38.02944,254.625 h -1.308737 c -0.146176,-5.8e-4 -0.265121,0.11749 -0.265625,0.26367 -5.82e-4,0.14694 0.118683,0.26621 0.265625,0.26563 h 1.308737 z"
         id="path1427"
         sodipodi:nodetypes="cccccc" />
      <path
         style="color:#000000;font-style:normal;font-variant:normal;font-weight:normal;font-stretch:normal;font-size:medium;line-height:normal;font-family:sans-serif;font-variant-ligatures:normal;font-variant-position:normal;font-variant-caps:normal;font-variant-numeric:normal;font-variant-alternates:normal;font-variant-east-asian:normal;font-feature-settings:normal;font-variation-settings:normal;text-indent:0;text-align:start;text-decoration:none;text-decoration-line:none;text-decoration-style:solid;text-decoration-color:#000000;letter-spacing:normal;word-spacing:normal;text-transform:none;writing-mode:lr-tb;direction:ltr;text-orientation:mixed;dominant-baseline:auto;baseline-shift:baseline;text-anchor:start;white-space:normal;shape-padding:0;shape-margin:0;inline-size:0;clip-rule:nonzero;display:inline;overflow:visible;visibility:visible;isolation:auto;mix-blend-mode:normal;color-interpolation:sRGB;color-interpolation-filters:linearRGB;solid-color:#000000;solid-opacity:1;vector-effect:none;fill:#c8dae5;fill-opacity:1;fill-rule:nonzero;stroke:none;stroke-width:0.408817;stroke-linecap:round;stroke-linejoin:round;stroke-miterlimit:1.5;stroke-dasharray:none;stroke-dashoffset:0;stroke-opacity:1;color-rendering:auto;image-rendering:auto;shape-rendering:auto;text-rendering:auto;enable-background:accumulate;stop-color:#000000"
         d="m 38.025589,255.94727 h -1.304886 c -0.146938,-5.8e-4 -0.266202,0.11868 -0.265625,0.26562 5.04e-4,0.14618 0.119449,0.26425 0.265625,0.26367 h 1.304886 z"
         id="path1433"
         sodipodi:nodetypes="cccccc" />
      <path
         style="color:#000000;font-style:normal;font-variant:normal;font-weight:normal;font-stretch:normal;font-size:medium;line-height:normal;font-family:sans-serif;font-variant-ligatures:normal;font-variant-position:normal;font-variant-caps:normal;font-variant-numeric:normal;font-variant-alternates:normal;font-variant-east-asian:normal;font-feature-settings:normal;font-variation-settings:normal;text-indent:0;text-align:start;text-decoration:none;text-decoration-line:none;text-decoration-style:solid;text-decoration-color:#000000;letter-spacing:normal;word-spacing:normal;text-transform:none;writing-mode:lr-tb;direction:ltr;text-orientation:mixed;dominant-baseline:auto;baseline-shift:baseline;text-anchor:start;white-space:normal;shape-padding:0;shape-margin:0;inline-size:0;clip-rule:nonzero;display:inline;overflow:visible;visibility:visible;isolation:auto;mix-blend-mode:normal;color-interpolation:sRGB;color-interpolation-filters:linearRGB;solid-color:#000000;solid-opacity:1;vector-effect:none;fill:#e2f0fa;fill-opacity:1;fill-rule:nonzero;stroke:none;stroke-width:0.408817;stroke-linecap:round;stroke-linejoin:round;stroke-miterlimit:1.5;stroke-dasharray:none;stroke-dashoffset:0;stroke-opacity:1;color-rendering:auto;image-rendering:auto;shape-rendering:auto;text-rendering:auto;enable-background:accumulate;stop-color:#000000"
         d="m 43.599609,250.05859 c -0.681394,0 -1.298354,0.0897 -1.767578,0.2461 -0.234611,0.0782 -0.432541,0.1729 -0.589843,0.29687 -0.157303,0.12397 -0.289062,0.29879 -0.289063,0.51563 10e-7,0.1841 0.146428,0.28551 0.265625,0.40039 v 12.10351 c 3e-6,0.85033 0.453059,1.63735 1.189453,2.0625 0.736395,0.42517 1.646417,0.42517 2.382813,0 0.736394,-0.42515 1.189449,-1.21218 1.189453,-2.0625 0,-4.04391 0.0011,-8.057 0.002,-12.10156 0.11927,-0.11782 0.26367,-0.2248 0.263672,-0.40234 -1e-6,-0.21684 -0.13176,-0.39166 -0.289063,-0.51563 -0.157302,-0.12397 -0.355232,-0.21867 -0.589843,-0.29687 -0.469224,-0.15641 -1.086185,-0.2461 -1.767579,-0.2461 z"
         id="path1645" />
      <path
         style="color:#000000;font-style:normal;font-variant:normal;font-weight:normal;font-stretch:normal;font-size:medium;line-height:normal;font-family:sans-serif;font-variant-ligatures:normal;font-variant-position:normal;font-variant-caps:normal;font-variant-numeric:normal;font-variant-alternates:normal;font-variant-east-asian:normal;font-feature-settings:normal;font-variation-settings:normal;text-indent:0;text-align:start;text-decoration:none;text-decoration-line:none;text-decoration-style:solid;text-decoration-color:#000000;letter-spacing:normal;word-spacing:normal;text-transform:none;writing-mode:lr-tb;direction:ltr;text-orientation:mixed;dominant-baseline:auto;baseline-shift:baseline;text-anchor:start;white-space:normal;shape-padding:0;shape-margin:0;inline-size:0;clip-rule:nonzero;display:inline;overflow:visible;visibility:visible;opacity:1;isolation:auto;mix-blend-mode:normal;color-interpolation:sRGB;color-interpolation-filters:linearRGB;solid-color:#000000;solid-opacity:1;vector-effect:none;fill:#cccccc;fill-opacity:1;fill-rule:nonzero;stroke:none;stroke-width:0.408817;stroke-linecap:round;stroke-linejoin:round;stroke-miterlimit:1.5;stroke-dasharray:none;stroke-dashoffset:0;stroke-opacity:1;color-rendering:auto;image-rendering:auto;shape-rendering:auto;text-rendering:auto;enable-background:accumulate;stop-color:#000000;stop-opacity:1"
         d="m 42.541016,252.77344 a 0.2645835,0.2645835 0 0 0 -0.263672,0.26367 0.2645835,0.2645835 0 0 0 0.263672,0.26367 h 2.117187 a 0.2645835,0.2645835 0 0 0 0.263672,-0.26367 0.2645835,0.2645835 0 0 0 -0.263672,-0.26367 z"
         id="path1580" />
      <path
         style="color:#000000;font-style:normal;font-variant:normal;font-weight:normal;font-stretch:normal;font-size:medium;line-height:normal;font-family:sans-serif;font-variant-ligatures:normal;font-variant-position:normal;font-variant-caps:normal;font-variant-numeric:normal;font-variant-alternates:normal;font-variant-east-asian:normal;font-feature-settings:normal;font-variation-settings:normal;text-indent:0;text-align:start;text-decoration:none;text-decoration-line:none;text-decoration-style:solid;text-decoration-color:#000000;letter-spacing:normal;word-spacing:normal;text-transform:none;writing-mode:lr-tb;direction:ltr;text-orientation:mixed;dominant-baseline:auto;baseline-shift:baseline;text-anchor:start;white-space:normal;shape-padding:0;shape-margin:0;inline-size:0;clip-rule:nonzero;display:inline;overflow:visible;visibility:visible;isolation:auto;mix-blend-mode:normal;color-interpolation:sRGB;color-interpolation-filters:linearRGB;solid-color:#000000;solid-opacity:1;vector-effect:none;fill:#cccccc;fill-opacity:1;fill-rule:nonzero;stroke:none;stroke-width:0.408817;stroke-linecap:round;stroke-linejoin:round;stroke-miterlimit:1.5;stroke-dasharray:none;stroke-dashoffset:0;stroke-opacity:1;color-rendering:auto;image-rendering:auto;shape-rendering:auto;text-rendering:auto;enable-background:accumulate;stop-color:#000000"
         d="m 42.708984,254.0957 a 0.2645835,0.2645835 0 0 0 -0.263672,0.26368 0.2645835,0.2645835 0 0 0 0.263672,0.26562 h 1.78125 a 0.2645835,0.2645835 0 0 0 0.265625,-0.26562 0.2645835,0.2645835 0 0 0 -0.265625,-0.26368 z"
         id="path1576" />
      <path
         style="color:#000000;font-style:normal;font-variant:normal;font-weight:normal;font-stretch:normal;font-size:medium;line-height:normal;font-family:sans-serif;font-variant-ligatures:normal;font-variant-position:normal;font-variant-caps:normal;font-variant-numeric:normal;font-variant-alternates:normal;font-variant-east-asian:normal;font-feature-settings:normal;font-variation-settings:normal;text-indent:0;text-align:start;text-decoration:none;text-decoration-line:none;text-decoration-style:solid;text-decoration-color:#000000;letter-spacing:normal;word-spacing:normal;text-transform:none;writing-mode:lr-tb;direction:ltr;text-orientation:mixed;dominant-baseline:auto;baseline-shift:baseline;text-anchor:start;white-space:normal;shape-padding:0;shape-margin:0;inline-size:0;clip-rule:nonzero;display:inline;overflow:visible;visibility:visible;isolation:auto;mix-blend-mode:normal;color-interpolation:sRGB;color-interpolation-filters:linearRGB;solid-color:#000000;solid-opacity:1;vector-effect:none;fill:#cccccc;fill-opacity:1;fill-rule:nonzero;stroke:none;stroke-width:0.408817;stroke-linecap:round;stroke-linejoin:round;stroke-miterlimit:1.5;stroke-dasharray:none;stroke-dashoffset:0;stroke-opacity:1;color-rendering:auto;image-rendering:auto;shape-rendering:auto;text-rendering:auto;enable-background:accumulate;stop-color:#000000"
         d="m 42.619141,256.47656 a 0.2645835,0.2645835 0 0 0 -0.265625,0.26563 0.2645835,0.2645835 0 0 0 0.265625,0.26367 h 1.960937 a 0.2645835,0.2645835 0 0 0 0.265625,-0.26367 0.2645835,0.2645835 0 0 0 -0.265625,-0.26563 z"
         id="path1570" />
      <path
         style="color:#000000;font-style:normal;font-variant:normal;font-weight:normal;font-stretch:normal;font-size:medium;line-height:normal;font-family:sans-serif;font-variant-ligatures:normal;font-variant-position:normal;font-variant-caps:normal;font-variant-numeric:normal;font-variant-alternates:normal;font-variant-east-asian:normal;font-feature-settings:normal;font-variation-settings:normal;text-indent:0;text-align:start;text-decoration:none;text-decoration-line:none;text-decoration-style:solid;text-decoration-color:#000000;letter-spacing:normal;word-spacing:normal;text-transform:none;writing-mode:lr-tb;direction:ltr;text-orientation:mixed;dominant-baseline:auto;baseline-shift:baseline;text-anchor:start;white-space:normal;shape-padding:0;shape-margin:0;inline-size:0;clip-rule:nonzero;display:inline;overflow:visible;visibility:visible;isolation:auto;mix-blend-mode:normal;color-interpolation:sRGB;color-interpolation-filters:linearRGB;solid-color:#000000;solid-opacity:1;vector-effect:none;fill:#cccccc;fill-opacity:1;fill-rule:nonzero;stroke:none;stroke-width:0.408817;stroke-linecap:round;stroke-linejoin:round;stroke-miterlimit:1.5;stroke-dasharray:none;stroke-dashoffset:0;stroke-opacity:1;color-rendering:auto;image-rendering:auto;shape-rendering:auto;text-rendering:auto;enable-background:accumulate;stop-color:#000000"
         d="m 42.541016,258.06445 a 0.2645835,0.2645835 0 0 0 -0.263672,0.26367 0.2645835,0.2645835 0 0 0 0.263672,0.26563 h 2.117187 a 0.2645835,0.2645835 0 0 0 0.263672,-0.26563 0.2645835,0.2645835 0 0 0 -0.263672,-0.26367 z"
         id="path1564" />
      <path
         style="color:#000000;font-style:normal;font-variant:normal;font-weight:normal;font-stretch:normal;font-size:medium;line-height:normal;font-family:sans-serif;font-variant-ligatures:normal;font-variant-position:normal;font-variant-caps:normal;font-variant-numeric:normal;font-variant-alternates:normal;font-variant-east-asian:normal;font-feature-settings:normal;font-variation-settings:normal;text-indent:0;text-align:start;text-decoration:none;text-decoration-line:none;text-decoration-style:solid;text-decoration-color:#000000;letter-spacing:normal;word-spacing:normal;text-transform:none;writing-mode:lr-tb;direction:ltr;text-orientation:mixed;dominant-baseline:auto;baseline-shift:baseline;text-anchor:start;white-space:normal;shape-padding:0;shape-margin:0;inline-size:0;clip-rule:nonzero;display:inline;overflow:visible;visibility:visible;isolation:auto;mix-blend-mode:normal;color-interpolation:sRGB;color-interpolation-filters:linearRGB;solid-color:#000000;solid-opacity:1;vector-effect:none;fill:#cccccc;fill-opacity:1;fill-rule:nonzero;stroke:none;stroke-width:0.408817;stroke-linecap:round;stroke-linejoin:round;stroke-miterlimit:1.5;stroke-dasharray:none;stroke-dashoffset:0;stroke-opacity:1;color-rendering:auto;image-rendering:auto;shape-rendering:auto;text-rendering:auto;enable-background:accumulate;stop-color:#000000"
         d="m 42.619141,259.65234 a 0.2645835,0.2645835 0 0 0 -0.265625,0.26368 0.2645835,0.2645835 0 0 0 0.265625,0.26562 h 1.960937 a 0.2645835,0.2645835 0 0 0 0.265625,-0.26562 0.2645835,0.2645835 0 0 0 -0.265625,-0.26368 z"
         id="path1558" />
      <path
         style="color:#000000;font-style:normal;font-variant:normal;font-weight:normal;font-stretch:normal;font-size:medium;line-height:normal;font-family:sans-serif;font-variant-ligatures:normal;font-variant-position:normal;font-variant-caps:normal;font-variant-numeric:normal;font-variant-alternates:normal;font-variant-east-asian:normal;font-feature-settings:normal;font-variation-settings:normal;text-indent:0;text-align:start;text-decoration:none;text-decoration-line:none;text-decoration-style:solid;text-decoration-color:#000000;letter-spacing:normal;word-spacing:normal;text-transform:none;writing-mode:lr-tb;direction:ltr;text-orientation:mixed;dominant-baseline:auto;baseline-shift:baseline;text-anchor:start;white-space:normal;shape-padding:0;shape-margin:0;inline-size:0;clip-rule:nonzero;display:inline;overflow:visible;visibility:visible;isolation:auto;mix-blend-mode:normal;color-interpolation:sRGB;color-interpolation-filters:linearRGB;solid-color:#000000;solid-opacity:1;vector-effect:none;fill:#cccccc;fill-opacity:1;fill-rule:nonzero;stroke:none;stroke-width:0.408817;stroke-linecap:round;stroke-linejoin:round;stroke-miterlimit:1.5;stroke-dasharray:none;stroke-dashoffset:0;stroke-opacity:1;color-rendering:auto;image-rendering:auto;shape-rendering:auto;text-rendering:auto;enable-background:accumulate;stop-color:#000000"
         d="m 42.708984,262.0332 a 0.2645835,0.2645835 0 0 0 -0.263672,0.26368 0.2645835,0.2645835 0 0 0 0.263672,0.26562 h 1.78125 a 0.2645835,0.2645835 0 0 0 0.265625,-0.26562 0.2645835,0.2645835 0 0 0 -0.265625,-0.26368 z"
         id="path1552" />
      <path
         style="color:#000000;font-style:normal;font-variant:normal;font-weight:normal;font-stretch:normal;font-size:medium;line-height:normal;font-family:sans-serif;font-variant-ligatures:normal;font-variant-position:normal;font-variant-caps:normal;font-variant-numeric:normal;font-variant-alternates:normal;font-variant-east-asian:normal;font-feature-settings:normal;font-variation-settings:normal;text-indent:0;text-align:start;text-decoration:none;text-decoration-line:none;text-decoration-style:solid;text-decoration-color:#000000;letter-spacing:normal;word-spacing:normal;text-transform:none;writing-mode:lr-tb;direction:ltr;text-orientation:mixed;dominant-baseline:auto;baseline-shift:baseline;text-anchor:start;white-space:normal;shape-padding:0;shape-margin:0;inline-size:0;clip-rule:nonzero;display:inline;overflow:visible;visibility:visible;isolation:auto;mix-blend-mode:normal;color-interpolation:sRGB;color-interpolation-filters:linearRGB;solid-color:#000000;solid-opacity:1;vector-effect:none;fill:#cccccc;fill-opacity:1;fill-rule:nonzero;stroke:none;stroke-width:0.408817;stroke-linecap:round;stroke-linejoin:round;stroke-miterlimit:1.5;stroke-dasharray:none;stroke-dashoffset:0;stroke-opacity:1;color-rendering:auto;image-rendering:auto;shape-rendering:auto;text-rendering:auto;enable-background:accumulate;stop-color:#000000"
         d="m 42.541016,263.35547 a 0.2645835,0.2645835 0 0 0 -0.263672,0.26562 0.2645835,0.2645835 0 0 0 0.263672,0.26368 h 2.117187 a 0.2645835,0.2645835 0 0 0 0.263672,-0.26368 0.2645835,0.2645835 0 0 0 -0.263672,-0.26562 z"
         id="path1546" />
      <path
         style="color:#000000;font-style:normal;font-variant:normal;font-weight:normal;font-stretch:normal;font-size:medium;line-height:normal;font-family:sans-serif;font-variant-ligatures:normal;font-variant-position:normal;font-variant-caps:normal;font-variant-numeric:normal;font-variant-alternates:normal;font-variant-east-asian:normal;font-feature-settings:normal;font-variation-settings:normal;text-indent:0;text-align:start;text-decoration:none;text-decoration-line:none;text-decoration-style:solid;text-decoration-color:#000000;letter-spacing:normal;word-spacing:normal;text-transform:none;writing-mode:lr-tb;direction:ltr;text-orientation:mixed;dominant-baseline:auto;baseline-shift:baseline;text-anchor:start;white-space:normal;shape-padding:0;shape-margin:0;inline-size:0;clip-rule:nonzero;display:inline;overflow:visible;visibility:visible;opacity:1;isolation:auto;mix-blend-mode:normal;color-interpolation:sRGB;color-interpolation-filters:linearRGB;solid-color:#000000;solid-opacity:1;vector-effect:none;fill:#dc1c4b;fill-opacity:1;fill-rule:nonzero;stroke:none;stroke-width:0.408817;stroke-linecap:round;stroke-linejoin:round;stroke-miterlimit:1.5;stroke-dasharray:none;stroke-dashoffset:0;stroke-opacity:1;color-rendering:auto;image-rendering:auto;shape-rendering:auto;text-rendering:auto;enable-background:accumulate;stop-color:#000000;stop-opacity:1"
         d="m 42.541016,252.50781 a 0.2645835,0.2645835 0 0 0 -0.263672,0.26563 v 0.74023 c -10e-7,0.7826 0.368064,1.52068 0.99414,1.99024 l 0.337891,0.2539 c 0.4932,0.3699 0.783204,0.94991 0.783203,1.56641 v 2.00976 c 2e-6,0.61651 -0.290001,1.19651 -0.783203,1.56641 l -0.337891,0.25391 c -0.626079,0.46955 -0.994142,1.20763 -0.99414,1.99023 v 0.74024 a 0.2645835,0.2645835 0 0 0 0.263672,0.26562 0.2645835,0.2645835 0 0 0 0.265625,-0.26562 v -0.74024 c -2e-6,-0.6165 0.290001,-1.19651 0.783203,-1.56641 l 0.33789,-0.2539 c 0.626079,-0.46956 0.994143,-1.20764 0.994141,-1.99024 v -2.00976 c 10e-7,-0.7826 -0.368064,-1.52068 -0.994141,-1.99024 l -0.33789,-0.2539 c -0.493201,-0.3699 -0.783204,-0.94991 -0.783203,-1.56641 v -0.74023 a 0.2645835,0.2645835 0 0 0 -0.265625,-0.26563 z"
         id="path1623" />
      <path
         style="color:#000000;font-style:normal;font-variant:normal;font-weight:normal;font-stretch:normal;font-size:medium;line-height:normal;font-family:sans-serif;font-variant-ligatures:normal;font-variant-position:normal;font-variant-caps:normal;font-variant-numeric:normal;font-variant-alternates:normal;font-variant-east-asian:normal;font-feature-settings:normal;font-variation-settings:normal;text-indent:0;text-align:start;text-decoration:none;text-decoration-line:none;text-decoration-style:solid;text-decoration-color:#000000;letter-spacing:normal;word-spacing:normal;text-transform:none;writing-mode:lr-tb;direction:ltr;text-orientation:mixed;dominant-baseline:auto;baseline-shift:baseline;text-anchor:start;white-space:normal;shape-padding:0;shape-margin:0;inline-size:0;clip-rule:nonzero;display:inline;overflow:visible;visibility:visible;opacity:1;isolation:auto;mix-blend-mode:normal;color-interpolation:sRGB;color-interpolation-filters:linearRGB;solid-color:#000000;solid-opacity:1;vector-effect:none;fill:#70c2ef;fill-opacity:1;fill-rule:nonzero;stroke:none;stroke-width:0.408817;stroke-linecap:round;stroke-linejoin:round;stroke-miterlimit:1.5;stroke-dasharray:none;stroke-dashoffset:0;stroke-opacity:1;color-rendering:auto;image-rendering:auto;shape-rendering:auto;text-rendering:auto;enable-background:accumulate;stop-color:#000000;stop-opacity:1"
         d="m 44.658203,252.50781 a 0.2645835,0.2645835 0 0 0 -0.265625,0.26563 v 0.74023 c 10e-7,0.6165 -0.290003,1.19651 -0.783203,1.56641 l -0.337891,0.2539 c -0.626076,0.46956 -0.994141,1.20764 -0.99414,1.99024 v 2.00976 c -2e-6,0.7826 0.368061,1.52068 0.99414,1.99024 l 0.337891,0.2539 c 0.493202,0.3699 0.783205,0.94991 0.783203,1.56641 v 0.74024 a 0.2645835,0.2645835 0 0 0 0.265625,0.26562 0.2645835,0.2645835 0 0 0 0.263672,-0.26562 v -0.74024 c 2e-6,-0.7826 -0.368062,-1.52068 -0.994141,-1.99023 l -0.33789,-0.25391 c -0.493202,-0.3699 -0.783205,-0.9499 -0.783203,-1.56641 v -2.00976 c -10e-7,-0.6165 0.290002,-1.19651 0.783203,-1.56641 l 0.33789,-0.2539 c 0.626077,-0.46956 0.994142,-1.20764 0.994141,-1.99024 v -0.74023 a 0.2645835,0.2645835 0 0 0 -0.263672,-0.26563 z"
         id="path1627" />
      <path
         style="color:#000000;font-style:normal;font-variant:normal;font-weight:normal;font-stretch:normal;font-size:medium;line-height:normal;font-family:sans-serif;font-variant-ligatures:normal;font-variant-position:normal;font-variant-caps:normal;font-variant-numeric:normal;font-variant-alternates:normal;font-variant-east-asian:normal;font-feature-settings:normal;font-variation-settings:normal;text-indent:0;text-align:start;text-decoration:none;text-decoration-line:none;text-decoration-style:solid;text-decoration-color:#000000;letter-spacing:normal;word-spacing:normal;text-transform:none;writing-mode:lr-tb;direction:ltr;text-orientation:mixed;dominant-baseline:auto;baseline-shift:baseline;text-anchor:start;white-space:normal;shape-padding:0;shape-margin:0;inline-size:0;clip-rule:nonzero;display:inline;overflow:visible;visibility:visible;isolation:auto;mix-blend-mode:normal;color-interpolation:sRGB;color-interpolation-filters:linearRGB;solid-color:#000000;solid-opacity:1;vector-effect:none;fill:#dc1c4b;fill-opacity:1;fill-rule:nonzero;stroke:none;stroke-width:0.408817;stroke-linecap:round;stroke-linejoin:round;stroke-miterlimit:1.5;stroke-dasharray:none;stroke-dashoffset:0;stroke-opacity:1;color-rendering:auto;image-rendering:auto;shape-rendering:auto;text-rendering:auto;enable-background:accumulate;stop-color:#000000"
         d="m 35.927734,260.90234 c -0.435245,0 -0.794924,0.35968 -0.794922,0.79493 -2e-6,0.43524 0.359677,0.79296 0.794922,0.79296 0.435246,0 0.792972,-0.35772 0.792969,-0.79296 3e-6,-0.43525 -0.357723,-0.79493 -0.792969,-0.79493 z"
         id="path1467" />
      <path
         style="color:#000000;font-style:normal;font-variant:normal;font-weight:normal;font-stretch:normal;font-size:medium;line-height:normal;font-family:sans-serif;font-variant-ligatures:normal;font-variant-position:normal;font-variant-caps:normal;font-variant-numeric:normal;font-variant-alternates:normal;font-variant-east-asian:normal;font-feature-settings:normal;font-variation-settings:normal;text-indent:0;text-align:start;text-decoration:none;text-decoration-line:none;text-decoration-style:solid;text-decoration-color:#000000;letter-spacing:normal;word-spacing:normal;text-transform:none;writing-mode:lr-tb;direction:ltr;text-orientation:mixed;dominant-baseline:auto;baseline-shift:baseline;text-anchor:start;white-space:normal;shape-padding:0;shape-margin:0;inline-size:0;clip-rule:nonzero;display:inline;overflow:visible;visibility:visible;opacity:1;isolation:auto;mix-blend-mode:normal;color-interpolation:sRGB;color-interpolation-filters:linearRGB;solid-color:#000000;solid-opacity:1;vector-effect:none;fill:#dc1c4b;fill-opacity:1;fill-rule:nonzero;stroke:none;stroke-width:0.408817;stroke-linecap:round;stroke-linejoin:round;stroke-miterlimit:1.5;stroke-dasharray:none;stroke-dashoffset:0;stroke-opacity:1;color-rendering:auto;image-rendering:auto;shape-rendering:auto;text-rendering:auto;enable-background:accumulate;stop-color:#000000;stop-opacity:1"
         d="m 35.927734,259.8457 c -0.318315,0 -0.63618,0.0316 -0.939453,0.0918 a 0.26460996,0.26460996 0 0 0 -0.03516,0.01 l -1.115234,0.39062 a 0.26460996,0.26460996 0 0 0 -0.03906,0.0176 c -0.592619,0.32127 -1.046879,0.79491 -1.046875,1.38867 3e-6,0.59307 0.453388,1.06746 1.044922,1.38867 0.591534,0.32121 1.356047,0.51172 2.130859,0.51172 0.320143,0 0.638395,-0.0328 0.94336,-0.0937 a 0.26460996,0.26460996 0 0 0 0.03516,-0.01 l 1.111328,-0.39063 a 0.26460996,0.26460996 0 0 0 0.03906,-0.0176 c 0.591454,-0.32121 1.044919,-0.79565 1.044921,-1.38867 3e-6,-0.59307 -0.453387,-1.06746 -1.044921,-1.38867 -0.591535,-0.32122 -1.354092,-0.50977 -2.128907,-0.50977 z m 0,0.52735 c 0.686442,0 1.378593,0.17664 1.876954,0.44726 0.49836,0.27062 0.767579,0.6138 0.767578,0.92383 -2e-6,0.30787 -0.269967,0.64823 -0.761719,0.91797 l -1.054688,0.37109 c -0.268558,0.053 -0.547777,0.082 -0.828125,0.082 -0.686438,0 -1.378592,-0.17664 -1.876953,-0.44726 -0.49836,-0.27062 -0.769529,-0.6138 -0.769531,-0.92383 -2e-6,-0.30826 0.270821,-0.64811 0.763672,-0.91797 l 1.05664,-0.37109 c 0.267202,-0.0524 0.547501,-0.082 0.826172,-0.082 z"
         id="path1484" />
      <path
         style="color:#000000;font-style:normal;font-variant:normal;font-weight:normal;font-stretch:normal;font-size:medium;line-height:normal;font-family:sans-serif;font-variant-ligatures:normal;font-variant-position:normal;font-variant-caps:normal;font-variant-numeric:normal;font-variant-alternates:normal;font-variant-east-asian:normal;font-feature-settings:normal;font-variation-settings:normal;text-indent:0;text-align:start;text-decoration:none;text-decoration-line:none;text-decoration-style:solid;text-decoration-color:#000000;letter-spacing:normal;word-spacing:normal;text-transform:none;writing-mode:lr-tb;direction:ltr;text-orientation:mixed;dominant-baseline:auto;baseline-shift:baseline;text-anchor:start;white-space:normal;shape-padding:0;shape-margin:0;inline-size:0;clip-rule:nonzero;display:inline;overflow:visible;visibility:visible;opacity:1;isolation:auto;mix-blend-mode:normal;color-interpolation:sRGB;color-interpolation-filters:linearRGB;solid-color:#000000;solid-opacity:1;vector-effect:none;fill:#70c2ef;fill-opacity:1;fill-rule:nonzero;stroke:none;stroke-width:0.408817;stroke-linecap:round;stroke-linejoin:round;stroke-miterlimit:1.5;stroke-dasharray:none;stroke-dashoffset:0;stroke-opacity:1;color-rendering:auto;image-rendering:auto;shape-rendering:auto;text-rendering:auto;enable-background:accumulate;stop-color:#000000;stop-opacity:1"
         d="m 36.673828,258.85742 c -0.295431,0.0459 -0.597793,0.17182 -0.884766,0.34766 -0.573944,0.35168 -1.120405,0.91883 -1.507812,1.58984 -0.38741,0.67101 -0.603505,1.42672 -0.621094,2.09961 -0.01759,0.67289 0.166067,1.30308 0.679688,1.59961 0.513616,0.29654 1.150664,0.14074 1.724609,-0.21094 0.573945,-0.35167 1.120407,-0.91688 1.507813,-1.58789 0.387403,-0.671 0.603505,-1.42672 0.621093,-2.09961 0.01759,-0.67289 -0.166075,-1.30502 -0.679687,-1.60156 -0.256808,-0.14827 -0.544413,-0.1826 -0.839844,-0.13672 z m 0.576172,0.5957 c 0.268494,0.15502 0.430834,0.56006 0.416016,1.12696 -0.01482,0.5669 -0.209517,1.25513 -0.552735,1.84961 -0.343219,0.59447 -0.840677,1.10606 -1.324219,1.40234 -0.483541,0.29629 -0.917053,0.35814 -1.185546,0.20313 -0.268499,-0.15502 -0.430834,-0.56006 -0.416016,-1.12696 0.01482,-0.5669 0.209512,-1.25513 0.552734,-1.84961 0.343221,-0.59447 0.840677,-1.10606 1.324219,-1.40234 0.483543,-0.29628 0.91705,-0.35814 1.185547,-0.20313 z"
         id="path1480" />
      <path
         style="color:#000000;font-style:normal;font-variant:normal;font-weight:normal;font-stretch:normal;font-size:medium;line-height:normal;font-family:sans-serif;font-variant-ligatures:normal;font-variant-position:normal;font-variant-caps:normal;font-variant-numeric:normal;font-variant-alternates:normal;font-variant-east-asian:normal;font-feature-settings:normal;font-variation-settings:normal;text-indent:0;text-align:start;text-decoration:none;text-decoration-line:none;text-decoration-style:solid;text-decoration-color:#000000;letter-spacing:normal;word-spacing:normal;text-transform:none;writing-mode:lr-tb;direction:ltr;text-orientation:mixed;dominant-baseline:auto;baseline-shift:baseline;text-anchor:start;white-space:normal;shape-padding:0;shape-margin:0;inline-size:0;clip-rule:nonzero;display:inline;overflow:visible;visibility:visible;opacity:1;isolation:auto;mix-blend-mode:normal;color-interpolation:sRGB;color-interpolation-filters:linearRGB;solid-color:#000000;solid-opacity:1;vector-effect:none;fill:#dc1c4b;fill-opacity:1;fill-rule:nonzero;stroke:none;stroke-width:0.408817;stroke-linecap:round;stroke-linejoin:round;stroke-miterlimit:1.5;stroke-dasharray:none;stroke-dashoffset:0;stroke-opacity:1;color-rendering:auto;image-rendering:auto;shape-rendering:auto;text-rendering:auto;enable-background:accumulate;stop-color:#000000;stop-opacity:1"
         d="m 35.181641,258.85742 c -0.296392,-0.0465 -0.584174,-0.012 -0.841797,0.13672 -0.513621,0.29653 -0.697277,0.92867 -0.679688,1.60156 0.01759,0.67289 0.233686,1.4286 0.621094,2.09961 0.15733,0.2725 0.341907,0.52541 0.542969,0.75586 0.262959,0.34366 0.597498,0.61208 0.972656,0.82422 5.51e-4,3.4e-4 0.0014,-3.4e-4 0.002,0 0.578406,0.36081 1.202028,0.51483 1.714844,0.21875 0.513613,-0.29654 0.697275,-0.92672 0.679687,-1.59961 -0.01759,-0.67289 -0.233685,-1.4286 -0.621093,-2.09961 -0.160233,-0.27752 -0.349282,-0.5377 -0.554688,-0.77148 a 0.26460996,0.26460996 0 0 0 -0.0039,-0.004 c -0.247862,-0.26966 -0.527578,-0.55589 -0.94336,-0.81055 -0.287776,-0.17708 -0.59228,-0.30504 -0.888671,-0.35156 z m -0.578125,0.5957 c 0.269353,-0.1555 0.704252,-0.0915 1.189453,0.20704 0.356811,0.21854 0.592519,0.45622 0.832031,0.71679 0.181533,0.20714 0.347241,0.43736 0.488281,0.68164 0.343222,0.59448 0.537917,1.28271 0.552735,1.84961 0.01482,0.5669 -0.14752,0.97194 -0.416016,1.12696 -0.280037,0.16168 -0.680463,0.10111 -1.173828,-0.20704 a 0.26460996,0.26460996 0 0 0 -0.0098,-0.008 c -0.331606,-0.18614 -0.608942,-0.41083 -0.824218,-0.69336 a 0.26460996,0.26460996 0 0 0 -0.01172,-0.0137 c -0.181857,-0.20738 -0.348978,-0.43893 -0.490235,-0.68359 -0.343222,-0.59448 -0.537916,-1.28271 -0.552734,-1.84961 -0.01482,-0.5669 0.147516,-0.97194 0.416016,-1.12696 z"
         id="path1488" />
      <path
         style="color:#000000;font-style:normal;font-variant:normal;font-weight:normal;font-stretch:normal;font-size:medium;line-height:normal;font-family:sans-serif;font-variant-ligatures:normal;font-variant-position:normal;font-variant-caps:normal;font-variant-numeric:normal;font-variant-alternates:normal;font-variant-east-asian:normal;font-feature-settings:normal;font-variation-settings:normal;text-indent:0;text-align:start;text-decoration:none;text-decoration-line:none;text-decoration-style:solid;text-decoration-color:#000000;letter-spacing:normal;word-spacing:normal;text-transform:none;writing-mode:lr-tb;direction:ltr;text-orientation:mixed;dominant-baseline:auto;baseline-shift:baseline;text-anchor:start;white-space:normal;shape-padding:0;shape-margin:0;inline-size:0;clip-rule:nonzero;display:inline;overflow:visible;visibility:visible;opacity:1;isolation:auto;mix-blend-mode:normal;color-interpolation:sRGB;color-interpolation-filters:linearRGB;solid-color:#000000;solid-opacity:1;vector-effect:none;fill:#c8dae5;fill-opacity:1;fill-rule:nonzero;stroke:none;stroke-width:0.408817;stroke-linecap:round;stroke-linejoin:round;stroke-miterlimit:1.5;stroke-dasharray:none;stroke-dashoffset:0;stroke-opacity:1;color-rendering:auto;image-rendering:auto;shape-rendering:auto;text-rendering:auto;enable-background:accumulate;stop-color:#000000;stop-opacity:1"
         d="m 33.893109,251.64025 c 0.466036,0.23455 1.239927,0.38733 2.00586,0.39843 0.647476,0.005 1.429845,-0.13174 2.140802,-0.43459 l -0.0044,0.57956 c -0.586109,0.28768 -1.36469,0.39368 -2.144215,0.38238 -0.759159,-0.011 -1.513098,-0.13495 -2.085164,-0.38337 l 0.0043,-0.57514 z"
         id="path1659"
         sodipodi:nodetypes="cccccc" />
      <path
         sodipodi:nodetypes="cccccc"
         id="path1663"
         d="m 41.312175,251.54306 c 0.523422,0.19993 1.392605,0.33016 2.252851,0.33962 0.727203,0.004 1.605909,-0.1123 2.404409,-0.37044 l -0.0049,0.49401 c -0.658279,0.24521 -1.53273,0.33556 -2.408242,0.32593 -0.852638,-0.009 -1.699413,-0.11503 -2.34192,-0.32678 l 0.0048,-0.49024 z"
         style="color:#000000;font-style:normal;font-variant:normal;font-weight:normal;font-stretch:normal;font-size:medium;line-height:normal;font-family:sans-serif;font-variant-ligatures:normal;font-variant-position:normal;font-variant-caps:normal;font-variant-numeric:normal;font-variant-alternates:normal;font-variant-east-asian:normal;font-feature-settings:normal;font-variation-settings:normal;text-indent:0;text-align:start;text-decoration:none;text-decoration-line:none;text-decoration-style:solid;text-decoration-color:#000000;letter-spacing:normal;word-spacing:normal;text-transform:none;writing-mode:lr-tb;direction:ltr;text-orientation:mixed;dominant-baseline:auto;baseline-shift:baseline;text-anchor:start;white-space:normal;shape-padding:0;shape-margin:0;inline-size:0;clip-rule:nonzero;display:inline;overflow:visible;visibility:visible;opacity:1;isolation:auto;mix-blend-mode:normal;color-interpolation:sRGB;color-interpolation-filters:linearRGB;solid-color:#000000;solid-opacity:1;vector-effect:none;fill:#c8dae5;fill-opacity:1;fill-rule:nonzero;stroke:none;stroke-width:0.408817;stroke-linecap:round;stroke-linejoin:round;stroke-miterlimit:1.5;stroke-dasharray:none;stroke-dashoffset:0;stroke-opacity:1;color-rendering:auto;image-rendering:auto;shape-rendering:auto;text-rendering:auto;enable-background:accumulate;stop-color:#000000;stop-opacity:1" />
      <path
         id="path1665"
         style="color:#000000;font-style:normal;font-variant:normal;font-weight:normal;font-stretch:normal;font-size:medium;line-height:normal;font-family:sans-serif;font-variant-ligatures:normal;font-variant-position:normal;font-variant-caps:normal;font-variant-numeric:normal;font-variant-alternates:normal;font-variant-east-asian:normal;font-feature-settings:normal;font-variation-settings:normal;text-indent:0;text-align:start;text-decoration:none;text-decoration-line:none;text-decoration-style:solid;text-decoration-color:#000000;letter-spacing:normal;word-spacing:normal;text-transform:none;writing-mode:lr-tb;direction:ltr;text-orientation:mixed;dominant-baseline:auto;baseline-shift:baseline;text-anchor:start;white-space:normal;shape-padding:0;shape-margin:0;inline-size:0;clip-rule:nonzero;display:inline;overflow:visible;visibility:visible;isolation:auto;mix-blend-mode:normal;color-interpolation:sRGB;color-interpolation-filters:linearRGB;solid-color:#000000;solid-opacity:1;vector-effect:none;fill:#b01d47;fill-opacity:1;fill-rule:nonzero;stroke:none;stroke-width:0.408817;stroke-linecap:round;stroke-linejoin:round;stroke-miterlimit:1.5;stroke-dasharray:none;stroke-dashoffset:0;stroke-opacity:1;color-rendering:auto;image-rendering:auto;shape-rendering:auto;text-rendering:auto;enable-background:accumulate;stop-color:#000000"
         d="m 35.927521,260.90247 c -0.09309,0 -0.181181,0.0195 -0.264583,0.0496 0.306176,0.11065 0.528653,0.4029 0.528651,0.74518 2e-6,0.34228 -0.222454,0.63351 -0.528651,0.74362 0.08339,0.03 0.171505,0.0491 0.264583,0.0491 0.435248,0 0.793237,-0.35747 0.793234,-0.79271 3e-6,-0.43525 -0.357986,-0.79479 -0.793234,-0.79479 z" />
      <path
         d="m 35.927512,250.15221 c -0.608332,0 -1.16047,0.0787 -1.581814,0.2191 -0.210672,0.0702 -0.389387,0.15375 -0.533302,0.26717 -0.122952,0.0969 -0.248885,0.21728 -0.283186,0.37775 0.08796,-0.0432 0.183465,-0.0811 0.287322,-0.11575 0.421343,-0.14045 0.973481,-0.21911 1.581814,-0.21911 0.608332,0 1.158922,0.0787 1.580266,0.21911 0.210672,0.0702 0.389387,0.15375 0.5333,0.26717 0.143914,0.11342 0.267684,0.278 0.267684,0.48266 0,0.20642 -0.126143,0.37273 -0.269235,0.48317 l -0.01602,5.61309 c -0.0015,0.43681 0.381069,1.08225 0.751891,1.41956 0.850971,0.77406 1.384929,1.89128 1.384929,3.13107 0,1.03425 -0.373425,1.98204 -0.991153,2.71818 0.928286,-0.77736 1.52032,-1.94422 1.52032,-3.24735 0,-1.23979 -0.533958,-2.35701 -1.38493,-3.13107 -0.370821,-0.33731 -0.753425,-0.98274 -0.75189,-1.41955 l 0.01602,-5.6131 c 0.143092,-0.11044 0.269235,-0.27675 0.269235,-0.48317 0,-0.20466 -0.12377,-0.36924 -0.267685,-0.48266 -0.143912,-0.11342 -0.322627,-0.19694 -0.533299,-0.26717 -0.421344,-0.14045 -0.971934,-0.2191 -1.580267,-0.2191 z"
         style="color:#000000;font-style:normal;font-variant:normal;font-weight:normal;font-stretch:normal;font-size:medium;line-height:normal;font-family:sans-serif;font-variant-ligatures:normal;font-variant-position:normal;font-variant-caps:normal;font-variant-numeric:normal;font-variant-alternates:normal;font-variant-east-asian:normal;font-feature-settings:normal;font-variation-settings:normal;text-indent:0;text-align:start;text-decoration:none;text-decoration-line:none;text-decoration-style:solid;text-decoration-color:#000000;letter-spacing:normal;word-spacing:normal;text-transform:none;writing-mode:lr-tb;direction:ltr;text-orientation:mixed;dominant-baseline:auto;baseline-shift:baseline;text-anchor:start;white-space:normal;shape-padding:0;shape-margin:0;inline-size:0;clip-rule:nonzero;display:inline;overflow:visible;visibility:visible;isolation:auto;mix-blend-mode:normal;color-interpolation:sRGB;color-interpolation-filters:linearRGB;solid-color:#000000;solid-opacity:1;vector-effect:none;fill:#c8dae5;fill-opacity:1;fill-rule:nonzero;stroke:none;stroke-width:0.408817;stroke-linecap:round;stroke-linejoin:round;stroke-miterlimit:1.5;stroke-dasharray:none;stroke-dashoffset:0;stroke-opacity:1;color-rendering:auto;image-rendering:auto;shape-rendering:auto;text-rendering:auto;enable-background:accumulate;stop-color:#000000"
         id="path1192" />
      <path
         d="m 43.599404,250.05867 c -0.681395,0 -1.298112,0.0896 -1.767335,0.24598 -0.234611,0.0782 -0.432326,0.17317 -0.589629,0.29714 -0.119025,0.0938 -0.222887,0.21663 -0.26665,0.36484 0.09932,-0.0496 0.208542,-0.0933 0.327113,-0.13281 0.469222,-0.1564 1.08594,-0.24598 1.767335,-0.24598 0.681392,0 1.298625,0.0896 1.76785,0.24598 0.234611,0.0782 0.432327,0.17317 0.589627,0.29714 0.157302,0.12397 0.289388,0.29837 0.289388,0.51521 -3e-6,0.17754 -0.14428,0.28474 -0.263549,0.40256 -9e-4,4.04456 -0.0021,8.05768 -0.0021,12.10159 -3e-6,0.51027 -0.166161,0.99613 -0.455788,1.3963 0.613352,-0.44482 0.984949,-1.158 0.984954,-1.92547 0,-4.04391 0.0012,-8.05703 0.0021,-12.10159 0.119269,-0.11782 0.263546,-0.22502 0.263548,-0.40256 0,-0.21684 -0.132085,-0.39124 -0.289388,-0.51521 -0.1573,-0.12397 -0.355015,-0.21894 -0.589626,-0.29714 -0.469226,-0.15641 -1.086459,-0.24598 -1.76785,-0.24598 z"
         style="color:#000000;font-style:normal;font-variant:normal;font-weight:normal;font-stretch:normal;font-size:medium;line-height:normal;font-family:sans-serif;font-variant-ligatures:normal;font-variant-position:normal;font-variant-caps:normal;font-variant-numeric:normal;font-variant-alternates:normal;font-variant-east-asian:normal;font-feature-settings:normal;font-variation-settings:normal;text-indent:0;text-align:start;text-decoration:none;text-decoration-line:none;text-decoration-style:solid;text-decoration-color:#000000;letter-spacing:normal;word-spacing:normal;text-transform:none;writing-mode:lr-tb;direction:ltr;text-orientation:mixed;dominant-baseline:auto;baseline-shift:baseline;text-anchor:start;white-space:normal;shape-padding:0;shape-margin:0;inline-size:0;clip-rule:nonzero;display:inline;overflow:visible;visibility:visible;isolation:auto;mix-blend-mode:normal;color-interpolation:sRGB;color-interpolation-filters:linearRGB;solid-color:#000000;solid-opacity:1;vector-effect:none;fill:#c8dae5;fill-opacity:1;fill-rule:nonzero;stroke:none;stroke-width:0.408817;stroke-linecap:round;stroke-linejoin:round;stroke-miterlimit:1.5;stroke-dasharray:none;stroke-dashoffset:0;stroke-opacity:1;color-rendering:auto;image-rendering:auto;shape-rendering:auto;text-rendering:auto;enable-background:accumulate;stop-color:#000000"
         id="path1198" />
    </g>
  </g>
</svg>
