<?xml version="1.0" encoding="UTF-8" standalone="no"?>
<!-- Created with Inkscape (http://www.inkscape.org/) -->

<svg
   width="64pt"
   height="64pt"
   viewBox="0 0 22.577778 22.577778"
   version="1.1"
   id="svg831"
   inkscape:version="1.1.1 (3bf5ae0d25, 2021-09-20)"
   sodipodi:docname="1 - Trophy.svg"
   inkscape:export-filename="C:\Users\User\Desktop\DESEMBER\9 - Crayons.png"
   inkscape:export-xdpi="576"
   inkscape:export-ydpi="576"
   xmlns:inkscape="http://www.inkscape.org/namespaces/inkscape"
   xmlns:sodipodi="http://sodipodi.sourceforge.net/DTD/sodipodi-0.dtd"
   xmlns="http://www.w3.org/2000/svg"
   xmlns:svg="http://www.w3.org/2000/svg"
   xmlns:rdf="http://www.w3.org/1999/02/22-rdf-syntax-ns#"
   xmlns:cc="http://creativecommons.org/ns#"
   xmlns:dc="http://purl.org/dc/elements/1.1/">
  <defs
     id="defs825">
    <pattern
       id="EMFhbasepattern"
       patternUnits="userSpaceOnUse"
       width="6"
       height="6"
       x="0"
       y="0" />
    <pattern
       id="EMFhbasepattern-9"
       patternUnits="userSpaceOnUse"
       width="6"
       height="6"
       x="0"
       y="0" />
    <pattern
       id="EMFhbasepattern-0"
       patternUnits="userSpaceOnUse"
       width="6"
       height="6"
       x="0"
       y="0" />
    <pattern
       id="EMFhbasepattern-7"
       patternUnits="userSpaceOnUse"
       width="6"
       height="6"
       x="0"
       y="0" />
    <pattern
       id="EMFhbasepattern-2"
       patternUnits="userSpaceOnUse"
       width="6"
       height="6"
       x="0"
       y="0" />
    <pattern
       id="EMFhbasepattern-98"
       patternUnits="userSpaceOnUse"
       width="6"
       height="6"
       x="0"
       y="0" />
    <pattern
       id="EMFhbasepattern-6"
       patternUnits="userSpaceOnUse"
       width="6"
       height="6"
       x="0"
       y="0" />
    <pattern
       id="EMFhbasepattern-01"
       patternUnits="userSpaceOnUse"
       width="6"
       height="6"
       x="0"
       y="0" />
    <pattern
       id="EMFhbasepattern-07"
       patternUnits="userSpaceOnUse"
       width="6"
       height="6"
       x="0"
       y="0" />
    <pattern
       id="EMFhbasepattern-8"
       patternUnits="userSpaceOnUse"
       width="6"
       height="6"
       x="0"
       y="0" />
    <pattern
       id="EMFhbasepattern-4"
       patternUnits="userSpaceOnUse"
       width="6"
       height="6"
       x="0"
       y="0" />
    <pattern
       id="EMFhbasepattern-40"
       patternUnits="userSpaceOnUse"
       width="6"
       height="6"
       x="0"
       y="0" />
    <pattern
       id="EMFhbasepattern-08"
       patternUnits="userSpaceOnUse"
       width="6"
       height="6"
       x="0"
       y="0" />
    <pattern
       id="EMFhbasepattern-04"
       patternUnits="userSpaceOnUse"
       width="6"
       height="6"
       x="0"
       y="0" />
    <pattern
       id="EMFhbasepattern-014"
       patternUnits="userSpaceOnUse"
       width="6"
       height="6"
       x="0"
       y="0" />
    <pattern
       id="EMFhbasepattern-27"
       patternUnits="userSpaceOnUse"
       width="6"
       height="6"
       x="0"
       y="0" />
    <pattern
       id="EMFhbasepattern-09"
       patternUnits="userSpaceOnUse"
       width="6"
       height="6"
       x="0"
       y="0" />
    <pattern
       id="EMFhbasepattern-5"
       patternUnits="userSpaceOnUse"
       width="6"
       height="6"
       x="0"
       y="0" />
    <pattern
       id="EMFhbasepattern-018"
       patternUnits="userSpaceOnUse"
       width="6"
       height="6"
       x="0"
       y="0" />
  </defs>
  <sodipodi:namedview
     id="base"
     pagecolor="#ffffff"
     bordercolor="#666666"
     borderopacity="1.0"
     inkscape:pageopacity="0.0"
     inkscape:pageshadow="2"
     inkscape:zoom="4.6006733"
     inkscape:cx="42.71114"
     inkscape:cy="42.71114"
     inkscape:document-units="pt"
     inkscape:current-layer="layer1"
     showgrid="false"
     units="pt"
     inkscape:window-width="958"
     inkscape:window-height="1003"
     inkscape:window-x="952"
     inkscape:window-y="0"
     inkscape:window-maximized="0"
     inkscape:pagecheckerboard="true"
     inkscape:showpageshadow="false"
     inkscape:object-paths="false"
     inkscape:snap-intersection-paths="true"
     inkscape:snap-smooth-nodes="true"
     inkscape:snap-midpoints="true"
     showguides="true"
     inkscape:snap-bbox="true"
     inkscape:bbox-nodes="true"
     inkscape:snap-nodes="false"
     inkscape:snap-global="true">
    <inkscape:grid
       type="xygrid"
       id="grid1378" />
    <sodipodi:guide
       position="0.97013831,21.607643"
       orientation="78.000048,0"
       id="guide1380"
       inkscape:locked="false" />
    <sodipodi:guide
       position="0.97013831,0.97013129"
       orientation="0,78.000005"
       id="guide1382"
       inkscape:locked="false" />
    <sodipodi:guide
       position="21.607639,0.97013129"
       orientation="-78.000048,0"
       id="guide1384"
       inkscape:locked="false" />
    <sodipodi:guide
       position="21.607639,21.607643"
       orientation="0,-78.000005"
       id="guide1386"
       inkscape:locked="false" />
  </sodipodi:namedview>
  <metadata
     id="metadata828">
    <rdf:RDF>
      <cc:Work
         rdf:about="">
        <dc:format>image/svg+xml</dc:format>
        <dc:type
           rdf:resource="http://purl.org/dc/dcmitype/StillImage" />
      </cc:Work>
    </rdf:RDF>
  </metadata>
  <g
     inkscape:label="Icon"
     inkscape:groupmode="layer"
     id="layer1"
     transform="translate(0,-274.42223)"
     style="display:inline">
    <g
       id="g88810"
       style="display:inline;stroke-width:0.794783"
       transform="matrix(1.2582045,0,0,1.2582045,77.393774,-77.322936)">
      <path
         style="color:#000000;fill:#83a1c9;stroke-width:0.794783;stroke-linecap:round;stroke-linejoin:round;-inkscape-stroke:none"
         d="m -59.833984,284.33398 c -0.498058,0 -0.90625,0.41015 -0.90625,0.90821 v 8.23828 c 0,0.49805 0.408192,0.9082 0.90625,0.9082 h 14.589843 c 0.498057,0 0.906249,-0.41015 0.90625,-0.9082 v -8.23828 c -10e-7,-0.49806 -0.408193,-0.90821 -0.90625,-0.90821 h -0.417968 -13.753907 z"
         id="path46835" />
      <path
         id="path310106"
         style="color:#000000;fill:#6389bb;fill-opacity:1;stroke-width:0.794783;stroke-linecap:round;stroke-linejoin:round;-inkscape-stroke:none"
         d="m -60.158086,284.39559 v 8.01443 c 0,0.42149 0.176683,0.85597 0.560173,1.12293 0.377023,0.26248 0.836297,0.28215 1.221113,0.15658 1.777121,-0.60041 3.881446,-0.49932 5.476575,0.18745 0.226396,0.10057 0.496041,0.10057 0.722437,0 1.817732,-0.80484 3.56721,-0.80094 5.426025,-0.20515 0.395927,0.12684 0.868643,0.10965 1.255739,-0.1602 0.395202,-0.27556 0.576191,-0.72355 0.576191,-1.16014 v -7.95586 c -0.247314,-0.0851 -0.475024,-0.0615 -0.742591,-0.0615 h -13.753682 c -0.254669,-0.0244 -0.494071,0.0144 -0.74198,0.0615 z"
         sodipodi:nodetypes="ccccccccsccccc" />
      <path
         style="color:#000000;fill:#ececec;stroke-width:0.794783;stroke-linecap:round;stroke-linejoin:round;-inkscape-stroke:none"
         d="m -55.630859,282.67969 c -1.034209,-0.0184 -2.042243,0.13247 -3.025391,0.40039 -0.521004,0.14197 -0.876953,0.64266 -0.876953,1.17187 v 6.14258 a 0.26460996,0.26460996 0 0 0 0.261719,0.26367 l 1.714843,0.0156 0.002,1.82617 a 0.26460996,0.26460996 0 0 0 0.310546,0.25977 c 1.540553,-0.27354 3.062527,-0.13335 4.597657,0.54687 a 0.26460996,0.26460996 0 0 0 0.214843,0 c 1.959224,-0.86807 3.899656,-0.86041 5.871094,-0.22852 0.247524,0.0793 0.508069,0.0606 0.707031,-0.0781 0.198963,-0.13873 0.308594,-0.38514 0.308594,-0.64844 v -8.09961 c 0,-0.52922 -0.355943,-1.02989 -0.876953,-1.17187 -1.937945,-0.5281 -3.971746,-0.58247 -6.117187,0.19531 -1.057038,-0.3832 -2.087403,-0.57783 -3.091797,-0.5957 z"
         id="path19338" />
      <path
         id="path12616"
         style="color:#000000;fill:#7d8e9e;stroke-width:3.00391;stroke-linecap:round;stroke-linejoin:round;-inkscape-stroke:none"
         d="m -219.58984,14.84375 c -0.54526,0.102474 -0.90287,0.629242 -0.79688,1.173828 0.10619,0.542079 0.63178,0.895386 1.17383,0.789063 5.19081,-1.012347 10.5975,-0.79882 15.83398,0.177734 0.54442,0.100822 1.06714,-0.259912 1.16602,-0.804687 0.10115,-0.541873 -0.25528,-1.063409 -0.79688,-1.166016 -5.71718,-0.991385 -11.28106,-1.182147 -16.58007,-0.169922 z m 0,4.001953 c -0.54526,0.102474 -0.90287,0.629242 -0.79688,1.173828 0.10619,0.542079 0.63178,0.895386 1.17383,0.789063 5.19081,-1.012384 10.5975,-0.806482 15.83398,0.169922 0.54187,0.10115 1.06341,-0.255276 1.16602,-0.796875 0.10115,-0.541873 -0.25528,-1.063409 -0.79688,-1.166016 -5.71718,-0.991362 -11.28108,-1.182179 -16.58007,-0.169922 z m 7.31643,3.291016 c -2.43428,0.03779 -4.89048,0.222937 -7.32226,0.708984 -0.5397,0.108945 -0.8898,0.63366 -0.78321,1.173828 0.10526,0.542873 0.63115,0.897252 1.17383,0.791016 2.27134,-0.453884 4.61358,-0.635176 6.96875,-0.671875 0.54923,-0.01069 0.98701,-0.46242 0.98047,-1.011719 -0.005,-0.555392 -0.46225,-1.000024 -1.01758,-0.990234 z"
         transform="matrix(0.26458334,0,0,0.26458334,0,280.06666)"
         sodipodi:nodetypes="ccccccccccccccccccccc" />
      <path
         style="color:#000000;fill:#7d8e9e;stroke-width:0.794783;stroke-linecap:round;stroke-linejoin:round;-inkscape-stroke:none"
         d="m -48.455078,291.24219 a 0.2645835,0.2645835 0 0 0 -0.283203,0.24609 0.2645835,0.2645835 0 0 0 0.248047,0.28125 c 0.52232,0.0354 1.043399,0.10472 1.560547,0.19922 a 0.2645835,0.2645835 0 0 0 0.30664,-0.21289 0.2645835,0.2645835 0 0 0 -0.21289,-0.30859 c -0.534564,-0.0977 -1.074604,-0.16823 -1.619141,-0.20508 z"
         id="path14674" />
      <path
         style="color:#000000;fill:#7d8e9e;stroke-width:0.794783;stroke-linecap:round;stroke-linejoin:round;-inkscape-stroke:none"
         d="m -47.496094,290.2832 a 0.2645835,0.2645835 0 0 0 -0.298828,0.22461 0.2645835,0.2645835 0 0 0 0.22461,0.29883 c 0.213506,0.0304 0.427838,0.0659 0.642578,0.10352 a 0.2645835,0.2645835 0 0 0 0.304687,-0.21485 0.2645835,0.2645835 0 0 0 -0.214844,-0.30664 c -0.217954,-0.0382 -0.436817,-0.0739 -0.658203,-0.10547 z"
         id="path14676" />
      <path
         style="color:#000000;fill:#b2b2b2;stroke-width:0.794783;stroke-linecap:round;stroke-linejoin:round;-inkscape-stroke:none"
         d="m -59.367187,290.30505 c -0.100473,0.0403 -0.166234,-0.0168 -0.166016,0.0914 v 2.01368 c 0,0.2476 0.103451,0.47939 0.292969,0.61132 0.189517,0.13194 0.437436,0.15005 0.669922,0.0742 0.44709,-0.14582 0.893138,-0.25933 1.33789,-0.33789 0.206606,-0.037 0.07642,-0.28824 -0.06709,-0.4414 l -1.77861,-1.94886 z"
         id="path19146"
         sodipodi:nodetypes="ccssccccc" />
      <path
         id="path19708"
         style="color:#000000;fill:#cccccc;stroke-width:0.794783;stroke-linecap:round;stroke-linejoin:round;-inkscape-stroke:none"
         d="m -52.802979,283.18378 v 2.78123 a 0.2645835,0.2645835 0 0 0 0.264064,0.26355 0.2645835,0.2645835 0 0 0 0.263552,-0.26355 v -2.78071 c -0.08776,0.0292 -0.175422,0.059 -0.263552,0.091 -0.08819,-0.032 -0.176247,-0.0621 -0.264064,-0.0915 z m 0.264064,6.13451 a 0.2645835,0.2645835 0 0 0 -0.264064,0.26562 v 3.65559 c 0.05209,0.0218 0.10446,0.0441 0.156577,0.0672 a 0.26460996,0.26460996 0 0 0 0.214974,0 c 0.05208,-0.0231 0.104016,-0.0453 0.156065,-0.0672 v -3.65559 a 0.2645835,0.2645835 0 0 0 -0.263552,-0.26562 z" />
      <path
         style="color:#000000;fill:#a8c2e1;stroke-width:0.794783;stroke-linecap:round;stroke-linejoin:round;-inkscape-stroke:none"
         d="m -56.091797,286.93555 c -0.366357,0 -0.667967,0.30356 -0.667969,0.66992 v 0.33398 c 2e-6,0.36636 0.301612,0.66993 0.667969,0.66992 h 0.900391 a 0.26460996,0.26460996 0 0 0 0.263672,-0.26562 v -1.14258 a 0.26460996,0.26460996 0 0 0 -0.263672,-0.26562 z"
         id="path17732" />
      <path
         id="path53031"
         style="color:#000000;fill:#91a9d9;fill-opacity:1;stroke-width:0.794783;stroke-linecap:round;stroke-linejoin:round;-inkscape-stroke:none"
         d="m -56.091668,286.93549 c -0.318159,0 -0.587314,0.22898 -0.652674,0.52917 h 0.494543 a 0.26460996,0.26460996 0 0 1 0.263551,0.26562 v 0.87901 h 0.794782 a 0.26460996,0.26460996 0 0 0 0.263552,-0.26562 v -1.14256 a 0.26460996,0.26460996 0 0 0 -0.263552,-0.26562 z" />
      <path
         id="path304674"
         style="color:#000000;fill:#cccccc;fill-opacity:1;stroke-width:0.794783;stroke-linecap:round;stroke-linejoin:round;-inkscape-stroke:none"
         d="m -58.65637,283.07992 c -0.327178,0.0892 -0.589248,0.31999 -0.738973,0.61029 0.06636,-0.0334 0.13635,-0.0611 0.209807,-0.0811 1.624399,-0.39386 3.024172,-0.53072 4.571558,-0.23576 0.87013,0.16879 1.538177,1.15031 1.528654,2.03751 l -0.0825,7.68552 c 0.173662,0.0634 0.347462,0.13324 0.521415,0.21032 l 0.107487,-10.03143 c -2.095636,-0.72528 -4.038753,-0.75235 -6.117448,-0.19535 z"
         sodipodi:nodetypes="ccccscccc" />
      <path
         style="color:#000000;fill:#4377d1;stroke-width:0.794783;stroke-linecap:round;stroke-linejoin:round;-inkscape-stroke:none"
         d="m -50.890625,284.95117 -2.8125,1.23438 h -0.994141 c -0.416569,0 -0.759765,0.34319 -0.759765,0.75976 v 1.6543 c 0,0.41657 0.343196,0.75976 0.759765,0.75976 h 0.994141 l 2.8125,1.23438 c 0.332204,0.14585 0.724604,-0.10985 0.724609,-0.47266 v -4.69726 c -5e-6,-0.36281 -0.392405,-0.61851 -0.724609,-0.47266 z"
         id="path17924" />
      <path
         style="color:#000000;fill:#a8c2e1;stroke-width:0.794783;stroke-linecap:round;stroke-linejoin:round;-inkscape-stroke:none"
         d="m -49.373047,286.01758 a 0.26460996,0.26460996 0 0 0 -0.263672,0.26367 v 2.80273 a 0.26460996,0.26460996 0 0 0 0.263672,0.26563 c 0.916835,0 1.666012,-0.74918 1.666016,-1.66602 3e-6,-0.91684 -0.749176,-1.66601 -1.666016,-1.66601 z"
         id="path18308" />
      <path
         id="path59335"
         style="color:#000000;fill:#2c5eb5;stroke-width:3.00391;stroke-linecap:round;stroke-linejoin:round;-inkscape-stroke:none"
         d="m -191.62305,18.304688 c -0.24015,0.0038 -0.48333,0.05307 -0.71875,0.15625 -3.54409,1.554267 -7.08732,3.110495 -10.63086,4.666015 h -3.75781 c -1.57443,0 -2.87109,1.296656 -2.87109,2.871094 v 2 c 0,-1.574438 1.29666,-2.871094 2.87109,-2.871094 h 3.75781 l 6.89554,-3.026961 c 1.16226,-0.510207 2.46579,0.341168 2.46579,1.610487 v 15.51999 l 1.26953,0.55664 c 1.25558,0.551244 2.73828,-0.413905 2.73828,-1.785156 0,-5.917969 0,-11.835937 0,-17.753906 0,-1.114167 -0.97891,-1.960632 -2.01953,-1.943359 z"
         transform="matrix(0.26458334,0,0,0.26458334,0,280.06666)"
         sodipodi:nodetypes="cccsscscssccccc" />
      <path
         style="color:#000000;fill:#3a4d5c;stroke-width:0.794783;stroke-linecap:round;stroke-linejoin:round;-inkscape-stroke:none"
         d="m -49.894531,284.28906 c -0.440816,0 -0.802732,0.36387 -0.802735,0.80469 v 5.35352 c -0.0074,0.43584 0.345405,0.79927 0.78125,0.80664 a 0.26460996,0.26460996 0 0 0 0.0039,0.002 c 0.440816,0 0.804684,-0.36387 0.804687,-0.80469 v -5.35351 c 0.0074,-0.43585 -0.347358,-0.80123 -0.783203,-0.8086 a 0.26460996,0.26460996 0 0 0 -0.0039,0 z"
         id="path18116" />
      <path
         id="path310719"
         style="color:#000000;fill:#a6a6a6;fill-opacity:1;stroke-width:0.794783;stroke-linecap:round;stroke-linejoin:round;-inkscape-stroke:none"
         d="m -57.299343,292.31657 -1.778703,-1.94924 -0.455272,0.029 v 0.58136 l 1.704806,1.86811 c 0.0095,0.0102 0.01857,0.0206 0.02791,0.0315 0.189696,-0.0459 0.379193,-0.086 0.568439,-0.11937 z"
         sodipodi:nodetypes="cccccccc" />
      <path
         style="color:#000000;fill:#cccccc;stroke-width:0.794783;stroke-linecap:round;stroke-linejoin:round;-inkscape-stroke:none"
         d="m -59.533463,290.12891 c 0,0.14909 0,0.29817 0,0.44726 l 2.051041,2.22942 c 0.151274,-0.0339 0.303936,-0.0585 0.457031,-0.0819 l -0.0039,-2.31352 c -5e-4,-0.14466 -0.117071,-0.2621 -0.261719,-0.26368 z"
         id="path18795"
         sodipodi:nodetypes="ccccccc" />
      <path
         id="path66035"
         style="color:#000000;fill:#91a9d9;fill-opacity:1;stroke-width:0.794783;stroke-linecap:round;stroke-linejoin:round;-inkscape-stroke:none"
         d="m -49.373214,286.01772 a 0.26460996,0.26460996 0 0 0 -0.144696,0.045 c 0.732885,0.17457 1.281578,0.83647 1.281576,1.62109 -3e-6,0.78462 -0.548693,1.44651 -1.281576,1.62109 a 0.26460996,0.26460996 0 0 0 0.144696,0.0449 c 0.916834,0 1.666044,-0.7492 1.666046,-1.66604 3e-6,-0.91684 -0.749207,-1.66605 -1.666046,-1.66605 z" />
      <path
         id="path62236"
         style="color:#000000;fill:#143441;fill-opacity:1;stroke-width:0.794783;stroke-linecap:round;stroke-linejoin:round;-inkscape-stroke:none"
         d="m -49.894629,284.28914 c -0.357431,0 -0.663035,0.23932 -0.765847,0.56482 0.07493,-0.0235 0.154419,-0.0356 0.23668,-0.0356 a 0.26460996,0.26460996 0 0 1 0.0041,0 c 0.435845,0.007 0.790297,0.37288 0.782897,0.80873 v 5.35317 c 0,0.0829 -0.01286,0.16321 -0.03669,0.23874 0.326202,-0.10287 0.565856,-0.40997 0.565856,-0.76791 v -5.35316 c 0.0074,-0.43585 -0.347051,-0.80137 -0.782896,-0.80874 a 0.26460996,0.26460996 0 0 0 -0.0041,0 z" />
      <path
         id="path306109"
         style="color:#000000;fill:#cccccc;fill-opacity:1;stroke-width:0.794783;stroke-linecap:round;stroke-linejoin:round;-inkscape-stroke:none"
         d="m -52.538914,283.27525 0.0036,0.35295 c 1.654316,-0.49924 3.241759,-0.51366 4.76998,-0.21095 1.201942,0.0998 1.664272,1.28429 1.691124,2.4222 v 7.04144 c 0,0.0778 -0.0098,0.1538 -0.02842,0.22634 0.08912,-0.0193 0.173603,-0.0543 0.249078,-0.10697 0.198964,-0.13873 0.30851,-0.38524 0.30851,-0.64854 v -8.09976 c 0,-0.52922 -0.355939,-1.03004 -0.876949,-1.17202 -2.045021,-0.56104 -4.230704,-0.47448 -6.116923,0.19531 z"
         sodipodi:nodetypes="ccccsccsscc" />
      <path
         id="path310922"
         style="color:#000000;fill:#b2b2b2;fill-opacity:1;stroke-width:0.794783;stroke-linecap:round;stroke-linejoin:round;-inkscape-stroke:none"
         d="m -59.533318,290.1291 v 0.447 l 0.0801,0.0868 1.632977,0.0129 c 0.144648,0.002 0.261498,0.11889 0.261998,0.26355 l 0.0026,1.78646 0.07338,0.0796 c 0.151273,-0.0339 0.303726,-0.0583 0.456819,-0.0817 l -0.0036,-2.31356 c -5e-4,-0.14466 -0.117351,-0.26196 -0.261998,-0.26355 z" />
    </g>
  </g>
</svg>
