<?xml version="1.0" encoding="UTF-8" standalone="no"?>
<!-- Created with Inkscape (http://www.inkscape.org/) -->

<svg
   width="64pt"
   height="64pt"
   viewBox="0 0 22.577778 22.577778"
   version="1.1"
   id="svg831"
   inkscape:version="1.1.1 (3bf5ae0d25, 2021-09-20)"
   sodipodi:docname="1 - Trophy.svg"
   inkscape:export-filename="C:\Users\User\Desktop\DESEMBER\6 - Online Learning.png"
   inkscape:export-xdpi="576"
   inkscape:export-ydpi="576"
   xmlns:inkscape="http://www.inkscape.org/namespaces/inkscape"
   xmlns:sodipodi="http://sodipodi.sourceforge.net/DTD/sodipodi-0.dtd"
   xmlns="http://www.w3.org/2000/svg"
   xmlns:svg="http://www.w3.org/2000/svg"
   xmlns:rdf="http://www.w3.org/1999/02/22-rdf-syntax-ns#"
   xmlns:cc="http://creativecommons.org/ns#"
   xmlns:dc="http://purl.org/dc/elements/1.1/">
  <defs
     id="defs825">
    <pattern
       id="EMFhbasepattern"
       patternUnits="userSpaceOnUse"
       width="6"
       height="6"
       x="0"
       y="0" />
    <pattern
       id="EMFhbasepattern-9"
       patternUnits="userSpaceOnUse"
       width="6"
       height="6"
       x="0"
       y="0" />
    <pattern
       id="EMFhbasepattern-0"
       patternUnits="userSpaceOnUse"
       width="6"
       height="6"
       x="0"
       y="0" />
    <pattern
       id="EMFhbasepattern-7"
       patternUnits="userSpaceOnUse"
       width="6"
       height="6"
       x="0"
       y="0" />
    <pattern
       id="EMFhbasepattern-2"
       patternUnits="userSpaceOnUse"
       width="6"
       height="6"
       x="0"
       y="0" />
    <pattern
       id="EMFhbasepattern-98"
       patternUnits="userSpaceOnUse"
       width="6"
       height="6"
       x="0"
       y="0" />
    <pattern
       id="EMFhbasepattern-6"
       patternUnits="userSpaceOnUse"
       width="6"
       height="6"
       x="0"
       y="0" />
    <pattern
       id="EMFhbasepattern-01"
       patternUnits="userSpaceOnUse"
       width="6"
       height="6"
       x="0"
       y="0" />
    <pattern
       id="EMFhbasepattern-07"
       patternUnits="userSpaceOnUse"
       width="6"
       height="6"
       x="0"
       y="0" />
    <pattern
       id="EMFhbasepattern-8"
       patternUnits="userSpaceOnUse"
       width="6"
       height="6"
       x="0"
       y="0" />
    <pattern
       id="EMFhbasepattern-4"
       patternUnits="userSpaceOnUse"
       width="6"
       height="6"
       x="0"
       y="0" />
    <pattern
       id="EMFhbasepattern-40"
       patternUnits="userSpaceOnUse"
       width="6"
       height="6"
       x="0"
       y="0" />
    <pattern
       id="EMFhbasepattern-08"
       patternUnits="userSpaceOnUse"
       width="6"
       height="6"
       x="0"
       y="0" />
    <pattern
       id="EMFhbasepattern-04"
       patternUnits="userSpaceOnUse"
       width="6"
       height="6"
       x="0"
       y="0" />
    <pattern
       id="EMFhbasepattern-014"
       patternUnits="userSpaceOnUse"
       width="6"
       height="6"
       x="0"
       y="0" />
    <pattern
       id="EMFhbasepattern-27"
       patternUnits="userSpaceOnUse"
       width="6"
       height="6"
       x="0"
       y="0" />
    <pattern
       id="EMFhbasepattern-09"
       patternUnits="userSpaceOnUse"
       width="6"
       height="6"
       x="0"
       y="0" />
    <pattern
       id="EMFhbasepattern-5"
       patternUnits="userSpaceOnUse"
       width="6"
       height="6"
       x="0"
       y="0" />
    <pattern
       id="EMFhbasepattern-018"
       patternUnits="userSpaceOnUse"
       width="6"
       height="6"
       x="0"
       y="0" />
  </defs>
  <sodipodi:namedview
     id="base"
     pagecolor="#ffffff"
     bordercolor="#666666"
     borderopacity="1.0"
     inkscape:pageopacity="0.0"
     inkscape:pageshadow="2"
     inkscape:zoom="4.6006733"
     inkscape:cx="42.71114"
     inkscape:cy="42.71114"
     inkscape:document-units="pt"
     inkscape:current-layer="layer1"
     showgrid="false"
     units="pt"
     inkscape:window-width="958"
     inkscape:window-height="1003"
     inkscape:window-x="952"
     inkscape:window-y="0"
     inkscape:window-maximized="0"
     inkscape:pagecheckerboard="true"
     inkscape:showpageshadow="false"
     inkscape:object-paths="false"
     inkscape:snap-intersection-paths="true"
     inkscape:snap-smooth-nodes="true"
     inkscape:snap-midpoints="true"
     showguides="true"
     inkscape:snap-bbox="true"
     inkscape:bbox-nodes="true"
     inkscape:snap-nodes="false"
     inkscape:snap-global="true">
    <inkscape:grid
       type="xygrid"
       id="grid1378" />
    <sodipodi:guide
       position="0.97013831,21.607643"
       orientation="78.000048,0"
       id="guide1380"
       inkscape:locked="false" />
    <sodipodi:guide
       position="0.97013831,0.97013129"
       orientation="0,78.000005"
       id="guide1382"
       inkscape:locked="false" />
    <sodipodi:guide
       position="21.607639,0.97013129"
       orientation="-78.000048,0"
       id="guide1384"
       inkscape:locked="false" />
    <sodipodi:guide
       position="21.607639,21.607643"
       orientation="0,-78.000005"
       id="guide1386"
       inkscape:locked="false" />
  </sodipodi:namedview>
  <metadata
     id="metadata828">
    <rdf:RDF>
      <cc:Work
         rdf:about="">
        <dc:format>image/svg+xml</dc:format>
        <dc:type
           rdf:resource="http://purl.org/dc/dcmitype/StillImage" />
      </cc:Work>
    </rdf:RDF>
  </metadata>
  <g
     inkscape:label="Icon"
     inkscape:groupmode="layer"
     id="layer1"
     transform="translate(0,-274.42223)"
     style="display:inline">
    <g
       id="g86953"
       style="display:inline;stroke-width:0.794878"
       transform="matrix(1.2580549,0,0,1.2580549,-76.111663,-38.905126)">
      <path
         style="color:#000000;fill:#ffb199;fill-opacity:1;stroke-width:0.794878;stroke-linecap:round;stroke-linejoin:round;-inkscape-stroke:none"
         d="m 67.611328,251.41602 a 0.2645835,0.2645835 0 0 0 -0.263672,0.26367 v 1.05859 a 0.2645835,0.2645835 0 0 0 0.263672,0.26563 0.2645835,0.2645835 0 0 0 0.265625,-0.26563 v -1.05859 a 0.2645835,0.2645835 0 0 0 -0.265625,-0.26367 z"
         id="path225216" />
      <path
         style="color:#000000;fill:#ffb199;fill-opacity:1;stroke-width:0.794878;stroke-linecap:round;stroke-linejoin:round;-inkscape-stroke:none"
         d="m 75.019531,249.82812 a 0.2645835,0.2645835 0 0 0 -0.263672,0.26563 v 1.05664 a 0.2645835,0.2645835 0 0 0 0.263672,0.26563 0.2645835,0.2645835 0 0 0 0.265625,-0.26563 v -1.05664 a 0.2645835,0.2645835 0 0 0 -0.265625,-0.26563 z"
         id="path36258" />
      <path
         style="color:#000000;fill:#ffb199;fill-opacity:1;stroke-width:0.794878;stroke-linecap:round;stroke-linejoin:round;-inkscape-stroke:none"
         d="m 71.316406,251.41602 a 0.2645835,0.2645835 0 0 0 -0.265625,0.26367 v 1.05859 a 0.2645835,0.2645835 0 0 0 0.265625,0.26563 0.2645835,0.2645835 0 0 0 0.263672,-0.26563 v -1.05859 a 0.2645835,0.2645835 0 0 0 -0.263672,-0.26367 z"
         id="path36268" />
      <path
         style="color:#000000;fill:#ffccbc;stroke-width:0.794878;stroke-linecap:round;stroke-linejoin:round;-inkscape-stroke:none"
         d="m 69.035154,254.45295 c 0.04169,-0.0764 0.04315,-0.16841 0.0039,-0.24609 L 67.849601,251.826 c -0.04502,-0.0902 -0.13743,-0.14705 -0.237925,-0.1466 -0.100496,4.6e-4 -0.191967,0.0572 -0.236676,0.14677 l -1.189453,2.38086 c -0.05171,0.10202 -0.03201,0.22572 0.04883,0.30664 0.524186,0.78591 2.376089,0.71145 2.800777,-0.0607 z"
         id="path215632"
         sodipodi:nodetypes="ccccccccc" />
      <path
         id="path266659"
         style="color:#000000;fill:#ffb199;fill-opacity:1;stroke-width:0.794878;stroke-linecap:round;stroke-linejoin:round;-inkscape-stroke:none"
         d="m 69.039163,254.20674 -1.189593,-2.38073 c -0.04502,-0.0902 -0.137377,-0.14682 -0.237858,-0.14645 -0.100481,3.7e-4 -0.191786,0.0569 -0.236496,0.14645 l -0.199469,0.39946 c 0.06195,0.023 0.11417,0.0685 0.144693,0.1297 l 1.189593,2.38074 z"
         sodipodi:nodetypes="cccccccc" />
      <path
         style="color:#000000;fill:#fca311;stroke-width:0.794878;stroke-linecap:round;stroke-linejoin:round;-inkscape-stroke:none"
         d="m 66.318641,253.94062 c 0,0 -0.162275,0.26577 -0.162391,0.38552 0,2.14909 0,4.29818 0,6.44727 8.2e-5,0.15418 0.131439,0.27564 0.285156,0.26367 l 2.38086,-0.17969 c 0.13773,-0.0107 0.244063,-0.12553 0.24414,-0.26367 v -6.26758 c -1.75e-4,-0.0982 -0.143652,-0.35207 -0.143652,-0.35207 -0.795021,0.43192 -1.89925,0.51822 -2.604113,-0.0335 z"
         id="path216215"
         sodipodi:nodetypes="cccccccccc" />
      <path
         id="path273762"
         style="fill:#ca7d02;fill-opacity:1;stroke:none;stroke-width:0.794877px;stroke-linecap:butt;stroke-linejoin:miter;stroke-opacity:1"
         d="m 260.49609,-98.619141 c -0.88072,0.342826 -1.74489,0.621161 -2.59179,0.81836 v 0.185547 2 23.18164 l 2.21093,-0.167968 c 0.52056,-0.04044 0.92354,-0.47399 0.92383,-0.996094 v -23.382813 c 0.009,-0.07321 0.008,-0.15073 0,-0.230469 v -0.07617 c -2.3e-4,-0.129055 -0.0726,-0.330948 -0.1582,-0.53711 -10e-4,-0.0033 -0.003,-0.0065 -0.004,-0.0098 -0.0142,-0.0373 -0.0299,-0.07456 -0.0449,-0.111328 -0.006,-0.01122 -0.012,-0.02199 -0.0176,-0.0332 -0.13974,-0.308779 -0.28254,-0.573806 -0.30468,-0.613281 -0.002,-0.0031 -0.0137,-0.02539 -0.0137,-0.02539 -2.6e-4,-5.21e-4 2.6e-4,-0.0014 0,-0.002 z"
         transform="matrix(0.26458334,0,0,0.26458334,0,280.06666)" />
      <path
         style="color:#000000;fill:#ffccbc;fill-opacity:1;stroke-width:0.794878;stroke-linecap:round;stroke-linejoin:round;-inkscape-stroke:none"
         d="m 72.707031,254.5 c 0.07078,-0.081 0.08545,-0.19685 0.03711,-0.29297 l -1.191407,-2.38086 c -0.04471,-0.0896 -0.13618,-0.14631 -0.236328,-0.14648 -0.100148,1.7e-4 -0.191619,0.0569 -0.236328,0.14648 l -1.191406,2.38086 c -0.05692,0.11305 -0.02581,0.25058 0.07422,0.32813 z"
         id="path36264"
         sodipodi:nodetypes="cccccccc" />
      <path
         id="path267797"
         style="color:#000000;fill:#ffb199;fill-opacity:1;stroke-width:0.794878;stroke-linecap:round;stroke-linejoin:round;-inkscape-stroke:none"
         d="m 72.744402,254.20702 -1.191657,-2.38125 c -0.04471,-0.0896 -0.136014,-0.14608 -0.236164,-0.14596 -0.100149,1.2e-4 -0.19197,0.0566 -0.23668,0.1462 l -0.199988,0.39997 c 0.06144,0.0231 0.113345,0.0684 0.143661,0.12919 l 1.076937,2.15233 z"
         sodipodi:nodetypes="cccccccc" />
      <path
         style="color:#000000;fill:#50b86b;stroke-width:0.794878;stroke-linecap:round;stroke-linejoin:round;-inkscape-stroke:none"
         d="m 69.992887,253.99877 c 0,0 -0.131663,0.21802 -0.131559,0.3274 v 6.26758 c 4.61e-4,0.14316 0.114698,0.25999 0.257813,0.26367 L 72.5,260.91406 c 0.148449,0.004 0.271007,-0.11517 0.271484,-0.26367 0,-2.10807 0,-4.21615 0,-6.32422 -6.14e-4,-0.12481 -0.155554,-0.37535 -0.155554,-0.37535 -0.936654,0.64603 -1.7844,0.34093 -2.623043,0.048 z"
         id="path228104"
         sodipodi:nodetypes="cccccccccc" />
      <path
         id="path278888"
         style="fill:#349951;fill-opacity:1;stroke:none;stroke-width:0.794877px;stroke-linecap:butt;stroke-linejoin:miter;stroke-opacity:1"
         d="m 274.45312,-98.705078 c -0.005,0.0035 -0.0105,0.0062 -0.0156,0.0098 -0.77484,0.46032 -1.62821,0.763151 -2.50781,0.943359 v 0.240234 2.023438 21.648437 l 3.04297,0.814453 c 0.0433,-0.111433 0.0679,-0.232521 0.0684,-0.359375 v -12.40039 -11.46875 c 4.4e-4,-0.01108 -1e-4,-0.02211 0,-0.0332 0.002,-0.176966 -0.0406,-0.3549 -0.12891,-0.513672 -0.16507,-0.420383 -0.4232,-0.845576 -0.44727,-0.884766 -0.003,-0.0065 -0.007,-0.01302 -0.01,-0.01953 -4.9e-4,2.89e-4 -0.001,-2.89e-4 -0.002,0 z"
         transform="matrix(0.26458334,0,0,0.26458334,0,280.06666)" />
      <path
         id="path36270"
         style="color:#000000;fill:#349951;fill-opacity:1;stroke-width:3.00426;stroke-linecap:round;stroke-linejoin:round;-inkscape-stroke:none"
         d="m 275.04102,-86.738281 c -3.92795,2.038736 -7.37523,1.591111 -10.99838,0.01953 v 2.132812 c 3.9161,2.114702 7.26254,1.499893 10.99801,-0.0039 -1.6e-4,-0.716147 9e-5,-1.432295 3.7e-4,-2.148442 z m -10.99805,3.953125 v 2.169922 c 3.25341,1.915064 7.14689,1.419669 10.99806,0.199211 0.37655,-1.133476 -0.25338,-1.628505 -0.47852,-1.94531 -3.57685,1.504131 -7.74048,1.148155 -10.51954,-0.423823 z"
         transform="matrix(0.26458334,0,0,0.26458334,0,280.06666)"
         sodipodi:nodetypes="cccccccccc" />
      <path
         style="color:#000000;fill:#4d545c;stroke-width:0.794878;stroke-linecap:round;stroke-linejoin:round;-inkscape-stroke:none"
         d="m 62.585937,259.35352 a 0.26460996,0.26460996 0 0 0 -0.265625,0.26367 v 5.82226 c 0,0.43523 0.357745,0.79297 0.792969,0.79297 h 12.716797 c 0.435225,0 0.794922,-0.35774 0.794922,-0.79297 v -5.82226 a 0.26460996,0.26460996 0 0 0 -0.265625,-0.26367 h -4.783203 a 0.26460996,0.26460996 0 0 0 -0.212891,0.10742 c -0.428184,0.57724 -1.117321,0.95117 -1.898437,0.95117 -0.781481,0 -1.471651,-0.37485 -1.904297,-0.95313 a 0.26460996,0.26460996 0 0 0 -0.212891,-0.10546 z"
         id="path247905" />
      <path
         style="color:#000000;fill:#ffb199;fill-opacity:1;stroke-width:0.794878;stroke-linecap:round;stroke-linejoin:round;-inkscape-stroke:none"
         d="m 63.908203,249.82812 a 0.2645835,0.2645835 0 0 0 -0.265625,0.26563 v 1.05664 a 0.2645835,0.2645835 0 0 0 0.265625,0.26563 0.2645835,0.2645835 0 0 0 0.263672,-0.26563 v -1.05664 a 0.2645835,0.2645835 0 0 0 -0.263672,-0.26563 z"
         id="path25570" />
      <path
         style="color:#000000;fill:#ffccbc;stroke-width:0.794878;stroke-linecap:round;stroke-linejoin:round;-inkscape-stroke:none"
         d="m 65.285161,252.92584 c 0.0806,-0.0801 0.101041,-0.20276 0.05078,-0.30469 l -1.191406,-2.38281 c -0.04525,-0.0889 -0.136612,-0.14473 -0.236328,-0.14453 l -4e-6,-6e-5 c -0.09972,-2e-4 -0.191077,0.0557 -0.236328,0.14453 l -1.191406,2.38281 c -0.04217,0.0844 -0.03621,0.18486 0.01563,0.26368 0.645818,1.27985 1.948277,0.88643 2.789062,0.0411 z"
         id="path206143"
         sodipodi:nodetypes="ccccccccc" />
      <path
         id="path264643"
         style="color:#000000;fill:#ffb199;fill-opacity:1;stroke-width:0.794878;stroke-linecap:round;stroke-linejoin:round;-inkscape-stroke:none"
         d="m 65.336067,252.62131 -1.191657,-2.3828 c -0.04525,-0.0889 -0.136445,-0.1449 -0.236164,-0.1449 -0.09972,0 -0.19091,0.0561 -0.236162,0.1449 l -0.200504,0.40101 c 0.06127,0.0227 0.11299,0.0679 0.143661,0.12815 l 1.191657,2.3828 z"
         sodipodi:nodetypes="cccccccc" />
      <path
         style="color:#000000;fill:#dc1c4b;stroke-width:0.794878;stroke-linecap:round;stroke-linejoin:round;-inkscape-stroke:none"
         d="m 62.61304,252.35595 c 0,0 -0.15934,0.26544 -0.159915,0.3823 v 4.63086 c 5.16e-4,0.14541 0.118264,0.26316 0.263672,0.26367 h 2.380859 c 0.14617,5.6e-4 0.265107,-0.1175 0.265625,-0.26367 v -4.63086 c 1.09e-4,-0.11444 -0.15319,-0.3688 -0.15319,-0.3688 -0.79133,0.44226 -1.889643,0.5352 -2.597051,-0.0135 z"
         id="path205951"
         sodipodi:nodetypes="ccccccccc" />
      <path
         id="path270276"
         style="fill:#b01d47;fill-opacity:1;stroke:none;stroke-width:0.794877px;stroke-linecap:butt;stroke-linejoin:miter;stroke-opacity:1"
         d="m 246.46289,-104.68164 c -0.76937,0.42999 -1.61611,0.77136 -2.49414,1.00781 v 18.884768 h 2.07031 c 0.55246,0.0021 1.00195,-0.443641 1.00391,-0.996094 v -17.503904 c 4.1e-4,-0.43253 -0.58008,-1.39258 -0.58008,-1.39258 z"
         transform="matrix(0.26458334,0,0,0.26458334,0,280.06666)" />
      <path
         id="path35201"
         style="color:#000000;fill:#ca7d02;fill-opacity:1;stroke-width:3.00426;stroke-linecap:round;stroke-linejoin:round;-inkscape-stroke:none"
         d="m 261.03906,-86.869141 c -3.97744,1.505564 -7.05504,1.659412 -11,0.263672 0,0.707031 0,1.414063 0,2.121094 3.56449,1.551546 8.21144,1.107718 10.99996,-0.167965 z m 0,4.042969 c -4.13735,1.866284 -7.01221,1.577336 -10.99998,0.28125 v 2.09961 c 3.60038,1.533337 8.11469,1.070488 10.99999,-0.193361 z"
         transform="matrix(0.26458334,0,0,0.26458334,0,280.06666)"
         sodipodi:nodetypes="cccccccccc" />
      <path
         style="color:#000000;fill:#ffccbc;fill-opacity:1;stroke-width:0.794878;stroke-linecap:round;stroke-linejoin:round;-inkscape-stroke:none"
         d="m 76.370106,252.99488 c 0.121981,-0.14708 0.128948,-0.35034 0.0132,-0.50169 -0.382082,-0.76185 -0.758035,-1.52678 -1.144352,-2.28651 -0.10314,-0.14009 -0.362162,-0.16898 -0.44436,0.008 -0.04559,0.0743 -0.07371,0.15767 -0.116054,0.23357 l 2e-6,-3.1e-4 c -0.363663,0.73046 -0.730428,1.45938 -1.092157,2.19081 -0.0678,0.202 0.109429,0.36342 0.198537,0.52474 z"
         id="path36252"
         sodipodi:nodetypes="ccccccccc" />
      <path
         id="path268896"
         style="color:#000000;fill:#ffb199;fill-opacity:1;stroke-width:0.794878;stroke-linecap:round;stroke-linejoin:round;-inkscape-stroke:none"
         d="m 76.38343,252.49289 c -0.382082,-0.76185 -0.758317,-1.52695 -1.144632,-2.28668 -0.05479,-0.0744 -0.153599,-0.11726 -0.241021,-0.11487 -0.08742,0.002 -0.164843,0.0404 -0.203374,0.1234 -0.07506,0.14733 -0.14352,0.28916 -0.212385,0.42684 0.05074,0.0194 0.09633,0.0515 0.12764,0.094 0.386316,0.75973 0.762551,1.52483 1.144633,2.28669 z"
         sodipodi:nodetypes="cccccccc" />
      <path
         style="color:#000000;fill:#4377d1;stroke-width:0.794878;stroke-linecap:round;stroke-linejoin:round;-inkscape-stroke:none"
         d="m 73.564453,252.73828 v 4.63086 c 5.18e-4,0.14617 0.119455,0.26423 0.265625,0.26367 h 2.380859 c 0.14617,5.6e-4 0.265107,-0.1175 0.265625,-0.26367 v -4.63086 c -1.18e-4,-0.12177 -0.173828,-0.37597 -0.173828,-0.37597 -0.834732,0.59658 -1.804578,0.38726 -2.200389,0.21005 0,0 -0.537994,0.0588 -0.537892,0.16592 z"
         id="path237491"
         sodipodi:nodetypes="ccccccccc" />
      <path
         id="path288122"
         style="color:#000000;fill:#2c5eb5;fill-opacity:1;stroke-width:3.00426;stroke-linecap:round;stroke-linejoin:round;-inkscape-stroke:none"
         d="m 288.38867,-104.70898 c -0.77096,0.551 -1.5724,0.9189 -2.36523,1.15234 v 18.767578 h 2.01758 c 0.55245,0.0021 1.00194,-0.443641 1.0039,-0.996094 v -17.503904 c -4.4e-4,-0.46024 -0.65625,-1.41992 -0.65625,-1.41992 z"
         transform="matrix(0.26458334,0,0,0.26458334,0,280.06666)" />
      <path
         id="path17137"
         style="color:#000000;fill:#ececec;stroke-width:3.00426;stroke-linecap:round;stroke-linejoin:round;-inkscape-stroke:none"
         d="m 235.54104,-62.953124 v 2.435547 c 1.05954,-0.811446 2.2195,-1.455946 3.37304,-2.119141 1.62911,-0.930935 3.57687,-0.952248 5.63282,0.222657 2.56833,1.467666 5.41994,1.467666 7.98828,0 0.003,1.1e-5 0.005,1.1e-5 0.008,0 2.05587,-1.175964 3.94521,-1.182011 6.02344,0 2.58376,1.469631 5.43042,1.471292 8.01562,0.0059 0.48179,-0.272359 0.65074,-0.884254 0.37695,-1.365235 -0.27236,-0.481792 -0.88425,-0.650741 -1.36523,-0.376953 -2.0824,1.180574 -3.95895,1.183144 -6.03906,0 -2.58565,-1.470652 -5.44136,-1.474807 -8.00977,-0.0059 -2.05594,1.174828 -3.95187,1.174828 -6.00781,0 -1.28417,-0.733871 -2.62476,-1.130514 -3.92784,-1.13672 -2.41131,0.06974 -4.10007,1.064809 -6.06844,2.339845 z m 44.06248,-1.203126 c -2.05595,1.174828 -3.94602,1.174828 -6.00196,0 -0.48047,-0.274109 -1.0922,-0.10608 -1.36523,0.375 -0.27641,0.479368 -0.11098,1.092084 0.36914,1.367188 2.56834,1.467666 5.4258,1.467666 7.99414,0 2.05594,-1.174868 4.0037,-1.153554 5.63281,-0.222657 1.22394,0.593293 2.29132,1.396752 3.37305,2.207031 v -2.49414 c -0.72768,-0.583583 -1.57172,-0.984268 -2.38281,-1.447267 -2.33025,-1.370652 -5.37453,-1.041561 -7.61914,0.214845 z m -44.06252,6.302732 v 2.400391 c 1.07318,-0.775536 2.22644,-1.417109 3.37304,-2.074219 1.62911,-0.930935 3.57687,-0.954201 5.63282,0.220703 0.48047,0.274109 1.0922,0.10608 1.36523,-0.375 0.27545,-0.480907 0.10725,-1.094106 -0.375,-1.367187 -1.28417,-0.733833 -2.19123,-0.935496 -3.92773,-1.136719 -2.47871,-0.135305 -4.19872,1.123209 -6.06836,2.332031 z m 44.06252,-1.19531 c -2.05595,1.174828 -3.94602,1.174828 -6.00196,0 -2.56917,-1.468082 -5.42239,-1.45712 -8.00781,0.0078 -2.0824,1.180574 -3.95895,1.183144 -6.03906,0 -2.58565,-1.470652 -5.44136,-1.476775 -8.00977,-0.0078 -0.47895,0.275052 -0.64422,0.886302 -0.36914,1.365234 0.27236,0.481798 0.88426,0.650748 1.36524,0.376953 2.05587,-1.176 3.94716,-1.182047 6.02539,0 2.58155,1.468347 5.42438,1.469483 8.00781,0.0078 2.08218,-1.179666 3.97614,-1.189617 6.03125,-0.01563 2.56834,1.467666 5.4258,1.467666 7.99414,0 2.05594,-1.174866 4.0037,-1.143977 5.63281,-0.212891 1.1899,0.603758 2.27925,1.354626 3.37305,2.111328 v -2.429687 c -0.75231,-0.539251 -1.57824,-0.956788 -2.3828,-1.417967 -2.419,-1.439312 -4.91419,-1.198432 -7.61915,0.21486 z"
         transform="matrix(0.26458334,0,0,0.26458334,0,280.06666)"
         sodipodi:nodetypes="cccsccscccscsccccccsccccccccccccccscscccsccsccccc" />
      <path
         id="path293623"
         style="fill:#42474d;fill-opacity:1;stroke:none;stroke-width:0.794877px;stroke-linecap:butt;stroke-linejoin:miter;stroke-opacity:1"
         d="m 236.54492,-78.285156 c -0.55226,-0.0021 -1.00169,0.443833 -1.0039,0.996094 v 4.447265 h 41.66045 a 7.6110317,7.6110317 45 0 1 7.61103,7.611032 v 12.943656 h 1.78906 c 1.64495,0 3.00391,-1.35113 3.00391,-2.996094 v -22.005859 c -0.002,-0.552265 -0.45164,-0.998202 -1.00391,-0.996094 h -18.07812 c -0.31716,-4.55e-4 -0.61574,0.149559 -0.80469,0.404297 -1.61833,2.181694 -4.22158,3.595703 -7.17383,3.595703 -2.95363,0 -5.56207,-1.415938 -7.19726,-3.601563 -0.19018,-0.252529 -0.48856,-0.400271 -0.80469,-0.398437 z"
         transform="matrix(0.26458334,0,0,0.26458334,0,280.06666)" />
      <path
         style="color:#000000;fill:#5b6571;stroke-width:0.794878;stroke-linecap:round;stroke-linejoin:round;-inkscape-stroke:none"
         d="m 76.343754,259.88291 c 0.444237,0 0.810547,-0.36631 0.810547,-0.81054 v -1.04102 c 0,-0.50825 -0.419458,-0.92778 -0.927735,-0.92773 l -4e-6,-10e-5 -4.117187,0.002 c -0.145408,5.1e-4 -0.263156,0.11826 -0.263672,0.26367 0.06256,1.00881 -0.157687,1.92149 -0.883275,2.51172 1.79377,0.004 3.587552,0.002 5.381326,0.002 z"
         id="path245346"
         sodipodi:nodetypes="csscccccc" />
      <path
         id="path291170"
         style="color:#000000;fill:#515662;fill-opacity:1;stroke-width:0.794878;stroke-linecap:round;stroke-linejoin:round;-inkscape-stroke:none"
         d="m 72.109295,257.10572 c -0.145407,5.1e-4 -0.263033,0.11866 -0.263549,0.26407 0.0099,0.15887 0.0078,0.2651 0.0078,0.2651 1.45762,-4e-4 2.915239,-10e-4 4.372859,-0.002 0.508278,-5e-5 0.928108,0.41934 0.928108,0.92759 v -0.52917 c 0,-0.50825 -0.41983,-0.92764 -0.928108,-0.92759 z"
         sodipodi:nodetypes="cccccscc" />
      <path
         style="color:#000000;fill:#5b6571;stroke-width:0.794878;stroke-linecap:round;stroke-linejoin:round;-inkscape-stroke:none"
         d="m 67.968083,259.88281 c -0.09223,-0.0679 -0.279277,-0.25104 -0.409493,-0.42383 -0.469343,-0.72598 -0.476563,-1.2835 -0.476563,-2.08984 5.59e-4,-0.14617 -0.117503,-0.2651 -0.263672,-0.26562 h -4.101558 c -0.508258,7e-5 -0.925781,0.41942 -0.925781,0.92773 v 1.05664 c 0,0.43524 0.359677,0.79492 0.794921,0.79492 z"
         id="path245340"
         sodipodi:nodetypes="cccccsscc" />
      <path
         id="path25234"
         style="color:#000000;fill:#b01d47;fill-opacity:1;stroke-width:3.00426;stroke-linecap:round;stroke-linejoin:round;-inkscape-stroke:none"
         d="m 236.64844,-104.73047 c -0.29489,0.44129 -0.59154,1.06463 -0.60547,1.44336 v 0.54492 c 3.81677,2.27101 8.08371,2.07498 11,0.0332 v -0.58008 c 0.0394,-0.48129 -0.58008,-1.39258 -0.58008,-1.39258 l -0.004,0.002 -0.004,0.002 c -3.02432,1.82282 -7.14341,1.63629 -9.80664,-0.0527 l 9e-5,-6e-5 z m -0.60547,3.73438 v 2.292965 c 3.8567,2.274886 8.10908,1.906682 11,0.06836 v -2.181645 c -3.88589,1.875557 -7.16415,1.849231 -11,-0.17968 z m 0,7.892574 v 2.365235 c 4.00877,1.911408 7.42354,1.760007 11,0 v -2.365235 c -3.98308,1.818033 -6.98703,1.820454 -11,0 z"
         transform="matrix(0.26458334,0,0,0.26458334,0,280.06666)"
         sodipodi:nodetypes="ccccccccccccccccccccc" />
      <path
         id="path28066"
         style="color:#000000;fill:#ca7d02;fill-opacity:1;stroke-width:3.00426;stroke-linecap:round;stroke-linejoin:round;-inkscape-stroke:none"
         d="m 250.03906,-92.555494 c 3.72894,1.759116 7.56916,1.59608 10.99998,0 v -2.237473 c -3.76274,1.808216 -7.40507,1.853113 -10.99998,0 0,0.756509 0,1.480963 0,2.237473 z"
         transform="matrix(0.26458334,0,0,0.26458334,0,280.06666)"
         sodipodi:nodetypes="ccccc" />
      <path
         id="path36266"
         style="color:#000000;fill:#349951;fill-opacity:1;stroke-width:3.00426;stroke-linecap:round;stroke-linejoin:round;-inkscape-stroke:none"
         d="m 274.45508,-98.705078 c -3.19351,1.909833 -7.73616,1.119795 -9.91406,0.18164 -0.16937,0.369638 -0.40361,0.713925 -0.49414,1.115235 -0.0763,0.512164 0.3016,1.003611 0.78906,1.111328 2.39043,0.872617 5.02731,1.327945 7.53515,0.710937 0.81413,-0.209385 1.62471,-0.499718 2.33985,-0.943359 0.36631,-0.337134 0.43705,-0.912818 0.16601,-1.330078 -0.14086,-0.281575 -0.28104,-0.564015 -0.42187,-0.845703 z m 0.58594,3.660156 c -3.73041,2.440696 -7.70845,1.785148 -10.99805,0.21875 v 2.191406 c 3.71975,2.240106 8.13023,1.787185 10.99805,-0.08594 z"
         transform="matrix(0.26458334,0,0,0.26458334,0,280.06666)" />
      <path
         id="path245906"
         style="color:#000000;fill:#ececec;stroke-width:3.00426;stroke-linecap:round;stroke-linejoin:round;-inkscape-stroke:none"
         d="m 276.54102,-82.287109 a 1.0000006,1.0000006 0 0 0 -0.99805,1.003906 1.0000006,1.0000006 0 0 0 0.99805,0.996094 h 15.0664 v -2 z"
         transform="matrix(0.26458334,0,0,0.26458334,0,280.06666)" />
      <path
         style="color:#000000;fill:#ececec;stroke-width:3.00426;stroke-linecap:round;stroke-linejoin:round;-inkscape-stroke:none"
         d="m 246.54102,-82.287109 a 1.0000006,1.0000006 0 0 0 -0.99805,1.003906 1.0000006,1.0000006 0 0 0 0.99805,0.996094 h 2 a 1.0000006,1.0000006 0 0 0 1.0039,-0.996094 1.0000006,1.0000006 0 0 0 -1.0039,-1.003906 z"
         transform="matrix(0.26458334,0,0,0.26458334,0,280.06666)"
         id="path245904" />
      <path
         id="path37196"
         style="color:#000000;fill:#ececec;stroke-width:3.00426;stroke-linecap:round;stroke-linejoin:round;-inkscape-stroke:none"
         d="m 233.54102,-82.287109 v 2 h 8.99804 a 1.0000006,1.0000006 0 0 0 1.00391,-0.996094 1.0000006,1.0000006 0 0 0 -1.00391,-1.003906 z"
         transform="matrix(0.26458334,0,0,0.26458334,0,280.06666)" />
      <path
         id="path215982"
         style="color:#000000;fill:#ca7d02;fill-opacity:1;stroke-width:0.794878;stroke-linecap:round;stroke-linejoin:round;-inkscape-stroke:none"
         d="m 66.318952,253.94061 c -0.04444,0.0889 -0.08888,0.17776 -0.133326,0.26665 -0.09019,0.16328 0.03118,0.34369 0.189386,0.39155 0.897268,0.34755 1.774191,0.28783 2.57565,-0.0505 0.168335,-0.0626 0.124776,-0.24051 0.06129,-0.39615 -0.02968,-0.0595 -0.05936,-0.11899 -0.08904,-0.17848 -0.947067,0.36865 -1.823248,0.45503 -2.60396,-0.0331 z"
         sodipodi:nodetypes="cccccccc" />
      <path
         id="path237271"
         style="color:#000000;fill:#2c5eb5;fill-opacity:1;stroke-width:0.794878;stroke-linecap:round;stroke-linejoin:round;-inkscape-stroke:none"
         d="m 76.307891,252.36241 c -0.810214,0.55524 -1.795631,0.41306 -2.601378,0.0325 -0.07073,0.12804 -0.156244,0.26394 -0.14211,0.4163 0.0071,0.0326 -0.0145,0.0839 0.01117,0.10435 0.95465,0.48374 2.164968,0.50867 2.900804,-0.0344 -5.29e-4,-0.0962 0.0098,-0.19682 -0.04032,-0.28423 -0.0524,-0.0941 -0.08123,-0.15421 -0.128166,-0.23452 z"
         sodipodi:nodetypes="ccccccc" />
      <path
         id="path246535"
         style="color:#000000;fill:#2c5eb5;fill-opacity:1;stroke-width:3.00426;stroke-linecap:round;stroke-linejoin:round;-inkscape-stroke:none"
         d="m 278.57617,-104.58594 c -0.26732,0.48393 -0.59053,0.99642 -0.53711,1.57227 0.0268,0.12321 -0.056,0.31724 0.041,0.39453 3.60812,1.82831 8.18373,1.92364 10.96484,-0.12891 -0.002,-0.36359 0.0371,-0.74385 -0.15234,-1.07422 -0.14064,-0.30992 -0.3171,-0.60401 -1.94161,0.30391 -1.6245,0.90792 -5.32944,0.37076 -8.37478,-1.06758 z m 10.46875,3.57813 c -3.50277,2.411374 -7.43067,2.103164 -11.00586,0.125 v 2.220701 c 3.03444,1.579842 7.74795,2.111626 11.00586,-0.04297 z m 0,7.937498 c -4.1183,2.878866 -8.26089,1.660415 -11.00586,0.09766 v 2.28125 c 3.63547,1.810696 7.69376,1.954929 11.00586,-0.03125 z"
         transform="matrix(0.26458334,0,0,0.26458334,0,280.06666)"
         sodipodi:nodetypes="ccccccccccccccccc" />
      <path
         id="path273454"
         style="fill:#9b183d;fill-opacity:1;stroke:none;stroke-width:0.794877px;stroke-linecap:butt;stroke-linejoin:miter;stroke-opacity:1"
         d="m 246.46289,-104.68164 -0.008,0.004 c -0.002,10e-4 -0.004,0.003 -0.006,0.004 -0.76989,0.46313 -1.61107,0.79452 -2.48047,1.00586 v 2.3125 c 1.12018,-0.2586 2.16288,-0.71546 3.07422,-1.35351 v -0.58008 c 4.1e-4,-0.43253 -0.58008,-1.39258 -0.58008,-1.39258 z m 0.58008,3.86523 c -1.06242,0.51279 -2.07883,0.882983 -3.07422,1.109379 v 2.333984 c 1.12307,-0.250914 2.16559,-0.683924 3.07422,-1.261719 z m 0,7.712894 c -1.08424,0.494891 -2.09498,0.854406 -3.07422,1.080078 v 2.394532 c 1.02334,-0.229062 2.0421,-0.601463 3.07422,-1.109375 z"
         transform="matrix(0.26458334,0,0,0.26458334,0,280.06666)" />
      <path
         id="path276382"
         style="fill:#b16e02;fill-opacity:1;stroke:none;stroke-width:0.794877px;stroke-linecap:butt;stroke-linejoin:miter;stroke-opacity:1"
         d="m 257.90386,-95.615157 c 0.91855,-0.205154 1.83186,-0.461456 2.69726,-0.832032 0.28472,-0.105879 0.40853,-0.299369 0.4375,-0.533203 v -0.002 c 0.004,-0.03601 0.006,-0.07349 0.006,-0.111328 -1.2e-4,-0.0385 -0.002,-0.07732 -0.006,-0.117188 v -0.0098 c -0.0709,-0.515099 -0.31053,-0.918578 -0.54253,-1.398433 -0.8495,0.346911 -1.71392,0.58866 -2.58223,0.816437 -0.0245,0.728446 -0.01,1.458586 -0.01,2.187547 z m 3.1352,0.822188 c -1.05359,0.506312 -2.09845,0.872756 -3.13476,1.09961 v 2.162109 c 1.07158,-0.208771 2.12122,-0.551916 3.13476,-1.023438 z m 0,7.923828 c -1.10152,0.416956 -2.13373,0.730141 -3.13476,0.935547 v 2.208985 c 1.17009,-0.199945 2.24667,-0.521453 3.13476,-0.927735 z m 0,4.042969 c -1.12205,0.506138 -2.15104,0.852449 -3.13476,1.064453 v 2.041016 c 1.15329,-0.201782 2.22546,-0.519667 3.13476,-0.917969 z"
         transform="matrix(0.26458334,0,0,0.26458334,0,280.06666)"
         sodipodi:nodetypes="ccccccccccccccccccccccccc" />
      <path
         id="path284504"
         style="color:#000000;fill:#2e8547;fill-opacity:1;stroke-width:3.00426;stroke-linecap:round;stroke-linejoin:round;-inkscape-stroke:none"
         d="m 274.43751,-98.695288 c -0.77829,0.481534 -1.62144,0.706786 -2.49023,0.939472 -0.0415,0.754242 -0.0176,1.512144 -0.0176,2.267572 0.99326,-0.178957 2.2426,-0.707365 2.78125,-1.041019 0.20605,-0.189638 0.31929,-0.454667 0.33008,-0.724609 -0.0536,-0.556181 -0.37541,-1.025588 -0.6035,-1.441416 z m 0.60351,3.650366 c -1.02478,0.670482 -2.06859,1.105046 -3.11133,1.353516 v 2.279297 c 1.14407,-0.268096 2.20494,-0.716585 3.11133,-1.308594 z"
         transform="matrix(0.26458334,0,0,0.26458334,0,280.06666)"
         sodipodi:nodetypes="ccccccccccc" />
      <path
         id="path286610"
         style="color:#000000;fill:#2c5eb5;fill-opacity:1;stroke-width:3.00426;stroke-linecap:round;stroke-linejoin:round;-inkscape-stroke:none"
         d="m 289.04492,-101.00781 c -0.97963,0.67439 -1.99236,1.136267 -3.02148,1.408201 v 2.111328 c 1.07548,-0.217647 2.10626,-0.611519 3.02148,-1.216797 z m 0,7.937498 c -1.01298,0.708118 -2.02672,1.167381 -3.02148,1.435546 v 2.109375 c 1.05035,-0.229516 2.06707,-0.624929 3.02148,-1.197265 z"
         transform="matrix(0.26458334,0,0,0.26458334,0,280.06666)" />
      <path
         id="path284740"
         style="fill:#26529c;fill-opacity:1;stroke:none;stroke-width:0.794877px;stroke-linecap:butt;stroke-linejoin:miter;stroke-opacity:1"
         d="m 288.40777,-104.75672 c -0.75653,0.51845 -1.57094,0.92448 -2.38629,1.14734 0.005,0.72123 0.002,1.44272 0.002,2.16403 1.12468,-0.23584 2.15939,-0.66649 3.02148,-1.30274 0.0461,-0.80747 -0.0935,-1.10281 -0.63719,-2.00863 z m 0.63715,3.74891 c -0.97948,0.67429 -1.99252,1.13431 -3.02148,1.406248 v 2.113281 c 1.07547,-0.217591 2.10626,-0.611519 3.02148,-1.216797 z m 0,7.937498 c -1.01303,0.708149 -2.02668,1.167373 -3.02148,1.435546 v 2.107422 c 1.05054,-0.22962 2.06692,-0.622885 3.02148,-1.195312 z"
         transform="matrix(0.26458334,0,0,0.26458334,0,280.06666)"
         sodipodi:nodetypes="ccccccccccccccc" />
      <path
         id="path290108"
         style="color:#000000;fill:#515662;fill-opacity:1;stroke-width:3.00426;stroke-linecap:round;stroke-linejoin:round;-inkscape-stroke:none"
         d="m 237.03906,-86.789062 c -1.38379,1.9e-4 -2.5881,0.821854 -3.15429,2 h 19.6582 c -0.003,-0.322144 -0.004,-0.652276 -0.004,-0.996094 0.002,-0.552454 -0.44559,-1.001941 -0.99804,-1.003906 z"
         transform="matrix(0.26458334,0,0,0.26458334,0,280.06666)" />
      <path
         id="path295132"
         style="fill:#bfbfbf;fill-opacity:1;stroke:none;stroke-width:0.794877px;stroke-linecap:butt;stroke-linejoin:miter;stroke-opacity:1"
         d="m 284.8125,-65.189453 v 2.003906 c 1.80313,0.500463 3.45239,1.75202 4.79297,2.755859 v -2.49414 c -1.49709,-1.106836 -3.11906,-1.882708 -4.79297,-2.265625 z m 0,5.037109 v 2.072266 c 1.77623,0.512176 3.4257,1.718645 4.79297,2.664062 v -2.429687 c -1.53136,-1.046399 -3.12245,-1.877136 -4.79297,-2.306641 z"
         transform="matrix(0.26458334,0,0,0.26458334,0,280.06666)"
         sodipodi:nodetypes="cccccccccc" />
    </g>
  </g>
</svg>
