<?xml version="1.0" encoding="UTF-8" standalone="no"?>
<!-- Created with Inkscape (http://www.inkscape.org/) -->

<svg
   width="64pt"
   height="64pt"
   viewBox="0 0 22.577778 22.577778"
   version="1.1"
   id="svg831"
   inkscape:version="1.1.1 (3bf5ae0d25, 2021-09-20)"
   sodipodi:docname="1 - Trophy.svg"
   inkscape:export-filename="C:\Users\User\Desktop\DESEMBER\5 - Audio Book.png"
   inkscape:export-xdpi="576"
   inkscape:export-ydpi="576"
   xmlns:inkscape="http://www.inkscape.org/namespaces/inkscape"
   xmlns:sodipodi="http://sodipodi.sourceforge.net/DTD/sodipodi-0.dtd"
   xmlns="http://www.w3.org/2000/svg"
   xmlns:svg="http://www.w3.org/2000/svg"
   xmlns:rdf="http://www.w3.org/1999/02/22-rdf-syntax-ns#"
   xmlns:cc="http://creativecommons.org/ns#"
   xmlns:dc="http://purl.org/dc/elements/1.1/">
  <defs
     id="defs825">
    <pattern
       id="EMFhbasepattern"
       patternUnits="userSpaceOnUse"
       width="6"
       height="6"
       x="0"
       y="0" />
    <pattern
       id="EMFhbasepattern-9"
       patternUnits="userSpaceOnUse"
       width="6"
       height="6"
       x="0"
       y="0" />
    <pattern
       id="EMFhbasepattern-0"
       patternUnits="userSpaceOnUse"
       width="6"
       height="6"
       x="0"
       y="0" />
    <pattern
       id="EMFhbasepattern-7"
       patternUnits="userSpaceOnUse"
       width="6"
       height="6"
       x="0"
       y="0" />
    <pattern
       id="EMFhbasepattern-2"
       patternUnits="userSpaceOnUse"
       width="6"
       height="6"
       x="0"
       y="0" />
    <pattern
       id="EMFhbasepattern-98"
       patternUnits="userSpaceOnUse"
       width="6"
       height="6"
       x="0"
       y="0" />
    <pattern
       id="EMFhbasepattern-6"
       patternUnits="userSpaceOnUse"
       width="6"
       height="6"
       x="0"
       y="0" />
    <pattern
       id="EMFhbasepattern-01"
       patternUnits="userSpaceOnUse"
       width="6"
       height="6"
       x="0"
       y="0" />
    <pattern
       id="EMFhbasepattern-07"
       patternUnits="userSpaceOnUse"
       width="6"
       height="6"
       x="0"
       y="0" />
    <pattern
       id="EMFhbasepattern-8"
       patternUnits="userSpaceOnUse"
       width="6"
       height="6"
       x="0"
       y="0" />
    <pattern
       id="EMFhbasepattern-4"
       patternUnits="userSpaceOnUse"
       width="6"
       height="6"
       x="0"
       y="0" />
    <pattern
       id="EMFhbasepattern-40"
       patternUnits="userSpaceOnUse"
       width="6"
       height="6"
       x="0"
       y="0" />
    <pattern
       id="EMFhbasepattern-08"
       patternUnits="userSpaceOnUse"
       width="6"
       height="6"
       x="0"
       y="0" />
    <pattern
       id="EMFhbasepattern-04"
       patternUnits="userSpaceOnUse"
       width="6"
       height="6"
       x="0"
       y="0" />
    <pattern
       id="EMFhbasepattern-014"
       patternUnits="userSpaceOnUse"
       width="6"
       height="6"
       x="0"
       y="0" />
    <pattern
       id="EMFhbasepattern-27"
       patternUnits="userSpaceOnUse"
       width="6"
       height="6"
       x="0"
       y="0" />
    <pattern
       id="EMFhbasepattern-09"
       patternUnits="userSpaceOnUse"
       width="6"
       height="6"
       x="0"
       y="0" />
    <pattern
       id="EMFhbasepattern-5"
       patternUnits="userSpaceOnUse"
       width="6"
       height="6"
       x="0"
       y="0" />
    <pattern
       id="EMFhbasepattern-018"
       patternUnits="userSpaceOnUse"
       width="6"
       height="6"
       x="0"
       y="0" />
  </defs>
  <sodipodi:namedview
     id="base"
     pagecolor="#ffffff"
     bordercolor="#666666"
     borderopacity="1.0"
     inkscape:pageopacity="0.0"
     inkscape:pageshadow="2"
     inkscape:zoom="4.6006733"
     inkscape:cx="42.71114"
     inkscape:cy="42.71114"
     inkscape:document-units="pt"
     inkscape:current-layer="layer1"
     showgrid="false"
     units="pt"
     inkscape:window-width="958"
     inkscape:window-height="1003"
     inkscape:window-x="952"
     inkscape:window-y="0"
     inkscape:window-maximized="0"
     inkscape:pagecheckerboard="true"
     inkscape:showpageshadow="false"
     inkscape:object-paths="false"
     inkscape:snap-intersection-paths="true"
     inkscape:snap-smooth-nodes="true"
     inkscape:snap-midpoints="true"
     showguides="true"
     inkscape:snap-bbox="true"
     inkscape:bbox-nodes="true"
     inkscape:snap-nodes="false"
     inkscape:snap-global="true">
    <inkscape:grid
       type="xygrid"
       id="grid1378" />
    <sodipodi:guide
       position="0.97013831,21.607643"
       orientation="78.000048,0"
       id="guide1380"
       inkscape:locked="false" />
    <sodipodi:guide
       position="0.97013831,0.97013129"
       orientation="0,78.000005"
       id="guide1382"
       inkscape:locked="false" />
    <sodipodi:guide
       position="21.607639,0.97013129"
       orientation="-78.000048,0"
       id="guide1384"
       inkscape:locked="false" />
    <sodipodi:guide
       position="21.607639,21.607643"
       orientation="0,-78.000005"
       id="guide1386"
       inkscape:locked="false" />
  </sodipodi:namedview>
  <metadata
     id="metadata828">
    <rdf:RDF>
      <cc:Work
         rdf:about="">
        <dc:format>image/svg+xml</dc:format>
        <dc:type
           rdf:resource="http://purl.org/dc/dcmitype/StillImage" />
      </cc:Work>
    </rdf:RDF>
  </metadata>
  <g
     inkscape:label="Icon"
     inkscape:groupmode="layer"
     id="layer1"
     transform="translate(0,-274.42223)"
     style="display:inline">
    <g
       id="g88475"
       style="display:inline;stroke-width:0.769203"
       transform="matrix(1.300047,0,0,1.300047,39.936648,-89.396806)">
      <g
         id="g141709"
         style="stroke-width:0.769203">
        <path
           style="color:#000000;fill:#4d4d4d;fill-opacity:1;stroke-width:0.769203;stroke-linecap:round;stroke-linejoin:round;-inkscape-stroke:none"
           d="m -16.427734,287.55859 a 0.2645835,0.2645835 0 0 0 -0.31836,0.19727 c -0.17586,0.74026 -0.634443,1.61368 -1.210937,2.28516 -0.576494,0.67147 -1.266914,1.12341 -1.857422,1.13671 a 0.2645835,0.2645835 0 0 0 -0.257813,0.26954 0.2645835,0.2645835 0 0 0 0.269532,0.25976 c 0.834485,-0.0188 1.615585,-0.5856 2.248047,-1.32226 0.632461,-0.73666 1.121111,-1.66108 1.322265,-2.50782 a 0.2645835,0.2645835 0 0 0 -0.195312,-0.31836 z"
           id="path7062" />
        <path
           style="color:#000000;fill:#ca7d02;stroke-width:0.769203;stroke-linecap:round;stroke-linejoin:round;-inkscape-stroke:none"
           d="m -24.273437,290.15625 a 0.26460996,0.26460996 0 0 0 -0.263672,0.26562 v 1.58985 c 2e-6,0.60627 0.49725,1.10351 1.103515,1.10351 h 2.794922 c 0.606266,0 1.103513,-0.49724 1.103516,-1.10351 v -1.5918 a 0.26460996,0.26460996 0 0 0 -0.263672,-0.26367 z"
           id="path20711" />
        <path
           style="color:#000000;fill:#4d4d4d;fill-opacity:1;stroke-width:0.769203;stroke-linecap:round;stroke-linejoin:round;-inkscape-stroke:none"
           d="m -24.203125,292.12891 a 0.26460996,0.26460996 0 0 0 -0.02734,0.002 c -0.71877,0.0714 -1.417376,0.18059 -2.074218,0.32812 -0.44389,0.0997 -0.75,0.50436 -0.75,0.95118 v 2.23632 c 4e-6,0.45184 0.37238,0.82422 0.824218,0.82422 h 8.388672 c 0.451839,0 0.824214,-0.37238 0.824219,-0.82422 v -2.23632 c 0,-0.44707 -0.307741,-0.8515 -0.751953,-0.94922 -0.657586,-0.14464 -1.363484,-0.2534 -2.095703,-0.32617 a 0.26460996,0.26460996 0 0 0 -0.02734,-0.002 z"
           id="path20903" />
        <path
           style="color:#000000;fill:#fec872;fill-opacity:1;stroke-width:0.769203;stroke-linecap:round;stroke-linejoin:round;-inkscape-stroke:none"
           d="m -17.474612,282.57617 c 0.519203,0.612 0.91206,1.30474 1.15625,2.00391 0.04836,0.13824 0.199805,0.2109 0.33789,0.16211 0.137205,-0.0484 0.209621,-0.19844 0.16211,-0.33594 -0.266646,-0.76347 -0.692852,-1.51055 -1.253907,-2.17188 -0.09436,-0.11169 -0.261439,-0.12567 -0.372798,-0.031 -0.111359,0.0947 -0.124478,0.2617 -0.02954,0.3728 z"
           id="path1184"
           sodipodi:nodetypes="ccccccc" />
        <path
           style="color:#000000;fill:#fca311;stroke-width:0.769203;stroke-linecap:round;stroke-linejoin:round;-inkscape-stroke:none"
           d="m -16.464844,280.66992 c -0.105382,-0.1004 -0.272066,-0.0968 -0.373047,0.008 -0.100963,0.10481 -0.09833,0.27148 0.0059,0.37305 1.073098,1.03573 1.821182,2.35131 2.15625,3.73438 0.03421,0.14168 0.176558,0.22901 0.318359,0.19531 0.142631,-0.0342 0.230243,-0.17786 0.195313,-0.32031 -0.432118,-1.62773 -1.319241,-3.00664 -2.302775,-3.99043 z"
           id="path349"
           sodipodi:nodetypes="ccccccc" />
        <path
           style="color:#000000;fill:#fca311;stroke-width:0.769203;stroke-linecap:round;stroke-linejoin:round;-inkscape-stroke:none"
           d="m -29.910156,288.43164 c 0.359384,1.48341 1.157182,2.88457 2.302734,3.99023 0.104838,0.10093 0.271509,0.0983 0.373047,-0.006 0.102267,-0.10505 0.09962,-0.27322 -0.0059,-0.375 -1.073096,-1.03574 -1.821177,-2.35132 -2.15625,-3.73438 -0.03507,-0.14184 -0.178468,-0.22841 -0.319813,-0.19326 -0.141345,0.0351 -0.227633,0.17721 -0.193818,0.31841 z"
           id="path1206"
           sodipodi:nodetypes="ccccccc" />
        <path
           style="color:#000000;fill:#fec872;fill-opacity:1;stroke-width:0.769203;stroke-linecap:round;stroke-linejoin:round;-inkscape-stroke:none"
           d="m -28.253906,288.6875 c 0.266656,0.76345 0.692856,1.51054 1.253906,2.17187 0.09492,0.11111 0.261944,0.12423 0.373047,0.0293 0.111114,-0.0949 0.124233,-0.26195 0.0293,-0.37305 -0.519203,-0.612 -0.912049,-1.30278 -1.15625,-2.00195 -0.04754,-0.13902 -0.199245,-0.21267 -0.337688,-0.16419 -0.138443,0.0485 -0.211104,0.19994 -0.162315,0.33802 z"
           id="path347"
           sodipodi:nodetypes="ccccccc" />
        <path
           id="path125881"
           style="fill:#b16e02;fill-opacity:1;stroke-width:0.769203;stroke-linecap:round;stroke-linejoin:round"
           d="m -24.273455,290.15648 c -0.146121,5.8e-4 -0.264108,0.1195 -0.263549,0.26562 v 0.82527 c 1.543543,0.79708 3.621737,0.82725 5.001762,-0.006 v -0.82166 c -5.81e-4,-0.14531 -0.118237,-0.26297 -0.26355,-0.26355 z"
           sodipodi:nodetypes="ccccccc" />
        <path
           style="color:#000000;fill:#cccccc;fill-opacity:1;stroke-width:0.769203;stroke-linecap:round;stroke-linejoin:round;-inkscape-stroke:none"
           d="m -25.670056,293.40828 a 0.27961343,0.27960962 0 0 1 0.27865,0.2807 0.27961343,0.27960962 0 0 1 -0.27865,0.27865 0.27961343,0.27960962 0 0 1 -0.280714,-0.27865 0.27961343,0.27960962 0 0 1 0.280714,-0.2807 z"
           id="path9889" />
        <path
           style="color:#000000;fill:#cccccc;fill-opacity:1;stroke-width:0.769203;stroke-linecap:round;stroke-linejoin:round;-inkscape-stroke:none"
           d="m -25.670056,294.80632 a 0.27961343,0.27960962 0 0 1 0.27865,0.2807 0.27961343,0.27960962 0 0 1 -0.27865,0.27865 0.27961343,0.27960962 0 0 1 -0.280714,-0.27865 0.27961343,0.27960962 0 0 1 0.280714,-0.2807 z"
           id="path10033" />
        <path
           style="color:#000000;fill:#cccccc;fill-opacity:1;stroke-width:0.769203;stroke-linecap:round;stroke-linejoin:round;-inkscape-stroke:none"
           d="m -18.400111,294.80632 a 0.27961343,0.27960962 0 0 1 0.27865,0.2807 0.27961343,0.27960962 0 0 1 -0.27865,0.27865 0.27961343,0.27960962 0 0 1 -0.280714,-0.27865 0.27961343,0.27960962 0 0 1 0.280714,-0.2807 z"
           id="path10121" />
        <path
           style="color:#000000;fill:#cccccc;fill-opacity:1;stroke-width:0.769203;stroke-linecap:round;stroke-linejoin:round;-inkscape-stroke:none"
           d="m -24.693359,294.12305 a 0.2645835,0.2645835 0 0 0 -0.263672,0.26367 0.2645835,0.2645835 0 0 0 0.263672,0.26562 h 5.314453 a 0.2645835,0.2645835 0 0 0 0.263672,-0.26562 0.2645835,0.2645835 0 0 0 -0.263672,-0.26367 z"
           id="path10158" />
        <path
           style="color:#000000;fill:#fca311;stroke-width:0.769203;stroke-linecap:round;stroke-linejoin:round;-inkscape-stroke:none"
           d="m -22.6875,281.85156 c -1.828672,0.25547 -3.418407,1.57521 -3.925781,3.46875 -0.676501,2.52471 0.826822,5.12624 3.351562,5.80274 2.524742,0.67649 5.126231,-0.8249 5.802735,-3.34961 0.676508,-2.52472 -0.826818,-5.1282 -3.351563,-5.80469 -0.631186,-0.16912 -1.267396,-0.20234 -1.876953,-0.11719 z"
           id="path20116" />
        <path
           style="color:#000000;fill:#4d4d4d;fill-opacity:1;stroke-width:0.769203;stroke-linecap:round;stroke-linejoin:round;-inkscape-stroke:none"
           d="m -21.806641,285.69141 c -0.469071,-0.12569 -0.958289,0.15593 -1.083984,0.625 -0.125697,0.46907 0.15592,0.95829 0.625,1.08398 0.469082,0.12569 0.958303,-0.15592 1.083984,-0.625 0.125679,-0.46907 -0.155931,-0.9583 -0.625,-1.08398 z"
           id="path20308" />
        <path
           id="path104558"
           style="color:#000000;fill:#404040;fill-opacity:1;stroke-width:0.769203;stroke-linecap:round;stroke-linejoin:round;-inkscape-stroke:none"
           d="m -22.048267,285.66167 c -0.360701,0.006 -0.69355,0.23485 -0.819589,0.58342 0.16546,-0.0608 0.350549,-0.073 0.532267,-0.0243 0.46907,0.12568 0.750449,0.61458 0.624769,1.08365 -0.0065,0.0243 -0.01431,0.048 -0.02273,0.0713 0.261642,-0.0961 0.474914,-0.31312 0.551905,-0.60048 0.125679,-0.46907 -0.155699,-0.95797 -0.624768,-1.08365 -0.08062,-0.0216 -0.161981,-0.0313 -0.241845,-0.03 z" />
        <path
           id="path10503"
           style="color:#000000;fill:#fec872;stroke-width:2.90723;stroke-linecap:round;stroke-linejoin:round;-inkscape-stroke:none"
           d="m -70.644531,24.130859 c -0.550442,-0.03225 -1.023123,0.387134 -1.056641,0.9375 -0.04619,0.769739 -0.167126,1.548433 -0.375,2.324219 -0.143982,0.534626 0.17385,1.084483 0.708984,1.226563 0.533993,0.142731 1.0825,-0.174826 1.22461,-0.708985 0.242835,-0.906255 0.389161,-1.821415 0.443359,-2.724609 0.03105,-0.552581 -0.39264,-1.025292 -0.945312,-1.054688 z m -5.359375,2.207032 c -1.082083,4.038463 -5.203725,6.418054 -9.242188,5.335937 -0.533993,-0.14273 -1.082499,0.174826 -1.224609,0.708984 -0.14411,0.534032 0.172687,1.083614 0.707031,1.226563 5.082508,1.361877 10.331528,-1.67334 11.69336,-6.755859 0.142731,-0.533993 -0.174826,-1.0825 -0.708985,-1.22461 -0.613317,-0.127517 -1.115966,0.177121 -1.224609,0.708985 z m 1.875,5.181681 c -0.926646,1.189191 -2.071868,2.180509 -3.359375,2.923828 -2.575023,1.486678 -5.70944,1.989624 -8.8125,1.158203 -0.534626,-0.143982 -1.084484,0.17385 -1.226563,0.708985 -0.14273,0.533993 0.174826,1.082499 0.708985,1.224609 3.625058,0.971263 7.312591,0.37573 10.328125,-1.365234 1.507774,-0.870463 2.854074,-2.022567 3.941406,-3.417969 0.343243,-0.43768 0.263378,-1.071335 -0.177734,-1.410156 -0.57684,-0.394306 -1.084955,-0.195794 -1.402344,0.177734 z"
           transform="matrix(0.26458334,0,0,0.26458334,0,280.06666)"
           sodipodi:nodetypes="ccccccccccccccccccccccc" />
        <path
           id="path83054"
           style="color:#000000;fill:#e58f03;fill-opacity:1;stroke-width:0.769203;stroke-linecap:round;stroke-linejoin:round;-inkscape-stroke:none"
           d="m -21.99194,281.80661 c -0.23441,-0.002 -0.466981,0.013 -0.695566,0.045 -1.150942,0.16079 -2.207111,0.74354 -2.958475,1.62522 0.684408,-0.58473 1.527577,-0.97008 2.429309,-1.09606 0.609557,-0.0851 1.245703,-0.0518 1.876888,0.11731 2.524746,0.67649 4.028242,3.28009 3.351734,5.80481 -0.188146,0.70217 -0.525541,1.3248 -0.968416,1.84382 0.704193,-0.60068 1.240258,-1.41265 1.497583,-2.37298 0.676508,-2.52472 -0.826989,-5.12833 -3.351734,-5.80482 -0.394492,-0.1057 -0.790639,-0.15845 -1.181323,-0.16226 z" />
        <path
           id="path140588"
           style="color:#000000;fill:#404040;fill-opacity:1;stroke-width:0.769203;stroke-linecap:round;stroke-linejoin:round;-inkscape-stroke:none"
           d="m -16.479098,287.55147 a 0.2645835,0.2645835 0 0 0 -0.267167,0.20464 c -0.05618,0.23648 -0.141091,0.48625 -0.249597,0.73898 0.161845,0.0711 0.339503,0.11223 0.526066,0.11575 0.10012,-0.24676 0.180105,-0.49349 0.237195,-0.7338 a 0.2645835,0.2645835 0 0 0 -0.195337,-0.31833 0.2645835,0.2645835 0 0 0 -0.05116,-0.007 z" />
        <path
           style="color:#000000;fill:#4d4d4d;fill-opacity:1;stroke-width:0.769203;stroke-linecap:round;stroke-linejoin:round;-inkscape-stroke:none"
           d="m -16.443359,285.31641 c -0.760694,0 -1.382814,0.62212 -1.382813,1.38281 -1e-6,0.76069 0.622119,1.38281 1.382813,1.38281 0.760694,0 1.382813,-0.62212 1.382812,-1.38281 10e-7,-0.76069 -0.622118,-1.38281 -1.382812,-1.38281 z"
           id="path20517" />
        <path
           id="path128543"
           style="color:#000000;fill:#404040;fill-opacity:1;stroke-width:0.769203;stroke-linecap:round;stroke-linejoin:round;-inkscape-stroke:none"
           d="m -16.443441,285.31647 c -0.515737,0 -0.967961,0.2857 -1.205611,0.70693 0.200269,-0.11317 0.431139,-0.17776 0.676444,-0.17776 0.760694,0 1.382863,0.62217 1.382862,1.38286 0,0.2453 -0.06459,0.47617 -0.177767,0.67644 0.421233,-0.23765 0.706934,-0.68988 0.706933,-1.20561 10e-7,-0.76069 -0.622167,-1.38286 -1.382861,-1.38286 z" />
        <path
           id="path135983"
           style="color:#000000;fill:#404040;stroke-width:2.90723;stroke-linecap:round;stroke-linejoin:round;-inkscape-stroke:none"
           d="m -91.580078,45.597656 c -2.716611,0.269859 -5.357291,0.682641 -7.839844,1.240235 -1.677698,0.376819 -2.833988,1.904981 -2.833988,3.59375 v 4 c 0,-1.688769 1.15629,-3.216931 2.833988,-3.59375 8.562098,-1.734006 18.528438,-2.08949 27.467643,-0.841112 2.015361,0.281449 3.63392,2.258531 3.63392,4.293713 v 7.711461 h 0.884765 c 1.707738,0 3.115216,-1.407493 3.115235,-3.115234 v -8.453125 c 0,-1.689714 -1.16289,-3.218555 -2.841797,-3.587891 -2.485368,-0.546671 -5.15443,-0.957386 -7.921875,-1.232422 z"
           transform="matrix(0.26458334,0,0,0.26458334,0,280.06666)"
           sodipodi:nodetypes="cssccccsccccc" />
        <path
           style="color:#000000;fill:#cccccc;fill-opacity:1;stroke-width:0.769203;stroke-linecap:round;stroke-linejoin:round;-inkscape-stroke:none"
           d="m -18.400111,293.40828 a 0.27961343,0.27960962 0 0 1 0.27865,0.2807 0.27961343,0.27960962 0 0 1 -0.27865,0.27865 0.27961343,0.27960962 0 0 1 -0.280714,-0.27865 0.27961343,0.27960962 0 0 1 0.280714,-0.2807 z"
           id="path10119" />
      </g>
    </g>
  </g>
</svg>
