<?xml version="1.0" encoding="UTF-8" standalone="no"?>
<!-- Created with Inkscape (http://www.inkscape.org/) -->

<svg
   width="64pt"
   height="64pt"
   viewBox="0 0 22.577778 22.577778"
   version="1.1"
   id="svg831"
   inkscape:version="1.1.1 (3bf5ae0d25, 2021-09-20)"
   sodipodi:docname="1 - Trophy.svg"
   inkscape:export-filename="C:\Users\User\Desktop\DESEMBER\7 - Alarm Clock.png"
   inkscape:export-xdpi="576"
   inkscape:export-ydpi="576"
   xmlns:inkscape="http://www.inkscape.org/namespaces/inkscape"
   xmlns:sodipodi="http://sodipodi.sourceforge.net/DTD/sodipodi-0.dtd"
   xmlns="http://www.w3.org/2000/svg"
   xmlns:svg="http://www.w3.org/2000/svg"
   xmlns:rdf="http://www.w3.org/1999/02/22-rdf-syntax-ns#"
   xmlns:cc="http://creativecommons.org/ns#"
   xmlns:dc="http://purl.org/dc/elements/1.1/">
  <defs
     id="defs825">
    <pattern
       id="EMFhbasepattern"
       patternUnits="userSpaceOnUse"
       width="6"
       height="6"
       x="0"
       y="0" />
    <pattern
       id="EMFhbasepattern-9"
       patternUnits="userSpaceOnUse"
       width="6"
       height="6"
       x="0"
       y="0" />
    <pattern
       id="EMFhbasepattern-0"
       patternUnits="userSpaceOnUse"
       width="6"
       height="6"
       x="0"
       y="0" />
    <pattern
       id="EMFhbasepattern-7"
       patternUnits="userSpaceOnUse"
       width="6"
       height="6"
       x="0"
       y="0" />
    <pattern
       id="EMFhbasepattern-2"
       patternUnits="userSpaceOnUse"
       width="6"
       height="6"
       x="0"
       y="0" />
    <pattern
       id="EMFhbasepattern-98"
       patternUnits="userSpaceOnUse"
       width="6"
       height="6"
       x="0"
       y="0" />
    <pattern
       id="EMFhbasepattern-6"
       patternUnits="userSpaceOnUse"
       width="6"
       height="6"
       x="0"
       y="0" />
    <pattern
       id="EMFhbasepattern-01"
       patternUnits="userSpaceOnUse"
       width="6"
       height="6"
       x="0"
       y="0" />
    <pattern
       id="EMFhbasepattern-07"
       patternUnits="userSpaceOnUse"
       width="6"
       height="6"
       x="0"
       y="0" />
    <pattern
       id="EMFhbasepattern-8"
       patternUnits="userSpaceOnUse"
       width="6"
       height="6"
       x="0"
       y="0" />
    <pattern
       id="EMFhbasepattern-4"
       patternUnits="userSpaceOnUse"
       width="6"
       height="6"
       x="0"
       y="0" />
    <pattern
       id="EMFhbasepattern-40"
       patternUnits="userSpaceOnUse"
       width="6"
       height="6"
       x="0"
       y="0" />
    <pattern
       id="EMFhbasepattern-08"
       patternUnits="userSpaceOnUse"
       width="6"
       height="6"
       x="0"
       y="0" />
    <pattern
       id="EMFhbasepattern-04"
       patternUnits="userSpaceOnUse"
       width="6"
       height="6"
       x="0"
       y="0" />
    <pattern
       id="EMFhbasepattern-014"
       patternUnits="userSpaceOnUse"
       width="6"
       height="6"
       x="0"
       y="0" />
    <pattern
       id="EMFhbasepattern-27"
       patternUnits="userSpaceOnUse"
       width="6"
       height="6"
       x="0"
       y="0" />
    <pattern
       id="EMFhbasepattern-09"
       patternUnits="userSpaceOnUse"
       width="6"
       height="6"
       x="0"
       y="0" />
    <pattern
       id="EMFhbasepattern-5"
       patternUnits="userSpaceOnUse"
       width="6"
       height="6"
       x="0"
       y="0" />
    <pattern
       id="EMFhbasepattern-018"
       patternUnits="userSpaceOnUse"
       width="6"
       height="6"
       x="0"
       y="0" />
  </defs>
  <sodipodi:namedview
     id="base"
     pagecolor="#ffffff"
     bordercolor="#666666"
     borderopacity="1.0"
     inkscape:pageopacity="0.0"
     inkscape:pageshadow="2"
     inkscape:zoom="4.6006733"
     inkscape:cx="42.71114"
     inkscape:cy="42.71114"
     inkscape:document-units="pt"
     inkscape:current-layer="layer1"
     showgrid="false"
     units="pt"
     inkscape:window-width="958"
     inkscape:window-height="1003"
     inkscape:window-x="952"
     inkscape:window-y="0"
     inkscape:window-maximized="0"
     inkscape:pagecheckerboard="true"
     inkscape:showpageshadow="false"
     inkscape:object-paths="false"
     inkscape:snap-intersection-paths="true"
     inkscape:snap-smooth-nodes="true"
     inkscape:snap-midpoints="true"
     showguides="true"
     inkscape:snap-bbox="true"
     inkscape:bbox-nodes="true"
     inkscape:snap-nodes="false"
     inkscape:snap-global="true">
    <inkscape:grid
       type="xygrid"
       id="grid1378" />
    <sodipodi:guide
       position="0.97013831,21.607643"
       orientation="78.000048,0"
       id="guide1380"
       inkscape:locked="false" />
    <sodipodi:guide
       position="0.97013831,0.97013129"
       orientation="0,78.000005"
       id="guide1382"
       inkscape:locked="false" />
    <sodipodi:guide
       position="21.607639,0.97013129"
       orientation="-78.000048,0"
       id="guide1384"
       inkscape:locked="false" />
    <sodipodi:guide
       position="21.607639,21.607643"
       orientation="0,-78.000005"
       id="guide1386"
       inkscape:locked="false" />
  </sodipodi:namedview>
  <metadata
     id="metadata828">
    <rdf:RDF>
      <cc:Work
         rdf:about="">
        <dc:format>image/svg+xml</dc:format>
        <dc:type
           rdf:resource="http://purl.org/dc/dcmitype/StillImage" />
      </cc:Work>
    </rdf:RDF>
  </metadata>
  <g
     inkscape:label="Icon"
     inkscape:groupmode="layer"
     id="layer1"
     transform="translate(0,-274.42223)"
     style="display:inline">
    <g
       id="g1582"
       style="display:inline;stroke-width:0.79706"
       transform="matrix(1.2546109,0,0,1.2546109,-75.872198,-76.285767)">
      <g
         id="g87153"
         style="stroke-width:0.79706">
        <path
           style="color:#000000;fill:#4377d1;fill-opacity:1;stroke-width:0.79706;stroke-linecap:round;stroke-linejoin:round;-inkscape-stroke:none"
           d="m 62.080078,280.47461 c -0.457216,0 -0.832034,0.37677 -0.832031,0.83398 v 13.6543 c 0,0.92855 0.756996,1.6875 1.685547,1.6875 0.928551,0 1.6875,-0.75895 1.6875,-1.6875 v -13.6543 c 4e-6,-0.45721 -0.376768,-0.83398 -0.833985,-0.83398 z"
           id="path248547" />
        <path
           style="color:#000000;fill:#fec872;stroke-width:0.79706;stroke-linecap:round;stroke-linejoin:round;-inkscape-stroke:none"
           d="m 71.498047,280.41602 c -2.802325,0 -5.05116,2.21997 -5.197266,4.98632 H 66.0625 c -0.419512,1e-5 -0.763678,0.34612 -0.763672,0.76563 v 0.89844 c 7e-6,0.4195 0.344169,0.76367 0.763672,0.76367 h 10.869141 c 0.419503,0 0.765618,-0.34417 0.765625,-0.76367 v -0.89844 c 6e-6,-0.41951 -0.346114,-0.76562 -0.765625,-0.76563 h -0.238282 c -0.146279,-2.76619 -2.393104,-4.98632 -5.195312,-4.98632 z"
           id="path249595" />
        <path
           style="color:#000000;fill:#ca7d02;stroke-width:0.79706;stroke-linecap:round;stroke-linejoin:round;-inkscape-stroke:none"
           d="m 71.498047,282.31641 c -1.747896,0 -3.187949,1.34312 -3.353516,3.05273 -0.0296,0.30552 0.229258,0.5625 0.523438,0.5625 H 74.3125 c 0.29411,0 0.552517,-0.25456 0.525391,-0.56055 -0.151684,-1.71103 -1.591946,-3.05468 -3.339844,-3.05468 z"
           id="rect5904" />
        <path
           style="color:#000000;fill:#50b86b;fill-opacity:1;stroke-width:0.79706;stroke-linecap:round;stroke-linejoin:round;-inkscape-stroke:none"
           d="m 65.585937,288.43945 a 0.26460996,0.26460996 0 0 0 -0.1875,0.45117 l 2.46875,2.46875 a 0.26460996,0.26460996 0 0 0 0.1875,0.0781 h 8.808594 c 0.457218,0 0.833988,-0.37676 0.833985,-0.83398 v -1.33008 c 3e-6,-0.45722 -0.376767,-0.83399 -0.833985,-0.83399 z"
           id="path249264" />
        <path
           style="color:#000000;fill:#50b86b;fill-opacity:1;stroke-width:0.79706;stroke-linecap:round;stroke-linejoin:round;-inkscape-stroke:none"
           d="m 65.322266,288.70508 v 7.11133 c 9e-6,0.4572 0.376776,0.83398 0.833984,0.83398 h 1.330078 c 0.457208,0 0.832022,-0.37678 0.832031,-0.83398 v -4.64454 c 4.58e-4,-0.0701 -0.02694,-0.13756 -0.07617,-0.1875 l -2.46875,-2.46679 c -0.278417,-0.13776 -0.340694,-0.0475 -0.451173,0.1875 z"
           id="path249069"
           sodipodi:nodetypes="ccssccccc" />
        <path
           id="path7461"
           style="color:#000000;fill:#3b9152;fill-opacity:1;stroke-width:3.01251;stroke-linecap:round;stroke-linejoin:round;-inkscape-stroke:none"
           d="m 274.41406,36.671875 a 1.0000006,1.0000006 0 0 0 -0.99609,1.003906 v 5.300781 h 2 v -5.300781 a 1.0000006,1.0000006 0 0 0 -1.00391,-1.003906 z m 12.9043,0 a 1.0000006,1.0000006 0 0 0 -0.99609,1.003906 v 5.300781 h 2 v -5.300781 a 1.0000006,1.0000006 0 0 0 -1.00391,-1.003906 z m -25.80078,2.15625 a 1.0000006,1.0000006 0 0 0 -1.00391,0.996094 v 3.152343 h 2.00195 v -3.152343 a 1.0000006,1.0000006 0 0 0 -0.99804,-0.996094 z m 4.29687,0 a 1.0000006,1.0000006 0 0 0 -0.99609,0.996094 v 3.152343 h 2 v -3.152343 a 1.0000006,1.0000006 0 0 0 -1.00391,-0.996094 z m 4.30274,0 a 1.0000006,1.0000006 0 0 0 -1.00391,0.996094 v 3.152343 h 2.00195 v -3.152343 a 1.0000006,1.0000006 0 0 0 -0.99804,-0.996094 z m 8.60156,0 a 1.0000006,1.0000006 0 0 0 -0.99805,0.996094 v 3.152343 h 2.00196 v -3.152343 a 1.0000006,1.0000006 0 0 0 -1.00391,-0.996094 z m 4.30273,0 a 1.0000006,1.0000006 0 0 0 -1.0039,0.996094 v 3.152343 h 2 v -3.152343 a 1.0000006,1.0000006 0 0 0 -0.9961,-0.996094 z"
           transform="matrix(0.26458334,0,0,0.26458334,0,280.06666)" />
        <path
           id="path7996"
           style="color:#000000;fill:#3b9152;fill-opacity:1;stroke-width:3.01251;stroke-linecap:round;stroke-linejoin:round;-inkscape-stroke:none"
           d="m 255.06641,43.470703 a 1.0000006,1.0000006 0 0 0 -1.00391,1.003906 1.0000006,1.0000006 0 0 0 1.00391,0.996094 h 3.14453 v -2 z m 0,4.304688 a 1.0000006,1.0000006 0 0 0 -1.00391,0.996093 1.0000006,1.0000006 0 0 0 1.00391,1.003907 h 3.14453 v -2 z m 0,4.294921 a 1.0000006,1.0000006 0 0 0 -1.00391,1.003907 1.0000006,1.0000006 0 0 0 1.00391,0.998047 h 3.14453 V 52.070312 Z M 252.91016,56.375 a 1.0000006,1.0000006 0 0 0 -0.9961,1.003906 1.0000006,1.0000006 0 0 0 0.9961,0.996094 h 5.30078 v -2 z"
           transform="matrix(0.26458334,0,0,0.26458334,0,280.06666)" />
        <path
           id="path1579"
           style="color:#000000;fill:#fca415;stroke-width:3.01251;stroke-linecap:round;stroke-linejoin:round;-inkscape-stroke:none"
           d="m 261.62891,24.123047 a 1.0000006,1.0000006 0 0 0 -1.00391,0.996094 v 4.222656 h 2 v -4.222656 a 1.0000006,1.0000006 0 0 0 -0.99609,-0.996094 z m 12.89648,0 a 1.0000006,1.0000006 0 0 0 -0.99609,0.996094 v 4.222656 h 2 v -4.222656 a 1.0000006,1.0000006 0 0 0 -1.00391,-0.996094 z m 12.90234,0 a 1.0000006,1.0000006 0 0 0 -0.99609,0.996094 v 4.222656 h 2 v -4.222656 a 1.0000006,1.0000006 0 0 0 -1.00391,-0.996094 z m -34.40625,1.070312 a 1.0000006,1.0000006 0 0 0 -0.99609,1.003907 v 3.144531 h 2 v -3.144531 a 1.0000006,1.0000006 0 0 0 -1.00391,-1.003907 z m 4.30469,0 a 1.0000006,1.0000006 0 0 0 -0.99805,1.003907 v 3.144531 h 2.00196 v -3.144531 a 1.0000006,1.0000006 0 0 0 -1.00391,-1.003907 z m 8.59961,0 a 1.0000006,1.0000006 0 0 0 -0.99805,1.003907 v 3.144531 h 2.00196 v -3.144531 a 1.0000006,1.0000006 0 0 0 -1.00391,-1.003907 z m 4.30274,0 a 1.0000006,1.0000006 0 0 0 -1.00391,1.003907 v 3.144531 h 2 v -3.144531 a 1.0000006,1.0000006 0 0 0 -0.99609,-1.003907 z m 8.5996,0 a 1.0000006,1.0000006 0 0 0 -0.99609,1.003907 v 3.144531 h 2 v -3.144531 a 1.0000006,1.0000006 0 0 0 -1.00391,-1.003907 z m 4.30469,0 a 1.0000006,1.0000006 0 0 0 -1.0039,1.003907 v 3.144531 h 2 v -3.144531 a 1.0000006,1.0000006 0 0 0 -0.9961,-1.003907 z"
           transform="matrix(0.26458334,0,0,0.26458334,0,280.06666)" />
        <path
           id="path3130"
           style="color:#000000;fill:#2c5eb5;fill-opacity:1;stroke-width:3.01251;stroke-linecap:round;stroke-linejoin:round;-inkscape-stroke:none"
           d="m 231.48828,9.0644531 v 1.9999999 h 3.14453 a 1.0000006,1.0000006 0 0 0 1.00391,-0.996094 1.0000006,1.0000006 0 0 0 -1.00391,-1.0039059 z m 0,4.3027349 v 2 h 2.07422 a 1.0000006,1.0000006 0 0 0 0.99609,-1.003907 1.0000006,1.0000006 0 0 0 -0.99609,-0.996093 z m 0,4.304687 v 2 h 2.07422 a 1.0000006,1.0000006 0 0 0 0.99609,-1.003906 1.0000006,1.0000006 0 0 0 -0.99609,-0.996094 z m 0,4.294922 v 2.001953 h 2.07422 a 1.0000006,1.0000006 0 0 0 0.99609,-0.998047 1.0000006,1.0000006 0 0 0 -0.99609,-1.003906 z m 0,4.304687 v 2 h 3.14453 a 1.0000006,1.0000006 0 0 0 1.00391,-1.003906 1.0000006,1.0000006 0 0 0 -1.00391,-0.996094 z m 0,4.296875 v 2 h 2.07422 a 1.0000006,1.0000006 0 0 0 0.99609,-0.996093 1.0000006,1.0000006 0 0 0 -0.99609,-1.003907 z m 0,4.302735 v 2 h 2.07422 A 1.0000006,1.0000006 0 0 0 234.55859,35.875 1.0000006,1.0000006 0 0 0 233.5625,34.871094 Z m 0,4.302734 v 2.001953 h 2.07422 a 1.0000006,1.0000006 0 0 0 0.99609,-1.003906 1.0000006,1.0000006 0 0 0 -0.99609,-0.998047 z m 0,4.296875 v 2 h 3.14453 a 1.0000006,1.0000006 0 0 0 1.00391,-0.996094 1.0000006,1.0000006 0 0 0 -1.00391,-1.003906 z m 0,4.304688 v 2 h 2.07422 a 1.0000006,1.0000006 0 0 0 0.99609,-1.003907 1.0000006,1.0000006 0 0 0 -0.99609,-0.996093 z m 0,4.294921 v 2.001954 h 2.07422 a 1.0000006,1.0000006 0 0 0 0.99609,-0.998047 1.0000006,1.0000006 0 0 0 -0.99609,-1.003907 z"
           transform="matrix(0.26458334,0,0,0.26458334,0,280.06666)" />
        <path
           id="path4141"
           style="color:#000000;fill:#2c5eb5;fill-opacity:1;stroke-width:3.01251;stroke-linecap:round;stroke-linejoin:round;-inkscape-stroke:none"
           d="m 241.08594,9.0644531 a 1.0000006,1.0000006 0 0 0 -0.99805,1.0039059 1.0000006,1.0000006 0 0 0 0.99805,0.996094 h 3.15039 V 9.0644531 Z m 0,12.9023439 a 1.0000006,1.0000006 0 0 0 -0.99805,1.003906 1.0000006,1.0000006 0 0 0 0.99805,0.998047 h 3.15039 v -2.001953 z m 0,12.904297 a 1.0000006,1.0000006 0 0 0 -0.99805,0.996094 1.0000006,1.0000006 0 0 0 0.99805,1.003906 h 3.15039 v -2 z m 0,12.904297 a 1.0000006,1.0000006 0 0 0 -0.99805,0.996093 1.0000006,1.0000006 0 0 0 0.99805,1.003907 h 3.15039 v -2 z"
           transform="matrix(0.26458334,0,0,0.26458334,0,280.06666)" />
        <path
           style="color:#000000;fill:#26529c;fill-opacity:1;stroke-width:0.79706;stroke-linecap:round;stroke-linejoin:round;-inkscape-stroke:none"
           d="m 62.936058,294.49323 a 0.52990334,0.52990334 0 0 0 -0.53199,0.52808 0.52990334,0.52990334 0 0 0 0.53199,0.532 0.52990334,0.52990334 0 0 0 0.528076,-0.532 0.52990334,0.52990334 0 0 0 -0.528076,-0.52808 z"
           id="path4512" />
        <path
           style="color:#000000;fill:#fec872;fill-opacity:1;stroke-width:0.79706;stroke-linecap:round;stroke-linejoin:round;-inkscape-stroke:none"
           d="m 71.498047,282.8457 c 1.471,0 2.668152,1.12295 2.804687,2.55664 h -5.623047 c 0.149173,-1.43424 1.347977,-2.55664 2.81836,-2.55664 z"
           id="path249789" />
        <path
           id="path252138"
           style="color:#000000;fill:#2c5eb5;fill-opacity:1;stroke-width:0.79706;stroke-linecap:round;stroke-linejoin:round;-inkscape-stroke:none"
           d="m 62.079932,280.47439 c -0.365691,0 -0.677933,0.24162 -0.788582,0.57206 0.08181,-0.0273 0.16887,-0.0429 0.259416,-0.0429 h 1.70739 c 0.457216,0 0.833544,0.37685 0.833541,0.83406 v 13.65447 c 0,0.32943 -0.0957,0.63719 -0.26045,0.89761 0.473599,-0.2996 0.789617,-0.82767 0.789617,-1.42678 v -13.65447 c 3e-6,-0.45721 -0.376325,-0.83405 -0.833541,-0.83405 z" />
        <path
           id="path253666"
           style="color:#000000;fill:#26529c;fill-opacity:1;stroke-width:0.79706;stroke-linecap:round;stroke-linejoin:round;-inkscape-stroke:none"
           d="m 64.091697,282.46496 v 0.52917 h 0.529167 v -0.52917 z m 0,3.41375 v 0.52968 h 0.529167 v -0.52968 z m 0,3.41426 v 0.52917 h 0.529167 v -0.52917 z m 0,3.41426 v 0.52917 h 0.529167 v -0.52917 z" />
        <path
           id="path255124"
           style="color:#000000;fill:#fca311;fill-opacity:1;stroke-width:0.79706;stroke-linecap:round;stroke-linejoin:round;-inkscape-stroke:none"
           d="m 67.586058,282.2071 c 0.906438,-0.7858 2.085155,-1.26194 3.38274,-1.26194 2.802207,0 5.049269,2.22007 5.195546,4.98626 h 0.238229 c 0.419512,10e-6 0.765336,0.34633 0.765328,0.76584 v 0.89814 c 0,0.071 -0.01043,0.13976 -0.02894,0.20516 0.320309,-0.0911 0.558098,-0.38659 0.558104,-0.73433 v -0.89813 c 8e-6,-0.41951 -0.345816,-0.76584 -0.765329,-0.76585 h -0.238228 c -0.146278,-2.76619 -2.393339,-4.98626 -5.195546,-4.98626 -1.836663,0.0229 -3.052989,0.83065 -3.911904,1.79111 z"
           sodipodi:nodetypes="cscscscscsccc" />
        <path
           id="path256517"
           style="color:#000000;fill:#fca311;fill-opacity:1;stroke-width:0.79706;stroke-linecap:round;stroke-linejoin:round;-inkscape-stroke:none"
           d="m 71.497964,282.84582 c -0.915172,0 -1.724562,0.43481 -2.241724,1.10897 0.474813,-0.36354 1.067546,-0.5798 1.712558,-0.5798 1.284298,0 2.359996,0.85583 2.703192,2.02726 h 0.63097 c -0.136535,-1.43369 -1.333997,-2.55643 -2.804996,-2.55643 z" />
        <path
           id="path259845"
           style="color:#000000;fill:#3b9152;fill-opacity:1;stroke-width:0.79706;stroke-linecap:round;stroke-linejoin:round;-inkscape-stroke:none"
           d="m 65.58618,288.43928 a 0.26460996,0.26460996 0 0 0 -0.187587,0.45113 l 0.07803,0.078 h 10.857736 c 0.457218,0 0.833543,0.37684 0.83354,0.83406 v 1.33015 c 3e-6,0.0913 -0.01519,0.17945 -0.04289,0.262 0.330819,-0.11092 0.572061,-0.4252 0.572058,-0.79117 v -1.33015 c 3e-6,-0.45722 -0.376322,-0.83405 -0.833541,-0.83405 z" />
        <path
           id="path260905"
           style="color:#000000;fill:#3b9152;fill-opacity:1;stroke-width:0.79706;stroke-linecap:round;stroke-linejoin:round;-inkscape-stroke:none"
           d="m 65.322113,288.70487 v 0.42013 l 2.391069,2.38849 c 0.04917,0.05 0.07649,0.11746 0.07596,0.18758 v 4.64468 c -3e-6,0.0914 -0.01524,0.17937 -0.04289,0.262 0.331079,-0.11048 0.572051,-0.42466 0.572059,-0.79117 v -4.64467 c 5.38e-4,-0.0701 -0.02678,-0.1376 -0.07596,-0.18759 l -2.469099,-2.46652 c -0.236326,-0.14789 -0.345598,-0.0371 -0.451139,0.18707 z"
           sodipodi:nodetypes="ccccccccccc" />
        <path
           id="path262123"
           style="color:#000000;fill:#347f48;fill-opacity:1;stroke-width:0.79706;stroke-linecap:round;stroke-linejoin:round;-inkscape-stroke:none"
           d="m 67.754004,291.56828 a 0.26460996,0.26460996 0 0 1 0.03514,0.13281 v 0.39636 h 0.529167 v -0.52917 z m 0.03514,1.13895 v 0.52917 h 0.529167 v -0.52917 z m 0,1.13637 v 0.52968 h 0.529167 v -0.52968 z m 0,1.13895 v 0.52916 h 0.529167 v -0.52916 z" />
      </g>
    </g>
  </g>
</svg>
