<?xml version="1.0" encoding="UTF-8" standalone="no"?>
<!-- Created with Inkscape (http://www.inkscape.org/) -->

<svg
   width="64pt"
   height="64pt"
   viewBox="0 0 22.577778 22.577778"
   version="1.1"
   id="svg831"
   inkscape:version="1.1.1 (3bf5ae0d25, 2021-09-20)"
   sodipodi:docname="1 - Trophy.svg"
   inkscape:export-filename="C:\Users\User\Desktop\DESEMBER\4 - Desk Lamp.png"
   inkscape:export-xdpi="576"
   inkscape:export-ydpi="576"
   xmlns:inkscape="http://www.inkscape.org/namespaces/inkscape"
   xmlns:sodipodi="http://sodipodi.sourceforge.net/DTD/sodipodi-0.dtd"
   xmlns="http://www.w3.org/2000/svg"
   xmlns:svg="http://www.w3.org/2000/svg"
   xmlns:rdf="http://www.w3.org/1999/02/22-rdf-syntax-ns#"
   xmlns:cc="http://creativecommons.org/ns#"
   xmlns:dc="http://purl.org/dc/elements/1.1/">
  <defs
     id="defs825">
    <pattern
       id="EMFhbasepattern"
       patternUnits="userSpaceOnUse"
       width="6"
       height="6"
       x="0"
       y="0" />
    <pattern
       id="EMFhbasepattern-9"
       patternUnits="userSpaceOnUse"
       width="6"
       height="6"
       x="0"
       y="0" />
    <pattern
       id="EMFhbasepattern-0"
       patternUnits="userSpaceOnUse"
       width="6"
       height="6"
       x="0"
       y="0" />
    <pattern
       id="EMFhbasepattern-7"
       patternUnits="userSpaceOnUse"
       width="6"
       height="6"
       x="0"
       y="0" />
    <pattern
       id="EMFhbasepattern-2"
       patternUnits="userSpaceOnUse"
       width="6"
       height="6"
       x="0"
       y="0" />
    <pattern
       id="EMFhbasepattern-98"
       patternUnits="userSpaceOnUse"
       width="6"
       height="6"
       x="0"
       y="0" />
    <pattern
       id="EMFhbasepattern-6"
       patternUnits="userSpaceOnUse"
       width="6"
       height="6"
       x="0"
       y="0" />
    <pattern
       id="EMFhbasepattern-01"
       patternUnits="userSpaceOnUse"
       width="6"
       height="6"
       x="0"
       y="0" />
    <pattern
       id="EMFhbasepattern-07"
       patternUnits="userSpaceOnUse"
       width="6"
       height="6"
       x="0"
       y="0" />
    <pattern
       id="EMFhbasepattern-8"
       patternUnits="userSpaceOnUse"
       width="6"
       height="6"
       x="0"
       y="0" />
    <pattern
       id="EMFhbasepattern-4"
       patternUnits="userSpaceOnUse"
       width="6"
       height="6"
       x="0"
       y="0" />
    <pattern
       id="EMFhbasepattern-40"
       patternUnits="userSpaceOnUse"
       width="6"
       height="6"
       x="0"
       y="0" />
    <pattern
       id="EMFhbasepattern-08"
       patternUnits="userSpaceOnUse"
       width="6"
       height="6"
       x="0"
       y="0" />
    <pattern
       id="EMFhbasepattern-04"
       patternUnits="userSpaceOnUse"
       width="6"
       height="6"
       x="0"
       y="0" />
    <pattern
       id="EMFhbasepattern-014"
       patternUnits="userSpaceOnUse"
       width="6"
       height="6"
       x="0"
       y="0" />
    <pattern
       id="EMFhbasepattern-27"
       patternUnits="userSpaceOnUse"
       width="6"
       height="6"
       x="0"
       y="0" />
    <pattern
       id="EMFhbasepattern-09"
       patternUnits="userSpaceOnUse"
       width="6"
       height="6"
       x="0"
       y="0" />
    <pattern
       id="EMFhbasepattern-5"
       patternUnits="userSpaceOnUse"
       width="6"
       height="6"
       x="0"
       y="0" />
    <pattern
       id="EMFhbasepattern-018"
       patternUnits="userSpaceOnUse"
       width="6"
       height="6"
       x="0"
       y="0" />
  </defs>
  <sodipodi:namedview
     id="base"
     pagecolor="#ffffff"
     bordercolor="#666666"
     borderopacity="1.0"
     inkscape:pageopacity="0.0"
     inkscape:pageshadow="2"
     inkscape:zoom="4.6006733"
     inkscape:cx="42.71114"
     inkscape:cy="42.71114"
     inkscape:document-units="pt"
     inkscape:current-layer="layer1"
     showgrid="false"
     units="pt"
     inkscape:window-width="958"
     inkscape:window-height="1003"
     inkscape:window-x="952"
     inkscape:window-y="0"
     inkscape:window-maximized="0"
     inkscape:pagecheckerboard="true"
     inkscape:showpageshadow="false"
     inkscape:object-paths="false"
     inkscape:snap-intersection-paths="true"
     inkscape:snap-smooth-nodes="true"
     inkscape:snap-midpoints="true"
     showguides="true"
     inkscape:snap-bbox="true"
     inkscape:bbox-nodes="true"
     inkscape:snap-nodes="false"
     inkscape:snap-global="true">
    <inkscape:grid
       type="xygrid"
       id="grid1378" />
    <sodipodi:guide
       position="0.97013831,21.607643"
       orientation="78.000048,0"
       id="guide1380"
       inkscape:locked="false" />
    <sodipodi:guide
       position="0.97013831,0.97013129"
       orientation="0,78.000005"
       id="guide1382"
       inkscape:locked="false" />
    <sodipodi:guide
       position="21.607639,0.97013129"
       orientation="-78.000048,0"
       id="guide1384"
       inkscape:locked="false" />
    <sodipodi:guide
       position="21.607639,21.607643"
       orientation="0,-78.000005"
       id="guide1386"
       inkscape:locked="false" />
  </sodipodi:namedview>
  <metadata
     id="metadata828">
    <rdf:RDF>
      <cc:Work
         rdf:about="">
        <dc:format>image/svg+xml</dc:format>
        <dc:type
           rdf:resource="http://purl.org/dc/dcmitype/StillImage" />
      </cc:Work>
    </rdf:RDF>
  </metadata>
  <g
     inkscape:label="Icon"
     inkscape:groupmode="layer"
     id="layer1"
     transform="translate(0,-274.42223)"
     style="display:inline">
    <g
       id="g1007"
       style="display:inline;stroke-width:0.803989"
       transform="matrix(1.2437975,0,0,1.2437975,0.7581845,-35.226252)">
      <path
         style="color:#000000;fill:#349951;stroke-width:0.803989;stroke-linecap:round;stroke-linejoin:round;-inkscape-stroke:none"
         d="m 8.8632813,255.21289 c -1.019743,0 -1.8515625,0.83378 -1.8515626,1.85352 v 1.98437 a 0.26460996,0.26460996 0 0 0 0.2636719,0.26367 c 0.8068216,0 1.3242179,0.6237 1.3242188,1.45508 -9e-7,0.83139 -0.517462,1.45552 -1.3242188,1.45508 a 0.26460996,0.26460996 0 0 0 -0.2636719,0.26367 v 1.98633 c 10e-8,1.01974 0.8318196,1.85156 1.8515626,1.85156 h 5.0273437 c 1.019743,0 1.851563,-0.83182 1.851563,-1.85156 v -1.98633 a 0.26460996,0.26460996 0 0 0 -0.263672,-0.26367 c -0.806757,4.4e-4 -1.324218,-0.62369 -1.324219,-1.45508 1e-6,-0.83138 0.517398,-1.45508 1.324219,-1.45508 a 0.26460996,0.26460996 0 0 0 0.263672,-0.26367 v -1.98437 c 0,-1.01974 -0.83182,-1.85352 -1.851563,-1.85352 z"
         id="path74856" />
      <path
         style="color:#000000;fill:#feefc8;stroke-width:0.803989;stroke-linecap:round;stroke-linejoin:round;-inkscape-stroke:none"
         d="m 3.4394531,249.73437 c -0.2220277,0 -0.4445971,0.10511 -0.5742187,0.3125 a 0.26460996,0.26460996 0 0 0 -0.00977,0.0176 l -1.6347657,3.17578 a 0.26460996,0.26460996 0 0 0 0.082031,0.33789 l 1.125,0.79297 a 0.26460996,0.26460996 0 0 0 0.1523437,0.0488 h 1.71875 a 0.26460996,0.26460996 0 0 0 0.1523438,-0.0488 l 1.125,-0.79297 a 0.26460996,0.26460996 0 0 0 0.083984,-0.33789 l -1.6367187,-3.17578 a 0.26460996,0.26460996 0 0 0 -0.00977,-0.0176 c -0.1296216,-0.20739 -0.3521911,-0.3125 -0.5742188,-0.3125 z"
         id="path72034" />
      <path
         id="path75539"
         style="color:#000000;fill:#fee9a9;fill-opacity:1;stroke-width:0.803989;stroke-linecap:round;stroke-linejoin:round;-inkscape-stroke:none"
         d="m 4.013707,250.04676 c -0.1296201,-0.20736 -0.352096,-0.31262 -0.5741237,-0.31262 -0.2312133,-0.003 -0.5263972,0.21832 -0.6965997,0.54936 0.054765,-0.0134 0.1112191,-0.0202 0.1674316,-0.0202 0.2220277,0 0.4445036,0.10525 0.5741252,0.31264 0.5500892,1.06388 1.0978068,2.12899 1.6464127,3.19363 0.016293,0.0318 0.025962,0.0667 0.028422,0.10234 l 0.4170289,-0.29353 c 0.1085279,-0.0758 0.1442932,-0.22023 0.083716,-0.33796 -0.5500031,-1.06393 -1.0950052,-2.13046 -1.646413,-3.19366 z"
         sodipodi:nodetypes="cccscccccc" />
      <path
         style="color:#000000;fill:#fca311;stroke-width:0.803989;stroke-linecap:round;stroke-linejoin:round;-inkscape-stroke:none"
         d="m 1.3339844,253.12695 a 0.26460996,0.26460996 0 0 0 -0.1425782,0.23438 v 8.73047 a 0.26460996,0.26460996 0 0 0 0.2636719,0.26562 h 3.96875 a 0.26460996,0.26460996 0 0 0 0.265625,-0.26562 v -8.73047 a 0.26460996,0.26460996 0 0 0 -0.4179687,-0.2168 l -0.9492188,0.67188 -0.703125,-0.65039 a 0.26460996,0.26460996 0 0 0 -0.359375,0 l -0.703125,0.65039 -0.9492187,-0.67188 a 0.26460996,0.26460996 0 0 0 -0.2734375,-0.0176 z"
         id="path71842" />
      <path
         style="color:#000000;fill:#fec872;stroke-width:0.803989;stroke-linecap:round;stroke-linejoin:round;-inkscape-stroke:none"
         d="m 4.2988281,253.89062 a 0.2645835,0.2645835 0 0 0 -0.2636719,0.26368 v 7.9375 a 0.2645835,0.2645835 0 0 0 0.2636719,0.26562 0.2645835,0.2645835 0 0 0 0.265625,-0.26562 v -7.9375 a 0.2645835,0.2645835 0 0 0 -0.265625,-0.26368 z"
         id="path12175" />
      <path
         style="color:#000000;fill:#5b6571;stroke-width:0.803989;stroke-linecap:round;stroke-linejoin:round;-inkscape-stroke:none"
         d="m 2.484375,250.7832 c -0.049066,0.0945 -0.036753,0.20913 0.03125,0.29102 0.2188996,0.26473 0.5531827,0.43555 0.9238281,0.43555 0.3710199,0 0.7127484,-0.17516 0.9257813,-0.46094 0.059894,-0.0814 0.06823,-0.18973 0.021484,-0.2793 -0.2365604,-0.54165 -0.4067471,-0.90746 -0.9472676,-1.03517 -0.6089458,0.12727 -0.6693646,0.49547 -0.9550758,1.04884 z"
         id="path72343"
         sodipodi:nodetypes="ccscccc" />
      <path
         style="color:#000000;fill:#ececec;stroke-width:0.803989;stroke-linecap:round;stroke-linejoin:round;-inkscape-stroke:none"
         d="m 10.451172,257.33008 c -0.435244,0 -0.7929689,0.35773 -0.7929689,0.79297 v 5.82226 a 0.26460996,0.26460996 0 0 0 0.2636719,0.26367 h 1.851563 a 0.26460996,0.26460996 0 0 0 0.205078,-0.0996 l 1.060547,-1.32226 a 0.26460996,0.26460996 0 0 0 0.05859,-0.16602 v -4.49804 c 0,-0.43524 -0.359677,-0.79297 -0.794922,-0.79297 z"
         id="path75537" />
      <path
         style="color:#000000;fill:#50b86b;stroke-width:0.803989;stroke-linecap:round;stroke-linejoin:round;-inkscape-stroke:none"
         d="m 9.921875,264.73828 a 0.2645835,0.2645835 0 0 0 -0.2636719,0.26563 0.2645835,0.2645835 0 0 0 0.2636719,0.26367 h 2.910156 a 0.2645835,0.2645835 0 0 0 0.265625,-0.26367 0.2645835,0.2645835 0 0 0 -0.265625,-0.26563 z"
         id="path23028" />
      <path
         style="color:#000000;fill:#cccccc;stroke-width:0.803989;stroke-linecap:round;stroke-linejoin:round;-inkscape-stroke:none"
         d="m 11.773438,258.38867 a 0.26460996,0.26460996 0 0 0 -0.263672,0.26367 v 5.29102 a 0.2645835,0.2645835 0 0 0 0.0059,0.0137 0.2645835,0.2645835 0 0 0 0.04102,0.10352 0.2645835,0.2645835 0 0 0 0.04297,0.0762 0.2645835,0.2645835 0 0 0 0.0078,0.0137 0.2645835,0.2645835 0 0 0 0.08398,0.0234 0.2645835,0.2645835 0 0 0 0.08203,0.0351 0.2645835,0.2645835 0 0 0 0.01563,-0.006 0.2645835,0.2645835 0 0 0 0.08789,-0.0371 0.2645835,0.2645835 0 0 0 0.08984,-0.0508 0.2645835,0.2645835 0 0 0 0.01172,-0.006 l 1.060547,-1.32226 a 0.26460996,0.26460996 0 0 0 0.05859,-0.16602 v -3.96875 a 0.26460996,0.26460996 0 0 0 -0.265625,-0.26367 z"
         id="path75071" />
      <path
         id="path23743"
         style="color:#000000;fill:#cccccc;stroke-width:3.0387;stroke-linecap:round;stroke-linejoin:round;-inkscape-stroke:none"
         d="m 45.27343,-60.312511 4.007812,-4.998047 c 0.143594,-0.17745 0.222163,-0.398682 0.222656,-0.626953 v -15.994141 c -4.331276,-0.0029 -8.667165,5.8e-5 -12.999992,5.8e-5 v 2 h 6.998047 v 19.997057 l 1.100834,-2.21e-4 c 0,0 0.470191,-0.27362 0.670643,-0.377753 z"
         transform="matrix(0.26458334,0,0,0.26458334,0,280.06666)"
         sodipodi:nodetypes="cccccccccc" />
      <path
         style="color:#000000;fill:#cccccc;fill-opacity:1;stroke-width:0.803989;stroke-linecap:round;stroke-linejoin:round;-inkscape-stroke:none"
         d="m 10.846949,261.03367 a 0.2645835,0.2645835 0 0 0 -0.263672,0.26563 0.2645835,0.2645835 0 0 0 0.263672,0.26367 0.2645835,0.2645835 0 0 0 0.265625,-0.26367 0.2645835,0.2645835 0 0 0 -0.265625,-0.26563 z"
         id="path26029" />
      <path
         style="color:#000000;fill:#ececec;fill-opacity:1;stroke-width:0.803989;stroke-linecap:round;stroke-linejoin:round;-inkscape-stroke:none"
         d="m 8.5979232,264.47369 a 0.2645835,0.2645835 0 0 0 -0.263672,0.26563 0.2645835,0.2645835 0 0 0 0.263672,0.26367 0.2645835,0.2645835 0 0 0 0.265625,-0.26367 0.2645835,0.2645835 0 0 0 -0.265625,-0.26563 z"
         id="path26735" />
      <path
         style="color:#000000;fill:#ececec;fill-opacity:1;stroke-width:0.803989;stroke-linecap:round;stroke-linejoin:round;-inkscape-stroke:none"
         d="m 14.154175,264.47369 a 0.2645835,0.2645835 0 0 0 -0.263672,0.26563 0.2645835,0.2645835 0 0 0 0.263672,0.26367 0.2645835,0.2645835 0 0 0 0.265625,-0.26367 0.2645835,0.2645835 0 0 0 -0.265625,-0.26563 z"
         id="path26817" />
      <path
         style="color:#000000;fill:#feefc8;stroke-width:0.803989;stroke-linecap:round;stroke-linejoin:round;-inkscape-stroke:none"
         d="m 7.8261719,249.94531 a 0.26460996,0.26460996 0 0 0 -0.1542969,0.19727 c -0.023441,0.1389 -0.1052794,0.26779 -0.2402344,0.3457 -0.1348577,0.0778 -0.2868786,0.0855 -0.4199219,0.0371 A 0.26460996,0.26460996 0 0 0 6.65625,250.78516 l 0.097656,2.22656 a 0.26460996,0.26460996 0 0 0 0.2402344,0.25195 l 1.1132813,0.0957 a 0.26460996,0.26460996 0 0 0 0.2753906,-0.18359 l 0.2128906,-0.67187 0.6894532,0.15039 a 0.26460996,0.26460996 0 0 0 0.296875,-0.14453 l 0.4726569,-1.01172 a 0.26460996,0.26460996 0 0 0 -0.097657,-0.33594 l -1.8808594,-1.19922 a 0.26460996,0.26460996 0 0 0 -0.25,-0.0176 z"
         id="path74468" />
      <path
         style="color:#000000;fill:#feefc8;stroke-width:0.803989;stroke-linecap:round;stroke-linejoin:round;-inkscape-stroke:none"
         d="m 14.421875,251.00195 a 0.26460996,0.26460996 0 0 0 -0.25,0.0176 l -1.880859,1.19922 a 0.26460996,0.26460996 0 0 0 -0.09766,0.33594 l 0.472657,1.01172 a 0.26460996,0.26460996 0 0 0 0.296875,0.14648 l 0.689453,-0.15234 0.214844,0.67382 a 0.26460996,0.26460996 0 0 0 0.273437,0.1836 l 1.113281,-0.0957 a 0.26460996,0.26460996 0 0 0 0.242188,-0.25391 l 0.0957,-2.22656 a 0.26460996,0.26460996 0 0 0 -0.353516,-0.25977 c -0.133043,0.0484 -0.287017,0.0407 -0.421875,-0.0371 -0.134953,-0.0779 -0.216789,-0.2068 -0.240234,-0.3457 a 0.26460996,0.26460996 0 0 0 -0.154297,-0.19727 z"
         id="path74660" />
      <path
         style="color:#000000;fill:#ececec;fill-opacity:1;stroke-width:0.803989;stroke-linecap:round;stroke-linejoin:round;-inkscape-stroke:none"
         d="m 8.5979232,256.53634 a 0.2645835,0.2645835 0 0 0 -0.263672,0.26563 0.2645835,0.2645835 0 0 0 0.263672,0.26367 0.2645835,0.2645835 0 0 0 0.265625,-0.26367 0.2645835,0.2645835 0 0 0 -0.265625,-0.26563 z"
         id="path27749" />
      <path
         style="color:#000000;fill:#ececec;fill-opacity:1;stroke-width:0.803989;stroke-linecap:round;stroke-linejoin:round;-inkscape-stroke:none"
         d="m 14.154175,256.53634 a 0.2645835,0.2645835 0 0 0 -0.263672,0.26563 0.2645835,0.2645835 0 0 0 0.263672,0.26367 0.2645835,0.2645835 0 0 0 0.265625,-0.26367 0.2645835,0.2645835 0 0 0 -0.265625,-0.26563 z"
         id="path27751" />
      <path
         id="path90970"
         style="color:#000000;fill:#ca7d02;fill-opacity:1;stroke-width:0.803989;stroke-linecap:round;stroke-linejoin:round;-inkscape-stroke:none"
         d="m 5.1604083,253.89048 v 8.46718 h 0.26355 c 0.146925,5.6e-4 0.266173,-0.11869 0.265617,-0.26561 v -8.73074 z"
         sodipodi:nodetypes="cccccc" />
      <path
         style="color:#000000;fill:#fec872;stroke-width:0.803989;stroke-linecap:round;stroke-linejoin:round;-inkscape-stroke:none"
         d="m 1.4550781,261.82812 a 0.26460996,0.26460996 0 0 0 -0.2636719,0.26368 v 0.52929 c -2.8e-6,0.43525 0.3577251,0.79493 0.7929688,0.79493 h 2.9101562 c 0.4352437,0 0.7949248,-0.35968 0.7949219,-0.79493 v -0.52929 a 0.26460996,0.26460996 0 0 0 -0.265625,-0.26368 z"
         id="path71642" />
      <path
         id="path99317"
         style="color:#000000;fill:#f2b75a;fill-opacity:1;stroke-width:0.803989;stroke-linecap:round;stroke-linejoin:round;-inkscape-stroke:none"
         d="m 5.1604086,261.82798 c 0,0.52934 0,1.05868 0,1.58802 0,0 0.5291666,-0.27084 0.5291666,-0.79479 v -0.52916 c -2.975e-4,-0.14632 -0.1192945,-0.26463 -0.2656168,-0.26407 z"
         sodipodi:nodetypes="ccsccc" />
      <path
         style="color:#000000;fill:#fec872;stroke-width:0.803989;stroke-linecap:round;stroke-linejoin:round;-inkscape-stroke:none"
         d="m 2.5800781,253.89062 a 0.2645835,0.2645835 0 0 0 -0.265625,0.26368 v 7.9375 a 0.2645835,0.2645835 0 0 0 0.265625,0.26562 0.2645835,0.2645835 0 0 0 0.2636719,-0.26562 v -7.9375 a 0.2645835,0.2645835 0 0 0 -0.2636719,-0.26368 z"
         id="path12774" />
      <path
         style="color:#000000;fill:#dc1c4b;stroke-width:0.803989;stroke-linecap:round;stroke-linejoin:round;-inkscape-stroke:none"
         d="m 1.984375,262.88672 c -0.4352436,0 -0.7929715,0.35772 -0.7929688,0.79297 v 1.32422 c 2.3e-6,0.72749 0.5947751,1.32226 1.3222657,1.32226 h 1.8515625 c 0.7274905,0 1.3242165,-0.59477 1.3242187,-1.32226 v -1.32422 c 2.8e-6,-0.43525 -0.3596781,-0.79297 -0.7949219,-0.79297 z"
         id="path71446" />
      <path
         style="color:#000000;fill:#f0517a;stroke-width:0.803989;stroke-linecap:round;stroke-linejoin:round;-inkscape-stroke:none"
         d="m 4.6308594,263.94531 a 0.2645835,0.2645835 0 0 0 -0.265625,0.26367 v 0.79493 H 3.8359375 a 0.2645835,0.2645835 0 0 0 -0.2636719,0.26367 0.2645835,0.2645835 0 0 0 0.2636719,0.26367 h 0.5292969 c 0.2891068,0 0.5292895,-0.23823 0.5292968,-0.52734 v -0.79493 a 0.2645835,0.2645835 0 0 0 -0.2636718,-0.26367 z"
         id="path27755" />
      <path
         id="path72620"
         style="color:#000000;fill:#fec872;fill-opacity:1;stroke-width:0.803989;stroke-linecap:round;stroke-linejoin:round;-inkscape-stroke:none"
         d="m 2.4277602,254.37081 0.3317649,-0.0209 0.6800617,-0.62889 0.679545,0.6289 0.3322817,0.0209 1.1249959,-0.79271 c 0.00262,-0.002 0.0052,-0.004 0.00775,-0.006 l 0.00568,-0.004 c 8.674e-4,-6.6e-4 0.00173,-10e-4 0.00259,-0.002 0.096449,-0.079 0.124651,-0.21464 0.067696,-0.32556 l -0.1452107,-0.28164 c -0.3867353,0.30057 -0.7928445,0.57516 -1.192692,0.85783 l -0.7033165,-0.6506 c -0.1013895,-0.0937 -0.2577617,-0.0937 -0.3591512,0 l -0.7033161,0.6506 C 2.1568493,253.53392 1.7531532,253.2574 1.3668416,252.95669 l -0.1462443,0.2837 c -0.058211,0.11301 -0.027834,0.25145 0.072347,0.3297 0.3771617,0.26846 0.7563774,0.53406 1.1348159,0.80072 z"
         sodipodi:nodetypes="ccccccccccccccccccc" />
      <path
         id="path87453"
         style="color:#000000;fill:#4d545c;fill-opacity:1;stroke-width:0.803989;stroke-linecap:round;stroke-linejoin:round;-inkscape-stroke:none"
         d="m 3.4395834,249.73414 c -0.2712471,-0.004 -0.532983,0.16979 -0.6316083,0.42301 -0.028533,0.0632 -0.1109393,0.16194 0.013494,0.11124 0.2902648,-0.0406 0.5992601,0.12401 0.7103852,0.39855 0.1282462,0.24684 0.2548053,0.49456 0.3826203,0.74162 0.1977931,-0.0924 0.3861262,-0.23355 0.4885145,-0.43002 0.06104,-0.20379 -0.2295647,-0.69443 -0.4320404,-0.99293 -0.1259921,-0.15969 -0.3288921,-0.25219 -0.5313653,-0.25147 z"
         sodipodi:nodetypes="cccccccc" />
      <path
         id="path106353"
         style="color:#000000;fill:#b01d47;fill-opacity:1;stroke-width:0.803989;stroke-linecap:round;stroke-linejoin:round;-inkscape-stroke:none"
         d="m 1.984375,262.88683 c -0.3555048,0 -0.6592319,0.23865 -0.7586102,0.56327 1.0162858,-0.0905 2.099491,-0.0341 3.1393435,-0.0341 0.4352438,0 0.7953031,0.35746 0.7953003,0.79271 v 1.32447 c -7e-7,0.228 -0.058864,0.44275 -0.1617473,0.63045 0.4103603,-0.22523 0.6909125,-0.66119 0.6909139,-1.15962 v -1.32446 c 2.8e-6,-0.43525 -0.3600564,-0.79272 -0.7953002,-0.79272 z"
         sodipodi:nodetypes="scccccccss" />
      <path
         id="path109993"
         style="color:#000000;fill:#fee9a9;fill-opacity:1;stroke-width:0.803989;stroke-linecap:round;stroke-linejoin:round;-inkscape-stroke:none"
         d="m 7.95352,249.92276 c -0.043599,-0.003 -0.087274,0.005 -0.1271241,0.0227 -0.081248,0.0356 -0.1392632,0.10951 -0.1545124,0.19689 -0.02087,0.12367 -0.088181,0.23944 -0.1979208,0.31833 0.6563292,0.38069 1.3075663,0.81845 1.9538859,1.23039 0.112477,0.0714 0.1543185,0.21531 0.097669,0.3359 l -0.2883546,0.61701 0.048059,0.0104 c 0.1205234,0.0269 0.2436227,-0.0332 0.2966228,-0.14469 l 0.4728392,-1.01183 c 0.05665,-0.12059 0.01481,-0.26449 -0.097669,-0.3359 l -1.881022,-1.19889 c -0.036876,-0.0233 -0.078949,-0.0372 -0.122473,-0.0403 z"
         sodipodi:nodetypes="cccccccccccccc" />
      <path
         id="path110879"
         style="color:#000000;fill:#fee9a9;fill-opacity:1;stroke-width:0.803989;stroke-linecap:round;stroke-linejoin:round;-inkscape-stroke:none"
         d="m 14.294735,250.97903 c -0.0437,0.003 -0.08596,0.0169 -0.12299,0.0403 l -1.880505,1.19941 c -0.0895,0.0572 -0.136096,0.16243 -0.11834,0.26716 l 1.469678,-0.93741 c 0.07512,-0.0475 0.169078,-0.0541 0.250114,-0.0176 0.08138,0.0357 0.139424,0.10984 0.154513,0.19741 0.113776,0.35955 0.491535,0.43427 0.661975,0.38291 0.176651,-0.0632 0.361098,0.0725 0.353467,0.25993 l -0.08475,1.97508 0.275953,-0.0238 c 0.133501,-0.0112 0.237584,-0.12037 0.242362,-0.25425 l 0.0956,-2.22622 c 0.0076,-0.18745 -0.176812,-0.32309 -0.353467,-0.25994 -0.133043,0.0484 -0.287339,0.0406 -0.422197,-0.0372 -0.134953,-0.0779 -0.216333,-0.20682 -0.239778,-0.34572 -0.01509,-0.0876 -0.07313,-0.16172 -0.154513,-0.1974 -0.03985,-0.0179 -0.08352,-0.0257 -0.127124,-0.0227 z"
         sodipodi:nodetypes="ccccccccccccccccccc" />
      <path
         id="path118405"
         style="color:#000000;fill:#26783f;fill-opacity:1;stroke-width:3.0387;stroke-linecap:round;stroke-linejoin:round;-inkscape-stroke:none"
         d="m 26.501953,-86.929688 v 4 c 4e-6,-3.854135 3.141947,-7.005859 6.996094,-7.005859 h 15.650196 c 3.5069,0 6.349804,2.842904 6.349804,6.349803 v 4.156056 c -0.0022,0.549215 -0.446879,0.993898 -0.996094,0.996094 -3.049402,0 -5.005855,2.357777 -5.005859,5.5 4e-6,3.142262 1.956699,5.501663 5.005859,5.5 0.549215,0.0022 0.993898,0.446879 0.996094,0.996094 v 7.507812 c 0,3.854136 -3.1439,6.998047 -6.998047,6.998047 h 4 c 3.854147,0 6.998047,-3.143911 6.998047,-6.998047 V -66.4375 c -0.0022,-0.549215 -0.446879,-0.993898 -0.996094,-0.996094 -3.04916,0.0017 -5.005855,-2.357738 -5.005859,-5.5 4e-6,-3.142223 1.956457,-5.5 5.005859,-5.5 0.549215,-0.0022 0.993898,-0.446879 0.996094,-0.996094 v -7.5 c 0,-3.733693 -2.950273,-6.807584 -6.638672,-6.996093 -6.418672,-0.02336 -12.917798,-0.0098 -18.066637,-0.0098 -5.556419,-0.226417 -8.290781,3.151741 -8.290785,7.005876 z"
         transform="matrix(0.26458334,0,0,0.26458334,0,280.06666)"
         sodipodi:nodetypes="scccccsccscssccsccccccs" />
      <path
         id="path120744"
         style="color:#000000;fill:#cccccc;fill-opacity:1;stroke-width:3.0387;stroke-linecap:round;stroke-linejoin:round;-inkscape-stroke:none"
         d="m 53.496094,-88.933594 a 1.0000006,1.0000006 0 0 0 -0.617188,0.216797 c 0.538521,0.39224 1.01251,0.865425 1.404297,1.404297 A 1.0000006,1.0000006 0 0 0 54.5,-87.929688 1.0000006,1.0000006 0 0 0 53.496094,-88.933594 Z"
         transform="matrix(0.26458334,0,0,0.26458334,0,280.06666)" />
      <path
         id="path129438"
         style="color:#000000;fill:#cccccc;fill-opacity:1;stroke-width:0.803989;stroke-linecap:round;stroke-linejoin:round;-inkscape-stroke:none"
         d="m 10.451042,257.33006 c -0.355505,0 -0.6592313,0.23865 -0.7586102,0.56328 0.6687982,-0.086 1.3901692,-0.0341 2.0810102,-0.0341 0.435245,0 0.7953,0.35799 0.7953,0.79323 v 4.49792 c -1.31e-4,0.0604 -0.02092,0.11893 -0.05891,0.16588 l -0.713652,0.89039 c 0.07147,-0.006 0.137305,-0.0414 0.182419,-0.0972 l 1.0604,-1.3224 c 0.03799,-0.0469 0.05878,-0.10548 0.05891,-0.16588 v -4.49791 c 0,-0.43524 -0.360055,-0.79324 -0.7953,-0.79324 z"
         sodipodi:nodetypes="cccsccccccscc" />
      <path
         id="path129911"
         style="color:#000000;fill:#b2b2b2;fill-opacity:1;stroke-width:3.0387;stroke-linecap:round;stroke-linejoin:round;-inkscape-stroke:none"
         d="m 45.537788,-60.642186 3.74346,-4.66641 v -0.002 c 0.06395,-0.08212 0.114693,-0.173715 0.150391,-0.271484 0.0063,-0.01612 0.01214,-0.0324 0.01758,-0.04883 0.03393,-0.09811 0.05238,-0.200902 0.05469,-0.304688 v -0.002 -13.994141 -1.005859 -0.994141 h -0.982422 c -0.0072,-7.44e-4 -0.01431,-0.0014 -0.02148,-0.002 l -1.169929,1.45e-4 c 0.112306,0.312687 0.173828,0.648913 0.173828,0.998047 v 17 c -4.93e-4,0.228271 -0.07906,0.449503 -0.222656,0.626953 l -2.666016,3.366369 c 0.265645,0.0038 0.599651,-0.216156 0.922554,-0.699961 z"
         transform="matrix(0.26458334,0,0,0.26458334,0,280.06666)"
         sodipodi:nodetypes="cccccccccccccscccc" />
    </g>
  </g>
</svg>
