<?xml version="1.0" encoding="UTF-8" standalone="no"?>
<svg
   xmlns:dc="http://purl.org/dc/elements/1.1/"
   xmlns:cc="http://creativecommons.org/ns#"
   xmlns:rdf="http://www.w3.org/1999/02/22-rdf-syntax-ns#"
   xmlns:svg="http://www.w3.org/2000/svg"
   xmlns="http://www.w3.org/2000/svg"
   xmlns:sodipodi="http://sodipodi.sourceforge.net/DTD/sodipodi-0.dtd"
   xmlns:inkscape="http://www.inkscape.org/namespaces/inkscape"
   inkscape:export-ydpi="576"
   inkscape:export-xdpi="576"
   inkscape:export-filename="D:\Project Real\DESEMBER\export flat\png\14 - Globe.png"
   width="64pt"
   height="64pt"
   viewBox="0 0 22.577778 22.577778"
   version="1.1"
   id="svg831"
   inkscape:version="1.0 (4035a4fb49, 2020-05-01)"
   sodipodi:docname="16 - Shoes.svg">
  <defs
     id="defs825">
    <pattern
       id="EMFhbasepattern"
       patternUnits="userSpaceOnUse"
       width="6"
       height="6"
       x="0"
       y="0" />
    <pattern
       id="EMFhbasepattern-9"
       patternUnits="userSpaceOnUse"
       width="6"
       height="6"
       x="0"
       y="0" />
    <pattern
       id="EMFhbasepattern-0"
       patternUnits="userSpaceOnUse"
       width="6"
       height="6"
       x="0"
       y="0" />
    <pattern
       id="EMFhbasepattern-7"
       patternUnits="userSpaceOnUse"
       width="6"
       height="6"
       x="0"
       y="0" />
    <pattern
       id="EMFhbasepattern-2"
       patternUnits="userSpaceOnUse"
       width="6"
       height="6"
       x="0"
       y="0" />
    <pattern
       id="EMFhbasepattern-98"
       patternUnits="userSpaceOnUse"
       width="6"
       height="6"
       x="0"
       y="0" />
    <pattern
       id="EMFhbasepattern-6"
       patternUnits="userSpaceOnUse"
       width="6"
       height="6"
       x="0"
       y="0" />
    <pattern
       id="EMFhbasepattern-01"
       patternUnits="userSpaceOnUse"
       width="6"
       height="6"
       x="0"
       y="0" />
    <pattern
       id="EMFhbasepattern-07"
       patternUnits="userSpaceOnUse"
       width="6"
       height="6"
       x="0"
       y="0" />
    <pattern
       id="EMFhbasepattern-8"
       patternUnits="userSpaceOnUse"
       width="6"
       height="6"
       x="0"
       y="0" />
    <pattern
       id="EMFhbasepattern-4"
       patternUnits="userSpaceOnUse"
       width="6"
       height="6"
       x="0"
       y="0" />
    <pattern
       id="EMFhbasepattern-40"
       patternUnits="userSpaceOnUse"
       width="6"
       height="6"
       x="0"
       y="0" />
    <pattern
       id="EMFhbasepattern-08"
       patternUnits="userSpaceOnUse"
       width="6"
       height="6"
       x="0"
       y="0" />
    <pattern
       id="EMFhbasepattern-04"
       patternUnits="userSpaceOnUse"
       width="6"
       height="6"
       x="0"
       y="0" />
    <pattern
       id="EMFhbasepattern-014"
       patternUnits="userSpaceOnUse"
       width="6"
       height="6"
       x="0"
       y="0" />
    <pattern
       id="EMFhbasepattern-27"
       patternUnits="userSpaceOnUse"
       width="6"
       height="6"
       x="0"
       y="0" />
    <pattern
       id="EMFhbasepattern-09"
       patternUnits="userSpaceOnUse"
       width="6"
       height="6"
       x="0"
       y="0" />
    <pattern
       id="EMFhbasepattern-5"
       patternUnits="userSpaceOnUse"
       width="6"
       height="6"
       x="0"
       y="0" />
    <pattern
       id="EMFhbasepattern-018"
       patternUnits="userSpaceOnUse"
       width="6"
       height="6"
       x="0"
       y="0" />
  </defs>
  <sodipodi:namedview
     id="base"
     pagecolor="#ffffff"
     bordercolor="#666666"
     borderopacity="1.0"
     inkscape:pageopacity="0.0"
     inkscape:pageshadow="2"
     inkscape:zoom="6.2578125"
     inkscape:cx="42.666667"
     inkscape:cy="42.666667"
     inkscape:document-units="pt"
     inkscape:current-layer="layer1"
     showgrid="false"
     units="pt"
     inkscape:window-width="1366"
     inkscape:window-height="706"
     inkscape:window-x="-8"
     inkscape:window-y="-8"
     inkscape:window-maximized="1"
     inkscape:pagecheckerboard="true"
     inkscape:showpageshadow="false"
     inkscape:object-paths="true"
     inkscape:snap-intersection-paths="true"
     inkscape:snap-smooth-nodes="true"
     inkscape:snap-midpoints="true"
     showguides="true"
     inkscape:snap-bbox="true"
     inkscape:bbox-nodes="true"
     inkscape:snap-nodes="false"
     inkscape:snap-global="true"
     inkscape:document-rotation="0">
    <inkscape:grid
       type="xygrid"
       id="grid1378" />
    <sodipodi:guide
       position="0.97013831,21.607643"
       orientation="78.000048,0"
       id="guide1380"
       inkscape:locked="false" />
    <sodipodi:guide
       position="0.97013831,0.97013129"
       orientation="0,78.000005"
       id="guide1382"
       inkscape:locked="false" />
    <sodipodi:guide
       position="21.607639,0.97013129"
       orientation="-78.000048,0"
       id="guide1384"
       inkscape:locked="false" />
    <sodipodi:guide
       position="21.607639,21.607643"
       orientation="0,-78.000005"
       id="guide1386"
       inkscape:locked="false" />
  </sodipodi:namedview>
  <metadata
     id="metadata828">
    <rdf:RDF>
      <cc:Work
         rdf:about="">
        <dc:format>image/svg+xml</dc:format>
        <dc:type
           rdf:resource="http://purl.org/dc/dcmitype/StillImage" />
        <dc:title></dc:title>
      </cc:Work>
    </rdf:RDF>
  </metadata>
  <g
     inkscape:label="Icon"
     inkscape:groupmode="layer"
     id="layer1"
     transform="translate(0,-274.42223)">
    <g
       transform="matrix(1.2639129,0,0,1.2639129,0.58750852,-78.972074)"
       style="display:inline;stroke-width:0.791194"
       id="g1609">
      <path
         style="color:#000000;font-style:normal;font-variant:normal;font-weight:normal;font-stretch:normal;font-size:medium;line-height:normal;font-family:sans-serif;font-variant-ligatures:normal;font-variant-position:normal;font-variant-caps:normal;font-variant-numeric:normal;font-variant-alternates:normal;font-variant-east-asian:normal;font-feature-settings:normal;font-variation-settings:normal;text-indent:0;text-align:start;text-decoration:none;text-decoration-line:none;text-decoration-style:solid;text-decoration-color:#000000;letter-spacing:normal;word-spacing:normal;text-transform:none;writing-mode:lr-tb;direction:ltr;text-orientation:mixed;dominant-baseline:auto;baseline-shift:baseline;text-anchor:start;white-space:normal;shape-padding:0;shape-margin:0;inline-size:0;clip-rule:nonzero;display:inline;overflow:visible;visibility:visible;isolation:auto;mix-blend-mode:normal;color-interpolation:sRGB;color-interpolation-filters:linearRGB;solid-color:#000000;solid-opacity:1;vector-effect:none;fill:#dc1c4b;fill-opacity:1;fill-rule:nonzero;stroke:none;stroke-width:0.418674;stroke-linecap:round;stroke-linejoin:round;stroke-miterlimit:1.5;stroke-dasharray:none;stroke-dashoffset:0;stroke-opacity:1;color-rendering:auto;image-rendering:auto;shape-rendering:auto;text-rendering:auto;enable-background:accumulate;stop-color:#000000"
         d="m 8.0253906,287.26172 0.00977,-0.004 0.00391,-0.004 z"
         id="path1509" />
      <path
         style="color:#000000;font-style:normal;font-variant:normal;font-weight:normal;font-stretch:normal;font-size:medium;line-height:normal;font-family:sans-serif;font-variant-ligatures:normal;font-variant-position:normal;font-variant-caps:normal;font-variant-numeric:normal;font-variant-alternates:normal;font-variant-east-asian:normal;font-feature-settings:normal;font-variation-settings:normal;text-indent:0;text-align:start;text-decoration:none;text-decoration-line:none;text-decoration-style:solid;text-decoration-color:#000000;letter-spacing:normal;word-spacing:normal;text-transform:none;writing-mode:lr-tb;direction:ltr;text-orientation:mixed;dominant-baseline:auto;baseline-shift:baseline;text-anchor:start;white-space:normal;shape-padding:0;shape-margin:0;inline-size:0;clip-rule:nonzero;display:inline;overflow:visible;visibility:visible;isolation:auto;mix-blend-mode:normal;color-interpolation:sRGB;color-interpolation-filters:linearRGB;solid-color:#000000;solid-opacity:1;vector-effect:none;fill:#dc1c4b;fill-opacity:1;fill-rule:nonzero;stroke:none;stroke-width:0.418674;stroke-linecap:round;stroke-linejoin:round;stroke-miterlimit:1.5;stroke-dasharray:none;stroke-dashoffset:0;stroke-opacity:1;color-rendering:auto;image-rendering:auto;shape-rendering:auto;text-rendering:auto;enable-background:accumulate;stop-color:#000000"
         d="m 9.9257812,287.08398 c -0.6242781,-0.25457 -1.3345373,-0.18878 -1.9003906,0.17774 l -5.2011718,2.77539 a 0.26460996,0.26460996 0 0 0 -0.140625,0.23242 v 1.85352 a 0.26460996,0.26460996 0 0 0 0.265625,0.26367 h 4.2324218 3.4394534 4.332031 c 0.630296,0.0429 1.132115,-0.29705 1.419922,-0.83008 0.134769,-0.21744 0.220354,-0.45753 0.25,-0.70703 0.04903,-0.41268 -0.142847,-0.82659 -0.353516,-1.10742 -0.180736,-0.24093 -0.443735,-0.4051 -0.677734,-0.5293 -0.116999,-0.0621 -0.227441,-0.11132 -0.318359,-0.14844 -0.09092,-0.0371 -0.147539,-0.0587 -0.21875,-0.0742 -0.494905,-0.10767 -1.04449,-0.22705 -1.373047,-0.28125 a 0.26460996,0.26460996 0 0 0 -0.01172,-0.002 c -1.285925,-0.15345 -2.402796,-0.85407 -3.7109376,-1.60742 a 0.26460996,0.26460996 0 0 0 -0.033202,-0.0156 z"
         id="path1499" />
      <path
         id="path1384"
         style="color:#000000;font-style:normal;font-variant:normal;font-weight:normal;font-stretch:normal;font-size:medium;line-height:normal;font-family:sans-serif;font-variant-ligatures:normal;font-variant-position:normal;font-variant-caps:normal;font-variant-numeric:normal;font-variant-alternates:normal;font-variant-east-asian:normal;font-feature-settings:normal;font-variation-settings:normal;text-indent:0;text-align:start;text-decoration:none;text-decoration-line:none;text-decoration-style:solid;text-decoration-color:#000000;letter-spacing:normal;word-spacing:normal;text-transform:none;writing-mode:lr-tb;direction:ltr;text-orientation:mixed;dominant-baseline:auto;baseline-shift:baseline;text-anchor:start;white-space:normal;shape-padding:0;shape-margin:0;inline-size:0;clip-rule:nonzero;display:inline;overflow:visible;visibility:visible;isolation:auto;mix-blend-mode:normal;color-interpolation:sRGB;color-interpolation-filters:linearRGB;solid-color:#000000;solid-opacity:1;vector-effect:none;fill:#d0e2ee;fill-opacity:1;fill-rule:nonzero;stroke:none;stroke-width:1.58239;stroke-linecap:round;stroke-linejoin:round;stroke-miterlimit:1.5;stroke-dasharray:none;stroke-dashoffset:0;stroke-opacity:1;color-rendering:auto;image-rendering:auto;shape-rendering:auto;text-rendering:auto;enable-background:accumulate;stop-color:#000000"
         d="m 39.796875,27.822266 -2.503906,4.28125 a 1.0000006,1.0000006 0 0 0 0.355469,1.365234 1.0000006,1.0000006 0 0 0 1.373046,-0.355469 l 2.513672,-4.296875 c -0.566287,-0.316634 -1.159078,-0.659921 -1.738281,-0.99414 z"
         transform="matrix(0.26458334,0,0,0.26458334,0,280.06666)" />
      <path
         sodipodi:nodetypes="sccccsccs"
         id="path1483"
         style="color:#000000;font-style:normal;font-variant:normal;font-weight:normal;font-stretch:normal;font-size:medium;line-height:normal;font-family:sans-serif;font-variant-ligatures:normal;font-variant-position:normal;font-variant-caps:normal;font-variant-numeric:normal;font-variant-alternates:normal;font-variant-east-asian:normal;font-feature-settings:normal;font-variation-settings:normal;text-indent:0;text-align:start;text-decoration:none;text-decoration-line:none;text-decoration-style:solid;text-decoration-color:#000000;letter-spacing:normal;word-spacing:normal;text-transform:none;writing-mode:lr-tb;direction:ltr;text-orientation:mixed;dominant-baseline:auto;baseline-shift:baseline;text-anchor:start;white-space:normal;shape-padding:0;shape-margin:0;inline-size:0;clip-rule:nonzero;display:inline;overflow:visible;visibility:visible;isolation:auto;mix-blend-mode:normal;color-interpolation:sRGB;color-interpolation-filters:linearRGB;solid-color:#000000;solid-opacity:1;vector-effect:none;fill:#a8c2e1;fill-opacity:1;fill-rule:nonzero;stroke:none;stroke-width:1.58239;stroke-linecap:round;stroke-linejoin:round;stroke-miterlimit:1.5;stroke-dasharray:none;stroke-dashoffset:0;stroke-opacity:1;color-rendering:auto;image-rendering:auto;shape-rendering:auto;text-rendering:auto;enable-background:accumulate;stop-color:#000000"
         d="m 50.558592,36.54692 c -1.023746,1.468989 -1.33773,3.217733 -1.417969,4.96875 -0.02759,0.572561 0.430703,1.049747 1.003906,1.046875 l 12.1875,-0.01367 c 0.24855,-0.574222 0.42254,-1.175891 0.496094,-1.794922 0.18531,-1.559735 -0.541661,-3.124142 -1.337891,-4.185547 -0.683096,-0.910601 -1.676141,-1.530582 -2.560546,-2 -0.948473,-0.520677 -1.893414,-0.77624 -2.947755,-1.016598 -2.675253,0.454339 -4.399594,1.526123 -5.423339,2.995112 z"
         transform="matrix(0.26458334,0,0,0.26458334,0,280.06666)" />
      <path
         sodipodi:nodetypes="cccccc"
         id="path1390"
         style="color:#000000;font-style:normal;font-variant:normal;font-weight:normal;font-stretch:normal;font-size:medium;line-height:normal;font-family:sans-serif;font-variant-ligatures:normal;font-variant-position:normal;font-variant-caps:normal;font-variant-numeric:normal;font-variant-alternates:normal;font-variant-east-asian:normal;font-feature-settings:normal;font-variation-settings:normal;text-indent:0;text-align:start;text-decoration:none;text-decoration-line:none;text-decoration-style:solid;text-decoration-color:#000000;letter-spacing:normal;word-spacing:normal;text-transform:none;writing-mode:lr-tb;direction:ltr;text-orientation:mixed;dominant-baseline:auto;baseline-shift:baseline;text-anchor:start;white-space:normal;shape-padding:0;shape-margin:0;inline-size:0;clip-rule:nonzero;display:inline;overflow:visible;visibility:visible;isolation:auto;mix-blend-mode:normal;color-interpolation:sRGB;color-interpolation-filters:linearRGB;solid-color:#000000;solid-opacity:1;vector-effect:none;fill:#d0e2ee;fill-opacity:1;fill-rule:nonzero;stroke:none;stroke-width:1.58239;stroke-linecap:round;stroke-linejoin:round;stroke-miterlimit:1.5;stroke-dasharray:none;stroke-dashoffset:0;stroke-opacity:1;color-rendering:auto;image-rendering:auto;shape-rendering:auto;text-rendering:auto;enable-background:accumulate;stop-color:#000000"
         d="m 43.615234,29.929688 -3.037109,4.535156 c -0.308429,0.458885 -0.185937,1.080972 0.273437,1.388672 0.458506,0.307095 1.079109,0.184723 1.386719,-0.273438 1.043421,-1.588907 2.181981,-3.193008 3.171875,-4.789062 -0.59677,-0.268929 -1.196134,-0.55438 -1.794922,-0.861328 z"
         transform="matrix(0.26458334,0,0,0.26458334,0,280.06666)" />
      <path
         sodipodi:nodetypes="cccccc"
         id="path1396"
         style="color:#000000;font-style:normal;font-variant:normal;font-weight:normal;font-stretch:normal;font-size:medium;line-height:normal;font-family:sans-serif;font-variant-ligatures:normal;font-variant-position:normal;font-variant-caps:normal;font-variant-numeric:normal;font-variant-alternates:normal;font-variant-east-asian:normal;font-feature-settings:normal;font-variation-settings:normal;text-indent:0;text-align:start;text-decoration:none;text-decoration-line:none;text-decoration-style:solid;text-decoration-color:#000000;letter-spacing:normal;word-spacing:normal;text-transform:none;writing-mode:lr-tb;direction:ltr;text-orientation:mixed;dominant-baseline:auto;baseline-shift:baseline;text-anchor:start;white-space:normal;shape-padding:0;shape-margin:0;inline-size:0;clip-rule:nonzero;display:inline;overflow:visible;visibility:visible;isolation:auto;mix-blend-mode:normal;color-interpolation:sRGB;color-interpolation-filters:linearRGB;solid-color:#000000;solid-opacity:1;vector-effect:none;fill:#d0e2ee;fill-opacity:1;fill-rule:nonzero;stroke:none;stroke-width:1.58239;stroke-linecap:round;stroke-linejoin:round;stroke-miterlimit:1.5;stroke-dasharray:none;stroke-dashoffset:0;stroke-opacity:1;color-rendering:auto;image-rendering:auto;shape-rendering:auto;text-rendering:auto;enable-background:accumulate;stop-color:#000000"
         d="m 47.251953,31.544922 -2.097656,3.4375 c -0.286805,0.470948 -0.138271,1.085183 0.332031,1.373047 0.4726,0.292152 1.09274,0.143038 1.38086,-0.332031 0.759618,-1.263058 1.649673,-2.594236 2.257812,-3.882813 -0.629789,-0.169414 -1.254307,-0.367902 -1.873047,-0.595703 z"
         transform="matrix(0.26458334,0,0,0.26458334,0,280.06666)" />
      <path
         style="color:#000000;font-style:normal;font-variant:normal;font-weight:normal;font-stretch:normal;font-size:medium;line-height:normal;font-family:sans-serif;font-variant-ligatures:normal;font-variant-position:normal;font-variant-caps:normal;font-variant-numeric:normal;font-variant-alternates:normal;font-variant-east-asian:normal;font-feature-settings:normal;font-variation-settings:normal;text-indent:0;text-align:start;text-decoration:none;text-decoration-line:none;text-decoration-style:solid;text-decoration-color:#000000;letter-spacing:normal;word-spacing:normal;text-transform:none;writing-mode:lr-tb;direction:ltr;text-orientation:mixed;dominant-baseline:auto;baseline-shift:baseline;text-anchor:start;white-space:normal;shape-padding:0;shape-margin:0;inline-size:0;clip-rule:nonzero;display:inline;overflow:visible;visibility:visible;isolation:auto;mix-blend-mode:normal;color-interpolation:sRGB;color-interpolation-filters:linearRGB;solid-color:#000000;solid-opacity:1;vector-effect:none;fill:#b01d47;fill-opacity:1;fill-rule:nonzero;stroke:none;stroke-width:0.418674;stroke-linecap:round;stroke-linejoin:round;stroke-miterlimit:1.5;stroke-dasharray:none;stroke-dashoffset:0;stroke-opacity:1;color-rendering:auto;image-rendering:auto;shape-rendering:auto;text-rendering:auto;enable-background:accumulate;stop-color:#000000"
         d="m 10.621057,292.38684 h 0.789099 c 0.305317,-0.30782 0.627817,-0.66029 0.800985,-1.16634 0.04784,-0.13979 0.07311,-0.27956 0.08188,-0.41709 0.01578,-0.24754 -0.02191,-0.48783 -0.07778,-0.7079 -0.08756,-0.34527 -0.235103,-0.68694 -0.484724,-0.96325 -0.325075,-0.35984 -0.744083,-0.63974 -1.226282,-0.80047 -0.391312,-0.1304 -0.6834187,-0.20138 -0.7560267,-0.23823 -0.5169467,-0.44575 -0.8882569,-0.7761 -1.2128454,-1.06712 0,0 -0.3501109,0.13153 -0.5100479,0.23513"
         id="path1574"
         sodipodi:nodetypes="cccscccccc" />
      <path
         sodipodi:nodetypes="ccccccccccscccccccscccscccc"
         style="color:#000000;font-style:normal;font-variant:normal;font-weight:normal;font-stretch:normal;font-size:medium;line-height:normal;font-family:sans-serif;font-variant-ligatures:normal;font-variant-position:normal;font-variant-caps:normal;font-variant-numeric:normal;font-variant-alternates:normal;font-variant-east-asian:normal;font-feature-settings:normal;font-variation-settings:normal;text-indent:0;text-align:start;text-decoration:none;text-decoration-line:none;text-decoration-style:solid;text-decoration-color:#000000;letter-spacing:normal;word-spacing:normal;text-transform:none;writing-mode:lr-tb;direction:ltr;text-orientation:mixed;dominant-baseline:auto;baseline-shift:baseline;text-anchor:start;white-space:normal;shape-padding:0;shape-margin:0;inline-size:0;clip-rule:nonzero;display:inline;overflow:visible;visibility:visible;isolation:auto;mix-blend-mode:normal;color-interpolation:sRGB;color-interpolation-filters:linearRGB;solid-color:#000000;solid-opacity:1;vector-effect:none;fill:#dc1c4b;fill-opacity:1;fill-rule:nonzero;stroke:none;stroke-width:0.418674;stroke-linecap:round;stroke-linejoin:round;stroke-miterlimit:1.5;stroke-dasharray:none;stroke-dashoffset:0;stroke-opacity:1;color-rendering:auto;image-rendering:auto;shape-rendering:auto;text-rendering:auto;enable-background:accumulate;stop-color:#000000"
         d="m 0.3105465,289.15056 c -0.0295365,0.12345 0.032752,0.25049 0.1484375,0.30273 l 6.4882812,2.91016 c 0.034374,0.0155 0.071666,0.0235 0.109375,0.0234 h 3.6816408 c 0.0704,-5e-5 0.137878,-0.0282 0.1875,-0.0781 v -0.002 c 2.77e-4,-2.8e-4 0.0017,2.8e-4 0.002,0 0.0013,-0.001 0.0026,-0.003 0.0039,-0.004 0.01366,-0.0155 0.02546,-0.0326 0.03516,-0.0508 0.344999,-0.34521 0.689492,-0.68474 0.853515,-1.16406 0.09624,-0.28123 0.06977,-0.59242 -0.0059,-0.89062 -0.07563,-0.29821 -0.202937,-0.57936 -0.390625,-0.78711 -0.278611,-0.30841 -0.637819,-0.54985 -1.050781,-0.6875 -0.368568,-0.12282 -0.6680327,-0.17114 -0.851563,-0.27735 -1.1418891,-0.96632 -2.4148106,-2.25198 -3.5039063,-2.92969 -0.3526721,-0.21838 -0.7573018,-0.13796 -1.0351562,-0.082 -0.1581778,0.0318 -0.3590512,0.0442 -0.5429688,0.0391 -0.3625847,-0.0171 -0.5560927,-0.13195 -0.6908603,-0.3431 -0.050837,-0.0797 -0.093316,-0.17299 -0.1333584,-0.27995 -0.038707,-0.10345 -0.1375956,-0.17197 -0.2480469,-0.17188 l -0.8906276,0.004 c -0.1104419,-0.0295 -0.262187,0.0268 -0.3554687,0.0977 -0.093282,0.0709 -0.1620053,0.15399 -0.2382813,0.25195 -0.2044624,0.26257 -0.4200846,0.6651 -0.5371094,0.96484 l -0.72363298,1.85354 z"
         id="path1442" />
      <path
         sodipodi:nodetypes="ccccsscccccsscc"
         id="path1568"
         style="color:#000000;font-style:normal;font-variant:normal;font-weight:normal;font-stretch:normal;font-size:medium;line-height:normal;font-family:sans-serif;font-variant-ligatures:normal;font-variant-position:normal;font-variant-caps:normal;font-variant-numeric:normal;font-variant-alternates:normal;font-variant-east-asian:normal;font-feature-settings:normal;font-variation-settings:normal;text-indent:0;text-align:start;text-decoration:none;text-decoration-line:none;text-decoration-style:solid;text-decoration-color:#000000;letter-spacing:normal;word-spacing:normal;text-transform:none;writing-mode:lr-tb;direction:ltr;text-orientation:mixed;dominant-baseline:auto;baseline-shift:baseline;text-anchor:start;white-space:normal;shape-padding:0;shape-margin:0;inline-size:0;clip-rule:nonzero;display:inline;overflow:visible;visibility:visible;isolation:auto;mix-blend-mode:normal;color-interpolation:sRGB;color-interpolation-filters:linearRGB;solid-color:#000000;solid-opacity:1;vector-effect:none;fill:#91a9d9;fill-opacity:1;fill-rule:nonzero;stroke:none;stroke-width:0.418674;stroke-linecap:round;stroke-linejoin:round;stroke-miterlimit:1.5;stroke-dasharray:none;stroke-dashoffset:0;stroke-opacity:1;color-rendering:auto;image-rendering:auto;shape-rendering:auto;text-rendering:auto;enable-background:accumulate;stop-color:#000000"
         d="m 14.769638,288.94559 c -0.0823,0.0147 -0.161248,0.0321 -0.237195,0.0517 0.02339,0.007 0.04626,0.0127 0.06976,0.0191 0.162125,0.0449 0.322618,0.13003 0.460437,0.19642 0.233999,0.1242 0.496743,0.28823 0.677478,0.52916 0.21067,0.28083 0.403013,0.69475 0.353984,1.10743 -0.01946,0.16378 -0.0655,0.32297 -0.131259,0.4749 l -2.698543,0.004 c 0.0011,10e-6 0.002,5.2e-4 0.0031,5.2e-4 l 3.224609,-0.004 c 0.06576,-0.15193 0.111797,-0.31112 0.131258,-0.4749 0.04903,-0.41268 -0.143313,-0.8266 -0.353983,-1.10743 -0.180735,-0.24093 -0.443479,-0.40496 -0.677478,-0.52916 -0.116999,-0.0621 -0.227409,-0.1112 -0.318327,-0.14832 -0.153975,-0.0662 -0.328455,-0.11866 -0.503841,-0.11942 z" />
      <path
         style="color:#000000;font-style:normal;font-variant:normal;font-weight:normal;font-stretch:normal;font-size:medium;line-height:normal;font-family:sans-serif;font-variant-ligatures:normal;font-variant-position:normal;font-variant-caps:normal;font-variant-numeric:normal;font-variant-alternates:normal;font-variant-east-asian:normal;font-feature-settings:normal;font-variation-settings:normal;text-indent:0;text-align:start;text-decoration:none;text-decoration-line:none;text-decoration-style:solid;text-decoration-color:#000000;letter-spacing:normal;word-spacing:normal;text-transform:none;writing-mode:lr-tb;direction:ltr;text-orientation:mixed;dominant-baseline:auto;baseline-shift:baseline;text-anchor:start;white-space:normal;shape-padding:0;shape-margin:0;inline-size:0;clip-rule:nonzero;display:inline;overflow:visible;visibility:visible;isolation:auto;mix-blend-mode:normal;color-interpolation:sRGB;color-interpolation-filters:linearRGB;solid-color:#000000;solid-opacity:1;vector-effect:none;fill:#d0e2ee;fill-opacity:1;fill-rule:nonzero;stroke:none;stroke-width:0.418674;stroke-linecap:round;stroke-linejoin:round;stroke-miterlimit:1.5;stroke-dasharray:none;stroke-dashoffset:0;stroke-opacity:1;color-rendering:auto;image-rendering:auto;shape-rendering:auto;text-rendering:auto;enable-background:accumulate;stop-color:#000000"
         d="m 4.3476562,289.25 a 0.26460996,0.26460996 0 0 0 -0.109375,0.0312 l -1.4160156,0.76563 a 0.26460996,0.26460996 0 0 0 -0.1386718,0.23242 v 1.84179 a 0.26460996,0.26460996 0 0 0 0.265625,0.26563 H 14.970703 l -0.03516,-0.002 c 0.493459,0.0661 0.896388,-0.1577 1.15625,-0.43165 0.259861,-0.27394 0.405285,-0.59383 0.474609,-0.81445 a 0.26460996,0.26460996 0 0 0 -0.251953,-0.34375 l -4.900391,0.004 H 7.8320312 l -3.359375,-1.52539 a 0.26460996,0.26460996 0 0 0 -0.125,-0.0234 z"
         id="path1518" />
      <path
         style="color:#000000;font-style:normal;font-variant:normal;font-weight:normal;font-stretch:normal;font-size:medium;line-height:normal;font-family:sans-serif;font-variant-ligatures:normal;font-variant-position:normal;font-variant-caps:normal;font-variant-numeric:normal;font-variant-alternates:normal;font-variant-east-asian:normal;font-feature-settings:normal;font-variation-settings:normal;text-indent:0;text-align:start;text-decoration:none;text-decoration-line:none;text-decoration-style:solid;text-decoration-color:#000000;letter-spacing:normal;word-spacing:normal;text-transform:none;writing-mode:lr-tb;direction:ltr;text-orientation:mixed;dominant-baseline:auto;baseline-shift:baseline;text-anchor:start;white-space:normal;shape-padding:0;shape-margin:0;inline-size:0;clip-rule:nonzero;display:inline;overflow:visible;visibility:visible;isolation:auto;mix-blend-mode:normal;color-interpolation:sRGB;color-interpolation-filters:linearRGB;solid-color:#000000;solid-opacity:1;vector-effect:none;fill:#a8c2e1;fill-opacity:1;fill-rule:nonzero;stroke:none;stroke-width:0.418674;stroke-linecap:round;stroke-linejoin:round;stroke-miterlimit:1.5;stroke-dasharray:none;stroke-dashoffset:0;stroke-opacity:1;color-rendering:auto;image-rendering:auto;shape-rendering:auto;text-rendering:auto;enable-background:accumulate;stop-color:#000000"
         d="m 10.216797,288.68359 c -0.7023644,-0.0199 -1.6538994,0.19741 -2.1796876,1.19336 -0.1798084,0.33371 -0.2841631,0.71766 -0.2207032,1.22071 a 0.26460996,0.26460996 0 0 0 0.2636719,0.23046 h 3.4667969 a 0.26460996,0.26460996 0 0 0 0.25,-0.17773 c 0.17294,-0.49418 0.04024,-0.95909 -0.126953,-1.35742 a 0.26460996,0.26460996 0 0 0 -0.0059,-0.0117 c -0.279583,-0.57719 -0.85847,-0.9247 -1.376953,-1.08594 a 0.26460996,0.26460996 0 0 0 -0.07031,-0.0117 z"
         id="path1458" />
      <path
         id="path1563"
         style="color:#000000;font-style:normal;font-variant:normal;font-weight:normal;font-stretch:normal;font-size:medium;line-height:normal;font-family:sans-serif;font-variant-ligatures:normal;font-variant-position:normal;font-variant-caps:normal;font-variant-numeric:normal;font-variant-alternates:normal;font-variant-east-asian:normal;font-feature-settings:normal;font-variation-settings:normal;text-indent:0;text-align:start;text-decoration:none;text-decoration-line:none;text-decoration-style:solid;text-decoration-color:#000000;letter-spacing:normal;word-spacing:normal;text-transform:none;writing-mode:lr-tb;direction:ltr;text-orientation:mixed;dominant-baseline:auto;baseline-shift:baseline;text-anchor:start;white-space:normal;shape-padding:0;shape-margin:0;inline-size:0;clip-rule:nonzero;display:inline;overflow:visible;visibility:visible;isolation:auto;mix-blend-mode:normal;color-interpolation:sRGB;color-interpolation-filters:linearRGB;solid-color:#000000;solid-opacity:1;vector-effect:none;fill:#91a9d9;fill-opacity:1;fill-rule:nonzero;stroke:none;stroke-width:0.418674;stroke-linecap:round;stroke-linejoin:round;stroke-miterlimit:1.5;stroke-dasharray:none;stroke-dashoffset:0;stroke-opacity:1;color-rendering:auto;image-rendering:auto;shape-rendering:auto;text-rendering:auto;enable-background:accumulate;stop-color:#000000"
         d="m 10.216948,288.68374 c -0.134515,-0.004 -0.2798293,0.005 -0.4278812,0.0222 0.5104562,0.16527 1.0715852,0.50958 1.3456542,1.07538 a 0.26460996,0.26460996 0 0 1 0.0062,0.0114 c 0.167193,0.39833 0.299548,0.86336 0.126608,1.35754 a 0.26460996,0.26460996 0 0 1 -0.249598,0.17777 h 0.529167 a 0.26460996,0.26460996 0 0 0 0.249597,-0.17777 c 0.17294,-0.49418 0.04059,-0.95921 -0.126607,-1.35754 a 0.26460996,0.26460996 0 0 0 -0.0062,-0.0114 c -0.279583,-0.57719 -0.858177,-0.925 -1.37666,-1.08624 a 0.26460996,0.26460996 0 0 0 -0.07028,-0.0114 z" />
      <path
         style="color:#000000;font-style:normal;font-variant:normal;font-weight:normal;font-stretch:normal;font-size:medium;line-height:normal;font-family:sans-serif;font-variant-ligatures:normal;font-variant-position:normal;font-variant-caps:normal;font-variant-numeric:normal;font-variant-alternates:normal;font-variant-east-asian:normal;font-feature-settings:normal;font-variation-settings:normal;text-indent:0;text-align:start;text-decoration:none;text-decoration-line:none;text-decoration-style:solid;text-decoration-color:#000000;letter-spacing:normal;word-spacing:normal;text-transform:none;writing-mode:lr-tb;direction:ltr;text-orientation:mixed;dominant-baseline:auto;baseline-shift:baseline;text-anchor:start;white-space:normal;shape-padding:0;shape-margin:0;inline-size:0;clip-rule:nonzero;display:inline;overflow:visible;visibility:visible;isolation:auto;mix-blend-mode:normal;color-interpolation:sRGB;color-interpolation-filters:linearRGB;solid-color:#000000;solid-opacity:1;vector-effect:none;fill:#a8c2e1;fill-opacity:1;fill-rule:nonzero;stroke:none;stroke-width:1.58239;stroke-linecap:round;stroke-linejoin:round;stroke-miterlimit:1.5;stroke-dasharray:none;stroke-dashoffset:0;stroke-opacity:1;color-rendering:auto;image-rendering:auto;shape-rendering:auto;text-rendering:auto;enable-background:accumulate;stop-color:#000000"
         d="m 10.673828,37.683594 c -0.32547,0.172735 -0.529595,0.510442 -0.53125,0.878906 v 2.396484 l 12.494141,5.605469 h 4.505859"
         transform="matrix(0.26458334,0,0,0.26458334,0,280.06666)"
         id="path1585" />
      <path
         id="path1424"
         style="color:#000000;font-style:normal;font-variant:normal;font-weight:normal;font-stretch:normal;font-size:medium;line-height:normal;font-family:sans-serif;font-variant-ligatures:normal;font-variant-position:normal;font-variant-caps:normal;font-variant-numeric:normal;font-variant-alternates:normal;font-variant-east-asian:normal;font-feature-settings:normal;font-variation-settings:normal;text-indent:0;text-align:start;text-decoration:none;text-decoration-line:none;text-decoration-style:solid;text-decoration-color:#000000;letter-spacing:normal;word-spacing:normal;text-transform:none;writing-mode:lr-tb;direction:ltr;text-orientation:mixed;dominant-baseline:auto;baseline-shift:baseline;text-anchor:start;white-space:normal;shape-padding:0;shape-margin:0;inline-size:0;clip-rule:nonzero;display:inline;overflow:visible;visibility:visible;isolation:auto;mix-blend-mode:normal;color-interpolation:sRGB;color-interpolation-filters:linearRGB;solid-color:#000000;solid-opacity:1;vector-effect:none;fill:#d0e2ee;fill-opacity:1;fill-rule:nonzero;stroke:none;stroke-width:0.418674;stroke-linecap:round;stroke-linejoin:round;stroke-miterlimit:1.5;stroke-dasharray:none;stroke-dashoffset:0;stroke-opacity:1;color-rendering:auto;image-rendering:auto;shape-rendering:auto;text-rendering:auto;enable-background:accumulate;stop-color:#000000"
         d="m 10.955157,292.2398 c 0.172407,-0.17251 0.356369,-0.33188 0.506064,-0.51971 8.6e-5,-1.1e-4 -8.6e-5,-4.1e-4 0,-5.2e-4 0.149655,-0.18783 0.277134,-0.39254 0.359151,-0.632 5.5e-5,-1.6e-4 -5.4e-5,-3.6e-4 0,-5.2e-4 0.01898,-0.0555 0.02928,-0.11256 0.03927,-0.17001 0.006,-0.0392 0.0114,-0.0785 0.01447,-0.11834 H 7.8300132 l -7.10137547,-3.22707 -0.1018026,0.26045 c -0.004076,0.0115 -0.007357,0.0232 -0.00982,0.0351 l -0.30644127,1.28312 c -0.007095,0.0297 -0.008653,0.0594 -0.005684,0.0884 v 0.001 c 3.2163e-4,0.002 6.6585e-4,0.004 0.001034,0.006 0.003683,0.0286 0.0118409,0.0565 0.0242879,0.0822 7.202e-5,1.5e-4 -7.234e-5,3.7e-4 0,5.2e-4 1.7814e-4,3.7e-4 3.3692e-4,7e-4 5.1676e-4,0.001 1.0678e-4,2.2e-4 4.0939e-4,3e-4 5.1675e-4,5.2e-4 0.012932,0.026 0.0302359,0.0496 0.0511597,0.0703 2.7437e-4,2.7e-4 2.4112e-4,7.6e-4 5.1676e-4,10e-4 2.6879e-4,2.6e-4 7.6359e-4,2.6e-4 0.001034,5.2e-4 0.0207601,0.0202 0.0449484,0.0373 0.072347,0.0501 8.5958e-4,3.4e-4 0.001721,6.7e-4 0.002584,10e-4 l 6.48849287,2.91041 c 0.033097,0.015 0.068648,0.0227 0.1049033,0.0233 0.00138,10e-6 0.00275,10e-6 0.00413,0 h 3.6819501 z"
         sodipodi:nodetypes="cscscccccccccccssccsccccccccc" />
      <path
         id="path1333"
         style="color:#000000;font-style:normal;font-variant:normal;font-weight:normal;font-stretch:normal;font-size:medium;line-height:normal;font-family:sans-serif;font-variant-ligatures:normal;font-variant-position:normal;font-variant-caps:normal;font-variant-numeric:normal;font-variant-alternates:normal;font-variant-east-asian:normal;font-feature-settings:normal;font-variation-settings:normal;text-indent:0;text-align:start;text-decoration:none;text-decoration-line:none;text-decoration-style:solid;text-decoration-color:#000000;letter-spacing:normal;word-spacing:normal;text-transform:none;writing-mode:lr-tb;direction:ltr;text-orientation:mixed;dominant-baseline:auto;baseline-shift:baseline;text-anchor:start;white-space:normal;shape-padding:0;shape-margin:0;inline-size:0;clip-rule:nonzero;display:inline;overflow:visible;visibility:visible;isolation:auto;mix-blend-mode:normal;color-interpolation:sRGB;color-interpolation-filters:linearRGB;solid-color:#000000;solid-opacity:1;vector-effect:none;fill:#d0e2ee;fill-opacity:1;fill-rule:nonzero;stroke:none;stroke-width:1.58239;stroke-linecap:round;stroke-linejoin:round;stroke-miterlimit:1.5;stroke-dasharray:none;stroke-dashoffset:0;stroke-opacity:1;color-rendering:auto;image-rendering:auto;shape-rendering:auto;text-rendering:auto;enable-background:accumulate;stop-color:#000000"
         d="m 23.945312,21.363281 -6.140624,5.253907 a 1.0000006,1.0000006 0 0 0 -0.109376,1.410156 1.0000006,1.0000006 0 0 0 1.408204,0.111328 l 6.291015,-5.38086 a 1.0000006,1.0000006 0 0 0 0.197266,-0.234374 c -0.489195,-0.373081 -1.031949,-0.755515 -1.646485,-1.160157 z"
         transform="matrix(0.26458334,0,0,0.26458334,0,280.06666)" />
      <path
         id="path1342"
         style="color:#000000;font-style:normal;font-variant:normal;font-weight:normal;font-stretch:normal;font-size:medium;line-height:normal;font-family:sans-serif;font-variant-ligatures:normal;font-variant-position:normal;font-variant-caps:normal;font-variant-numeric:normal;font-variant-alternates:normal;font-variant-east-asian:normal;font-feature-settings:normal;font-variation-settings:normal;text-indent:0;text-align:start;text-decoration:none;text-decoration-line:none;text-decoration-style:solid;text-decoration-color:#000000;letter-spacing:normal;word-spacing:normal;text-transform:none;writing-mode:lr-tb;direction:ltr;text-orientation:mixed;dominant-baseline:auto;baseline-shift:baseline;text-anchor:start;white-space:normal;shape-padding:0;shape-margin:0;inline-size:0;clip-rule:nonzero;display:inline;overflow:visible;visibility:visible;isolation:auto;mix-blend-mode:normal;color-interpolation:sRGB;color-interpolation-filters:linearRGB;solid-color:#000000;solid-opacity:1;vector-effect:none;fill:#d0e2ee;fill-opacity:1;fill-rule:nonzero;stroke:none;stroke-width:1.58239;stroke-linecap:round;stroke-linejoin:round;stroke-miterlimit:1.5;stroke-dasharray:none;stroke-dashoffset:0;stroke-opacity:1;color-rendering:auto;image-rendering:auto;shape-rendering:auto;text-rendering:auto;enable-background:accumulate;stop-color:#000000"
         d="M 27.818359,24.398438 21.5625,29.71875 a 1.0000006,1.0000006 0 0 0 -0.111328,1.410156 1.0000006,1.0000006 0 0 0 1.410156,0.117188 L 29.308594,25.75 c -0.499421,-0.455619 -1.096709,-0.997204 -1.490235,-1.351562 z"
         transform="matrix(0.26458334,0,0,0.26458334,0,280.06666)" />
      <path
         id="path1353"
         style="color:#000000;font-style:normal;font-variant:normal;font-weight:normal;font-stretch:normal;font-size:medium;line-height:normal;font-family:sans-serif;font-variant-ligatures:normal;font-variant-position:normal;font-variant-caps:normal;font-variant-numeric:normal;font-variant-alternates:normal;font-variant-east-asian:normal;font-feature-settings:normal;font-variation-settings:normal;text-indent:0;text-align:start;text-decoration:none;text-decoration-line:none;text-decoration-style:solid;text-decoration-color:#000000;letter-spacing:normal;word-spacing:normal;text-transform:none;writing-mode:lr-tb;direction:ltr;text-orientation:mixed;dominant-baseline:auto;baseline-shift:baseline;text-anchor:start;white-space:normal;shape-padding:0;shape-margin:0;inline-size:0;clip-rule:nonzero;display:inline;overflow:visible;visibility:visible;isolation:auto;mix-blend-mode:normal;color-interpolation:sRGB;color-interpolation-filters:linearRGB;solid-color:#000000;solid-opacity:1;vector-effect:none;fill:#d0e2ee;fill-opacity:1;fill-rule:nonzero;stroke:none;stroke-width:1.58239;stroke-linecap:round;stroke-linejoin:round;stroke-miterlimit:1.5;stroke-dasharray:none;stroke-dashoffset:0;stroke-opacity:1;color-rendering:auto;image-rendering:auto;shape-rendering:auto;text-rendering:auto;enable-background:accumulate;stop-color:#000000"
         d="m 31.492188,27.712891 a 1.0000006,1.0000006 0 0 0 -0.07422,0.05664 l -6.179688,5.271485 a 1.0000006,1.0000006 0 0 0 -0.109375,1.410156 1.0000006,1.0000006 0 0 0 1.408203,0.109375 l 6.171875,-5.263672 a 1.0000006,1.0000006 0 0 0 0.242188,-0.300781 c -0.461968,-0.408951 -1.063545,-0.928656 -1.458983,-1.283203 z"
         transform="matrix(0.26458334,0,0,0.26458334,0,280.06666)" />
      <path
         style="color:#000000;font-style:normal;font-variant:normal;font-weight:normal;font-stretch:normal;font-size:medium;line-height:normal;font-family:sans-serif;font-variant-ligatures:normal;font-variant-position:normal;font-variant-caps:normal;font-variant-numeric:normal;font-variant-alternates:normal;font-variant-east-asian:normal;font-feature-settings:normal;font-variation-settings:normal;text-indent:0;text-align:start;text-decoration:none;text-decoration-line:none;text-decoration-style:solid;text-decoration-color:#000000;letter-spacing:normal;word-spacing:normal;text-transform:none;writing-mode:lr-tb;direction:ltr;text-orientation:mixed;dominant-baseline:auto;baseline-shift:baseline;text-anchor:start;white-space:normal;shape-padding:0;shape-margin:0;inline-size:0;clip-rule:nonzero;display:inline;overflow:visible;visibility:visible;isolation:auto;mix-blend-mode:normal;color-interpolation:sRGB;color-interpolation-filters:linearRGB;solid-color:#000000;solid-opacity:1;vector-effect:none;fill:#ececec;fill-opacity:1;fill-rule:nonzero;stroke:none;stroke-width:0.418674;stroke-linecap:round;stroke-linejoin:round;stroke-miterlimit:1.5;stroke-dasharray:none;stroke-dashoffset:0;stroke-opacity:1;color-rendering:auto;image-rendering:auto;shape-rendering:auto;text-rendering:auto;enable-background:accumulate;stop-color:#000000"
         d="m 0.56640625,290.00586 a 0.2645835,0.2645835 0 0 0 -0.26367187,0.26367 v 1.85352 a 0.2645835,0.2645835 0 0 0 0.26367187,0.26367 0.2645835,0.2645835 0 0 0 0.265625,-0.26367 v -1.85352 a 0.2645835,0.2645835 0 0 0 -0.265625,-0.26367 z"
         id="path1299" />
      <path
         style="color:#000000;font-style:normal;font-variant:normal;font-weight:normal;font-stretch:normal;font-size:medium;line-height:normal;font-family:sans-serif;font-variant-ligatures:normal;font-variant-position:normal;font-variant-caps:normal;font-variant-numeric:normal;font-variant-alternates:normal;font-variant-east-asian:normal;font-feature-settings:normal;font-variation-settings:normal;text-indent:0;text-align:start;text-decoration:none;text-decoration-line:none;text-decoration-style:solid;text-decoration-color:#000000;letter-spacing:normal;word-spacing:normal;text-transform:none;writing-mode:lr-tb;direction:ltr;text-orientation:mixed;dominant-baseline:auto;baseline-shift:baseline;text-anchor:start;white-space:normal;shape-padding:0;shape-margin:0;inline-size:0;clip-rule:nonzero;display:inline;overflow:visible;visibility:visible;isolation:auto;mix-blend-mode:normal;color-interpolation:sRGB;color-interpolation-filters:linearRGB;solid-color:#000000;solid-opacity:1;vector-effect:none;fill:#ececec;fill-opacity:1;fill-rule:nonzero;stroke:none;stroke-width:0.418674;stroke-linecap:round;stroke-linejoin:round;stroke-miterlimit:1.5;stroke-dasharray:none;stroke-dashoffset:0;stroke-opacity:1;color-rendering:auto;image-rendering:auto;shape-rendering:auto;text-rendering:auto;enable-background:accumulate;stop-color:#000000"
         d="m 1.625,290.53516 a 0.2645835,0.2645835 0 0 0 -0.2636719,0.26367 v 1.32422 A 0.2645835,0.2645835 0 0 0 1.625,292.38672 0.2645835,0.2645835 0 0 0 1.890625,292.12305 v -1.32422 A 0.2645835,0.2645835 0 0 0 1.625,290.53516 Z"
         id="path1313" />
      <path
         style="fill:#a8c2e1;fill-opacity:1;stroke:none;stroke-width:0.418674;stroke-linecap:round;stroke-linejoin:round;stroke-miterlimit:1.5;stroke-opacity:1"
         d="m 12.293021,290.80341 -0.418909,-0.005 c -0.05103,0.71088 -0.700921,1.26969 -1.126312,1.58826 l 0.662475,-1.9e-4 c 0.355846,-0.41871 0.778635,-0.71898 0.882746,-1.58307 z"
         id="path1587"
         sodipodi:nodetypes="ccccc" />
    </g>
  </g>
</svg>
