<?xml version="1.0" encoding="UTF-8" standalone="no"?>
<!-- Created with Inkscape (http://www.inkscape.org/) -->

<svg
   width="64pt"
   height="64pt"
   viewBox="0 0 22.577778 22.577778"
   version="1.1"
   id="svg831"
   inkscape:version="1.1.1 (3bf5ae0d25, 2021-09-20)"
   sodipodi:docname="1 - Trophy.svg"
   inkscape:export-filename="C:\Users\User\Desktop\DESEMBER\2 - School Bell.png"
   inkscape:export-xdpi="576"
   inkscape:export-ydpi="576"
   xmlns:inkscape="http://www.inkscape.org/namespaces/inkscape"
   xmlns:sodipodi="http://sodipodi.sourceforge.net/DTD/sodipodi-0.dtd"
   xmlns="http://www.w3.org/2000/svg"
   xmlns:svg="http://www.w3.org/2000/svg"
   xmlns:rdf="http://www.w3.org/1999/02/22-rdf-syntax-ns#"
   xmlns:cc="http://creativecommons.org/ns#"
   xmlns:dc="http://purl.org/dc/elements/1.1/">
  <defs
     id="defs825">
    <pattern
       id="EMFhbasepattern"
       patternUnits="userSpaceOnUse"
       width="6"
       height="6"
       x="0"
       y="0" />
    <pattern
       id="EMFhbasepattern-9"
       patternUnits="userSpaceOnUse"
       width="6"
       height="6"
       x="0"
       y="0" />
    <pattern
       id="EMFhbasepattern-0"
       patternUnits="userSpaceOnUse"
       width="6"
       height="6"
       x="0"
       y="0" />
    <pattern
       id="EMFhbasepattern-7"
       patternUnits="userSpaceOnUse"
       width="6"
       height="6"
       x="0"
       y="0" />
    <pattern
       id="EMFhbasepattern-2"
       patternUnits="userSpaceOnUse"
       width="6"
       height="6"
       x="0"
       y="0" />
    <pattern
       id="EMFhbasepattern-98"
       patternUnits="userSpaceOnUse"
       width="6"
       height="6"
       x="0"
       y="0" />
    <pattern
       id="EMFhbasepattern-6"
       patternUnits="userSpaceOnUse"
       width="6"
       height="6"
       x="0"
       y="0" />
    <pattern
       id="EMFhbasepattern-01"
       patternUnits="userSpaceOnUse"
       width="6"
       height="6"
       x="0"
       y="0" />
    <pattern
       id="EMFhbasepattern-07"
       patternUnits="userSpaceOnUse"
       width="6"
       height="6"
       x="0"
       y="0" />
    <pattern
       id="EMFhbasepattern-8"
       patternUnits="userSpaceOnUse"
       width="6"
       height="6"
       x="0"
       y="0" />
    <pattern
       id="EMFhbasepattern-4"
       patternUnits="userSpaceOnUse"
       width="6"
       height="6"
       x="0"
       y="0" />
    <pattern
       id="EMFhbasepattern-40"
       patternUnits="userSpaceOnUse"
       width="6"
       height="6"
       x="0"
       y="0" />
    <pattern
       id="EMFhbasepattern-08"
       patternUnits="userSpaceOnUse"
       width="6"
       height="6"
       x="0"
       y="0" />
    <pattern
       id="EMFhbasepattern-04"
       patternUnits="userSpaceOnUse"
       width="6"
       height="6"
       x="0"
       y="0" />
    <pattern
       id="EMFhbasepattern-014"
       patternUnits="userSpaceOnUse"
       width="6"
       height="6"
       x="0"
       y="0" />
    <pattern
       id="EMFhbasepattern-27"
       patternUnits="userSpaceOnUse"
       width="6"
       height="6"
       x="0"
       y="0" />
    <pattern
       id="EMFhbasepattern-09"
       patternUnits="userSpaceOnUse"
       width="6"
       height="6"
       x="0"
       y="0" />
    <pattern
       id="EMFhbasepattern-5"
       patternUnits="userSpaceOnUse"
       width="6"
       height="6"
       x="0"
       y="0" />
    <pattern
       id="EMFhbasepattern-018"
       patternUnits="userSpaceOnUse"
       width="6"
       height="6"
       x="0"
       y="0" />
  </defs>
  <sodipodi:namedview
     id="base"
     pagecolor="#ffffff"
     bordercolor="#666666"
     borderopacity="1.0"
     inkscape:pageopacity="0.0"
     inkscape:pageshadow="2"
     inkscape:zoom="4.6006733"
     inkscape:cx="42.71114"
     inkscape:cy="42.71114"
     inkscape:document-units="pt"
     inkscape:current-layer="layer1"
     showgrid="false"
     units="pt"
     inkscape:window-width="958"
     inkscape:window-height="1003"
     inkscape:window-x="952"
     inkscape:window-y="0"
     inkscape:window-maximized="0"
     inkscape:pagecheckerboard="true"
     inkscape:showpageshadow="false"
     inkscape:object-paths="false"
     inkscape:snap-intersection-paths="true"
     inkscape:snap-smooth-nodes="true"
     inkscape:snap-midpoints="true"
     showguides="true"
     inkscape:snap-bbox="true"
     inkscape:bbox-nodes="true"
     inkscape:snap-nodes="false"
     inkscape:snap-global="true">
    <inkscape:grid
       type="xygrid"
       id="grid1378" />
    <sodipodi:guide
       position="0.97013831,21.607643"
       orientation="78.000048,0"
       id="guide1380"
       inkscape:locked="false" />
    <sodipodi:guide
       position="0.97013831,0.97013129"
       orientation="0,78.000005"
       id="guide1382"
       inkscape:locked="false" />
    <sodipodi:guide
       position="21.607639,0.97013129"
       orientation="-78.000048,0"
       id="guide1384"
       inkscape:locked="false" />
    <sodipodi:guide
       position="21.607639,21.607643"
       orientation="0,-78.000005"
       id="guide1386"
       inkscape:locked="false" />
  </sodipodi:namedview>
  <metadata
     id="metadata828">
    <rdf:RDF>
      <cc:Work
         rdf:about="">
        <dc:format>image/svg+xml</dc:format>
        <dc:type
           rdf:resource="http://purl.org/dc/dcmitype/StillImage" />
      </cc:Work>
    </rdf:RDF>
  </metadata>
  <g
     inkscape:label="Icon"
     inkscape:groupmode="layer"
     id="layer1"
     transform="translate(0,-274.42223)"
     style="display:inline">
    <g
       id="g88009"
       style="display:inline;stroke-width:0.79488"
       transform="matrix(1.2580512,0,0,1.2580512,0.65826173,-77.279684)">
      <path
         style="color:#000000;fill:#e2f0fa;stroke-width:0.79488;-inkscape-stroke:none"
         d="m 10.820313,285.22266 -1.0507817,0.40234 -0.042969,0.11133 c -0.088246,0.23172 -0.140625,0.48537 -0.140625,0.76172 0.039193,3.20819 0.1817056,6.45518 0.3085935,9.19341 0.3780972,0.6262 1.0668362,1.04492 1.8496102,1.04492 h 2.734375 c 1.189507,0 2.160155,-0.97066 2.160155,-2.16016 v -8.07812 c 0,-0.27076 -0.05084,-0.51965 -0.134765,-0.7461 l -0.04102,-0.11328 -1.085938,-0.41406 h -0.002 c -0.420527,-0.16046 -0.910782,-0.1519 -1.558594,0.0957 -0.577137,0.22058 -0.85834,0.22103 -1.435547,0 -0.64865,-0.24841 -1.139544,-0.25856 -1.560546,-0.0976 z"
         id="path10048"
         sodipodi:nodetypes="cccccsssscccccccc" />
      <path
         id="path28351"
         style="fill:#cce5f5;fill-opacity:1;stroke-width:3.00427;stroke-linecap:round;stroke-linejoin:round"
         d="m 36.265625,23.544922 c -0.02353,0.249208 -0.03516,0.50194 -0.03516,0.761719 v 2.666015 c 1.052238,10.58626 -0.347858,21.595155 1.166015,32.082032 0.58828,0.974301 1.375586,1.813977 2.304688,2.466796 L 51.33398,57.541016 c 2.652189,-0.907729 4.443337,-3.42248 4.44336,-6.222657 v -12.02539 c 1.16025,-1.720063 1.858595,-3.686944 1.380859,-5.677735 -0.582504,-2.427439 -2.361157,-4.132859 -4.318359,-5.380859 -3.91564,-2.496831 -9.527395,-3.904469 -15.84961,-4.613281 -0.240418,-0.02695 -0.482209,-0.05156 -0.724609,-0.07617 z"
         transform="matrix(0.26458334,0,0,0.26458334,0,280.06666)"
         sodipodi:nodetypes="ssccccccccsss" />
      <path
         id="path22183"
         style="fill:#cce5f5;fill-opacity:1;stroke:none;stroke-width:0.794879px;stroke-linecap:butt;stroke-linejoin:miter;stroke-opacity:1"
         d="m 60.394531,21.775391 v 38.923828 c 1.534453,-1.485968 2.492188,-3.564011 2.492188,-5.859375 v -30.53125 c 0,-0.255837 -0.01215,-0.622952 -0.03516,-0.86846 z"
         transform="matrix(0.26458334,0,0,0.26458334,0,280.06666)"
         sodipodi:nodetypes="ccsscc" />
      <path
         style="color:#000000;fill:#fca311;stroke-width:0.79488;stroke-linecap:round;stroke-linejoin:round;-inkscape-stroke:none"
         d="m 13.837891,289.96289 -6.4960941,1.24414 a 0.26460996,0.26460996 0 0 0 -0.2128907,0.22461 l -0.6484375,4.94922 a 0.26460996,0.26460996 0 0 0 0.2421875,0.29883 c 0.4258378,0.0326 0.8322153,0.0329 1.3906251,-0.15821 l 5.2734377,-1.80468 c 0.457702,-0.15665 0.765621,-0.58851 0.765625,-1.07227 v -3.42187 a 0.26460996,0.26460996 0 0 0 -0.314453,-0.25977 z"
         id="path9180" />
      <path
         id="path14526"
         style="color:#000000;fill:#e89203;fill-opacity:1;stroke-width:3.00427;stroke-linecap:round;stroke-linejoin:round;-inkscape-stroke:none"
         d="m 25.138672,62.728518 1.804687,-13.773438 0.804688,-0.849609 18.572347,-3.557297 a 2.6663073,2.6663073 39.578523 0 1 3.167887,2.618705 V 55.75 c 2.803193,-0.484724 3.999985,-2.603256 4,-4.431641 v -6.933593 -6 L 49.388672,37.96094 27.748047,42.105471 26.943359,42.95508 24.492188,61.660158 Z"
         transform="matrix(0.26458334,0,0,0.26458334,0,280.06666)"
         sodipodi:nodetypes="ccccccccccccc" />
      <path
         style="color:#000000;fill:#fca311;stroke-width:0.79488;stroke-linecap:round;stroke-linejoin:round;-inkscape-stroke:none"
         d="m 9.71875,286.91797 c -1.6187743,-0.18149 -3.4265759,-0.15361 -5.0527344,0.14844 -1.6261584,0.30205 -3.0792824,0.8725 -3.9707031,1.83789 a 0.26460996,0.26460996 0 0 0 0.10351562,0.42773 l 6.50195308,2.38281 a 0.26460996,0.26460996 0 0 0 0.140625,0.0117 L 13.9375,290.48242 a 0.26460996,0.26460996 0 0 0 0.144531,-0.0781 c 0.390129,-0.41577 0.553341,-0.87698 0.451172,-1.30274 -0.102169,-0.42576 -0.432488,-0.76807 -0.878906,-1.05273 -0.892836,-0.56932 -2.316773,-0.94937 -3.935547,-1.13086 z"
         id="path8987" />
      <path
         style="color:#000000;fill:#fed883;stroke-width:0.79488;stroke-linecap:round;stroke-linejoin:round;-inkscape-stroke:none"
         d="m 1.7324219,288.37109 c -0.3903254,0.10913 -0.73423472,0.26687 -0.9980469,0.4961 -0.26336363,0.22884 -0.44228018,0.54118 -0.46875,0.90429 -4.508e-5,6.2e-4 4.42e-5,10e-4 0,0.002 -0.0491124,0.55138 0.33310283,0.98523 0.8359375,1.16015 v 4.26368 c 1.239e-4,0.48634 0.370146,0.89941 0.8535156,0.95312 l 4.7910156,0.53125 c 0.4818043,0.0535 0.9101636,-0.32968 0.9101563,-0.81445 v -4.26367 c 0.5001175,-0.17335 0.8757309,-0.60399 0.8320313,-1.15235 -0.00423,-0.3284 -0.1575771,-0.62799 -0.3925782,-0.87305 -0.2382149,-0.2484 -0.5578029,-0.45543 -0.9316406,-0.63476 -0.7476754,-0.35866 -1.7165706,-0.6036 -2.6933594,-0.71096 -0.9767887,-0.10736 -1.9576304,-0.0796 -2.7382812,0.13865 z"
         id="path8795"
         sodipodi:nodetypes="csscccccccccscc" />
      <path
         style="color:#000000;fill:#ec7523;fill-opacity:1;stroke-width:0.79488;stroke-linecap:round;stroke-linejoin:round;-inkscape-stroke:none"
         d="m 2.3925502,289.29333 a 0.31066953,0.31066953 0 0 0 -0.309599,0.3119 0.31066953,0.31066953 0 0 0 0.309599,0.3096 0.31066953,0.31066953 0 0 0 0.3118924,-0.3096 0.31066953,0.31066953 0 0 0 -0.3118924,-0.3119 z"
         id="path18131" />
      <path
         style="color:#000000;fill:#ec7523;fill-opacity:1;stroke-width:0.79488;stroke-linecap:round;stroke-linejoin:round;-inkscape-stroke:none"
         d="m 5.4992436,294.88645 a 0.31066953,0.31066953 0 0 0 -0.309599,0.31189 0.31066953,0.31066953 0 0 0 0.309599,0.3096 0.31066953,0.31066953 0 0 0 0.3118924,-0.3096 0.31066953,0.31066953 0 0 0 -0.3118924,-0.31189 z"
         id="path18454" />
      <path
         style="color:#000000;fill:#ec7523;fill-opacity:1;stroke-width:0.79488;stroke-linecap:round;stroke-linejoin:round;-inkscape-stroke:none"
         d="m 4.8780601,289.60522 a 0.31066953,0.31066953 0 0 0 -0.309599,0.31189 0.31066953,0.31066953 0 0 0 0.309599,0.3096 0.31066953,0.31066953 0 0 0 0.3118925,-0.3096 0.31066953,0.31066953 0 0 0 -0.3118925,-0.31189 z"
         id="path18456" />
      <path
         style="color:#000000;fill:#ec7523;fill-opacity:1;stroke-width:0.79488;stroke-linecap:round;stroke-linejoin:round;-inkscape-stroke:none"
         d="m 3.3245582,290.84668 a 0.31066953,0.31066953 0 0 0 -0.309599,0.3119 0.31066953,0.31066953 0 0 0 0.309599,0.3096 0.31066953,0.31066953 0 0 0 0.3118924,-0.3096 0.31066953,0.31066953 0 0 0 -0.3118924,-0.3119 z"
         id="path18458" />
      <path
         style="color:#000000;fill:#ec7523;fill-opacity:1;stroke-width:0.79488;stroke-linecap:round;stroke-linejoin:round;-inkscape-stroke:none"
         d="m 6.1218053,293.33311 a 0.31066953,0.31066953 0 0 0 -0.309599,0.3119 0.31066953,0.31066953 0 0 0 0.309599,0.30959 0.31066953,0.31066953 0 0 0 0.3118925,-0.30959 0.31066953,0.31066953 0 0 0 -0.3118925,-0.3119 z"
         id="path18460" />
      <path
         style="color:#000000;fill:#ec7523;fill-opacity:1;stroke-width:0.79488;stroke-linecap:round;stroke-linejoin:round;-inkscape-stroke:none"
         d="m 3.6352276,294.26405 a 0.31066953,0.31066953 0 0 0 -0.309599,0.3119 0.31066953,0.31066953 0 0 0 0.309599,0.30959 0.31066953,0.31066953 0 0 0 0.3118924,-0.30959 0.31066953,0.31066953 0 0 0 -0.3118924,-0.3119 z"
         id="path18462" />
      <path
         style="color:#000000;fill:#fed883;fill-opacity:1;stroke-width:0.79488;stroke-linecap:round;stroke-linejoin:round;-inkscape-stroke:none"
         d="m 12.333967,288.9839 a 0.31066953,0.31066953 0 0 0 -0.309599,0.3119 0.31066953,0.31066953 0 0 0 0.309599,0.30959 0.31066953,0.31066953 0 0 0 0.311892,-0.30959 0.31066953,0.31066953 0 0 0 -0.311892,-0.3119 z"
         id="path20184" />
      <path
         style="color:#000000;fill:#fed883;fill-opacity:1;stroke-width:0.79488;stroke-linecap:round;stroke-linejoin:round;-inkscape-stroke:none"
         d="m 8.60716,287.74106 a 0.31066953,0.31066953 0 0 0 -0.3095992,0.3119 0.31066953,0.31066953 0 0 0 0.3095992,0.3096 0.31066953,0.31066953 0 0 0 0.3118925,-0.3096 0.31066953,0.31066953 0 0 0 -0.3118925,-0.3119 z"
         id="path20186" />
      <path
         style="color:#000000;fill:#fed883;fill-opacity:1;stroke-width:0.79488;stroke-linecap:round;stroke-linejoin:round;-inkscape-stroke:none"
         d="m 9.8486143,288.98266 a 0.31066953,0.31066953 0 0 0 -0.3095993,0.3119 0.31066953,0.31066953 0 0 0 0.3095993,0.3096 0.31066953,0.31066953 0 0 0 0.3118927,-0.3096 0.31066953,0.31066953 0 0 0 -0.3118927,-0.3119 z"
         id="path20188" />
      <path
         style="color:#000000;fill:#c8dae5;stroke-width:0.79488;-inkscape-stroke:none"
         d="m 11.449266,282.77344 c 0.0061,0.56464 -0.273022,0.98539 -0.646485,1.43554 -0.373462,0.45016 -0.8401313,0.90506 -1.0761715,1.52735 -0.049111,0.16175 -0.1094053,0.30748 -0.1242148,0.51838 l 1.4074183,-0.53791 c 0.299371,-0.11442 0.604434,-0.1234 1.18164,0.0977 0.648647,0.24839 1.16388,0.2479 1.8125,0 0.577136,-0.22059 0.884276,-0.21026 1.183594,-0.0957 l 1.434187,0.54864 c -0.0155,-0.17065 -0.05102,-0.34228 -0.117781,-0.51544 -0.233607,-0.62801 -0.702214,-1.08484 -1.078125,-1.53711 -0.37591,-0.45226 -0.656528,-0.87438 -0.65039,-1.4414 z"
         id="path9856"
         sodipodi:nodetypes="ccccccccccccc" />
      <path
         id="path19931"
         style="color:#000000;fill:#b5cdd9;fill-opacity:1;stroke-width:3.00427;-inkscape-stroke:none"
         d="m 43.265625,9.21875 0.0078,1.011719 c -0.02675,1.10534 -0.268173,2.089465 -0.741989,2.988281 h 9.256295 c 1.497147,0 3.297205,1.073162 4.24191,2.231169 1.642497,2.059747 4.427134,4.611143 4.36489,7.05737 L 62.85138,23.45011 C 62.7928,22.805134 62.629246,22.142744 62.37694,21.488281 61.49402,19.1147 59.723487,17.387101 58.302721,15.677734 56.732679,13.901685 55.83991,12.174572 55.843499,10.230466 l 0.0078,-1.011719 c -4.195225,-6e-7 -8.390449,1.5e-6 -12.585674,3e-6 z"
         transform="matrix(0.26458334,0,0,0.26458334,0,280.06666)"
         sodipodi:nodetypes="cccccccccccc" />
      <path
         id="path11061"
         style="color:#000000;fill:#e89203;fill-opacity:1;stroke-width:0.79488;stroke-linecap:round;stroke-linejoin:round;-inkscape-stroke:none"
         d="m 4.6658651,287.06624 c -1.6261584,0.30205 -3.0788798,0.87274 -3.97030045,1.83813 -0.0231707,0.0262 -0.0409106,0.0568 -0.052193,0.0899 0.89090205,-0.70409 2.13110475,-1.14585 3.49332675,-1.39888 1.6261586,-0.30205 3.4341474,-0.3298 5.0529217,-0.14831 1.6187739,0.18149 3.0428409,0.56136 3.9356769,1.13068 0.446418,0.28466 0.776331,0.62741 0.8785,1.05317 0.06734,0.2806 0.01887,0.5763 -0.133326,0.86454 l 0.06718,-0.0129 c 0.0551,-0.0101 0.105586,-0.0374 0.144177,-0.078 0.390129,-0.41577 0.553304,-0.877 0.451135,-1.30276 -0.102169,-0.42576 -0.432081,-0.76851 -0.878499,-1.05317 -0.892836,-0.56931 -2.316903,-0.94919 -3.9356772,-1.13068 -1.6697481,-0.17956 -3.4544821,-0.14213 -5.0529217,0.14828 z"
         sodipodi:nodetypes="ccccssccccsccc" />
      <path
         id="path16508"
         style="color:#000000;fill:#fece5d;fill-opacity:1;stroke-width:3.00427;stroke-linecap:round;stroke-linejoin:round;-inkscape-stroke:none"
         d="m 2.7753906,33.261719 c -0.450432,0.39137 -0.8349563,0.848244 -1.1308594,1.357422 0.8409761,-0.531326 1.8243608,-0.931043 2.9023438,-1.232422 6.970871,-1.36356 14.335408,-0.73924 20.529297,2.164062 1.41293,0.677783 2.621144,1.459603 3.521484,2.398438 0.695864,0.725649 1.201936,1.578085 1.396485,2.509765 -0.346839,1.486898 -1.552656,2.625176 -3.056641,3.146485 v 16.115234 c 2.2e-5,1.429191 -0.985518,2.623581 -2.283203,2.984375 l 0.841797,0.09375 c 1.820992,0.202205 3.441434,-1.245923 3.441406,-3.078125 V 43.605469 c 3.245882,-1.26723 3.352927,-3.46891 2.972762,-5.486304 C 31.300858,36.119364 29.1938,34.688077 27.595809,33.810383 22.226007,30.758142 8.6441748,28.70731 2.7753906,33.261719 Z"
         transform="matrix(0.26458334,0,0,0.26458334,0,280.06666)"
         sodipodi:nodetypes="ccccccccccccccc" />
      <path
         style="color:#000000;fill:#3a4d5c;stroke-width:0.79488;stroke-linecap:round;stroke-linejoin:round;-inkscape-stroke:none"
         d="m 12.035156,280.33203 c -0.486146,0 -0.884765,0.39862 -0.884765,0.88477 v 0.93164 c 0,0.48615 0.398614,0.88672 0.884765,0.88672 h 2.175782 c 0.48615,0 0.884765,-0.40057 0.884765,-0.88672 v -0.93164 c 0,-0.48615 -0.39862,-0.88477 -0.884765,-0.88477 z"
         id="path10869" />
      <path
         id="path27788"
         style="color:#000000;fill:#2d3a48;fill-opacity:1;stroke-width:0.79488;stroke-linecap:round;stroke-linejoin:round;-inkscape-stroke:none"
         d="m 12.034925,280.33228 c -0.380205,0 -0.706638,0.24357 -0.830958,0.58239 0.09441,-0.0346 0.19585,-0.0532 0.301791,-0.0532 h 2.176095 c 0.486145,0 0.8847,0.39855 0.8847,0.8847 v 0.93121 c 0,0.10652 -0.01875,0.20939 -0.05374,0.30438 0.339048,-0.12472 0.582911,-0.45317 0.582911,-0.83354 v -0.93121 c 0,-0.48615 -0.398556,-0.8847 -0.884701,-0.8847 z" />
    </g>
  </g>
</svg>
