<?xml version="1.0" encoding="UTF-8" standalone="no"?>
<!-- Created with Inkscape (http://www.inkscape.org/) -->

<svg
   width="64pt"
   height="64pt"
   viewBox="0 0 22.577778 22.577778"
   version="1.1"
   id="svg831"
   inkscape:version="1.1.1 (3bf5ae0d25, 2021-09-20)"
   sodipodi:docname="1 - Trophy.svg"
   inkscape:export-filename="C:\Users\User\Desktop\DESEMBER\8 - Milk Box And Bread.png"
   inkscape:export-xdpi="576"
   inkscape:export-ydpi="576"
   xmlns:inkscape="http://www.inkscape.org/namespaces/inkscape"
   xmlns:sodipodi="http://sodipodi.sourceforge.net/DTD/sodipodi-0.dtd"
   xmlns="http://www.w3.org/2000/svg"
   xmlns:svg="http://www.w3.org/2000/svg"
   xmlns:rdf="http://www.w3.org/1999/02/22-rdf-syntax-ns#"
   xmlns:cc="http://creativecommons.org/ns#"
   xmlns:dc="http://purl.org/dc/elements/1.1/">
  <defs
     id="defs825">
    <pattern
       id="EMFhbasepattern"
       patternUnits="userSpaceOnUse"
       width="6"
       height="6"
       x="0"
       y="0" />
    <pattern
       id="EMFhbasepattern-9"
       patternUnits="userSpaceOnUse"
       width="6"
       height="6"
       x="0"
       y="0" />
    <pattern
       id="EMFhbasepattern-0"
       patternUnits="userSpaceOnUse"
       width="6"
       height="6"
       x="0"
       y="0" />
    <pattern
       id="EMFhbasepattern-7"
       patternUnits="userSpaceOnUse"
       width="6"
       height="6"
       x="0"
       y="0" />
    <pattern
       id="EMFhbasepattern-2"
       patternUnits="userSpaceOnUse"
       width="6"
       height="6"
       x="0"
       y="0" />
    <pattern
       id="EMFhbasepattern-98"
       patternUnits="userSpaceOnUse"
       width="6"
       height="6"
       x="0"
       y="0" />
    <pattern
       id="EMFhbasepattern-6"
       patternUnits="userSpaceOnUse"
       width="6"
       height="6"
       x="0"
       y="0" />
    <pattern
       id="EMFhbasepattern-01"
       patternUnits="userSpaceOnUse"
       width="6"
       height="6"
       x="0"
       y="0" />
    <pattern
       id="EMFhbasepattern-07"
       patternUnits="userSpaceOnUse"
       width="6"
       height="6"
       x="0"
       y="0" />
    <pattern
       id="EMFhbasepattern-8"
       patternUnits="userSpaceOnUse"
       width="6"
       height="6"
       x="0"
       y="0" />
    <pattern
       id="EMFhbasepattern-4"
       patternUnits="userSpaceOnUse"
       width="6"
       height="6"
       x="0"
       y="0" />
    <pattern
       id="EMFhbasepattern-40"
       patternUnits="userSpaceOnUse"
       width="6"
       height="6"
       x="0"
       y="0" />
    <pattern
       id="EMFhbasepattern-08"
       patternUnits="userSpaceOnUse"
       width="6"
       height="6"
       x="0"
       y="0" />
    <pattern
       id="EMFhbasepattern-04"
       patternUnits="userSpaceOnUse"
       width="6"
       height="6"
       x="0"
       y="0" />
    <pattern
       id="EMFhbasepattern-014"
       patternUnits="userSpaceOnUse"
       width="6"
       height="6"
       x="0"
       y="0" />
    <pattern
       id="EMFhbasepattern-27"
       patternUnits="userSpaceOnUse"
       width="6"
       height="6"
       x="0"
       y="0" />
    <pattern
       id="EMFhbasepattern-09"
       patternUnits="userSpaceOnUse"
       width="6"
       height="6"
       x="0"
       y="0" />
    <pattern
       id="EMFhbasepattern-5"
       patternUnits="userSpaceOnUse"
       width="6"
       height="6"
       x="0"
       y="0" />
    <pattern
       id="EMFhbasepattern-018"
       patternUnits="userSpaceOnUse"
       width="6"
       height="6"
       x="0"
       y="0" />
  </defs>
  <sodipodi:namedview
     id="base"
     pagecolor="#ffffff"
     bordercolor="#666666"
     borderopacity="1.0"
     inkscape:pageopacity="0.0"
     inkscape:pageshadow="2"
     inkscape:zoom="4.6006733"
     inkscape:cx="42.71114"
     inkscape:cy="42.71114"
     inkscape:document-units="pt"
     inkscape:current-layer="layer1"
     showgrid="false"
     units="pt"
     inkscape:window-width="958"
     inkscape:window-height="1003"
     inkscape:window-x="952"
     inkscape:window-y="0"
     inkscape:window-maximized="0"
     inkscape:pagecheckerboard="true"
     inkscape:showpageshadow="false"
     inkscape:object-paths="false"
     inkscape:snap-intersection-paths="true"
     inkscape:snap-smooth-nodes="true"
     inkscape:snap-midpoints="true"
     showguides="true"
     inkscape:snap-bbox="true"
     inkscape:bbox-nodes="true"
     inkscape:snap-nodes="false"
     inkscape:snap-global="true">
    <inkscape:grid
       type="xygrid"
       id="grid1378" />
    <sodipodi:guide
       position="0.97013831,21.607643"
       orientation="78.000048,0"
       id="guide1380"
       inkscape:locked="false" />
    <sodipodi:guide
       position="0.97013831,0.97013129"
       orientation="0,78.000005"
       id="guide1382"
       inkscape:locked="false" />
    <sodipodi:guide
       position="21.607639,0.97013129"
       orientation="-78.000048,0"
       id="guide1384"
       inkscape:locked="false" />
    <sodipodi:guide
       position="21.607639,21.607643"
       orientation="0,-78.000005"
       id="guide1386"
       inkscape:locked="false" />
  </sodipodi:namedview>
  <metadata
     id="metadata828">
    <rdf:RDF>
      <cc:Work
         rdf:about="">
        <dc:format>image/svg+xml</dc:format>
        <dc:type
           rdf:resource="http://purl.org/dc/dcmitype/StillImage" />
      </cc:Work>
    </rdf:RDF>
  </metadata>
  <g
     inkscape:label="Icon"
     inkscape:groupmode="layer"
     id="layer1"
     transform="translate(0,-274.42223)"
     style="display:inline">
    <g
       id="g1496"
       style="display:inline;stroke-width:0.777509"
       transform="matrix(1.2861586,0,0,1.2861586,-38.832097,-85.388715)">
      <g
         id="g87810"
         style="stroke-width:0.777509">
        <path
           id="path142665"
           style="color:#000000;fill:#4d4d4d;stroke-width:2.93862;stroke-linecap:round;stroke-linejoin:round;-inkscape-stroke:none"
           d="m 134.86719,50.705078 -4.17774,4.177734 c -1.16317,1.163188 -1.16322,3.082945 0,4.246094 1.1632,1.163112 3.08096,1.163188 4.24414,0 l 5.01953,-5.021484 z m 19.79101,3.439452 4.98242,4.984375 c 1.16318,1.163188 3.08095,1.163112 4.24415,0 1.16321,-1.163149 1.16317,-3.082906 0,-4.246094 l -4.16211,-4.162109 z"
           transform="matrix(0.26458334,0,0,0.26458334,0,280.06666)"
           sodipodi:nodetypes="ccscccccsccc" />
        <path
           id="path159115"
           style="fill:#333333;fill-opacity:1;stroke-width:2.93862;stroke-linecap:round;stroke-linejoin:round"
           d="m 134.86719,50.705078 -2.29102,2.291016 c 1.62886,1.26544 3.42384,2.32704 5.34571,3.144531 l 2.03124,-2.033203 z m 19.79101,3.439452 1.99219,1.994141 c 1.92214,-0.817782 3.71649,-1.878856 5.3457,-3.144531 l -2.27343,-2.273438 z"
           transform="matrix(0.26458334,0,0,0.26458334,0,280.06666)"
           sodipodi:nodetypes="cccccccccc" />
        <path
           style="color:#000000;fill:#dc1c4b;stroke-width:0.777509;stroke-linecap:round;stroke-linejoin:round;-inkscape-stroke:none"
           d="m 38.96875,283.24219 c -3.211616,0 -5.820307,2.60869 -5.820313,5.82031 -1e-6,3.21162 2.608693,5.82227 5.820313,5.82227 3.211622,10e-6 5.822266,-2.61065 5.822266,-5.82227 -6e-6,-3.21162 -2.610649,-5.8203 -5.822266,-5.82031 z"
           id="path141715" />
        <path
           style="color:#000000;fill:#ececec;stroke-width:0.777509;stroke-linecap:round;stroke-linejoin:round;-inkscape-stroke:none"
           d="m 38.96875,285.35937 c -2.042617,0 -3.703123,1.66051 -3.703125,3.70313 -4e-6,2.04262 1.660503,3.70508 3.703125,3.70508 2.042623,0 3.705082,-1.66246 3.705078,-3.70508 -2e-6,-2.04262 -1.66246,-3.70313 -3.705078,-3.70313 z"
           id="path142281" />
        <path
           id="path154853"
           style="color:#000000;fill:#cccccc;fill-opacity:1;stroke-width:0.777509;stroke-linecap:round;stroke-linejoin:round;-inkscape-stroke:none"
           d="m 38.968681,285.35936 c -1.155835,0 -2.189054,0.53199 -2.868557,1.36374 0.638135,-0.52133 1.45261,-0.83457 2.33939,-0.83457 2.042618,0 3.705199,1.66051 3.705202,3.70313 2e-6,0.88669 -0.313442,1.7019 -0.835092,2.34043 0.832118,-0.68006 1.364261,-1.7139 1.364258,-2.8696 -2e-6,-2.04262 -1.662583,-3.70313 -3.705201,-3.70313 z" />
        <path
           style="color:#000000;fill:#fca311;stroke-width:0.777509;stroke-linecap:round;stroke-linejoin:round;-inkscape-stroke:none"
           d="m 38.439453,281.125 c -0.435237,0 -0.792964,0.35968 -0.792969,0.79492 -3e-6,0.43524 0.357724,0.79297 0.792969,0.79297 h 1.058594 c 0.435237,0 0.794917,-0.35773 0.794922,-0.79297 10e-7,-0.43524 -0.359677,-0.79492 -0.794922,-0.79492 z"
           id="path510519" />
        <path
           style="color:#000000;fill:#4d4d4d;fill-opacity:1;stroke-width:0.411432;stroke-linecap:round;stroke-linejoin:round;stroke-miterlimit:4;stroke-dasharray:none"
           d="m 41.349722,288.79875 a 0.2645835,0.2645835 0 0 0 -0.263672,0.26563 0.2645835,0.2645835 0 0 0 0.263672,0.26367 0.2645835,0.2645835 0 0 0 0.265625,-0.26367 0.2645835,0.2645835 0 0 0 -0.265625,-0.26563 z"
           id="path2927" />
        <path
           style="color:#000000;fill:#4d4d4d;fill-opacity:1;stroke-width:0.411432;stroke-linecap:round;stroke-linejoin:round;stroke-miterlimit:4;stroke-dasharray:none"
           d="m 38.968539,291.17986 a 0.2645835,0.2645835 0 0 0 -0.263672,0.26563 0.2645835,0.2645835 0 0 0 0.263672,0.26367 0.2645835,0.2645835 0 0 0 0.265625,-0.26367 0.2645835,0.2645835 0 0 0 -0.265625,-0.26563 z"
           id="path2925" />
        <path
           style="color:#000000;fill:#fec872;stroke-width:0.777509;stroke-linecap:round;stroke-linejoin:round;-inkscape-stroke:none"
           d="m 38.705078,286.68164 v 2.38086 c 6.2e-5,0.0704 0.02818,0.13788 0.07813,0.1875 0.351934,0.35194 0.702748,0.7047 1.054688,1.05664 0.10342,0.10388 0.27158,0.10388 0.375,0 0.103876,-0.10342 0.103876,-0.27158 0,-0.375 -0.325889,-0.32589 -0.652622,-0.65066 -0.978516,-0.97656 v -2.27344 c -5.04e-4,-0.14618 -0.119449,-0.26425 -0.265246,-0.26371 -0.145798,5.4e-4 -0.263555,0.1183 -0.264056,0.26371 z"
           id="path2964"
           sodipodi:nodetypes="cccccccccc" />
        <path
           id="path5648"
           style="color:#000000;fill:#4d4d4d;stroke-width:2.93862;stroke-linecap:round;stroke-linejoin:round;-inkscape-stroke:none"
           d="m 138.125,23.423828 c -0.5037,0.436778 -0.97709,0.908579 -1.41406,1.41211 0.81967,0.819179 1.65498,1.655029 2.49023,2.490234 0.38983,0.386539 1.01838,0.386539 1.40821,0 0.39173,-0.39073 0.39173,-1.025286 0,-1.416016 -0.83494,-0.834875 -1.66749,-1.668929 -2.48438,-2.486328 z m 18.32227,0.002 c -0.78657,0.786564 -1.58521,1.585213 -2.39454,2.394531 -0.39303,0.39095 -0.39303,1.027019 0,1.417969 0.39006,0.387829 1.0201,0.387829 1.41016,0 0.80987,-0.809856 1.61118,-1.611171 2.40039,-2.40039 -0.43746,-0.50399 -0.91172,-0.974947 -1.41601,-1.41211 z m -17.26954,17.269531 c -0.82262,0.822652 -1.64577,1.645781 -2.46875,2.46875 0.43809,0.50536 0.91278,0.979733 1.41797,1.417969 0.82297,-0.82296 1.64612,-1.64607 2.46875,-2.46875 0.39303,-0.39095 0.39303,-1.027019 0,-1.417969 -0.45539,-0.438697 -1.05109,-0.325284 -1.41797,0 z m 14.79297,-0.0078 c -0.39303,0.39095 -0.39303,1.027019 0,1.417969 0.84112,0.841065 1.66289,1.663416 2.47461,2.474609 0.50545,-0.438333 0.97964,-0.912522 1.41797,-1.417969 -0.81117,-0.811727 -1.63346,-1.633501 -2.47461,-2.474609 -0.56267,-0.429986 -0.99879,-0.359706 -1.41797,0 z"
           sodipodi:nodetypes="cccccccccccccccccccccccc"
           transform="matrix(0.26458334,0,0,0.26458334,0,280.06666)" />
        <path
           style="color:#000000;fill:#4d4d4d;fill-opacity:1;stroke-width:0.411432;stroke-linecap:round;stroke-linejoin:round;stroke-miterlimit:4;stroke-dasharray:none"
           d="m 36.587354,288.79875 a 0.2645835,0.2645835 0 0 0 -0.263672,0.26563 0.2645835,0.2645835 0 0 0 0.263672,0.26367 0.2645835,0.2645835 0 0 0 0.265625,-0.26367 0.2645835,0.2645835 0 0 0 -0.265625,-0.26563 z"
           id="path2929" />
        <path
           style="color:#000000;fill:#f0517a;stroke-width:0.777509;stroke-linecap:round;stroke-linejoin:round;-inkscape-stroke:none"
           d="m 38.970703,284.32812 c -0.14542,-5.8e-4 -0.264052,0.11631 -0.265625,0.26172 -0.0017,0.14618 0.115538,0.26601 0.261719,0.26758 0.720821,0.006 1.457069,0.21103 2.107422,0.58789 0.127158,0.0742 0.290432,0.0303 0.363281,-0.0976 0.07286,-0.12674 0.02913,-0.28855 -0.09766,-0.36133 -0.727798,-0.42174 -1.551031,-0.65191 -2.369141,-0.65821 z m 2.994141,1.79686 c 0.180621,0.17939 0.346759,0.37723 0.49414,0.58984 0.0834,0.12059 0.24895,0.15037 0.369141,0.0664 0.120591,-0.0834 0.150375,-0.24895 0.06641,-0.36914 -0.166192,-0.23975 -0.353714,-0.46056 -0.55664,-0.66211 -0.172589,-0.10984 -0.209014,-0.0671 -0.342321,0.019 -0.133307,0.0861 -0.133307,0.25278 -0.03073,0.35598 z"
           id="path8954"
           sodipodi:nodetypes="ccccccccccccccc" />
        <path
           style="color:#000000;fill:#fca311;stroke-width:0.777509;stroke-linecap:round;stroke-linejoin:round;-inkscape-stroke:none"
           d="m 32.335937,282.69531 c -0.889652,0.88967 -1.014635,2.25989 -0.367187,3.28321 0.124811,0.19726 0.34151,0.30532 0.548828,0.3125 0.207318,0.007 0.411795,-0.0739 0.566406,-0.22852 l 2.619141,-2.61914 c 0.154622,-0.15462 0.235714,-0.36103 0.228516,-0.56836 -0.0072,-0.20733 -0.115218,-0.42206 -0.3125,-0.54688 -1.106305,-0.63462 -2.462149,-0.43236 -3.283204,0.36719 z"
           id="path510711"
           sodipodi:nodetypes="cscccscc" />
        <path
           style="color:#000000;fill:#fec872;stroke-width:0.777509;stroke-linecap:round;stroke-linejoin:round;-inkscape-stroke:none"
           d="m 34.076172,283 c -0.702826,0.70279 -0.893646,0.89365 -1.365235,1.36523 a 0.2645835,0.2645835 0 0 0 0,0.37305 0.2645835,0.2645835 0 0 0 0.373047,0 c 0.471599,-0.47159 0.662416,-0.66245 1.365235,-1.36523 a 0.2645835,0.2645835 0 0 0 0,-0.37305 0.2645835,0.2645835 0 0 0 -0.373047,0 z"
           id="path9279" />
        <path
           style="color:#000000;fill:#4d4d4d;stroke-width:0.777509;stroke-linecap:round;stroke-linejoin:round;-inkscape-stroke:none"
           d="m 32.443359,281.40625 a 0.2645835,0.2645835 0 0 0 -0.203125,0.01 c -0.542655,0.25927 -0.976783,0.70444 -1.263672,1.25976 a 0.2645835,0.2645835 0 0 0 0.113282,0.35742 0.2645835,0.2645835 0 0 0 0.357422,-0.11328 c 0.240183,-0.46492 0.592206,-0.82028 1.021484,-1.02539 a 0.2645835,0.2645835 0 0 0 0.125,-0.35351 0.2645835,0.2645835 0 0 0 -0.150391,-0.13477 z"
           id="path11686" />
        <path
           style="color:#000000;fill:#fca311;stroke-width:0.777509;stroke-linecap:round;stroke-linejoin:round;-inkscape-stroke:none"
           d="m 44.011719,281.93555 c -0.581853,-0.0614 -1.181709,0.0689 -1.69336,0.39257 -0.197282,0.12482 -0.303348,0.33955 -0.310547,0.54688 -0.0072,0.20733 0.07194,0.41374 0.226563,0.56836 l 2.621094,2.61914 c 0.154611,0.15462 0.359088,0.23569 0.566406,0.22852 0.207318,-0.007 0.422064,-0.11524 0.546875,-0.3125 0.647448,-1.02332 0.524419,-2.39354 -0.365234,-3.28321 -0.444817,-0.44481 -1.009945,-0.69838 -1.591797,-0.75976 z"
           id="path510903" />
        <path
           style="color:#000000;fill:#fec872;stroke-width:0.777509;stroke-linecap:round;stroke-linejoin:round;-inkscape-stroke:none"
           d="m 43.490234,283 a 0.2645835,0.2645835 0 0 0 0,0.37305 c 0.702819,0.70278 0.891683,0.89364 1.363282,1.36523 a 0.2645835,0.2645835 0 0 0 0.375,0 0.2645835,0.2645835 0 0 0 0,-0.37305 C 44.756927,283.89365 44.566107,283.70279 43.863281,283 a 0.2645835,0.2645835 0 0 0 -0.373047,0 z"
           id="path1955" />
        <path
           style="color:#000000;fill:#4d4d4d;stroke-width:0.777509;stroke-linecap:round;stroke-linejoin:round;-inkscape-stroke:none"
           d="m 45.496094,281.40625 a 0.2645835,0.2645835 0 0 0 -0.150391,0.13477 0.2645835,0.2645835 0 0 0 0.125,0.35351 c 0.429278,0.20511 0.781301,0.56047 1.021484,1.02539 a 0.2645835,0.2645835 0 0 0 0.355469,0.11328 0.2645835,0.2645835 0 0 0 0.115235,-0.35742 c -0.286888,-0.55532 -0.72297,-1.00049 -1.265625,-1.25976 a 0.2645835,0.2645835 0 0 0 -0.201172,-0.01 z"
           id="path1957" />
        <path
           style="color:#000000;fill:#4d4d4d;stroke-width:0.777509;stroke-linecap:round;stroke-linejoin:round;-inkscape-stroke:none"
           d="m 32.439453,290.13672 a 0.2645835,0.2645835 0 0 0 -0.208984,0.31055 c 0.177775,0.90771 0.560384,1.72351 1.03125,2.45703 a 0.2645835,0.2645835 0 0 0 0.367187,0.0801 0.2645835,0.2645835 0 0 0 0.07813,-0.36523 C 33.261964,291.92582 32.911669,291.17118 32.75,290.3457 a 0.2645835,0.2645835 0 0 0 -0.310547,-0.20898 z m 13.068359,0.002 a 0.2645835,0.2645835 0 0 0 -0.316406,0.19727 c -0.184632,0.80208 -0.478058,1.5831 -0.955078,2.27539 a 0.2645835,0.2645835 0 0 0 0.06641,0.36719 0.2645835,0.2645835 0 0 0 0.369141,-0.0664 c 0.524761,-0.76157 0.839849,-1.60858 1.035156,-2.45703 a 0.2645835,0.2645835 0 0 0 -0.199219,-0.31641 z"
           id="path2553" />
        <path
           id="path142856"
           style="color:#000000;fill:#e38f03;fill-opacity:1;stroke-width:0.777509;stroke-linecap:round;stroke-linejoin:round;-inkscape-stroke:none"
           d="m 33.927646,281.93581 c -0.581853,0.0614 -1.146818,0.31483 -1.591635,0.75964 -0.08982,0.0898 -0.171757,0.18442 -0.245978,0.28319 0.390403,-0.29333 0.844081,-0.46466 1.308446,-0.51367 0.581854,-0.0614 1.179719,0.0685 1.691371,0.39223 0.197281,0.12482 0.30544,0.3394 0.312642,0.54673 0.0072,0.20733 -0.07379,0.41382 -0.22841,0.56844 l 0.529167,-0.52916 c 0.15462,-0.15462 0.235606,-0.36111 0.228409,-0.56844 -0.0072,-0.20733 -0.115361,-0.42192 -0.312642,-0.54674 -0.59409,-0.31414 -1.097239,-0.43011 -1.69137,-0.39222 z"
           sodipodi:nodetypes="ccccsscsscc" />
        <path
           id="path148637"
           style="color:#000000;fill:#e38f03;fill-opacity:1;stroke-width:0.777509;stroke-linecap:round;stroke-linejoin:round;-inkscape-stroke:none"
           d="m 38.439514,281.12499 c -0.354944,0 -0.65823,0.23947 -0.758092,0.56379 0.07266,-0.0223 0.149379,-0.0346 0.228926,-0.0346 h 1.058333 c 0.435245,0 0.795303,0.35954 0.7953,0.79478 0,0.0793 -0.01193,0.15645 -0.0341,0.22893 0.324083,-0.10001 0.563268,-0.40332 0.563271,-0.75809 3e-6,-0.43524 -0.360055,-0.79479 -0.7953,-0.79479 z" />
        <path
           id="path149736"
           style="color:#000000;fill:#e38f03;fill-opacity:1;stroke-width:0.777509;stroke-linecap:round;stroke-linejoin:round;-inkscape-stroke:none"
           d="m 42.318348,282.32802 c -0.148621,0.094 -0.245506,0.2393 -0.287321,0.39378 0.453842,-0.22367 0.959157,-0.3088 1.451591,-0.25684 0.581853,0.0614 1.146818,0.31484 1.591636,0.75965 0.821589,0.8216 0.989293,2.05313 0.500226,3.04271 0.154668,-0.0423 0.300162,-0.14011 0.39429,-0.28888 0.647449,-1.02332 0.524301,-2.39333 -0.36535,-3.283 -0.444817,-0.44481 -1.009782,-0.69826 -1.591635,-0.75964 -0.581624,-0.0575 -1.267074,0.12911 -1.693437,0.39222 z"
           sodipodi:nodetypes="ccscccccc" />
        <path
           id="path151258"
           style="color:#000000;fill:#b01d47;fill-opacity:1;stroke-width:0.777509;stroke-linecap:round;stroke-linejoin:round;-inkscape-stroke:none"
           d="m 38.968681,283.24218 c -1.740278,0 -3.303191,0.76587 -4.370276,1.97869 1.025368,-0.90209 2.369857,-1.44953 3.841109,-1.44953 3.211619,10e-6 5.822379,2.6087 5.822384,5.82032 0,1.47138 -0.548407,2.8163 -1.451073,3.84214 1.213295,-1.06761 1.98024,-2.63106 1.98024,-4.37131 -5e-6,-3.21162 -2.610766,-5.8203 -5.822384,-5.82031 z" />
        <path
           id="path157317"
           style="color:#000000;fill:#333333;fill-opacity:1;stroke-width:2.93862;stroke-linecap:round;stroke-linejoin:round;-inkscape-stroke:none"
           d="m 136.77342,24.898445 c 0.53799,-0.413303 1.10575,-0.790093 1.70117,-1.123047 l -0.34764,-0.349617 c -0.51533,0.428685 -0.96924,0.924828 -1.41413,1.412114 z m 17.67385,0.527336 c 0.50431,0.437163 0.97853,0.90812 1.41601,1.41211 0.67232,-0.672314 1.34243,-1.342425 2,-2 -0.43532,-0.515755 -0.92749,-0.965894 -1.41596,-1.41211 z m 1.99805,19.154293 c 0.50955,-0.428207 0.978,-0.940232 1.41798,-1.417965 L 157.51367,42.8125 c -0.3345,0.598013 -0.71147,1.168918 -1.12695,1.708984 z"
           transform="matrix(0.26458334,0,0,0.26458334,0,280.06666)"
           sodipodi:nodetypes="ccccccccccccccc" />
      </g>
    </g>
  </g>
</svg>
