<?xml version="1.0" encoding="UTF-8" standalone="no"?>
<svg
   xmlns:dc="http://purl.org/dc/elements/1.1/"
   xmlns:cc="http://creativecommons.org/ns#"
   xmlns:rdf="http://www.w3.org/1999/02/22-rdf-syntax-ns#"
   xmlns:svg="http://www.w3.org/2000/svg"
   xmlns="http://www.w3.org/2000/svg"
   xmlns:sodipodi="http://sodipodi.sourceforge.net/DTD/sodipodi-0.dtd"
   xmlns:inkscape="http://www.inkscape.org/namespaces/inkscape"
   inkscape:export-ydpi="768"
   inkscape:export-xdpi="768"
   inkscape:export-filename="E:\TR Design Studio Creative\Project Design\TR Creative Design\Icon Design\Project Hiring\Icon Icons\005 - Crime And Security\Send\3 - Flat\23 - Murner.png"
   sodipodi:docname="23 - Murner.svg"
   inkscape:version="0.92.4 (5da689c313, 2019-01-14)"
   id="svg979"
   version="1.1"
   viewBox="0 0 16.933334 16.933333"
   height="48pt"
   width="48pt">
  <defs
     id="defs973" />
  <sodipodi:namedview
     inkscape:snap-nodes="false"
     inkscape:bbox-nodes="true"
     inkscape:snap-bbox="true"
     inkscape:snap-global="true"
     inkscape:document-rotation="0"
     inkscape:window-maximized="1"
     inkscape:window-y="-8"
     inkscape:window-x="-8"
     inkscape:window-height="716"
     inkscape:window-width="1366"
     units="pt"
     showgrid="false"
     inkscape:current-layer="layer1"
     inkscape:document-units="pt"
     inkscape:cy="32"
     inkscape:cx="32"
     inkscape:zoom="8.078125"
     inkscape:pageshadow="2"
     inkscape:pageopacity="0.0"
     borderopacity="1.0"
     bordercolor="#666666"
     pagecolor="#ffffff"
     id="base"
     showguides="false">
    <inkscape:grid
       id="grid1526"
       type="xygrid" />
    <sodipodi:guide
       inkscape:locked="false"
       id="guide1528"
       orientation="56.666615,0"
       position="0.97013909,15.963209" />
    <sodipodi:guide
       inkscape:locked="false"
       id="guide1530"
       orientation="0,56.666667"
       position="0.97013909,0.97016731" />
    <sodipodi:guide
       inkscape:locked="false"
       id="guide1532"
       orientation="-56.666615,0"
       position="15.963195,0.97016731" />
    <sodipodi:guide
       inkscape:locked="false"
       id="guide1534"
       orientation="0,-56.666667"
       position="15.963195,15.963209" />
  </sodipodi:namedview>
  <metadata
     id="metadata976">
    <rdf:RDF>
      <cc:Work
         rdf:about="">
        <dc:format>image/svg+xml</dc:format>
        <dc:type
           rdf:resource="http://purl.org/dc/dcmitype/StillImage" />
        <dc:title></dc:title>
      </cc:Work>
    </rdf:RDF>
  </metadata>
  <g
     transform="translate(0,-280.06668)"
     id="layer1"
     inkscape:groupmode="layer"
     inkscape:label="Layer 1">
    <g
       id="g13923"
       transform="matrix(1.2319633,0,0,1.2319633,-1.3788726,-67.191424)">
      <path
         inkscape:connector-curvature="0"
         id="path2443"
         d="m 6.3711838,283.64778 -0.410156,0.0273 h 0.017579 c -0.9252879,-3e-5 -1.6797109,0.7544 -1.6796859,1.67968 a 0.26460979,0.26460979 0 0 0 0,0.002 c 3.492e-4,0.0917 0.01208,0.1831 0.02734,0.27344 -0.360424,0.3693 -0.644575,0.82156 -0.644531,1.34374 a 0.26460979,0.26460979 0 0 0 0,0.002 c 0.0023,0.67142 0.344819,1.29686 0.908203,1.66211 a 0.26460979,0.26460979 0 0 0 0.171875,0.041 l 1.316407,-0.14451 a 0.26460979,0.26460979 0 0 0 0.210937,-0.15429 l 1.2539059,-2.78711 a 0.26460979,0.26460979 0 0 0 -0.011721,-0.24219 l -0.9140619,-1.57229 a 0.26460979,0.26460979 0 0 0 -0.246094,-0.13086 z"
         style="color:#000000;font-style:normal;font-variant:normal;font-weight:normal;font-stretch:normal;font-size:medium;line-height:normal;font-family:sans-serif;font-variant-ligatures:normal;font-variant-position:normal;font-variant-caps:normal;font-variant-numeric:normal;font-variant-alternates:normal;font-feature-settings:normal;text-indent:0;text-align:start;text-decoration:none;text-decoration-line:none;text-decoration-style:solid;text-decoration-color:#000000;letter-spacing:normal;word-spacing:normal;text-transform:none;writing-mode:lr-tb;direction:ltr;text-orientation:mixed;dominant-baseline:auto;baseline-shift:baseline;text-anchor:start;white-space:normal;shape-padding:0;clip-rule:nonzero;display:inline;overflow:visible;visibility:visible;opacity:1;isolation:auto;mix-blend-mode:normal;color-interpolation:sRGB;color-interpolation-filters:linearRGB;solid-color:#000000;solid-opacity:1;vector-effect:none;fill:#dc1c4b;fill-opacity:1;fill-rule:nonzero;stroke:none;stroke-width:0.52916664;stroke-linecap:round;stroke-linejoin:round;stroke-miterlimit:4;stroke-dasharray:none;stroke-dashoffset:0;stroke-opacity:1;color-rendering:auto;image-rendering:auto;shape-rendering:auto;text-rendering:auto;enable-background:accumulate" />
      <path
         inkscape:connector-curvature="0"
         id="path2439"
         d="m 10.089934,282.66145 c -0.6337371,-5e-5 -1.1670831,0.37969 -1.4726562,0.91797 -0.1213998,-0.0358 -0.239794,-0.0838 -0.3671869,-0.084 -0.164002,3.2e-4 -0.3276449,0.0304 -0.4804691,0.0898 a 0.26460979,0.26460979 0 0 0 -0.1582031,0.17188 l -0.4785159,1.625 a 0.26460979,0.26460979 0 0 0 0.0039,0.16211 l 1.3925791,3.95703 a 0.26460979,0.26460979 0 0 0 0.2363279,0.17578 l 0.7285152,0.0391 h 0.0059 a 0.26460979,0.26460979 0 0 0 0.013671,0 0.26460979,0.26460979 0 0 0 0.07422,-0.01 c 1.101045,-0.0136 1.844284,-0.27489 2.289063,-0.75391 0.456523,-0.49167 0.574218,-1.1546 0.574218,-1.83594 a 0.26460979,0.26460979 0 0 0 -0.0039,-0.0527 l -0.226562,-1.11719 a 0.26460979,0.26460979 0 0 0 -0.01953,-0.0625 c -0.138377,-0.29264 -0.35397,-0.53542 -0.585939,-0.75976 0.111308,-0.22782 0.216785,-0.46303 0.216797,-0.73243 -4.3e-5,-0.95292 -0.784743,-1.73027 -1.742188,-1.73047 z"
         style="color:#000000;font-style:normal;font-variant:normal;font-weight:normal;font-stretch:normal;font-size:medium;line-height:normal;font-family:sans-serif;font-variant-ligatures:normal;font-variant-position:normal;font-variant-caps:normal;font-variant-numeric:normal;font-variant-alternates:normal;font-feature-settings:normal;text-indent:0;text-align:start;text-decoration:none;text-decoration-line:none;text-decoration-style:solid;text-decoration-color:#000000;letter-spacing:normal;word-spacing:normal;text-transform:none;writing-mode:lr-tb;direction:ltr;text-orientation:mixed;dominant-baseline:auto;baseline-shift:baseline;text-anchor:start;white-space:normal;shape-padding:0;clip-rule:nonzero;display:inline;overflow:visible;visibility:visible;opacity:1;isolation:auto;mix-blend-mode:normal;color-interpolation:sRGB;color-interpolation-filters:linearRGB;solid-color:#000000;solid-opacity:1;vector-effect:none;fill:#dc1c4b;fill-opacity:1;fill-rule:nonzero;stroke:none;stroke-width:0.52916664;stroke-linecap:round;stroke-linejoin:round;stroke-miterlimit:4;stroke-dasharray:none;stroke-dashoffset:0;stroke-opacity:1;color-rendering:auto;image-rendering:auto;shape-rendering:auto;text-rendering:auto;enable-background:accumulate" />
      <path
         inkscape:connector-curvature="0"
         id="path2610"
         d="m 8.7378693,283.39278 c -0.043146,0.0598 -0.083632,0.12178 -0.1204039,0.18655 -0.1214014,-0.0358 -0.2400274,-0.0835 -0.3674216,-0.0837 -0.164002,3.1e-4 -0.3277659,0.03 -0.4805892,0.0894 a 0.26460979,0.26460979 0 0 0 -0.1581309,0.17208 l -0.4785227,1.62522 a 0.26460979,0.26460979 0 0 0 0.00413,0.16175 l 1.3926793,3.95738 a 0.26460979,0.26460979 0 0 0 0.2361618,0.1757 l 0.7286387,0.0388 h 0.00569 a 0.26460979,0.26460979 0 0 0 0.013943,0 0.26460979,0.26460979 0 0 0 0.073895,-0.01 c 0.3186403,-0.004 0.6038852,-0.0313 0.8640312,-0.076 -0.01622,-0.37488 -0.01468,-0.75405 -0.01034,-1.13533 a 0.64539657,0.64539657 0 0 0 0.0098,0 c 0.0093,-5.3e-4 0.01762,-0.003 0.02687,-0.004 0.802235,-0.061 1.335384,-0.22392 1.873271,-0.45579 0.07245,-0.29246 0.09973,-0.60326 0.09973,-0.9188 a 0.26460979,0.26460979 0 0 0 -0.0041,-0.0527 l -0.226348,-1.1167 a 0.26460979,0.26460979 0 0 0 -0.01963,-0.0625 c -0.134461,-0.28436 -0.342429,-0.52149 -0.566891,-0.74052 l -1.194758,0.31987 c -0.407122,0.0473 -0.8056584,0.0332 -1.1213804,0.008 0.020055,-0.12851 0.091924,-0.24388 0.091985,-0.37517 1.33e-5,-0.64895 -0.2536348,-1.26068 -0.6723115,-1.70326 z"
         style="color:#000000;font-style:normal;font-variant:normal;font-weight:normal;font-stretch:normal;font-size:medium;line-height:normal;font-family:sans-serif;font-variant-ligatures:normal;font-variant-position:normal;font-variant-caps:normal;font-variant-numeric:normal;font-variant-alternates:normal;font-feature-settings:normal;text-indent:0;text-align:start;text-decoration:none;text-decoration-line:none;text-decoration-style:solid;text-decoration-color:#000000;letter-spacing:normal;word-spacing:normal;text-transform:none;writing-mode:lr-tb;direction:ltr;text-orientation:mixed;dominant-baseline:auto;baseline-shift:baseline;text-anchor:start;white-space:normal;shape-padding:0;clip-rule:nonzero;display:inline;overflow:visible;visibility:visible;opacity:1;isolation:auto;mix-blend-mode:normal;color-interpolation:sRGB;color-interpolation-filters:linearRGB;solid-color:#000000;solid-opacity:1;vector-effect:none;fill:#b31e48;fill-opacity:1;fill-rule:nonzero;stroke:none;stroke-width:0.529167;stroke-linecap:round;stroke-linejoin:round;stroke-miterlimit:4;stroke-dasharray:none;stroke-dashoffset:0;stroke-opacity:1;color-rendering:auto;image-rendering:auto;shape-rendering:auto;text-rendering:auto;enable-background:accumulate" />
      <path
         inkscape:connector-curvature="0"
         id="path2602"
         d="m 6.3710894,283.64754 -0.4103106,0.0274 h 0.017568 c -0.2413291,-10e-6 -0.4702677,0.0524 -0.6779948,0.1447 -0.2230067,0.37606 -0.350893,0.81743 -0.3508824,1.27744 5.291e-4,0.75 0.3664452,1.2827 0.4196106,1.40043 0.04169,0.1074 0.052821,0.0938 -0.1426263,0.34365 -0.1792446,0.22916 -0.5482987,0.53024 -0.8945192,0.75757 -0.00212,0.001 -0.0036,0.003 -0.00569,0.004 l -0.4335675,0.2496 c 0.1566413,0.31461 0.393372,0.58856 0.6971163,0.78548 a 0.26460979,0.26460979 0 0 0 0.1720823,0.0413 l 1.3161989,-0.14469 a 0.26460979,0.26460979 0 0 0 0.2108412,-0.15451 L 7.5431018,285.593 a 0.26460979,0.26460979 0 0 0 -0.01188,-0.24237 L 6.6170672,283.7788 a 0.26460979,0.26460979 0 0 0 -0.2459805,-0.13126 z"
         style="color:#000000;font-style:normal;font-variant:normal;font-weight:normal;font-stretch:normal;font-size:medium;line-height:normal;font-family:sans-serif;font-variant-ligatures:normal;font-variant-position:normal;font-variant-caps:normal;font-variant-numeric:normal;font-variant-alternates:normal;font-feature-settings:normal;text-indent:0;text-align:start;text-decoration:none;text-decoration-line:none;text-decoration-style:solid;text-decoration-color:#000000;letter-spacing:normal;word-spacing:normal;text-transform:none;writing-mode:lr-tb;direction:ltr;text-orientation:mixed;dominant-baseline:auto;baseline-shift:baseline;text-anchor:start;white-space:normal;shape-padding:0;clip-rule:nonzero;display:inline;overflow:visible;visibility:visible;opacity:1;isolation:auto;mix-blend-mode:normal;color-interpolation:sRGB;color-interpolation-filters:linearRGB;solid-color:#000000;solid-opacity:1;vector-effect:none;fill:#b31e48;fill-opacity:1;fill-rule:nonzero;stroke:none;stroke-width:0.529167;stroke-linecap:round;stroke-linejoin:round;stroke-miterlimit:4;stroke-dasharray:none;stroke-dashoffset:0;stroke-opacity:1;color-rendering:auto;image-rendering:auto;shape-rendering:auto;text-rendering:auto;enable-background:accumulate" />
      <path
         inkscape:connector-curvature="0"
         id="path2435"
         d="m 7.1797777,283.35286 c -0.889726,3e-5 -1.5859579,0.79932 -1.5859369,1.74414 4.551e-4,0.55386 0.267361,0.90214 0.376953,1.16602 0.1313209,0.33959 0.024469,0.64314 -0.2363279,0.97656 -0.2607941,0.33342 -0.6740831,0.65319 -1.0546881,0.90234 l -1.320312,0.76172 c -0.3881441,0.22411 -0.5228041,0.72925 -0.2988281,1.11719 0.224022,0.38804 0.727065,0.52294 1.1152341,0.29883 a 0.26460995,0.26460995 0 0 0 0.02344,-0.0137 c 0.514077,-0.36978 1.267321,-0.72032 1.855469,-1.1543 0.172821,0.39008 0.3631541,0.75685 0.2675781,1.13281 l 0.0098,-0.0332 c -0.3822631,0.95775 -0.4099841,1.77995 -0.416016,2.72461 -0.1442361,0.0968 -0.5351561,0.35742 -0.5351561,0.35742 -0.372014,0.24987 -0.474636,0.76156 -0.2265619,1.13477 0.2481689,0.37331 0.7606199,0.47655 1.132812,0.22656 a 0.26460995,0.26460995 0 0 0 0.017579,-0.0137 c 0.13306,-0.10561 0.4151151,-0.25611 0.671875,-0.4336 0.12838,-0.0887 0.2538121,-0.18594 0.3574222,-0.30664 0.1036097,-0.12069 0.1903589,-0.27576 0.1953127,-0.46094 l 0.09961,-1.36132 0.220703,-0.82618 c 0.325583,0.037 0.636788,0.0256 0.9003911,-0.0449 l 0.7539059,0.80078 -0.03906,1.16211 c -0.012599,0.39058 0.2550829,0.73063 0.6230472,0.82032 0.271212,0.12169 0.551784,0.20508 0.802735,0.29101 0.424145,0.14504 0.893997,-0.0867 1.037109,-0.51172 0.143088,-0.42484 -0.08753,-0.89198 -0.511719,-1.03711 l -0.298828,-0.10351 0.01758,-0.86328 c 0.0078,-0.36547 -0.220836,-0.59832 -0.318359,-0.74219 a 0.26460995,0.26460995 0 0 0 -0.02734,-0.0352 c -0.319555,-0.33521 -0.647191,-0.69115 -0.9765623,-1.02734 -0.05125,-0.70916 -0.04148,-1.48952 -0.023439,-2.14844 l 0.6210943,-0.002 a 0.26460995,0.26460995 0 0 0 0.01953,-0.002 c 0.92969,-0.0706 1.360151,-0.24859 2.039063,-0.57226 a 0.26460995,0.26460995 0 0 0 0.0332,-0.0195 c 0.163765,-0.10841 0.309017,-0.22547 0.412109,-0.38672 0.103091,-0.16125 0.144883,-0.38011 0.08594,-0.58399 -0.122764,-0.42459 -0.56698,-0.6883 -1,-0.57226 l -1.457032,0.39062 c -0.5565871,0.0676 -1.1747881,0.0751 -1.5859372,0.006 -0.2063339,-0.0347 -0.3581979,-0.0966 -0.4023439,-0.13086 -0.011041,-0.009 -0.0054,-0.002 -0.0059,-0.002 -1.341e-4,-10e-5 -0.0023,-5.8e-4 -0.00201,0 7.673e-4,0.001 -0.0051,-0.007 -0.0039,-0.002 0.00201,0.008 0.0051,-3.5e-4 0.0059,-0.002 0.141423,-0.26753 0.2166729,-0.56953 0.216797,-0.87695 1.9e-5,-0.94509 -0.6961802,-1.74416 -1.585938,-1.74414 z"
         style="color:#000000;font-style:normal;font-variant:normal;font-weight:normal;font-stretch:normal;font-size:medium;line-height:normal;font-family:sans-serif;font-variant-ligatures:normal;font-variant-position:normal;font-variant-caps:normal;font-variant-numeric:normal;font-variant-alternates:normal;font-feature-settings:normal;text-indent:0;text-align:start;text-decoration:none;text-decoration-line:none;text-decoration-style:solid;text-decoration-color:#000000;letter-spacing:normal;word-spacing:normal;text-transform:none;writing-mode:lr-tb;direction:ltr;text-orientation:mixed;dominant-baseline:auto;baseline-shift:baseline;text-anchor:start;white-space:normal;shape-padding:0;clip-rule:nonzero;display:inline;overflow:visible;visibility:visible;opacity:1;isolation:auto;mix-blend-mode:normal;color-interpolation:sRGB;color-interpolation-filters:linearRGB;solid-color:#000000;solid-opacity:1;vector-effect:none;fill:#f0bd9e;fill-opacity:1;fill-rule:nonzero;stroke:none;stroke-width:0.529167;stroke-linecap:round;stroke-linejoin:round;stroke-miterlimit:4;stroke-dasharray:none;stroke-dashoffset:0;stroke-opacity:1;color-rendering:auto;image-rendering:auto;shape-rendering:auto;text-rendering:auto;enable-background:accumulate" />
      <path
         inkscape:connector-curvature="0"
         id="path66545"
         d="m 7.1524338,287.8138 a 0.26460995,0.26460995 0 0 0 -0.1503899,0.48437 l 1.3789059,0.94336 a 0.26490776,0.26490776 0 1 0 0.2988281,-0.4375 l -1.3789059,-0.9414 a 0.26460995,0.26460995 0 0 0 -0.1484382,-0.0488 z"
         style="color:#000000;font-style:normal;font-variant:normal;font-weight:normal;font-stretch:normal;font-size:medium;line-height:normal;font-family:sans-serif;font-variant-ligatures:normal;font-variant-position:normal;font-variant-caps:normal;font-variant-numeric:normal;font-variant-alternates:normal;font-feature-settings:normal;text-indent:0;text-align:start;text-decoration:none;text-decoration-line:none;text-decoration-style:solid;text-decoration-color:#000000;letter-spacing:normal;word-spacing:normal;text-transform:none;writing-mode:lr-tb;direction:ltr;text-orientation:mixed;dominant-baseline:auto;baseline-shift:baseline;text-anchor:start;white-space:normal;shape-padding:0;clip-rule:nonzero;display:inline;overflow:visible;visibility:visible;opacity:1;isolation:auto;mix-blend-mode:normal;color-interpolation:sRGB;color-interpolation-filters:linearRGB;solid-color:#000000;solid-opacity:1;vector-effect:none;fill:#143441;fill-opacity:1;fill-rule:nonzero;stroke:none;stroke-width:0.529167;stroke-linecap:round;stroke-linejoin:round;stroke-miterlimit:4;stroke-dasharray:none;stroke-dashoffset:0;stroke-opacity:1;color-rendering:auto;image-rendering:auto;shape-rendering:auto;text-rendering:auto;enable-background:accumulate" />
      <path
         inkscape:connector-curvature="0"
         id="path66547"
         d="m 8.2110278,287.56966 a 0.26460995,0.26460995 0 0 0 -0.2089841,0.13281 l -0.7949218,1.35742 a 0.26480011,0.26480011 0 1 0 0.4570309,0.26758 L 8.4590749,287.972 a 0.26460995,0.26460995 0 0 0 -0.2480471,-0.40234 z"
         style="color:#000000;font-style:normal;font-variant:normal;font-weight:normal;font-stretch:normal;font-size:medium;line-height:normal;font-family:sans-serif;font-variant-ligatures:normal;font-variant-position:normal;font-variant-caps:normal;font-variant-numeric:normal;font-variant-alternates:normal;font-feature-settings:normal;text-indent:0;text-align:start;text-decoration:none;text-decoration-line:none;text-decoration-style:solid;text-decoration-color:#000000;letter-spacing:normal;word-spacing:normal;text-transform:none;writing-mode:lr-tb;direction:ltr;text-orientation:mixed;dominant-baseline:auto;baseline-shift:baseline;text-anchor:start;white-space:normal;shape-padding:0;clip-rule:nonzero;display:inline;overflow:visible;visibility:visible;opacity:1;isolation:auto;mix-blend-mode:normal;color-interpolation:sRGB;color-interpolation-filters:linearRGB;solid-color:#000000;solid-opacity:1;vector-effect:none;fill:#143441;fill-opacity:1;fill-rule:nonzero;stroke:none;stroke-width:0.529167;stroke-linecap:round;stroke-linejoin:round;stroke-miterlimit:4;stroke-dasharray:none;stroke-dashoffset:0;stroke-opacity:1;color-rendering:auto;image-rendering:auto;shape-rendering:auto;text-rendering:auto;enable-background:accumulate" />
      <path
         sodipodi:nodetypes="cccccccccccccccccccccccscccccccccccccccccccccccccccccccccccccccccccccccccccc"
         inkscape:connector-curvature="0"
         id="path2621"
         d="m 7.1840219,283.35267 v 5.3e-4 c -0.09009,0 -0.177954,0.0101 -0.263552,0.0258 0.758503,0.14058 1.320351,0.8698 1.3203349,1.71824 -1.249e-4,0.30742 -0.07562,0.60942 -0.2170409,0.87695 -7.937e-4,0.002 -0.0037,0.01 -0.0057,0.002 -0.0013,-0.005 0.0044,0.003 0.0036,0.002 -2.646e-4,-5.8e-4 0.0019,-10e-5 0.00209,0 5.291e-4,0 -0.0054,-0.007 0.0057,0.002 0.04415,0.0343 0.1962251,0.096 0.402558,0.13074 0.2617441,0.044 0.6091981,0.0541 0.9694521,0.0403 -0.160097,-0.007 -0.312238,-0.0188 -0.4402852,-0.0403 -0.2063329,-0.0347 -0.3584128,-0.0965 -0.4025588,-0.13074 -0.01103,-0.009 -0.0052,-0.002 -0.0057,-0.002 -1.349e-4,-10e-5 -0.00241,-5.8e-4 -0.00209,0 7.938e-4,0.001 -0.0048,-0.007 -0.0036,-0.002 0.00209,0.008 0.0049,1e-4 0.0057,-0.002 0.1414221,-0.26753 0.216916,-0.56953 0.21704,-0.87695 1.91e-5,-0.94509 -0.6961931,-1.74462 -1.585949,-1.7446 z m 3.2499351,4.49615 c 0.929691,-0.0706 1.360242,-0.2489 2.039152,-0.57257 0.01147,-0.006 0.02252,-0.012 0.03307,-0.0191 0.163766,-0.10841 0.308769,-0.22581 0.411861,-0.38706 0.103092,-0.16125 0.145246,-0.38006 0.0863,-0.58394 -0.107422,-0.37152 -0.460884,-0.61987 -0.837677,-0.59841 l -10e-7,1.9e-4 c -0.05383,0.003 -0.108138,0.0118 -0.162264,0.0263 l -0.06149,0.0165 c 0.24938,0.085 0.454914,0.28799 0.532267,0.55552 0.05894,0.20388 0.0168,0.4227 -0.0863,0.58394 -0.103093,0.16125 -0.248095,0.27865 -0.411861,0.38706 -0.01055,0.007 -0.0216,0.0135 -0.03307,0.0191 -0.678911,0.32367 -1.109462,0.50198 -2.0391517,0.57257 l -0.111615,0.004 c -0.018039,0.65891 -0.02799,1.43902 0.02326,2.14818 0.3293687,0.33619 0.6571297,0.69212 0.9766827,1.02733 0.0101,0.0109 0.01929,0.0226 0.02739,0.0351 0.09752,0.14387 0.326125,0.3766 0.318325,0.74207 l -0.01757,0.86352 0.298688,0.10335 c 0.424194,0.14513 0.655203,0.61231 0.512114,1.03715 -0.143113,0.42501 -0.613,0.65715 -1.037145,0.51211 -0.0029,-10e-4 -0.0063,-0.002 -0.0093,-0.003 0.23444,-0.0789 0.433112,-0.25904 0.517282,-0.50901 0.143089,-0.42484 -0.08792,-0.89202 -0.512114,-1.03715 l -0.298688,-0.10335 0.01757,-0.86351 c 0.0078,-0.36547 -0.220806,-0.59821 -0.318326,-0.74208 -0.0081,-0.0125 -0.01729,-0.0242 -0.02739,-0.0351 -0.3195529,-0.33521 -0.647314,-0.69113 -0.9766829,-1.02732 -0.05126,-0.70916 -0.04131,-1.48927 -0.02326,-2.14819 z m -4.3791762,1.30284 c -0.03876,-0.0899 -0.08012,-0.18075 -0.1209231,-0.27285 -0.5881499,0.43398 -1.7456229,1.05766 -2.2597009,1.42744 -0.0075,0.005 -0.01528,0.009 -0.02326,0.0134 -0.04451,0.0257 -0.09104,0.0456 -0.137975,0.062 0.214829,0.0721 0.4572029,0.0592 0.6671419,-0.062 z m 1.269801,2.14053 -0.2206598,0.8263 -0.09973,1.36116 c -0.0049,0.18518 -0.09173,0.34027 -0.1953361,0.46095 -0.1036108,0.12071 -0.2287029,0.21826 -0.3570848,0.30696 -0.2567591,0.17749 -0.5392492,0.32796 -0.67231,0.43357 -0.0057,0.005 -0.011531,0.009 -0.017571,0.0134 -0.05907,0.0397 -0.1220348,0.0677 -0.1865519,0.0899 0.2328731,0.0791 0.497816,0.0564 0.7157191,-0.0899 0.006,-0.004 0.011901,-0.009 0.017571,-0.0134 0.1330619,-0.10561 0.4155519,-0.25608 0.6723121,-0.43357 0.1283808,-0.0887 0.2534729,-0.18625 0.357084,-0.30696 0.1036109,-0.12068 0.1903839,-0.27577 0.1953369,-0.46095 l 0.09973,-1.36116 0.217043,-0.81287 z"
         style="color:#000000;font-style:normal;font-variant:normal;font-weight:normal;font-stretch:normal;font-size:medium;line-height:normal;font-family:sans-serif;font-variant-ligatures:normal;font-variant-position:normal;font-variant-caps:normal;font-variant-numeric:normal;font-variant-alternates:normal;font-feature-settings:normal;text-indent:0;text-align:start;text-decoration:none;text-decoration-line:none;text-decoration-style:solid;text-decoration-color:#000000;letter-spacing:normal;word-spacing:normal;text-transform:none;writing-mode:lr-tb;direction:ltr;text-orientation:mixed;dominant-baseline:auto;baseline-shift:baseline;text-anchor:start;white-space:normal;shape-padding:0;clip-rule:nonzero;display:inline;overflow:visible;visibility:visible;opacity:1;isolation:auto;mix-blend-mode:normal;color-interpolation:sRGB;color-interpolation-filters:linearRGB;solid-color:#000000;solid-opacity:1;vector-effect:none;fill:#dc9c7c;fill-opacity:1;fill-rule:nonzero;stroke:none;stroke-width:0.529167;stroke-linecap:round;stroke-linejoin:round;stroke-miterlimit:4;stroke-dasharray:none;stroke-dashoffset:0;stroke-opacity:1;color-rendering:auto;image-rendering:auto;shape-rendering:auto;text-rendering:auto;enable-background:accumulate" />
    </g>
  </g>
</svg>
