<?xml version="1.0" encoding="UTF-8" standalone="no"?>
<svg
   xmlns:dc="http://purl.org/dc/elements/1.1/"
   xmlns:cc="http://creativecommons.org/ns#"
   xmlns:rdf="http://www.w3.org/1999/02/22-rdf-syntax-ns#"
   xmlns:svg="http://www.w3.org/2000/svg"
   xmlns="http://www.w3.org/2000/svg"
   xmlns:sodipodi="http://sodipodi.sourceforge.net/DTD/sodipodi-0.dtd"
   xmlns:inkscape="http://www.inkscape.org/namespaces/inkscape"
   inkscape:export-ydpi="768"
   inkscape:export-xdpi="768"
   inkscape:export-filename="E:\TR Design Studio Creative\Project Design\TR Creative Design\Icon Design\Project Hiring\Icon Icons\005 - Crime And Security\Send\3 - Flat\26 - Theif Mask.png"
   sodipodi:docname="26 - Theif Mask.svg"
   inkscape:version="0.92.4 (5da689c313, 2019-01-14)"
   id="svg979"
   version="1.1"
   viewBox="0 0 16.933334 16.933333"
   height="48pt"
   width="48pt">
  <defs
     id="defs973" />
  <sodipodi:namedview
     inkscape:snap-nodes="false"
     inkscape:bbox-nodes="true"
     inkscape:snap-bbox="true"
     inkscape:snap-global="true"
     inkscape:document-rotation="0"
     inkscape:window-maximized="1"
     inkscape:window-y="-8"
     inkscape:window-x="-8"
     inkscape:window-height="716"
     inkscape:window-width="1366"
     units="pt"
     showgrid="false"
     inkscape:current-layer="layer1"
     inkscape:document-units="pt"
     inkscape:cy="32"
     inkscape:cx="32"
     inkscape:zoom="8.078125"
     inkscape:pageshadow="2"
     inkscape:pageopacity="0.0"
     borderopacity="1.0"
     bordercolor="#666666"
     pagecolor="#ffffff"
     id="base"
     showguides="false">
    <inkscape:grid
       id="grid1526"
       type="xygrid" />
    <sodipodi:guide
       inkscape:locked="false"
       id="guide1528"
       orientation="56.666615,0"
       position="0.97013909,15.963209" />
    <sodipodi:guide
       inkscape:locked="false"
       id="guide1530"
       orientation="0,56.666667"
       position="0.97013909,0.97016731" />
    <sodipodi:guide
       inkscape:locked="false"
       id="guide1532"
       orientation="-56.666615,0"
       position="15.963195,0.97016731" />
    <sodipodi:guide
       inkscape:locked="false"
       id="guide1534"
       orientation="0,-56.666667"
       position="15.963195,15.963209" />
  </sodipodi:namedview>
  <metadata
     id="metadata976">
    <rdf:RDF>
      <cc:Work
         rdf:about="">
        <dc:format>image/svg+xml</dc:format>
        <dc:type
           rdf:resource="http://purl.org/dc/dcmitype/StillImage" />
        <dc:title></dc:title>
      </cc:Work>
    </rdf:RDF>
  </metadata>
  <g
     transform="translate(0,-280.06668)"
     id="layer1"
     inkscape:groupmode="layer"
     inkscape:label="Layer 1">
    <g
       id="g14209"
       transform="matrix(1.2319754,0,0,1.2319754,-2.2263397,-65.621229)">
      <path
         inkscape:connector-curvature="0"
         id="path2973"
         d="m 8.6785007,281.38391 c -0.806735,0 -1.865625,0.071 -2.736329,0.72851 -0.869739,0.65674 -1.494708,1.88399 -1.496093,4.02735 -2.34e-4,0.005 -0.03448,0.79916 0.283203,1.68945 0.318756,0.8933 1.022479,1.91138 2.4414059,2.27734 a 0.26460995,0.26460995 0 0 0 0.06641,0.008 h 2.8847654 a 0.26460995,0.26460995 0 0 0 0.06641,-0.008 c 1.418927,-0.36596 2.12265,-1.38404 2.441406,-2.27734 0.317686,-0.89029 0.283437,-1.68408 0.283204,-1.68945 -0.0014,-2.14335 -0.628308,-3.37061 -1.498046,-4.02735 -0.870705,-0.65746 -1.9295945,-0.72851 -2.7363287,-0.72851 z"
         style="color:#000000;font-style:normal;font-variant:normal;font-weight:normal;font-stretch:normal;font-size:medium;line-height:normal;font-family:sans-serif;font-variant-ligatures:normal;font-variant-position:normal;font-variant-caps:normal;font-variant-numeric:normal;font-variant-alternates:normal;font-feature-settings:normal;text-indent:0;text-align:start;text-decoration:none;text-decoration-line:none;text-decoration-style:solid;text-decoration-color:#000000;letter-spacing:normal;word-spacing:normal;text-transform:none;writing-mode:lr-tb;direction:ltr;text-orientation:mixed;dominant-baseline:auto;baseline-shift:baseline;text-anchor:start;white-space:normal;shape-padding:0;clip-rule:nonzero;display:inline;overflow:visible;visibility:visible;opacity:1;isolation:auto;mix-blend-mode:normal;color-interpolation:sRGB;color-interpolation-filters:linearRGB;solid-color:#000000;solid-opacity:1;vector-effect:none;fill:#5b6571;fill-opacity:1;fill-rule:nonzero;stroke:none;stroke-width:0.529167;stroke-linecap:round;stroke-linejoin:round;stroke-miterlimit:4;stroke-dasharray:none;stroke-dashoffset:0;stroke-opacity:1;color-rendering:auto;image-rendering:auto;shape-rendering:auto;text-rendering:auto;enable-background:accumulate" />
      <path
         inkscape:connector-curvature="0"
         id="path3189"
         d="m 8.6784028,281.38395 c -0.8067349,0 -1.8655631,0.0711 -2.7362672,0.72864 -0.01075,0.008 -0.020849,0.0175 -0.031522,0.0258 2.0126648,0.0995 3.9456726,1.43369 4.4410724,3.4153 0.303753,1.21501 -0.5471045,2.23359 -0.7245036,3.29798 -0.072544,0.43527 -0.062044,0.85857 0.014986,1.26298 h 0.4795576 a 0.26460995,0.26460995 0 0 0 0.06666,-0.008 c 1.418926,-0.36596 2.122438,-1.38408 2.441194,-2.27738 0.317685,-0.89029 0.283421,-1.68393 0.283187,-1.6893 -0.0014,-2.14335 -0.628361,-3.3704 -1.4981,-4.02715 -0.870704,-0.65746 -1.9295327,-0.72863 -2.7362666,-0.72863 z"
         style="color:#000000;font-style:normal;font-variant:normal;font-weight:normal;font-stretch:normal;font-size:medium;line-height:normal;font-family:sans-serif;font-variant-ligatures:normal;font-variant-position:normal;font-variant-caps:normal;font-variant-numeric:normal;font-variant-alternates:normal;font-feature-settings:normal;text-indent:0;text-align:start;text-decoration:none;text-decoration-line:none;text-decoration-style:solid;text-decoration-color:#000000;letter-spacing:normal;word-spacing:normal;text-transform:none;writing-mode:lr-tb;direction:ltr;text-orientation:mixed;dominant-baseline:auto;baseline-shift:baseline;text-anchor:start;white-space:normal;shape-padding:0;clip-rule:nonzero;display:inline;overflow:visible;visibility:visible;opacity:1;isolation:auto;mix-blend-mode:normal;color-interpolation:sRGB;color-interpolation-filters:linearRGB;solid-color:#000000;solid-opacity:1;vector-effect:none;fill:#314351;fill-opacity:1;fill-rule:nonzero;stroke:none;stroke-width:0.529167;stroke-linecap:round;stroke-linejoin:round;stroke-miterlimit:4;stroke-dasharray:none;stroke-dashoffset:0;stroke-opacity:1;color-rendering:auto;image-rendering:auto;shape-rendering:auto;text-rendering:auto;enable-background:accumulate" />
      <path
         inkscape:connector-curvature="0"
         id="path2977"
         d="m 10.649204,284.41321 c -0.540221,0.0436 -1.2135761,0.20651 -1.6406253,0.75 a 0.26460995,0.26460995 0 0 0 -0.05274,0.12304 c -0.1416571,0.89175 0.9717281,1.62529 1.8808603,1.02344 0.79786,-0.49167 1.007812,-1.53906 1.007812,-1.53906 a 0.26460995,0.26460995 0 0 0 -0.210937,-0.32031 c 0,0 -0.444155,-0.0807 -0.984375,-0.0371 z"
         style="color:#000000;font-style:normal;font-variant:normal;font-weight:normal;font-stretch:normal;font-size:medium;line-height:normal;font-family:sans-serif;font-variant-ligatures:normal;font-variant-position:normal;font-variant-caps:normal;font-variant-numeric:normal;font-variant-alternates:normal;font-feature-settings:normal;text-indent:0;text-align:start;text-decoration:none;text-decoration-line:none;text-decoration-style:solid;text-decoration-color:#000000;letter-spacing:normal;word-spacing:normal;text-transform:none;writing-mode:lr-tb;direction:ltr;text-orientation:mixed;dominant-baseline:auto;baseline-shift:baseline;text-anchor:start;white-space:normal;shape-padding:0;clip-rule:nonzero;display:inline;overflow:visible;visibility:visible;opacity:1;isolation:auto;mix-blend-mode:normal;color-interpolation:sRGB;color-interpolation-filters:linearRGB;solid-color:#000000;solid-opacity:1;vector-effect:none;fill:#f5f6e8;fill-opacity:1;fill-rule:nonzero;stroke:none;stroke-width:0.529167;stroke-linecap:round;stroke-linejoin:round;stroke-miterlimit:4;stroke-dasharray:none;stroke-dashoffset:0;stroke-opacity:1;color-rendering:auto;image-rendering:auto;shape-rendering:auto;text-rendering:auto;enable-background:accumulate" />
      <path
         inkscape:connector-curvature="0"
         id="path2981"
         d="m 6.7097507,284.41321 c -0.540221,-0.0436 -0.984376,0.0371 -0.984376,0.0371 a 0.26460995,0.26460995 0 0 0 -0.21289,0.32031 c 0,0 0.211898,1.04739 1.009766,1.53906 0.9091301,0.60185 2.022515,-0.13169 1.880859,-1.02344 a 0.26460995,0.26460995 0 0 0 -0.05469,-0.12304 c -0.4270492,-0.54349 -1.0984511,-0.70643 -1.6386711,-0.75 z"
         style="color:#000000;font-style:normal;font-variant:normal;font-weight:normal;font-stretch:normal;font-size:medium;line-height:normal;font-family:sans-serif;font-variant-ligatures:normal;font-variant-position:normal;font-variant-caps:normal;font-variant-numeric:normal;font-variant-alternates:normal;font-feature-settings:normal;text-indent:0;text-align:start;text-decoration:none;text-decoration-line:none;text-decoration-style:solid;text-decoration-color:#000000;letter-spacing:normal;word-spacing:normal;text-transform:none;writing-mode:lr-tb;direction:ltr;text-orientation:mixed;dominant-baseline:auto;baseline-shift:baseline;text-anchor:start;white-space:normal;shape-padding:0;clip-rule:nonzero;display:inline;overflow:visible;visibility:visible;opacity:1;isolation:auto;mix-blend-mode:normal;color-interpolation:sRGB;color-interpolation-filters:linearRGB;solid-color:#000000;solid-opacity:1;vector-effect:none;fill:#f5f6e8;fill-opacity:1;fill-rule:nonzero;stroke:none;stroke-width:0.529167;stroke-linecap:round;stroke-linejoin:round;stroke-miterlimit:4;stroke-dasharray:none;stroke-dashoffset:0;stroke-opacity:1;color-rendering:auto;image-rendering:auto;shape-rendering:auto;text-rendering:auto;enable-background:accumulate" />
      <path
         inkscape:connector-curvature="0"
         id="path2985"
         d="m 8.5964688,288.13 a 0.26460995,0.26460995 0 0 0 -0.08203,0.0176 l -2.578125,0.97461 a 0.26460995,0.26460995 0 0 0 -0.171875,0.25781 c 0.01157,0.30659 -0.02937,0.50783 -0.111328,0.66211 -0.08196,0.15428 -0.210209,0.27717 -0.425781,0.4043 a 0.26460995,0.26460995 0 0 0 0.002,0.45703 l 3.2460928,1.85938 a 0.26460995,0.26460995 0 0 0 0.2636721,0 l 3.2460943,-1.85938 a 0.26460995,0.26460995 0 0 0 0.0039,-0.45703 c -0.215572,-0.12713 -0.343824,-0.25002 -0.425781,-0.4043 -0.08196,-0.15428 -0.124852,-0.35552 -0.113281,-0.66211 a 0.26460995,0.26460995 0 0 0 -0.169922,-0.25781 L 8.7019797,288.1476 A 0.26460995,0.26460995 0 0 0 8.5965107,288.13 Z"
         style="color:#000000;font-style:normal;font-variant:normal;font-weight:normal;font-stretch:normal;font-size:medium;line-height:normal;font-family:sans-serif;font-variant-ligatures:normal;font-variant-position:normal;font-variant-caps:normal;font-variant-numeric:normal;font-variant-alternates:normal;font-feature-settings:normal;text-indent:0;text-align:start;text-decoration:none;text-decoration-line:none;text-decoration-style:solid;text-decoration-color:#000000;letter-spacing:normal;word-spacing:normal;text-transform:none;writing-mode:lr-tb;direction:ltr;text-orientation:mixed;dominant-baseline:auto;baseline-shift:baseline;text-anchor:start;white-space:normal;shape-padding:0;clip-rule:nonzero;display:inline;overflow:visible;visibility:visible;opacity:1;isolation:auto;mix-blend-mode:normal;color-interpolation:sRGB;color-interpolation-filters:linearRGB;solid-color:#000000;solid-opacity:1;vector-effect:none;fill:#5b6571;fill-opacity:1;fill-rule:nonzero;stroke:none;stroke-width:0.529167;stroke-linecap:round;stroke-linejoin:round;stroke-miterlimit:4;stroke-dasharray:none;stroke-dashoffset:0;stroke-opacity:1;color-rendering:auto;image-rendering:auto;shape-rendering:auto;text-rendering:auto;enable-background:accumulate" />
      <path
         inkscape:connector-curvature="0"
         id="path3194"
         d="m 9.702113,288.52512 c -0.030455,0.10862 -0.056711,0.21728 -0.074931,0.32659 -0.1829559,1.09774 0.1582931,2.11829 0.785999,2.95176 l 1.571997,-0.9002 a 0.26460995,0.26460995 0 0 0 0.0041,-0.45682 c -0.215572,-0.12713 -0.343857,-0.24983 -0.425814,-0.40411 -0.08196,-0.15428 -0.125259,-0.3559 -0.113688,-0.66249 a 0.26460995,0.26460995 0 0 0 -0.169499,-0.25787 z"
         style="color:#000000;font-style:normal;font-variant:normal;font-weight:normal;font-stretch:normal;font-size:medium;line-height:normal;font-family:sans-serif;font-variant-ligatures:normal;font-variant-position:normal;font-variant-caps:normal;font-variant-numeric:normal;font-variant-alternates:normal;font-feature-settings:normal;text-indent:0;text-align:start;text-decoration:none;text-decoration-line:none;text-decoration-style:solid;text-decoration-color:#000000;letter-spacing:normal;word-spacing:normal;text-transform:none;writing-mode:lr-tb;direction:ltr;text-orientation:mixed;dominant-baseline:auto;baseline-shift:baseline;text-anchor:start;white-space:normal;shape-padding:0;clip-rule:nonzero;display:inline;overflow:visible;visibility:visible;opacity:1;isolation:auto;mix-blend-mode:normal;color-interpolation:sRGB;color-interpolation-filters:linearRGB;solid-color:#000000;solid-opacity:1;vector-effect:none;fill:#314351;fill-opacity:1;fill-rule:nonzero;stroke:none;stroke-width:0.529167;stroke-linecap:round;stroke-linejoin:round;stroke-miterlimit:4;stroke-dasharray:none;stroke-dashoffset:0;stroke-opacity:1;color-rendering:auto;image-rendering:auto;shape-rendering:auto;text-rendering:auto;enable-background:accumulate" />
      <path
         inkscape:connector-curvature="0"
         id="path2989"
         d="m 5.3171717,290.40735 c -0.198275,-0.008 -0.392451,0.0127 -0.560547,0.12695 -0.269724,0.18324 -0.479789,0.46614 -0.554687,0.80469 -0.0749,0.33854 0.0017,0.73194 0.275391,1.06836 0.547285,0.67282 1.78381,1.14648 4.201172,1.14648 2.4173613,0 3.6558393,-0.47366 4.2031243,-1.14648 0.273643,-0.33642 0.350289,-0.72982 0.275391,-1.06836 -0.0749,-0.33855 -0.284962,-0.62145 -0.554687,-0.80469 -0.168096,-0.1142 -0.362272,-0.1354 -0.560547,-0.12695 -0.198276,0.008 -0.412327,0.0501 -0.646485,0.10742 -0.463274,0.11341 -1.007543,0.29268 -1.5917961,0.44336 -0.0013,2.4e-4 -0.00259,-2.4e-4 -0.0039,0 -0.7321161,0.13553 -1.4360052,0.22066 -2.2226561,0.004 a 0.26460995,0.26460995 0 0 0 -0.0039,0 c -0.5914961,-0.15169 -1.1430131,-0.33262 -1.6113281,-0.44726 -0.234158,-0.0573 -0.446256,-0.099 -0.644532,-0.10742 z"
         style="color:#000000;font-style:normal;font-variant:normal;font-weight:normal;font-stretch:normal;font-size:medium;line-height:normal;font-family:sans-serif;font-variant-ligatures:normal;font-variant-position:normal;font-variant-caps:normal;font-variant-numeric:normal;font-variant-alternates:normal;font-feature-settings:normal;text-indent:0;text-align:start;text-decoration:none;text-decoration-line:none;text-decoration-style:solid;text-decoration-color:#000000;letter-spacing:normal;word-spacing:normal;text-transform:none;writing-mode:lr-tb;direction:ltr;text-orientation:mixed;dominant-baseline:auto;baseline-shift:baseline;text-anchor:start;white-space:normal;shape-padding:0;clip-rule:nonzero;display:inline;overflow:visible;visibility:visible;opacity:1;isolation:auto;mix-blend-mode:normal;color-interpolation:sRGB;color-interpolation-filters:linearRGB;solid-color:#000000;solid-opacity:1;vector-effect:none;fill:#3a4d5c;fill-opacity:1;fill-rule:nonzero;stroke:none;stroke-width:0.529167;stroke-linecap:round;stroke-linejoin:round;stroke-miterlimit:4;stroke-dasharray:none;stroke-dashoffset:0;stroke-opacity:1;color-rendering:auto;image-rendering:auto;shape-rendering:auto;text-rendering:auto;enable-background:accumulate" />
      <path
         sodipodi:nodetypes="ccccccccccccccccccc"
         inkscape:connector-curvature="0"
         id="path3204"
         d="m 5.3173676,290.40718 c -0.1982751,-0.008 -0.3925933,0.0129 -0.5606894,0.12712 -0.269724,0.18324 -0.4795901,0.46605 -0.5544881,0.8046 -0.012121,0.0548 -0.019262,0.11128 -0.023254,0.16847 2.8445259,0.0493 3.6087955,1.68842 6.1004029,0.89658 0.433696,-0.14456 1.099867,-0.95436 1.630908,-0.68884 0.399847,0.19992 0.494762,0.6308 0.689364,0.96893 0.108677,-0.0877 0.203486,-0.17976 0.282153,-0.27647 0.273643,-0.33642 0.350333,-0.73013 0.275435,-1.06867 -0.0749,-0.33855 -0.28528,-0.62136 -0.555005,-0.8046 -0.168096,-0.1142 -0.361897,-0.13558 -0.560172,-0.12712 -0.198276,0.008 -0.412314,0.0502 -0.646472,0.10748 -0.463275,0.11341 -1.007898,0.29271 -1.5921511,0.44339 -0.0013,2.4e-4 -0.00233,-2.4e-4 -0.00362,0 -0.7321159,0.13553 -1.4359523,0.22079 -2.2226032,0.004 -0.00138,-10e-6 -0.00276,-10e-6 -0.00414,0 -0.5914961,-0.15169 -1.1429564,-0.33287 -1.6112713,-0.44752 -0.2341581,-0.0573 -0.446129,-0.0986 -0.6444051,-0.10697 z"
         style="display:inline;opacity:1;vector-effect:none;fill:#232f38;fill-opacity:1;stroke:none;stroke-width:0.52916664;stroke-linecap:butt;stroke-linejoin:miter;stroke-miterlimit:4;stroke-dasharray:none;stroke-dashoffset:0;stroke-opacity:1;paint-order:stroke fill markers" />
      <path
         inkscape:connector-curvature="0"
         id="path3209"
         d="m 6.3278387,284.40066 c -0.352824,0.004 -0.602547,0.0496 -0.602547,0.0496 a 0.26460995,0.26460995 0 0 0 -0.212907,0.32039 c 0,0 0.01354,0.0657 0.04548,0.17053 0.171223,-0.0116 0.383794,-0.0182 0.622701,0.001 0.54022,0.0436 1.2116099,0.20685 1.6386591,0.75034 a 0.26460995,0.26460995 0 0 1 0.05478,0.12299 c 0.03278,0.20633 -0.0043,0.40294 -0.08785,0.57775 0.4127669,-0.20849 0.6920971,-0.63427 0.6170171,-1.10691 a 0.26460995,0.26460995 0 0 0 -0.05478,-0.123 c -0.4270489,-0.54349 -1.0984399,-0.70677 -1.63866,-0.75035 -0.135055,-0.0109 -0.26428,-0.0138 -0.381889,-0.0124 z"
         style="color:#000000;font-style:normal;font-variant:normal;font-weight:normal;font-stretch:normal;font-size:medium;line-height:normal;font-family:sans-serif;font-variant-ligatures:normal;font-variant-position:normal;font-variant-caps:normal;font-variant-numeric:normal;font-variant-alternates:normal;font-feature-settings:normal;text-indent:0;text-align:start;text-decoration:none;text-decoration-line:none;text-decoration-style:solid;text-decoration-color:#000000;letter-spacing:normal;word-spacing:normal;text-transform:none;writing-mode:lr-tb;direction:ltr;text-orientation:mixed;dominant-baseline:auto;baseline-shift:baseline;text-anchor:start;white-space:normal;shape-padding:0;clip-rule:nonzero;display:inline;overflow:visible;visibility:visible;opacity:1;isolation:auto;mix-blend-mode:normal;color-interpolation:sRGB;color-interpolation-filters:linearRGB;solid-color:#000000;solid-opacity:1;vector-effect:none;fill:#dbdbcf;fill-opacity:1;fill-rule:nonzero;stroke:none;stroke-width:0.529167;stroke-linecap:round;stroke-linejoin:round;stroke-miterlimit:4;stroke-dasharray:none;stroke-dashoffset:0;stroke-opacity:1;color-rendering:auto;image-rendering:auto;shape-rendering:auto;text-rendering:auto;enable-background:accumulate" />
      <path
         inkscape:connector-curvature="0"
         id="path3214"
         d="m 11.030606,284.40048 c -0.117608,-0.001 -0.246834,0.002 -0.381889,0.0129 -0.540221,0.0436 -1.2131613,0.20634 -1.6402092,0.74983 a 0.26460995,0.26460995 0 0 0 -0.05168,0.1173 c 0.3704699,-0.22079 0.7963681,-0.30839 1.1627212,-0.33796 0.54022,-0.0436 0.984436,0.0367 0.984436,0.0367 a 0.26460995,0.26460995 0 0 1 0.211356,0.32039 c 0,0 -0.107691,0.50775 -0.439249,0.98237 0.764,-0.50163 0.968416,-1.51153 0.968416,-1.51153 a 0.26460995,0.26460995 0 0 0 -0.211357,-0.3204 c 0,0 -0.249723,-0.0453 -0.602547,-0.0496 z"
         style="color:#000000;font-style:normal;font-variant:normal;font-weight:normal;font-stretch:normal;font-size:medium;line-height:normal;font-family:sans-serif;font-variant-ligatures:normal;font-variant-position:normal;font-variant-caps:normal;font-variant-numeric:normal;font-variant-alternates:normal;font-feature-settings:normal;text-indent:0;text-align:start;text-decoration:none;text-decoration-line:none;text-decoration-style:solid;text-decoration-color:#000000;letter-spacing:normal;word-spacing:normal;text-transform:none;writing-mode:lr-tb;direction:ltr;text-orientation:mixed;dominant-baseline:auto;baseline-shift:baseline;text-anchor:start;white-space:normal;shape-padding:0;clip-rule:nonzero;display:inline;overflow:visible;visibility:visible;opacity:1;isolation:auto;mix-blend-mode:normal;color-interpolation:sRGB;color-interpolation-filters:linearRGB;solid-color:#000000;solid-opacity:1;vector-effect:none;fill:#dbdbcf;fill-opacity:1;fill-rule:nonzero;stroke:none;stroke-width:0.529167;stroke-linecap:round;stroke-linejoin:round;stroke-miterlimit:4;stroke-dasharray:none;stroke-dashoffset:0;stroke-opacity:1;color-rendering:auto;image-rendering:auto;shape-rendering:auto;text-rendering:auto;enable-background:accumulate" />
    </g>
  </g>
</svg>
