<?xml version="1.0" encoding="UTF-8" standalone="no"?>
<svg
   xmlns:dc="http://purl.org/dc/elements/1.1/"
   xmlns:cc="http://creativecommons.org/ns#"
   xmlns:rdf="http://www.w3.org/1999/02/22-rdf-syntax-ns#"
   xmlns:svg="http://www.w3.org/2000/svg"
   xmlns="http://www.w3.org/2000/svg"
   xmlns:sodipodi="http://sodipodi.sourceforge.net/DTD/sodipodi-0.dtd"
   xmlns:inkscape="http://www.inkscape.org/namespaces/inkscape"
   inkscape:export-ydpi="768"
   inkscape:export-xdpi="768"
   inkscape:export-filename="D:\project\carlos flat crime eksport\png\handcuffs.png"
   sodipodi:docname="21 - Police Badge.svg"
   inkscape:version="0.92.4 (5da689c313, 2019-01-14)"
   id="svg979"
   version="1.1"
   viewBox="0 0 16.933334 16.933333"
   height="48pt"
   width="48pt">
  <defs
     id="defs973" />
  <sodipodi:namedview
     inkscape:snap-nodes="false"
     inkscape:bbox-nodes="true"
     inkscape:snap-bbox="true"
     inkscape:snap-global="true"
     inkscape:document-rotation="0"
     inkscape:window-maximized="1"
     inkscape:window-y="-8"
     inkscape:window-x="-8"
     inkscape:window-height="716"
     inkscape:window-width="1366"
     units="pt"
     showgrid="false"
     inkscape:current-layer="layer1"
     inkscape:document-units="pt"
     inkscape:cy="32"
     inkscape:cx="32"
     inkscape:zoom="8.078125"
     inkscape:pageshadow="2"
     inkscape:pageopacity="0.0"
     borderopacity="1.0"
     bordercolor="#666666"
     pagecolor="#ffffff"
     id="base"
     showguides="false">
    <inkscape:grid
       id="grid1526"
       type="xygrid" />
    <sodipodi:guide
       inkscape:locked="false"
       id="guide1528"
       orientation="56.666615,0"
       position="0.97013909,15.963209" />
    <sodipodi:guide
       inkscape:locked="false"
       id="guide1530"
       orientation="0,56.666667"
       position="0.97013909,0.97016731" />
    <sodipodi:guide
       inkscape:locked="false"
       id="guide1532"
       orientation="-56.666615,0"
       position="15.963195,0.97016731" />
    <sodipodi:guide
       inkscape:locked="false"
       id="guide1534"
       orientation="0,-56.666667"
       position="15.963195,15.963209" />
  </sodipodi:namedview>
  <metadata
     id="metadata976">
    <rdf:RDF>
      <cc:Work
         rdf:about="">
        <dc:format>image/svg+xml</dc:format>
        <dc:type
           rdf:resource="http://purl.org/dc/dcmitype/StillImage" />
        <dc:title></dc:title>
      </cc:Work>
    </rdf:RDF>
  </metadata>
  <g
     transform="translate(0,-280.06668)"
     id="layer1"
     inkscape:groupmode="layer"
     inkscape:label="Layer 1">
    <g
       id="g13767"
       transform="matrix(1.2095759,0,0,1.2095759,-1.0414892,-61.638352)">
      <path
         inkscape:connector-curvature="0"
         id="path3685"
         d="m 7.854902,283.30252 c -0.5659681,0.0126 -1.1129201,0.25753 -1.8437501,0.63282 -0.5113149,0.11362 -0.732014,0.0842 -1.232422,-0.10352 l -0.9277351,-0.34766 c -0.468658,-0.17572 -0.999813,-0.0296 -1.3125,0.36133 l -0.355468,0.44531 c -0.3132241,0.39152 -0.3223191,0.9485 -0.02148,1.34961 l -0.0098,-0.0137 c 0.580104,0.88845 0.830413,1.85365 0.685547,2.75586 l -0.525391,2.00977 c -0.255237,0.95256 -0.01432,1.77176 0.476562,2.4082 0.490881,0.63644 1.214241,1.10918 1.953125,1.48438 0.7388849,0.37519 1.4983172,0.65139 2.0644541,0.86914 0.2830679,0.10887 0.519544,0.20496 0.6679681,0.28125 0.07109,0.0365 0.1170218,0.0677 0.136719,0.084 a 0.26460995,0.26460995 0 0 0 0.5,0 0.26460995,0.26460995 0 0 0 0,-0.002 c 0.02036,-0.0165 0.06677,-0.0461 0.136719,-0.082 0.1484238,-0.0763 0.3848999,-0.17238 0.6679678,-0.28125 0.5661372,-0.21775 1.3255692,-0.49395 2.0644542,-0.86914 0.738884,-0.3752 1.462244,-0.84794 1.953125,-1.48438 0.490518,-0.63597 0.728929,-1.45459 0.474609,-2.40625 v -0.002 l -0.509766,-2.00782 c -0.19483,-1.23934 0.129557,-1.70114 0.685547,-2.78125 l -0.02344,0.0371 c 0.300835,-0.40109 0.291731,-0.95807 -0.02148,-1.34959 l -0.357422,-0.44531 c -0.312685,-0.39085 -0.84383,-0.53705 -1.3125,-0.36133 l -0.925782,0.34766 c -0.50043,0.18765 -0.721121,0.21713 -1.2324219,0.10352 l 0.07422,0.0293 c -0.7787349,-0.4496 -1.34381,-0.67514 -1.9296869,-0.66211 z"
         style="color:#000000;font-style:normal;font-variant:normal;font-weight:normal;font-stretch:normal;font-size:medium;line-height:normal;font-family:sans-serif;font-variant-ligatures:normal;font-variant-position:normal;font-variant-caps:normal;font-variant-numeric:normal;font-variant-alternates:normal;font-feature-settings:normal;text-indent:0;text-align:start;text-decoration:none;text-decoration-line:none;text-decoration-style:solid;text-decoration-color:#000000;letter-spacing:normal;word-spacing:normal;text-transform:none;writing-mode:lr-tb;direction:ltr;text-orientation:mixed;dominant-baseline:auto;baseline-shift:baseline;text-anchor:start;white-space:normal;shape-padding:0;clip-rule:nonzero;display:inline;overflow:visible;visibility:visible;opacity:1;isolation:auto;mix-blend-mode:normal;color-interpolation:sRGB;color-interpolation-filters:linearRGB;solid-color:#000000;solid-opacity:1;vector-effect:none;fill:#5b6571;fill-opacity:1;fill-rule:nonzero;stroke:none;stroke-width:0.529167;stroke-linecap:round;stroke-linejoin:round;stroke-miterlimit:4;stroke-dasharray:none;stroke-dashoffset:0;stroke-opacity:1;color-rendering:auto;image-rendering:auto;shape-rendering:auto;text-rendering:auto;enable-background:accumulate" />
      <path
         inkscape:connector-curvature="0"
         id="path3730"
         d="m 7.8548646,283.30239 c -0.5659675,0.0126 -1.1129856,0.25775 -1.8438151,0.63304 -0.5113152,0.11362 -0.7320756,0.0844 -1.2324847,-0.10335 l -0.9275895,-0.34779 c -0.4686591,-0.17572 -0.9998949,-0.0297 -1.3125821,0.36122 l -0.3555339,0.44545 c -0.3132243,0.39152 -0.322027,0.94816 -0.021193,1.34927 l -0.00982,-0.0134 c 0.036748,0.0563 0.068236,0.11367 0.1023197,0.17053 1.2076457,0.2488 2.7652214,-0.71897 3.9894194,0.0971 1.1843861,0.78959 1.5021375,1.92086 1.769401,3.25717 0.049752,0.24875 -0.02196,0.75125 0.1204066,0.9648 0.684485,1.02673 2.321166,1.15483 3.177066,2.01073 0.318135,0.31813 0.250106,1.19211 0.249082,1.8371 0.525756,-0.31716 1.012809,-0.69604 1.373561,-1.16376 0.490516,-0.63597 0.72871,-1.45439 0.47439,-2.40605 v -0.002 l -0.509532,-2.00814 c -0.194829,-1.23934 0.129241,-1.70112 0.685231,-2.78123 0.274127,-0.39792 0.258979,-0.93213 -0.04496,-1.31206 l -0.357085,-0.44545 c -0.312684,-0.39085 -0.843912,-0.53694 -1.312582,-0.36122 l -0.926042,0.34726 c -0.489503,0.18356 -0.714523,0.21405 -1.2025095,0.10904 -0.7545732,-0.43159 -1.311148,-0.65097 -1.8851563,-0.6382 z"
         style="display:inline;fill:#3a4d5c;fill-opacity:1;stroke:none;stroke-width:0.52916664;stroke-linecap:square;stroke-linejoin:round;stroke-miterlimit:4;stroke-dasharray:none;stroke-opacity:1" />
      <path
         inkscape:connector-curvature="0"
         id="path3689"
         d="m 7.8607609,288.02909 c -1.6042482,0 -2.9101561,1.3059 -2.9101561,2.91015 0,1.60425 1.3059079,2.91016 2.9101561,2.91016 1.6042481,0 2.9101561,-1.30591 2.9101561,-2.91016 0,-1.60425 -1.305908,-2.91015 -2.9101561,-2.91015 z"
         style="color:#000000;font-style:normal;font-variant:normal;font-weight:normal;font-stretch:normal;font-size:medium;line-height:normal;font-family:sans-serif;font-variant-ligatures:normal;font-variant-position:normal;font-variant-caps:normal;font-variant-numeric:normal;font-variant-alternates:normal;font-feature-settings:normal;text-indent:0;text-align:start;text-decoration:none;text-decoration-line:none;text-decoration-style:solid;text-decoration-color:#000000;letter-spacing:normal;word-spacing:normal;text-transform:none;writing-mode:lr-tb;direction:ltr;text-orientation:mixed;dominant-baseline:auto;baseline-shift:baseline;text-anchor:start;white-space:normal;shape-padding:0;clip-rule:nonzero;display:inline;overflow:visible;visibility:visible;opacity:1;isolation:auto;mix-blend-mode:normal;color-interpolation:sRGB;color-interpolation-filters:linearRGB;solid-color:#000000;solid-opacity:1;vector-effect:none;fill:#fed883;fill-opacity:1;fill-rule:nonzero;stroke:none;stroke-width:0.529167;stroke-linecap:round;stroke-linejoin:round;stroke-miterlimit:4;stroke-dasharray:none;stroke-dashoffset:0;stroke-opacity:1;color-rendering:auto;image-rendering:auto;shape-rendering:auto;text-rendering:auto;enable-background:accumulate" />
      <path
         inkscape:connector-curvature="0"
         id="path3693"
         d="m 4.1185738,286.17752 a 0.26460995,0.26460995 0 0 0 -0.208985,0.38282 l 0.214844,0.42968 -0.230469,0.69141 a 0.26460995,0.26460995 0 0 0 0.251953,0.34766 h 1.861328 a 0.26460995,0.26460995 0 0 0 0.265625,-0.26563 V 286.6033 A 0.26460995,0.26460995 0 0 0 6.05998,286.34354 l -0.8046882,-0.16211 a 0.26460995,0.26460995 0 0 0 -0.05078,-0.004 h -1.058594 a 0.26460995,0.26460995 0 0 0 -0.02734,0 z"
         style="color:#000000;font-style:normal;font-variant:normal;font-weight:normal;font-stretch:normal;font-size:medium;line-height:normal;font-family:sans-serif;font-variant-ligatures:normal;font-variant-position:normal;font-variant-caps:normal;font-variant-numeric:normal;font-variant-alternates:normal;font-feature-settings:normal;text-indent:0;text-align:start;text-decoration:none;text-decoration-line:none;text-decoration-style:solid;text-decoration-color:#000000;letter-spacing:normal;word-spacing:normal;text-transform:none;writing-mode:lr-tb;direction:ltr;text-orientation:mixed;dominant-baseline:auto;baseline-shift:baseline;text-anchor:start;white-space:normal;shape-padding:0;clip-rule:nonzero;display:inline;overflow:visible;visibility:visible;opacity:1;isolation:auto;mix-blend-mode:normal;color-interpolation:sRGB;color-interpolation-filters:linearRGB;solid-color:#000000;solid-opacity:1;vector-effect:none;fill:#fed883;fill-opacity:1;fill-rule:nonzero;stroke:none;stroke-width:0.529167;stroke-linecap:round;stroke-linejoin:round;stroke-miterlimit:4;stroke-dasharray:none;stroke-dashoffset:0;stroke-opacity:1;color-rendering:auto;image-rendering:auto;shape-rendering:auto;text-rendering:auto;enable-background:accumulate" />
      <path
         inkscape:connector-curvature="0"
         id="path3697"
         d="m 10.479902,286.17752 a 0.26460995,0.26460995 0 0 0 -0.02539,0.004 l -0.8046871,0.16211 a 0.26460995,0.26460995 0 0 0 -0.2128911,0.25976 v 1.16016 a 0.26460995,0.26460995 0 0 0 0.265625,0.26563 h 1.8613282 a 0.26460995,0.26460995 0 0 0 0.251953,-0.34766 l -0.230469,-0.69141 0.214844,-0.42968 a 0.26460995,0.26460995 0 0 0 -0.236329,-0.38282 h -1.058594 a 0.26460995,0.26460995 0 0 0 -0.02539,0 z"
         style="color:#000000;font-style:normal;font-variant:normal;font-weight:normal;font-stretch:normal;font-size:medium;line-height:normal;font-family:sans-serif;font-variant-ligatures:normal;font-variant-position:normal;font-variant-caps:normal;font-variant-numeric:normal;font-variant-alternates:normal;font-feature-settings:normal;text-indent:0;text-align:start;text-decoration:none;text-decoration-line:none;text-decoration-style:solid;text-decoration-color:#000000;letter-spacing:normal;word-spacing:normal;text-transform:none;writing-mode:lr-tb;direction:ltr;text-orientation:mixed;dominant-baseline:auto;baseline-shift:baseline;text-anchor:start;white-space:normal;shape-padding:0;clip-rule:nonzero;display:inline;overflow:visible;visibility:visible;opacity:1;isolation:auto;mix-blend-mode:normal;color-interpolation:sRGB;color-interpolation-filters:linearRGB;solid-color:#000000;solid-opacity:1;vector-effect:none;fill:#fed883;fill-opacity:1;fill-rule:nonzero;stroke:none;stroke-width:0.529167;stroke-linecap:round;stroke-linejoin:round;stroke-miterlimit:4;stroke-dasharray:none;stroke-dashoffset:0;stroke-opacity:1;color-rendering:auto;image-rendering:auto;shape-rendering:auto;text-rendering:auto;enable-background:accumulate" />
      <path
         sodipodi:nodetypes="csccccccc"
         inkscape:connector-curvature="0"
         id="path3725"
         d="m 7.8605479,293.84955 c 1.6042481,0 2.9104171,-1.30616 2.9104171,-2.91041 0,-1.60425 -1.306169,-2.9099 -2.9104171,-2.9099 v 0 c -1.0456624,0 -1.961642,0.55637 -2.4747829,1.38699 0.6485308,-0.066 1.1947472,-0.0858 2.0639564,0.43925 0.8107125,0.53913 1.4548088,1.39522 1.1058763,2.33216 -0.1285636,0.3214 -0.4583059,0.5898 -0.6621621,0.88704 -0.1845283,0.23818 -0.1429173,0.51658 -0.032888,0.77487 z"
         style="display:inline;fill:#febe40;fill-opacity:1;stroke:none;stroke-width:0.52916664;stroke-linecap:square;stroke-linejoin:round;stroke-miterlimit:4;stroke-dasharray:none;stroke-opacity:1" />
      <path
         inkscape:connector-curvature="0"
         id="path3701"
         d="m 7.8353699,289.08768 a 0.26460995,0.26460995 0 0 0 -0.210937,0.14648 l -0.4414059,0.88086 -0.9765631,0.13672 a 0.26460995,0.26460995 0 0 0 -0.15039,0.45117 l 0.7031239,0.69141 -0.1718739,0.9707 a 0.26460995,0.26460995 0 0 0 0.380859,0.28125 l 0.892578,-0.45703 0.8906251,0.45703 a 0.26460995,0.26460995 0 0 0 0.3808589,-0.28125 l -0.1718749,-0.9707 0.703125,-0.69141 a 0.26460995,0.26460995 0 0 0 -0.1484371,-0.45117 l -0.9765631,-0.13672 -0.441406,-0.88086 a 0.26460995,0.26460995 0 0 0 -0.2617189,-0.14648 z"
         style="color:#000000;font-style:normal;font-variant:normal;font-weight:normal;font-stretch:normal;font-size:medium;line-height:normal;font-family:sans-serif;font-variant-ligatures:normal;font-variant-position:normal;font-variant-caps:normal;font-variant-numeric:normal;font-variant-alternates:normal;font-feature-settings:normal;text-indent:0;text-align:start;text-decoration:none;text-decoration-line:none;text-decoration-style:solid;text-decoration-color:#000000;letter-spacing:normal;word-spacing:normal;text-transform:none;writing-mode:lr-tb;direction:ltr;text-orientation:mixed;dominant-baseline:auto;baseline-shift:baseline;text-anchor:start;white-space:normal;shape-padding:0;clip-rule:nonzero;display:inline;overflow:visible;visibility:visible;opacity:1;isolation:auto;mix-blend-mode:normal;color-interpolation:sRGB;color-interpolation-filters:linearRGB;solid-color:#000000;solid-opacity:1;vector-effect:none;fill:#5b6571;fill-opacity:1;fill-rule:nonzero;stroke:none;stroke-width:0.529167;stroke-linecap:round;stroke-linejoin:round;stroke-miterlimit:4;stroke-dasharray:none;stroke-dashoffset:0;stroke-opacity:1;color-rendering:auto;image-rendering:auto;shape-rendering:auto;text-rendering:auto;enable-background:accumulate" />
      <path
         sodipodi:nodetypes="ccccccccccc"
         inkscape:connector-curvature="0"
         id="path3705"
         d="m 5.999433,285.94119 c -0.02254,10e-4 -0.04486,0.005 -0.06641,0.0117 l -0.7949221,0.23633 c -0.1116629,0.034 -0.1878459,0.13718 -0.1874999,0.25391 v 0.52734 c 0.0023,0.0654 0.02726,0.137 0.07617,0.1875 l 0.7949211,0.79297 c 0.166864,0.1659 0.4510379,0.0478 0.451172,-0.1875 v -1.55664 c 6.615e-4,-0.15006 -0.1234601,-0.27064 -0.2734371,-0.26563 z"
         style="color:#000000;font-style:normal;font-variant:normal;font-weight:normal;font-stretch:normal;font-size:medium;line-height:normal;font-family:sans-serif;font-variant-ligatures:normal;font-variant-position:normal;font-variant-caps:normal;font-variant-numeric:normal;font-variant-alternates:normal;font-feature-settings:normal;text-indent:0;text-align:start;text-decoration:none;text-decoration-line:none;text-decoration-style:solid;text-decoration-color:#000000;letter-spacing:normal;word-spacing:normal;text-transform:none;writing-mode:lr-tb;direction:ltr;text-orientation:mixed;dominant-baseline:auto;baseline-shift:baseline;text-anchor:start;white-space:normal;shape-padding:0;clip-rule:nonzero;display:inline;overflow:visible;visibility:visible;opacity:1;isolation:auto;mix-blend-mode:normal;color-interpolation:sRGB;color-interpolation-filters:linearRGB;solid-color:#000000;solid-opacity:1;vector-effect:none;fill:#ec7523;fill-opacity:1;fill-rule:nonzero;stroke:none;stroke-width:0.52916676;stroke-linecap:square;stroke-linejoin:round;stroke-miterlimit:4;stroke-dasharray:none;stroke-dashoffset:0;stroke-opacity:1;color-rendering:auto;image-rendering:auto;shape-rendering:auto;text-rendering:auto;enable-background:accumulate" />
      <path
         inkscape:connector-curvature="0"
         id="path3709"
         d="m 9.698652,285.94119 a 0.26460982,0.26460982 0 0 0 -0.261719,0.26563 v 1.55664 a 0.26460982,0.26460982 0 0 0 0.451172,0.1875 l 0.794922,-0.79297 a 0.26460982,0.26460982 0 0 0 0.07617,-0.1875 v -0.52734 a 0.26460982,0.26460982 0 0 0 -0.1875,-0.25391 l -0.7949211,-0.23633 a 0.26460982,0.26460982 0 0 0 -0.07813,-0.0117 z"
         style="color:#000000;font-style:normal;font-variant:normal;font-weight:normal;font-stretch:normal;font-size:medium;line-height:normal;font-family:sans-serif;font-variant-ligatures:normal;font-variant-position:normal;font-variant-caps:normal;font-variant-numeric:normal;font-variant-alternates:normal;font-feature-settings:normal;text-indent:0;text-align:start;text-decoration:none;text-decoration-line:none;text-decoration-style:solid;text-decoration-color:#000000;letter-spacing:normal;word-spacing:normal;text-transform:none;writing-mode:lr-tb;direction:ltr;text-orientation:mixed;dominant-baseline:auto;baseline-shift:baseline;text-anchor:start;white-space:normal;shape-padding:0;clip-rule:nonzero;display:inline;overflow:visible;visibility:visible;opacity:1;isolation:auto;mix-blend-mode:normal;color-interpolation:sRGB;color-interpolation-filters:linearRGB;solid-color:#000000;solid-opacity:1;vector-effect:none;fill:#ec7523;fill-opacity:1;fill-rule:nonzero;stroke:none;stroke-width:0.52916676;stroke-linecap:square;stroke-linejoin:round;stroke-miterlimit:4;stroke-dasharray:none;stroke-dashoffset:0;stroke-opacity:1;color-rendering:auto;image-rendering:auto;shape-rendering:auto;text-rendering:auto;enable-background:accumulate" />
      <path
         sodipodi:nodetypes="ccccccccccccscccc"
         inkscape:connector-curvature="0"
         id="path3713"
         d="m 10.759197,286.97049 0.01172,-1.14953 c 0,-0.15772 -0.05386,-0.2302 -0.269806,-0.34093 h -0.002 c -0.6944202,-0.37682 -1.6467541,-0.75 -2.6386622,-0.75 l 3.175e-4,2.3e-4 c -1.1422589,0 -2.0363691,0.30801 -2.7910161,0.79687 -0.07427,0.0489 -0.1190299,0.1318 -0.11914,0.22071 v 1.22265 c 0.0074,0.0637 0.013991,0.12747 0.07617,0.18748 l 0.1679919,0.16758 0.1835722,-0.14803 c 0.6671879,-0.52624 1.42299,-0.73633 2.4824219,-0.73633 1.0594311,0 1.8015612,0.21009 2.4687488,0.73633 l 0.189603,0.14398 0.138595,-0.13825 c 0.0646,-0.0573 0.101535,-0.12679 0.101489,-0.21276 z"
         style="color:#000000;font-style:normal;font-variant:normal;font-weight:normal;font-stretch:normal;font-size:medium;line-height:normal;font-family:sans-serif;font-variant-ligatures:normal;font-variant-position:normal;font-variant-caps:normal;font-variant-numeric:normal;font-variant-alternates:normal;font-feature-settings:normal;text-indent:0;text-align:start;text-decoration:none;text-decoration-line:none;text-decoration-style:solid;text-decoration-color:#000000;letter-spacing:normal;word-spacing:normal;text-transform:none;writing-mode:lr-tb;direction:ltr;text-orientation:mixed;dominant-baseline:auto;baseline-shift:baseline;text-anchor:start;white-space:normal;shape-padding:0;clip-rule:nonzero;display:inline;overflow:visible;visibility:visible;opacity:1;isolation:auto;mix-blend-mode:normal;color-interpolation:sRGB;color-interpolation-filters:linearRGB;solid-color:#000000;solid-opacity:1;vector-effect:none;fill:#febe40;fill-opacity:1;fill-rule:nonzero;stroke:none;stroke-width:0.529167;stroke-linecap:round;stroke-linejoin:round;stroke-miterlimit:4;stroke-dasharray:none;stroke-dashoffset:0;stroke-opacity:1;color-rendering:auto;image-rendering:auto;shape-rendering:auto;text-rendering:auto;enable-background:accumulate" />
      <path
         sodipodi:nodetypes="cccccccccccccc"
         inkscape:connector-curvature="0"
         id="path3715"
         d="m 7.8605479,292.18919 0.8909024,0.45733 c 0.1945296,0.0993 0.4187639,-0.0666 0.3808544,-0.28163 l -0.1720823,-0.97049 0.7033181,-0.69143 c 0.1569667,-0.15365 0.069204,-0.4206 -0.1483122,-0.45113 L 8.5385427,290.1149 8.0972256,289.23433 c -0.043979,-0.0894 -0.1344586,-0.14654 -0.2340927,-0.1478 v 1e-5 c -0.00931,-1.5e-4 -0.018627,1.9e-4 -0.027906,10e-4 -0.090906,0.009 -0.1706139,0.0647 -0.2108412,0.14676 l -0.4330462,0.86351 c 0.8939504,0.51612 0.8608801,1.37602 0.669208,2.09135 z"
         style="display:inline;fill:#3a4d5c;fill-opacity:1;stroke:none;stroke-width:0.52916664;stroke-linecap:square;stroke-linejoin:round;stroke-miterlimit:4;stroke-dasharray:none;stroke-opacity:1" />
      <path
         inkscape:connector-curvature="0"
         id="path3735"
         d="m 7.8605479,284.73021 c -1.1422592,0 -2.0363974,0.30799 -2.7910446,0.79685 -0.074269,0.0489 -0.118745,0.13175 -0.1188535,0.22066 v 0.29559 c 1.3270362,0.0771 2.3518098,-1.11775 3.8514444,-0.36794 0.3998277,0.19992 0.4089611,0.56905 0.4206451,0.93225 0.4092522,0.11806 0.7680643,0.30273 1.1069077,0.56999 l 0.189654,0.14366 0.138493,-0.13798 c 0.0646,-0.0573 0.10133,-0.12693 0.101285,-0.2129 l 0.01188,-1.14929 c 0,-0.15772 -0.0538,-0.23033 -0.26975,-0.34106 h -0.0021 c -0.6944308,-0.37682 -1.6466901,-0.74983 -2.6385998,-0.74983 z"
         style="display:inline;fill:#f4a32a;fill-opacity:1;stroke:none;stroke-width:0.52916664;stroke-linecap:square;stroke-linejoin:round;stroke-miterlimit:4;stroke-dasharray:none;stroke-opacity:1" />
    </g>
  </g>
</svg>
