<?xml version="1.0" encoding="UTF-8" standalone="no"?>
<svg
   xmlns:dc="http://purl.org/dc/elements/1.1/"
   xmlns:cc="http://creativecommons.org/ns#"
   xmlns:rdf="http://www.w3.org/1999/02/22-rdf-syntax-ns#"
   xmlns:svg="http://www.w3.org/2000/svg"
   xmlns="http://www.w3.org/2000/svg"
   xmlns:sodipodi="http://sodipodi.sourceforge.net/DTD/sodipodi-0.dtd"
   xmlns:inkscape="http://www.inkscape.org/namespaces/inkscape"
   inkscape:export-ydpi="768"
   inkscape:export-xdpi="768"
   inkscape:export-filename="C:\Users\RainBoyz\Desktop\EXPORT FLAT\2. Gun.png"
   width="48pt"
   height="48pt"
   viewBox="0 0 16.933334 16.933333"
   version="1.1"
   id="svg979"
   inkscape:version="1.0 (4035a4fb49, 2020-05-01)"
   sodipodi:docname="2. Gun.svg">
  <defs
     id="defs973" />
  <sodipodi:namedview
     id="base"
     pagecolor="#ffffff"
     bordercolor="#666666"
     borderopacity="1.0"
     inkscape:pageopacity="0.0"
     inkscape:pageshadow="2"
     inkscape:zoom="6.0435533"
     inkscape:cx="11.280141"
     inkscape:cy="26.741684"
     inkscape:document-units="pt"
     inkscape:current-layer="layer1"
     showgrid="false"
     units="pt"
     inkscape:window-width="1366"
     inkscape:window-height="715"
     inkscape:window-x="-8"
     inkscape:window-y="-8"
     inkscape:window-maximized="1"
     inkscape:document-rotation="0"
     inkscape:snap-bbox="true"
     inkscape:bbox-nodes="true"
     inkscape:snap-nodes="false">
    <inkscape:grid
       type="xygrid"
       id="grid1526" />
    <sodipodi:guide
       position="0.97013909,15.963209"
       orientation="56.666615,0"
       id="guide1528"
       inkscape:locked="false" />
    <sodipodi:guide
       position="0.97013909,0.97016731"
       orientation="0,56.666667"
       id="guide1530"
       inkscape:locked="false" />
    <sodipodi:guide
       position="15.963195,0.97016731"
       orientation="-56.666615,0"
       id="guide1532"
       inkscape:locked="false" />
    <sodipodi:guide
       position="15.963195,15.963209"
       orientation="0,-56.666667"
       id="guide1534"
       inkscape:locked="false" />
  </sodipodi:namedview>
  <metadata
     id="metadata976">
    <rdf:RDF>
      <cc:Work
         rdf:about="">
        <dc:format>image/svg+xml</dc:format>
        <dc:type
           rdf:resource="http://purl.org/dc/dcmitype/StillImage" />
        <dc:title></dc:title>
      </cc:Work>
    </rdf:RDF>
  </metadata>
  <g
     inkscape:label="Layer 1"
     inkscape:groupmode="layer"
     id="layer1"
     transform="translate(0,-280.06668)">
    <g
       transform="matrix(1.2317799,0,0,1.2317799,27.739683,-42.365083)"
       id="g1183">
      <path
         style="color:#000000;font-style:normal;font-variant:normal;font-weight:normal;font-stretch:normal;font-size:medium;line-height:normal;font-family:sans-serif;font-variant-ligatures:normal;font-variant-position:normal;font-variant-caps:normal;font-variant-numeric:normal;font-variant-alternates:normal;font-variant-east-asian:normal;font-feature-settings:normal;font-variation-settings:normal;text-indent:0;text-align:start;text-decoration:none;text-decoration-line:none;text-decoration-style:solid;text-decoration-color:#000000;letter-spacing:normal;word-spacing:normal;text-transform:none;writing-mode:lr-tb;direction:ltr;text-orientation:mixed;dominant-baseline:auto;baseline-shift:baseline;text-anchor:start;white-space:normal;shape-padding:0;shape-margin:0;inline-size:0;clip-rule:nonzero;display:inline;overflow:visible;visibility:visible;opacity:1;isolation:auto;mix-blend-mode:normal;color-interpolation:sRGB;color-interpolation-filters:linearRGB;solid-color:#000000;solid-opacity:1;vector-effect:none;fill:#394d5e;fill-opacity:1;fill-rule:nonzero;stroke:none;stroke-width:0.529167;stroke-linecap:round;stroke-linejoin:round;stroke-miterlimit:4;stroke-dasharray:none;stroke-dashoffset:0;stroke-opacity:1;color-rendering:auto;image-rendering:auto;shape-rendering:auto;text-rendering:auto;enable-background:accumulate;stop-color:#000000;stop-opacity:1"
         d="m -16.226562,266.41992 a 0.26460996,0.26460996 0 0 0 -0.238282,0.39649 l 1.117188,1.94921 a 0.26460996,0.26460996 0 0 0 0.230468,0.13282 h 2.910157 a 0.26460996,0.26460996 0 0 0 0.242187,-0.15821 l 0.458985,-1.05859 a 0.26460996,0.26460996 0 0 0 -0.191407,-0.36523 l -4.486328,-0.89258 a 0.26460996,0.26460996 0 0 0 -0.04297,-0.004 z"
         id="path1369" />
      <path
         style="color:#000000;font-style:normal;font-variant:normal;font-weight:normal;font-stretch:normal;font-size:medium;line-height:normal;font-family:sans-serif;font-variant-ligatures:normal;font-variant-position:normal;font-variant-caps:normal;font-variant-numeric:normal;font-variant-alternates:normal;font-variant-east-asian:normal;font-feature-settings:normal;font-variation-settings:normal;text-indent:0;text-align:start;text-decoration:none;text-decoration-line:none;text-decoration-style:solid;text-decoration-color:#000000;letter-spacing:normal;word-spacing:normal;text-transform:none;writing-mode:lr-tb;direction:ltr;text-orientation:mixed;dominant-baseline:auto;baseline-shift:baseline;text-anchor:start;white-space:normal;shape-padding:0;shape-margin:0;inline-size:0;clip-rule:nonzero;display:inline;overflow:visible;visibility:visible;opacity:1;isolation:auto;mix-blend-mode:normal;color-interpolation:sRGB;color-interpolation-filters:linearRGB;solid-color:#000000;solid-opacity:1;vector-effect:none;fill:#394d5e;fill-opacity:1;fill-rule:nonzero;stroke:none;stroke-width:0.529167;stroke-linecap:round;stroke-linejoin:round;stroke-miterlimit:4;stroke-dasharray:none;stroke-dashoffset:0;stroke-opacity:1;color-rendering:auto;image-rendering:auto;shape-rendering:auto;text-rendering:auto;enable-background:accumulate;stop-color:#000000;stop-opacity:1"
         d="m -11.443359,264.40234 a 0.26460996,0.26460996 0 0 0 -0.126953,0.0508 c -1.196696,0.88132 -1.964385,1.14401 -2.494141,1.22071 -0.430272,0.0623 -0.703538,0.0153 -1.013672,0.0508 h -0.15625 l 0.002,0.008 c -0.02535,0.006 -0.05405,-0.004 -0.08008,0.004 a 0.26460996,0.26460996 0 0 0 0.07813,0.51758 h 4.349609 a 0.26460996,0.26460996 0 0 0 0.246094,-0.36329 l -0.529297,-1.32226 a 0.26460996,0.26460996 0 0 0 -0.27539,-0.16602 z"
         id="path1389" />
      <path
         style="color:#000000;font-style:normal;font-variant:normal;font-weight:normal;font-stretch:normal;font-size:medium;line-height:normal;font-family:sans-serif;font-variant-ligatures:normal;font-variant-position:normal;font-variant-caps:normal;font-variant-numeric:normal;font-variant-alternates:normal;font-variant-east-asian:normal;font-feature-settings:normal;font-variation-settings:normal;text-indent:0;text-align:start;text-decoration:none;text-decoration-line:none;text-decoration-style:solid;text-decoration-color:#000000;letter-spacing:normal;word-spacing:normal;text-transform:none;writing-mode:lr-tb;direction:ltr;text-orientation:mixed;dominant-baseline:auto;baseline-shift:baseline;text-anchor:start;white-space:normal;shape-padding:0;shape-margin:0;inline-size:0;clip-rule:nonzero;display:inline;overflow:visible;visibility:visible;opacity:1;isolation:auto;mix-blend-mode:normal;color-interpolation:sRGB;color-interpolation-filters:linearRGB;solid-color:#000000;solid-opacity:1;vector-effect:none;fill:#394d5e;fill-opacity:1;fill-rule:nonzero;stroke:none;stroke-width:0.529167;stroke-linecap:round;stroke-linejoin:round;stroke-miterlimit:4;stroke-dasharray:none;stroke-dashoffset:0;stroke-opacity:1;color-rendering:auto;image-rendering:auto;shape-rendering:auto;text-rendering:auto;enable-background:accumulate;stop-color:#000000;stop-opacity:1"
         d="m -20.15625,264.92969 c -0.456744,-0.0781 -0.839844,0.008 -0.839844,0.008 a 0.26460996,0.26460996 0 0 0 -0.06055,0.49414 c 0.460997,0.2305 0.589007,0.52109 0.634766,0.77148 0.04576,0.2504 -0.0098,0.43946 -0.0098,0.43946 a 0.26460996,0.26460996 0 0 0 0.310547,0.33398 c 0.527661,-0.11656 0.965638,-0.37541 1.265625,-0.77539 a 0.26460996,0.26460996 0 0 0 0.02734,-0.27148 c -0.304575,-0.65707 -0.871381,-0.92187 -1.328125,-1 z"
         id="path1324" />
      <path
         style="color:#000000;font-style:normal;font-variant:normal;font-weight:normal;font-stretch:normal;font-size:medium;line-height:normal;font-family:sans-serif;font-variant-ligatures:normal;font-variant-position:normal;font-variant-caps:normal;font-variant-numeric:normal;font-variant-alternates:normal;font-variant-east-asian:normal;font-feature-settings:normal;font-variation-settings:normal;text-indent:0;text-align:start;text-decoration:none;text-decoration-line:none;text-decoration-style:solid;text-decoration-color:#000000;letter-spacing:normal;word-spacing:normal;text-transform:none;writing-mode:lr-tb;direction:ltr;text-orientation:mixed;dominant-baseline:auto;baseline-shift:baseline;text-anchor:start;white-space:normal;shape-padding:0;shape-margin:0;inline-size:0;clip-rule:nonzero;display:inline;overflow:visible;visibility:visible;opacity:1;isolation:auto;mix-blend-mode:normal;color-interpolation:sRGB;color-interpolation-filters:linearRGB;solid-color:#000000;solid-opacity:1;vector-effect:none;fill:#d0e2ee;fill-opacity:1;fill-rule:nonzero;stroke:none;stroke-width:0.529167;stroke-linecap:round;stroke-linejoin:round;stroke-miterlimit:4;stroke-dasharray:none;stroke-dashoffset:0;stroke-opacity:1;color-rendering:auto;image-rendering:auto;shape-rendering:auto;text-rendering:auto;enable-background:accumulate;stop-color:#000000;stop-opacity:1"
         d="m -15.5625,265.72461 a 0.26460996,0.26460996 0 0 0 -0.263672,0.25781 l -0.04297,1.58789 a 0.26460996,0.26460996 0 0 0 0.265625,0.27149 h 5.7773441 a 0.26460996,0.26460996 0 0 0 0.265625,-0.26563 v -1.58789 a 0.26460996,0.26460996 0 0 0 -0.265625,-0.26367 z"
         id="path1377" />
      <path
         transform="matrix(0.26458333,0,0,0.26458333,0,284.3)"
         d="m -58.818359,-70.207031 a 1.0001006,1.0001006 0 0 0 -0.998047,0.974609 l -0.02344,0.878906 c 2.356313,0.08929 12.584142,-0.04198 14.101563,0.177735 2.002227,0.28989 4.904789,1.282308 9.427734,4.613281 0.05434,0.04068 0.114879,0.06926 0.175781,0.09766 v -5.74414 a 1.0001006,1.0001006 0 0 0 -1.003906,-0.998047 z"
         style="color:#000000;font-style:normal;font-variant:normal;font-weight:normal;font-stretch:normal;font-size:medium;line-height:normal;font-family:sans-serif;font-variant-ligatures:normal;font-variant-position:normal;font-variant-caps:normal;font-variant-numeric:normal;font-variant-alternates:normal;font-variant-east-asian:normal;font-feature-settings:normal;font-variation-settings:normal;text-indent:0;text-align:start;text-decoration:none;text-decoration-line:none;text-decoration-style:solid;text-decoration-color:#000000;letter-spacing:normal;word-spacing:normal;text-transform:none;writing-mode:lr-tb;direction:ltr;text-orientation:mixed;dominant-baseline:auto;baseline-shift:baseline;text-anchor:start;white-space:normal;shape-padding:0;shape-margin:0;inline-size:0;clip-rule:nonzero;display:inline;overflow:visible;visibility:visible;opacity:1;isolation:auto;mix-blend-mode:normal;color-interpolation:sRGB;color-interpolation-filters:linearRGB;solid-color:#000000;solid-opacity:1;vector-effect:none;fill:#aabfd0;fill-opacity:1;fill-rule:nonzero;stroke:none;stroke-width:2;stroke-linecap:round;stroke-linejoin:round;stroke-miterlimit:4;stroke-dasharray:none;stroke-dashoffset:0;stroke-opacity:1;color-rendering:auto;image-rendering:auto;shape-rendering:auto;text-rendering:auto;enable-background:accumulate;stop-color:#000000;stop-opacity:1"
         id="path289" />
      <path
         style="color:#000000;font-style:normal;font-variant:normal;font-weight:normal;font-stretch:normal;font-size:medium;line-height:normal;font-family:sans-serif;font-variant-ligatures:normal;font-variant-position:normal;font-variant-caps:normal;font-variant-numeric:normal;font-variant-alternates:normal;font-variant-east-asian:normal;font-feature-settings:normal;font-variation-settings:normal;text-indent:0;text-align:start;text-decoration:none;text-decoration-line:none;text-decoration-style:solid;text-decoration-color:#000000;letter-spacing:normal;word-spacing:normal;text-transform:none;writing-mode:lr-tb;direction:ltr;text-orientation:mixed;dominant-baseline:auto;baseline-shift:baseline;text-anchor:start;white-space:normal;shape-padding:0;shape-margin:0;inline-size:0;clip-rule:nonzero;display:inline;overflow:visible;visibility:visible;opacity:1;isolation:auto;mix-blend-mode:normal;color-interpolation:sRGB;color-interpolation-filters:linearRGB;solid-color:#000000;solid-opacity:1;vector-effect:none;fill:#5b6571;fill-opacity:1;fill-rule:nonzero;stroke:none;stroke-width:0.529167;stroke-linecap:round;stroke-linejoin:round;stroke-miterlimit:4;stroke-dasharray:none;stroke-dashoffset:0;stroke-opacity:1;color-rendering:auto;image-rendering:auto;shape-rendering:auto;text-rendering:auto;enable-background:accumulate;stop-color:#000000;stop-opacity:1"
         d="m -18.822266,265.19531 a 0.26460996,0.26460996 0 0 0 -0.257812,0.21289 c -0.112334,0.56167 -0.482297,0.81711 -0.861328,0.96289 -0.379031,0.14578 -0.732422,0.14649 -0.732422,0.14649 a 0.26460996,0.26460996 0 0 0 -0.220703,0.41211 c 0.23824,0.35736 0.287109,0.63138 0.287109,0.8125 0,0.18111 -0.03906,0.24609 -0.03906,0.24609 a 0.26460996,0.26460996 0 0 0 -0.0039,0.008 c 0,0 -0.335898,0.73968 -0.638671,1.68164 -0.286444,0.89116 -0.513328,1.94252 -0.416016,2.8086 a 0.2645835,0.2645835 0 0 0 -0.02734,0.11719 0.2645835,0.2645835 0 0 0 0.0039,0.043 0.2645835,0.2645835 0 0 0 0.02734,0.082 0.2645835,0.2645835 0 0 0 0.02344,0.0351 0.2645835,0.2645835 0 0 0 0.0293,0.0332 0.2645835,0.2645835 0 0 0 0.0332,0.0273 0.2645835,0.2645835 0 0 0 0.002,0 0.2645835,0.2645835 0 0 0 0.03711,0.0195 0.2645835,0.2645835 0 0 0 0.04102,0.0156 0.2645835,0.2645835 0 0 0 0.04102,0.008 0.2645835,0.2645835 0 0 0 0.002,0 0.2645835,0.2645835 0 0 0 0.02539,0 0.2645835,0.2645835 0 0 0 0.01758,0 h 3.15625 a 0.26460996,0.26460996 0 0 0 0.257813,-0.32813 c 0,0 -0.131354,-0.52168 -0.228516,-1.07226 -0.04834,-0.27393 -0.08801,-0.55572 -0.09961,-0.77149 0.502781,0.4452 1.158951,0.65008 1.791015,0.28516 0.37714,-0.21775 0.666302,-0.47601 0.792969,-0.82031 0.126667,-0.34431 0.05755,-0.7383 -0.167969,-1.12891 l 0.0059,0.0117 c -0.04385,-0.0847 -0.0243,-0.0997 -0.0039,-0.13672 0.0028,-0.005 0.003,-0.003 0.0059,-0.008 h 0.822265 a 0.26460996,0.26460996 0 0 0 0.246094,-0.36133 c -0.474953,-1.18738 0.0078,-3.00391 0.0078,-3.00391 a 0.26460996,0.26460996 0 0 0 -0.253907,-0.33789 z"
         id="path1333" />
      <path
         sodipodi:nodetypes="csscccsscc"
         style="color:#000000;font-style:normal;font-variant:normal;font-weight:normal;font-stretch:normal;font-size:medium;line-height:normal;font-family:sans-serif;font-variant-ligatures:normal;font-variant-position:normal;font-variant-caps:normal;font-variant-numeric:normal;font-variant-alternates:normal;font-variant-east-asian:normal;font-feature-settings:normal;font-variation-settings:normal;text-indent:0;text-align:start;text-decoration:none;text-decoration-line:none;text-decoration-style:solid;text-decoration-color:#000000;letter-spacing:normal;word-spacing:normal;text-transform:none;writing-mode:lr-tb;direction:ltr;text-orientation:mixed;dominant-baseline:auto;baseline-shift:baseline;text-anchor:start;white-space:normal;shape-padding:0;shape-margin:0;inline-size:0;clip-rule:nonzero;display:inline;overflow:visible;visibility:visible;opacity:1;isolation:auto;mix-blend-mode:normal;color-interpolation:sRGB;color-interpolation-filters:linearRGB;solid-color:#000000;solid-opacity:1;vector-effect:none;fill:#d0e2ee;fill-opacity:1;fill-rule:nonzero;stroke:none;stroke-width:0.529167;stroke-linecap:round;stroke-linejoin:round;stroke-miterlimit:4;stroke-dasharray:none;stroke-dashoffset:0;stroke-opacity:1;color-rendering:auto;image-rendering:auto;shape-rendering:auto;text-rendering:auto;enable-background:accumulate;stop-color:#000000;stop-opacity:1"
         d="m -18.296875,268.37109 c 0,0 -0.0011,0.35914 0.113281,0.73633 0.05719,0.1886 0.141871,0.38933 0.292969,0.55664 0.151098,0.16731 0.384289,0.29297 0.65625,0.29297 0.146176,5.8e-4 0.265121,-0.11749 0.265625,-0.26367 5.82e-4,-0.14694 -0.118683,-0.26621 -0.265625,-0.26563 -0.124933,0 -0.190692,-0.0383 -0.263672,-0.11914 -0.07298,-0.0808 -0.136555,-0.21128 -0.179687,-0.35351 -0.08626,-0.28447 -0.08984,-0.58594 -0.08984,-0.58594 z"
         id="path1365" />
      <path
         style="color:#000000;font-style:normal;font-variant:normal;font-weight:normal;font-stretch:normal;font-size:medium;line-height:normal;font-family:sans-serif;font-variant-ligatures:normal;font-variant-position:normal;font-variant-caps:normal;font-variant-numeric:normal;font-variant-alternates:normal;font-variant-east-asian:normal;font-feature-settings:normal;font-variation-settings:normal;text-indent:0;text-align:start;text-decoration:none;text-decoration-line:none;text-decoration-style:solid;text-decoration-color:#000000;letter-spacing:normal;word-spacing:normal;text-transform:none;writing-mode:lr-tb;direction:ltr;text-orientation:mixed;dominant-baseline:auto;baseline-shift:baseline;text-anchor:start;white-space:normal;shape-padding:0;shape-margin:0;inline-size:0;clip-rule:nonzero;display:inline;overflow:visible;visibility:visible;opacity:1;isolation:auto;mix-blend-mode:normal;color-interpolation:sRGB;color-interpolation-filters:linearRGB;solid-color:#000000;solid-opacity:1;vector-effect:none;fill:#394d5e;fill-opacity:1;fill-rule:nonzero;stroke:none;stroke-width:0.529167;stroke-linecap:round;stroke-linejoin:round;stroke-miterlimit:4;stroke-dasharray:none;stroke-dashoffset:0;stroke-opacity:1;color-rendering:auto;image-rendering:auto;shape-rendering:auto;text-rendering:auto;enable-background:accumulate;stop-color:#000000;stop-opacity:1"
         d="m -18.003906,268.0918 c -0.301304,0.0909 -0.533246,0.26037 -0.691406,0.45117 -0.158161,0.1908 -0.251652,0.39302 -0.308594,0.55078 -0.02847,0.0789 -0.04613,0.14583 -0.05859,0.19727 -0.0062,0.0257 -0.01235,0.0474 -0.01563,0.0645 -0.0033,0.0171 -0.0041,0.007 -0.0078,0.0527 a 0.2645835,0.2645835 0 0 0 0.244141,0.28321 0.2645835,0.2645835 0 0 0 0.283203,-0.23633 c 0.0016,-0.008 0.0055,-0.0217 0.0098,-0.0391 0.0084,-0.0348 0.02193,-0.0843 0.04297,-0.14258 0.04208,-0.11659 0.113043,-0.26506 0.21875,-0.39258 0.211414,-0.25504 0.525616,-0.46587 1.24414,-0.25586 a 0.2645835,0.2645835 0 0 0 0.328125,-0.17969 0.2645835,0.2645835 0 0 0 -0.179687,-0.32812 c -0.43595,-0.12742 -0.808072,-0.11626 -1.109375,-0.0254 z"
         id="path1361" />
      <path
         transform="matrix(0.26458333,0,0,0.26458333,0,284.3)"
         d="m -79.433594,-58.203125 c -0.22997,0.612355 -0.461507,1.283702 -0.705078,2 h 5.064453 a 1.0000006,1.0000006 0 0 0 1.003907,-1.003906 1.0000006,1.0000006 0 0 0 -1.003907,-0.996094 z m -1.332031,3.994141 c -0.194664,0.658905 -0.388279,1.315929 -0.552734,2 h 6.36914 a 1.0000006,1.0000006 0 0 0 0.998047,-0.996094 1.0000006,1.0000006 0 0 0 -0.998047,-1.003906 z m 6.628906,4 -7.603515,0.0059 c -0.118362,0.67053 -0.208528,1.338508 -0.273438,2 l 7.876953,-0.0059 a 1.0000006,1.0000006 0 0 0 1.003907,-0.996094 1.0000006,1.0000006 0 0 0 -1.003907,-1.003906 z"
         style="color:#000000;font-style:normal;font-variant:normal;font-weight:normal;font-stretch:normal;font-size:medium;line-height:normal;font-family:sans-serif;font-variant-ligatures:normal;font-variant-position:normal;font-variant-caps:normal;font-variant-numeric:normal;font-variant-alternates:normal;font-variant-east-asian:normal;font-feature-settings:normal;font-variation-settings:normal;text-indent:0;text-align:start;text-decoration:none;text-decoration-line:none;text-decoration-style:solid;text-decoration-color:#000000;letter-spacing:normal;word-spacing:normal;text-transform:none;writing-mode:lr-tb;direction:ltr;text-orientation:mixed;dominant-baseline:auto;baseline-shift:baseline;text-anchor:start;white-space:normal;shape-padding:0;shape-margin:0;inline-size:0;clip-rule:nonzero;display:inline;overflow:visible;visibility:visible;opacity:1;isolation:auto;mix-blend-mode:normal;color-interpolation:sRGB;color-interpolation-filters:linearRGB;solid-color:#000000;solid-opacity:1;vector-effect:none;fill:#394d5e;fill-opacity:1;fill-rule:nonzero;stroke:none;stroke-width:2;stroke-linecap:round;stroke-linejoin:round;stroke-miterlimit:4;stroke-dasharray:none;stroke-dashoffset:0;stroke-opacity:1;color-rendering:auto;image-rendering:auto;shape-rendering:auto;text-rendering:auto;enable-background:accumulate;stop-color:#000000;stop-opacity:1"
         id="path1349" />
      <path
         transform="matrix(0.26458333,0,0,0.26458333,0,284.3)"
         d="m -71.138672,-72.207031 a 1.0001006,1.0001006 0 0 0 -0.974609,0.804687 c -0.42457,2.122847 -1.823302,3.087693 -3.25586,3.638672 -0.01957,0.0075 -0.03711,0.01026 -0.05664,0.01758 6.334397,1.517143 13.667551,2.099964 14.800781,5.996094 0.356405,1.225347 0.68806,2.411681 1.066406,3.539062 h 2.423828 a 1.0001006,1.0001006 0 0 0 0.929688,-1.365234 c -1.795098,-4.487735 0.0293,-11.353516 0.0293,-11.353516 a 1.0001006,1.0001006 0 0 0 -0.958985,-1.277343 z"
         style="fill:#525763;fill-opacity:1;stroke:none;stroke-width:0.999999px;stroke-linecap:butt;stroke-linejoin:miter;stroke-opacity:1"
         id="path300" />
      <path
         transform="matrix(0.26458333,0,0,0.26458333,0,284.3)"
         d="m -69.138672,-68.205078 a 1.0000006,1.0000006 0 0 0 -0.996094,0.996094 1.0000006,1.0000006 0 0 0 0.996094,1.003906 h 7.00586 a 1.0000006,1.0000006 0 0 0 0.996093,-1.003906 1.0000006,1.0000006 0 0 0 -0.996093,-0.996094 z m -2.998047,2.996094 a 1.0000006,1.0000006 0 0 0 -0.996093,1.003906 1.0000006,1.0000006 0 0 0 0.996093,0.996094 h 10.003907 a 1.0000006,1.0000006 0 0 0 0.996093,-0.996094 1.0000006,1.0000006 0 0 0 -0.996093,-1.003906 z"
         style="color:#000000;font-style:normal;font-variant:normal;font-weight:normal;font-stretch:normal;font-size:medium;line-height:normal;font-family:sans-serif;font-variant-ligatures:normal;font-variant-position:normal;font-variant-caps:normal;font-variant-numeric:normal;font-variant-alternates:normal;font-variant-east-asian:normal;font-feature-settings:normal;font-variation-settings:normal;text-indent:0;text-align:start;text-decoration:none;text-decoration-line:none;text-decoration-style:solid;text-decoration-color:#000000;letter-spacing:normal;word-spacing:normal;text-transform:none;writing-mode:lr-tb;direction:ltr;text-orientation:mixed;dominant-baseline:auto;baseline-shift:baseline;text-anchor:start;white-space:normal;shape-padding:0;shape-margin:0;inline-size:0;clip-rule:nonzero;display:inline;overflow:visible;visibility:visible;opacity:1;isolation:auto;mix-blend-mode:normal;color-interpolation:sRGB;color-interpolation-filters:linearRGB;solid-color:#000000;solid-opacity:1;vector-effect:none;fill:#394d5e;fill-opacity:1;fill-rule:nonzero;stroke:none;stroke-width:2;stroke-linecap:round;stroke-linejoin:round;stroke-miterlimit:4;stroke-dasharray:none;stroke-dashoffset:0;stroke-opacity:1;color-rendering:auto;image-rendering:auto;shape-rendering:auto;text-rendering:auto;enable-background:accumulate;stop-color:#000000;stop-opacity:1"
         id="path1353" />
      <path
         transform="matrix(0.26458333,0,0,0.26458333,0,284.3)"
         d="m -40.134766,-67.208984 a 1.0000006,1.0000006 0 0 0 -1.003906,1.003906 1.0000006,1.0000006 0 0 0 1.003906,0.996094 h 4 v -2 z"
         style="color:#000000;font-style:normal;font-variant:normal;font-weight:normal;font-stretch:normal;font-size:medium;line-height:normal;font-family:sans-serif;font-variant-ligatures:normal;font-variant-position:normal;font-variant-caps:normal;font-variant-numeric:normal;font-variant-alternates:normal;font-variant-east-asian:normal;font-feature-settings:normal;font-variation-settings:normal;text-indent:0;text-align:start;text-decoration:none;text-decoration-line:none;text-decoration-style:solid;text-decoration-color:#000000;letter-spacing:normal;word-spacing:normal;text-transform:none;writing-mode:lr-tb;direction:ltr;text-orientation:mixed;dominant-baseline:auto;baseline-shift:baseline;text-anchor:start;white-space:normal;shape-padding:0;shape-margin:0;inline-size:0;clip-rule:nonzero;display:inline;overflow:visible;visibility:visible;opacity:1;isolation:auto;mix-blend-mode:normal;color-interpolation:sRGB;color-interpolation-filters:linearRGB;solid-color:#000000;solid-opacity:1;vector-effect:none;fill:#7d8f9e;fill-opacity:1;fill-rule:nonzero;stroke:none;stroke-width:2;stroke-linecap:round;stroke-linejoin:round;stroke-miterlimit:4;stroke-dasharray:none;stroke-dashoffset:0;stroke-opacity:1;color-rendering:auto;image-rendering:auto;shape-rendering:auto;text-rendering:auto;enable-background:accumulate;stop-color:#000000;stop-opacity:1"
         id="path1385" />
      <path
         transform="matrix(0.26458333,0,0,0.26458333,0,284.3)"
         d="m -69.138672,-68.205078 a 1.0000006,1.0000006 0 0 0 -0.996094,0.996094 1.0000006,1.0000006 0 0 0 0.232422,0.642578 c 0.559968,0.118022 1.12202,0.235851 1.660156,0.361328 h 6.109376 a 1.0000006,1.0000006 0 0 0 0.996093,-1.003906 1.0000006,1.0000006 0 0 0 -0.996093,-0.996094 z m 4.34961,2.996094 c 1.319936,0.486554 2.416498,1.081088 3.175781,1.851562 a 1.0000006,1.0000006 0 0 0 0.476562,-0.847656 1.0000006,1.0000006 0 0 0 -0.996093,-1.003906 z"
         style="fill:#2e3f4d;fill-opacity:1;stroke:none;stroke-width:0.999999px;stroke-linecap:butt;stroke-linejoin:miter;stroke-opacity:1"
         id="path1130" />
    </g>
  </g>
</svg>
