<?xml version="1.0" encoding="UTF-8" standalone="no"?>
<svg
   xmlns:dc="http://purl.org/dc/elements/1.1/"
   xmlns:cc="http://creativecommons.org/ns#"
   xmlns:rdf="http://www.w3.org/1999/02/22-rdf-syntax-ns#"
   xmlns:svg="http://www.w3.org/2000/svg"
   xmlns="http://www.w3.org/2000/svg"
   xmlns:sodipodi="http://sodipodi.sourceforge.net/DTD/sodipodi-0.dtd"
   xmlns:inkscape="http://www.inkscape.org/namespaces/inkscape"
   inkscape:export-ydpi="768"
   inkscape:export-xdpi="768"
   inkscape:export-filename="D:\project\carlos flat crime eksport\png\walkie talkie.png"
   sodipodi:docname="police station.svg"
   inkscape:version="1.0 (4035a4fb49, 2020-05-01)"
   id="svg979"
   version="1.1"
   viewBox="0 0 16.933334 16.933333"
   height="48pt"
   width="48pt">
  <defs
     id="defs973" />
  <sodipodi:namedview
     inkscape:snap-nodes="false"
     inkscape:bbox-nodes="true"
     inkscape:snap-bbox="true"
     inkscape:snap-global="true"
     inkscape:document-rotation="0"
     inkscape:window-maximized="1"
     inkscape:window-y="-8"
     inkscape:window-x="-8"
     inkscape:window-height="706"
     inkscape:window-width="1366"
     units="pt"
     showgrid="false"
     inkscape:current-layer="layer1"
     inkscape:document-units="pt"
     inkscape:cy="32"
     inkscape:cx="32"
     inkscape:zoom="8.546875"
     inkscape:pageshadow="2"
     inkscape:pageopacity="0.0"
     borderopacity="1.0"
     bordercolor="#666666"
     pagecolor="#ffffff"
     id="base">
    <inkscape:grid
       id="grid1526"
       type="xygrid" />
    <sodipodi:guide
       inkscape:locked="false"
       id="guide1528"
       orientation="56.666615,0"
       position="0.97013909,15.963209" />
    <sodipodi:guide
       inkscape:locked="false"
       id="guide1530"
       orientation="0,56.666667"
       position="0.97013909,0.97016731" />
    <sodipodi:guide
       inkscape:locked="false"
       id="guide1532"
       orientation="-56.666615,0"
       position="15.963195,0.97016731" />
    <sodipodi:guide
       inkscape:locked="false"
       id="guide1534"
       orientation="0,-56.666667"
       position="15.963195,15.963209" />
  </sodipodi:namedview>
  <metadata
     id="metadata976">
    <rdf:RDF>
      <cc:Work
         rdf:about="">
        <dc:format>image/svg+xml</dc:format>
        <dc:type
           rdf:resource="http://purl.org/dc/dcmitype/StillImage" />
        <dc:title></dc:title>
      </cc:Work>
    </rdf:RDF>
  </metadata>
  <g
     transform="translate(0,-280.06668)"
     id="layer1"
     inkscape:groupmode="layer"
     inkscape:label="Layer 1">
    <g
       style="stroke-width:0.811835"
       transform="matrix(1.2317781,0,0,1.2317781,0.64535698,-69.482321)"
       id="g1326">
      <path
         id="path1267"
         d="m 1.3222656,288.5332 a 0.26460996,0.26460996 0 0 0 -0.2636718,0.26563 v 6.34961 c 0,0.43524 0.3577311,0.79297 0.7929687,0.79297 h 8.9960935 c 0.435238,0 0.794922,-0.35773 0.794922,-0.79297 v -6.34961 a 0.26460996,0.26460996 0 0 0 -0.265625,-0.26563 z"
         style="color:#000000;font-style:normal;font-variant:normal;font-weight:normal;font-stretch:normal;font-size:medium;line-height:normal;font-family:sans-serif;font-variant-ligatures:normal;font-variant-position:normal;font-variant-caps:normal;font-variant-numeric:normal;font-variant-alternates:normal;font-variant-east-asian:normal;font-feature-settings:normal;font-variation-settings:normal;text-indent:0;text-align:start;text-decoration:none;text-decoration-line:none;text-decoration-style:solid;text-decoration-color:#000000;letter-spacing:normal;word-spacing:normal;text-transform:none;writing-mode:lr-tb;direction:ltr;text-orientation:mixed;dominant-baseline:auto;baseline-shift:baseline;text-anchor:start;white-space:normal;shape-padding:0;shape-margin:0;inline-size:0;clip-rule:nonzero;display:inline;overflow:visible;visibility:visible;isolation:auto;mix-blend-mode:normal;color-interpolation:sRGB;color-interpolation-filters:linearRGB;solid-color:#000000;solid-opacity:1;vector-effect:none;fill:#f5f6e8;fill-opacity:1;fill-rule:nonzero;stroke:none;stroke-width:0.429596;stroke-linecap:round;stroke-linejoin:round;stroke-miterlimit:4;stroke-dasharray:none;stroke-dashoffset:0;stroke-opacity:1;color-rendering:auto;image-rendering:auto;shape-rendering:auto;text-rendering:auto;enable-background:accumulate;stop-color:#000000" />
      <path
         transform="matrix(0.26458333,0,0,0.26458333,0,284.3)"
         d="m 4.9980469,16 a 1.0001006,1.0001006 0 0 0 -0.9960938,1.003906 v 0.8125 c 3.0872012,4.18799 6.3577229,8.621245 10.9824219,10.933594 5.49087,2.745449 15.189272,-3.103798 19.126953,2.802734 1.845909,2.768878 1.401636,8.647997 3.054688,12.447266 h 3.832031 c 1.644994,0 3.005859,-1.353045 3.005859,-2.998047 V 17.003906 A 1.0001006,1.0001006 0 0 0 43,16 Z"
         style="fill:#dbdbcf;fill-opacity:1;stroke:none;stroke-width:1.62367;stroke-linecap:round;stroke-linejoin:round;stroke-opacity:1"
         id="path1287" />
      <path
         id="path1084"
         d="m 2.6464844,285.35742 a 0.26460996,0.26460996 0 0 0 -0.2207032,0.11914 l -2.11718745,3.17383 a 0.26460996,0.26460996 0 0 0 0.22070313,0.41211 H 4.9160156 7.8085938 12.169922 a 0.26460996,0.26460996 0 0 0 0.220703,-0.41211 l -2.117187,-3.17383 a 0.26460996,0.26460996 0 0 0 -0.21875,-0.11914 z"
         style="color:#000000;font-style:normal;font-variant:normal;font-weight:normal;font-stretch:normal;font-size:medium;line-height:normal;font-family:sans-serif;font-variant-ligatures:normal;font-variant-position:normal;font-variant-caps:normal;font-variant-numeric:normal;font-variant-alternates:normal;font-variant-east-asian:normal;font-feature-settings:normal;font-variation-settings:normal;text-indent:0;text-align:start;text-decoration:none;text-decoration-line:none;text-decoration-style:solid;text-decoration-color:#000000;letter-spacing:normal;word-spacing:normal;text-transform:none;writing-mode:lr-tb;direction:ltr;text-orientation:mixed;dominant-baseline:auto;baseline-shift:baseline;text-anchor:start;white-space:normal;shape-padding:0;shape-margin:0;inline-size:0;clip-rule:nonzero;display:inline;overflow:visible;visibility:visible;isolation:auto;mix-blend-mode:normal;color-interpolation:sRGB;color-interpolation-filters:linearRGB;solid-color:#000000;solid-opacity:1;vector-effect:none;fill:#3a4d5c;fill-opacity:1;fill-rule:nonzero;stroke:none;stroke-width:0.429596;stroke-linecap:round;stroke-linejoin:round;stroke-miterlimit:4;stroke-dasharray:none;stroke-dashoffset:0;stroke-opacity:1;color-rendering:auto;image-rendering:auto;shape-rendering:auto;text-rendering:auto;enable-background:accumulate;stop-color:#000000" />
      <path
         id="path1240"
         d="m 1.3222656,294.35352 a 0.2645835,0.2645835 0 0 0 -0.2636718,0.26562 0.2645835,0.2645835 0 0 0 0.2636718,0.26367 h 3.7050782 a 0.2645835,0.2645835 0 0 0 0.2636718,-0.26367 0.2645835,0.2645835 0 0 0 -0.2636718,-0.26562 z"
         style="color:#000000;font-style:normal;font-variant:normal;font-weight:normal;font-stretch:normal;font-size:medium;line-height:normal;font-family:sans-serif;font-variant-ligatures:normal;font-variant-position:normal;font-variant-caps:normal;font-variant-numeric:normal;font-variant-alternates:normal;font-variant-east-asian:normal;font-feature-settings:normal;font-variation-settings:normal;text-indent:0;text-align:start;text-decoration:none;text-decoration-line:none;text-decoration-style:solid;text-decoration-color:#000000;letter-spacing:normal;word-spacing:normal;text-transform:none;writing-mode:lr-tb;direction:ltr;text-orientation:mixed;dominant-baseline:auto;baseline-shift:baseline;text-anchor:start;white-space:normal;shape-padding:0;shape-margin:0;inline-size:0;clip-rule:nonzero;display:inline;overflow:visible;visibility:visible;isolation:auto;mix-blend-mode:normal;color-interpolation:sRGB;color-interpolation-filters:linearRGB;solid-color:#000000;solid-opacity:1;vector-effect:none;fill:#3a4d5c;fill-opacity:1;fill-rule:nonzero;stroke:none;stroke-width:0.429596;stroke-linecap:round;stroke-linejoin:round;stroke-miterlimit:4;stroke-dasharray:none;stroke-dashoffset:0;stroke-opacity:1;color-rendering:auto;image-rendering:auto;shape-rendering:auto;text-rendering:auto;enable-background:accumulate;stop-color:#000000" />
      <path
         id="path1227"
         d="m 7.6738281,294.35352 a 0.2645835,0.2645835 0 0 0 -0.265625,0.26562 0.2645835,0.2645835 0 0 0 0.265625,0.26367 h 3.7031249 a 0.2645835,0.2645835 0 0 0 0.265625,-0.26367 0.2645835,0.2645835 0 0 0 -0.265625,-0.26562 z"
         style="color:#000000;font-style:normal;font-variant:normal;font-weight:normal;font-stretch:normal;font-size:medium;line-height:normal;font-family:sans-serif;font-variant-ligatures:normal;font-variant-position:normal;font-variant-caps:normal;font-variant-numeric:normal;font-variant-alternates:normal;font-variant-east-asian:normal;font-feature-settings:normal;font-variation-settings:normal;text-indent:0;text-align:start;text-decoration:none;text-decoration-line:none;text-decoration-style:solid;text-decoration-color:#000000;letter-spacing:normal;word-spacing:normal;text-transform:none;writing-mode:lr-tb;direction:ltr;text-orientation:mixed;dominant-baseline:auto;baseline-shift:baseline;text-anchor:start;white-space:normal;shape-padding:0;shape-margin:0;inline-size:0;clip-rule:nonzero;display:inline;overflow:visible;visibility:visible;isolation:auto;mix-blend-mode:normal;color-interpolation:sRGB;color-interpolation-filters:linearRGB;solid-color:#000000;solid-opacity:1;vector-effect:none;fill:#3a4d5c;fill-opacity:1;fill-rule:nonzero;stroke:none;stroke-width:0.429596;stroke-linecap:round;stroke-linejoin:round;stroke-miterlimit:4;stroke-dasharray:none;stroke-dashoffset:0;stroke-opacity:1;color-rendering:auto;image-rendering:auto;shape-rendering:auto;text-rendering:auto;enable-background:accumulate;stop-color:#000000" />
      <path
         id="path1255"
         d="m 1.0585938,295.41211 a 0.2645835,0.2645835 0 0 0 -0.26562505,0.26562 0.2645835,0.2645835 0 0 0 0.26562505,0.26368 H 11.642578 a 0.2645835,0.2645835 0 0 0 0.263672,-0.26368 0.2645835,0.2645835 0 0 0 -0.263672,-0.26562 z"
         style="color:#000000;font-style:normal;font-variant:normal;font-weight:normal;font-stretch:normal;font-size:medium;line-height:normal;font-family:sans-serif;font-variant-ligatures:normal;font-variant-position:normal;font-variant-caps:normal;font-variant-numeric:normal;font-variant-alternates:normal;font-variant-east-asian:normal;font-feature-settings:normal;font-variation-settings:normal;text-indent:0;text-align:start;text-decoration:none;text-decoration-line:none;text-decoration-style:solid;text-decoration-color:#000000;letter-spacing:normal;word-spacing:normal;text-transform:none;writing-mode:lr-tb;direction:ltr;text-orientation:mixed;dominant-baseline:auto;baseline-shift:baseline;text-anchor:start;white-space:normal;shape-padding:0;shape-margin:0;inline-size:0;clip-rule:nonzero;display:inline;overflow:visible;visibility:visible;isolation:auto;mix-blend-mode:normal;color-interpolation:sRGB;color-interpolation-filters:linearRGB;solid-color:#000000;solid-opacity:1;vector-effect:none;fill:#3a4d5c;fill-opacity:1;fill-rule:nonzero;stroke:none;stroke-width:0.429596;stroke-linecap:round;stroke-linejoin:round;stroke-miterlimit:4;stroke-dasharray:none;stroke-dashoffset:0;stroke-opacity:1;color-rendering:auto;image-rendering:auto;shape-rendering:auto;text-rendering:auto;enable-background:accumulate;stop-color:#000000" />
      <path
         id="path1200"
         d="m 5.0273438,292.23828 a 0.26460996,0.26460996 0 0 0 -0.265625,0.26367 v 3.17578 a 0.26460996,0.26460996 0 0 0 0.265625,0.26368 H 7.6738281 A 0.26460996,0.26460996 0 0 0 7.9375,295.67773 v -3.17578 a 0.26460996,0.26460996 0 0 0 -0.2636719,-0.26367 z"
         style="color:#000000;font-style:normal;font-variant:normal;font-weight:normal;font-stretch:normal;font-size:medium;line-height:normal;font-family:sans-serif;font-variant-ligatures:normal;font-variant-position:normal;font-variant-caps:normal;font-variant-numeric:normal;font-variant-alternates:normal;font-variant-east-asian:normal;font-feature-settings:normal;font-variation-settings:normal;text-indent:0;text-align:start;text-decoration:none;text-decoration-line:none;text-decoration-style:solid;text-decoration-color:#000000;letter-spacing:normal;word-spacing:normal;text-transform:none;writing-mode:lr-tb;direction:ltr;text-orientation:mixed;dominant-baseline:auto;baseline-shift:baseline;text-anchor:start;white-space:normal;shape-padding:0;shape-margin:0;inline-size:0;clip-rule:nonzero;display:inline;overflow:visible;visibility:visible;isolation:auto;mix-blend-mode:normal;color-interpolation:sRGB;color-interpolation-filters:linearRGB;solid-color:#000000;solid-opacity:1;vector-effect:none;fill:#5b6571;fill-opacity:1;fill-rule:nonzero;stroke:none;stroke-width:0.429596;stroke-linecap:round;stroke-linejoin:round;stroke-miterlimit:4;stroke-dasharray:none;stroke-dashoffset:0;stroke-opacity:1;color-rendering:auto;image-rendering:auto;shape-rendering:auto;text-rendering:auto;enable-background:accumulate;stop-color:#000000" />
      <path
         id="path1214"
         d="m 6.3496094,292.23828 a 0.2645835,0.2645835 0 0 0 -0.2636719,0.26367 v 3.17578 a 0.2645835,0.2645835 0 0 0 0.2636719,0.26368 0.2645835,0.2645835 0 0 0 0.265625,-0.26368 v -3.17578 a 0.2645835,0.2645835 0 0 0 -0.265625,-0.26367 z"
         style="color:#000000;font-style:normal;font-variant:normal;font-weight:normal;font-stretch:normal;font-size:medium;line-height:normal;font-family:sans-serif;font-variant-ligatures:normal;font-variant-position:normal;font-variant-caps:normal;font-variant-numeric:normal;font-variant-alternates:normal;font-variant-east-asian:normal;font-feature-settings:normal;font-variation-settings:normal;text-indent:0;text-align:start;text-decoration:none;text-decoration-line:none;text-decoration-style:solid;text-decoration-color:#000000;letter-spacing:normal;word-spacing:normal;text-transform:none;writing-mode:lr-tb;direction:ltr;text-orientation:mixed;dominant-baseline:auto;baseline-shift:baseline;text-anchor:start;white-space:normal;shape-padding:0;shape-margin:0;inline-size:0;clip-rule:nonzero;display:inline;overflow:visible;visibility:visible;opacity:1;isolation:auto;mix-blend-mode:normal;color-interpolation:sRGB;color-interpolation-filters:linearRGB;solid-color:#000000;solid-opacity:1;vector-effect:none;fill:#0f2437;fill-opacity:1;fill-rule:nonzero;stroke:none;stroke-width:0.429596;stroke-linecap:round;stroke-linejoin:round;stroke-miterlimit:4;stroke-dasharray:none;stroke-dashoffset:0;stroke-opacity:1;color-rendering:auto;image-rendering:auto;shape-rendering:auto;text-rendering:auto;enable-background:accumulate;stop-color:#000000;stop-opacity:1" />
      <path
         id="path1183"
         d="m 4.7617188,291.17969 a 0.26460996,0.26460996 0 0 0 -0.2636719,0.26367 v 1.05859 a 0.26460996,0.26460996 0 0 0 0.2636719,0.26563 H 7.9375 a 0.26460996,0.26460996 0 0 0 0.2636719,-0.26563 v -1.05859 A 0.26460996,0.26460996 0 0 0 7.9375,291.17969 Z"
         style="color:#000000;font-style:normal;font-variant:normal;font-weight:normal;font-stretch:normal;font-size:medium;line-height:normal;font-family:sans-serif;font-variant-ligatures:normal;font-variant-position:normal;font-variant-caps:normal;font-variant-numeric:normal;font-variant-alternates:normal;font-variant-east-asian:normal;font-feature-settings:normal;font-variation-settings:normal;text-indent:0;text-align:start;text-decoration:none;text-decoration-line:none;text-decoration-style:solid;text-decoration-color:#000000;letter-spacing:normal;word-spacing:normal;text-transform:none;writing-mode:lr-tb;direction:ltr;text-orientation:mixed;dominant-baseline:auto;baseline-shift:baseline;text-anchor:start;white-space:normal;shape-padding:0;shape-margin:0;inline-size:0;clip-rule:nonzero;display:inline;overflow:visible;visibility:visible;isolation:auto;mix-blend-mode:normal;color-interpolation:sRGB;color-interpolation-filters:linearRGB;solid-color:#000000;solid-opacity:1;vector-effect:none;fill:#3a4d5c;fill-opacity:1;fill-rule:nonzero;stroke:none;stroke-width:0.429596;stroke-linecap:round;stroke-linejoin:round;stroke-miterlimit:4;stroke-dasharray:none;stroke-dashoffset:0;stroke-opacity:1;color-rendering:auto;image-rendering:auto;shape-rendering:auto;text-rendering:auto;enable-background:accumulate;stop-color:#000000" />
      <path
         id="path1154"
         d="m 8.9960938,291.17969 a 0.26460996,0.26460996 0 0 0 -0.265625,0.26367 v 2.11719 a 0.26460996,0.26460996 0 0 0 0.265625,0.26367 h 1.3222652 a 0.26460996,0.26460996 0 0 0 0.265625,-0.26367 v -2.11719 a 0.26460996,0.26460996 0 0 0 -0.265625,-0.26367 z"
         style="color:#000000;font-style:normal;font-variant:normal;font-weight:normal;font-stretch:normal;font-size:medium;line-height:normal;font-family:sans-serif;font-variant-ligatures:normal;font-variant-position:normal;font-variant-caps:normal;font-variant-numeric:normal;font-variant-alternates:normal;font-variant-east-asian:normal;font-feature-settings:normal;font-variation-settings:normal;text-indent:0;text-align:start;text-decoration:none;text-decoration-line:none;text-decoration-style:solid;text-decoration-color:#000000;letter-spacing:normal;word-spacing:normal;text-transform:none;writing-mode:lr-tb;direction:ltr;text-orientation:mixed;dominant-baseline:auto;baseline-shift:baseline;text-anchor:start;white-space:normal;shape-padding:0;shape-margin:0;inline-size:0;clip-rule:nonzero;display:inline;overflow:visible;visibility:visible;isolation:auto;mix-blend-mode:normal;color-interpolation:sRGB;color-interpolation-filters:linearRGB;solid-color:#000000;solid-opacity:1;vector-effect:none;fill:#87d1ee;fill-opacity:1;fill-rule:nonzero;stroke:none;stroke-width:0.429596;stroke-linecap:round;stroke-linejoin:round;stroke-miterlimit:4;stroke-dasharray:none;stroke-dashoffset:0;stroke-opacity:1;color-rendering:auto;image-rendering:auto;shape-rendering:auto;text-rendering:auto;enable-background:accumulate;stop-color:#000000" />
      <path
         id="path1100"
         d="m 2.3808594,291.17969 a 0.26460996,0.26460996 0 0 0 -0.2636719,0.26367 v 2.11719 a 0.26460996,0.26460996 0 0 0 0.2636719,0.26367 H 3.7050781 A 0.26460996,0.26460996 0 0 0 3.96875,293.56055 v -2.11719 a 0.26460996,0.26460996 0 0 0 -0.2636719,-0.26367 z"
         style="color:#000000;font-style:normal;font-variant:normal;font-weight:normal;font-stretch:normal;font-size:medium;line-height:normal;font-family:sans-serif;font-variant-ligatures:normal;font-variant-position:normal;font-variant-caps:normal;font-variant-numeric:normal;font-variant-alternates:normal;font-variant-east-asian:normal;font-feature-settings:normal;font-variation-settings:normal;text-indent:0;text-align:start;text-decoration:none;text-decoration-line:none;text-decoration-style:solid;text-decoration-color:#000000;letter-spacing:normal;word-spacing:normal;text-transform:none;writing-mode:lr-tb;direction:ltr;text-orientation:mixed;dominant-baseline:auto;baseline-shift:baseline;text-anchor:start;white-space:normal;shape-padding:0;shape-margin:0;inline-size:0;clip-rule:nonzero;display:inline;overflow:visible;visibility:visible;isolation:auto;mix-blend-mode:normal;color-interpolation:sRGB;color-interpolation-filters:linearRGB;solid-color:#000000;solid-opacity:1;vector-effect:none;fill:#87d1ee;fill-opacity:1;fill-rule:nonzero;stroke:none;stroke-width:0.429596;stroke-linecap:round;stroke-linejoin:round;stroke-miterlimit:4;stroke-dasharray:none;stroke-dashoffset:0;stroke-opacity:1;color-rendering:auto;image-rendering:auto;shape-rendering:auto;text-rendering:auto;enable-background:accumulate;stop-color:#000000" />
      <path
         transform="matrix(0.26458333,0,0,0.26458333,0,284.3)"
         d="m 8.9980469,26.001953 a 1.0001006,1.0001006 0 0 0 -0.9960938,0.996094 v 2.310547 c 3.0666509,0.499849 3.3653929,4.742864 5.1874999,6.6875 h 0.814453 A 1.0001006,1.0001006 0 0 0 15,35 v -8.001953 a 1.0001006,1.0001006 0 0 0 -0.996094,-0.996094 z"
         style="fill:#7dc1db;fill-opacity:1;stroke:none;stroke-width:1.62367;stroke-linecap:round;stroke-linejoin:round;stroke-opacity:1"
         id="path1296" />
      <path
         id="path1137"
         d="m 2.1171875,293.29492 a 0.2645835,0.2645835 0 0 0 -0.265625,0.26563 0.2645835,0.2645835 0 0 0 0.265625,0.26367 H 3.96875 A 0.2645835,0.2645835 0 0 0 4.2324219,293.56055 0.2645835,0.2645835 0 0 0 3.96875,293.29492 Z"
         style="color:#000000;font-style:normal;font-variant:normal;font-weight:normal;font-stretch:normal;font-size:medium;line-height:normal;font-family:sans-serif;font-variant-ligatures:normal;font-variant-position:normal;font-variant-caps:normal;font-variant-numeric:normal;font-variant-alternates:normal;font-variant-east-asian:normal;font-feature-settings:normal;font-variation-settings:normal;text-indent:0;text-align:start;text-decoration:none;text-decoration-line:none;text-decoration-style:solid;text-decoration-color:#000000;letter-spacing:normal;word-spacing:normal;text-transform:none;writing-mode:lr-tb;direction:ltr;text-orientation:mixed;dominant-baseline:auto;baseline-shift:baseline;text-anchor:start;white-space:normal;shape-padding:0;shape-margin:0;inline-size:0;clip-rule:nonzero;display:inline;overflow:visible;visibility:visible;isolation:auto;mix-blend-mode:normal;color-interpolation:sRGB;color-interpolation-filters:linearRGB;solid-color:#000000;solid-opacity:1;vector-effect:none;fill:#3a4d5c;fill-opacity:1;fill-rule:nonzero;stroke:none;stroke-width:0.429596;stroke-linecap:round;stroke-linejoin:round;stroke-miterlimit:4;stroke-dasharray:none;stroke-dashoffset:0;stroke-opacity:1;color-rendering:auto;image-rendering:auto;shape-rendering:auto;text-rendering:auto;enable-background:accumulate;stop-color:#000000" />
      <path
         transform="matrix(0.26458333,0,0,0.26458333,0,284.3)"
         d="m 34.001953,26.001953 a 1.0001006,1.0001006 0 0 0 -1.005859,0.996094 v 1.435547 c 1.39975,0.902904 3.411193,0.734883 4.769531,1.414062 1.103488,0.551725 -0.195034,5.64231 1.839844,5.947266 A 1.0001006,1.0001006 0 0 0 40.001953,35 v -8.001953 a 1.0001006,1.0001006 0 0 0 -1.003906,-0.996094 z"
         style="fill:#7dc1db;fill-opacity:1;stroke:none;stroke-width:1.62367;stroke-linecap:round;stroke-linejoin:round;stroke-opacity:1"
         id="path1301" />
      <path
         id="path1169"
         d="m 8.7304688,293.29492 a 0.2645835,0.2645835 0 0 0 -0.2636719,0.26563 0.2645835,0.2645835 0 0 0 0.2636719,0.26367 h 1.8535152 a 0.2645835,0.2645835 0 0 0 0.263672,-0.26367 0.2645835,0.2645835 0 0 0 -0.263672,-0.26563 z"
         style="color:#000000;font-style:normal;font-variant:normal;font-weight:normal;font-stretch:normal;font-size:medium;line-height:normal;font-family:sans-serif;font-variant-ligatures:normal;font-variant-position:normal;font-variant-caps:normal;font-variant-numeric:normal;font-variant-alternates:normal;font-variant-east-asian:normal;font-feature-settings:normal;font-variation-settings:normal;text-indent:0;text-align:start;text-decoration:none;text-decoration-line:none;text-decoration-style:solid;text-decoration-color:#000000;letter-spacing:normal;word-spacing:normal;text-transform:none;writing-mode:lr-tb;direction:ltr;text-orientation:mixed;dominant-baseline:auto;baseline-shift:baseline;text-anchor:start;white-space:normal;shape-padding:0;shape-margin:0;inline-size:0;clip-rule:nonzero;display:inline;overflow:visible;visibility:visible;isolation:auto;mix-blend-mode:normal;color-interpolation:sRGB;color-interpolation-filters:linearRGB;solid-color:#000000;solid-opacity:1;vector-effect:none;fill:#3a4d5c;fill-opacity:1;fill-rule:nonzero;stroke:none;stroke-width:0.429596;stroke-linecap:round;stroke-linejoin:round;stroke-miterlimit:4;stroke-dasharray:none;stroke-dashoffset:0;stroke-opacity:1;color-rendering:auto;image-rendering:auto;shape-rendering:auto;text-rendering:auto;enable-background:accumulate;stop-color:#000000" />
      <path
         id="path1219"
         d="m 6.0859375,293.82422 a 0.2645835,0.2645835 0 0 0 -0.265625,0.26562 0.2645835,0.2645835 0 0 0 0.265625,0.26368 h 0.5292969 a 0.2645835,0.2645835 0 0 0 0.2636718,-0.26368 0.2645835,0.2645835 0 0 0 -0.2636718,-0.26562 z"
         style="color:#000000;font-style:normal;font-variant:normal;font-weight:normal;font-stretch:normal;font-size:medium;line-height:normal;font-family:sans-serif;font-variant-ligatures:normal;font-variant-position:normal;font-variant-caps:normal;font-variant-numeric:normal;font-variant-alternates:normal;font-variant-east-asian:normal;font-feature-settings:normal;font-variation-settings:normal;text-indent:0;text-align:start;text-decoration:none;text-decoration-line:none;text-decoration-style:solid;text-decoration-color:#000000;letter-spacing:normal;word-spacing:normal;text-transform:none;writing-mode:lr-tb;direction:ltr;text-orientation:mixed;dominant-baseline:auto;baseline-shift:baseline;text-anchor:start;white-space:normal;shape-padding:0;shape-margin:0;inline-size:0;clip-rule:nonzero;display:inline;overflow:visible;visibility:visible;opacity:1;isolation:auto;mix-blend-mode:normal;color-interpolation:sRGB;color-interpolation-filters:linearRGB;solid-color:#000000;solid-opacity:1;vector-effect:none;fill:#0f2437;fill-opacity:1;fill-rule:nonzero;stroke:none;stroke-width:0.429596;stroke-linecap:round;stroke-linejoin:round;stroke-miterlimit:4;stroke-dasharray:none;stroke-dashoffset:0;stroke-opacity:1;color-rendering:auto;image-rendering:auto;shape-rendering:auto;text-rendering:auto;enable-background:accumulate;stop-color:#000000;stop-opacity:1" />
      <path
         transform="matrix(0.26458333,0,0,0.26458333,0,284.3)"
         d="M 10.001953,3.9960938 A 1.0001006,1.0001006 0 0 0 9.1679688,4.4472656 L 8.8300781,4.953125 C 13.888551,14.561758 25.924659,8.2728684 32.527344,11.574219 35.519158,13.070131 37.04487,15.533341 38.462891,18 h 7.533203 a 1.0001006,1.0001006 0 0 0 0.833984,-1.556641 L 38.828125,4.4472656 A 1.0001006,1.0001006 0 0 0 38.001953,3.9960938 Z"
         style="fill:#31434f;fill-opacity:1;stroke:none;stroke-width:1.62367;stroke-linecap:round;stroke-linejoin:round;stroke-opacity:1"
         id="path1277" />
      <path
         id="path1066"
         d="m 6.3808594,286.4082 a 0.26460996,0.26460996 0 0 0 -0.2226563,0.0977 c -0.230549,0.2838 -0.4249793,0.38107 -0.6328125,0.42578 -0.2078331,0.0447 -0.4446813,0.0232 -0.7207031,0.006 a 0.26460996,0.26460996 0 0 0 -0.2792969,0.23828 c -0.0776,0.79427 0.008,1.49778 0.2929688,2.08594 0.2849685,0.58815 0.7707992,1.04961 1.4335937,1.35547 a 0.26460996,0.26460996 0 0 0 0.2226563,0 c 0.6627945,-0.30586 1.1466721,-0.76732 1.4316406,-1.35547 0.2849685,-0.58816 0.3725217,-1.29167 0.2949219,-2.08594 A 0.26460996,0.26460996 0 0 0 7.921875,286.9375 c -0.2760315,0.0173 -0.5128681,0.0389 -0.7207031,-0.006 -0.2078351,-0.0447 -0.4022648,-0.14198 -0.6328125,-0.42578 a 0.26460996,0.26460996 0 0 0 -0.1875,-0.0977 z"
         style="color:#000000;font-style:normal;font-variant:normal;font-weight:normal;font-stretch:normal;font-size:medium;line-height:normal;font-family:sans-serif;font-variant-ligatures:normal;font-variant-position:normal;font-variant-caps:normal;font-variant-numeric:normal;font-variant-alternates:normal;font-variant-east-asian:normal;font-feature-settings:normal;font-variation-settings:normal;text-indent:0;text-align:start;text-decoration:none;text-decoration-line:none;text-decoration-style:solid;text-decoration-color:#000000;letter-spacing:normal;word-spacing:normal;text-transform:none;writing-mode:lr-tb;direction:ltr;text-orientation:mixed;dominant-baseline:auto;baseline-shift:baseline;text-anchor:start;white-space:normal;shape-padding:0;shape-margin:0;inline-size:0;clip-rule:nonzero;display:inline;overflow:visible;visibility:visible;isolation:auto;mix-blend-mode:normal;color-interpolation:sRGB;color-interpolation-filters:linearRGB;solid-color:#000000;solid-opacity:1;vector-effect:none;fill:#febe40;fill-opacity:1;fill-rule:nonzero;stroke:none;stroke-width:0.429596;stroke-linecap:round;stroke-linejoin:round;stroke-miterlimit:4;stroke-dasharray:none;stroke-dashoffset:0;stroke-opacity:1;color-rendering:auto;image-rendering:auto;shape-rendering:auto;text-rendering:auto;enable-background:accumulate;stop-color:#000000" />
      <path
         transform="matrix(0.26458333,0,0,0.26458333,0,284.3)"
         d="m 24.033203,7.9667969 a 1.0001006,1.0001006 0 0 0 -0.757812,0.3710937 c -0.871367,1.0726299 -1.607067,1.4403923 -2.392579,1.609375 -0.78551,0.1689454 -1.679424,0.086492 -2.722656,0.021484 a 1.0001006,1.0001006 0 0 0 -1.05664,0.9003914 c -0.02091,0.21403 -0.03033,0.422303 -0.04492,0.632812 3.536734,2.478762 10.18892,2.547779 10.960937,4.091797 0.204987,0.409978 0.737852,2.494872 1.22461,4.271484 0.232575,-0.357273 0.451235,-0.724475 0.638671,-1.111328 1.077047,-2.222967 1.406572,-4.8828 1.113282,-7.884765 A 1.0001006,1.0001006 0 0 0 29.941406,9.96875 C 28.898138,10.034136 28.002315,10.115013 27.216797,9.9453125 26.431278,9.7763676 25.697533,9.4085674 24.826172,8.3359375 A 1.0001006,1.0001006 0 0 0 24.117188,7.9667969 v 0.00195 a 1.0001006,1.0001006 0 0 0 -0.08398,-0.00195 z"
         style="fill:#e5ab38;fill-opacity:1;stroke:none;stroke-width:1.62367;stroke-linecap:round;stroke-linejoin:round;stroke-opacity:1"
         id="path1282" />
    </g>
  </g>
</svg>
