<?xml version="1.0" encoding="UTF-8" standalone="no"?>
<svg
   xmlns:dc="http://purl.org/dc/elements/1.1/"
   xmlns:cc="http://creativecommons.org/ns#"
   xmlns:rdf="http://www.w3.org/1999/02/22-rdf-syntax-ns#"
   xmlns:svg="http://www.w3.org/2000/svg"
   xmlns="http://www.w3.org/2000/svg"
   xmlns:sodipodi="http://sodipodi.sourceforge.net/DTD/sodipodi-0.dtd"
   xmlns:inkscape="http://www.inkscape.org/namespaces/inkscape"
   inkscape:export-ydpi="768"
   inkscape:export-xdpi="768"
   inkscape:export-filename="C:\Users\RainBoyz\Desktop\EXPORT FLAT\1. Thief.png"
   width="48pt"
   height="48pt"
   viewBox="0 0 16.933334 16.933333"
   version="1.1"
   id="svg979"
   inkscape:version="1.0 (4035a4fb49, 2020-05-01)"
   sodipodi:docname="1. Thief.svg">
  <defs
     id="defs973" />
  <sodipodi:namedview
     id="base"
     pagecolor="#ffffff"
     bordercolor="#666666"
     borderopacity="1.0"
     inkscape:pageopacity="0.0"
     inkscape:pageshadow="2"
     inkscape:zoom="6.0435533"
     inkscape:cx="11.280141"
     inkscape:cy="26.741684"
     inkscape:document-units="pt"
     inkscape:current-layer="layer1"
     showgrid="false"
     units="pt"
     inkscape:window-width="1366"
     inkscape:window-height="715"
     inkscape:window-x="-8"
     inkscape:window-y="-8"
     inkscape:window-maximized="1"
     inkscape:document-rotation="0"
     inkscape:snap-bbox="true"
     inkscape:bbox-nodes="true"
     inkscape:snap-nodes="false">
    <inkscape:grid
       type="xygrid"
       id="grid1526" />
    <sodipodi:guide
       position="0.97013909,15.963209"
       orientation="56.666615,0"
       id="guide1528"
       inkscape:locked="false" />
    <sodipodi:guide
       position="0.97013909,0.97016731"
       orientation="0,56.666667"
       id="guide1530"
       inkscape:locked="false" />
    <sodipodi:guide
       position="15.963195,0.97016731"
       orientation="-56.666615,0"
       id="guide1532"
       inkscape:locked="false" />
    <sodipodi:guide
       position="15.963195,15.963209"
       orientation="0,-56.666667"
       id="guide1534"
       inkscape:locked="false" />
  </sodipodi:namedview>
  <metadata
     id="metadata976">
    <rdf:RDF>
      <cc:Work
         rdf:about="">
        <dc:format>image/svg+xml</dc:format>
        <dc:type
           rdf:resource="http://purl.org/dc/dcmitype/StillImage" />
        <dc:title></dc:title>
      </cc:Work>
    </rdf:RDF>
  </metadata>
  <g
     inkscape:label="Layer 1"
     inkscape:groupmode="layer"
     id="layer1"
     transform="translate(0,-280.06668)">
    <g
       transform="matrix(1.231975,0,0,1.231975,54.883491,307.82988)"
       style="display:inline"
       id="g1147">
      <path
         style="color:#000000;font-style:normal;font-variant:normal;font-weight:normal;font-stretch:normal;font-size:medium;line-height:normal;font-family:sans-serif;font-variant-ligatures:normal;font-variant-position:normal;font-variant-caps:normal;font-variant-numeric:normal;font-variant-alternates:normal;font-variant-east-asian:normal;font-feature-settings:normal;font-variation-settings:normal;text-indent:0;text-align:start;text-decoration:none;text-decoration-line:none;text-decoration-style:solid;text-decoration-color:#000000;letter-spacing:normal;word-spacing:normal;text-transform:none;writing-mode:lr-tb;direction:ltr;text-orientation:mixed;dominant-baseline:auto;baseline-shift:baseline;text-anchor:start;white-space:normal;shape-padding:0;shape-margin:0;inline-size:0;clip-rule:nonzero;display:inline;overflow:visible;visibility:visible;opacity:1;isolation:auto;mix-blend-mode:normal;color-interpolation:sRGB;color-interpolation-filters:linearRGB;solid-color:#000000;solid-opacity:1;vector-effect:none;fill:#f8c09d;fill-opacity:1;fill-rule:nonzero;stroke:none;stroke-width:0.529167;stroke-linecap:round;stroke-linejoin:round;stroke-miterlimit:4;stroke-dasharray:none;stroke-dashoffset:0;stroke-opacity:1;color-rendering:auto;image-rendering:auto;shape-rendering:auto;text-rendering:auto;enable-background:accumulate;stop-color:#000000;stop-opacity:1"
         d="m -37.703125,-17.958984 c -1.019371,-0.0032 -2.029252,0.08516 -3.027344,0.253906 a 0.26460996,0.26460996 0 0 0 -0.21289,0.203125 c -0.05132,0.232946 -0.07813,0.474828 -0.07813,0.722656 1e-6,1.844351 1.499397,3.345703 3.34375,3.345703 1.844351,0 3.345702,-1.501352 3.345703,-3.345703 0,-0.234162 -0.02436,-0.462565 -0.07031,-0.683594 a 0.26460996,0.26460996 0 0 0 -0.210937,-0.207031 c -1.041055,-0.192167 -2.070473,-0.285867 -3.089844,-0.289062 z"
         id="path1196" />
      <path
         id="path316"
         style="fill:#f5a794;fill-opacity:1;stroke:none;stroke-width:0.999999px;stroke-linecap:butt;stroke-linejoin:miter;stroke-opacity:1"
         d="m -142.5,-67.876953 c -3.85274,-0.0121 -7.66909,0.323157 -11.44141,0.960937 a 1.0001006,1.0001006 0 0 0 -0.80468,0.767578 c -0.19397,0.880426 -0.29493,1.793796 -0.29493,2.730469 0,0.238597 0.0221,0.471648 0.0352,0.707031 3.48199,3.489052 11.71501,-0.622885 15.45117,3.113282 1.59542,1.595413 3.07809,4.122293 4.52539,6.43164 3.18567,-2.298682 5.26953,-6.033683 5.26953,-10.251953 0,-0.885021 -0.0919,-1.748599 -0.26562,-2.583984 a 1.0001006,1.0001006 0 0 0 -0.79688,-0.78125 c -3.93469,-0.726301 -7.82499,-1.081675 -11.67773,-1.09375 z"
         transform="scale(0.26458333)" />
      <path
         style="color:#000000;font-style:normal;font-variant:normal;font-weight:normal;font-stretch:normal;font-size:medium;line-height:normal;font-family:sans-serif;font-variant-ligatures:normal;font-variant-position:normal;font-variant-caps:normal;font-variant-numeric:normal;font-variant-alternates:normal;font-variant-east-asian:normal;font-feature-settings:normal;font-variation-settings:normal;text-indent:0;text-align:start;text-decoration:none;text-decoration-line:none;text-decoration-style:solid;text-decoration-color:#000000;letter-spacing:normal;word-spacing:normal;text-transform:none;writing-mode:lr-tb;direction:ltr;text-orientation:mixed;dominant-baseline:auto;baseline-shift:baseline;text-anchor:start;white-space:normal;shape-padding:0;shape-margin:0;inline-size:0;clip-rule:nonzero;display:inline;overflow:visible;visibility:visible;opacity:1;isolation:auto;mix-blend-mode:normal;color-interpolation:sRGB;color-interpolation-filters:linearRGB;solid-color:#000000;solid-opacity:1;vector-effect:none;fill:#0f2437;fill-opacity:1;fill-rule:nonzero;stroke:none;stroke-width:0.529167;stroke-linecap:round;stroke-linejoin:round;stroke-miterlimit:4;stroke-dasharray:none;stroke-dashoffset:0;stroke-opacity:1;color-rendering:auto;image-rendering:auto;shape-rendering:auto;text-rendering:auto;enable-background:accumulate;stop-color:#000000;stop-opacity:1"
         d="m -39.943359,-16.537109 1.792968,0.482421 c -0.01183,0.0477 0.0042,0.103763 -0.04492,0.15625 -0.07952,0.08494 -0.260293,0.177302 -0.470704,0.261719 -0.682648,-0.194707 -1.04695,-0.514352 -1.277343,-0.90039 z"
         id="path1208" />
      <path
         style="color:#000000;font-style:normal;font-variant:normal;font-weight:normal;font-stretch:normal;font-size:medium;line-height:normal;font-family:sans-serif;font-variant-ligatures:normal;font-variant-position:normal;font-variant-caps:normal;font-variant-numeric:normal;font-variant-alternates:normal;font-variant-east-asian:normal;font-feature-settings:normal;font-variation-settings:normal;text-indent:0;text-align:start;text-decoration:none;text-decoration-line:none;text-decoration-style:solid;text-decoration-color:#000000;letter-spacing:normal;word-spacing:normal;text-transform:none;writing-mode:lr-tb;direction:ltr;text-orientation:mixed;dominant-baseline:auto;baseline-shift:baseline;text-anchor:start;white-space:normal;shape-padding:0;shape-margin:0;inline-size:0;clip-rule:nonzero;display:inline;overflow:visible;visibility:visible;opacity:1;isolation:auto;mix-blend-mode:normal;color-interpolation:sRGB;color-interpolation-filters:linearRGB;solid-color:#000000;solid-opacity:1;vector-effect:none;fill:#0f2437;fill-opacity:1;fill-rule:nonzero;stroke:none;stroke-width:0.529167;stroke-linecap:round;stroke-linejoin:round;stroke-miterlimit:4;stroke-dasharray:none;stroke-dashoffset:0;stroke-opacity:1;color-rendering:auto;image-rendering:auto;shape-rendering:auto;text-rendering:auto;enable-background:accumulate;stop-color:#000000;stop-opacity:1"
         d="m -35.410156,-16.537109 c -0.23041,0.386064 -0.596567,0.705683 -1.279297,0.90039 -0.210411,-0.08442 -0.391183,-0.176781 -0.470703,-0.261719 -0.04914,-0.05249 -0.03309,-0.108546 -0.04492,-0.15625 z"
         id="path1216" />
      <path
         style="color:#000000;font-style:normal;font-variant:normal;font-weight:normal;font-stretch:normal;font-size:medium;line-height:normal;font-family:sans-serif;font-variant-ligatures:normal;font-variant-position:normal;font-variant-caps:normal;font-variant-numeric:normal;font-variant-alternates:normal;font-variant-east-asian:normal;font-feature-settings:normal;font-variation-settings:normal;text-indent:0;text-align:start;text-decoration:none;text-decoration-line:none;text-decoration-style:solid;text-decoration-color:#000000;letter-spacing:normal;word-spacing:normal;text-transform:none;writing-mode:lr-tb;direction:ltr;text-orientation:mixed;dominant-baseline:auto;baseline-shift:baseline;text-anchor:start;white-space:normal;shape-padding:0;shape-margin:0;inline-size:0;clip-rule:nonzero;display:inline;overflow:visible;visibility:visible;isolation:auto;mix-blend-mode:normal;color-interpolation:sRGB;color-interpolation-filters:linearRGB;solid-color:#000000;solid-opacity:1;vector-effect:none;fill:#3a4d5c;fill-opacity:1;fill-rule:nonzero;stroke:none;stroke-width:0.529167;stroke-linecap:round;stroke-linejoin:round;stroke-miterlimit:4;stroke-dasharray:none;stroke-dashoffset:0;stroke-opacity:1;color-rendering:auto;image-rendering:auto;shape-rendering:auto;text-rendering:auto;enable-background:accumulate;stop-color:#000000"
         d="m -37.677734,-21.748047 c -0.776597,0 -1.33311,0.139936 -1.730469,0.375 -0.397359,0.235065 -0.622622,0.569249 -0.724609,0.892578 -0.203976,0.646659 0.03516,1.253906 0.03516,1.253907 a 0.26460996,0.26460996 0 0 0 0.248047,0.173828 h 4.347656 a 0.26460996,0.26460996 0 0 0 0.248047,-0.173828 c 0,0 0.238083,-0.60738 0.0332,-1.253907 -0.10244,-0.323263 -0.32701,-0.657575 -0.724609,-0.892578 -0.3976,-0.235003 -0.955826,-0.375 -1.732423,-0.375 z"
         id="path1151" />
      <path
         id="path1155"
         style="color:#000000;font-style:normal;font-variant:normal;font-weight:normal;font-stretch:normal;font-size:medium;line-height:normal;font-family:sans-serif;font-variant-ligatures:normal;font-variant-position:normal;font-variant-caps:normal;font-variant-numeric:normal;font-variant-alternates:normal;font-variant-east-asian:normal;font-feature-settings:normal;font-variation-settings:normal;text-indent:0;text-align:start;text-decoration:none;text-decoration-line:none;text-decoration-style:solid;text-decoration-color:#000000;letter-spacing:normal;word-spacing:normal;text-transform:none;writing-mode:lr-tb;direction:ltr;text-orientation:mixed;dominant-baseline:auto;baseline-shift:baseline;text-anchor:start;white-space:normal;shape-padding:0;shape-margin:0;inline-size:0;clip-rule:nonzero;display:inline;overflow:visible;visibility:visible;isolation:auto;mix-blend-mode:normal;color-interpolation:sRGB;color-interpolation-filters:linearRGB;solid-color:#000000;solid-opacity:1;vector-effect:none;fill:#143441;fill-opacity:1;fill-rule:nonzero;stroke:none;stroke-width:2;stroke-linecap:round;stroke-linejoin:round;stroke-miterlimit:4;stroke-dasharray:none;stroke-dashoffset:0;stroke-opacity:1;color-rendering:auto;image-rendering:auto;shape-rendering:auto;text-rendering:auto;enable-background:accumulate;stop-color:#000000"
         d="m -142.30859,-77.029297 c -3.2044,-0.01383 -6.4246,0.376682 -9.66016,1.197266 -0.12093,1.769105 0.41797,3.164059 0.41797,3.164062 a 1.0001006,1.0001006 0 0 0 0.9375,0.658203 h 16.43359 a 1.0001006,1.0001006 0 0 0 0.9375,-0.658203 c 0,0 0.53157,-1.386663 0.41211,-3.148437 -3.13651,-0.787603 -6.29863,-1.199048 -9.47851,-1.212891 z"
         transform="scale(0.26458333)" />
      <path
         style="color:#000000;font-style:normal;font-variant:normal;font-weight:normal;font-stretch:normal;font-size:medium;line-height:normal;font-family:sans-serif;font-variant-ligatures:normal;font-variant-position:normal;font-variant-caps:normal;font-variant-numeric:normal;font-variant-alternates:normal;font-variant-east-asian:normal;font-feature-settings:normal;font-variation-settings:normal;text-indent:0;text-align:start;text-decoration:none;text-decoration-line:none;text-decoration-style:solid;text-decoration-color:#000000;letter-spacing:normal;word-spacing:normal;text-transform:none;writing-mode:lr-tb;direction:ltr;text-orientation:mixed;dominant-baseline:auto;baseline-shift:baseline;text-anchor:start;white-space:normal;shape-padding:0;shape-margin:0;inline-size:0;clip-rule:nonzero;display:inline;overflow:visible;visibility:visible;isolation:auto;mix-blend-mode:normal;color-interpolation:sRGB;color-interpolation-filters:linearRGB;solid-color:#000000;solid-opacity:1;vector-effect:none;fill:#3a4d5c;fill-opacity:1;fill-rule:nonzero;stroke:none;stroke-width:0.529167;stroke-linecap:round;stroke-linejoin:round;stroke-miterlimit:4;stroke-dasharray:none;stroke-dashoffset:0;stroke-opacity:1;color-rendering:auto;image-rendering:auto;shape-rendering:auto;text-rendering:auto;enable-background:accumulate;stop-color:#000000"
         d="m -37.652344,-19.851562 c -1.112019,-0.0048 -2.231374,0.173502 -3.357422,0.552734 a 0.26460996,0.26460996 0 0 0 -0.177734,0.207031 c -0.10192,0.59876 -0.02096,1.185812 0.265625,1.763672 a 0.26460996,0.26460996 0 0 0 0.287109,0.142578 c 1.869773,-0.369966 3.899664,-0.303024 5.929688,0.03711 a 0.26460996,0.26460996 0 0 0 0.283203,-0.146484 c 0.269129,-0.556915 0.365251,-1.16787 0.253906,-1.798828 a 0.26460996,0.26460996 0 0 0 -0.177734,-0.205078 c -1.090784,-0.359317 -2.194622,-0.547894 -3.306641,-0.552735 z"
         id="path1165" />
      <path
         style="color:#000000;font-style:normal;font-variant:normal;font-weight:normal;font-stretch:normal;font-size:medium;line-height:normal;font-family:sans-serif;font-variant-ligatures:normal;font-variant-position:normal;font-variant-caps:normal;font-variant-numeric:normal;font-variant-alternates:normal;font-variant-east-asian:normal;font-feature-settings:normal;font-variation-settings:normal;text-indent:0;text-align:start;text-decoration:none;text-decoration-line:none;text-decoration-style:solid;text-decoration-color:#000000;letter-spacing:normal;word-spacing:normal;text-transform:none;writing-mode:lr-tb;direction:ltr;text-orientation:mixed;dominant-baseline:auto;baseline-shift:baseline;text-anchor:start;white-space:normal;shape-padding:0;shape-margin:0;inline-size:0;clip-rule:nonzero;display:inline;overflow:visible;visibility:visible;opacity:1;isolation:auto;mix-blend-mode:normal;color-interpolation:sRGB;color-interpolation-filters:linearRGB;solid-color:#000000;solid-opacity:1;vector-effect:none;fill:#3a4d5c;fill-opacity:1;fill-rule:nonzero;stroke:none;stroke-width:0.529167;stroke-linecap:round;stroke-linejoin:round;stroke-miterlimit:4;stroke-dasharray:none;stroke-dashoffset:0;stroke-opacity:1;color-rendering:auto;image-rendering:auto;shape-rendering:auto;text-rendering:auto;enable-background:accumulate;stop-color:#000000;stop-opacity:1"
         d="m -37.677734,-13.896484 c -2.248922,0 -4.055097,1.956854 -4.054688,4.0546871 a 0.26460996,0.26460996 0 0 0 0.265625,0.2636719 h 7.580078 a 0.26460996,0.26460996 0 0 0 0.265625,-0.2636719 c -4.13e-4,-2.0977671 -1.807718,-4.0546871 -4.05664,-4.0546871 z"
         id="path1220" />
      <path
         id="path1144"
         style="fill:#143441;fill-opacity:1;stroke:none;stroke-width:0.999999px;stroke-linecap:butt;stroke-linejoin:miter;stroke-opacity:1"
         d="m -142.4043,-52.521484 c -3.22165,0 -6.19996,1.065099 -8.66015,2.816406 4.61704,2.007539 10.70383,0.847459 13.72461,5.613281 1.96693,3.10319 0.87521,5.676873 1.57031,7.890625 h 7.69336 c 0.55226,0.0021 1.00169,-0.443833 1.0039,-0.996094 -0.002,-7.928568 -6.83216,-15.324218 -15.33203,-15.324218 z"
         transform="scale(0.26458333)"
         sodipodi:nodetypes="scscccs" />
      <path
         id="path1229"
         style="color:#000000;font-style:normal;font-variant:normal;font-weight:normal;font-stretch:normal;font-size:medium;line-height:normal;font-family:sans-serif;font-variant-ligatures:normal;font-variant-position:normal;font-variant-caps:normal;font-variant-numeric:normal;font-variant-alternates:normal;font-variant-east-asian:normal;font-feature-settings:normal;font-variation-settings:normal;text-indent:0;text-align:start;text-decoration:none;text-decoration-line:none;text-decoration-style:solid;text-decoration-color:#000000;letter-spacing:normal;word-spacing:normal;text-transform:none;writing-mode:lr-tb;direction:ltr;text-orientation:mixed;dominant-baseline:auto;baseline-shift:baseline;text-anchor:start;white-space:normal;shape-padding:0;shape-margin:0;inline-size:0;clip-rule:nonzero;display:inline;overflow:visible;visibility:visible;opacity:1;isolation:auto;mix-blend-mode:normal;color-interpolation:sRGB;color-interpolation-filters:linearRGB;solid-color:#000000;solid-opacity:1;vector-effect:none;fill:#d0e2ee;fill-opacity:1;fill-rule:nonzero;stroke:none;stroke-width:2;stroke-linecap:round;stroke-linejoin:round;stroke-miterlimit:4;stroke-dasharray:none;stroke-dashoffset:0;stroke-opacity:1;color-rendering:auto;image-rendering:auto;shape-rendering:auto;text-rendering:auto;enable-background:accumulate;stop-color:#000000;stop-opacity:1"
         d="m -152.61523,-48.431641 c -0.6693,0.616146 -1.28681,1.283528 -1.8418,2 h 24.10937 c -0.55553,-0.71669 -1.17388,-1.3837 -1.84375,-2 z m -3.73243,5.115235 c -0.29864,0.649893 -0.55497,1.316093 -0.75976,2 h 29.41211 c -0.20512,-0.683975 -0.46273,-1.350041 -0.76172,-2 z"
         transform="scale(0.26458333)" />
      <path
         id="path1181"
         style="color:#000000;font-style:normal;font-variant:normal;font-weight:normal;font-stretch:normal;font-size:medium;line-height:normal;font-family:sans-serif;font-variant-ligatures:normal;font-variant-position:normal;font-variant-caps:normal;font-variant-numeric:normal;font-variant-alternates:normal;font-variant-east-asian:normal;font-feature-settings:normal;font-variation-settings:normal;text-indent:0;text-align:start;text-decoration:none;text-decoration-line:none;text-decoration-style:solid;text-decoration-color:#000000;letter-spacing:normal;word-spacing:normal;text-transform:none;writing-mode:lr-tb;direction:ltr;text-orientation:mixed;dominant-baseline:auto;baseline-shift:baseline;text-anchor:start;white-space:normal;shape-padding:0;shape-margin:0;inline-size:0;clip-rule:nonzero;display:inline;overflow:visible;visibility:visible;opacity:1;isolation:auto;mix-blend-mode:normal;color-interpolation:sRGB;color-interpolation-filters:linearRGB;solid-color:#000000;solid-opacity:1;vector-effect:none;fill:#d0e2ee;fill-opacity:1;fill-rule:nonzero;stroke:none;stroke-width:2;stroke-linecap:round;stroke-linejoin:round;stroke-miterlimit:4;stroke-dasharray:none;stroke-dashoffset:0;stroke-opacity:1;color-rendering:auto;image-rendering:auto;shape-rendering:auto;text-rendering:auto;enable-background:accumulate;stop-color:#000000;stop-opacity:1"
         d="m -142.30859,-75.029297 c -0.0579,-2.5e-4 -0.11589,0.0019 -0.17383,0.002 a 1.0000006,1.0000006 0 0 0 0.24804,0.197266 c 2.26868,1.260291 2.98621,2.852252 2.9004,4.546875 -0.0758,1.497326 -0.89034,3.120755 -2.23829,4.429687 0.84421,0.02448 1.69077,0.06265 2.54102,0.119141 0.99329,-1.342984 1.6193,-2.874879 1.69922,-4.453125 0.0835,-1.649843 -0.50078,-3.309849 -1.76563,-4.693359 -1.06795,-0.09426 -2.13865,-0.14377 -3.21093,-0.148438 z m -0.58203,0.0098 c -1.14117,0.01245 -2.28451,0.07719 -3.42969,0.193359 -1.23044,1.372706 -1.79925,3.010342 -1.7168,4.638672 0.0785,1.550249 0.68199,3.056978 1.64453,4.382812 0.8513,-0.04307 1.70726,-0.06654 2.56836,-0.07227 -1.33271,-1.30462 -2.1356,-2.918383 -2.21094,-4.40625 -0.0858,-1.694623 0.63172,-3.286584 2.90039,-4.546875 a 1.0000006,1.0000006 0 0 0 0.24415,-0.189453 z m 5.16796,0.287109 c 2.13657,1.244784 2.82781,2.797038 2.74414,4.449219 -0.0805,1.590349 -1.00047,3.319361 -2.50195,4.666015 0.83624,0.07361 1.67422,0.163917 2.51367,0.265626 1.16455,-1.430213 1.90261,-3.105429 1.99024,-4.835938 0.0687,-1.355924 -0.31945,-2.717581 -1.15625,-3.929688 -1.19341,-0.259353 -2.38979,-0.466351 -3.58985,-0.615234 z m -10.08203,0.08594 c -1.18098,0.166585 -2.36373,0.387276 -3.54883,0.667968 -0.77077,1.17701 -1.12658,2.486828 -1.06054,3.791016 0.0857,1.692443 0.79804,3.330849 1.91992,4.740234 0.82115,-0.106382 1.64682,-0.196709 2.48047,-0.263672 -1.44042,-1.33281 -2.32172,-3.018606 -2.40039,-4.572265 -0.0818,-1.614985 0.58451,-3.132991 2.60937,-4.363281 z"
         transform="scale(0.26458333)" />
      <path
         id="path1149"
         style="fill:#aabfd0;fill-opacity:1;stroke:none;stroke-width:0.999999px;stroke-linecap:butt;stroke-linejoin:miter;stroke-opacity:1"
         d="m -146.19727,-48.431641 c 2.31876,0.41323 4.62766,0.802951 6.50977,2 h 9.33789 c -0.005,-0.0059 -0.009,-0.01172 -0.0137,-0.01758 -0.26556,-0.341518 -0.54501,-0.671448 -0.83789,-0.990234 -0.009,-0.0096 -0.0166,-0.01977 -0.0254,-0.0293 -0.004,-0.0041 -0.008,-0.0077 -0.0117,-0.01172 -0.30249,-0.326997 -0.61859,-0.642631 -0.94727,-0.945312 -0.002,-0.0019 -0.004,-0.004 -0.006,-0.0059 z m 9.28711,5.115235 c 0.34193,0.69471 0.5324,1.357925 0.65235,2 h 8.56054 c -0.002,-0.0058 -0.002,-0.01183 -0.004,-0.01758 -0.0786,-0.26081 -0.17044,-0.517736 -0.26367,-0.773438 -0.0432,-0.119424 -0.0867,-0.239066 -0.13282,-0.357422 -0.11223,-0.285397 -0.22902,-0.568351 -0.35742,-0.847656 -6.1e-4,-0.0013 -10e-4,-0.0026 -0.002,-0.0039 z"
         transform="scale(0.26458333)" />
    </g>
  </g>
</svg>
