<?xml version="1.0" encoding="UTF-8" standalone="no"?>
<svg
   xmlns:dc="http://purl.org/dc/elements/1.1/"
   xmlns:cc="http://creativecommons.org/ns#"
   xmlns:rdf="http://www.w3.org/1999/02/22-rdf-syntax-ns#"
   xmlns:svg="http://www.w3.org/2000/svg"
   xmlns="http://www.w3.org/2000/svg"
   xmlns:sodipodi="http://sodipodi.sourceforge.net/DTD/sodipodi-0.dtd"
   xmlns:inkscape="http://www.inkscape.org/namespaces/inkscape"
   inkscape:export-ydpi="768"
   inkscape:export-xdpi="768"
   inkscape:export-filename="D:\project\carlos flat crime eksport\png\police.png"
   sodipodi:docname="judgement.svg"
   inkscape:version="1.0 (4035a4fb49, 2020-05-01)"
   id="svg979"
   version="1.1"
   viewBox="0 0 16.933334 16.933333"
   height="48pt"
   width="48pt">
  <defs
     id="defs973" />
  <sodipodi:namedview
     inkscape:snap-nodes="false"
     inkscape:bbox-nodes="true"
     inkscape:snap-bbox="true"
     inkscape:snap-global="true"
     inkscape:document-rotation="0"
     inkscape:window-maximized="1"
     inkscape:window-y="-8"
     inkscape:window-x="-8"
     inkscape:window-height="706"
     inkscape:window-width="1366"
     units="pt"
     showgrid="false"
     inkscape:current-layer="layer1"
     inkscape:document-units="pt"
     inkscape:cy="32"
     inkscape:cx="32"
     inkscape:zoom="8.546875"
     inkscape:pageshadow="2"
     inkscape:pageopacity="0.0"
     borderopacity="1.0"
     bordercolor="#666666"
     pagecolor="#ffffff"
     id="base">
    <inkscape:grid
       id="grid1526"
       type="xygrid" />
    <sodipodi:guide
       inkscape:locked="false"
       id="guide1528"
       orientation="56.666615,0"
       position="0.97013909,15.963209" />
    <sodipodi:guide
       inkscape:locked="false"
       id="guide1530"
       orientation="0,56.666667"
       position="0.97013909,0.97016731" />
    <sodipodi:guide
       inkscape:locked="false"
       id="guide1532"
       orientation="-56.666615,0"
       position="15.963195,0.97016731" />
    <sodipodi:guide
       inkscape:locked="false"
       id="guide1534"
       orientation="0,-56.666667"
       position="15.963195,15.963209" />
  </sodipodi:namedview>
  <metadata
     id="metadata976">
    <rdf:RDF>
      <cc:Work
         rdf:about="">
        <dc:format>image/svg+xml</dc:format>
        <dc:type
           rdf:resource="http://purl.org/dc/dcmitype/StillImage" />
        <dc:title></dc:title>
      </cc:Work>
    </rdf:RDF>
  </metadata>
  <g
     transform="translate(0,-280.06668)"
     id="layer1"
     inkscape:groupmode="layer"
     inkscape:label="Layer 1">
    <g
       style="stroke-width:0.811835"
       transform="matrix(1.231777,0,0,1.231777,-53.586505,-42.367186)"
       id="g1484">
      <path
         id="path1213"
         d="m 46.162109,262.55078 c -0.445093,0 -0.8125,0.36741 -0.8125,0.8125 v 6.33203 c -2e-6,2.77325 2.254097,5.02735 5.027344,5.02735 2.773247,0 5.027346,-2.2541 5.027344,-5.02735 v -6.33203 c 0,-0.44509 -0.367407,-0.8125 -0.8125,-0.8125 z"
         style="color:#000000;font-style:normal;font-variant:normal;font-weight:normal;font-stretch:normal;font-size:medium;line-height:normal;font-family:sans-serif;font-variant-ligatures:normal;font-variant-position:normal;font-variant-caps:normal;font-variant-numeric:normal;font-variant-alternates:normal;font-variant-east-asian:normal;font-feature-settings:normal;font-variation-settings:normal;text-indent:0;text-align:start;text-decoration:none;text-decoration-line:none;text-decoration-style:solid;text-decoration-color:#000000;letter-spacing:normal;word-spacing:normal;text-transform:none;writing-mode:lr-tb;direction:ltr;text-orientation:mixed;dominant-baseline:auto;baseline-shift:baseline;text-anchor:start;white-space:normal;shape-padding:0;shape-margin:0;inline-size:0;clip-rule:nonzero;display:inline;overflow:visible;visibility:visible;isolation:auto;mix-blend-mode:normal;color-interpolation:sRGB;color-interpolation-filters:linearRGB;solid-color:#000000;solid-opacity:1;vector-effect:none;fill:#f5f6e8;fill-opacity:1;fill-rule:nonzero;stroke:none;stroke-width:0.429596;stroke-linecap:round;stroke-linejoin:round;stroke-miterlimit:4;stroke-dasharray:none;stroke-dashoffset:0;stroke-opacity:1;color-rendering:auto;image-rendering:auto;shape-rendering:auto;text-rendering:auto;enable-background:accumulate;stop-color:#000000" />
      <path
         id="path1110"
         d="m 50.376953,263.60938 c -1.165872,0 -2.117192,0.95131 -2.117187,2.11718 2e-6,1.16587 0.95132,2.11719 2.117187,2.11719 1.165867,0 2.117185,-0.95132 2.117188,-2.11719 4e-6,-1.16587 -0.951316,-2.11718 -2.117188,-2.11718 z"
         style="color:#000000;font-style:normal;font-variant:normal;font-weight:normal;font-stretch:normal;font-size:medium;line-height:normal;font-family:sans-serif;font-variant-ligatures:normal;font-variant-position:normal;font-variant-caps:normal;font-variant-numeric:normal;font-variant-alternates:normal;font-variant-east-asian:normal;font-feature-settings:normal;font-variation-settings:normal;text-indent:0;text-align:start;text-decoration:none;text-decoration-line:none;text-decoration-style:solid;text-decoration-color:#000000;letter-spacing:normal;word-spacing:normal;text-transform:none;writing-mode:lr-tb;direction:ltr;text-orientation:mixed;dominant-baseline:auto;baseline-shift:baseline;text-anchor:start;white-space:normal;shape-padding:0;shape-margin:0;inline-size:0;clip-rule:nonzero;display:inline;overflow:visible;visibility:visible;isolation:auto;mix-blend-mode:normal;color-interpolation:sRGB;color-interpolation-filters:linearRGB;solid-color:#000000;solid-opacity:1;vector-effect:none;fill:#f8c09d;fill-opacity:1;fill-rule:nonzero;stroke:none;stroke-width:0.429596;stroke-linecap:round;stroke-linejoin:round;stroke-miterlimit:4;stroke-dasharray:none;stroke-dashoffset:0;stroke-opacity:1;color-rendering:auto;image-rendering:auto;shape-rendering:auto;text-rendering:auto;enable-background:accumulate;stop-color:#000000" />
      <path
         id="path1161"
         d="m 53.001953,268.37305 a 0.2645835,0.2645835 0 0 0 -0.0059,0.002 0.2645835,0.2645835 0 0 0 -0.03711,0.006 0.2645835,0.2645835 0 0 0 -0.0059,0.002 0.2645835,0.2645835 0 0 0 -0.01563,0.004 0.2645835,0.2645835 0 0 0 -0.0039,0 0.2645835,0.2645835 0 0 0 -0.01563,0.008 0.2645835,0.2645835 0 0 0 -0.02344,0.0117 0.2645835,0.2645835 0 0 0 -0.0332,0.0195 0.2645835,0.2645835 0 0 0 -0.0039,0.004 0.2645835,0.2645835 0 0 0 -0.02734,0.0254 0.2645835,0.2645835 0 0 0 -0.0039,0.004 0.2645835,0.2645835 0 0 0 -0.02344,0.0312 0.2645835,0.2645835 0 0 0 -0.01758,0.0312 0.2645835,0.2645835 0 0 0 -0.0039,0.006 0.2645835,0.2645835 0 0 0 -0.002,0.004 0.2645835,0.2645835 0 0 0 -0.01172,0.0371 0.2645835,0.2645835 0 0 0 -0.0059,0.0312 0.2645835,0.2645835 0 0 0 -0.002,0.0117 0.2645835,0.2645835 0 0 0 0,0.004 0.2645835,0.2645835 0 0 0 -0.002,0.0215 0.2645835,0.2645835 0 0 0 0,0.0215 v 5.00196 a 0.26460996,0.26460996 0 0 0 0.414063,0.21679 c 0.542242,-0.374 1.008317,-0.836 1.390625,-1.38476 a 0.26460996,0.26460996 0 0 0 0.03125,-0.24024 l -1.318359,-3.69726 -0.002,-0.004 a 0.2645835,0.2645835 0 0 0 -0.002,-0.004 0.2645835,0.2645835 0 0 0 -0.01563,-0.0352 0.2645835,0.2645835 0 0 0 -0.002,-0.004 0.2645835,0.2645835 0 0 0 -0.02148,-0.0312 0.2645835,0.2645835 0 0 0 -0.002,-0.004 0.2645835,0.2645835 0 0 0 -0.02734,-0.0293 0.2645835,0.2645835 0 0 0 -0.002,-0.002 0.2645835,0.2645835 0 0 0 -0.03125,-0.0254 0.2645835,0.2645835 0 0 0 -0.0039,-0.002 0.2645835,0.2645835 0 0 0 -0.0332,-0.0176 0.2645835,0.2645835 0 0 0 -0.01367,-0.006 0.2645835,0.2645835 0 0 0 -0.02734,-0.01 0.2645835,0.2645835 0 0 0 -0.0039,0 0.2645835,0.2645835 0 0 0 -0.03906,-0.008 0.2645835,0.2645835 0 0 0 -0.0039,0 0.2645835,0.2645835 0 0 0 -0.04297,0 z"
         style="color:#000000;font-style:normal;font-variant:normal;font-weight:normal;font-stretch:normal;font-size:medium;line-height:normal;font-family:sans-serif;font-variant-ligatures:normal;font-variant-position:normal;font-variant-caps:normal;font-variant-numeric:normal;font-variant-alternates:normal;font-variant-east-asian:normal;font-feature-settings:normal;font-variation-settings:normal;text-indent:0;text-align:start;text-decoration:none;text-decoration-line:none;text-decoration-style:solid;text-decoration-color:#000000;letter-spacing:normal;word-spacing:normal;text-transform:none;writing-mode:lr-tb;direction:ltr;text-orientation:mixed;dominant-baseline:auto;baseline-shift:baseline;text-anchor:start;white-space:normal;shape-padding:0;shape-margin:0;inline-size:0;clip-rule:nonzero;display:inline;overflow:visible;visibility:visible;isolation:auto;mix-blend-mode:normal;color-interpolation:sRGB;color-interpolation-filters:linearRGB;solid-color:#000000;solid-opacity:1;vector-effect:none;fill:#143441;fill-opacity:1;fill-rule:nonzero;stroke:none;stroke-width:0.429596;stroke-linecap:round;stroke-linejoin:round;stroke-miterlimit:4;stroke-dasharray:none;stroke-dashoffset:0;stroke-opacity:1;color-rendering:auto;image-rendering:auto;shape-rendering:auto;text-rendering:auto;enable-background:accumulate;stop-color:#000000" />
      <path
         id="path1180"
         d="m 47.730469,268.37305 a 0.2645835,0.2645835 0 0 0 -0.0625,0.008 0.2645835,0.2645835 0 0 0 -0.01758,0.004 0.2645835,0.2645835 0 0 0 -0.0039,0.002 0.2645835,0.2645835 0 0 0 -0.07227,0.0371 0.2645835,0.2645835 0 0 0 -0.0039,0.002 0.2645835,0.2645835 0 0 0 -0.0293,0.0273 0.2645835,0.2645835 0 0 0 -0.01953,0.0254 0.2645835,0.2645835 0 0 0 -0.0078,0.008 0.2645835,0.2645835 0 0 0 -0.002,0.004 0.2645835,0.2645835 0 0 0 -0.01953,0.0352 0.2645835,0.2645835 0 0 0 -0.0059,0.0117 0.2645835,0.2645835 0 0 0 -0.0039,0.01 l -0.0059,0.0156 a 0.2645835,0.2645835 0 0 0 -0.002,0.006 l -1.314453,3.67969 a 0.26460996,0.26460996 0 0 0 0.0293,0.23633 c 0.390466,0.57898 0.872164,1.02268 1.388672,1.39062 a 0.26460996,0.26460996 0 0 0 0.417969,-0.21484 v -5.01954 a 0.2645835,0.2645835 0 0 0 -0.0039,-0.0469 0.2645835,0.2645835 0 0 0 -0.0098,-0.0371 0.2645835,0.2645835 0 0 0 -0.002,-0.006 0.2645835,0.2645835 0 0 0 -0.01367,-0.0352 0.2645835,0.2645835 0 0 0 -0.002,-0.004 0.2645835,0.2645835 0 0 0 -0.02539,-0.0371 0.2645835,0.2645835 0 0 0 -0.02539,-0.0273 0.2645835,0.2645835 0 0 0 -0.07031,-0.0488 0.2645835,0.2645835 0 0 0 -0.0039,-0.002 0.2645835,0.2645835 0 0 0 -0.01953,-0.01 0.2645835,0.2645835 0 0 0 -0.01562,-0.004 0.2645835,0.2645835 0 0 0 -0.02734,-0.006 0.2645835,0.2645835 0 0 0 -0.04297,-0.004 0.2645835,0.2645835 0 0 0 -0.0039,0 z"
         style="color:#000000;font-style:normal;font-variant:normal;font-weight:normal;font-stretch:normal;font-size:medium;line-height:normal;font-family:sans-serif;font-variant-ligatures:normal;font-variant-position:normal;font-variant-caps:normal;font-variant-numeric:normal;font-variant-alternates:normal;font-variant-east-asian:normal;font-feature-settings:normal;font-variation-settings:normal;text-indent:0;text-align:start;text-decoration:none;text-decoration-line:none;text-decoration-style:solid;text-decoration-color:#000000;letter-spacing:normal;word-spacing:normal;text-transform:none;writing-mode:lr-tb;direction:ltr;text-orientation:mixed;dominant-baseline:auto;baseline-shift:baseline;text-anchor:start;white-space:normal;shape-padding:0;shape-margin:0;inline-size:0;clip-rule:nonzero;display:inline;overflow:visible;visibility:visible;isolation:auto;mix-blend-mode:normal;color-interpolation:sRGB;color-interpolation-filters:linearRGB;solid-color:#000000;solid-opacity:1;vector-effect:none;fill:#143441;fill-opacity:1;fill-rule:nonzero;stroke:none;stroke-width:0.429596;stroke-linecap:round;stroke-linejoin:round;stroke-miterlimit:4;stroke-dasharray:none;stroke-dashoffset:0;stroke-opacity:1;color-rendering:auto;image-rendering:auto;shape-rendering:auto;text-rendering:auto;enable-background:accumulate;stop-color:#000000" />
      <path
         id="path1197"
         d="m 49.304688,268.00781 a 0.26460996,0.26460996 0 0 0 -0.04492,0.006 l -1.587891,0.36524 a 0.26460996,0.26460996 0 0 0 -0.205078,0.25781 v 5.02344 a 0.26460996,0.26460996 0 0 0 0.126953,0.22656 c 1.832041,1.11308 3.735144,1.09077 5.564453,-0.004 a 0.26460996,0.26460996 0 0 0 0.128906,-0.22656 v -5.01953 a 0.26460996,0.26460996 0 0 0 -0.205078,-0.25781 l -1.58789,-0.36524 a 0.26460996,0.26460996 0 0 0 -0.173829,0.0195 c -0.672534,0.3204 -1.270862,0.28821 -1.890624,-0.002 a 0.26460996,0.26460996 0 0 0 -0.125,-0.0234 z"
         style="color:#000000;font-style:normal;font-variant:normal;font-weight:normal;font-stretch:normal;font-size:medium;line-height:normal;font-family:sans-serif;font-variant-ligatures:normal;font-variant-position:normal;font-variant-caps:normal;font-variant-numeric:normal;font-variant-alternates:normal;font-variant-east-asian:normal;font-feature-settings:normal;font-variation-settings:normal;text-indent:0;text-align:start;text-decoration:none;text-decoration-line:none;text-decoration-style:solid;text-decoration-color:#000000;letter-spacing:normal;word-spacing:normal;text-transform:none;writing-mode:lr-tb;direction:ltr;text-orientation:mixed;dominant-baseline:auto;baseline-shift:baseline;text-anchor:start;white-space:normal;shape-padding:0;shape-margin:0;inline-size:0;clip-rule:nonzero;display:inline;overflow:visible;visibility:visible;isolation:auto;mix-blend-mode:normal;color-interpolation:sRGB;color-interpolation-filters:linearRGB;solid-color:#000000;solid-opacity:1;vector-effect:none;fill:#dc1c4b;fill-opacity:1;fill-rule:nonzero;stroke:none;stroke-width:0.429596;stroke-linecap:round;stroke-linejoin:round;stroke-miterlimit:4;stroke-dasharray:none;stroke-dashoffset:0;stroke-opacity:1;color-rendering:auto;image-rendering:auto;shape-rendering:auto;text-rendering:auto;enable-background:accumulate;stop-color:#000000" />
      <path
         id="path1132"
         d="m 49.314453,269.06445 a 0.2645835,0.2645835 0 0 0 -0.232422,0.14453 0.2645835,0.2645835 0 0 0 0.115235,0.35547 c 0.808917,0.41445 1.623,0.35581 2.353515,0.004 a 0.2645835,0.2645835 0 0 0 0.123047,-0.35352 0.2645835,0.2645835 0 0 0 -0.353516,-0.12304 c -0.622028,0.29964 -1.210543,0.34538 -1.880859,0.002 a 0.2645835,0.2645835 0 0 0 -0.125,-0.0293 z"
         style="color:#000000;font-style:normal;font-variant:normal;font-weight:normal;font-stretch:normal;font-size:medium;line-height:normal;font-family:sans-serif;font-variant-ligatures:normal;font-variant-position:normal;font-variant-caps:normal;font-variant-numeric:normal;font-variant-alternates:normal;font-variant-east-asian:normal;font-feature-settings:normal;font-variation-settings:normal;text-indent:0;text-align:start;text-decoration:none;text-decoration-line:none;text-decoration-style:solid;text-decoration-color:#000000;letter-spacing:normal;word-spacing:normal;text-transform:none;writing-mode:lr-tb;direction:ltr;text-orientation:mixed;dominant-baseline:auto;baseline-shift:baseline;text-anchor:start;white-space:normal;shape-padding:0;shape-margin:0;inline-size:0;clip-rule:nonzero;display:inline;overflow:visible;visibility:visible;isolation:auto;mix-blend-mode:normal;color-interpolation:sRGB;color-interpolation-filters:linearRGB;solid-color:#000000;solid-opacity:1;vector-effect:none;fill:#f5f6e8;fill-opacity:1;fill-rule:nonzero;stroke:none;stroke-width:0.429596;stroke-linecap:round;stroke-linejoin:round;stroke-miterlimit:4;stroke-dasharray:none;stroke-dashoffset:0;stroke-opacity:1;color-rendering:auto;image-rendering:auto;shape-rendering:auto;text-rendering:auto;enable-background:accumulate;stop-color:#000000" />
      <path
         id="path1146"
         d="m 49.847656,268.90039 a 0.26460996,0.26460996 0 0 0 -0.251953,0.18164 l -1.056641,3.17578 a 0.26460996,0.26460996 0 0 0 0.105469,0.30469 c 1.20274,0.779 2.398813,0.63727 3.455078,0.006 a 0.26460996,0.26460996 0 0 0 0.115235,-0.31055 l -1.058594,-3.17578 a 0.26460996,0.26460996 0 0 0 -0.25,-0.18164 z"
         style="color:#000000;font-style:normal;font-variant:normal;font-weight:normal;font-stretch:normal;font-size:medium;line-height:normal;font-family:sans-serif;font-variant-ligatures:normal;font-variant-position:normal;font-variant-caps:normal;font-variant-numeric:normal;font-variant-alternates:normal;font-variant-east-asian:normal;font-feature-settings:normal;font-variation-settings:normal;text-indent:0;text-align:start;text-decoration:none;text-decoration-line:none;text-decoration-style:solid;text-decoration-color:#000000;letter-spacing:normal;word-spacing:normal;text-transform:none;writing-mode:lr-tb;direction:ltr;text-orientation:mixed;dominant-baseline:auto;baseline-shift:baseline;text-anchor:start;white-space:normal;shape-padding:0;shape-margin:0;inline-size:0;clip-rule:nonzero;display:inline;overflow:visible;visibility:visible;isolation:auto;mix-blend-mode:normal;color-interpolation:sRGB;color-interpolation-filters:linearRGB;solid-color:#000000;solid-opacity:1;vector-effect:none;fill:#f5f6e8;fill-opacity:1;fill-rule:nonzero;stroke:none;stroke-width:0.429596;stroke-linecap:round;stroke-linejoin:round;stroke-miterlimit:4;stroke-dasharray:none;stroke-dashoffset:0;stroke-opacity:1;color-rendering:auto;image-rendering:auto;shape-rendering:auto;text-rendering:auto;enable-background:accumulate;stop-color:#000000" />
      <path
         transform="matrix(0.26458333,0,0,0.26458333,0,284.3)"
         d="m 190.40039,-78.201172 c -3.57806,0 -6.62086,2.370528 -7.63867,5.621094 2.7332,2.687316 7.24223,0.05474 9.59766,2.410156 1.24482,1.244841 1.19197,4.698498 1.83789,7.009766 2.50029,-1.356125 4.20507,-4.004991 4.20507,-7.039063 2e-5,-4.406438 -3.5955,-8.001953 -8.00195,-8.001953 z"
         style="fill:#f0bd9e;fill-opacity:1;stroke:none;stroke-width:1.62367;stroke-linecap:round;stroke-linejoin:round;stroke-opacity:1"
         id="path1434" />
      <path
         transform="matrix(0.26458333,0,0,0.26458333,0,284.3)"
         d="m 194.37305,-61.580078 a 1.0001006,1.0001006 0 0 0 -0.40625,0.09961 c -2.54186,1.210961 -4.80408,1.089044 -7.14649,-0.0078 a 1.0001006,1.0001006 0 0 0 -0.47265,-0.08789 1.0001006,1.0001006 0 0 0 -0.16993,0.02148 l -6,1.38086 a 1.0001006,1.0001006 0 0 0 -0.77539,0.974609 v 1.441407 c 3.33033,5.258324 10.57457,1.632373 15.27149,4.763671 4.303,2.868653 4.44551,8.489665 6.72656,12.089844 v -18.294922 a 1.0001006,1.0001006 0 0 0 -0.77539,-0.974609 l -6.00195,-1.38086 a 1.0001006,1.0001006 0 0 0 -0.25,-0.02539 z"
         style="fill:#c21c41;fill-opacity:1;stroke:none;stroke-width:1.62367;stroke-linecap:round;stroke-linejoin:round;stroke-opacity:1"
         id="path1466" />
      <path
         d="m 49.847603,268.91182 a 0.26460995,0.26460995 0 0 0 -0.251664,0.18138 l -0.258382,0.77722 c 0.74912,0.0382 1.544558,0.003 2.169893,0.41961 0.02188,0.0146 0.04145,0.0309 0.06253,0.046 l -0.41393,-1.2423 a 0.26460995,0.26460995 0 0 0 -0.249597,-0.1819 z"
         style="fill:#dbdbcf;fill-opacity:1;stroke:none;stroke-width:0.429596;stroke-linecap:round;stroke-linejoin:round;stroke-opacity:1"
         id="path1464" />
    </g>
  </g>
</svg>
