<?xml version="1.0" encoding="UTF-8" standalone="no"?>
<svg
   xmlns:dc="http://purl.org/dc/elements/1.1/"
   xmlns:cc="http://creativecommons.org/ns#"
   xmlns:rdf="http://www.w3.org/1999/02/22-rdf-syntax-ns#"
   xmlns:svg="http://www.w3.org/2000/svg"
   xmlns="http://www.w3.org/2000/svg"
   xmlns:sodipodi="http://sodipodi.sourceforge.net/DTD/sodipodi-0.dtd"
   xmlns:inkscape="http://www.inkscape.org/namespaces/inkscape"
   inkscape:export-ydpi="768"
   inkscape:export-xdpi="768"
   inkscape:export-filename="D:\project\carlos flat crime eksport\png\handcuffs.png"
   sodipodi:docname="fingerprint.svg"
   inkscape:version="1.0 (4035a4fb49, 2020-05-01)"
   id="svg979"
   version="1.1"
   viewBox="0 0 16.933334 16.933333"
   height="48pt"
   width="48pt">
  <defs
     id="defs973" />
  <sodipodi:namedview
     inkscape:snap-nodes="false"
     inkscape:bbox-nodes="true"
     inkscape:snap-bbox="true"
     inkscape:snap-global="true"
     inkscape:document-rotation="0"
     inkscape:window-maximized="1"
     inkscape:window-y="-8"
     inkscape:window-x="-8"
     inkscape:window-height="706"
     inkscape:window-width="1366"
     units="pt"
     showgrid="false"
     inkscape:current-layer="layer1"
     inkscape:document-units="pt"
     inkscape:cy="32"
     inkscape:cx="32"
     inkscape:zoom="8.546875"
     inkscape:pageshadow="2"
     inkscape:pageopacity="0.0"
     borderopacity="1.0"
     bordercolor="#666666"
     pagecolor="#ffffff"
     id="base">
    <inkscape:grid
       id="grid1526"
       type="xygrid" />
    <sodipodi:guide
       inkscape:locked="false"
       id="guide1528"
       orientation="56.666615,0"
       position="0.97013909,15.963209" />
    <sodipodi:guide
       inkscape:locked="false"
       id="guide1530"
       orientation="0,56.666667"
       position="0.97013909,0.97016731" />
    <sodipodi:guide
       inkscape:locked="false"
       id="guide1532"
       orientation="-56.666615,0"
       position="15.963195,0.97016731" />
    <sodipodi:guide
       inkscape:locked="false"
       id="guide1534"
       orientation="0,-56.666667"
       position="15.963195,15.963209" />
  </sodipodi:namedview>
  <metadata
     id="metadata976">
    <rdf:RDF>
      <cc:Work
         rdf:about="">
        <dc:format>image/svg+xml</dc:format>
        <dc:type
           rdf:resource="http://purl.org/dc/dcmitype/StillImage" />
        <dc:title></dc:title>
      </cc:Work>
    </rdf:RDF>
  </metadata>
  <g
     transform="translate(0,-280.06668)"
     id="layer1"
     inkscape:groupmode="layer"
     inkscape:label="Layer 1">
    <g
       style="stroke-width:0.811837"
       transform="matrix(1.2317737,0,0,1.2317737,-53.586369,-69.482211)"
       id="g1149">
      <path
         style="color:#000000;font-style:normal;font-variant:normal;font-weight:normal;font-stretch:normal;font-size:medium;line-height:normal;font-family:sans-serif;font-variant-ligatures:normal;font-variant-position:normal;font-variant-caps:normal;font-variant-numeric:normal;font-variant-alternates:normal;font-variant-east-asian:normal;font-feature-settings:normal;font-variation-settings:normal;text-indent:0;text-align:start;text-decoration:none;text-decoration-line:none;text-decoration-style:solid;text-decoration-color:#000000;letter-spacing:normal;word-spacing:normal;text-transform:none;writing-mode:lr-tb;direction:ltr;text-orientation:mixed;dominant-baseline:auto;baseline-shift:baseline;text-anchor:start;white-space:normal;shape-padding:0;shape-margin:0;inline-size:0;clip-rule:nonzero;display:inline;overflow:visible;visibility:visible;opacity:1;isolation:auto;mix-blend-mode:normal;color-interpolation:sRGB;color-interpolation-filters:linearRGB;solid-color:#000000;solid-opacity:1;vector-effect:none;fill:#5b6571;fill-opacity:1;fill-rule:nonzero;stroke:none;stroke-width:0.429598;stroke-linecap:round;stroke-linejoin:round;stroke-miterlimit:4;stroke-dasharray:none;stroke-dashoffset:0;stroke-opacity:1;color-rendering:auto;image-rendering:auto;shape-rendering:auto;text-rendering:auto;enable-background:accumulate;stop-color:#000000;stop-opacity:1"
         d="m 45.349609,284.56445 c -0.581373,0 -1.058596,0.47722 -1.058593,1.0586 v 1.86328 a 0.2645835,0.2645835 0 0 0 0.265625,0.26562 0.2645835,0.2645835 0 0 0 0.263671,-0.26562 v -1.86328 c -1e-6,-0.29539 0.233908,-0.5293 0.529297,-0.5293 h 1.863282 a 0.2645835,0.2645835 0 0 0 0.265625,-0.26367 0.2645835,0.2645835 0 0 0 -0.265625,-0.26563 z m 8.189453,0 a 0.2645835,0.2645835 0 0 0 -0.263671,0.26563 0.2645835,0.2645835 0 0 0 0.263671,0.26367 h 1.865235 c 0.295389,0 0.529298,0.23391 0.529297,0.5293 v 1.86328 a 0.2645835,0.2645835 0 0 0 0.263672,0.26562 0.2645835,0.2645835 0 0 0 0.265625,-0.26562 v -1.86328 c 2e-6,-0.58138 -0.477221,-1.0586 -1.058594,-1.0586 z M 44.556641,293.5 a 0.2645835,0.2645835 0 0 0 -0.265625,0.26562 v 1.91211 c -3e-6,0.58138 0.47722,1.0586 1.058593,1.0586 h 1.839844 a 0.2645835,0.2645835 0 0 0 0.265625,-0.26563 0.2645835,0.2645835 0 0 0 -0.265625,-0.26367 h -1.839844 c -0.295389,0 -0.529298,-0.23391 -0.529297,-0.5293 v -1.91211 A 0.2645835,0.2645835 0 0 0 44.556641,293.5 Z m 11.640625,0.0723 a 0.2645835,0.2645835 0 0 0 -0.263672,0.26367 v 1.84179 c 10e-7,0.29539 -0.233908,0.5293 -0.529297,0.5293 h -1.865235 a 0.2645835,0.2645835 0 0 0 -0.263671,0.26367 0.2645835,0.2645835 0 0 0 0.263671,0.26563 h 1.865235 c 0.581373,0 1.058596,-0.47722 1.058594,-1.0586 v -1.84179 a 0.2645835,0.2645835 0 0 0 -0.265625,-0.26367 z"
         id="path1125" />
      <path
         style="color:#000000;font-style:normal;font-variant:normal;font-weight:normal;font-stretch:normal;font-size:medium;line-height:normal;font-family:sans-serif;font-variant-ligatures:normal;font-variant-position:normal;font-variant-caps:normal;font-variant-numeric:normal;font-variant-alternates:normal;font-variant-east-asian:normal;font-feature-settings:normal;font-variation-settings:normal;text-indent:0;text-align:start;text-decoration:none;text-decoration-line:none;text-decoration-style:solid;text-decoration-color:#000000;letter-spacing:normal;word-spacing:normal;text-transform:none;writing-mode:lr-tb;direction:ltr;text-orientation:mixed;dominant-baseline:auto;baseline-shift:baseline;text-anchor:start;white-space:normal;shape-padding:0;shape-margin:0;inline-size:0;clip-rule:nonzero;display:inline;overflow:visible;visibility:visible;isolation:auto;mix-blend-mode:normal;color-interpolation:sRGB;color-interpolation-filters:linearRGB;solid-color:#000000;solid-opacity:1;vector-effect:none;fill:#f8c09d;fill-opacity:1;fill-rule:nonzero;stroke:none;stroke-width:0.429597;stroke-linecap:round;stroke-linejoin:round;stroke-miterlimit:4;stroke-dasharray:none;stroke-dashoffset:0;stroke-opacity:1;color-rendering:auto;image-rendering:auto;shape-rendering:auto;text-rendering:auto;enable-background:accumulate;stop-color:#000000"
         d="m 50.376953,285.12305 c -2.113119,0 -3.826172,1.68566 -3.826172,3.77343 v 3.50782 a 0.26460945,0.26460945 0 0 0 0,0.004 c 0.01994,1.15992 0.479781,1.97847 1.070313,2.61914 a 0.26460945,0.26460945 0 0 0 0.0059,0.006 c 0.695031,0.70669 1.67155,1.14453 2.75,1.14453 2.113122,0 3.826172,-1.68566 3.826172,-3.77343 v -3.50782 c 0,-2.08777 -1.713052,-3.77343 -3.826172,-3.77343 z"
         id="path1096" />
      <path
         id="path1135"
         style="fill:#f4af9f;fill-opacity:1;stroke:none;stroke-width:1.62367;stroke-linecap:round;stroke-linejoin:round;stroke-opacity:1"
         d="m 190.40039,3.1113281 c -5.10348,0 -9.57853,2.607793 -12.15234,6.5449219 0.70684,1.794209 10.67641,0.430315 12.04034,1.794252 4.00153,4.001537 5.22969,3.6146 6.45624,9.747337 0.49171,2.458553 2.50564,14.199176 5.44873,17.677161 1.67515,-2.327303 2.66992,-5.166769 2.66992,-8.244141 V 17.373047 c 0,-7.8907844 -6.47629,-14.2617189 -14.46289,-14.2617189 z"
         transform="matrix(0.26458333,0,0,0.26458333,0,284.3)"
         sodipodi:nodetypes="scsscsss" />
      <path
         style="color:#000000;font-style:normal;font-variant:normal;font-weight:normal;font-stretch:normal;font-size:medium;line-height:normal;font-family:sans-serif;font-variant-ligatures:normal;font-variant-position:normal;font-variant-caps:normal;font-variant-numeric:normal;font-variant-alternates:normal;font-variant-east-asian:normal;font-feature-settings:normal;font-variation-settings:normal;text-indent:0;text-align:start;text-decoration:none;text-decoration-line:none;text-decoration-style:solid;text-decoration-color:#000000;letter-spacing:normal;word-spacing:normal;text-transform:none;writing-mode:lr-tb;direction:ltr;text-orientation:mixed;dominant-baseline:auto;baseline-shift:baseline;text-anchor:start;white-space:normal;shape-padding:0;shape-margin:0;inline-size:0;clip-rule:nonzero;display:inline;overflow:visible;visibility:visible;opacity:1;isolation:auto;mix-blend-mode:normal;color-interpolation:sRGB;color-interpolation-filters:linearRGB;solid-color:#000000;solid-opacity:1;vector-effect:none;fill:#ea676c;fill-opacity:1;fill-rule:nonzero;stroke:none;stroke-width:0.429597;stroke-linecap:round;stroke-linejoin:round;stroke-miterlimit:4;stroke-dasharray:none;stroke-dashoffset:0;stroke-opacity:1;color-rendering:auto;image-rendering:auto;shape-rendering:auto;text-rendering:auto;enable-background:accumulate;stop-color:#000000;stop-opacity:1"
         d="m 50.376953,286.55078 c -1.420817,0 -2.574219,1.14944 -2.574219,2.56641 a 0.26458299,0.26458299 0 0 0 0.263672,0.26367 0.26458299,0.26458299 0 0 0 0.265625,-0.26367 c 0,-1.13186 0.906998,-2.03711 2.044922,-2.03711 1.137926,0 2.044922,0.90525 2.044922,2.03711 v 3.0664 c 0,1.1318 -0.906999,2.03516 -2.044922,2.03516 -1.137922,0 -2.044922,-0.90336 -2.044922,-2.03516 a 0.26458299,0.26458299 0 0 0 -0.265625,-0.26367 0.26458299,0.26458299 0 0 0 -0.263672,0.26367 c 0,1.41692 1.153399,2.56446 2.574219,2.56446 1.420821,0 2.574219,-1.14754 2.574219,-2.56446 v -3.0664 c 0,-1.41697 -1.153401,-2.56641 -2.574219,-2.56641 z"
         id="path1089" />
      <path
         style="color:#000000;font-style:normal;font-variant:normal;font-weight:normal;font-stretch:normal;font-size:medium;line-height:normal;font-family:sans-serif;font-variant-ligatures:normal;font-variant-position:normal;font-variant-caps:normal;font-variant-numeric:normal;font-variant-alternates:normal;font-variant-east-asian:normal;font-feature-settings:normal;font-variation-settings:normal;text-indent:0;text-align:start;text-decoration:none;text-decoration-line:none;text-decoration-style:solid;text-decoration-color:#000000;letter-spacing:normal;word-spacing:normal;text-transform:none;writing-mode:lr-tb;direction:ltr;text-orientation:mixed;dominant-baseline:auto;baseline-shift:baseline;text-anchor:start;white-space:normal;shape-padding:0;shape-margin:0;inline-size:0;clip-rule:nonzero;display:inline;overflow:visible;visibility:visible;opacity:1;isolation:auto;mix-blend-mode:normal;color-interpolation:sRGB;color-interpolation-filters:linearRGB;solid-color:#000000;solid-opacity:1;vector-effect:none;fill:#ea676c;fill-opacity:1;fill-rule:nonzero;stroke:none;stroke-width:0.429597;stroke-linecap:round;stroke-linejoin:round;stroke-miterlimit:4;stroke-dasharray:none;stroke-dashoffset:0;stroke-opacity:1;color-rendering:auto;image-rendering:auto;shape-rendering:auto;text-rendering:auto;enable-background:accumulate;stop-color:#000000;stop-opacity:1"
         d="m 50.390625,287.83984 c -0.877814,0 -1.542969,0.82672 -1.542969,1.79102 v 2.06641 c 0,0.96428 0.665152,1.79101 1.542969,1.79101 a 0.26458299,0.26458299 0 0 0 0.265625,-0.26367 0.26458299,0.26458299 0 0 0 -0.265625,-0.26563 c -0.538911,0 -1.013672,-0.53544 -1.013672,-1.26171 v -2.06641 c 0,-0.7263 0.474758,-1.26172 1.013672,-1.26172 0.538911,0 1.013672,0.53542 1.013672,1.26172 v 2.06641 a 0.26458299,0.26458299 0 0 0 0.265625,0.26562 0.26458299,0.26458299 0 0 0 0.263672,-0.26562 v -2.06641 c 0,-0.9643 -0.665156,-1.79102 -1.542969,-1.79102 z"
         id="path1085" />
      <path
         style="color:#000000;font-style:normal;font-variant:normal;font-weight:normal;font-stretch:normal;font-size:medium;line-height:normal;font-family:sans-serif;font-variant-ligatures:normal;font-variant-position:normal;font-variant-caps:normal;font-variant-numeric:normal;font-variant-alternates:normal;font-variant-east-asian:normal;font-feature-settings:normal;font-variation-settings:normal;text-indent:0;text-align:start;text-decoration:none;text-decoration-line:none;text-decoration-style:solid;text-decoration-color:#000000;letter-spacing:normal;word-spacing:normal;text-transform:none;writing-mode:lr-tb;direction:ltr;text-orientation:mixed;dominant-baseline:auto;baseline-shift:baseline;text-anchor:start;white-space:normal;shape-padding:0;shape-margin:0;inline-size:0;clip-rule:nonzero;display:inline;overflow:visible;visibility:visible;opacity:1;isolation:auto;mix-blend-mode:normal;color-interpolation:sRGB;color-interpolation-filters:linearRGB;solid-color:#000000;solid-opacity:1;vector-effect:none;fill:#ea676c;fill-opacity:1;fill-rule:nonzero;stroke:none;stroke-width:0.429597;stroke-linecap:round;stroke-linejoin:round;stroke-miterlimit:4;stroke-dasharray:none;stroke-dashoffset:0;stroke-opacity:1;color-rendering:auto;image-rendering:auto;shape-rendering:auto;text-rendering:auto;enable-background:accumulate;stop-color:#000000;stop-opacity:1"
         d="m 50.376953,289.15625 a 0.26458299,0.26458299 0 0 0 -0.265625,0.26367 v 2.45899 a 0.26458299,0.26458299 0 0 0 0.265625,0.26562 0.26458299,0.26458299 0 0 0 0.263672,-0.26562 v -2.45899 a 0.26458299,0.26458299 0 0 0 -0.263672,-0.26367 z"
         id="path1079" />
    </g>
  </g>
</svg>
