<?xml version="1.0" encoding="UTF-8" standalone="no"?>
<svg
   xmlns:dc="http://purl.org/dc/elements/1.1/"
   xmlns:cc="http://creativecommons.org/ns#"
   xmlns:rdf="http://www.w3.org/1999/02/22-rdf-syntax-ns#"
   xmlns:svg="http://www.w3.org/2000/svg"
   xmlns="http://www.w3.org/2000/svg"
   xmlns:sodipodi="http://sodipodi.sourceforge.net/DTD/sodipodi-0.dtd"
   xmlns:inkscape="http://www.inkscape.org/namespaces/inkscape"
   inkscape:export-ydpi="768"
   inkscape:export-xdpi="768"
   inkscape:export-filename="D:\project\carlos flat crime eksport\png\police station.png"
   sodipodi:docname="handcuffs.svg"
   inkscape:version="1.0 (4035a4fb49, 2020-05-01)"
   id="svg979"
   version="1.1"
   viewBox="0 0 16.933334 16.933333"
   height="48pt"
   width="48pt">
  <defs
     id="defs973" />
  <sodipodi:namedview
     inkscape:snap-nodes="false"
     inkscape:bbox-nodes="true"
     inkscape:snap-bbox="true"
     inkscape:snap-global="true"
     inkscape:document-rotation="0"
     inkscape:window-maximized="1"
     inkscape:window-y="-8"
     inkscape:window-x="-8"
     inkscape:window-height="706"
     inkscape:window-width="1366"
     units="pt"
     showgrid="false"
     inkscape:current-layer="layer1"
     inkscape:document-units="pt"
     inkscape:cy="32"
     inkscape:cx="32"
     inkscape:zoom="8.546875"
     inkscape:pageshadow="2"
     inkscape:pageopacity="0.0"
     borderopacity="1.0"
     bordercolor="#666666"
     pagecolor="#ffffff"
     id="base">
    <inkscape:grid
       id="grid1526"
       type="xygrid" />
    <sodipodi:guide
       inkscape:locked="false"
       id="guide1528"
       orientation="56.666615,0"
       position="0.97013909,15.963209" />
    <sodipodi:guide
       inkscape:locked="false"
       id="guide1530"
       orientation="0,56.666667"
       position="0.97013909,0.97016731" />
    <sodipodi:guide
       inkscape:locked="false"
       id="guide1532"
       orientation="-56.666615,0"
       position="15.963195,0.97016731" />
    <sodipodi:guide
       inkscape:locked="false"
       id="guide1534"
       orientation="0,-56.666667"
       position="15.963195,15.963209" />
  </sodipodi:namedview>
  <metadata
     id="metadata976">
    <rdf:RDF>
      <cc:Work
         rdf:about="">
        <dc:format>image/svg+xml</dc:format>
        <dc:type
           rdf:resource="http://purl.org/dc/dcmitype/StillImage" />
        <dc:title></dc:title>
      </cc:Work>
    </rdf:RDF>
  </metadata>
  <g
     transform="translate(0,-280.06668)"
     id="layer1"
     inkscape:groupmode="layer"
     inkscape:label="Layer 1">
    <g
       style="stroke-width:0.822758"
       transform="matrix(1.2154248,0,0,1.2154248,-26.006891,-64.357839)"
       id="g1480">
      <path
         id="path1420"
         d="m 28.328125,285.20508 c -0.408201,0.0195 -0.805679,0.23882 -1.037109,0.63086 -0.231431,0.39203 -0.294167,0.93704 -0.119141,1.59961 a 0.2645835,0.2645835 0 0 0 0.322266,0.1875 0.2645835,0.2645835 0 0 0 0.189453,-0.32227 c -0.149092,-0.56439 -0.08091,-0.95237 0.0625,-1.19531 0.143414,-0.24294 0.36475,-0.36145 0.607422,-0.37305 0.485342,-0.0232 1.083435,0.37834 1.023437,1.48242 a 0.2645835,0.2645835 0 0 0 0.25,0.27735 0.2645835,0.2645835 0 0 0 0.277344,-0.24805 c 0.07176,-1.32047 -0.75977,-2.07807 -1.576172,-2.03906 z"
         style="color:#000000;font-style:normal;font-variant:normal;font-weight:normal;font-stretch:normal;font-size:medium;line-height:normal;font-family:sans-serif;font-variant-ligatures:normal;font-variant-position:normal;font-variant-caps:normal;font-variant-numeric:normal;font-variant-alternates:normal;font-variant-east-asian:normal;font-feature-settings:normal;font-variation-settings:normal;text-indent:0;text-align:start;text-decoration:none;text-decoration-line:none;text-decoration-style:solid;text-decoration-color:#000000;letter-spacing:normal;word-spacing:normal;text-transform:none;writing-mode:lr-tb;direction:ltr;text-orientation:mixed;dominant-baseline:auto;baseline-shift:baseline;text-anchor:start;white-space:normal;shape-padding:0;shape-margin:0;inline-size:0;clip-rule:nonzero;display:inline;overflow:visible;visibility:visible;opacity:1;isolation:auto;mix-blend-mode:normal;color-interpolation:sRGB;color-interpolation-filters:linearRGB;solid-color:#000000;solid-opacity:1;vector-effect:none;fill:#dbdbd0;fill-opacity:1;fill-rule:nonzero;stroke:none;stroke-width:0.435376;stroke-linecap:round;stroke-linejoin:round;stroke-miterlimit:4;stroke-dasharray:none;stroke-dashoffset:0;stroke-opacity:1;color-rendering:auto;image-rendering:auto;shape-rendering:auto;text-rendering:auto;enable-background:accumulate;stop-color:#000000;stop-opacity:1" />
      <path
         sodipodi:nodetypes="cccccsccccccccccscscccccs"
         transform="matrix(0.26458333,0,0,0.26458333,0,284.3)"
         d="m 117.03906,8.7207031 c -0.0745,0.00216 -0.14853,0.012642 -0.2207,0.03125 L 106.7207,11.460938 c -0.3443,0.09084 -0.61433,0.357899 -0.70898,0.701171 l -2.62891,9.873047 c -2.0123,3.302154 -2.81014,7.446188 -1.72656,11.490235 0.43465,1.622135 1.12269,3.108414 2.01563,4.427734 0.0285,0.04479 0.0605,0.08724 0.0957,0.126953 l 2.8125,3.011719 0.0371,0.04297 c 0.0403,0.0463 0.0847,0.0888 0.13281,0.126953 3.5103,2.761209 8.24049,3.885929 12.88086,2.642578 7.81822,-2.094917 12.47379,-10.158345 10.37891,-17.976563 -1.22101,-4.556749 -4.52702,-7.944788 -8.57032,-9.640625 L 117.9707,9.2753906 C 117.79602,8.9235902 117.43159,8.7066101 117.03906,8.7207031 Z M 116.26172,19.28125 c 4.46988,0.18166 8.50762,3.23361 9.72461,7.775391 1.49781,5.589959 -1.83583,11.361548 -7.42578,12.859375 -3.27081,0.876396 -6.60997,0.10585 -9.10938,-1.808594 -0.24521,-0.188475 -0.38942,-0.479792 -0.39062,-0.789063 -3.73789,-4.542914 -5.55744,-9.321413 -0.11133,-14.992187 -8.1e-4,-0.308948 0.14121,-0.600927 0.38476,-0.791016 1.08963,-0.861959 2.36944,-1.522829 3.79297,-1.904297 1.04812,-0.280842 2.10326,-0.391531 3.13477,-0.349609 z"
         style="color:#000000;font-style:normal;font-variant:normal;font-weight:normal;font-stretch:normal;font-size:medium;line-height:normal;font-family:sans-serif;font-variant-ligatures:normal;font-variant-position:normal;font-variant-caps:normal;font-variant-numeric:normal;font-variant-alternates:normal;font-variant-east-asian:normal;font-feature-settings:normal;font-variation-settings:normal;text-indent:0;text-align:start;text-decoration:none;text-decoration-line:none;text-decoration-style:solid;text-decoration-color:#000000;letter-spacing:normal;word-spacing:normal;text-transform:none;writing-mode:lr-tb;direction:ltr;text-orientation:mixed;dominant-baseline:auto;baseline-shift:baseline;text-anchor:start;white-space:normal;shape-padding:0;shape-margin:0;inline-size:0;clip-rule:nonzero;display:inline;overflow:visible;visibility:visible;isolation:auto;mix-blend-mode:normal;color-interpolation:sRGB;color-interpolation-filters:linearRGB;solid-color:#000000;solid-opacity:1;vector-effect:none;fill:#e7e8da;fill-opacity:1;fill-rule:nonzero;stroke:none;stroke-width:1.64552;stroke-linecap:round;stroke-linejoin:round;stroke-miterlimit:4;stroke-dasharray:none;stroke-dashoffset:0;stroke-opacity:1;color-rendering:auto;image-rendering:auto;shape-rendering:auto;text-rendering:auto;enable-background:accumulate;stop-color:#000000"
         id="path1408" />
      <path
         transform="matrix(0.26458333,0,0,0.26458333,0,284.3)"
         d="m 117.03906,8.7207031 a 1.0000987,1.0000987 0 0 0 -0.2207,0.03125 L 106.7207,11.460938 a 1.0000987,1.0000987 0 0 0 -0.70898,0.701171 l -1.11524,4.191407 c 7.54302,0.213837 15.06954,-0.668755 20.70313,4.964843 1.76556,1.765565 2.37684,9.413899 4.01172,13.423829 1.00038,-2.736261 1.20823,-5.79225 0.39844,-8.814454 -1.22101,-4.556749 -4.52702,-7.944788 -8.57032,-9.640625 L 117.9707,9.2753906 a 1.0000987,1.0000987 0 0 0 -0.93164,-0.5546875 z"
         style="fill:#e0e0d4;fill-opacity:1;stroke:none;stroke-width:1.64552;stroke-linecap:round;stroke-linejoin:round;stroke-opacity:1"
         id="path1444" />
      <path
         transform="matrix(0.26458333,0,0,0.26458333,0,284.3)"
         d="m 107.87109,11.152344 -1.15039,0.308594 c -0.3443,0.09084 -0.61433,0.357899 -0.70898,0.701171 l -2.62891,9.873047 c -2.0123,3.302154 -2.81014,7.446188 -1.72656,11.490235 0.43465,1.622135 1.12269,3.108414 2.01563,4.427734 0.0285,0.04479 0.0605,0.08724 0.0957,0.126953 l 2.8125,3.011719 0.0371,0.04297 c 0.0403,0.0463 0.0847,0.0888 0.13281,0.126953 0.50347,0.39603 1.0381,0.747675 1.58789,1.074219 1.26401,-0.790048 2.40543,-1.770628 3.38477,-2.916016 -0.80776,-0.345025 -1.57461,-0.778721 -2.27149,-1.3125 -0.24521,-0.188475 -0.38942,-0.479792 -0.39062,-0.789063 -3.73789,-4.542914 -5.55744,-9.321413 -0.11133,-14.992187 -8.1e-4,-0.308948 0.14121,-0.600927 0.38476,-0.791016 0.85157,-0.673633 1.82307,-1.218758 2.88477,-1.609375 l 0.43555,-6.658203 a 1.0000987,1.0000987 0 0 0 -0.7461,-1.033203 z"
         style="color:#000000;font-style:normal;font-variant:normal;font-weight:normal;font-stretch:normal;font-size:medium;line-height:normal;font-family:sans-serif;font-variant-ligatures:normal;font-variant-position:normal;font-variant-caps:normal;font-variant-numeric:normal;font-variant-alternates:normal;font-variant-east-asian:normal;font-feature-settings:normal;font-variation-settings:normal;text-indent:0;text-align:start;text-decoration:none;text-decoration-line:none;text-decoration-style:solid;text-decoration-color:#000000;letter-spacing:normal;word-spacing:normal;text-transform:none;writing-mode:lr-tb;direction:ltr;text-orientation:mixed;dominant-baseline:auto;baseline-shift:baseline;text-anchor:start;white-space:normal;shape-padding:0;shape-margin:0;inline-size:0;clip-rule:nonzero;display:inline;overflow:visible;visibility:visible;isolation:auto;mix-blend-mode:normal;color-interpolation:sRGB;color-interpolation-filters:linearRGB;solid-color:#000000;solid-opacity:1;vector-effect:none;fill:#bfbfb4;fill-opacity:1;fill-rule:nonzero;stroke:none;stroke-width:1.64552;stroke-linecap:round;stroke-linejoin:round;stroke-miterlimit:4;stroke-dasharray:none;stroke-dashoffset:0;stroke-opacity:1;color-rendering:auto;image-rendering:auto;shape-rendering:auto;text-rendering:auto;enable-background:accumulate;stop-color:#000000"
         id="path1462" />
      <path
         d="m 25.8439,286.67867 a 0.26460944,0.26460944 0 0 0 -0.01964,10e-4 0.26460944,0.26460944 0 0 0 -0.218591,0.14469 l -0.896586,1.79059 c -1.122053,0.43002 -2.046412,1.34439 -2.380734,2.59209 -0.554273,2.06857 0.677512,4.20358 2.746086,4.75785 2.068573,0.55428 4.201512,-0.67751 4.755782,-2.74608 0.323236,-1.20634 0.01519,-2.42188 -0.687813,-3.34554 l 0.134877,-2.06292 a 0.26460944,0.26460944 0 0 0 -0.197406,-0.27337 l -3.169832,-0.84956 a 0.26460944,0.26460944 0 0 0 -0.06615,-0.009 z m 0.121957,2.7714 c 0.272921,-0.011 0.551576,0.0187 0.828889,0.093 1.47901,0.3963 2.361554,1.92337 1.965256,3.40238 -0.396304,1.47901 -1.923367,2.36103 -3.402377,1.96473 -1.47901,-0.39629 -2.361553,-1.92543 -1.965254,-3.40444 0.321995,-1.20169 1.39083,-2.00811 2.573486,-2.05569 z"
         style="color:#000000;font-style:normal;font-variant:normal;font-weight:normal;font-stretch:normal;font-size:medium;line-height:normal;font-family:sans-serif;font-variant-ligatures:normal;font-variant-position:normal;font-variant-caps:normal;font-variant-numeric:normal;font-variant-alternates:normal;font-variant-east-asian:normal;font-feature-settings:normal;font-variation-settings:normal;text-indent:0;text-align:start;text-decoration:none;text-decoration-line:none;text-decoration-style:solid;text-decoration-color:#000000;letter-spacing:normal;word-spacing:normal;text-transform:none;writing-mode:lr-tb;direction:ltr;text-orientation:mixed;dominant-baseline:auto;baseline-shift:baseline;text-anchor:start;white-space:normal;shape-padding:0;shape-margin:0;inline-size:0;clip-rule:nonzero;display:inline;overflow:visible;visibility:visible;isolation:auto;mix-blend-mode:normal;color-interpolation:sRGB;color-interpolation-filters:linearRGB;solid-color:#000000;solid-opacity:1;vector-effect:none;fill:#f5f6e8;fill-opacity:1;fill-rule:nonzero;stroke:none;stroke-width:0.435376;stroke-linecap:round;stroke-linejoin:round;stroke-miterlimit:4;stroke-dasharray:none;stroke-dashoffset:0;stroke-opacity:1;color-rendering:auto;image-rendering:auto;shape-rendering:auto;text-rendering:auto;enable-background:accumulate;stop-color:#000000"
         id="path1364" />
      <path
         transform="matrix(0.26458333,0,0,0.26458333,0,284.3)"
         d="m 97.677734,8.9902344 a 1.0000987,1.0000987 0 0 0 -0.07422,0.00391 1.0000987,1.0000987 0 0 0 -0.826172,0.546875 l -1.583985,3.1621096 c 0.874726,0.861154 1.76504,1.744399 2.751953,2.402344 1.197835,0.798576 3.15091,0.356808 4.38672,0.974609 3.97608,1.988032 6.24623,7.010003 8.40625,11.330078 1.48332,2.966634 -2.03115,9.236267 -0.89258,11.865235 1.3164,-1.580724 2.33193,-3.452171 2.89844,-5.566407 1.22168,-4.559395 0.0574,-9.153532 -2.59961,-12.644531 l 0.50977,-7.796875 a 1.0000987,1.0000987 0 0 0 -0.7461,-1.033203 L 97.927734,9.0234375 a 1.0000987,1.0000987 0 0 0 -0.25,-0.033203 z"
         style="fill:#eff0e2;fill-opacity:1;stroke:none;stroke-width:1.64552;stroke-linecap:round;stroke-linejoin:round;stroke-opacity:1"
         id="path1427" />
      <path
         id="path1378"
         d="m 27.314453,287.86914 c -0.416228,-0.11153 -0.85136,0.14041 -0.962891,0.55664 -0.111527,0.41623 0.138459,0.84941 0.554688,0.96094 0.416227,0.11153 0.85136,-0.13846 0.962891,-0.55469 0.111527,-0.41623 -0.13846,-0.85136 -0.554688,-0.96289 z"
         style="color:#000000;font-style:normal;font-variant:normal;font-weight:normal;font-stretch:normal;font-size:medium;line-height:normal;font-family:sans-serif;font-variant-ligatures:normal;font-variant-position:normal;font-variant-caps:normal;font-variant-numeric:normal;font-variant-alternates:normal;font-variant-east-asian:normal;font-feature-settings:normal;font-variation-settings:normal;text-indent:0;text-align:start;text-decoration:none;text-decoration-line:none;text-decoration-style:solid;text-decoration-color:#000000;letter-spacing:normal;word-spacing:normal;text-transform:none;writing-mode:lr-tb;direction:ltr;text-orientation:mixed;dominant-baseline:auto;baseline-shift:baseline;text-anchor:start;white-space:normal;shape-padding:0;shape-margin:0;inline-size:0;clip-rule:nonzero;display:inline;overflow:visible;visibility:visible;isolation:auto;mix-blend-mode:normal;color-interpolation:sRGB;color-interpolation-filters:linearRGB;solid-color:#000000;solid-opacity:1;vector-effect:none;fill:#dbdbcf;fill-opacity:1;fill-rule:nonzero;stroke:none;stroke-width:0.435376;stroke-linecap:round;stroke-linejoin:round;stroke-miterlimit:4;stroke-dasharray:none;stroke-dashoffset:0;stroke-opacity:1;color-rendering:auto;image-rendering:auto;shape-rendering:auto;text-rendering:auto;enable-background:accumulate;stop-color:#000000" />
      <path
         id="path1435"
         d="m 29.911773,284.62233 c -0.300837,-0.0107 -0.601674,-0.0215 -0.90251,-0.0322"
         style="fill:#eff0e2;fill-opacity:1;stroke:none;stroke-width:0.435376;stroke-linecap:round;stroke-linejoin:round;stroke-opacity:1" />
    </g>
  </g>
</svg>
