<?xml version="1.0" encoding="UTF-8" standalone="no"?>
<svg
   xmlns:dc="http://purl.org/dc/elements/1.1/"
   xmlns:cc="http://creativecommons.org/ns#"
   xmlns:rdf="http://www.w3.org/1999/02/22-rdf-syntax-ns#"
   xmlns:svg="http://www.w3.org/2000/svg"
   xmlns="http://www.w3.org/2000/svg"
   xmlns:sodipodi="http://sodipodi.sourceforge.net/DTD/sodipodi-0.dtd"
   xmlns:inkscape="http://www.inkscape.org/namespaces/inkscape"
   inkscape:export-ydpi="768"
   inkscape:export-xdpi="768"
   inkscape:export-filename="C:\Users\RainBoyz\Desktop\EXPORT FLAT\3. Detective.png"
   width="48pt"
   height="48pt"
   viewBox="0 0 16.933334 16.933333"
   version="1.1"
   id="svg979"
   inkscape:version="1.0 (4035a4fb49, 2020-05-01)"
   sodipodi:docname="4 Bullets.svg">
  <defs
     id="defs973" />
  <sodipodi:namedview
     id="base"
     pagecolor="#ffffff"
     bordercolor="#666666"
     borderopacity="1.0"
     inkscape:pageopacity="0.0"
     inkscape:pageshadow="2"
     inkscape:zoom="6.0435533"
     inkscape:cx="11.280141"
     inkscape:cy="26.741684"
     inkscape:document-units="pt"
     inkscape:current-layer="layer1"
     showgrid="false"
     units="pt"
     inkscape:window-width="1366"
     inkscape:window-height="715"
     inkscape:window-x="-8"
     inkscape:window-y="-8"
     inkscape:window-maximized="1"
     inkscape:document-rotation="0"
     inkscape:snap-bbox="true"
     inkscape:bbox-nodes="true"
     inkscape:snap-nodes="false">
    <inkscape:grid
       type="xygrid"
       id="grid1526" />
    <sodipodi:guide
       position="0.97013909,15.963209"
       orientation="56.666615,0"
       id="guide1528"
       inkscape:locked="false" />
    <sodipodi:guide
       position="0.97013909,0.97016731"
       orientation="0,56.666667"
       id="guide1530"
       inkscape:locked="false" />
    <sodipodi:guide
       position="15.963195,0.97016731"
       orientation="-56.666615,0"
       id="guide1532"
       inkscape:locked="false" />
    <sodipodi:guide
       position="15.963195,15.963209"
       orientation="0,-56.666667"
       id="guide1534"
       inkscape:locked="false" />
  </sodipodi:namedview>
  <metadata
     id="metadata976">
    <rdf:RDF>
      <cc:Work
         rdf:about="">
        <dc:format>image/svg+xml</dc:format>
        <dc:type
           rdf:resource="http://purl.org/dc/dcmitype/StillImage" />
        <dc:title></dc:title>
      </cc:Work>
    </rdf:RDF>
  </metadata>
  <g
     inkscape:label="Layer 1"
     inkscape:groupmode="layer"
     id="layer1"
     transform="translate(0,-280.06668)">
    <g
       transform="matrix(1.2231277,0,0,1.2231277,-26.225251,-40.045914)"
       id="g1196">
      <g
         id="g1181">
        <path
           id="path322"
           style="color:#000000;font-style:normal;font-variant:normal;font-weight:normal;font-stretch:normal;font-size:medium;line-height:normal;font-family:sans-serif;font-variant-ligatures:normal;font-variant-position:normal;font-variant-caps:normal;font-variant-numeric:normal;font-variant-alternates:normal;font-variant-east-asian:normal;font-feature-settings:normal;font-variation-settings:normal;text-indent:0;text-align:start;text-decoration:none;text-decoration-line:none;text-decoration-style:solid;text-decoration-color:#000000;letter-spacing:normal;word-spacing:normal;text-transform:none;writing-mode:lr-tb;direction:ltr;text-orientation:mixed;dominant-baseline:auto;baseline-shift:baseline;text-anchor:start;white-space:normal;shape-padding:0;shape-margin:0;inline-size:0;clip-rule:nonzero;display:inline;overflow:visible;visibility:visible;isolation:auto;mix-blend-mode:normal;color-interpolation:sRGB;color-interpolation-filters:linearRGB;solid-color:#000000;solid-opacity:1;vector-effect:none;fill:#5b6571;fill-opacity:1;fill-rule:nonzero;stroke:none;stroke-width:0.529167;stroke-linecap:round;stroke-linejoin:round;stroke-miterlimit:4;stroke-dasharray:none;stroke-dashoffset:0;stroke-opacity:1;color-rendering:auto;image-rendering:auto;shape-rendering:auto;text-rendering:auto;enable-background:accumulate;stop-color:#000000"
           d="m 23.265763,266.91812 c -0.297676,-10e-6 -0.572011,0.0845 -0.76171,0.27905 -0.189701,0.19461 -0.269752,0.4706 -0.269752,0.77928 v 1.32447 c 0,0.30868 0.08005,0.58467 0.269752,0.77928 0.189698,0.19461 0.464035,0.27698 0.76171,0.27698 h 0.290938 v -3.43906 z m 0.820105,0 v 3.43906 h 4.877222 c 0.263991,0 0.520013,-0.091 0.692981,-0.28474 0.172969,-0.19374 0.250114,-0.46284 0.250114,-0.77152 v -1.32447 c 0,-0.30868 -0.07715,-0.5778 -0.250114,-0.77153 -0.172968,-0.19374 -0.428987,-0.2868 -0.692981,-0.2868 z" />
        <path
           id="path305"
           style="color:#000000;font-style:normal;font-variant:normal;font-weight:normal;font-stretch:normal;font-size:medium;line-height:normal;font-family:sans-serif;font-variant-ligatures:normal;font-variant-position:normal;font-variant-caps:normal;font-variant-numeric:normal;font-variant-alternates:normal;font-variant-east-asian:normal;font-feature-settings:normal;font-variation-settings:normal;text-indent:0;text-align:start;text-decoration:none;text-decoration-line:none;text-decoration-style:solid;text-decoration-color:#000000;letter-spacing:normal;word-spacing:normal;text-transform:none;writing-mode:lr-tb;direction:ltr;text-orientation:mixed;dominant-baseline:auto;baseline-shift:baseline;text-anchor:start;white-space:normal;shape-padding:0;shape-margin:0;inline-size:0;clip-rule:nonzero;display:inline;overflow:visible;visibility:visible;isolation:auto;mix-blend-mode:normal;color-interpolation:sRGB;color-interpolation-filters:linearRGB;solid-color:#000000;solid-opacity:1;vector-effect:none;fill:#5b6571;fill-opacity:1;fill-rule:nonzero;stroke:none;stroke-width:0.529167;stroke-linecap:round;stroke-linejoin:round;stroke-miterlimit:4;stroke-dasharray:none;stroke-dashoffset:0;stroke-opacity:1;color-rendering:auto;image-rendering:auto;shape-rendering:auto;text-rendering:auto;enable-background:accumulate;stop-color:#000000"
           d="m 23.265763,262.55249 c -0.297676,0 -0.572011,0.085 -0.76171,0.27957 -0.189701,0.19461 -0.269752,0.4706 -0.269752,0.77928 v 1.3224 c 0,0.30869 0.08005,0.58674 0.269752,0.78135 0.189698,0.19461 0.464035,0.27698 0.76171,0.27698 h 0.290938 v -0.26355 -2.91041 -0.26562 z m 0.820105,0 v 0.26562 2.91041 0.26355 h 3.023589 c 0.26399,-1e-5 0.520528,-0.0931 0.693496,-0.2868 0.172972,-0.19374 0.251664,-0.46284 0.251664,-0.77153 v -1.3224 c 0,-0.30868 -0.07869,-0.57779 -0.251664,-0.77153 -0.172968,-0.19373 -0.4295,-0.28732 -0.693496,-0.28732 z" />
        <path
           style="color:#000000;font-style:normal;font-variant:normal;font-weight:normal;font-stretch:normal;font-size:medium;line-height:normal;font-family:sans-serif;font-variant-ligatures:normal;font-variant-position:normal;font-variant-caps:normal;font-variant-numeric:normal;font-variant-alternates:normal;font-variant-east-asian:normal;font-feature-settings:normal;font-variation-settings:normal;text-indent:0;text-align:start;text-decoration:none;text-decoration-line:none;text-decoration-style:solid;text-decoration-color:#000000;letter-spacing:normal;word-spacing:normal;text-transform:none;writing-mode:lr-tb;direction:ltr;text-orientation:mixed;dominant-baseline:auto;baseline-shift:baseline;text-anchor:start;white-space:normal;shape-padding:0;shape-margin:0;inline-size:0;clip-rule:nonzero;display:inline;overflow:visible;visibility:visible;isolation:auto;mix-blend-mode:normal;color-interpolation:sRGB;color-interpolation-filters:linearRGB;solid-color:#000000;solid-opacity:1;vector-effect:none;fill:#aabfd0;fill-opacity:1;fill-rule:nonzero;stroke:none;stroke-width:0.529167;stroke-linecap:round;stroke-linejoin:round;stroke-miterlimit:4;stroke-dasharray:none;stroke-dashoffset:0;stroke-opacity:1;color-rendering:auto;image-rendering:auto;shape-rendering:auto;text-rendering:auto;enable-background:accumulate;stop-color:#000000"
           d="m 29.210938,262.55273 c -0.343332,-0.007 -0.626954,0.2774 -0.626954,0.61719 v 1.43164 0.72071 c -1e-6,0.33963 0.280495,0.62073 0.621094,0.61914 a 0.26460996,0.26460996 0 0 0 0.002,0 c 0.853111,-0.004 1.418476,-0.0245 1.908203,-0.20118 0.489728,-0.17667 0.862414,-0.50946 1.298828,-1.04687 0.216829,-0.26701 0.189645,-0.64799 -0.05273,-0.88672 -0.846656,-0.83396 -1.443267,-1.2164 -3.15039,-1.25391 z"
           id="path345" />
        <path
           id="path314"
           style="color:#000000;font-style:normal;font-variant:normal;font-weight:normal;font-stretch:normal;font-size:medium;line-height:normal;font-family:sans-serif;font-variant-ligatures:normal;font-variant-position:normal;font-variant-caps:normal;font-variant-numeric:normal;font-variant-alternates:normal;font-variant-east-asian:normal;font-feature-settings:normal;font-variation-settings:normal;text-indent:0;text-align:start;text-decoration:none;text-decoration-line:none;text-decoration-style:solid;text-decoration-color:#000000;letter-spacing:normal;word-spacing:normal;text-transform:none;writing-mode:lr-tb;direction:ltr;text-orientation:mixed;dominant-baseline:auto;baseline-shift:baseline;text-anchor:start;white-space:normal;shape-padding:0;shape-margin:0;inline-size:0;clip-rule:nonzero;display:inline;overflow:visible;visibility:visible;isolation:auto;mix-blend-mode:normal;color-interpolation:sRGB;color-interpolation-filters:linearRGB;solid-color:#000000;solid-opacity:1;vector-effect:none;fill:#5b6571;fill-opacity:1;fill-rule:nonzero;stroke:none;stroke-width:0.529167;stroke-linecap:round;stroke-linejoin:round;stroke-miterlimit:4;stroke-dasharray:none;stroke-dashoffset:0;stroke-opacity:1;color-rendering:auto;image-rendering:auto;shape-rendering:auto;text-rendering:auto;enable-background:accumulate;stop-color:#000000"
           d="m 23.265763,271.28529 c -0.297676,-10e-6 -0.572011,0.0824 -0.76171,0.27699 -0.189701,0.19461 -0.269752,0.47059 -0.269752,0.77928 v 1.32446 c 0,0.30868 0.08005,0.58467 0.269752,0.77928 0.189698,0.19461 0.464035,0.27906 0.76171,0.27906 h 0.290938 v -3.43907 z m 0.820105,0 v 3.43907 h 3.023589 c 0.26399,-10e-6 0.520528,-0.0931 0.693496,-0.28681 0.172972,-0.19374 0.251664,-0.46285 0.251664,-0.77153 v -1.32446 c 0,-0.30869 -0.07869,-0.57728 -0.251664,-0.77102 -0.172968,-0.19374 -0.4295,-0.28526 -0.693496,-0.28525 z" />
        <path
           style="color:#000000;font-style:normal;font-variant:normal;font-weight:normal;font-stretch:normal;font-size:medium;line-height:normal;font-family:sans-serif;font-variant-ligatures:normal;font-variant-position:normal;font-variant-caps:normal;font-variant-numeric:normal;font-variant-alternates:normal;font-variant-east-asian:normal;font-feature-settings:normal;font-variation-settings:normal;text-indent:0;text-align:start;text-decoration:none;text-decoration-line:none;text-decoration-style:solid;text-decoration-color:#000000;letter-spacing:normal;word-spacing:normal;text-transform:none;writing-mode:lr-tb;direction:ltr;text-orientation:mixed;dominant-baseline:auto;baseline-shift:baseline;text-anchor:start;white-space:normal;shape-padding:0;shape-margin:0;inline-size:0;clip-rule:nonzero;display:inline;overflow:visible;visibility:visible;isolation:auto;mix-blend-mode:normal;color-interpolation:sRGB;color-interpolation-filters:linearRGB;solid-color:#000000;solid-opacity:1;vector-effect:none;fill:#aabfd0;fill-opacity:1;fill-rule:nonzero;stroke:none;stroke-width:0.529167;stroke-linecap:round;stroke-linejoin:round;stroke-miterlimit:4;stroke-dasharray:none;stroke-dashoffset:0;stroke-opacity:1;color-rendering:auto;image-rendering:auto;shape-rendering:auto;text-rendering:auto;enable-background:accumulate;stop-color:#000000"
           d="m 29.210938,271.28516 c -0.343332,-0.008 -0.626954,0.2774 -0.626954,0.61718 v 1.43164 0.71875 c -1e-6,0.33964 0.282441,0.62271 0.623047,0.6211 0.853112,-0.004 1.418476,-0.0265 1.908203,-0.20313 0.489728,-0.17668 0.862414,-0.50946 1.298828,-1.04687 0.216829,-0.26701 0.189645,-0.64799 -0.05273,-0.88672 -0.846656,-0.83396 -1.443267,-1.21445 -3.15039,-1.25195 z"
           id="path353" />
        <path
           style="color:#000000;font-style:normal;font-variant:normal;font-weight:normal;font-stretch:normal;font-size:medium;line-height:normal;font-family:sans-serif;font-variant-ligatures:normal;font-variant-position:normal;font-variant-caps:normal;font-variant-numeric:normal;font-variant-alternates:normal;font-variant-east-asian:normal;font-feature-settings:normal;font-variation-settings:normal;text-indent:0;text-align:start;text-decoration:none;text-decoration-line:none;text-decoration-style:solid;text-decoration-color:#000000;letter-spacing:normal;word-spacing:normal;text-transform:none;writing-mode:lr-tb;direction:ltr;text-orientation:mixed;dominant-baseline:auto;baseline-shift:baseline;text-anchor:start;white-space:normal;shape-padding:0;shape-margin:0;inline-size:0;clip-rule:nonzero;display:inline;overflow:visible;visibility:visible;isolation:auto;mix-blend-mode:normal;color-interpolation:sRGB;color-interpolation-filters:linearRGB;solid-color:#000000;solid-opacity:1;vector-effect:none;fill:#aabfd0;fill-opacity:1;fill-rule:nonzero;stroke:none;stroke-width:0.529167;stroke-linecap:round;stroke-linejoin:round;stroke-miterlimit:4;stroke-dasharray:none;stroke-dashoffset:0;stroke-opacity:1;color-rendering:auto;image-rendering:auto;shape-rendering:auto;text-rendering:auto;enable-background:accumulate;stop-color:#000000"
           d="m 31.070312,266.94531 c -0.344578,-0.007 -0.634765,0.27213 -0.634765,0.61524 v 1.43359 0.71875 c -2e-6,0.34296 0.288955,0.62072 0.630859,0.61914 0.872711,-0.004 1.450291,-0.0253 1.949219,-0.20117 0.498928,-0.17591 0.879675,-0.50758 1.326172,-1.04492 0.221414,-0.26646 0.193988,-0.65314 -0.05273,-0.89063 -0.866202,-0.83383 -1.473431,-1.21252 -3.21875,-1.25 z"
           id="path349" />
        <path
           id="path1137"
           style="fill:#3a4d5c;fill-opacity:1;stroke:none;stroke-width:0.999999px;stroke-linecap:butt;stroke-linejoin:miter;stroke-opacity:1"
           d="m 87.933594,-82.195312 c -1.125075,0 -2.161934,0.321257 -2.878906,1.05664 -0.570714,0.585482 -0.870689,1.369516 -0.972657,2.251953 1.538619,0.536711 3.234827,0.714152 4.951172,0.876953 v -3.18164 -1.003906 z m 3.099609,0 v 1.003906 3.398437 c 2.250236,0.283288 4.431524,0.802232 6.208985,2.402344 0.639427,0.575624 1.677095,3.569476 3.332032,6.195313 h 1.88672 c 0.99775,-3.8e-5 1.96735,-0.35189 2.62109,-1.083985 0.65375,-0.732246 0.95117,-1.749313 0.95117,-2.916015 v -4.998047 c 0,-1.166665 -0.29741,-2.18377 -0.95117,-2.916016 -0.65374,-0.732208 -1.62331,-1.085937 -2.62109,-1.085937 z"
           transform="matrix(0.26458333,0,0,0.26458333,0,284.3)" />
        <path
           id="path1145"
           style="fill:#7d8e9e;fill-opacity:1;stroke:none;stroke-width:0.999999px;stroke-linecap:butt;stroke-linejoin:miter;stroke-opacity:1"
           d="m 110.4043,-82.195312 c -1.29764,-0.02646 -2.3711,1.049738 -2.3711,2.333984 v 0.166016 c 2.51944,1.411091 5.78177,1.349246 8.11133,3.21289 1.62947,1.303583 2.63809,3.37169 3.72461,5.06836 0.88324,-0.682025 1.72577,-1.562882 2.64063,-2.689454 0.81951,-1.009171 0.71684,-2.449276 -0.19922,-3.351562 -3.19996,-3.151975 -5.45413,-4.598464 -11.90625,-4.740234 z"
           transform="matrix(0.26458333,0,0,0.26458333,0,284.3)" />
        <path
           d="m 23.265763,271.28516 c -0.297676,0 -0.572012,0.085 -0.76171,0.27957 -0.151002,0.15491 -0.23037,0.36235 -0.257349,0.59583 0.407093,0.14201 0.855881,0.18896 1.309997,0.23203 v -0.84181 -0.26562 z m 0.820105,0 v 0.26562 0.89917 c 0.595375,0.075 1.172507,0.21226 1.642794,0.63562 0.169182,0.1523 0.443731,0.94442 0.8816,1.63918 h 0.499195 c 0.263988,-10e-6 0.520528,-0.0931 0.693496,-0.28681 0.172972,-0.19374 0.251664,-0.46284 0.251664,-0.77153 v -1.3224 c 0,-0.30868 -0.07869,-0.57778 -0.251664,-0.77152 -0.172968,-0.19373 -0.4295,-0.28733 -0.693496,-0.28733 z"
           style="fill:#3a4d5c;fill-opacity:1;stroke:none;stroke-width:0.264583px;stroke-linecap:butt;stroke-linejoin:miter;stroke-opacity:1"
           id="path1152" />
        <path
           d="m 29.211137,271.28516 c -0.343334,-0.007 -0.627353,0.27775 -0.627353,0.61754 v 0.0439 c 0.666602,0.37335 1.52976,0.35699 2.146123,0.85008 0.43113,0.34491 0.697994,0.89209 0.985469,1.341 0.233691,-0.18045 0.45661,-0.41351 0.698667,-0.71158 0.216829,-0.26701 0.189664,-0.64804 -0.05271,-0.88677 -0.846656,-0.83396 -1.443072,-1.21668 -3.150196,-1.25419 z"
           style="fill:#7d8e9e;fill-opacity:1;stroke:none;stroke-width:0.264583px;stroke-linecap:butt;stroke-linejoin:miter;stroke-opacity:1"
           id="path1154" />
        <path
           id="path1156"
           style="fill:#7d8e9e;fill-opacity:1;stroke:none;stroke-width:0.999999px;stroke-linecap:butt;stroke-linejoin:miter;stroke-opacity:1"
           d="m 117.43164,-65.591797 c -1.30234,-0.02646 -2.40039,1.027425 -2.40039,2.324219 v 1.189453 c 2.79225,0.631831 6.58894,0.735999 8.39844,2.183594 1.34808,1.078455 2.44976,3.494626 3.4082,5.273437 0.99821,-0.70241 1.93131,-1.646442 2.95703,-2.880859 0.83684,-1.007093 0.73326,-2.467635 -0.19922,-3.365235 -3.27383,-3.151483 -5.56758,-4.582952 -12.16406,-4.724609 z"
           transform="matrix(0.26458333,0,0,0.26458333,0,284.3)" />
        <path
           id="path1164"
           style="fill:#3a4d5c;fill-opacity:1;stroke:none;stroke-width:0.999999px;stroke-linecap:butt;stroke-linejoin:miter;stroke-opacity:1"
           d="m 87.933594,-65.695312 c -1.125075,-3.8e-5 -2.161934,0.31938 -2.878906,1.054687 -0.71493,0.73343 -1.017805,1.772925 -1.019532,2.935547 1.377645,0.896517 3.084049,1.342504 4.998047,1.580078 v -5.570312 z m 3.099609,0 v 5.755859 c 4.543729,0.271835 9.941207,-0.102385 14.949217,1.484375 1.9927,0.797073 2.48815,3.329313 2.86328,5.757812 h 0.6211 c 0.99776,0 1.9654,-0.343926 2.61914,-1.076172 0.65374,-0.732245 0.94531,-1.749351 0.94531,-2.916015 v -5.005859 c 0,-1.166665 -0.29159,-2.183808 -0.94531,-2.916016 -0.65374,-0.732246 -1.62137,-1.083984 -2.61914,-1.083984 z"
           transform="matrix(0.26458333,0,0,0.26458333,0,284.3)" />
      </g>
    </g>
  </g>
</svg>
