<?xml version="1.0" encoding="UTF-8" standalone="no"?>
<svg
   xmlns:dc="http://purl.org/dc/elements/1.1/"
   xmlns:cc="http://creativecommons.org/ns#"
   xmlns:rdf="http://www.w3.org/1999/02/22-rdf-syntax-ns#"
   xmlns:svg="http://www.w3.org/2000/svg"
   xmlns="http://www.w3.org/2000/svg"
   xmlns:sodipodi="http://sodipodi.sourceforge.net/DTD/sodipodi-0.dtd"
   xmlns:inkscape="http://www.inkscape.org/namespaces/inkscape"
   inkscape:export-ydpi="768"
   inkscape:export-xdpi="768"
   inkscape:export-filename="E:\TR Design Studio Creative\Project Design\TR Creative Design\Icon Design\Project Hiring\Icon Icons\005 - Crime And Security\Send\3 - Flat\27 - Footprints.png"
   sodipodi:docname="27 - Footprints.svg"
   inkscape:version="0.92.4 (5da689c313, 2019-01-14)"
   id="svg979"
   version="1.1"
   viewBox="0 0 16.933334 16.933333"
   height="48pt"
   width="48pt">
  <defs
     id="defs973" />
  <sodipodi:namedview
     inkscape:snap-nodes="true"
     inkscape:bbox-nodes="true"
     inkscape:snap-bbox="true"
     inkscape:snap-global="true"
     inkscape:document-rotation="0"
     inkscape:window-maximized="1"
     inkscape:window-y="-8"
     inkscape:window-x="-8"
     inkscape:window-height="716"
     inkscape:window-width="1366"
     units="pt"
     showgrid="false"
     inkscape:current-layer="layer1"
     inkscape:document-units="pt"
     inkscape:cy="44.705371"
     inkscape:cx="35.358187"
     inkscape:zoom="16.15625"
     inkscape:pageshadow="2"
     inkscape:pageopacity="0.0"
     borderopacity="1.0"
     bordercolor="#666666"
     pagecolor="#ffffff"
     id="base"
     showguides="false"
     inkscape:object-paths="true"
     inkscape:snap-intersection-paths="true"
     inkscape:snap-smooth-nodes="true"
     inkscape:snap-midpoints="true">
    <inkscape:grid
       id="grid1526"
       type="xygrid" />
    <sodipodi:guide
       inkscape:locked="false"
       id="guide1528"
       orientation="56.666615,0"
       position="0.97013909,15.963209" />
    <sodipodi:guide
       inkscape:locked="false"
       id="guide1530"
       orientation="0,56.666667"
       position="0.97013909,0.97016731" />
    <sodipodi:guide
       inkscape:locked="false"
       id="guide1532"
       orientation="-56.666615,0"
       position="15.963195,0.97016731" />
    <sodipodi:guide
       inkscape:locked="false"
       id="guide1534"
       orientation="0,-56.666667"
       position="15.963195,15.963209" />
  </sodipodi:namedview>
  <metadata
     id="metadata976">
    <rdf:RDF>
      <cc:Work
         rdf:about="">
        <dc:format>image/svg+xml</dc:format>
        <dc:type
           rdf:resource="http://purl.org/dc/dcmitype/StillImage" />
        <dc:title></dc:title>
      </cc:Work>
    </rdf:RDF>
  </metadata>
  <g
     transform="translate(0,-280.06668)"
     id="layer1"
     inkscape:groupmode="layer"
     inkscape:label="Layer 1">
    <g
       id="g14287"
       transform="matrix(1.2443344,0,0,1.2443344,-2.0483387,-71.986209)">
      <path
         inkscape:connector-curvature="0"
         id="path2993"
         d="m 6.187515,283.70468 c -0.4591094,0.0124 -0.8484551,0.25981 -1.0878906,0.52148 a 0.2646099,0.2646099 0 0 0 -0.00586,0.006 c 0,0 -1.9070348,2.20314 -0.9414062,4.5 0.2548917,0.68432 0.8635092,1.17613 1.5507812,1.28711 0.6904465,0.11149 1.4626799,-0.20174 1.9277344,-1.03906 a 0.2646099,0.2646099 0 0 0 0.011718,-0.0254 c 0.3938294,-0.92811 0.317199,-1.99416 0.1582042,-2.83021 -0.1579523,-0.83056 -0.4068672,-1.43919 -0.4101563,-1.44726 -0.2512499,-0.68319 -0.7440155,-0.98509 -1.2031247,-0.97266 z"
         style="color:#000000;font-style:normal;font-variant:normal;font-weight:normal;font-stretch:normal;font-size:medium;line-height:normal;font-family:sans-serif;font-variant-ligatures:normal;font-variant-position:normal;font-variant-caps:normal;font-variant-numeric:normal;font-variant-alternates:normal;font-feature-settings:normal;text-indent:0;text-align:start;text-decoration:none;text-decoration-line:none;text-decoration-style:solid;text-decoration-color:#000000;letter-spacing:normal;word-spacing:normal;text-transform:none;writing-mode:lr-tb;direction:ltr;text-orientation:mixed;dominant-baseline:auto;baseline-shift:baseline;text-anchor:start;white-space:normal;shape-padding:0;clip-rule:nonzero;display:inline;overflow:visible;visibility:visible;opacity:1;isolation:auto;mix-blend-mode:normal;color-interpolation:sRGB;color-interpolation-filters:linearRGB;solid-color:#000000;solid-opacity:1;vector-effect:none;fill:#2f3e4a;fill-opacity:1;fill-rule:nonzero;stroke:none;stroke-width:0.52916688;stroke-linecap:round;stroke-linejoin:round;stroke-miterlimit:4;stroke-dasharray:none;stroke-dashoffset:0;stroke-opacity:1;color-rendering:auto;image-rendering:auto;shape-rendering:auto;text-rendering:auto;enable-background:accumulate" />
      <path
         inkscape:connector-curvature="0"
         id="path3237"
         d="m 6.1874212,283.70488 c -0.4591094,0.0124 -0.8483535,0.25974 -1.0877889,0.52141 a 0.2646099,0.2646099 0 0 0 -0.00568,0.006 c 0,0 -0.078114,0.098 -0.1798341,0.23771 0.210122,-0.13265 0.4636802,-0.22858 0.7441407,-0.23616 0.4591094,-0.0124 0.9522943,0.28988 1.2035442,0.97307 0.00329,0.008 0.2518418,0.61638 0.4097941,1.44694 0.1589947,0.83605 0.2356988,1.90221 -0.1581298,2.83032 a 0.2646099,0.2646099 0 0 1 -0.011369,0.0253 c -0.044364,0.0799 -0.094043,0.15075 -0.1436603,0.22117 0.2558709,-0.17334 0.4889543,-0.41928 0.672827,-0.75034 a 0.2646099,0.2646099 0 0 0 0.011369,-0.0253 c 0.3938285,-0.92811 0.3171245,-1.99427 0.1581298,-2.83032 -0.157952,-0.83056 -0.4065051,-1.43938 -0.4097941,-1.44745 -0.2512499,-0.6832 -0.7444346,-0.98498 -1.2035441,-0.97255 z"
         style="color:#000000;font-style:normal;font-variant:normal;font-weight:normal;font-stretch:normal;font-size:medium;line-height:normal;font-family:sans-serif;font-variant-ligatures:normal;font-variant-position:normal;font-variant-caps:normal;font-variant-numeric:normal;font-variant-alternates:normal;font-feature-settings:normal;text-indent:0;text-align:start;text-decoration:none;text-decoration-line:none;text-decoration-style:solid;text-decoration-color:#000000;letter-spacing:normal;word-spacing:normal;text-transform:none;writing-mode:lr-tb;direction:ltr;text-orientation:mixed;dominant-baseline:auto;baseline-shift:baseline;text-anchor:start;white-space:normal;shape-padding:0;clip-rule:nonzero;display:inline;overflow:visible;visibility:visible;opacity:1;isolation:auto;mix-blend-mode:normal;color-interpolation:sRGB;color-interpolation-filters:linearRGB;solid-color:#000000;solid-opacity:1;vector-effect:none;fill:#232f38;fill-opacity:1;fill-rule:nonzero;stroke:none;stroke-width:0.52916688;stroke-linecap:round;stroke-linejoin:round;stroke-miterlimit:4;stroke-dasharray:none;stroke-dashoffset:0;stroke-opacity:1;color-rendering:auto;image-rendering:auto;shape-rendering:auto;text-rendering:auto;enable-background:accumulate" />
      <path
         inkscape:connector-curvature="0"
         id="path2997"
         d="m 10.712906,285.29648 c -0.456938,-0.0124 -0.9488323,0.28847 -1.201172,0.96484 0,0 -0.00196,0.004 -0.00196,0.004 -0.00143,0.003 -0.2516119,0.61944 -0.4101561,1.45312 -0.1589947,0.83605 -0.2356247,1.90209 0.1582031,2.83008 a 0.2646099,0.2646099 0 0 0 0.011718,0.0254 c 0.465055,0.83732 1.237288,1.15056 1.927734,1.03906 0.68904,-0.11126 1.299021,-0.60395 1.552735,-1.29101 0.961516,-2.29534 -0.943351,-4.4961 -0.943351,-4.4961 a 0.2646099,0.2646099 0 0 0 -0.0078,-0.008 c -0.239436,-0.26168 -0.626827,-0.50906 -1.085938,-0.52148 z"
         style="color:#000000;font-style:normal;font-variant:normal;font-weight:normal;font-stretch:normal;font-size:medium;line-height:normal;font-family:sans-serif;font-variant-ligatures:normal;font-variant-position:normal;font-variant-caps:normal;font-variant-numeric:normal;font-variant-alternates:normal;font-feature-settings:normal;text-indent:0;text-align:start;text-decoration:none;text-decoration-line:none;text-decoration-style:solid;text-decoration-color:#000000;letter-spacing:normal;word-spacing:normal;text-transform:none;writing-mode:lr-tb;direction:ltr;text-orientation:mixed;dominant-baseline:auto;baseline-shift:baseline;text-anchor:start;white-space:normal;shape-padding:0;clip-rule:nonzero;display:inline;overflow:visible;visibility:visible;opacity:1;isolation:auto;mix-blend-mode:normal;color-interpolation:sRGB;color-interpolation-filters:linearRGB;solid-color:#000000;solid-opacity:1;vector-effect:none;fill:#2f3e4a;fill-opacity:1;fill-rule:nonzero;stroke:none;stroke-width:0.52916688;stroke-linecap:round;stroke-linejoin:round;stroke-miterlimit:4;stroke-dasharray:none;stroke-dashoffset:0;stroke-opacity:1;color-rendering:auto;image-rendering:auto;shape-rendering:auto;text-rendering:auto;enable-background:accumulate" />
      <path
         inkscape:connector-curvature="0"
         id="path3242"
         d="m 10.712904,285.29647 c -0.379008,-0.0103 -0.7801256,0.19898 -1.0505821,0.65526 0.168892,-0.0895 0.3475181,-0.13081 0.5214151,-0.1261 0.45911,0.0124 0.846286,0.25974 1.085722,0.52142 a 0.2646099,0.2646099 0 0 1 0.0083,0.008 c 0,0 1.904602,2.2005 0.943094,4.49584 -0.05797,0.15699 -0.136547,0.30221 -0.228409,0.43667 0.33686,-0.23145 0.609126,-0.56383 0.757576,-0.96583 0.961508,-2.29534 -0.943095,-4.49585 -0.943095,-4.49585 a 0.2646099,0.2646099 0 0 0 -0.0083,-0.008 c -0.239436,-0.26168 -0.626611,-0.50899 -1.085721,-0.52141 z"
         style="color:#000000;font-style:normal;font-variant:normal;font-weight:normal;font-stretch:normal;font-size:medium;line-height:normal;font-family:sans-serif;font-variant-ligatures:normal;font-variant-position:normal;font-variant-caps:normal;font-variant-numeric:normal;font-variant-alternates:normal;font-feature-settings:normal;text-indent:0;text-align:start;text-decoration:none;text-decoration-line:none;text-decoration-style:solid;text-decoration-color:#000000;letter-spacing:normal;word-spacing:normal;text-transform:none;writing-mode:lr-tb;direction:ltr;text-orientation:mixed;dominant-baseline:auto;baseline-shift:baseline;text-anchor:start;white-space:normal;shape-padding:0;clip-rule:nonzero;display:inline;overflow:visible;visibility:visible;opacity:1;isolation:auto;mix-blend-mode:normal;color-interpolation:sRGB;color-interpolation-filters:linearRGB;solid-color:#000000;solid-opacity:1;vector-effect:none;fill:#232f38;fill-opacity:1;fill-rule:nonzero;stroke:none;stroke-width:0.52916688;stroke-linecap:round;stroke-linejoin:round;stroke-miterlimit:4;stroke-dasharray:none;stroke-dashoffset:0;stroke-opacity:1;color-rendering:auto;image-rendering:auto;shape-rendering:auto;text-rendering:auto;enable-background:accumulate" />
      <path
         sodipodi:nodetypes="ccccccccccccc"
         inkscape:connector-curvature="0"
         id="path3001"
         d="m 11.01564,292.44101 c -0.25752,0.002 -0.510553,0.0282 -0.724609,0.0703 -0.107029,0.021 -0.203391,0.0449 -0.291016,0.0781 -0.083454,0.0316 -0.1611589,0.0665 -0.2382813,0.15039 -0.1909304,0.19442 -0.2787713,0.47192 -0.3164062,0.81054 -0.037902,0.34103 -0.014221,0.74766 0.091797,1.18946 0.1145926,0.47752 0.4002492,0.79775 0.7460935,0.93164 0.94414,0.27901 1.973021,-0.16493 2.208978,-1.17573 0.141822,-0.56003 0.09444,-1.17041 -0.142577,-1.61914 -0.0013,-0.002 -0.0026,-0.004 -0.0039,-0.006 -0.128319,-0.2274 -0.352344,-0.30299 -0.582032,-0.3573 -0.229688,-0.0543 -0.490527,-0.0746 -0.748047,-0.0723 z"
         style="color:#000000;font-style:normal;font-variant:normal;font-weight:normal;font-stretch:normal;font-size:medium;line-height:normal;font-family:sans-serif;font-variant-ligatures:normal;font-variant-position:normal;font-variant-caps:normal;font-variant-numeric:normal;font-variant-alternates:normal;font-feature-settings:normal;text-indent:0;text-align:start;text-decoration:none;text-decoration-line:none;text-decoration-style:solid;text-decoration-color:#000000;letter-spacing:normal;word-spacing:normal;text-transform:none;writing-mode:lr-tb;direction:ltr;text-orientation:mixed;dominant-baseline:auto;baseline-shift:baseline;text-anchor:start;white-space:normal;shape-padding:0;clip-rule:nonzero;display:inline;overflow:visible;visibility:visible;opacity:1;isolation:auto;mix-blend-mode:normal;color-interpolation:sRGB;color-interpolation-filters:linearRGB;solid-color:#000000;solid-opacity:1;vector-effect:none;fill:#2f3e4a;fill-opacity:1;fill-rule:nonzero;stroke:none;stroke-width:0.52916688;stroke-linecap:round;stroke-linejoin:round;stroke-miterlimit:4;stroke-dasharray:none;stroke-dashoffset:0;stroke-opacity:1;color-rendering:auto;image-rendering:auto;shape-rendering:auto;text-rendering:auto;enable-background:accumulate" />
      <path
         inkscape:connector-curvature="0"
         id="path3005"
         d="m 9.1327869,287.57187 c -0.0107,0.051 -0.023024,0.0939 -0.033073,0.14676 -0.023313,0.12259 -0.043981,0.2511 -0.062528,0.38241 h 1.1503171 a 0.26464501,0.26464501 0 0 0 0,-0.52917 z m 2.5802041,0 a 0.26464501,0.26464501 0 1 0 0,0.52917 h 1.208195 c -0.04011,-0.18326 -0.08819,-0.36132 -0.145727,-0.52917 z m -2.7378172,1.5937 c 0.00598,0.17605 0.022791,0.35284 0.049609,0.52917 h 1.1585852 a 0.26464501,0.26464501 0 1 0 0,-0.52917 z m 2.7905272,0 a 0.26499794,0.26499794 0 0 0 0.02739,0.52917 h 1.152385 c 0.03763,-0.17874 0.0555,-0.35506 0.06511,-0.52917 H 11.79309 a 0.2646099,0.2646099 0 0 0 -0.02739,0 z"
         style="color:#000000;font-style:normal;font-variant:normal;font-weight:normal;font-stretch:normal;font-size:medium;line-height:normal;font-family:sans-serif;font-variant-ligatures:normal;font-variant-position:normal;font-variant-caps:normal;font-variant-numeric:normal;font-variant-alternates:normal;font-feature-settings:normal;text-indent:0;text-align:start;text-decoration:none;text-decoration-line:none;text-decoration-style:solid;text-decoration-color:#000000;letter-spacing:normal;word-spacing:normal;text-transform:none;writing-mode:lr-tb;direction:ltr;text-orientation:mixed;dominant-baseline:auto;baseline-shift:baseline;text-anchor:start;white-space:normal;shape-padding:0;clip-rule:nonzero;display:inline;overflow:visible;visibility:visible;opacity:1;isolation:auto;mix-blend-mode:normal;color-interpolation:sRGB;color-interpolation-filters:linearRGB;solid-color:#000000;solid-opacity:1;vector-effect:none;fill:#f5f6e8;fill-opacity:1;fill-rule:nonzero;stroke:none;stroke-width:0.52916688;stroke-linecap:round;stroke-linejoin:round;stroke-miterlimit:4;stroke-dasharray:none;stroke-dashoffset:0;stroke-opacity:1;color-rendering:auto;image-rendering:auto;shape-rendering:auto;text-rendering:auto;enable-background:accumulate" />
      <path
         inkscape:connector-curvature="0"
         id="path3013"
         d="m 6.1289213,284.84921 c -0.2791834,-0.007 -0.4434057,0.1634 -0.6191407,0.36719 -0.1767984,0.20502 -0.3456036,0.48128 -0.4804687,0.80664 -0.2697302,0.65071 -0.402414,1.50947 -0.054687,2.33008 0.067429,0.16377 0.1611027,0.33107 0.3046875,0.4707 0.1406536,0.13678 0.3391804,0.23602 0.5683594,0.25781 0.3430611,0.0516 0.7659444,-0.11086 0.9687499,-0.54492 a 0.2646099,0.2646099 0 0 0 0.00391,-0.01 c 0.2646612,-0.63496 0.2720867,-1.41744 0.1699221,-2.14649 -0.051016,-0.36405 -0.1165972,-0.70381 -0.2285162,-0.98047 -0.05596,-0.13833 -0.1236771,-0.26309 -0.2246095,-0.36719 -0.099565,-0.10268 -0.2483744,-0.18145 -0.408203,-0.18359 z"
         style="color:#000000;font-style:normal;font-variant:normal;font-weight:normal;font-stretch:normal;font-size:medium;line-height:normal;font-family:sans-serif;font-variant-ligatures:normal;font-variant-position:normal;font-variant-caps:normal;font-variant-numeric:normal;font-variant-alternates:normal;font-feature-settings:normal;text-indent:0;text-align:start;text-decoration:none;text-decoration-line:none;text-decoration-style:solid;text-decoration-color:#000000;letter-spacing:normal;word-spacing:normal;text-transform:none;writing-mode:lr-tb;direction:ltr;text-orientation:mixed;dominant-baseline:auto;baseline-shift:baseline;text-anchor:start;white-space:normal;shape-padding:0;clip-rule:nonzero;display:inline;overflow:visible;visibility:visible;opacity:1;isolation:auto;mix-blend-mode:normal;color-interpolation:sRGB;color-interpolation-filters:linearRGB;solid-color:#000000;solid-opacity:1;vector-effect:none;fill:#f5f6e8;fill-opacity:1;fill-rule:nonzero;stroke:none;stroke-width:0.52916688;stroke-linecap:round;stroke-linejoin:round;stroke-miterlimit:4;stroke-dasharray:none;stroke-dashoffset:0;stroke-opacity:1;color-rendering:auto;image-rendering:auto;shape-rendering:auto;text-rendering:auto;enable-background:accumulate" />
      <path
         sodipodi:nodetypes="csccccccccccc"
         inkscape:connector-curvature="0"
         id="path3017"
         d="m 5.8828275,290.84921 c -0.2575209,-0.002 -0.5164056,0.016 -0.7460937,0.0703 -0.2296882,0.0543 -0.4537156,0.12989 -0.5820314,0.35743 -0.00135,0.003 -0.00265,0.005 -0.00391,0.008 -0.2370178,0.44872 -0.2843997,1.0591 -0.1425781,1.61914 0.2446998,0.93887 1.2101196,1.54086 2.2070251,1.17377 0.3458461,-0.13389 0.6334546,-0.45412 0.7480469,-0.93164 0.1060178,-0.4418 0.1296985,-0.84843 0.091797,-1.18946 -0.037525,-0.33763 -0.1246884,-0.6123 -0.3144534,-0.80664 -0.078305,-0.0869 -0.1574456,-0.12021 -0.2421874,-0.15234 -0.087625,-0.0332 -0.183987,-0.059 -0.2910157,-0.0801 -0.2140571,-0.0421 -0.4670884,-0.066 -0.7246093,-0.0684 z"
         style="color:#000000;font-style:normal;font-variant:normal;font-weight:normal;font-stretch:normal;font-size:medium;line-height:normal;font-family:sans-serif;font-variant-ligatures:normal;font-variant-position:normal;font-variant-caps:normal;font-variant-numeric:normal;font-variant-alternates:normal;font-feature-settings:normal;text-indent:0;text-align:start;text-decoration:none;text-decoration-line:none;text-decoration-style:solid;text-decoration-color:#000000;letter-spacing:normal;word-spacing:normal;text-transform:none;writing-mode:lr-tb;direction:ltr;text-orientation:mixed;dominant-baseline:auto;baseline-shift:baseline;text-anchor:start;white-space:normal;shape-padding:0;clip-rule:nonzero;display:inline;overflow:visible;visibility:visible;opacity:1;isolation:auto;mix-blend-mode:normal;color-interpolation:sRGB;color-interpolation-filters:linearRGB;solid-color:#000000;solid-opacity:1;vector-effect:none;fill:#2f3e4a;fill-opacity:1;fill-rule:nonzero;stroke:none;stroke-width:0.52916688;stroke-linecap:round;stroke-linejoin:round;stroke-miterlimit:4;stroke-dasharray:none;stroke-dashoffset:0;stroke-opacity:1;color-rendering:auto;image-rendering:auto;shape-rendering:auto;text-rendering:auto;enable-background:accumulate" />
      <path
         inkscape:connector-curvature="0"
         id="path3021"
         d="m 4.124307,285.98024 c -0.057517,0.16799 -0.1051798,0.34575 -0.1452108,0.52917 h 1.247469 a 0.26465001,0.26465001 0 1 0 0,-0.52917 z m 2.5512656,0 a 0.26500291,0.26500291 0 0 0 0.027389,0.52917 h 1.1606525 c -0.018613,-0.13204 -0.039612,-0.26177 -0.063045,-0.38499 -0.0099,-0.0521 -0.022027,-0.094 -0.032556,-0.14418 H 6.7029612 a 0.2646099,0.2646099 0 0 0 -0.027389,0 z m -2.7858767,1.59163 c 0.00964,0.17425 0.02792,0.35028 0.065629,0.52917 h 1.1327475 a 0.26464501,0.26464501 0 0 0 0,-0.52917 z m 2.8484051,0 a 0.26464501,0.26464501 0 1 0 0,0.52917 h 1.1373983 c 0.026817,-0.17633 0.04363,-0.35312 0.049609,-0.52917 z"
         style="color:#000000;font-style:normal;font-variant:normal;font-weight:normal;font-stretch:normal;font-size:medium;line-height:normal;font-family:sans-serif;font-variant-ligatures:normal;font-variant-position:normal;font-variant-caps:normal;font-variant-numeric:normal;font-variant-alternates:normal;font-feature-settings:normal;text-indent:0;text-align:start;text-decoration:none;text-decoration-line:none;text-decoration-style:solid;text-decoration-color:#000000;letter-spacing:normal;word-spacing:normal;text-transform:none;writing-mode:lr-tb;direction:ltr;text-orientation:mixed;dominant-baseline:auto;baseline-shift:baseline;text-anchor:start;white-space:normal;shape-padding:0;clip-rule:nonzero;display:inline;overflow:visible;visibility:visible;opacity:1;isolation:auto;mix-blend-mode:normal;color-interpolation:sRGB;color-interpolation-filters:linearRGB;solid-color:#000000;solid-opacity:1;vector-effect:none;fill:#f5f6e8;fill-opacity:1;fill-rule:nonzero;stroke:none;stroke-width:0.52916688;stroke-linecap:round;stroke-linejoin:round;stroke-miterlimit:4;stroke-dasharray:none;stroke-dashoffset:0;stroke-opacity:1;color-rendering:auto;image-rendering:auto;shape-rendering:auto;text-rendering:auto;enable-background:accumulate" />
      <path
         inkscape:connector-curvature="0"
         id="path3029"
         d="m 10.775406,286.34335 c -0.159824,0.002 -0.308641,0.079 -0.408204,0.18164 -0.100932,0.1041 -0.168649,0.22886 -0.224609,0.36719 -0.111919,0.27666 -0.1774997,0.61642 -0.2285153,0.98047 -0.1021644,0.72906 -0.094739,1.51152 0.1699213,2.14648 a 0.2646099,0.2646099 0 0 0 0.0039,0.0117 c 0.202806,0.43406 0.625689,0.59656 0.968751,0.54492 0.229174,-0.0218 0.427706,-0.12103 0.568359,-0.25781 0.143584,-0.13963 0.237258,-0.30693 0.304687,-0.4707 v -0.002 c 0.346716,-0.82003 0.214834,-1.67987 -0.05469,-2.33007 -0.134865,-0.32536 -0.30367,-0.59967 -0.480468,-0.80469 -0.175736,-0.20379 -0.339958,-0.3741 -0.619141,-0.36719 z"
         style="color:#000000;font-style:normal;font-variant:normal;font-weight:normal;font-stretch:normal;font-size:medium;line-height:normal;font-family:sans-serif;font-variant-ligatures:normal;font-variant-position:normal;font-variant-caps:normal;font-variant-numeric:normal;font-variant-alternates:normal;font-feature-settings:normal;text-indent:0;text-align:start;text-decoration:none;text-decoration-line:none;text-decoration-style:solid;text-decoration-color:#000000;letter-spacing:normal;word-spacing:normal;text-transform:none;writing-mode:lr-tb;direction:ltr;text-orientation:mixed;dominant-baseline:auto;baseline-shift:baseline;text-anchor:start;white-space:normal;shape-padding:0;clip-rule:nonzero;display:inline;overflow:visible;visibility:visible;opacity:1;isolation:auto;mix-blend-mode:normal;color-interpolation:sRGB;color-interpolation-filters:linearRGB;solid-color:#000000;solid-opacity:1;vector-effect:none;fill:#f5f6e8;fill-opacity:1;fill-rule:nonzero;stroke:none;stroke-width:0.52916688;stroke-linecap:round;stroke-linejoin:round;stroke-miterlimit:4;stroke-dasharray:none;stroke-dashoffset:0;stroke-opacity:1;color-rendering:auto;image-rendering:auto;shape-rendering:auto;text-rendering:auto;enable-background:accumulate" />
      <path
         inkscape:connector-curvature="0"
         id="path51323"
         d="m 5.6894682,292.69882 a 0.26465001,0.26465001 0 1 0 0,0.5293 H 6.218765 a 0.26465001,0.26465001 0 1 0 0,-0.5293 z"
         style="color:#000000;font-style:normal;font-variant:normal;font-weight:normal;font-stretch:normal;font-size:medium;line-height:normal;font-family:sans-serif;font-variant-ligatures:normal;font-variant-position:normal;font-variant-caps:normal;font-variant-numeric:normal;font-variant-alternates:normal;font-feature-settings:normal;text-indent:0;text-align:start;text-decoration:none;text-decoration-line:none;text-decoration-style:solid;text-decoration-color:#000000;letter-spacing:normal;word-spacing:normal;text-transform:none;writing-mode:lr-tb;direction:ltr;text-orientation:mixed;dominant-baseline:auto;baseline-shift:baseline;text-anchor:start;white-space:normal;shape-padding:0;clip-rule:nonzero;display:inline;overflow:visible;visibility:visible;opacity:1;isolation:auto;mix-blend-mode:normal;color-interpolation:sRGB;color-interpolation-filters:linearRGB;solid-color:#000000;solid-opacity:1;vector-effect:none;fill:#f5f6e8;fill-opacity:1;fill-rule:nonzero;stroke:none;stroke-width:0.52916688;stroke-linecap:round;stroke-linejoin:round;stroke-miterlimit:4;stroke-dasharray:none;stroke-dashoffset:0;stroke-opacity:1;color-rendering:auto;image-rendering:auto;shape-rendering:auto;text-rendering:auto;enable-background:accumulate" />
      <path
         inkscape:connector-curvature="0"
         id="path51580"
         d="m 10.689468,294.28671 a 0.26500294,0.26500294 0 0 0 0.02734,0.5293 h 0.527344 a 0.26465001,0.26465001 0 1 0 0,-0.5293 h -0.527344 a 0.2646099,0.2646099 0 0 0 -0.02734,0 z"
         style="color:#000000;font-style:normal;font-variant:normal;font-weight:normal;font-stretch:normal;font-size:medium;line-height:normal;font-family:sans-serif;font-variant-ligatures:normal;font-variant-position:normal;font-variant-caps:normal;font-variant-numeric:normal;font-variant-alternates:normal;font-feature-settings:normal;text-indent:0;text-align:start;text-decoration:none;text-decoration-line:none;text-decoration-style:solid;text-decoration-color:#000000;letter-spacing:normal;word-spacing:normal;text-transform:none;writing-mode:lr-tb;direction:ltr;text-orientation:mixed;dominant-baseline:auto;baseline-shift:baseline;text-anchor:start;white-space:normal;shape-padding:0;clip-rule:nonzero;display:inline;overflow:visible;visibility:visible;opacity:1;isolation:auto;mix-blend-mode:normal;color-interpolation:sRGB;color-interpolation-filters:linearRGB;solid-color:#000000;solid-opacity:1;vector-effect:none;fill:#f5f6e8;fill-opacity:1;fill-rule:nonzero;stroke:none;stroke-width:0.52916688;stroke-linecap:round;stroke-linejoin:round;stroke-miterlimit:4;stroke-dasharray:none;stroke-dashoffset:0;stroke-opacity:1;color-rendering:auto;image-rendering:auto;shape-rendering:auto;text-rendering:auto;enable-background:accumulate" />
      <path
         inkscape:connector-curvature="0"
         id="path3227"
         d="m 6.1288343,284.8518 c -0.2791834,-0.007 -0.4433486,0.16363 -0.6190835,0.36742 -0.054682,0.0634 -0.1078125,0.13601 -0.160197,0.21239 0.07357,-0.0333 0.1547632,-0.053 0.2501138,-0.0506 0.1598287,0.002 0.3086787,0.0808 0.4082438,0.18345 0.1009324,0.1041 0.1688325,0.22909 0.2247925,0.36742 0.1119191,0.27666 0.1773938,0.61625 0.2284098,0.9803 0.1005764,0.71772 0.093545,1.4866 -0.1591634,2.11615 0.2061806,-0.0806 0.3975642,-0.23816 0.5146973,-0.48886 0.00127,-0.003 0.00248,-0.007 0.00362,-0.01 0.2646609,-0.63496 0.2721801,-1.41759 0.1700155,-2.14664 -0.051016,-0.36405 -0.1164903,-0.70364 -0.2284093,-0.9803 -0.05596,-0.13833 -0.1238602,-0.26332 -0.2247926,-0.36742 -0.099565,-0.10268 -0.2484152,-0.18131 -0.4082438,-0.18345 z"
         style="color:#000000;font-style:normal;font-variant:normal;font-weight:normal;font-stretch:normal;font-size:medium;line-height:normal;font-family:sans-serif;font-variant-ligatures:normal;font-variant-position:normal;font-variant-caps:normal;font-variant-numeric:normal;font-variant-alternates:normal;font-feature-settings:normal;text-indent:0;text-align:start;text-decoration:none;text-decoration-line:none;text-decoration-style:solid;text-decoration-color:#000000;letter-spacing:normal;word-spacing:normal;text-transform:none;writing-mode:lr-tb;direction:ltr;text-orientation:mixed;dominant-baseline:auto;baseline-shift:baseline;text-anchor:start;white-space:normal;shape-padding:0;clip-rule:nonzero;display:inline;overflow:visible;visibility:visible;opacity:1;isolation:auto;mix-blend-mode:normal;color-interpolation:sRGB;color-interpolation-filters:linearRGB;solid-color:#000000;solid-opacity:1;vector-effect:none;fill:#dbdbcf;fill-opacity:1;fill-rule:nonzero;stroke:none;stroke-width:0.52916688;stroke-linecap:round;stroke-linejoin:round;stroke-miterlimit:4;stroke-dasharray:none;stroke-dashoffset:0;stroke-opacity:1;color-rendering:auto;image-rendering:auto;shape-rendering:auto;text-rendering:auto;enable-background:accumulate"
         sodipodi:nodetypes="ccccccccccscccc" />
      <path
         inkscape:connector-curvature="0"
         id="path3232"
         d="m 10.775282,286.34574 c -0.159824,0.002 -0.308682,0.0793 -0.408244,0.18191 -0.09922,0.10233 -0.165767,0.22465 -0.221177,0.36018 0.03277,-0.007 0.0661,-0.0125 0.100254,-0.0129 0.279183,-0.007 0.443348,0.16363 0.619083,0.36742 0.176799,0.20502 0.345726,0.47924 0.480591,0.8046 0.269521,0.6502 0.401493,1.51006 0.05478,2.33009 v 0.002 c -0.0176,0.0427 -0.043,0.085 -0.0646,0.12764 0.111005,-0.0461 0.209692,-0.10904 0.288871,-0.18604 0.143585,-0.13963 0.237462,-0.307 0.304892,-0.47077 v -0.002 c 0.346715,-0.82002 0.214743,-1.67988 -0.05478,-2.33009 -0.134866,-0.32536 -0.303793,-0.59958 -0.480591,-0.8046 -0.175735,-0.20379 -0.339901,-0.37433 -0.619084,-0.36742 z"
         style="color:#000000;font-style:normal;font-variant:normal;font-weight:normal;font-stretch:normal;font-size:medium;line-height:normal;font-family:sans-serif;font-variant-ligatures:normal;font-variant-position:normal;font-variant-caps:normal;font-variant-numeric:normal;font-variant-alternates:normal;font-feature-settings:normal;text-indent:0;text-align:start;text-decoration:none;text-decoration-line:none;text-decoration-style:solid;text-decoration-color:#000000;letter-spacing:normal;word-spacing:normal;text-transform:none;writing-mode:lr-tb;direction:ltr;text-orientation:mixed;dominant-baseline:auto;baseline-shift:baseline;text-anchor:start;white-space:normal;shape-padding:0;clip-rule:nonzero;display:inline;overflow:visible;visibility:visible;opacity:1;isolation:auto;mix-blend-mode:normal;color-interpolation:sRGB;color-interpolation-filters:linearRGB;solid-color:#000000;solid-opacity:1;vector-effect:none;fill:#dbdbcf;fill-opacity:1;fill-rule:nonzero;stroke:none;stroke-width:0.52916688;stroke-linecap:round;stroke-linejoin:round;stroke-miterlimit:4;stroke-dasharray:none;stroke-dashoffset:0;stroke-opacity:1;color-rendering:auto;image-rendering:auto;shape-rendering:auto;text-rendering:auto;enable-background:accumulate"
         sodipodi:nodetypes="cccccccccccccccc" />
      <path
         inkscape:connector-curvature="0"
         id="path3247"
         d="m 5.8826036,290.84921 c -0.2575209,-0.002 -0.5165196,0.016 -0.7462077,0.0703 -0.2296882,0.0543 -0.4535609,0.13006 -0.5818767,0.3576 -0.00135,0.003 -0.00287,0.005 -0.00413,0.008 -0.034097,0.0646 -0.062634,0.133 -0.088883,0.20361 0.047942,-0.0149 0.096369,-0.0286 0.1457275,-0.0403 0.2296882,-0.0543 0.488687,-0.0723 0.7462078,-0.0703 v 5.3e-4 c 0.2575209,0.002 0.5104464,0.0261 0.7245036,0.0682 0.1070286,0.0211 0.2033133,0.0469 0.2909383,0.0801 0.084742,0.0321 0.1640575,0.0656 0.2423623,0.15245 0.189765,0.19434 0.2771846,0.46904 0.3147094,0.80666 0.037902,0.34103 0.014034,0.74728 -0.091984,1.18908 -0.032306,0.13462 -0.079707,0.25535 -0.1369425,0.36432 0.3085373,-0.15059 0.5607823,-0.45458 0.6661092,-0.89349 0.1060178,-0.4418 0.1298858,-0.84804 0.091984,-1.18907 -0.037525,-0.33763 -0.1249448,-0.61233 -0.3147095,-0.80667 -0.078305,-0.0869 -0.157621,-0.12032 -0.2423626,-0.15245 -0.087625,-0.0332 -0.1839097,-0.059 -0.2909382,-0.0801 -0.2140573,-0.0421 -0.4669828,-0.0658 -0.7245037,-0.0682 z"
         style="color:#000000;font-style:normal;font-variant:normal;font-weight:normal;font-stretch:normal;font-size:medium;line-height:normal;font-family:sans-serif;font-variant-ligatures:normal;font-variant-position:normal;font-variant-caps:normal;font-variant-numeric:normal;font-variant-alternates:normal;font-feature-settings:normal;text-indent:0;text-align:start;text-decoration:none;text-decoration-line:none;text-decoration-style:solid;text-decoration-color:#000000;letter-spacing:normal;word-spacing:normal;text-transform:none;writing-mode:lr-tb;direction:ltr;text-orientation:mixed;dominant-baseline:auto;baseline-shift:baseline;text-anchor:start;white-space:normal;shape-padding:0;clip-rule:nonzero;display:inline;overflow:visible;visibility:visible;opacity:1;isolation:auto;mix-blend-mode:normal;color-interpolation:sRGB;color-interpolation-filters:linearRGB;solid-color:#000000;solid-opacity:1;vector-effect:none;fill:#232f38;fill-opacity:1;fill-rule:nonzero;stroke:none;stroke-width:0.52916688;stroke-linecap:round;stroke-linejoin:round;stroke-miterlimit:4;stroke-dasharray:none;stroke-dashoffset:0;stroke-opacity:1;color-rendering:auto;image-rendering:auto;shape-rendering:auto;text-rendering:auto;enable-background:accumulate" />
      <path
         inkscape:connector-curvature="0"
         id="path3252"
         d="m 11.015816,292.44094 c -0.25752,0.002 -0.510963,0.0282 -0.72502,0.0703 -0.107028,0.021 -0.203314,0.0453 -0.2909383,0.0786 -0.083454,0.0316 -0.1611064,0.0665 -0.2382285,0.15038 -0.096365,0.0981 -0.165881,0.21739 -0.2165241,0.35502 0.067605,-0.021 0.1382689,-0.0394 0.2165241,-0.0548 0.2140567,-0.0421 0.4674998,-0.0683 0.7250208,-0.0703 0.25752,-0.002 0.51807,0.018 0.747758,0.0724 0.229687,0.0543 0.453558,0.1302 0.581876,0.3576 l 0.0041,0.006 c 0.237018,0.44873 0.28445,1.05899 0.142628,1.61902 -0.04131,0.17698 -0.108572,0.33559 -0.193787,0.47697 0.348241,-0.21097 0.616584,-0.55047 0.722953,-1.00614 0.141822,-0.56003 0.09439,-1.17029 -0.142626,-1.61902 l -0.0041,-0.006 c -0.128319,-0.2274 -0.35219,-0.30329 -0.581878,-0.3576 -0.229687,-0.0543 -0.490237,-0.0747 -0.747758,-0.0724 z"
         style="color:#000000;font-style:normal;font-variant:normal;font-weight:normal;font-stretch:normal;font-size:medium;line-height:normal;font-family:sans-serif;font-variant-ligatures:normal;font-variant-position:normal;font-variant-caps:normal;font-variant-numeric:normal;font-variant-alternates:normal;font-feature-settings:normal;text-indent:0;text-align:start;text-decoration:none;text-decoration-line:none;text-decoration-style:solid;text-decoration-color:#000000;letter-spacing:normal;word-spacing:normal;text-transform:none;writing-mode:lr-tb;direction:ltr;text-orientation:mixed;dominant-baseline:auto;baseline-shift:baseline;text-anchor:start;white-space:normal;shape-padding:0;clip-rule:nonzero;display:inline;overflow:visible;visibility:visible;opacity:1;isolation:auto;mix-blend-mode:normal;color-interpolation:sRGB;color-interpolation-filters:linearRGB;solid-color:#000000;solid-opacity:1;vector-effect:none;fill:#232f38;fill-opacity:1;fill-rule:nonzero;stroke:none;stroke-width:0.52916688;stroke-linecap:round;stroke-linejoin:round;stroke-miterlimit:4;stroke-dasharray:none;stroke-dashoffset:0;stroke-opacity:1;color-rendering:auto;image-rendering:auto;shape-rendering:auto;text-rendering:auto;enable-background:accumulate" />
    </g>
  </g>
</svg>
