<?xml version="1.0" encoding="UTF-8" standalone="no"?>
<svg
   xmlns:dc="http://purl.org/dc/elements/1.1/"
   xmlns:cc="http://creativecommons.org/ns#"
   xmlns:rdf="http://www.w3.org/1999/02/22-rdf-syntax-ns#"
   xmlns:svg="http://www.w3.org/2000/svg"
   xmlns="http://www.w3.org/2000/svg"
   xmlns:sodipodi="http://sodipodi.sourceforge.net/DTD/sodipodi-0.dtd"
   xmlns:inkscape="http://www.inkscape.org/namespaces/inkscape"
   inkscape:export-ydpi="768"
   inkscape:export-xdpi="768"
   inkscape:export-filename="C:\Users\RainBoyz\Desktop\EXPORT FLAT\2. Gun.png"
   width="48pt"
   height="48pt"
   viewBox="0 0 16.933334 16.933333"
   version="1.1"
   id="svg979"
   inkscape:version="1.0 (4035a4fb49, 2020-05-01)"
   sodipodi:docname="3. Detective.svg">
  <defs
     id="defs973" />
  <sodipodi:namedview
     id="base"
     pagecolor="#ffffff"
     bordercolor="#666666"
     borderopacity="1.0"
     inkscape:pageopacity="0.0"
     inkscape:pageshadow="2"
     inkscape:zoom="6.0435533"
     inkscape:cx="11.280141"
     inkscape:cy="26.741684"
     inkscape:document-units="pt"
     inkscape:current-layer="layer1"
     showgrid="false"
     units="pt"
     inkscape:window-width="1366"
     inkscape:window-height="715"
     inkscape:window-x="-8"
     inkscape:window-y="-8"
     inkscape:window-maximized="1"
     inkscape:document-rotation="0"
     inkscape:snap-bbox="true"
     inkscape:bbox-nodes="true"
     inkscape:snap-nodes="false">
    <inkscape:grid
       type="xygrid"
       id="grid1526" />
    <sodipodi:guide
       position="0.97013909,15.963209"
       orientation="56.666615,0"
       id="guide1528"
       inkscape:locked="false" />
    <sodipodi:guide
       position="0.97013909,0.97016731"
       orientation="0,56.666667"
       id="guide1530"
       inkscape:locked="false" />
    <sodipodi:guide
       position="15.963195,0.97016731"
       orientation="-56.666615,0"
       id="guide1532"
       inkscape:locked="false" />
    <sodipodi:guide
       position="15.963195,15.963209"
       orientation="0,-56.666667"
       id="guide1534"
       inkscape:locked="false" />
  </sodipodi:namedview>
  <metadata
     id="metadata976">
    <rdf:RDF>
      <cc:Work
         rdf:about="">
        <dc:format>image/svg+xml</dc:format>
        <dc:type
           rdf:resource="http://purl.org/dc/dcmitype/StillImage" />
        <dc:title></dc:title>
      </cc:Work>
    </rdf:RDF>
  </metadata>
  <g
     inkscape:label="Layer 1"
     inkscape:groupmode="layer"
     id="layer1"
     transform="translate(0,-280.06668)">
    <g
       transform="matrix(1.21427,0,0,1.21427,0.77312799,-37.613882)"
       id="g1225">
      <path
         style="color:#000000;font-style:normal;font-variant:normal;font-weight:normal;font-stretch:normal;font-size:medium;line-height:normal;font-family:sans-serif;font-variant-ligatures:normal;font-variant-position:normal;font-variant-caps:normal;font-variant-numeric:normal;font-variant-alternates:normal;font-variant-east-asian:normal;font-feature-settings:normal;font-variation-settings:normal;text-indent:0;text-align:start;text-decoration:none;text-decoration-line:none;text-decoration-style:solid;text-decoration-color:#000000;letter-spacing:normal;word-spacing:normal;text-transform:none;writing-mode:lr-tb;direction:ltr;text-orientation:mixed;dominant-baseline:auto;baseline-shift:baseline;text-anchor:start;white-space:normal;shape-padding:0;shape-margin:0;inline-size:0;clip-rule:nonzero;display:inline;overflow:visible;visibility:visible;isolation:auto;mix-blend-mode:normal;color-interpolation:sRGB;color-interpolation-filters:linearRGB;solid-color:#000000;solid-opacity:1;vector-effect:none;fill:#677582;fill-opacity:1;fill-rule:nonzero;stroke:none;stroke-width:0.529167;stroke-linecap:round;stroke-linejoin:round;stroke-miterlimit:4;stroke-dasharray:none;stroke-dashoffset:0;stroke-opacity:1;color-rendering:auto;image-rendering:auto;shape-rendering:auto;text-rendering:auto;enable-background:accumulate;stop-color:#000000"
         d="m 4.9472656,269.7832 a 0.26460996,0.26460996 0 0 0 -0.2011718,0.0918 l -1.1699219,1.36719 c -1.0257973,-0.0975 -1.8705177,0.0967 -2.4375,0.63867 -0.5992239,0.57279 -0.87500001,1.4636 -0.87500002,2.58594 a 0.26460996,0.26460996 0 0 0 0.26367187,0.26367 H 12.144531 a 0.26460996,0.26460996 0 0 0 0.263672,-0.26367 c 0,-1.12234 -0.275776,-2.01315 -0.875,-2.58594 -0.568985,-0.54389 -1.416442,-0.73879 -2.4472655,-0.63867 l -1.3730469,-1.36914 a 0.26460996,0.26460996 0 0 0 -0.1855468,-0.0781 z"
         id="path419" />
      <path
         sodipodi:nodetypes="cscccccccccccc"
         d="m 6.3359374,274.73047 c 0.089343,-0.34542 1.0747206,-1.61127 1.2225544,-2.07989 0.2956679,-0.93724 0.6227011,-1.89084 0.6227011,-1.89084 0.010832,-0.0314 0.027486,-0.0605 0.049093,-0.0858 l 0.190686,-0.22066 0.6748941,0.7891 c 0.6391015,-0.0607 1.207435,-0.008 1.682585,0.17105 l -0.257349,0.13126 0.15813,0.11937 c 0.411534,0.31469 0.372216,0.96807 -0.0739,1.23041 h -0.0021 c -5.37e-4,3.2e-4 5.37e-4,0.002 0,0.002 l -3.0897342,1.83399 z"
         style="color:#000000;font-style:normal;font-variant:normal;font-weight:normal;font-stretch:normal;font-size:medium;line-height:normal;font-family:sans-serif;font-variant-ligatures:normal;font-variant-position:normal;font-variant-caps:normal;font-variant-numeric:normal;font-variant-alternates:normal;font-variant-east-asian:normal;font-feature-settings:normal;font-variation-settings:normal;text-indent:0;text-align:start;text-decoration:none;text-decoration-line:none;text-decoration-style:solid;text-decoration-color:#000000;letter-spacing:normal;word-spacing:normal;text-transform:none;writing-mode:lr-tb;direction:ltr;text-orientation:mixed;dominant-baseline:auto;baseline-shift:baseline;text-anchor:start;white-space:normal;shape-padding:0;shape-margin:0;inline-size:0;clip-rule:nonzero;display:inline;overflow:visible;visibility:visible;isolation:auto;mix-blend-mode:normal;color-interpolation:sRGB;color-interpolation-filters:linearRGB;solid-color:#000000;solid-opacity:1;vector-effect:none;fill:#56626b;fill-opacity:1;fill-rule:nonzero;stroke:none;stroke-width:0.529167;stroke-linecap:round;stroke-linejoin:round;stroke-miterlimit:4;stroke-dasharray:none;stroke-dashoffset:0;stroke-opacity:1;color-rendering:auto;image-rendering:auto;shape-rendering:auto;text-rendering:auto;enable-background:accumulate;stop-color:#000000"
         id="path1320" />
      <path
         id="path1315"
         style="color:#000000;font-style:normal;font-variant:normal;font-weight:normal;font-stretch:normal;font-size:medium;line-height:normal;font-family:sans-serif;font-variant-ligatures:normal;font-variant-position:normal;font-variant-caps:normal;font-variant-numeric:normal;font-variant-alternates:normal;font-variant-east-asian:normal;font-feature-settings:normal;font-variation-settings:normal;text-indent:0;text-align:start;text-decoration:none;text-decoration-line:none;text-decoration-style:solid;text-decoration-color:#000000;letter-spacing:normal;word-spacing:normal;text-transform:none;writing-mode:lr-tb;direction:ltr;text-orientation:mixed;dominant-baseline:auto;baseline-shift:baseline;text-anchor:start;white-space:normal;shape-padding:0;shape-margin:0;inline-size:0;clip-rule:nonzero;display:inline;overflow:visible;visibility:visible;isolation:auto;mix-blend-mode:normal;color-interpolation:sRGB;color-interpolation-filters:linearRGB;solid-color:#000000;solid-opacity:1;vector-effect:none;fill:#56626b;fill-opacity:1;fill-rule:nonzero;stroke:none;stroke-width:2;stroke-linecap:round;stroke-linejoin:round;stroke-miterlimit:4;stroke-dasharray:none;stroke-dashoffset:0;stroke-opacity:1;color-rendering:auto;image-rendering:auto;shape-rendering:auto;text-rendering:auto;enable-background:accumulate;stop-color:#000000"
         d="m 23.94685,-36.168303 c -0.337674,-1.305525 -4.061936,-6.089832 -4.620678,-7.860994 -1.117485,-3.542324 -2.353516,-7.146484 -2.353516,-7.146484 -0.04094,-0.118767 -0.103884,-0.228759 -0.185547,-0.324219 l -0.720703,-0.833984 -2.550781,2.982422 c -2.415502,-0.229589 -4.5635339,-0.03107 -6.359375,0.646484 l 0.9726562,0.496094 -0.5976562,0.451172 c -1.5554052,1.189379 -1.406801,3.658869 0.2792969,4.65039 h 0.00781 c 0.00203,0.0012 -0.00203,0.0078 0,0.0078 l 11.6777341,6.93164 z"
         transform="matrix(0.26458333,0,0,0.26458333,0,284.3)"
         sodipodi:nodetypes="cscccccccccccc" />
      <path
         style="color:#000000;font-style:normal;font-variant:normal;font-weight:normal;font-stretch:normal;font-size:medium;line-height:normal;font-family:sans-serif;font-variant-ligatures:normal;font-variant-position:normal;font-variant-caps:normal;font-variant-numeric:normal;font-variant-alternates:normal;font-variant-east-asian:normal;font-feature-settings:normal;font-variation-settings:normal;text-indent:0;text-align:start;text-decoration:none;text-decoration-line:none;text-decoration-style:solid;text-decoration-color:#000000;letter-spacing:normal;word-spacing:normal;text-transform:none;writing-mode:lr-tb;direction:ltr;text-orientation:mixed;dominant-baseline:auto;baseline-shift:baseline;text-anchor:start;white-space:normal;shape-padding:0;shape-margin:0;inline-size:0;clip-rule:nonzero;display:inline;overflow:visible;visibility:visible;isolation:auto;mix-blend-mode:normal;color-interpolation:sRGB;color-interpolation-filters:linearRGB;solid-color:#000000;solid-opacity:1;vector-effect:none;fill:#7d8e9e;fill-opacity:1;fill-rule:nonzero;stroke:none;stroke-width:0.529167;stroke-linecap:round;stroke-linejoin:round;stroke-miterlimit:4;stroke-dasharray:none;stroke-dashoffset:0;stroke-opacity:1;color-rendering:auto;image-rendering:auto;shape-rendering:auto;text-rendering:auto;enable-background:accumulate;stop-color:#000000"
         d="m 4.2421875,269.3457 a 0.26460996,0.26460996 0 0 0 -0.1308594,0.0293 l -1.3886719,0.70898 c -0.4814318,0.24544 -0.4814318,0.96746 0,1.2129 l 0.4863282,0.24804 -0.1582032,0.11914 c -0.4115343,0.31469 -0.3718944,0.96813 0.074219,1.23047 h 0.00195 c 5.364e-4,3.2e-4 -5.375e-4,0.002 0,0.002 l 3.0898438,1.83399 c 0.050219,0.0298 0.1781448,0.0672 0.2871093,0.004 0.1089646,-0.0633 0.1252346,-0.14693 0.1347657,-0.19141 0.019062,-0.089 0.00934,-0.13047 0.00195,-0.1875 -0.01478,-0.11406 -0.047125,-0.25308 -0.091797,-0.42578 -0.089343,-0.34542 -0.2291192,-0.81068 -0.3769531,-1.2793 C 5.876201,271.71329 5.548822,270.75991 5.548822,270.75991 A 0.26460996,0.26460996 0 0 0 5.5,270.67383 L 4.4316406,269.4375 a 0.26460996,0.26460996 0 0 0 -0.1894531,-0.0918 z"
         id="path357" />
      <path
         style="color:#000000;font-style:normal;font-variant:normal;font-weight:normal;font-stretch:normal;font-size:medium;line-height:normal;font-family:sans-serif;font-variant-ligatures:normal;font-variant-position:normal;font-variant-caps:normal;font-variant-numeric:normal;font-variant-alternates:normal;font-variant-east-asian:normal;font-feature-settings:normal;font-variation-settings:normal;text-indent:0;text-align:start;text-decoration:none;text-decoration-line:none;text-decoration-style:solid;text-decoration-color:#000000;letter-spacing:normal;word-spacing:normal;text-transform:none;writing-mode:lr-tb;direction:ltr;text-orientation:mixed;dominant-baseline:auto;baseline-shift:baseline;text-anchor:start;white-space:normal;shape-padding:0;shape-margin:0;inline-size:0;clip-rule:nonzero;display:inline;overflow:visible;visibility:visible;isolation:auto;mix-blend-mode:normal;color-interpolation:sRGB;color-interpolation-filters:linearRGB;solid-color:#000000;solid-opacity:1;vector-effect:none;fill:#7d8e9e;fill-opacity:1;fill-rule:nonzero;stroke:none;stroke-width:0.529167;stroke-linecap:round;stroke-linejoin:round;stroke-miterlimit:4;stroke-dasharray:none;stroke-dashoffset:0;stroke-opacity:1;color-rendering:auto;image-rendering:auto;shape-rendering:auto;text-rendering:auto;enable-background:accumulate;stop-color:#000000"
         d="m 8.5292969,269.3457 a 0.26460996,0.26460996 0 0 0 -0.1953125,0.0918 l -1.0664063,1.23633 a 0.26460996,0.26460996 0 0 0 -0.050781,0.0859 c 0,0 -0.3254259,0.95338 -0.6210938,1.89062 -0.1478339,0.46862 -0.2895635,0.93388 -0.3789062,1.2793 -0.044671,0.1727 -0.077017,0.31172 -0.091797,0.42578 -0.00739,0.057 -0.017109,0.0985 0.00195,0.1875 0.00953,0.0445 0.027754,0.12811 0.1367188,0.19141 0.1089645,0.0633 0.2368903,0.0259 0.2871093,-0.004 l 3.0878907,-1.83399 0.00195,-0.002 c 0.4461131,-0.26234 0.4857531,-0.91578 0.074219,-1.23047 l -0.15625,-0.12109 0.4843751,-0.24609 c 0.481431,-0.24544 0.481432,-0.96746 0,-1.2129 L 8.6542969,269.375 a 0.26460996,0.26460996 0 0 0 -0.125,-0.0293 z"
         id="path371" />
      <path
         id="path1303"
         style="color:#000000;font-style:normal;font-variant:normal;font-weight:normal;font-stretch:normal;font-size:medium;line-height:normal;font-family:sans-serif;font-variant-ligatures:normal;font-variant-position:normal;font-variant-caps:normal;font-variant-numeric:normal;font-variant-alternates:normal;font-variant-east-asian:normal;font-feature-settings:normal;font-variation-settings:normal;text-indent:0;text-align:start;text-decoration:none;text-decoration-line:none;text-decoration-style:solid;text-decoration-color:#000000;letter-spacing:normal;word-spacing:normal;text-transform:none;writing-mode:lr-tb;direction:ltr;text-orientation:mixed;dominant-baseline:auto;baseline-shift:baseline;text-anchor:start;white-space:normal;shape-padding:0;shape-margin:0;inline-size:0;clip-rule:nonzero;display:inline;overflow:visible;visibility:visible;isolation:auto;mix-blend-mode:normal;color-interpolation:sRGB;color-interpolation-filters:linearRGB;solid-color:#000000;solid-opacity:1;vector-effect:none;fill:#6a7986;fill-opacity:1;fill-rule:nonzero;stroke:none;stroke-width:2;stroke-linecap:round;stroke-linejoin:round;stroke-miterlimit:4;stroke-dasharray:none;stroke-dashoffset:0;stroke-opacity:1;color-rendering:auto;image-rendering:auto;shape-rendering:auto;text-rendering:auto;enable-background:accumulate;stop-color:#000000"
         d="m 15.949219,-56.519531 a 1.0001006,1.0001006 0 0 0 -0.410157,0.109375 l -2.4375,1.24414 c 0.597583,1.671203 1.407943,3.333326 2.392579,4.845704 1.951345,2.997256 4.599885,5.48487 7.693359,5.863281 -1.076282,-3.386272 -2.214844,-6.71875 -2.214844,-6.71875 A 1.0001006,1.0001006 0 0 0 20.787109,-51.5 L 16.75,-56.173828 a 1.0001006,1.0001006 0 0 0 -0.716797,-0.345703 1.0001006,1.0001006 0 0 0 -0.08398,0 z"
         transform="matrix(0.26458333,0,0,0.26458333,0,284.3)" />
      <path
         style="color:#000000;font-style:normal;font-variant:normal;font-weight:normal;font-stretch:normal;font-size:medium;line-height:normal;font-family:sans-serif;font-variant-ligatures:normal;font-variant-position:normal;font-variant-caps:normal;font-variant-numeric:normal;font-variant-alternates:normal;font-variant-east-asian:normal;font-feature-settings:normal;font-variation-settings:normal;text-indent:0;text-align:start;text-decoration:none;text-decoration-line:none;text-decoration-style:solid;text-decoration-color:#000000;letter-spacing:normal;word-spacing:normal;text-transform:none;writing-mode:lr-tb;direction:ltr;text-orientation:mixed;dominant-baseline:auto;baseline-shift:baseline;text-anchor:start;white-space:normal;shape-padding:0;shape-margin:0;inline-size:0;clip-rule:nonzero;display:inline;overflow:visible;visibility:visible;isolation:auto;mix-blend-mode:normal;color-interpolation:sRGB;color-interpolation-filters:linearRGB;solid-color:#000000;solid-opacity:1;vector-effect:none;fill:#f8c09d;fill-opacity:1;fill-rule:nonzero;stroke:none;stroke-width:0.529167;stroke-linecap:round;stroke-linejoin:round;stroke-miterlimit:4;stroke-dasharray:none;stroke-dashoffset:0;stroke-opacity:1;color-rendering:auto;image-rendering:auto;shape-rendering:auto;text-rendering:auto;enable-background:accumulate;stop-color:#000000"
         d="m 3.4433594,266.89844 a 0.26460996,0.26460996 0 0 0 -0.265625,0.26367 c 1.4e-6,0.85953 0.3609032,1.90398 0.921875,2.76562 0.5609717,0.86165 1.3389646,1.56641 2.25,1.56641 0.9110353,0 1.6890282,-0.70476 2.25,-1.56641 0.5609717,-0.86164 0.9199204,-1.90609 0.9199218,-2.76562 a 0.26460996,0.26460996 0 0 0 -0.2636718,-0.26367 z"
         id="path299" />
      <path
         d="m 8.5465895,269.34587 a 0.26460995,0.26460995 0 0 1 0.1085207,0.0289 l 0.6449219,0.32918 c -0.1581105,0.44217 -0.3725183,0.88194 -0.6330366,1.28209 -0.5162933,0.79303 -1.2170528,1.45121 -2.0355345,1.55133 0.2847663,-0.89595 0.5860108,-1.77767 0.5860108,-1.77767 a 0.26460995,0.26460995 0 0 1 0.049093,-0.0858 l 1.0681518,-1.23662 a 0.26460995,0.26460995 0 0 1 0.1896525,-0.0915 0.26460995,0.26460995 0 0 1 0.022221,0 z"
         style="color:#000000;font-style:normal;font-variant:normal;font-weight:normal;font-stretch:normal;font-size:medium;line-height:normal;font-family:sans-serif;font-variant-ligatures:normal;font-variant-position:normal;font-variant-caps:normal;font-variant-numeric:normal;font-variant-alternates:normal;font-variant-east-asian:normal;font-feature-settings:normal;font-variation-settings:normal;text-indent:0;text-align:start;text-decoration:none;text-decoration-line:none;text-decoration-style:solid;text-decoration-color:#000000;letter-spacing:normal;word-spacing:normal;text-transform:none;writing-mode:lr-tb;direction:ltr;text-orientation:mixed;dominant-baseline:auto;baseline-shift:baseline;text-anchor:start;white-space:normal;shape-padding:0;shape-margin:0;inline-size:0;clip-rule:nonzero;display:inline;overflow:visible;visibility:visible;isolation:auto;mix-blend-mode:normal;color-interpolation:sRGB;color-interpolation-filters:linearRGB;solid-color:#000000;solid-opacity:1;vector-effect:none;fill:#6a7986;fill-opacity:1;fill-rule:nonzero;stroke:none;stroke-width:0.529167;stroke-linecap:round;stroke-linejoin:round;stroke-miterlimit:4;stroke-dasharray:none;stroke-dashoffset:0;stroke-opacity:1;color-rendering:auto;image-rendering:auto;shape-rendering:auto;text-rendering:auto;enable-background:accumulate;stop-color:#000000"
         id="path1308" />
      <path
         id="path436"
         style="color:#000000;font-style:normal;font-variant:normal;font-weight:normal;font-stretch:normal;font-size:medium;line-height:normal;font-family:sans-serif;font-variant-ligatures:normal;font-variant-position:normal;font-variant-caps:normal;font-variant-numeric:normal;font-variant-alternates:normal;font-variant-east-asian:normal;font-feature-settings:normal;font-variation-settings:normal;text-indent:0;text-align:start;text-decoration:none;text-decoration-line:none;text-decoration-style:solid;text-decoration-color:#000000;letter-spacing:normal;word-spacing:normal;text-transform:none;writing-mode:lr-tb;direction:ltr;text-orientation:mixed;dominant-baseline:auto;baseline-shift:baseline;text-anchor:start;white-space:normal;shape-padding:0;shape-margin:0;inline-size:0;clip-rule:nonzero;display:inline;overflow:visible;visibility:visible;isolation:auto;mix-blend-mode:normal;color-interpolation:sRGB;color-interpolation-filters:linearRGB;solid-color:#000000;solid-opacity:1;vector-effect:none;fill:#f5a794;fill-opacity:1;fill-rule:nonzero;stroke:none;stroke-width:2.68661;stroke-linecap:round;stroke-linejoin:round;stroke-miterlimit:4;stroke-dasharray:none;stroke-dashoffset:0;stroke-opacity:1;color-rendering:auto;image-rendering:auto;shape-rendering:auto;text-rendering:auto;enable-background:accumulate;stop-color:#000000"
         d="m 13.013672,-65.769531 c -0.552263,-0.0021 -1.001697,0.44383 -1.003906,0.996093 10e-7,0.904603 0.116045,1.866631 0.314453,2.84961 0.345636,0.09543 0.707619,0.187012 1.08789,0.273437 0.781054,0.177584 1.638897,0.331355 2.556319,0.462148 1.765018,0.25163 2.646536,1.733302 2.622287,3.507993 -5.8e-4,0.04243 -8.71e-4,0.08494 -8.71e-4,0.127516 0,4.202361 2.704711,7.795089 6.445312,9.064453 2.996891,-0.468703 5.562898,-2.907651 7.466797,-5.832031 2.120208,-3.256593 3.476557,-7.204508 3.476563,-10.453126 -0.0022,-0.549215 -0.446879,-0.993897 -0.996094,-0.996093 z"
         transform="matrix(0.26458333,0,0,0.26458333,0,284.3)" />
      <path
         style="color:#000000;font-style:normal;font-variant:normal;font-weight:normal;font-stretch:normal;font-size:medium;line-height:normal;font-family:sans-serif;font-variant-ligatures:normal;font-variant-position:normal;font-variant-caps:normal;font-variant-numeric:normal;font-variant-alternates:normal;font-variant-east-asian:normal;font-feature-settings:normal;font-variation-settings:normal;text-indent:0;text-align:start;text-decoration:none;text-decoration-line:none;text-decoration-style:solid;text-decoration-color:#000000;letter-spacing:normal;word-spacing:normal;text-transform:none;writing-mode:lr-tb;direction:ltr;text-orientation:mixed;dominant-baseline:auto;baseline-shift:baseline;text-anchor:start;white-space:normal;shape-padding:0;shape-margin:0;inline-size:0;clip-rule:nonzero;display:inline;overflow:visible;visibility:visible;isolation:auto;mix-blend-mode:normal;color-interpolation:sRGB;color-interpolation-filters:linearRGB;solid-color:#000000;solid-opacity:1;vector-effect:none;fill:#7d8e9e;fill-opacity:1;fill-rule:nonzero;stroke:none;stroke-width:0.529167;stroke-linecap:round;stroke-linejoin:round;stroke-miterlimit:4;stroke-dasharray:none;stroke-dashoffset:0;stroke-opacity:1;color-rendering:auto;image-rendering:auto;shape-rendering:auto;text-rendering:auto;enable-background:accumulate;stop-color:#000000"
         d="m 4.2324219,265.57031 c -0.5582809,0 -1.0488989,0.0895 -1.4199219,0.23438 -0.1855115,0.0724 -0.3420446,0.15617 -0.4667969,0.26562 -0.1247522,0.10945 -0.2304673,0.259 -0.2304687,0.44727 1.1e-6,0.14451 0.066678,0.27445 0.1523437,0.37109 0.085666,0.0967 0.1923479,0.17267 0.3164063,0.24024 0.2481166,0.13512 0.5720112,0.24079 0.9648437,0.33007 0.7400445,0.16826 1.7211399,0.26758 2.8007813,0.26758 1.112948,0 2.1195054,-0.10532 2.8671875,-0.2832 0.373841,-0.0889 0.681241,-0.19497 0.9179691,-0.32813 0.236727,-0.13315 0.447263,-0.31703 0.447265,-0.59765 -1e-6,-0.18803 -0.105497,-0.33737 -0.230469,-0.44727 -0.124971,-0.10989 -0.281191,-0.19537 -0.4667964,-0.26758 -0.3712108,-0.14441 -0.8619685,-0.23242 -1.4199218,-0.23242 a 0.26460996,0.26460996 0 0 0 -0.140625,0.041 c -1.9818348,1.26293 -3.9492188,0 -3.9492188,0 a 0.26460996,0.26460996 0 0 0 -0.1425781,-0.041 z"
         id="path284" />
      <path
         style="color:#000000;font-style:normal;font-variant:normal;font-weight:normal;font-stretch:normal;font-size:medium;line-height:normal;font-family:sans-serif;font-variant-ligatures:normal;font-variant-position:normal;font-variant-caps:normal;font-variant-numeric:normal;font-variant-alternates:normal;font-variant-east-asian:normal;font-feature-settings:normal;font-variation-settings:normal;text-indent:0;text-align:start;text-decoration:none;text-decoration-line:none;text-decoration-style:solid;text-decoration-color:#000000;letter-spacing:normal;word-spacing:normal;text-transform:none;writing-mode:lr-tb;direction:ltr;text-orientation:mixed;dominant-baseline:auto;baseline-shift:baseline;text-anchor:start;white-space:normal;shape-padding:0;shape-margin:0;inline-size:0;clip-rule:nonzero;display:inline;overflow:visible;visibility:visible;isolation:auto;mix-blend-mode:normal;color-interpolation:sRGB;color-interpolation-filters:linearRGB;solid-color:#000000;solid-opacity:1;vector-effect:none;fill:#d0e2ee;fill-opacity:1;fill-rule:nonzero;stroke:none;stroke-width:0.529167;stroke-linecap:round;stroke-linejoin:round;stroke-miterlimit:4;stroke-dasharray:none;stroke-dashoffset:0;stroke-opacity:1;color-rendering:auto;image-rendering:auto;shape-rendering:auto;text-rendering:auto;enable-background:accumulate;stop-color:#000000"
         d="m 8.5351562,269.96094 a 0.26460996,0.26460996 0 0 0 -0.1484374,0.0351 l -0.6933594,0.41016 a 0.26460996,0.26460996 0 0 0 -0.09375,0.36328 l 0.7636718,1.27344 a 0.26460996,0.26460996 0 0 0 0.3613282,0.0898 l 0.6914062,-0.41211 a 0.26460996,0.26460996 0 0 0 0.091797,-0.36328 L 8.748047,270.08975 a 0.26460996,0.26460996 0 0 0 -0.2128907,-0.1289 z"
         id="path341" />
      <path
         style="color:#000000;font-style:normal;font-variant:normal;font-weight:normal;font-stretch:normal;font-size:medium;line-height:normal;font-family:sans-serif;font-variant-ligatures:normal;font-variant-position:normal;font-variant-caps:normal;font-variant-numeric:normal;font-variant-alternates:normal;font-variant-east-asian:normal;font-feature-settings:normal;font-variation-settings:normal;text-indent:0;text-align:start;text-decoration:none;text-decoration-line:none;text-decoration-style:solid;text-decoration-color:#000000;letter-spacing:normal;word-spacing:normal;text-transform:none;writing-mode:lr-tb;direction:ltr;text-orientation:mixed;dominant-baseline:auto;baseline-shift:baseline;text-anchor:start;white-space:normal;shape-padding:0;shape-margin:0;inline-size:0;clip-rule:nonzero;display:inline;overflow:visible;visibility:visible;isolation:auto;mix-blend-mode:normal;color-interpolation:sRGB;color-interpolation-filters:linearRGB;solid-color:#000000;solid-opacity:1;vector-effect:none;fill:#f5f6e8;fill-opacity:1;fill-rule:nonzero;stroke:none;stroke-width:0.529167;stroke-linecap:round;stroke-linejoin:round;stroke-miterlimit:4;stroke-dasharray:none;stroke-dashoffset:0;stroke-opacity:1;color-rendering:auto;image-rendering:auto;shape-rendering:auto;text-rendering:auto;enable-background:accumulate;stop-color:#000000"
         d="m 7.4082031,267.1875 c -1.0225484,0 -1.8535156,0.85058 -1.8535156,1.88477 0,1.03419 0.8309672,1.88281 1.8535156,1.88281 0.2865566,0 0.5580431,-0.0667 0.8007813,-0.18555 0.3822145,-0.18703 0.689677,-0.50231 0.8710937,-0.89062 0.1144251,-0.24494 0.1796875,-0.51874 0.1796875,-0.80664 0,-1.03419 -0.8290138,-1.88477 -1.8515625,-1.88477 z"
         id="path326" />
      <path
         style="color:#000000;font-style:normal;font-variant:normal;font-weight:normal;font-stretch:normal;font-size:medium;line-height:normal;font-family:sans-serif;font-variant-ligatures:normal;font-variant-position:normal;font-variant-caps:normal;font-variant-numeric:normal;font-variant-alternates:normal;font-variant-east-asian:normal;font-feature-settings:normal;font-variation-settings:normal;text-indent:0;text-align:start;text-decoration:none;text-decoration-line:none;text-decoration-style:solid;text-decoration-color:#000000;letter-spacing:normal;word-spacing:normal;text-transform:none;writing-mode:lr-tb;direction:ltr;text-orientation:mixed;dominant-baseline:auto;baseline-shift:baseline;text-anchor:start;white-space:normal;shape-padding:0;shape-margin:0;inline-size:0;clip-rule:nonzero;display:inline;overflow:visible;visibility:visible;isolation:auto;mix-blend-mode:normal;color-interpolation:sRGB;color-interpolation-filters:linearRGB;solid-color:#000000;solid-opacity:1;vector-effect:none;fill:#ef937e;fill-opacity:1;fill-rule:nonzero;stroke:none;stroke-width:0.529167;stroke-linecap:round;stroke-linejoin:round;stroke-miterlimit:4;stroke-dasharray:none;stroke-dashoffset:0;stroke-opacity:1;color-rendering:auto;image-rendering:auto;shape-rendering:auto;text-rendering:auto;enable-background:accumulate;stop-color:#000000"
         d="m 9.3730469,271.13672 -1.2734375,0.75 c -0.174767,0.10286 -0.2130223,0.24615 -0.2363282,0.39648 -0.023306,0.15034 -0.00707,0.32599 0.085938,0.49024 l 0.023437,0.041 c 0.1859923,0.32854 0.6137112,0.44566 0.9394532,0.25391 l 1.1738286,-0.69141 c 0.325753,-0.19175 0.436011,-0.61486 0.25,-0.94336 l -0.02344,-0.041 c -0.186006,-0.32851 -0.6137144,-0.44761 -0.9394531,-0.25586 z"
         id="path397" />
      <path
         style="color:#000000;font-style:normal;font-variant:normal;font-weight:normal;font-stretch:normal;font-size:medium;line-height:normal;font-family:sans-serif;font-variant-ligatures:normal;font-variant-position:normal;font-variant-caps:normal;font-variant-numeric:normal;font-variant-alternates:normal;font-variant-east-asian:normal;font-feature-settings:normal;font-variation-settings:normal;text-indent:0;text-align:start;text-decoration:none;text-decoration-line:none;text-decoration-style:solid;text-decoration-color:#000000;letter-spacing:normal;word-spacing:normal;text-transform:none;writing-mode:lr-tb;direction:ltr;text-orientation:mixed;dominant-baseline:auto;baseline-shift:baseline;text-anchor:start;white-space:normal;shape-padding:0;shape-margin:0;inline-size:0;clip-rule:nonzero;display:inline;overflow:visible;visibility:visible;isolation:auto;mix-blend-mode:normal;color-interpolation:sRGB;color-interpolation-filters:linearRGB;solid-color:#000000;solid-opacity:1;vector-effect:none;fill:#f8c09d;fill-opacity:1;fill-rule:nonzero;stroke:none;stroke-width:0.529167;stroke-linecap:round;stroke-linejoin:round;stroke-miterlimit:4;stroke-dasharray:none;stroke-dashoffset:0;stroke-opacity:1;color-rendering:auto;image-rendering:auto;shape-rendering:auto;text-rendering:auto;enable-background:accumulate;stop-color:#000000"
         d="m 9.8535156,271.9043 -1.2753906,0.75 c -0.1747672,0.10286 -0.2130226,0.24614 -0.2363281,0.39648 -0.023306,0.15034 -0.00707,0.32403 0.085937,0.48828 l 0.023437,0.041 c 0.1859922,0.32854 0.6137111,0.44761 0.9394531,0.25586 l 1.175781,-0.69141 c 0.325754,-0.19175 0.436011,-0.61681 0.25,-0.94531 l -0.02344,-0.041 c -0.186007,-0.32851 -0.613714,-0.44565 -0.9394534,-0.2539 z"
         id="path391" />
      <path
         id="path276"
         d="m 5.5703125,262.4375 c -0.4110032,-0.0838 -0.8200322,0.17659 -0.9199219,0.58398 l -0.6757812,2.75 a 0.26460996,0.26460996 0 0 0 0.1328125,0.29688 c 1.5692256,0.83658 3.1080051,0.82961 4.4941406,-0.008 a 0.26460996,0.26460996 0 0 0 0.1210937,-0.28907 l -0.6738281,-2.75 c -0.09989,-0.40739 -0.5108718,-0.6678 -0.921875,-0.58398 l -0.7773437,0.1582 z"
         style="color:#000000;font-style:normal;font-variant:normal;font-weight:normal;font-stretch:normal;font-size:medium;line-height:normal;font-family:sans-serif;font-variant-ligatures:normal;font-variant-position:normal;font-variant-caps:normal;font-variant-numeric:normal;font-variant-alternates:normal;font-variant-east-asian:normal;font-feature-settings:normal;font-variation-settings:normal;text-indent:0;text-align:start;text-decoration:none;text-decoration-line:none;text-decoration-style:solid;text-decoration-color:#000000;letter-spacing:normal;word-spacing:normal;text-transform:none;writing-mode:lr-tb;direction:ltr;text-orientation:mixed;dominant-baseline:auto;baseline-shift:baseline;text-anchor:start;white-space:normal;shape-padding:0;shape-margin:0;inline-size:0;clip-rule:nonzero;display:inline;overflow:visible;visibility:visible;opacity:1;isolation:auto;mix-blend-mode:normal;color-interpolation:sRGB;color-interpolation-filters:linearRGB;solid-color:#000000;solid-opacity:1;vector-effect:none;fill:#7d8e9e;fill-opacity:1;fill-rule:nonzero;stroke:none;stroke-width:0.529167;stroke-linecap:round;stroke-linejoin:round;stroke-miterlimit:4;stroke-dasharray:none;stroke-dashoffset:0;stroke-opacity:1;color-rendering:auto;image-rendering:auto;shape-rendering:auto;text-rendering:auto;enable-background:accumulate;stop-color:#000000;stop-opacity:1" />
      <path
         id="path277"
         style="color:#000000;font-style:normal;font-variant:normal;font-weight:normal;font-stretch:normal;font-size:medium;line-height:normal;font-family:sans-serif;font-variant-ligatures:normal;font-variant-position:normal;font-variant-caps:normal;font-variant-numeric:normal;font-variant-alternates:normal;font-variant-east-asian:normal;font-feature-settings:normal;font-variation-settings:normal;text-indent:0;text-align:start;text-decoration:none;text-decoration-line:none;text-decoration-style:solid;text-decoration-color:#000000;letter-spacing:normal;word-spacing:normal;text-transform:none;writing-mode:lr-tb;direction:ltr;text-orientation:mixed;dominant-baseline:auto;baseline-shift:baseline;text-anchor:start;white-space:normal;shape-padding:0;shape-margin:0;inline-size:0;clip-rule:nonzero;display:inline;overflow:visible;visibility:visible;opacity:1;isolation:auto;mix-blend-mode:normal;color-interpolation:sRGB;color-interpolation-filters:linearRGB;solid-color:#000000;solid-opacity:1;vector-effect:none;fill:#677582;fill-opacity:1;fill-rule:nonzero;stroke:none;stroke-width:2;stroke-linecap:round;stroke-linejoin:round;stroke-miterlimit:4;stroke-dasharray:none;stroke-dashoffset:0;stroke-opacity:1;color-rendering:auto;image-rendering:auto;shape-rendering:auto;text-rendering:auto;enable-background:accumulate;stop-color:#000000;stop-opacity:1"
         d="m 16.132812,-74.550781 -0.517578,2.105469 c 0.0012,8.52e-4 0.0027,0.0011 0.0039,0.002 2.409303,1.592201 5.458608,2.050137 7.90039,2.111328 2.441783,0.06123 5.696198,-0.463629 8.738281,-2.035157 0.0172,-0.0076 0.03413,-0.01796 0.05078,-0.0293 l 0.06836,-0.04102 -0.498047,-2.03125 -0.566406,0.335938 c -2.862282,1.474507 -5.772604,1.850141 -7.742188,1.800781 -1.977761,-0.04951 -4.612428,-0.306819 -6.84375,-1.78125 z"
         transform="matrix(0.26458333,0,0,0.26458333,0,284.3)" />
      <path
         id="path449"
         style="color:#000000;font-style:normal;font-variant:normal;font-weight:normal;font-stretch:normal;font-size:medium;line-height:normal;font-family:sans-serif;font-variant-ligatures:normal;font-variant-position:normal;font-variant-caps:normal;font-variant-numeric:normal;font-variant-alternates:normal;font-variant-east-asian:normal;font-feature-settings:normal;font-variation-settings:normal;text-indent:0;text-align:start;text-decoration:none;text-decoration-line:none;text-decoration-style:solid;text-decoration-color:#000000;letter-spacing:normal;word-spacing:normal;text-transform:none;writing-mode:lr-tb;direction:ltr;text-orientation:mixed;dominant-baseline:auto;baseline-shift:baseline;text-anchor:start;white-space:normal;shape-padding:0;shape-margin:0;inline-size:0;clip-rule:nonzero;display:inline;overflow:visible;visibility:visible;isolation:auto;mix-blend-mode:normal;color-interpolation:sRGB;color-interpolation-filters:linearRGB;solid-color:#000000;solid-opacity:1;vector-effect:none;fill:#dfe0cb;fill-opacity:1;fill-rule:nonzero;stroke:none;stroke-width:0.529167;stroke-linecap:round;stroke-linejoin:round;stroke-miterlimit:4;stroke-dasharray:none;stroke-dashoffset:0;stroke-opacity:1;color-rendering:auto;image-rendering:auto;shape-rendering:auto;text-rendering:auto;enable-background:accumulate;stop-color:#000000"
         d="m 7.4083332,267.18735 c -0.6399993,0 -1.205271,0.33325 -1.5384074,0.83612 0.2905821,-0.19318 0.6370775,-0.30695 1.0092407,-0.30695 1.0225479,0 1.8515666,0.85096 1.8515666,1.88515 0,0.2879 -0.065409,0.56121 -0.1798341,0.80615 -0.039599,0.0848 -0.085866,0.16566 -0.1369425,0.24288 0.2867242,-0.18949 0.5185539,-0.45621 0.6661091,-0.77204 0.1144252,-0.24494 0.1798342,-0.51825 0.1798342,-0.80615 0,-1.03419 -0.8290187,-1.88516 -1.8515666,-1.88516 z" />
      <path
         id="path1283"
         style="color:#000000;font-style:normal;font-variant:normal;font-weight:normal;font-stretch:normal;font-size:medium;line-height:normal;font-family:sans-serif;font-variant-ligatures:normal;font-variant-position:normal;font-variant-caps:normal;font-variant-numeric:normal;font-variant-alternates:normal;font-variant-east-asian:normal;font-feature-settings:normal;font-variation-settings:normal;text-indent:0;text-align:start;text-decoration:none;text-decoration-line:none;text-decoration-style:solid;text-decoration-color:#000000;letter-spacing:normal;word-spacing:normal;text-transform:none;writing-mode:lr-tb;direction:ltr;text-orientation:mixed;dominant-baseline:auto;baseline-shift:baseline;text-anchor:start;white-space:normal;shape-padding:0;shape-margin:0;inline-size:0;clip-rule:nonzero;display:inline;overflow:visible;visibility:visible;isolation:auto;mix-blend-mode:normal;color-interpolation:sRGB;color-interpolation-filters:linearRGB;solid-color:#000000;solid-opacity:1;vector-effect:none;fill:#6a7986;fill-opacity:1;fill-rule:nonzero;stroke:none;stroke-width:2;stroke-linecap:round;stroke-linejoin:round;stroke-miterlimit:4;stroke-dasharray:none;stroke-dashoffset:0;stroke-opacity:1;color-rendering:auto;image-rendering:auto;shape-rendering:auto;text-rendering:auto;enable-background:accumulate;stop-color:#000000"
         d="m 15.996094,-72.789062 c -0.102944,0 -0.197125,0.01012 -0.298828,0.01172 l -0.675782,2.748047 a 1.0001006,1.0001006 0 0 0 0.501954,1.123047 c 5.930931,3.161877 11.74739,3.13452 16.986328,-0.03125 a 1.0001006,1.0001006 0 0 0 0.457031,-1.091797 l -0.673828,-2.748047 c -0.102307,-0.0016 -0.197227,-0.01172 -0.300781,-0.01172 a 1.0001006,1.0001006 0 0 0 -0.53125,0.154296 c -7.4904,4.773279 -14.925782,0 -14.925782,0 a 1.0001006,1.0001006 0 0 0 -0.539062,-0.154296 z"
         transform="matrix(0.26458333,0,0,0.26458333,0,284.3)" />
    </g>
  </g>
</svg>
