<?xml version="1.0" encoding="UTF-8" standalone="no"?>
<svg
   xmlns:dc="http://purl.org/dc/elements/1.1/"
   xmlns:cc="http://creativecommons.org/ns#"
   xmlns:rdf="http://www.w3.org/1999/02/22-rdf-syntax-ns#"
   xmlns:svg="http://www.w3.org/2000/svg"
   xmlns="http://www.w3.org/2000/svg"
   xmlns:sodipodi="http://sodipodi.sourceforge.net/DTD/sodipodi-0.dtd"
   xmlns:inkscape="http://www.inkscape.org/namespaces/inkscape"
   inkscape:export-ydpi="768"
   inkscape:export-xdpi="768"
   inkscape:export-filename="C:\Users\RainBoyz\Desktop\EXPORT FLAT\4 Bullets.png"
   width="48pt"
   height="48pt"
   viewBox="0 0 16.933334 16.933333"
   version="1.1"
   id="svg979"
   inkscape:version="1.0 (4035a4fb49, 2020-05-01)"
   sodipodi:docname="5. Cctv.svg">
  <defs
     id="defs973" />
  <sodipodi:namedview
     id="base"
     pagecolor="#ffffff"
     bordercolor="#666666"
     borderopacity="1.0"
     inkscape:pageopacity="0.0"
     inkscape:pageshadow="2"
     inkscape:zoom="6.0435533"
     inkscape:cx="11.280141"
     inkscape:cy="26.741684"
     inkscape:document-units="pt"
     inkscape:current-layer="layer1"
     showgrid="false"
     units="pt"
     inkscape:window-width="1366"
     inkscape:window-height="715"
     inkscape:window-x="-8"
     inkscape:window-y="-8"
     inkscape:window-maximized="1"
     inkscape:document-rotation="0"
     inkscape:snap-bbox="true"
     inkscape:bbox-nodes="true"
     inkscape:snap-nodes="false">
    <inkscape:grid
       type="xygrid"
       id="grid1526" />
    <sodipodi:guide
       position="0.97013909,15.963209"
       orientation="56.666615,0"
       id="guide1528"
       inkscape:locked="false" />
    <sodipodi:guide
       position="0.97013909,0.97016731"
       orientation="0,56.666667"
       id="guide1530"
       inkscape:locked="false" />
    <sodipodi:guide
       position="15.963195,0.97016731"
       orientation="-56.666615,0"
       id="guide1532"
       inkscape:locked="false" />
    <sodipodi:guide
       position="15.963195,15.963209"
       orientation="0,-56.666667"
       id="guide1534"
       inkscape:locked="false" />
  </sodipodi:namedview>
  <metadata
     id="metadata976">
    <rdf:RDF>
      <cc:Work
         rdf:about="">
        <dc:format>image/svg+xml</dc:format>
        <dc:type
           rdf:resource="http://purl.org/dc/dcmitype/StillImage" />
        <dc:title></dc:title>
      </cc:Work>
    </rdf:RDF>
  </metadata>
  <g
     inkscape:label="Layer 1"
     inkscape:groupmode="layer"
     id="layer1"
     transform="translate(0,-280.06668)">
    <g
       transform="matrix(1.2319885,0,0,1.2319885,-53.599484,-42.423623)"
       id="g1123">
      <path
         id="path416"
         d="m 53.386719,266.80078 a 0.26460996,0.26460996 0 0 0 -0.238281,0.19531 l -0.515626,1.92969 a 0.26460996,0.26460996 0 0 0 0.185547,0.32422 c 0.670723,0.17972 1.367154,-0.22382 1.546875,-0.89453 0.179719,-0.67072 -0.221857,-1.36716 -0.892578,-1.54688 a 0.26460996,0.26460996 0 0 0 -0.08594,-0.008 z"
         style="color:#000000;font-style:normal;font-variant:normal;font-weight:normal;font-stretch:normal;font-size:medium;line-height:normal;font-family:sans-serif;font-variant-ligatures:normal;font-variant-position:normal;font-variant-caps:normal;font-variant-numeric:normal;font-variant-alternates:normal;font-variant-east-asian:normal;font-feature-settings:normal;font-variation-settings:normal;text-indent:0;text-align:start;text-decoration:none;text-decoration-line:none;text-decoration-style:solid;text-decoration-color:#000000;letter-spacing:normal;word-spacing:normal;text-transform:none;writing-mode:lr-tb;direction:ltr;text-orientation:mixed;dominant-baseline:auto;baseline-shift:baseline;text-anchor:start;white-space:normal;shape-padding:0;shape-margin:0;inline-size:0;clip-rule:nonzero;display:inline;overflow:visible;visibility:visible;opacity:1;isolation:auto;mix-blend-mode:normal;color-interpolation:sRGB;color-interpolation-filters:linearRGB;solid-color:#000000;solid-opacity:1;vector-effect:none;fill:#d0e2ee;fill-opacity:1;fill-rule:nonzero;stroke:none;stroke-width:0.529167;stroke-linecap:round;stroke-linejoin:round;stroke-miterlimit:4;stroke-dasharray:none;stroke-dashoffset:0;stroke-opacity:1;color-rendering:auto;image-rendering:auto;shape-rendering:auto;text-rendering:auto;enable-background:accumulate;stop-color:#000000;stop-opacity:1" />
      <path
         sodipodi:nodetypes="cccccccccccccccccc"
         id="path388"
         d="m 47.365234,262.82422 c -0.0406,0.003 -0.08004,0.0147 -0.115234,0.0352 l -2.095703,1.21093 c -0.06058,0.035 -0.10482,0.0926 -0.123047,0.16016 l -0.443359,1.65234 c -0.03789,0.14133 0.04611,0.28657 0.1875,0.32422 l 0.833248,0.22457 0.268314,0.0723 c 0.01917,0.005 0.03882,0.008 0.05859,0.008 l 1.085071,-0.48337 c 2.025297,-0.0437 4.114456,0.0483 6.489148,0.74701 l 1.351562,0.36328 c 0.09656,0.0256 0.199301,-0.005 0.265625,-0.0801 l 1.269531,-1.43164 c 0.131059,-0.14702 0.06131,-0.38057 -0.128906,-0.43164 l -8.816406,-2.36133 c -0.0279,-0.008 -0.05694,-0.0114 -0.08594,-0.01 z"
         style="color:#000000;font-style:normal;font-variant:normal;font-weight:normal;font-stretch:normal;font-size:medium;line-height:normal;font-family:sans-serif;font-variant-ligatures:normal;font-variant-position:normal;font-variant-caps:normal;font-variant-numeric:normal;font-variant-alternates:normal;font-variant-east-asian:normal;font-feature-settings:normal;font-variation-settings:normal;text-indent:0;text-align:start;text-decoration:none;text-decoration-line:none;text-decoration-style:solid;text-decoration-color:#000000;letter-spacing:normal;word-spacing:normal;text-transform:none;writing-mode:lr-tb;direction:ltr;text-orientation:mixed;dominant-baseline:auto;baseline-shift:baseline;text-anchor:start;white-space:normal;shape-padding:0;shape-margin:0;inline-size:0;clip-rule:nonzero;display:inline;overflow:visible;visibility:visible;opacity:1;isolation:auto;mix-blend-mode:normal;color-interpolation:sRGB;color-interpolation-filters:linearRGB;solid-color:#000000;solid-opacity:1;vector-effect:none;fill:#5a6571;fill-opacity:1;fill-rule:nonzero;stroke:none;stroke-width:0.529167;stroke-linecap:round;stroke-linejoin:round;stroke-miterlimit:4;stroke-dasharray:none;stroke-dashoffset:0;stroke-opacity:1;color-rendering:auto;image-rendering:auto;shape-rendering:auto;text-rendering:auto;enable-background:accumulate;stop-color:#000000;stop-opacity:1" />
      <path
         id="path376"
         d="m 47.075795,267.47282 a 0.26460988,0.26460988 0 0 0 -0.244261,0.26531 v 2.08675 l -1.063375,1.06336 a 0.26460988,0.26460988 0 0 0 -0.0758,0.20426 l 0.09686,1.61086 a 0.26460988,0.26460988 0 0 0 0.452724,0.17267 l 1.356066,-1.35608 0.827537,-0.82754 a 0.26460988,0.26460988 0 0 0 0.07791,-0.18739 v -2.46157 a 0.26460988,0.26460988 0 0 0 -0.195829,-0.25689 l -1.141286,-0.30532 a 0.26460988,0.26460988 0 0 0 -0.09054,-0.009 z"
         style="color:#000000;font-style:normal;font-variant:normal;font-weight:normal;font-stretch:normal;font-size:medium;line-height:normal;font-family:sans-serif;font-variant-ligatures:normal;font-variant-position:normal;font-variant-caps:normal;font-variant-numeric:normal;font-variant-alternates:normal;font-variant-east-asian:normal;font-feature-settings:normal;font-variation-settings:normal;text-indent:0;text-align:start;text-decoration:none;text-decoration-line:none;text-decoration-style:solid;text-decoration-color:#000000;letter-spacing:normal;word-spacing:normal;text-transform:none;writing-mode:lr-tb;direction:ltr;text-orientation:mixed;dominant-baseline:auto;baseline-shift:baseline;text-anchor:start;white-space:normal;shape-padding:0;shape-margin:0;inline-size:0;clip-rule:nonzero;display:inline;overflow:visible;visibility:visible;isolation:auto;mix-blend-mode:normal;color-interpolation:sRGB;color-interpolation-filters:linearRGB;solid-color:#000000;solid-opacity:1;vector-effect:none;fill:#5a6571;fill-opacity:1;fill-rule:nonzero;stroke:none;stroke-width:0.529167;stroke-linecap:round;stroke-linejoin:round;stroke-miterlimit:4;stroke-dasharray:none;stroke-dashoffset:0;stroke-opacity:1;color-rendering:auto;image-rendering:auto;shape-rendering:auto;text-rendering:auto;enable-background:accumulate;stop-color:#000000" />
      <path
         d="m 53.406558,266.79978 a 0.26460995,0.26460995 0 0 0 -0.01964,10e-4 0.26460995,0.26460995 0 0 0 -0.194303,0.1049 c 0.51643,0.26594 0.799468,0.86696 0.643372,1.44953 -0.126489,0.47205 -0.510347,0.80665 -0.959631,0.90382 0.652444,0.14224 1.314241,-0.25239 1.488798,-0.90382 0.179718,-0.67072 -0.221732,-1.36696 -0.892453,-1.54668 a 0.26460995,0.26460995 0 0 0 -0.06615,-0.009 z"
         style="color:#000000;font-style:normal;font-variant:normal;font-weight:normal;font-stretch:normal;font-size:medium;line-height:normal;font-family:sans-serif;font-variant-ligatures:normal;font-variant-position:normal;font-variant-caps:normal;font-variant-numeric:normal;font-variant-alternates:normal;font-variant-east-asian:normal;font-feature-settings:normal;font-variation-settings:normal;text-indent:0;text-align:start;text-decoration:none;text-decoration-line:none;text-decoration-style:solid;text-decoration-color:#000000;letter-spacing:normal;word-spacing:normal;text-transform:none;writing-mode:lr-tb;direction:ltr;text-orientation:mixed;dominant-baseline:auto;baseline-shift:baseline;text-anchor:start;white-space:normal;shape-padding:0;shape-margin:0;inline-size:0;clip-rule:nonzero;display:inline;overflow:visible;visibility:visible;opacity:1;isolation:auto;mix-blend-mode:normal;color-interpolation:sRGB;color-interpolation-filters:linearRGB;solid-color:#000000;solid-opacity:1;vector-effect:none;fill:#aabfd0;fill-opacity:1;fill-rule:nonzero;stroke:none;stroke-width:0.529167;stroke-linecap:round;stroke-linejoin:round;stroke-miterlimit:4;stroke-dasharray:none;stroke-dashoffset:0;stroke-opacity:1;color-rendering:auto;image-rendering:auto;shape-rendering:auto;text-rendering:auto;enable-background:accumulate;stop-color:#000000;stop-opacity:1"
         id="path451" />
      <path
         transform="matrix(0.26458333,0,0,0.26458333,0,284.3)"
         d="m 178.01758,-63.603516 a 1.0001003,1.0001003 0 0 0 -0.0937,0.002 v 0.002 a 1.0001003,1.0001003 0 0 0 -0.92188,1.003906 v 5.97061 c 1.15782,0.327926 2.23748,0.760908 3.05469,1.578125 0.51771,0.517706 0.71252,2.884954 1.12109,5.464844 l 1.84766,-1.847657 a 1.0001003,1.0001003 0 0 0 0.29492,-0.708984 v -9.302734 a 1.0001003,1.0001003 0 0 0 -0.74023,-0.970703 l -4.31446,-1.154297 a 1.0001003,1.0001003 0 0 0 -0.24804,-0.03711 z"
         style="fill:#3a4d5c;fill-opacity:1;stroke:none;stroke-width:0.999999px;stroke-linecap:butt;stroke-linejoin:miter;stroke-opacity:1"
         id="path272" />
      <path
         id="path396"
         d="m 49.126953,265.06836 a 0.26460996,0.26460996 0 0 0 -0.238281,0.19531 l -0.154297,0.57227 -2.5,-0.66992 a 0.26460996,0.26460996 0 0 0 -0.322266,0.18554 l -0.517578,1.92969 a 0.26460996,0.26460996 0 0 0 0.1875,0.32422 l 7.164063,1.91992 a 0.26460996,0.26460996 0 0 0 0.324218,-0.1875 l 0.738282,-2.75586 a 0.26460996,0.26460996 0 0 0 -0.1875,-0.32422 l -4.408203,-1.18164 a 0.26460996,0.26460996 0 0 0 -0.08594,-0.008 z"
         style="color:#000000;font-style:normal;font-variant:normal;font-weight:normal;font-stretch:normal;font-size:medium;line-height:normal;font-family:sans-serif;font-variant-ligatures:normal;font-variant-position:normal;font-variant-caps:normal;font-variant-numeric:normal;font-variant-alternates:normal;font-variant-east-asian:normal;font-feature-settings:normal;font-variation-settings:normal;text-indent:0;text-align:start;text-decoration:none;text-decoration-line:none;text-decoration-style:solid;text-decoration-color:#000000;letter-spacing:normal;word-spacing:normal;text-transform:none;writing-mode:lr-tb;direction:ltr;text-orientation:mixed;dominant-baseline:auto;baseline-shift:baseline;text-anchor:start;white-space:normal;shape-padding:0;shape-margin:0;inline-size:0;clip-rule:nonzero;display:inline;overflow:visible;visibility:visible;opacity:1;isolation:auto;mix-blend-mode:normal;color-interpolation:sRGB;color-interpolation-filters:linearRGB;solid-color:#000000;solid-opacity:1;vector-effect:none;fill:#aabfd0;fill-opacity:1;fill-rule:nonzero;stroke:none;stroke-width:0.529167;stroke-linecap:round;stroke-linejoin:round;stroke-miterlimit:4;stroke-dasharray:none;stroke-dashoffset:0;stroke-opacity:1;color-rendering:auto;image-rendering:auto;shape-rendering:auto;text-rendering:auto;enable-background:accumulate;stop-color:#000000;stop-opacity:1" />
      <path
         id="path1113"
         style="fill:#7d8e9e;fill-opacity:1;stroke:none;stroke-width:0.999999px;stroke-linecap:butt;stroke-linejoin:miter;stroke-opacity:1"
         d="m 185.75195,-72.689453 a 1.0001006,1.0001006 0 0 0 -0.0762,0.002 v 0.002 a 1.0001006,1.0001006 0 0 0 -0.90039,0.736328 l -0.58203,2.164063 -9.44922,-2.533203 a 1.0001006,1.0001006 0 0 0 -1.21875,0.703125 l -0.32812,1.220703 c 5.91109,1.760084 15.78496,0.568611 19.31445,4.980469 2.08629,2.607878 3.47844,6.992917 6.26758,9.417968 l 0.57617,0.154297 a 1.0001006,1.0001006 0 0 0 1.22461,-0.707031 l 2.79101,-10.416016 a 1.0001006,1.0001006 0 0 0 -0.70898,-1.226562 l -16.66016,-4.464844 a 1.0001006,1.0001006 0 0 0 -0.25,-0.0332 z"
         transform="matrix(0.26458333,0,0,0.26458333,0,284.3)" />
      <path
         id="path404"
         style="color:#000000;font-style:normal;font-variant:normal;font-weight:normal;font-stretch:normal;font-size:medium;line-height:normal;font-family:sans-serif;font-variant-ligatures:normal;font-variant-position:normal;font-variant-caps:normal;font-variant-numeric:normal;font-variant-alternates:normal;font-variant-east-asian:normal;font-feature-settings:normal;font-variation-settings:normal;text-indent:0;text-align:start;text-decoration:none;text-decoration-line:none;text-decoration-style:solid;text-decoration-color:#000000;letter-spacing:normal;word-spacing:normal;text-transform:none;writing-mode:lr-tb;direction:ltr;text-orientation:mixed;dominant-baseline:auto;baseline-shift:baseline;text-anchor:start;white-space:normal;shape-padding:0;shape-margin:0;inline-size:0;clip-rule:nonzero;display:inline;overflow:visible;visibility:visible;isolation:auto;mix-blend-mode:normal;color-interpolation:sRGB;color-interpolation-filters:linearRGB;solid-color:#000000;solid-opacity:1;vector-effect:none;fill:#d0e2ee;fill-opacity:1;fill-rule:nonzero;stroke:none;stroke-width:2;stroke-linecap:round;stroke-linejoin:round;stroke-miterlimit:4;stroke-dasharray:none;stroke-dashoffset:0;stroke-opacity:1;color-rendering:auto;image-rendering:auto;shape-rendering:auto;text-rendering:auto;enable-background:accumulate;stop-color:#000000"
         d="m 188.875,-68.046875 a 1.0000006,1.0000006 0 0 0 -0.0762,0.002 v 0.002 a 1.0000006,1.0000006 0 0 0 -0.89258,0.746094 1.0000006,1.0000006 0 0 0 0.72266,1.216797 l 6.39257,1.638672 a 1.0000006,1.0000006 0 0 0 1.21875,-0.722656 1.0000006,1.0000006 0 0 0 -0.72265,-1.21875 l -6.39453,-1.63086 a 1.0000006,1.0000006 0 0 0 -0.24805,-0.0332 z m -11.36914,0.458984 a 1.0000006,1.0000006 0 0 0 -0.0742,0.002 1.0000006,1.0000006 0 0 0 -0.90039,0.738282 1.0000006,1.0000006 0 0 0 0.70117,1.226562 l 8.33399,2.228516 a 1.0000006,1.0000006 0 0 0 1.22461,-0.701172 1.0000006,1.0000006 0 0 0 -0.70899,-1.226562 l -8.32617,-2.236329 a 1.0000006,1.0000006 0 0 0 -0.25,-0.03125 z m 12.49219,3.34375 a 1.0000006,1.0000006 0 0 0 -0.0762,0.002 1.0000006,1.0000006 0 0 0 -0.9004,0.746094 1.0000006,1.0000006 0 0 0 0.70704,1.22461 l 4.17187,1.115234 a 1.0000006,1.0000006 0 0 0 1.2168,-0.708984 1.0000006,1.0000006 0 0 0 -0.70117,-1.22461 l -4.16993,-1.115234 a 1.0000006,1.0000006 0 0 0 -0.24804,-0.03906 z"
         transform="matrix(0.26458333,0,0,0.26458333,0,284.3)" />
      <path
         id="path368"
         d="m 44.557386,269.64168 a 0.26460988,0.26460988 0 0 0 -0.263212,0.26321 v 4.27877 a 0.26460988,0.26460988 0 0 0 0.263212,0.26532 c 0.53073,0 1.000511,-0.29598 1.322375,-0.73489 0.321865,-0.43891 0.511685,-1.0266 0.511684,-1.66982 -4e-6,-0.6432 -0.18982,-1.2288 -0.511684,-1.6677 -0.321864,-0.43891 -0.791649,-0.73489 -1.322375,-0.73489 z"
         style="color:#000000;font-style:normal;font-variant:normal;font-weight:normal;font-stretch:normal;font-size:medium;line-height:normal;font-family:sans-serif;font-variant-ligatures:normal;font-variant-position:normal;font-variant-caps:normal;font-variant-numeric:normal;font-variant-alternates:normal;font-variant-east-asian:normal;font-feature-settings:normal;font-variation-settings:normal;text-indent:0;text-align:start;text-decoration:none;text-decoration-line:none;text-decoration-style:solid;text-decoration-color:#000000;letter-spacing:normal;word-spacing:normal;text-transform:none;writing-mode:lr-tb;direction:ltr;text-orientation:mixed;dominant-baseline:auto;baseline-shift:baseline;text-anchor:start;white-space:normal;shape-padding:0;shape-margin:0;inline-size:0;clip-rule:nonzero;display:inline;overflow:visible;visibility:visible;isolation:auto;mix-blend-mode:normal;color-interpolation:sRGB;color-interpolation-filters:linearRGB;solid-color:#000000;solid-opacity:1;vector-effect:none;fill:#5a6571;fill-opacity:1;fill-rule:evenodd;stroke:none;stroke-width:0.529167;stroke-linecap:round;stroke-linejoin:round;stroke-miterlimit:4;stroke-dasharray:none;stroke-dashoffset:0;stroke-opacity:1;color-rendering:auto;image-rendering:auto;shape-rendering:auto;text-rendering:auto;enable-background:accumulate;stop-color:#000000" />
      <path
         d="m 44.557486,269.64146 a 0.26460987,0.26460987 0 0 0 -0.263548,0.26355 v 0.29404 c 0.420518,0.0802 0.78999,0.34313 1.056782,0.70694 0.321863,0.4389 0.511594,1.02439 0.511596,1.66759 0,0.61633 -0.175625,1.17999 -0.473355,1.61231 0.185848,-0.12364 0.352729,-0.28336 0.490926,-0.47181 0.321863,-0.43891 0.511596,-1.02644 0.511596,-1.66966 -3e-6,-0.6432 -0.189733,-1.2287 -0.511596,-1.6676 -0.321865,-0.43891 -0.791676,-0.73536 -1.322401,-0.73536 z"
         style="color:#000000;font-style:normal;font-variant:normal;font-weight:normal;font-stretch:normal;font-size:medium;line-height:normal;font-family:sans-serif;font-variant-ligatures:normal;font-variant-position:normal;font-variant-caps:normal;font-variant-numeric:normal;font-variant-alternates:normal;font-variant-east-asian:normal;font-feature-settings:normal;font-variation-settings:normal;text-indent:0;text-align:start;text-decoration:none;text-decoration-line:none;text-decoration-style:solid;text-decoration-color:#000000;letter-spacing:normal;word-spacing:normal;text-transform:none;writing-mode:lr-tb;direction:ltr;text-orientation:mixed;dominant-baseline:auto;baseline-shift:baseline;text-anchor:start;white-space:normal;shape-padding:0;shape-margin:0;inline-size:0;clip-rule:nonzero;display:inline;overflow:visible;visibility:visible;isolation:auto;mix-blend-mode:normal;color-interpolation:sRGB;color-interpolation-filters:linearRGB;solid-color:#000000;solid-opacity:1;vector-effect:none;fill:#3a4d5c;fill-opacity:1;fill-rule:evenodd;stroke:none;stroke-width:0.529167;stroke-linecap:round;stroke-linejoin:round;stroke-miterlimit:4;stroke-dasharray:none;stroke-dashoffset:0;stroke-opacity:1;color-rendering:auto;image-rendering:auto;shape-rendering:auto;text-rendering:auto;enable-background:accumulate;stop-color:#000000"
         id="path431" />
      <path
         id="path1129"
         style="fill:#aabfd0;fill-opacity:1;stroke:none;stroke-width:0.264583px;stroke-linecap:butt;stroke-linejoin:miter;stroke-opacity:1"
         d="m 49.973176,266.29593 a 0.26458349,0.26458349 0 0 0 -0.02015,5.2e-4 v 5.1e-4 a 0.26458349,0.26458349 0 0 0 -0.100769,0.0284 c 0.447897,0.14369 0.828963,0.34942 1.083138,0.66714 0.02636,0.033 0.05089,0.0715 0.07648,0.10645 l 0.58756,0.1509 a 0.26458349,0.26458349 0 0 0 0.322461,-0.1912 0.26458349,0.26458349 0 0 0 -0.191201,-0.32247 l -1.691886,-0.43149 a 0.26458349,0.26458349 0 0 0 -0.06563,-0.009 z m 1.345655,1.27951 c 0.08411,0.14647 0.168582,0.30267 0.252698,0.45734 a 0.26458349,0.26458349 0 0 0 0.05323,-0.10129 0.26458349,0.26458349 0 0 0 -0.185518,-0.32401 z" />
      <path
         sodipodi:nodetypes="cccccssccccc"
         transform="matrix(0.26458333,0,0,0.26458333,0,284.3)"
         d="m 179.01758,-81.167969 c -0.15345,0.01134 -0.30253,0.05533 -0.43555,0.132813 l -7.91992,4.576172 c -0.22896,0.132283 -0.39595,0.350123 -0.46484,0.605468 l -0.5293,1.972657 c 0.0332,0.01222 0.0613,0.0276 0.0957,0.03906 5.46898,1.82298 8.91504,-1.514046 18.623,-0.263536 5.01949,0.646575 14.34776,4.550316 22.13481,6.497911 l 2.63086,-2.966797 c 0.49534,-0.555666 0.23065,-1.439792 -0.48828,-1.632812 l -33.32031,-8.923828 c -0.10545,-0.03024 -0.21657,-0.0424 -0.32617,-0.03711 z"
         style="fill:#3a4d5c;fill-opacity:1;stroke:none;stroke-width:0.999999px;stroke-linecap:butt;stroke-linejoin:miter;stroke-opacity:1"
         id="path1100" />
      <path
         id="path425"
         d="m 54.345703,265.58008 c -0.17435,0 -0.318363,0.14596 -0.318359,0.32031 5e-6,0.17435 0.143999,0.31836 0.318359,0.31836 0.174339,0 0.318354,-0.14402 0.318359,-0.31836 4e-6,-0.17435 -0.143997,-0.32031 -0.318359,-0.32031 z"
         style="color:#000000;font-style:normal;font-variant:normal;font-weight:normal;font-stretch:normal;font-size:medium;line-height:normal;font-family:sans-serif;font-variant-ligatures:normal;font-variant-position:normal;font-variant-caps:normal;font-variant-numeric:normal;font-variant-alternates:normal;font-variant-east-asian:normal;font-feature-settings:normal;font-variation-settings:normal;text-indent:0;text-align:start;text-decoration:none;text-decoration-line:none;text-decoration-style:solid;text-decoration-color:#000000;letter-spacing:normal;word-spacing:normal;text-transform:none;writing-mode:lr-tb;direction:ltr;text-orientation:mixed;dominant-baseline:auto;baseline-shift:baseline;text-anchor:start;white-space:normal;shape-padding:0;shape-margin:0;inline-size:0;clip-rule:nonzero;display:inline;overflow:visible;visibility:visible;opacity:1;isolation:auto;mix-blend-mode:normal;color-interpolation:sRGB;color-interpolation-filters:linearRGB;solid-color:#000000;solid-opacity:1;vector-effect:none;fill:#d0e2ee;fill-opacity:1;fill-rule:nonzero;stroke:none;stroke-width:0.306991;stroke-linecap:round;stroke-linejoin:round;stroke-miterlimit:4;stroke-dasharray:none;stroke-dashoffset:0;stroke-opacity:1;color-rendering:auto;image-rendering:auto;shape-rendering:auto;text-rendering:auto;enable-background:accumulate;stop-color:#000000;stop-opacity:1" />
    </g>
  </g>
</svg>
