<?xml version="1.0" encoding="UTF-8" standalone="no"?>
<!-- Created with Inkscape (http://www.inkscape.org/) -->

<svg
   width="48pt"
   height="48pt"
   viewBox="0 0 16.933334 16.933333"
   version="1.1"
   id="svg979"
   inkscape:version="1.1 (c68e22c387, 2021-05-23)"
   sodipodi:docname="27 - Think Green.svg"
   inkscape:export-filename="E:\TR Design Studio Creative\Project Design\TR Creative Design\Icon Design\Project Hiring\Icon Icons\006 - Ecology\Send\3 - Flat\27 - Think Green.png"
   inkscape:export-xdpi="768"
   inkscape:export-ydpi="768"
   xmlns:inkscape="http://www.inkscape.org/namespaces/inkscape"
   xmlns:sodipodi="http://sodipodi.sourceforge.net/DTD/sodipodi-0.dtd"
   xmlns="http://www.w3.org/2000/svg"
   xmlns:svg="http://www.w3.org/2000/svg"
   xmlns:rdf="http://www.w3.org/1999/02/22-rdf-syntax-ns#"
   xmlns:cc="http://creativecommons.org/ns#"
   xmlns:dc="http://purl.org/dc/elements/1.1/">
  <defs
     id="defs973" />
  <sodipodi:namedview
     id="base"
     pagecolor="#ffffff"
     bordercolor="#666666"
     borderopacity="1.0"
     inkscape:pageopacity="0.0"
     inkscape:pageshadow="2"
     inkscape:zoom="5.4358834"
     inkscape:cx="20.419864"
     inkscape:cy="33.297256"
     inkscape:document-units="pt"
     inkscape:current-layer="layer1"
     showgrid="false"
     units="pt"
     inkscape:window-width="1366"
     inkscape:window-height="716"
     inkscape:window-x="-8"
     inkscape:window-y="-8"
     inkscape:window-maximized="1"
     inkscape:pagecheckerboard="0"
     inkscape:snap-bbox="true"
     inkscape:snap-nodes="false"
     inkscape:bbox-nodes="true"
     showguides="false">
    <inkscape:grid
       type="xygrid"
       id="grid1526" />
    <sodipodi:guide
       position="0.97013909,15.963209"
       orientation="56.666615,0"
       id="guide1528"
       inkscape:locked="false" />
    <sodipodi:guide
       position="0.97013909,0.97016731"
       orientation="0,56.666667"
       id="guide1530"
       inkscape:locked="false" />
    <sodipodi:guide
       position="15.963195,0.97016731"
       orientation="-56.666615,0"
       id="guide1532"
       inkscape:locked="false" />
    <sodipodi:guide
       position="15.963195,15.963209"
       orientation="0,-56.666667"
       id="guide1534"
       inkscape:locked="false" />
  </sodipodi:namedview>
  <metadata
     id="metadata976">
    <rdf:RDF>
      <cc:Work
         rdf:about="">
        <dc:format>image/svg+xml</dc:format>
        <dc:type
           rdf:resource="http://purl.org/dc/dcmitype/StillImage" />
      </cc:Work>
    </rdf:RDF>
  </metadata>
  <g
     inkscape:label="Layer 1"
     inkscape:groupmode="layer"
     id="layer1"
     transform="translate(0,-280.06668)">
    <g
       id="g17912"
       style="display:inline;stroke-width:0.812051"
       transform="matrix(1.2314505,0,0,1.2314505,0.6466486,-150.71242)">
      <g
         id="g17521"
         style="stroke-width:0.812051">
        <path
           style="color:#000000;fill:#f8c09d;stroke-width:0.812051;stroke-linecap:round;stroke-linejoin:round;-inkscape-stroke:none;paint-order:markers fill stroke"
           d="m 5.3515625,353.36719 c -0.3988026,0 -0.9492909,0.087 -1.3359375,0.28125 -0.4212123,0.21156 -0.8092896,0.48525 -1.0878906,0.89258 -0.278601,0.40732 -0.4374993,0.93938 -0.4375,1.62304 a 0.26460996,0.26460996 0 0 0 0.00195,0.0293 l 0.089844,0.77148 c -0.00158,0.11744 -0.036344,0.23225 -0.1015625,0.33008 l -0.6171876,0.92774 c -0.2345168,0.35177 0.032302,0.85156 0.4550782,0.85156 h 0.265625 v 1.32226 c 0,0.58137 0.4752712,1.0586 1.0566406,1.0586 a 0.26460996,0.26460996 0 0 0 0.029297,-0.002 l 1.2929687,-0.14257 0.00195,0.9375 c 1e-7,0.28911 0.2401779,0.52929 0.5292969,0.52929 h 3.1738282 c 0.2891308,0 0.5293744,-0.24016 0.5292968,-0.52929 v -2.64453 c -7.97e-5,-0.29765 0.1974632,-0.86142 0.3652344,-1.17774 0.1435991,-0.27074 0.2529522,-0.5615 0.3261719,-0.86719 a 0.26460996,0.26460996 0 0 0 0.00781,-0.0625 v -1.19726 c 0,-1.61627 -1.3153698,-2.93164 -2.9316407,-2.93164 z"
           id="path600367" />
        <path
           id="path12871"
           style="color:#000000;fill:#ef937e;fill-opacity:1;stroke-width:0.812051;stroke-linecap:round;stroke-linejoin:round;-inkscape-stroke:none;paint-order:markers fill stroke"
           d="m 5.8311683,353.36297 c -0.129144,-4.5e-4 -0.258305,1.8e-4 -0.38654,0.004 h 0.772563 c -0.128048,-0.002 -0.256878,-0.004 -0.386023,-0.004 z m 1.133781,0.004 c -0.119833,0.004 -0.242476,0.005 -0.367419,0.004 1.541278,0.0843 2.769856,1.36553 2.769856,2.92746 v 1.19735 a 0.26460995,0.26460995 0 0 1 -0.0078,0.0625 c -0.07322,0.30569 -0.182479,0.59639 -0.326078,0.86713 -0.167771,0.31632 -0.365432,0.88005 -0.365353,1.1777 v 2.6448 c 7.8e-5,0.28913 -0.240036,0.52917 -0.529166,0.52917 h 0.52865 c 0.289129,0 0.529761,-0.24004 0.529683,-0.52917 v -2.6448 c -7.9e-5,-0.29765 0.197064,-0.86138 0.364835,-1.1777 0.143599,-0.27074 0.253375,-0.56144 0.326595,-0.86713 l 0.0078,-1.25988 c 0,-1.61626 -1.315333,-2.9316 -2.931604,-2.9316 z" />
        <path
           id="path584364"
           style="color:#000000;fill:#ef937e;stroke-width:3.06917;stroke-linecap:round;stroke-linejoin:round;-inkscape-stroke:none;paint-order:markers fill stroke"
           d="m 22.828125,288.60938 a 1.0000006,1.0000006 0 0 0 -0.173828,0.004 l -12.117188,1.34961 c 0.728069,0.9962 1.902617,1.64649 3.222657,1.64649 a 1.0001006,1.0001006 0 0 0 0.111328,-0.008 l 4.886718,-0.53906 4.119141,-0.45703 a 1.0000006,1.0000006 0 0 0 0.878906,-1.10742 1.0000006,1.0000006 0 0 0 -0.927734,-0.88867 z"
           transform="matrix(0.26458333,0,0,0.26458333,0,284.3)" />
        <path
           id="path584606"
           style="color:#000000;fill:#ef937e;stroke-width:3.06917;stroke-linecap:round;stroke-linejoin:round;-inkscape-stroke:none;paint-order:markers fill stroke"
           d="m 6.7167969,280.61133 c 0.06337,1.03586 0.9029621,2 2.0449219,2 h 1.0039062 1.994141 a 1.0000006,1.0000006 0 0 0 1.003906,-1.00391 1.0000006,1.0000006 0 0 0 -1.003906,-0.99609 z"
           transform="matrix(0.26458333,0,0,0.26458333,0,284.3)" />
      </g>
      <g
         id="g17515"
         style="stroke-width:0.812051">
        <path
           style="color:#000000;fill:#9a605c;stroke-width:0.812051;stroke-linecap:round;stroke-linejoin:round;-inkscape-stroke:none;paint-order:markers fill stroke"
           d="M 8.1386719,354.12305 A 0.2645835,0.2645835 0 0 0 7.875,354.38672 c 0,0.26458 -0.00191,0.53938 0.035156,0.79883 0.037064,0.25945 0.1119843,0.51628 0.3066407,0.71093 a 0.2645835,0.2645835 0 0 0 0.375,0 0.2645835,0.2645835 0 0 0 0,-0.37304 c -0.069927,-0.0699 -0.1291214,-0.20854 -0.1582031,-0.41211 -0.029082,-0.20357 -0.029297,-0.46003 -0.029297,-0.72461 a 0.2645835,0.2645835 0 0 0 -0.2656247,-0.26367 z"
           id="path44195" />
        <path
           style="color:#000000;fill:#0f2437;stroke-width:0.812051;stroke-linecap:round;stroke-linejoin:round;-inkscape-stroke:none;paint-order:markers fill stroke"
           d="m 7.0859375,355.75586 0.21875,1.12492 c 0.017902,0.10263 0.09436,0.18521 0.1953125,0.21094 0.4394748,0.11112 0.869853,0.0987 1.2753906,0 0.1017126,-0.0251 0.1790617,-0.10778 0.1972657,-0.21094 l 0.2207031,-1.12492 z"
           id="path600381"
           sodipodi:nodetypes="ccccccc" />
        <path
           style="color:#000000;fill:#9a605c;stroke-width:0.812051;stroke-linecap:round;stroke-linejoin:round;-inkscape-stroke:none;paint-order:markers fill stroke"
           d="M 8.1386719,354.12305 A 0.2645835,0.2645835 0 0 0 7.875,354.38672 c 0,0.26458 -0.00217,0.52104 -0.03125,0.72461 -0.029082,0.20357 -0.086323,0.34218 -0.15625,0.41211 a 0.2645835,0.2645835 0 0 0 0,0.37304 0.2645835,0.2645835 0 0 0 0.375,0 c 0.1946564,-0.19465 0.2695764,-0.45148 0.3066406,-0.71093 0.037064,-0.25945 0.035156,-0.53425 0.035156,-0.79883 a 0.2645835,0.2645835 0 0 0 -0.2656247,-0.26367 z"
           id="path50121" />
        <path
           style="color:#000000;fill:#9a605c;stroke-width:0.812051;stroke-linecap:round;stroke-linejoin:round;-inkscape-stroke:none;paint-order:markers fill stroke"
           d="M 8.1386719,351.61719 A 0.2645835,0.2645835 0 0 0 7.875,351.88086 v 2.77148 a 0.2645835,0.2645835 0 0 0 0.2636719,0.26368 0.2645835,0.2645835 0 0 0 0.265625,-0.26368 v -2.77148 a 0.2645835,0.2645835 0 0 0 -0.265625,-0.26367 z"
           id="path53060" />
        <path
           style="color:#000000;fill:#50b86b;stroke-width:0.812051;stroke-linecap:round;stroke-linejoin:round;-inkscape-stroke:none;paint-order:markers fill stroke"
           d="m 9.3339844,350.63477 c -0.2424486,-0.0376 -0.5431267,-0.0707 -0.8242188,0.0703 C 8.0632277,350.92912 7.875,351.39787 7.875,351.88086 a 0.26460996,0.26460996 0 0 0 0.1777344,0.25 c 0,0 0.1956239,0.0686 0.4414062,0.10937 0.2457823,0.0408 0.5535027,0.0791 0.8359375,-0.084 0.2824275,-0.16306 0.4046269,-0.44839 0.4921875,-0.68164 0.087561,-0.23325 0.125,-0.4375 0.125,-0.4375 a 0.26460996,0.26460996 0 0 0 -0.1777343,-0.30078 c 0,0 -0.1930984,-0.0639 -0.4355469,-0.10156 z"
           id="path600401" />
        <path
           style="color:#000000;fill:#50b86b;stroke-width:0.812051;stroke-linecap:round;stroke-linejoin:round;-inkscape-stroke:none;paint-order:markers fill stroke"
           d="m 5.9785156,355.11133 a 0.2645835,0.2645835 0 0 0 -0.2167969,0.30469 c 0.1870132,1.08104 1.1925895,1.88086 2.3789063,1.88085 1.1846533,10e-6 2.186891,-0.8007 2.376953,-1.8789 a 0.2645835,0.2645835 0 0 0 -0.214844,-0.30664 0.2645835,0.2645835 0 0 0 -0.3066402,0.21484 c -0.1423391,0.80748 -0.9085735,1.44141 -1.8554688,1.44141 -0.949782,0 -1.7174753,-0.63244 -1.8574219,-1.44141 a 0.2645835,0.2645835 0 0 0 -0.3046875,-0.21484 z"
           id="path43565" />
        <path
           style="color:#000000;fill:#d0e2ee;stroke-width:0.812051;stroke-linecap:round;stroke-linejoin:round;-inkscape-stroke:none;paint-order:markers fill stroke"
           d="m 7.0800781,355.44531 a 0.2645835,0.2645835 0 0 0 -0.2636719,0.26563 0.2645835,0.2645835 0 0 0 0.2636719,0.26367 h 2.1171875 a 0.2645835,0.2645835 0 0 0 0.265625,-0.26367 0.2645835,0.2645835 0 0 0 -0.265625,-0.26563 z"
           id="path44883" />
        <path
           style="color:#000000;fill:#50b86b;stroke-width:0.812051;stroke-linecap:round;stroke-linejoin:round;-inkscape-stroke:none;paint-order:markers fill stroke"
           d="m 10.054688,352.50977 c -0.3845477,-0.0638 -0.8577022,-0.10736 -1.2500005,0.11914 -0.3923005,0.22649 -0.5915142,0.65849 -0.7285156,1.02343 -0.1370014,0.36495 -0.1972657,0.68555 -0.1972657,0.68555 a 0.26460996,0.26460996 0 0 0 0.1738282,0.29883 c 0,0 0.3068547,0.10804 0.6914062,0.17187 0.3845515,0.0638 0.8576981,0.10932 1.25,-0.11718 0.3922954,-0.2265 0.5915174,-0.66045 0.7285154,-1.02539 0.136998,-0.36495 0.197266,-0.68555 0.197266,-0.68555 a 0.26460996,0.26460996 0 0 0 -0.171875,-0.29883 c 0,0 -0.308812,-0.10804 -0.693359,-0.17187 z"
           id="path600421" />
        <path
           style="color:#000000;fill:#50b86b;stroke-width:0.812051;stroke-linecap:round;stroke-linejoin:round;-inkscape-stroke:none;paint-order:markers fill stroke"
           d="M 6.2246094,352.50977 C 5.8400622,352.5736 5.53125,352.68164 5.53125,352.68164 a 0.26460996,0.26460996 0 0 0 -0.171875,0.29883 c 0,0 0.060268,0.3206 0.1972656,0.68555 0.1369978,0.36494 0.3342674,0.79889 0.7265625,1.02539 0.3923019,0.2265 0.8674016,0.18102 1.2519531,0.11718 0.3845516,-0.0638 0.6914063,-0.17187 0.6914063,-0.17187 a 0.26460996,0.26460996 0 0 0 0.171875,-0.29883 c 0,0 -0.060264,-0.3206 -0.1972656,-0.68555 -0.1370014,-0.36494 -0.3342621,-0.79694 -0.7265625,-1.02343 -0.3922983,-0.2265 -0.8654528,-0.18298 -1.25,-0.11914 z"
           id="path600429" />
        <path
           id="path4108"
           style="color:#000000;fill:#46a05d;fill-opacity:1;stroke-width:0.812051;stroke-linecap:round;stroke-linejoin:round;-inkscape-stroke:none;paint-order:markers fill stroke"
           d="m 9.5131142,352.45863 c -0.2416739,9.7e-4 -0.4878163,0.0431 -0.7084838,0.17053 -0.2129898,0.12297 -0.3687561,0.30645 -0.488859,0.50695 0.3841224,-0.20146 0.8382101,-0.15879 1.2097451,-0.0971 0.384547,0.0638 0.6934975,0.17208 0.6934975,0.17208 a 0.26460995,0.26460995 0 0 1 0.171566,0.29869 c 0,0 -0.05989,0.32028 -0.196887,0.68523 -0.06282,0.16733 -0.139219,0.34913 -0.2408122,0.51883 0.013801,-0.007 0.027727,-0.0144 0.041341,-0.0222 0.3922962,-0.2265 0.5916392,-0.66084 0.7286382,-1.02578 0.136997,-0.36495 0.196887,-0.68523 0.196887,-0.68523 a 0.26460995,0.26460995 0 0 0 -0.171566,-0.29869 c 0,0 -0.308951,-0.10825 -0.693498,-0.17208 -0.1682397,-0.0279 -0.3536002,-0.0519 -0.5415689,-0.0512 z" />
        <path
           id="path10110"
           style="color:#000000;fill:#46a05d;fill-opacity:1;stroke-width:0.812051;stroke-linecap:round;stroke-linejoin:round;-inkscape-stroke:none;paint-order:markers fill stroke"
           d="m 6.7256875,352.45863 c -0.1741077,0.002 -0.3450391,0.0252 -0.5012613,0.0512 -0.384547,0.0638 -0.692981,0.17208 -0.692981,0.17208 a 0.26460995,0.26460995 0 0 0 -0.1720826,0.29869 c 0,0 0.0084,0.0453 0.026355,0.12144 0.093155,-0.0222 0.1979269,-0.0445 0.3095419,-0.063 0.384547,-0.0638 0.8577548,-0.10713 1.2500527,0.11937 0.3923001,0.22649 0.5895687,0.65825 0.7265707,1.02319 0.08553,0.22783 0.1413278,0.43826 0.1710489,0.56431 0.2278706,-0.0545 0.3834392,-0.10904 0.3834392,-0.10904 a 0.26460995,0.26460995 0 0 0 0.1720826,-0.29869 c 0,0 -0.060399,-0.32079 -0.197404,-0.68575 -0.137002,-0.36493 -0.3342706,-0.7967 -0.7265707,-1.02319 -0.232927,-0.13448 -0.4943266,-0.17416 -0.7487915,-0.17053 z" />
        <path
           id="path11482"
           style="color:#000000;fill:#46a05d;fill-opacity:1;stroke-width:0.812051;stroke-linecap:round;stroke-linejoin:round;-inkscape-stroke:none;paint-order:markers fill stroke"
           d="m 8.9627602,350.60241 c -0.1487185,0.002 -0.3038721,0.0279 -0.4532024,0.10284 -0.2313588,0.11608 -0.3931549,0.29774 -0.495577,0.51314 0.271422,-0.12258 0.557716,-0.0904 0.7906496,-0.0543 0.2424488,0.0377 0.4356322,0.10129 0.4356322,0.10129 a 0.26460995,0.26460995 0 0 1 0.177767,0.30076 c 0,0 -0.037497,0.20445 -0.1250569,0.4377 -0.025408,0.0677 -0.053539,0.13968 -0.08785,0.21187 0.042083,-0.0159 0.083781,-0.0356 0.1250569,-0.0594 0.2824271,-0.16306 0.4043995,-0.44836 0.4919596,-0.68161 0.08756,-0.23325 0.1250569,-0.4377 0.1250569,-0.4377 a 0.26460995,0.26460995 0 0 0 -0.1777669,-0.30075 c 0,0 -0.1931834,-0.0636 -0.4356322,-0.10129 -0.1136481,-0.0176 -0.2398146,-0.0344 -0.3710369,-0.0326 z" />
      </g>
    </g>
  </g>
</svg>
