<?xml version="1.0" encoding="UTF-8" standalone="no"?>
<!-- Created with Inkscape (http://www.inkscape.org/) -->

<svg
   width="48pt"
   height="48pt"
   viewBox="0 0 16.933334 16.933333"
   version="1.1"
   id="svg979"
   inkscape:version="1.1 (c68e22c387, 2021-05-23)"
   sodipodi:docname="28 - Honeycomb.svg"
   inkscape:export-filename="E:\TR Design Studio Creative\Project Design\TR Creative Design\Icon Design\Project Hiring\Icon Icons\006 - Ecology\Send\3 - Flat\28 - Honeycomb.png"
   inkscape:export-xdpi="768"
   inkscape:export-ydpi="768"
   xmlns:inkscape="http://www.inkscape.org/namespaces/inkscape"
   xmlns:sodipodi="http://sodipodi.sourceforge.net/DTD/sodipodi-0.dtd"
   xmlns="http://www.w3.org/2000/svg"
   xmlns:svg="http://www.w3.org/2000/svg"
   xmlns:rdf="http://www.w3.org/1999/02/22-rdf-syntax-ns#"
   xmlns:cc="http://creativecommons.org/ns#"
   xmlns:dc="http://purl.org/dc/elements/1.1/">
  <defs
     id="defs973" />
  <sodipodi:namedview
     id="base"
     pagecolor="#ffffff"
     bordercolor="#666666"
     borderopacity="1.0"
     inkscape:pageopacity="0.0"
     inkscape:pageshadow="2"
     inkscape:zoom="7.6875"
     inkscape:cx="32"
     inkscape:cy="32"
     inkscape:document-units="pt"
     inkscape:current-layer="layer1"
     showgrid="false"
     units="pt"
     inkscape:window-width="1366"
     inkscape:window-height="716"
     inkscape:window-x="-8"
     inkscape:window-y="-8"
     inkscape:window-maximized="1"
     inkscape:pagecheckerboard="0"
     inkscape:snap-bbox="true"
     inkscape:snap-nodes="false"
     inkscape:bbox-nodes="true"
     showguides="false">
    <inkscape:grid
       type="xygrid"
       id="grid1526" />
    <sodipodi:guide
       position="0.97013909,15.963209"
       orientation="56.666615,0"
       id="guide1528"
       inkscape:locked="false" />
    <sodipodi:guide
       position="0.97013909,0.97016731"
       orientation="0,56.666667"
       id="guide1530"
       inkscape:locked="false" />
    <sodipodi:guide
       position="15.963195,0.97016731"
       orientation="-56.666615,0"
       id="guide1532"
       inkscape:locked="false" />
    <sodipodi:guide
       position="15.963195,15.963209"
       orientation="0,-56.666667"
       id="guide1534"
       inkscape:locked="false" />
  </sodipodi:namedview>
  <metadata
     id="metadata976">
    <rdf:RDF>
      <cc:Work
         rdf:about="">
        <dc:format>image/svg+xml</dc:format>
        <dc:type
           rdf:resource="http://purl.org/dc/dcmitype/StillImage" />
      </cc:Work>
    </rdf:RDF>
  </metadata>
  <g
     inkscape:label="Layer 1"
     inkscape:groupmode="layer"
     id="layer1"
     transform="translate(0,-280.06668)">
    <g
       id="g70236"
       style="display:inline;stroke-width:0.794189"
       transform="matrix(1.259146,0,0,1.259146,-27.246746,-160.59064)">
      <g
         id="g70220"
         style="stroke-width:0.794189">
        <path
           style="color:#000000;fill:#65342d;stroke-width:0.794189;stroke-linecap:round;stroke-linejoin:round;-inkscape-stroke:none;paint-order:markers fill stroke"
           d="m 27.570312,351.79492 a 0.26460996,0.26460996 0 0 0 -0.257812,0.32813 l 0.265625,1.05859 a 0.26460996,0.26460996 0 0 0 0.255859,0.20117 h 1.058594 a 0.26460996,0.26460996 0 0 0 0.255859,-0.20117 l 0.265625,-1.05859 a 0.26460996,0.26460996 0 0 0 -0.257812,-0.32813 z"
           id="path60284" />
        <path
           style="color:#000000;fill:#9a605c;stroke-width:0.794189;stroke-linecap:round;stroke-linejoin:round;-inkscape-stroke:none;paint-order:markers fill stroke"
           d="m 23.601562,350.73633 c -0.144559,0 -0.318928,0.0346 -0.519531,0.0879 -0.100301,0.0266 -0.199126,0.0554 -0.291015,0.10156 -0.04594,0.0231 -0.09057,0.0497 -0.138672,0.0957 -0.0481,0.046 -0.109374,0.12816 -0.109375,0.24414 v 0.5293 c 1e-6,0.11599 0.06127,0.1981 0.109375,0.24414 0.0481,0.046 0.09273,0.0726 0.138672,0.0957 0.09189,0.0462 0.190714,0.0769 0.291015,0.10351 0.200603,0.0533 0.374972,0.0859 0.519531,0.0859 h 7.482422 l 0.119141,0.36133 c 0.08566,0.25697 0.32873,0.43164 0.599609,0.43164 h 0.529297 c 0.30297,0 0.527439,-0.31024 0.431641,-0.59766 l -0.06445,-0.19531 H 33.125 c 0.14456,0 0.318928,-0.0326 0.519531,-0.0859 0.100302,-0.0266 0.199126,-0.0573 0.291016,-0.10351 0.04595,-0.0231 0.09057,-0.0497 0.138672,-0.0957 0.0481,-0.046 0.109375,-0.12815 0.109375,-0.24414 v -0.5293 c 0,-0.11598 -0.06127,-0.19809 -0.109375,-0.24414 -0.0481,-0.046 -0.09273,-0.0726 -0.138672,-0.0957 -0.09189,-0.0462 -0.190714,-0.0749 -0.291016,-0.10156 -0.200603,-0.0533 -0.374971,-0.0879 -0.519531,-0.0879 z"
           id="path60344" />
        <path
           id="path62326"
           style="color:#000000;fill:#65332d;fill-opacity:1;stroke-width:0.794189;stroke-linecap:round;stroke-linejoin:round;-inkscape-stroke:none;paint-order:markers fill stroke"
           d="m 22.55261,351.35278 c 0.200604,-0.0533 0.375306,-0.0879 0.519865,-0.0879 h 9.523451 c 0.36228,0.0188 0.666357,0.10945 0.949296,0.2853 0.0481,0.046 0.109038,0.12793 0.109038,0.24391 v 0.44132 c 0.09693,-0.026 0.192222,-0.0566 0.281119,-0.10129 0.04595,-0.0231 0.09091,-0.0496 0.13901,-0.0956 0.0481,-0.046 0.109037,-0.12792 0.109037,-0.24391 v -0.52968 c 0,-0.11598 -0.06093,-0.19787 -0.109037,-0.24392 -0.270965,-0.20744 -0.63335,-0.2853 -0.949296,-0.2853 l -9.523433,5.5e-4 c -0.47294,0.0395 -1.05885,0.14503 -1.05885,0.52912 z"
           sodipodi:nodetypes="csccscssssccccc" />
      </g>
      <path
         id="path87417"
         style="color:#000000;fill:#f09724;stroke-width:0.794189;stroke-linecap:round;stroke-linejoin:round;-inkscape-stroke:none;paint-order:markers fill stroke"
         d="m 32.861559,359.46698 a 0.26458349,0.26458349 0 0 0 -0.187584,0.078 0.26458349,0.26458349 0 0 0 0,0.37466 l 0.07803,0.0765 -0.07803,0.078 a 0.26458349,0.26458349 0 0 0 0,0.37517 0.26458349,0.26458349 0 0 0 0.374653,0 l 0.143144,-0.14417 0.144177,0.14417 a 0.26458349,0.26458349 0 0 0 0.373105,0 0.26458349,0.26458349 0 0 0 0,-0.37517 l -0.07648,-0.078 0.07648,-0.0765 a 0.26458349,0.26458349 0 0 0 0,-0.37466 0.26458349,0.26458349 0 0 0 -0.373105,0 l -0.144177,0.14418 -0.143144,-0.14418 a 0.26458349,0.26458349 0 0 0 -0.187069,-0.078 z" />
      <path
         id="path87966"
         style="color:#000000;fill:#f09724;stroke-width:0.794189;stroke-linecap:round;stroke-linejoin:round;-inkscape-stroke:none;paint-order:markers fill stroke"
         d="m 23.336043,360.79093 a 0.26458349,0.26458349 0 0 0 -0.187586,0.078 0.26458349,0.26458349 0 0 0 0,0.3731 l 0.07803,0.078 -0.07803,0.078 a 0.26458349,0.26458349 0 0 0 0,0.37311 0.26458349,0.26458349 0 0 0 0.375171,0 l 0.143144,-0.14366 0.143661,0.14366 a 0.26458349,0.26458349 0 0 0 0.37517,0 0.26458349,0.26458349 0 0 0 0,-0.37259 l -0.07803,-0.0786 0.07803,-0.078 a 0.26458349,0.26458349 0 0 0 0,-0.3731 0.26458349,0.26458349 0 0 0 -0.37517,0 l -0.143144,0.14366 -0.143661,-0.14366 a 0.26458349,0.26458349 0 0 0 -0.187585,-0.078 z" />
      <path
         id="path93384"
         style="color:#000000;fill:#f09724;stroke-width:0.794189;stroke-linecap:round;stroke-linejoin:round;-inkscape-stroke:none;paint-order:markers fill stroke"
         d="m 32.861559,354.4399 a 0.26458349,0.26458349 0 0 0 -0.187584,0.0775 0.26458349,0.26458349 0 0 0 0,0.37518 l 0.07803,0.078 -0.07803,0.0765 a 0.26458349,0.26458349 0 0 0 0,0.37465 0.26458349,0.26458349 0 0 0 0.374653,0 l 0.143144,-0.14314 0.144177,0.14314 a 0.26458349,0.26458349 0 0 0 0.373105,0 0.26458349,0.26458349 0 0 0 0,-0.37465 l -0.07648,-0.0765 0.07648,-0.078 a 0.26458349,0.26458349 0 0 0 0,-0.37518 0.26458349,0.26458349 0 0 0 -0.373105,0 l -0.144177,0.14418 -0.143144,-0.14418 a 0.26458349,0.26458349 0 0 0 -0.187069,-0.0775 z" />
      <path
         id="path87158"
         style="color:#000000;fill:#f09724;stroke-width:0.794189;stroke-linecap:round;stroke-linejoin:round;-inkscape-stroke:none;paint-order:markers fill stroke"
         d="m 24.394376,353.91229 a 0.26458349,0.26458349 0 0 0 -0.187585,0.078 l -0.142627,0.14263 -0.144177,-0.14263 a 0.26458349,0.26458349 0 0 0 -0.373104,0 0.26458349,0.26458349 0 0 0 0,0.3731 l 0.07596,0.078 -0.07596,0.076 a 0.26458349,0.26458349 0 0 0 0,0.37517 0.26458349,0.26458349 0 0 0 0.373104,0 l 0.144177,-0.14263 0.142627,0.14263 a 0.26458349,0.26458349 0 0 0 0.375171,0 0.26458349,0.26458349 0 0 0 0,-0.37517 l -0.07803,-0.076 0.07803,-0.078 a 0.26458349,0.26458349 0 0 0 0,-0.3731 0.26458349,0.26458349 0 0 0 -0.187586,-0.078 z" />
      <g
         id="g70215"
         style="stroke-width:0.794189">
        <path
           style="color:#000000;fill:#febe40;stroke-width:0.794189;stroke-linecap:round;stroke-linejoin:round;-inkscape-stroke:none;paint-order:markers fill stroke"
           d="m 26.642819,352.85395 c -0.508451,0 -0.926043,0.41759 -0.926043,0.92604 0,0.14219 0.03281,0.27711 0.09095,0.39791 -0.489335,0.0221 -0.883667,0.43004 -0.883667,0.92449 0,0.15955 0.04106,0.3098 0.113171,0.44132 -0.371518,0.12056 -0.642855,0.47069 -0.642855,0.88056 0,0.15987 0.04131,0.31141 0.113688,0.44339 -0.371518,0.12056 -0.642854,0.4712 -0.642854,0.88108 0,0.40974 0.271015,0.76041 0.642338,0.88109 -0.0719,0.13137 -0.113172,0.28201 -0.113172,0.44131 0,0.40988 0.271337,0.76001 0.642855,0.88057 -0.07209,0.13141 -0.113171,0.28179 -0.113171,0.44131 0,0.49446 0.394324,0.90436 0.883667,0.92656 -0.05814,0.1208 -0.09095,0.25573 -0.09095,0.39791 0,0.50845 0.417592,0.92553 0.926043,0.92553 h 3.441131 c 0.508453,0 0.926042,-0.41708 0.926042,-0.92553 0,-0.14195 -0.03288,-0.27713 -0.09095,-0.39791 0.489159,-0.0224 0.883666,-0.43223 0.883666,-0.92656 0,-0.15952 -0.04095,-0.30968 -0.112654,-0.44131 0.371041,-0.12084 0.641821,-0.47103 0.641821,-0.88057 0,-0.15942 -0.04031,-0.31036 -0.112139,-0.44183 0.371007,-0.12086 0.641821,-0.47105 0.641821,-0.88057 0,-0.40988 -0.271335,-0.76052 -0.642855,-0.88108 0.07238,-0.13198 0.113173,-0.28352 0.113173,-0.44339 0,-0.40971 -0.271058,-0.75986 -0.64234,-0.88056 0.0721,-0.13152 0.113173,-0.28178 0.113173,-0.44132 0,-0.49432 -0.394518,-0.90219 -0.883666,-0.92449 0.05813,-0.1208 0.09095,-0.25572 0.09095,-0.39791 0,-0.50845 -0.417589,-0.92604 -0.926042,-0.92604 z"
           id="path56266" />
        <path
           id="path70910"
           style="color:#000000;fill:#f09724;stroke-width:0.794189;stroke-linecap:round;stroke-linejoin:round;-inkscape-stroke:none;paint-order:markers fill stroke"
           d="m 25.806693,354.17584 c 3.44e-4,7.9e-4 6.88e-4,0.001 0.001,0.002 -0.348863,0.0158 -0.649411,0.22759 -0.793233,0.52711 h 4.141867 a 0.26458349,0.26458349 0 0 0 0.265615,-0.26356 0.26458349,0.26458349 0 0 0 -0.265615,-0.26561 z m -0.791683,1.32395 c 0.0071,0.0148 0.01432,0.0295 0.02222,0.0439 -0.243658,0.0791 -0.443745,0.25711 -0.552938,0.48576 h 7.757667 c -0.109093,-0.22862 -0.308919,-0.4066 -0.552423,-0.48576 0.0079,-0.0144 0.01508,-0.0291 0.02222,-0.0439 z m -0.5302,1.3224 c 0.0073,0.0153 0.01513,0.0307 0.02325,0.0455 -0.242774,0.0788 -0.441931,0.25609 -0.551387,0.48369 h 3.140895 a 0.26458349,0.26458349 0 0 0 0.263548,-0.26561 0.26458349,0.26458349 0 0 0 -0.263548,-0.26355 z m 6.259567,0 a 0.26458349,0.26458349 0 0 0 -0.264068,0.26355 0.26458349,0.26458349 0 0 0 0.264068,0.26561 h 2.025716 c -0.109456,-0.2276 -0.308613,-0.40491 -0.551389,-0.48369 0.0081,-0.0148 0.01593,-0.0302 0.02326,-0.0455 z m -6.788733,1.3224 c 0.109193,0.22828 0.308745,0.40621 0.551904,0.48524 -0.0079,0.0144 -0.01509,0.0291 -0.02222,0.0439 h 2.612245 a 0.26458349,0.26458349 0 0 0 0.263548,-0.26355 0.26458349,0.26458349 0 0 0 -0.263548,-0.26561 z m 5.673038,0 a 0.26458349,0.26458349 0 0 0 -0.263549,0.26561 0.26458349,0.26458349 0 0 0 0.263549,0.26355 h 2.613279 c -0.0072,-0.015 -0.01429,-0.0299 -0.02223,-0.0444 0.242847,-0.0791 0.442245,-0.25678 0.551389,-0.48472 z m -5.142838,1.32395 c 0.10948,0.22734 0.308694,0.40442 0.551387,0.48317 -0.0083,0.0152 -0.01576,0.0308 -0.02325,0.0465 h 6.699333 c -0.0075,-0.0157 -0.01495,-0.0313 -0.02326,-0.0465 0.242282,-0.0789 0.441044,-0.25602 0.550354,-0.48317 z m 3.348116,1.3224 a 0.26458349,0.26458349 0 0 0 -0.263552,0.26355 0.26458349,0.26458349 0 0 0 0.263552,0.26561 h 3.085084 c -6.9e-5,-1.4e-4 6.6e-5,-2.6e-4 0,-5.2e-4 0.348525,-0.016 0.64875,-0.2289 0.792715,-0.52866 z" />
        <path
           id="path68147"
           style="color:#000000;fill:#e08635;fill-opacity:1;stroke-width:0.794189;stroke-linecap:round;stroke-linejoin:round;-inkscape-stroke:none;paint-order:markers fill stroke"
           d="m 29.554785,352.85395 c 0.508453,0 0.926042,0.4176 0.926042,0.92605 0,0.14218 -0.03282,0.2771 -0.09095,0.3979 0.489148,0.0223 0.883667,0.43017 0.883667,0.9245 0,0.15954 -0.04107,0.30979 -0.113171,0.44131 0.371282,0.1207 0.642338,0.47086 0.642338,0.88057 0,0.15987 -0.04079,0.3114 -0.113171,0.44338 0.37152,0.12056 0.642854,0.47121 0.642854,0.88109 0,0.40951 -0.270814,0.7597 -0.641821,0.88056 0.07183,0.13147 0.112138,0.28242 0.112138,0.44184 0,0.40954 -0.27078,0.75972 -0.641821,0.88056 0.0717,0.13163 0.112654,0.2818 0.112654,0.44132 0,0.49433 -0.394508,0.90416 -0.883667,0.92656 0.05807,0.12078 0.09095,0.25596 0.09095,0.39791 0,0.50844 -0.417589,0.92552 -0.926042,0.92552 h 0.529167 c 0.508453,0 0.926042,-0.41708 0.926042,-0.92552 0,-0.14195 -0.03288,-0.27713 -0.09095,-0.39791 0.489159,-0.0224 0.883667,-0.43223 0.883667,-0.92656 0,-0.15952 -0.04095,-0.30969 -0.112654,-0.44132 0.37104,-0.12084 0.641821,-0.47102 0.641821,-0.88056 0,-0.15942 -0.04031,-0.31037 -0.112138,-0.44184 0.371007,-0.12086 0.641821,-0.47105 0.641821,-0.88056 0,-0.40988 -0.271335,-0.76053 -0.642855,-0.88109 0.07238,-0.13198 0.113172,-0.28351 0.113172,-0.44338 0,-0.40971 -0.271056,-0.75987 -0.642338,-0.88057 0.0721,-0.13152 0.113171,-0.28177 0.113171,-0.44131 0,-0.49433 -0.394519,-0.9022 -0.883667,-0.9245 0.05813,-0.1208 0.09095,-0.25572 0.09095,-0.3979 0,-0.50845 -0.417589,-0.92605 -0.926042,-0.92605 z" />
        <path
           style="color:#000000;fill:#ec7523;stroke-width:0.794189;stroke-linecap:round;stroke-linejoin:round;-inkscape-stroke:none;paint-order:markers fill stroke"
           d="m 27.873047,356.29297 c -0.603734,0 -1.097656,0.49392 -1.097656,1.09765 v 0.71485 c 0,0.60373 0.493922,1.09766 1.097656,1.09765 h 0.980469 c 0.603734,0 1.097656,-0.49392 1.097656,-1.09765 v -0.71485 c 0,-0.60373 -0.493922,-1.09765 -1.097656,-1.09765 z"
           id="path60400" />
        <path
           id="path64598"
           style="color:#000000;fill:#e3482c;fill-opacity:1;stroke-width:0.794189;stroke-linecap:round;stroke-linejoin:round;-inkscape-stroke:none;paint-order:markers fill stroke"
           d="m 27.873234,356.29302 c -0.43792,0 -0.81796,0.25989 -0.993738,0.63304 0.14129,-0.0666 0.298757,-0.10387 0.464571,-0.10387 h 0.980302 c 0.603734,0 1.097607,0.49387 1.097607,1.09761 v 0.71468 c 0,0.16581 -0.03731,0.32328 -0.103869,0.46457 0.373151,-0.17578 0.633036,-0.55582 0.633036,-0.99374 v -0.71468 c 0,-0.60373 -0.493873,-1.09761 -1.097607,-1.09761 z" />
      </g>
    </g>
  </g>
</svg>
