<?xml version="1.0" encoding="UTF-8" standalone="no"?>
<svg
   xmlns:dc="http://purl.org/dc/elements/1.1/"
   xmlns:cc="http://creativecommons.org/ns#"
   xmlns:rdf="http://www.w3.org/1999/02/22-rdf-syntax-ns#"
   xmlns:svg="http://www.w3.org/2000/svg"
   xmlns="http://www.w3.org/2000/svg"
   xmlns:sodipodi="http://sodipodi.sourceforge.net/DTD/sodipodi-0.dtd"
   xmlns:inkscape="http://www.inkscape.org/namespaces/inkscape"
   inkscape:export-ydpi="768"
   inkscape:export-xdpi="768"
   inkscape:export-filename="C:\Users\adnan\Downloads\New folder\png\5 - No Plastic.png"
   sodipodi:docname="6 - Save Water.svg"
   inkscape:version="1.0 (4035a4fb49, 2020-05-01)"
   id="svg979"
   version="1.1"
   viewBox="0 0 16.933334 16.933333"
   height="48pt"
   width="48pt">
  <defs
     id="defs973" />
  <sodipodi:namedview
     inkscape:snap-others="false"
     inkscape:bbox-nodes="true"
     inkscape:snap-bbox="true"
     inkscape:snap-nodes="false"
     inkscape:document-rotation="0"
     inkscape:window-maximized="1"
     inkscape:window-y="-8"
     inkscape:window-x="-8"
     inkscape:window-height="706"
     inkscape:window-width="1366"
     units="pt"
     showgrid="false"
     inkscape:current-layer="layer1"
     inkscape:document-units="pt"
     inkscape:cy="32"
     inkscape:cx="32"
     inkscape:zoom="8.546875"
     inkscape:pageshadow="2"
     inkscape:pageopacity="0.0"
     borderopacity="1.0"
     bordercolor="#666666"
     pagecolor="#ffffff"
     id="base">
    <inkscape:grid
       id="grid1526"
       type="xygrid" />
    <sodipodi:guide
       inkscape:locked="false"
       id="guide1528"
       orientation="56.666615,0"
       position="0.97013909,15.963209" />
    <sodipodi:guide
       inkscape:locked="false"
       id="guide1530"
       orientation="0,56.666667"
       position="0.97013909,0.97016731" />
    <sodipodi:guide
       inkscape:locked="false"
       id="guide1532"
       orientation="-56.666615,0"
       position="15.963195,0.97016731" />
    <sodipodi:guide
       inkscape:locked="false"
       id="guide1534"
       orientation="0,-56.666667"
       position="15.963195,15.963209" />
  </sodipodi:namedview>
  <metadata
     id="metadata976">
    <rdf:RDF>
      <cc:Work
         rdf:about="">
        <dc:format>image/svg+xml</dc:format>
        <dc:type
           rdf:resource="http://purl.org/dc/dcmitype/StillImage" />
        <dc:title></dc:title>
      </cc:Work>
    </rdf:RDF>
  </metadata>
  <g
     transform="translate(0,-280.06668)"
     id="layer1"
     inkscape:groupmode="layer"
     inkscape:label="Layer 1">
    <g
       transform="matrix(1.2317763,0,0,1.2317763,54.876007,-69.482862)"
       style="display:inline;stroke-width:0.811836"
       id="g1425">
      <path
         id="path1401"
         d="m -37.679688,284.56445 c -1.235417,0.0173 -2.778245,0.57343 -3.953124,1.49024 a 0.2645835,0.2645835 0 0 0 -0.04688,0.37304 0.2645835,0.2645835 0 0 0 0.371094,0.0449 c 1.076146,-0.83976 2.555899,-1.36332 3.632813,-1.37891 3.07176,0 5.554684,2.48489 5.554687,5.55664 1e-6,1.39625 -0.512229,2.66859 -1.361328,3.64453 a 0.2645835,0.2645835 0 0 0 0.02539,0.37305 0.2645835,0.2645835 0 0 0 0.373047,-0.0254 c 0.929491,-1.06834 1.492188,-2.46595 1.492187,-3.99219 -3e-6,-3.35773 -2.72624,-6.08594 -6.083984,-6.08594 a 0.26460996,0.26460996 0 0 0 -0.0039,0 z m -4.416015,2.00196 a 0.2645835,0.2645835 0 0 0 -0.171875,0.0898 c -0.930172,1.06852 -1.494139,2.46728 -1.494141,3.99414 -2e-6,3.35775 2.72819,6.08594 6.085938,6.08594 1.524295,0 2.920464,-0.56285 3.988281,-1.49024 a 0.2645835,0.2645835 0 0 0 0.02539,-0.37304 0.2645835,0.2645835 0 0 0 -0.373047,-0.0254 c -0.975463,0.84717 -2.246157,1.35937 -3.640625,1.35937 -3.071764,0 -5.556643,-2.48487 -5.556641,-5.55664 2e-6,-1.39682 0.513556,-2.67038 1.363281,-3.64648 a 0.2645835,0.2645835 0 0 0 -0.02539,-0.37305 0.2645835,0.2645835 0 0 0 -0.201171,-0.0644 z"
         style="color:#000000;font-style:normal;font-variant:normal;font-weight:normal;font-stretch:normal;font-size:medium;line-height:normal;font-family:sans-serif;font-variant-ligatures:normal;font-variant-position:normal;font-variant-caps:normal;font-variant-numeric:normal;font-variant-alternates:normal;font-variant-east-asian:normal;font-feature-settings:normal;font-variation-settings:normal;text-indent:0;text-align:start;text-decoration:none;text-decoration-line:none;text-decoration-style:solid;text-decoration-color:#000000;letter-spacing:normal;word-spacing:normal;text-transform:none;writing-mode:lr-tb;direction:ltr;text-orientation:mixed;dominant-baseline:auto;baseline-shift:baseline;text-anchor:start;white-space:normal;shape-padding:0;shape-margin:0;inline-size:0;clip-rule:nonzero;display:inline;overflow:visible;visibility:visible;opacity:1;isolation:auto;mix-blend-mode:normal;color-interpolation:sRGB;color-interpolation-filters:linearRGB;solid-color:#000000;solid-opacity:1;vector-effect:none;fill:#143441;fill-opacity:1;fill-rule:nonzero;stroke:none;stroke-width:0.429597;stroke-linecap:round;stroke-linejoin:round;stroke-miterlimit:4;stroke-dasharray:none;stroke-dashoffset:0;stroke-opacity:1;color-rendering:auto;image-rendering:auto;shape-rendering:auto;text-rendering:auto;enable-background:accumulate;stop-color:#000000;stop-opacity:1" />
      <path
         id="path1405"
         d="m -41.460938,285.14648 a 0.2645835,0.2645835 0 0 0 -0.263671,0.26563 v 0.87305 a 0.26460996,0.26460996 0 0 0 0.220703,0.25976 l 0.875,0.14453 a 0.2645835,0.2645835 0 0 0 0.302734,-0.21875 0.2645835,0.2645835 0 0 0 -0.21875,-0.30468 l -0.65039,-0.10547 v -0.64844 a 0.2645835,0.2645835 0 0 0 -0.265626,-0.26563 z"
         style="color:#000000;font-style:normal;font-variant:normal;font-weight:normal;font-stretch:normal;font-size:medium;line-height:normal;font-family:sans-serif;font-variant-ligatures:normal;font-variant-position:normal;font-variant-caps:normal;font-variant-numeric:normal;font-variant-alternates:normal;font-variant-east-asian:normal;font-feature-settings:normal;font-variation-settings:normal;text-indent:0;text-align:start;text-decoration:none;text-decoration-line:none;text-decoration-style:solid;text-decoration-color:#000000;letter-spacing:normal;word-spacing:normal;text-transform:none;writing-mode:lr-tb;direction:ltr;text-orientation:mixed;dominant-baseline:auto;baseline-shift:baseline;text-anchor:start;white-space:normal;shape-padding:0;shape-margin:0;inline-size:0;clip-rule:nonzero;display:inline;overflow:visible;visibility:visible;opacity:1;isolation:auto;mix-blend-mode:normal;color-interpolation:sRGB;color-interpolation-filters:linearRGB;solid-color:#000000;solid-opacity:1;vector-effect:none;fill:#143441;fill-opacity:1;fill-rule:nonzero;stroke:none;stroke-width:0.429597;stroke-linecap:round;stroke-linejoin:round;stroke-miterlimit:4;stroke-dasharray:none;stroke-dashoffset:0;stroke-opacity:1;color-rendering:auto;image-rendering:auto;shape-rendering:auto;text-rendering:auto;enable-background:accumulate;stop-color:#000000;stop-opacity:1" />
      <path
         id="path1410"
         d="m -34.757812,294.60547 a 0.2645835,0.2645835 0 0 0 -0.259766,0.22265 0.2645835,0.2645835 0 0 0 0.216797,0.30469 l 0.652343,0.10547 v 0.64844 a 0.2645835,0.2645835 0 0 0 0.263672,0.26562 0.2645835,0.2645835 0 0 0 0.265625,-0.26562 v -0.87305 a 0.26460996,0.26460996 0 0 0 -0.222656,-0.26172 l -0.873047,-0.14257 a 0.2645835,0.2645835 0 0 0 -0.04297,-0.004 z"
         style="color:#000000;font-style:normal;font-variant:normal;font-weight:normal;font-stretch:normal;font-size:medium;line-height:normal;font-family:sans-serif;font-variant-ligatures:normal;font-variant-position:normal;font-variant-caps:normal;font-variant-numeric:normal;font-variant-alternates:normal;font-variant-east-asian:normal;font-feature-settings:normal;font-variation-settings:normal;text-indent:0;text-align:start;text-decoration:none;text-decoration-line:none;text-decoration-style:solid;text-decoration-color:#000000;letter-spacing:normal;word-spacing:normal;text-transform:none;writing-mode:lr-tb;direction:ltr;text-orientation:mixed;dominant-baseline:auto;baseline-shift:baseline;text-anchor:start;white-space:normal;shape-padding:0;shape-margin:0;inline-size:0;clip-rule:nonzero;display:inline;overflow:visible;visibility:visible;opacity:1;isolation:auto;mix-blend-mode:normal;color-interpolation:sRGB;color-interpolation-filters:linearRGB;solid-color:#000000;solid-opacity:1;vector-effect:none;fill:#143441;fill-opacity:1;fill-rule:nonzero;stroke:none;stroke-width:0.429597;stroke-linecap:round;stroke-linejoin:round;stroke-miterlimit:4;stroke-dasharray:none;stroke-dashoffset:0;stroke-opacity:1;color-rendering:auto;image-rendering:auto;shape-rendering:auto;text-rendering:auto;enable-background:accumulate;stop-color:#000000;stop-opacity:1" />
      <path
         id="path1364"
         d="m -37.675781,286.15234 c -0.28635,0 -0.531257,0.15445 -0.707031,0.35547 -0.175775,0.20102 -0.30676,0.45231 -0.427735,0.72852 -0.241949,0.55242 -0.440586,1.2093 -0.689453,1.70703 -0.509259,1.01852 -1.072455,1.58533 -1.216797,2.5957 -0.121697,0.85187 0.232284,1.63488 0.8125,2.1875 0.580216,0.55263 1.388975,0.89258 2.228516,0.89258 0.839541,0 1.646346,-0.33995 2.226562,-0.89258 0.580216,-0.55262 0.934198,-1.33563 0.8125,-2.1875 -0.08122,-0.56854 -0.304188,-1.00748 -0.564453,-1.45117 l -0.738281,-1.32617 c -10e-4,-0.002 -9.23e-4,-0.006 -0.002,-0.008 -0.224306,-0.50016 -0.411443,-1.10743 -0.644532,-1.61329 -0.117079,-0.25408 -0.245208,-0.48497 -0.416015,-0.66796 -0.170807,-0.183 -0.404654,-0.32032 -0.673828,-0.32032 z"
         style="color:#000000;font-style:normal;font-variant:normal;font-weight:normal;font-stretch:normal;font-size:medium;line-height:normal;font-family:sans-serif;font-variant-ligatures:normal;font-variant-position:normal;font-variant-caps:normal;font-variant-numeric:normal;font-variant-alternates:normal;font-variant-east-asian:normal;font-feature-settings:normal;font-variation-settings:normal;text-indent:0;text-align:start;text-decoration:none;text-decoration-line:none;text-decoration-style:solid;text-decoration-color:#000000;letter-spacing:normal;word-spacing:normal;text-transform:none;writing-mode:lr-tb;direction:ltr;text-orientation:mixed;dominant-baseline:auto;baseline-shift:baseline;text-anchor:start;white-space:normal;shape-padding:0;shape-margin:0;inline-size:0;clip-rule:nonzero;display:inline;overflow:visible;visibility:visible;isolation:auto;mix-blend-mode:normal;color-interpolation:sRGB;color-interpolation-filters:linearRGB;solid-color:#000000;solid-opacity:1;vector-effect:none;fill:#87d1ee;fill-opacity:1;fill-rule:nonzero;stroke:none;stroke-width:0.429597;stroke-linecap:round;stroke-linejoin:round;stroke-miterlimit:4;stroke-dasharray:none;stroke-dashoffset:0;stroke-opacity:1;color-rendering:auto;image-rendering:auto;shape-rendering:auto;text-rendering:auto;enable-background:accumulate;stop-color:#000000" />
      <path
         id="path1314"
         d="m -33.453125,290.65039 a 0.2645835,0.2645835 0 0 0 -0.109375,0.0273 l -0.529297,0.26563 a 0.2645835,0.2645835 0 0 0 -0.117187,0.35352 0.2645835,0.2645835 0 0 0 0.355468,0.11914 l 0.529297,-0.26563 a 0.2645835,0.2645835 0 0 0 0.117188,-0.35351 0.2645835,0.2645835 0 0 0 -0.246094,-0.14649 z"
         style="color:#000000;font-style:normal;font-variant:normal;font-weight:normal;font-stretch:normal;font-size:medium;line-height:normal;font-family:sans-serif;font-variant-ligatures:normal;font-variant-position:normal;font-variant-caps:normal;font-variant-numeric:normal;font-variant-alternates:normal;font-variant-east-asian:normal;font-feature-settings:normal;font-variation-settings:normal;text-indent:0;text-align:start;text-decoration:none;text-decoration-line:none;text-decoration-style:solid;text-decoration-color:#000000;letter-spacing:normal;word-spacing:normal;text-transform:none;writing-mode:lr-tb;direction:ltr;text-orientation:mixed;dominant-baseline:auto;baseline-shift:baseline;text-anchor:start;white-space:normal;shape-padding:0;shape-margin:0;inline-size:0;clip-rule:nonzero;display:inline;overflow:visible;visibility:visible;isolation:auto;mix-blend-mode:normal;color-interpolation:sRGB;color-interpolation-filters:linearRGB;solid-color:#000000;solid-opacity:1;vector-effect:none;fill:#2bb3cd;fill-opacity:1;fill-rule:nonzero;stroke:none;stroke-width:0.429597;stroke-linecap:round;stroke-linejoin:round;stroke-miterlimit:4;stroke-dasharray:none;stroke-dashoffset:0;stroke-opacity:1;color-rendering:auto;image-rendering:auto;shape-rendering:auto;text-rendering:auto;enable-background:accumulate;stop-color:#000000" />
      <path
         id="path1326"
         d="m -33.980469,292.23828 a 0.2645835,0.2645835 0 0 0 -0.228515,0.14453 0.2645835,0.2645835 0 0 0 0.117187,0.35547 l 0.529297,0.26563 a 0.2645835,0.2645835 0 0 0 0.355469,-0.11914 0.2645835,0.2645835 0 0 0 -0.117188,-0.35547 l -0.529297,-0.26368 a 0.2645835,0.2645835 0 0 0 -0.126953,-0.0273 z"
         style="color:#000000;font-style:normal;font-variant:normal;font-weight:normal;font-stretch:normal;font-size:medium;line-height:normal;font-family:sans-serif;font-variant-ligatures:normal;font-variant-position:normal;font-variant-caps:normal;font-variant-numeric:normal;font-variant-alternates:normal;font-variant-east-asian:normal;font-feature-settings:normal;font-variation-settings:normal;text-indent:0;text-align:start;text-decoration:none;text-decoration-line:none;text-decoration-style:solid;text-decoration-color:#000000;letter-spacing:normal;word-spacing:normal;text-transform:none;writing-mode:lr-tb;direction:ltr;text-orientation:mixed;dominant-baseline:auto;baseline-shift:baseline;text-anchor:start;white-space:normal;shape-padding:0;shape-margin:0;inline-size:0;clip-rule:nonzero;display:inline;overflow:visible;visibility:visible;isolation:auto;mix-blend-mode:normal;color-interpolation:sRGB;color-interpolation-filters:linearRGB;solid-color:#000000;solid-opacity:1;vector-effect:none;fill:#2bb3cd;fill-opacity:1;fill-rule:nonzero;stroke:none;stroke-width:0.429597;stroke-linecap:round;stroke-linejoin:round;stroke-miterlimit:4;stroke-dasharray:none;stroke-dashoffset:0;stroke-opacity:1;color-rendering:auto;image-rendering:auto;shape-rendering:auto;text-rendering:auto;enable-background:accumulate;stop-color:#000000" />
      <path
         id="path1339"
         d="M -41.390625,292.23828 A 0.2645835,0.2645835 0 0 0 -41.5,292.26562 l -0.529297,0.26368 a 0.2645835,0.2645835 0 0 0 -0.117187,0.35547 0.2645835,0.2645835 0 0 0 0.355468,0.11914 l 0.529297,-0.26563 a 0.2645835,0.2645835 0 0 0 0.117188,-0.35547 0.2645835,0.2645835 0 0 0 -0.246094,-0.14453 z"
         style="color:#000000;font-style:normal;font-variant:normal;font-weight:normal;font-stretch:normal;font-size:medium;line-height:normal;font-family:sans-serif;font-variant-ligatures:normal;font-variant-position:normal;font-variant-caps:normal;font-variant-numeric:normal;font-variant-alternates:normal;font-variant-east-asian:normal;font-feature-settings:normal;font-variation-settings:normal;text-indent:0;text-align:start;text-decoration:none;text-decoration-line:none;text-decoration-style:solid;text-decoration-color:#000000;letter-spacing:normal;word-spacing:normal;text-transform:none;writing-mode:lr-tb;direction:ltr;text-orientation:mixed;dominant-baseline:auto;baseline-shift:baseline;text-anchor:start;white-space:normal;shape-padding:0;shape-margin:0;inline-size:0;clip-rule:nonzero;display:inline;overflow:visible;visibility:visible;isolation:auto;mix-blend-mode:normal;color-interpolation:sRGB;color-interpolation-filters:linearRGB;solid-color:#000000;solid-opacity:1;vector-effect:none;fill:#2bb3cd;fill-opacity:1;fill-rule:nonzero;stroke:none;stroke-width:0.429597;stroke-linecap:round;stroke-linejoin:round;stroke-miterlimit:4;stroke-dasharray:none;stroke-dashoffset:0;stroke-opacity:1;color-rendering:auto;image-rendering:auto;shape-rendering:auto;text-rendering:auto;enable-background:accumulate;stop-color:#000000" />
      <path
         id="path1352"
         d="m -41.917969,290.65039 a 0.2645835,0.2645835 0 0 0 -0.228515,0.14649 0.2645835,0.2645835 0 0 0 0.117187,0.35351 L -41.5,291.41602 a 0.2645835,0.2645835 0 0 0 0.355469,-0.11914 0.2645835,0.2645835 0 0 0 -0.117188,-0.35352 l -0.529297,-0.26563 a 0.2645835,0.2645835 0 0 0 -0.126953,-0.0273 z"
         style="color:#000000;font-style:normal;font-variant:normal;font-weight:normal;font-stretch:normal;font-size:medium;line-height:normal;font-family:sans-serif;font-variant-ligatures:normal;font-variant-position:normal;font-variant-caps:normal;font-variant-numeric:normal;font-variant-alternates:normal;font-variant-east-asian:normal;font-feature-settings:normal;font-variation-settings:normal;text-indent:0;text-align:start;text-decoration:none;text-decoration-line:none;text-decoration-style:solid;text-decoration-color:#000000;letter-spacing:normal;word-spacing:normal;text-transform:none;writing-mode:lr-tb;direction:ltr;text-orientation:mixed;dominant-baseline:auto;baseline-shift:baseline;text-anchor:start;white-space:normal;shape-padding:0;shape-margin:0;inline-size:0;clip-rule:nonzero;display:inline;overflow:visible;visibility:visible;isolation:auto;mix-blend-mode:normal;color-interpolation:sRGB;color-interpolation-filters:linearRGB;solid-color:#000000;solid-opacity:1;vector-effect:none;fill:#2bb3cd;fill-opacity:1;fill-rule:nonzero;stroke:none;stroke-width:0.429597;stroke-linecap:round;stroke-linejoin:round;stroke-miterlimit:4;stroke-dasharray:none;stroke-dashoffset:0;stroke-opacity:1;color-rendering:auto;image-rendering:auto;shape-rendering:auto;text-rendering:auto;enable-background:accumulate;stop-color:#000000" />
      <path
         transform="matrix(0.26458333,0,0,0.26458333,0,284.3)"
         d="m -142.39648,7 c -1.08227,0 -2.00754,0.5839894 -2.67188,1.34375 -0.66435,0.7597606 -1.15996,1.709963 -1.61719,2.753906 -0.91445,2.087887 -1.66487,4.569988 -2.60547,6.451172 -0.11075,0.22151 -0.22417,0.420011 -0.33593,0.63086 1.85695,3.140452 7.74834,2.049415 9.27343,5.099609 1.94437,3.888743 1.84927,11.432935 6.92188,11.769531 1.85605,-2.040297 2.94097,-4.753123 2.52148,-7.689453 -0.30697,-2.148813 -1.14913,-3.807436 -2.13281,-5.484375 l -2.79101,-5.011719 c -0.004,-0.0076 -0.004,-0.02369 -0.008,-0.03125 -0.84777,-1.890368 -1.55458,-4.183791 -2.43554,-6.095703 -0.44251,-0.9603022 -0.9267,-1.8337748 -1.57227,-2.5253905 C -140.49518,7.519284 -141.37913,7 -142.39648,7 Z"
         style="fill:#6bc1e3;fill-opacity:1;stroke:none;stroke-width:1.62367;stroke-linecap:round;stroke-linejoin:round;stroke-opacity:1"
         id="path1388" />
      <path
         id="path1378"
         d="m -35.113281,286.68164 c -0.171561,0 -0.319547,0.0999 -0.408203,0.20508 -0.08866,0.1052 -0.143773,0.22164 -0.195313,0.34375 -0.103079,0.24421 -0.183614,0.51656 -0.275391,0.70703 -0.196675,0.40815 -0.439351,0.66194 -0.503906,1.13086 -0.112076,0.81405 0.613908,1.46289 1.382813,1.46289 0.768905,0 1.492938,-0.64884 1.380859,-1.46289 -0.06454,-0.46876 -0.306685,-0.72157 -0.503906,-1.13086 -0.09183,-0.19059 -0.17027,-0.46288 -0.273438,-0.70703 -0.05158,-0.12208 -0.108718,-0.23861 -0.197265,-0.34375 -0.08855,-0.10515 -0.234658,-0.20508 -0.40625,-0.20508 z"
         style="color:#000000;font-style:normal;font-variant:normal;font-weight:normal;font-stretch:normal;font-size:medium;line-height:normal;font-family:sans-serif;font-variant-ligatures:normal;font-variant-position:normal;font-variant-caps:normal;font-variant-numeric:normal;font-variant-alternates:normal;font-variant-east-asian:normal;font-feature-settings:normal;font-variation-settings:normal;text-indent:0;text-align:start;text-decoration:none;text-decoration-line:none;text-decoration-style:solid;text-decoration-color:#000000;letter-spacing:normal;word-spacing:normal;text-transform:none;writing-mode:lr-tb;direction:ltr;text-orientation:mixed;dominant-baseline:auto;baseline-shift:baseline;text-anchor:start;white-space:normal;shape-padding:0;shape-margin:0;inline-size:0;clip-rule:nonzero;display:inline;overflow:visible;visibility:visible;isolation:auto;mix-blend-mode:normal;color-interpolation:sRGB;color-interpolation-filters:linearRGB;solid-color:#000000;solid-opacity:1;vector-effect:none;fill:#2bb3cd;fill-opacity:1;fill-rule:nonzero;stroke:none;stroke-width:0.429597;stroke-linecap:round;stroke-linejoin:round;stroke-miterlimit:4;stroke-dasharray:none;stroke-dashoffset:0;stroke-opacity:1;color-rendering:auto;image-rendering:auto;shape-rendering:auto;text-rendering:auto;enable-background:accumulate;stop-color:#000000" />
      <path
         id="path1304"
         d="m -36.603516,290.19531 a 0.2645835,0.2645835 0 0 0 -0.109375,0.0215 0.2645835,0.2645835 0 0 0 -0.136718,0.34961 c 0.05643,0.12906 0.111197,0.26432 0.164062,0.39648 a 0.2645835,0.2645835 0 0 0 0.34375,0.14649 0.2645835,0.2645835 0 0 0 0.148438,-0.34376 c -0.05265,-0.13163 -0.108749,-0.27219 -0.169922,-0.4121 a 0.2645835,0.2645835 0 0 0 -0.240235,-0.15821 z"
         style="color:#000000;font-style:normal;font-variant:normal;font-weight:normal;font-stretch:normal;font-size:medium;line-height:normal;font-family:sans-serif;font-variant-ligatures:normal;font-variant-position:normal;font-variant-caps:normal;font-variant-numeric:normal;font-variant-alternates:normal;font-variant-east-asian:normal;font-feature-settings:normal;font-variation-settings:normal;text-indent:0;text-align:start;text-decoration:none;text-decoration-line:none;text-decoration-style:solid;text-decoration-color:#000000;letter-spacing:normal;word-spacing:normal;text-transform:none;writing-mode:lr-tb;direction:ltr;text-orientation:mixed;dominant-baseline:auto;baseline-shift:baseline;text-anchor:start;white-space:normal;shape-padding:0;shape-margin:0;inline-size:0;clip-rule:nonzero;display:inline;overflow:visible;visibility:visible;opacity:1;isolation:auto;mix-blend-mode:normal;color-interpolation:sRGB;color-interpolation-filters:linearRGB;solid-color:#000000;solid-opacity:1;vector-effect:none;fill:#27a1b8;fill-opacity:1;fill-rule:nonzero;stroke:none;stroke-width:0.429597;stroke-linecap:round;stroke-linejoin:round;stroke-miterlimit:4;stroke-dasharray:none;stroke-dashoffset:0;stroke-opacity:1;color-rendering:auto;image-rendering:auto;shape-rendering:auto;text-rendering:auto;enable-background:accumulate;stop-color:#000000;stop-opacity:1" />
      <path
         id="path1308"
         d="m -36.144531,291.57422 a 0.2645835,0.2645835 0 0 0 -0.06836,0.0137 0.2645835,0.2645835 0 0 0 -0.169921,0.33399 c 0.07201,0.21849 0.06174,0.37025 0.01172,0.49609 -0.05002,0.12584 -0.149103,0.2358 -0.298828,0.33203 -0.29945,0.19247 -0.794114,0.29883 -1.24414,0.29883 a 0.2645835,0.2645835 0 0 0 -0.265626,0.26562 0.2645835,0.2645835 0 0 0 0.265626,0.26367 c 0.52523,0 1.095427,-0.10269 1.53125,-0.38281 0.217911,-0.14006 0.404575,-0.33214 0.503906,-0.58203 0.09933,-0.24989 0.102454,-0.54655 0,-0.85742 a 0.2645835,0.2645835 0 0 0 -0.265625,-0.18164 z"
         style="color:#000000;font-style:normal;font-variant:normal;font-weight:normal;font-stretch:normal;font-size:medium;line-height:normal;font-family:sans-serif;font-variant-ligatures:normal;font-variant-position:normal;font-variant-caps:normal;font-variant-numeric:normal;font-variant-alternates:normal;font-variant-east-asian:normal;font-feature-settings:normal;font-variation-settings:normal;text-indent:0;text-align:start;text-decoration:none;text-decoration-line:none;text-decoration-style:solid;text-decoration-color:#000000;letter-spacing:normal;word-spacing:normal;text-transform:none;writing-mode:lr-tb;direction:ltr;text-orientation:mixed;dominant-baseline:auto;baseline-shift:baseline;text-anchor:start;white-space:normal;shape-padding:0;shape-margin:0;inline-size:0;clip-rule:nonzero;display:inline;overflow:visible;visibility:visible;opacity:1;isolation:auto;mix-blend-mode:normal;color-interpolation:sRGB;color-interpolation-filters:linearRGB;solid-color:#000000;solid-opacity:1;vector-effect:none;fill:#2bb3cd;fill-opacity:1;fill-rule:nonzero;stroke:none;stroke-width:0.429597;stroke-linecap:round;stroke-linejoin:round;stroke-miterlimit:4;stroke-dasharray:none;stroke-dashoffset:0;stroke-opacity:1;color-rendering:auto;image-rendering:auto;shape-rendering:auto;text-rendering:auto;enable-background:accumulate;stop-color:#000000;stop-opacity:1" />
      <path
         transform="matrix(0.26458333,0,0,0.26458333,0,284.3)"
         d="m -136.60938,27.492188 a 1.0000006,1.0000006 0 0 0 -0.25781,0.05273 1.0000006,1.0000006 0 0 0 -0.64258,1.261719 c 0.27216,0.825789 0.23397,1.399384 0.0449,1.875 -0.0749,0.188512 -0.1887,0.364995 -0.32227,0.535156 0.27841,0.682152 0.60043,1.30997 0.98633,1.855469 0.50819,-0.452508 0.93456,-0.996364 1.19531,-1.652344 0.37542,-0.944466 0.38723,-2.065293 0,-3.240234 a 1.0000006,1.0000006 0 0 0 -1.00391,-0.6875 z"
         style="fill:#27a1b8;fill-opacity:1;stroke:none;stroke-width:1.62367;stroke-linecap:round;stroke-linejoin:round;stroke-opacity:1"
         id="path1393" />
    </g>
  </g>
</svg>
