<?xml version="1.0" encoding="UTF-8" standalone="no"?>
<svg
   inkscape:export-ydpi="768"
   inkscape:export-xdpi="768"
   inkscape:export-filename="C:\Users\RainBoyz\Desktop\EXP\FLAT ICON\SVG\Protect Earth.png"
   width="48pt"
   height="48pt"
   viewBox="0 0 16.933334 16.933333"
   version="1.1"
   id="svg979"
   inkscape:version="1.1 (c68e22c387, 2021-05-23)"
   sodipodi:docname="18 - Protect Earth.svg"
   xmlns:inkscape="http://www.inkscape.org/namespaces/inkscape"
   xmlns:sodipodi="http://sodipodi.sourceforge.net/DTD/sodipodi-0.dtd"
   xmlns="http://www.w3.org/2000/svg"
   xmlns:svg="http://www.w3.org/2000/svg"
   xmlns:rdf="http://www.w3.org/1999/02/22-rdf-syntax-ns#"
   xmlns:cc="http://creativecommons.org/ns#"
   xmlns:dc="http://purl.org/dc/elements/1.1/">
  <defs
     id="defs973" />
  <sodipodi:namedview
     id="base"
     pagecolor="#ffffff"
     bordercolor="#666666"
     borderopacity="1.0"
     inkscape:pageopacity="0.0"
     inkscape:pageshadow="2"
     inkscape:zoom="7.6875"
     inkscape:cx="31.934959"
     inkscape:cy="32"
     inkscape:document-units="pt"
     inkscape:current-layer="layer1"
     showgrid="false"
     units="pt"
     inkscape:window-width="1366"
     inkscape:window-height="716"
     inkscape:window-x="-8"
     inkscape:window-y="-8"
     inkscape:window-maximized="1"
     inkscape:document-rotation="0"
     inkscape:snap-bbox="true"
     inkscape:bbox-nodes="true"
     inkscape:snap-nodes="false"
     inkscape:pagecheckerboard="0"
     showguides="false">
    <inkscape:grid
       type="xygrid"
       id="grid1526" />
    <sodipodi:guide
       position="0.97013909,15.963209"
       orientation="56.666615,0"
       id="guide1528"
       inkscape:locked="false" />
    <sodipodi:guide
       position="0.97013909,0.97016731"
       orientation="0,56.666667"
       id="guide1530"
       inkscape:locked="false" />
    <sodipodi:guide
       position="15.963195,0.97016731"
       orientation="-56.666615,0"
       id="guide1532"
       inkscape:locked="false" />
    <sodipodi:guide
       position="15.963195,15.963209"
       orientation="0,-56.666667"
       id="guide1534"
       inkscape:locked="false" />
  </sodipodi:namedview>
  <metadata
     id="metadata976">
    <rdf:RDF>
      <cc:Work
         rdf:about="">
        <dc:format>image/svg+xml</dc:format>
        <dc:type
           rdf:resource="http://purl.org/dc/dcmitype/StillImage" />
      </cc:Work>
    </rdf:RDF>
  </metadata>
  <g
     inkscape:label="Layer 1"
     inkscape:groupmode="layer"
     id="layer1"
     transform="translate(0,-280.06668)">
    <g
       id="g1201"
       style="display:inline"
       transform="matrix(1.2319611,0,0,1.2319611,0.64330275,-123.77533)">
      <path
         id="path1537"
         style="color:#000000;font-style:normal;font-variant:normal;font-weight:normal;font-stretch:normal;font-size:medium;line-height:normal;font-family:sans-serif;font-variant-ligatures:normal;font-variant-position:normal;font-variant-caps:normal;font-variant-numeric:normal;font-variant-alternates:normal;font-variant-east-asian:normal;font-feature-settings:normal;font-variation-settings:normal;text-indent:0;text-align:start;text-decoration:none;text-decoration-line:none;text-decoration-style:solid;text-decoration-color:#000000;letter-spacing:normal;word-spacing:normal;text-transform:none;writing-mode:lr-tb;direction:ltr;text-orientation:mixed;dominant-baseline:auto;baseline-shift:baseline;text-anchor:start;white-space:normal;shape-padding:0;shape-margin:0;inline-size:0;clip-rule:nonzero;display:inline;overflow:visible;visibility:visible;isolation:auto;mix-blend-mode:normal;color-interpolation:sRGB;color-interpolation-filters:linearRGB;solid-color:#000000;solid-opacity:1;vector-effect:none;fill:#46a05d;fill-opacity:1;fill-rule:nonzero;stroke:none;stroke-width:0.529166;stroke-linecap:round;stroke-linejoin:round;stroke-miterlimit:4;stroke-dasharray:none;stroke-dashoffset:0;stroke-opacity:1;color-rendering:auto;image-rendering:auto;shape-rendering:auto;text-rendering:auto;enable-background:accumulate;stop-color:#000000"
         d="m 10.667969,331.27148 c -0.290261,0.0231 -0.600595,0.17207 -0.7178514,0.45307 -0.089853,0.20935 -0.053626,0.47828 0.1242204,0.63096 0.123413,0.12063 0.242634,0.24578 0.369008,0.36323 0.334129,0.24181 0.775179,0.29064 1.16918,0.19373 0.240456,-0.0592 0.477575,-0.15029 0.68173,-0.29204 0.185867,-0.16098 0.04776,-0.41213 -0.139589,-0.49352 -0.251327,-0.17427 -0.497935,-0.35443 -0.722025,-0.56221 -0.195292,-0.17902 -0.451457,-0.29624 -0.719275,-0.29387 -0.0047,0.0136 -0.04096,-0.0139 -0.0454,6.5e-4 z" />
      <path
         id="path1178"
         style="color:#000000;font-style:normal;font-variant:normal;font-weight:normal;font-stretch:normal;font-size:medium;line-height:normal;font-family:sans-serif;font-variant-ligatures:normal;font-variant-position:normal;font-variant-caps:normal;font-variant-numeric:normal;font-variant-alternates:normal;font-variant-east-asian:normal;font-feature-settings:normal;font-variation-settings:normal;text-indent:0;text-align:start;text-decoration:none;text-decoration-line:none;text-decoration-style:solid;text-decoration-color:#000000;letter-spacing:normal;word-spacing:normal;text-transform:none;writing-mode:lr-tb;direction:ltr;text-orientation:mixed;dominant-baseline:auto;baseline-shift:baseline;text-anchor:start;white-space:normal;shape-padding:0;shape-margin:0;inline-size:0;clip-rule:nonzero;display:inline;overflow:visible;visibility:visible;isolation:auto;mix-blend-mode:normal;color-interpolation:sRGB;color-interpolation-filters:linearRGB;solid-color:#000000;solid-opacity:1;vector-effect:none;fill:#3a8f4c;fill-opacity:1;fill-rule:nonzero;stroke:none;stroke-width:0.529167;stroke-linecap:round;stroke-linejoin:round;stroke-miterlimit:4;stroke-dasharray:none;stroke-dashoffset:0;stroke-opacity:1;color-rendering:auto;image-rendering:auto;shape-rendering:auto;text-rendering:auto;enable-background:accumulate;stop-color:#000000"
         d="m 10.186643,331.59422 c 0.112491,0.15366 0.4466,0.26346 0.682109,0.47042 0.166296,0.1465 0.331495,0.29131 0.513539,0.41846 0.127127,0.0949 0.260381,0.18152 0.387791,0.27586 0.03926,0.0574 0.06322,0.10873 0.130856,0.0607 0.135724,-0.0557 0.273977,-0.11272 0.393276,-0.19932 0.185819,-0.16108 0.04757,-0.41213 -0.139777,-0.4935 -0.25128,-0.17425 -0.497981,-0.35424 -0.721841,-0.5622 -0.189903,-0.17372 -0.4366,-0.29026 -0.744882,-0.28 -0.308281,0.0102 -0.613562,0.15592 -0.501071,0.30958 z"
         sodipodi:nodetypes="cccccccccc" />
      <path
         id="path1522"
         style="color:#000000;font-style:normal;font-variant:normal;font-weight:normal;font-stretch:normal;font-size:medium;line-height:normal;font-family:sans-serif;font-variant-ligatures:normal;font-variant-position:normal;font-variant-caps:normal;font-variant-numeric:normal;font-variant-alternates:normal;font-variant-east-asian:normal;font-feature-settings:normal;font-variation-settings:normal;text-indent:0;text-align:start;text-decoration:none;text-decoration-line:none;text-decoration-style:solid;text-decoration-color:#000000;letter-spacing:normal;word-spacing:normal;text-transform:none;writing-mode:lr-tb;direction:ltr;text-orientation:mixed;dominant-baseline:auto;baseline-shift:baseline;text-anchor:start;white-space:normal;shape-padding:0;shape-margin:0;inline-size:0;clip-rule:nonzero;display:inline;overflow:visible;visibility:visible;isolation:auto;mix-blend-mode:normal;color-interpolation:sRGB;color-interpolation-filters:linearRGB;solid-color:#000000;solid-opacity:1;vector-effect:none;fill:#46a05d;fill-opacity:1;fill-rule:nonzero;stroke:none;stroke-width:0.529166;stroke-linecap:round;stroke-linejoin:round;stroke-miterlimit:4;stroke-dasharray:none;stroke-dashoffset:0;stroke-opacity:1;color-rendering:auto;image-rendering:auto;shape-rendering:auto;text-rendering:auto;enable-background:accumulate;stop-color:#000000"
         d="m 9.0597438,329.14068 c -0.2563746,0.54256 -0.3981549,1.17888 -0.2111518,1.76524 0.067972,0.20562 0.1687596,0.40687 0.3331967,0.55167 0.1555129,0.15207 0.3029924,0.3129 0.4643604,0.4586 0.2311573,0.18564 0.5781159,0.15989 0.8063059,-0.018 0.383418,-0.28854 0.526018,-0.83096 0.392249,-1.28349 -0.102646,-0.39572 -0.437813,-0.65653 -0.669132,-0.9727 -0.1975973,-0.25688 -0.376725,-0.52735 -0.5615664,-0.79315 -0.048738,-0.0533 -0.1199716,-0.0848 -0.2622681,-0.087 -0.1422966,-0.002 -0.2099054,0.22632 -0.2919937,0.37882 z"
         sodipodi:nodetypes="cccccccccc" />
      <path
         id="path1477"
         d="m 6.4453125,330.1582 c -0.2179248,0 -0.4469183,0.0166 -0.6796875,0.0469 a 0.26460996,0.26460996 0 0 0 -0.1484375,0.0703 l -4.3222656,4.11523 a 0.26460996,0.26460996 0 0 0 -0.078125,0.1543 c -0.046361,0.31427 -0.072266,0.63055 -0.072266,0.91602 0,2.92505 2.376133,5.30077 5.3007813,5.30078 2.9246689,10e-6 5.3007818,-2.37571 5.3007818,-5.30078 0,-2.92506 -2.3761136,-5.30275 -5.3007818,-5.30274 z"
         style="color:#000000;font-style:normal;font-variant:normal;font-weight:normal;font-stretch:normal;font-size:medium;line-height:normal;font-family:sans-serif;font-variant-ligatures:normal;font-variant-position:normal;font-variant-caps:normal;font-variant-numeric:normal;font-variant-alternates:normal;font-variant-east-asian:normal;font-feature-settings:normal;font-variation-settings:normal;text-indent:0;text-align:start;text-decoration:none;text-decoration-line:none;text-decoration-style:solid;text-decoration-color:#000000;letter-spacing:normal;word-spacing:normal;text-transform:none;writing-mode:lr-tb;direction:ltr;text-orientation:mixed;dominant-baseline:auto;baseline-shift:baseline;text-anchor:start;white-space:normal;shape-padding:0;shape-margin:0;inline-size:0;clip-rule:nonzero;display:inline;overflow:visible;visibility:visible;isolation:auto;mix-blend-mode:normal;color-interpolation:sRGB;color-interpolation-filters:linearRGB;solid-color:#000000;solid-opacity:1;vector-effect:none;fill:#87d1ee;fill-opacity:1;fill-rule:nonzero;stroke:none;stroke-width:0.529167;stroke-linecap:round;stroke-linejoin:round;stroke-miterlimit:4;stroke-dasharray:none;stroke-dashoffset:0;stroke-opacity:1;color-rendering:auto;image-rendering:auto;shape-rendering:auto;text-rendering:auto;enable-background:accumulate;stop-color:#000000" />
      <path
         id="path305"
         style="color:#000000;font-style:normal;font-variant:normal;font-weight:normal;font-stretch:normal;font-size:medium;line-height:normal;font-family:sans-serif;font-variant-ligatures:normal;font-variant-position:normal;font-variant-caps:normal;font-variant-numeric:normal;font-variant-alternates:normal;font-variant-east-asian:normal;font-feature-settings:normal;font-variation-settings:normal;text-indent:0;text-align:start;text-decoration:none;text-decoration-line:none;text-decoration-style:solid;text-decoration-color:#000000;letter-spacing:normal;word-spacing:normal;text-transform:none;writing-mode:lr-tb;direction:ltr;text-orientation:mixed;dominant-baseline:auto;baseline-shift:baseline;text-anchor:start;white-space:normal;shape-padding:0;shape-margin:0;inline-size:0;clip-rule:nonzero;display:inline;overflow:visible;visibility:visible;isolation:auto;mix-blend-mode:normal;color-interpolation:sRGB;color-interpolation-filters:linearRGB;solid-color:#000000;solid-opacity:1;vector-effect:none;fill:#2bb3cd;fill-opacity:1;fill-rule:nonzero;stroke:none;stroke-width:0.529167;stroke-linecap:round;stroke-linejoin:round;stroke-miterlimit:4;stroke-dasharray:none;stroke-dashoffset:0;stroke-opacity:1;color-rendering:auto;image-rendering:auto;shape-rendering:auto;text-rendering:auto;enable-background:accumulate;stop-color:#000000"
         d="m 6.4450846,330.15818 c -0.3315193,0.0274 -0.7487185,-0.0529 -0.9718456,0.25439 -1.4012656,1.33772 -2.8101614,2.66814 -4.2066639,4.01043 -0.098499,0.1858 0.2085739,-0.17339 0.2872661,-0.22806 1.0137253,-0.9618 2.0210149,-1.93096 3.038753,-2.88817 0.5355558,-0.14841 1.1186709,-0.0941 1.6663827,-0.0186 2.0934239,0.32292 3.8794921,2.02538 4.3072771,4.09915 0.331388,1.48322 -0.02086,3.09997 -0.9441023,4.30824 1.6013303,-1.17301 2.4269403,-3.29137 2.0289423,-5.23772 -0.375371,-2.08391 -2.119327,-3.82899 -4.2033396,-4.20468 -0.3301938,-0.0634 -0.6664692,-0.0951 -1.0026698,-0.095 z" />
      <path
         id="path1508"
         style="color:#000000;font-style:normal;font-variant:normal;font-weight:normal;font-stretch:normal;font-size:medium;line-height:normal;font-family:sans-serif;font-variant-ligatures:normal;font-variant-position:normal;font-variant-caps:normal;font-variant-numeric:normal;font-variant-alternates:normal;font-variant-east-asian:normal;font-feature-settings:normal;font-variation-settings:normal;text-indent:0;text-align:start;text-decoration:none;text-decoration-line:none;text-decoration-style:solid;text-decoration-color:#000000;letter-spacing:normal;word-spacing:normal;text-transform:none;writing-mode:lr-tb;direction:ltr;text-orientation:mixed;dominant-baseline:auto;baseline-shift:baseline;text-anchor:start;white-space:normal;shape-padding:0;shape-margin:0;inline-size:0;clip-rule:nonzero;display:inline;overflow:visible;visibility:visible;isolation:auto;mix-blend-mode:normal;color-interpolation:sRGB;color-interpolation-filters:linearRGB;solid-color:#000000;solid-opacity:1;vector-effect:none;fill:#50b86b;fill-opacity:1;fill-rule:nonzero;stroke:none;stroke-width:0.529167;stroke-linecap:round;stroke-linejoin:round;stroke-miterlimit:4;stroke-dasharray:none;stroke-dashoffset:0;stroke-opacity:1;color-rendering:auto;image-rendering:auto;shape-rendering:auto;text-rendering:auto;enable-background:accumulate;stop-color:#000000"
         d="m 6.4450846,330.15818 c -0.2655455,0.0164 -0.5516257,-0.009 -0.7996135,0.094 -0.3619907,0.3396 -0.723261,0.68109 -1.0781147,1.02806 -0.1195208,0.17846 0.015557,0.38043 0.04504,0.56703 0.1995516,0.75746 0.3991031,1.51491 0.5986547,2.27237 -0.00823,0.0199 0.081438,0.36652 0.1700134,0.48063 0.3680956,0.59785 1.0811242,0.89872 1.7565388,0.96995 0.5024544,0.0597 1.0566983,-0.18356 1.2507191,-0.67203 0.1403852,-0.26954 0.051017,-0.5779 0.1074622,-0.86154 0.1109461,-0.34384 0.4469633,-0.23671 0.6612772,-0.0559 0.3027939,0.18772 0.6636629,-0.0499 0.7574493,-0.35871 0.1724829,-0.39343 0.2042449,-0.82873 0.3086389,-1.23999 0.185465,-0.18664 0.250495,-0.48102 -0.0078,-0.64164 -0.9805679,-1.00303 -2.3662097,-1.58975 -3.7703041,-1.58222 z" />
      <path
         id="path1494"
         d="m 11.311454,335.13053 c -0.168749,0.13381 -0.4671,0.1282 -0.843359,0.092 -0.376259,-0.0362 -0.8266941,-0.10995 -1.199927,0.17002 -0.1786612,0.13402 -0.2694717,0.34347 -0.2816365,0.52968 -0.012166,0.18621 0.02982,0.35642 0.075964,0.51625 0.092288,0.31965 0.179202,0.61594 0.1550294,0.71262 -0.00771,0.0308 -0.1097592,0.1422 -0.304891,0.26251 -0.1951318,0.12031 -0.4480102,0.24798 -0.6562907,0.44804 -0.2082803,0.20006 -0.3614463,0.52975 -0.2635499,0.88832 0.097897,0.35856 0.3808521,0.7248 0.9172567,1.19372 0.087291,0.0765 0.2142849,0.0872 0.3131592,0.0264 1.5117208,-0.93353 2.5233608,-2.60341 2.5233608,-4.5098 0,-0.0636 -0.0056,-0.10579 -0.0062,-0.12867 -0.0032,-0.14035 -0.115493,-0.25374 -0.216989,-0.25711 -0.101495,-0.003 -0.162847,0.017 -0.211927,0.056 z"
         style="color:#000000;font-style:normal;font-variant:normal;font-weight:normal;font-stretch:normal;font-size:medium;line-height:normal;font-family:sans-serif;font-variant-ligatures:normal;font-variant-position:normal;font-variant-caps:normal;font-variant-numeric:normal;font-variant-alternates:normal;font-variant-east-asian:normal;font-feature-settings:normal;font-variation-settings:normal;text-indent:0;text-align:start;text-decoration:none;text-decoration-line:none;text-decoration-style:solid;text-decoration-color:#000000;letter-spacing:normal;word-spacing:normal;text-transform:none;writing-mode:lr-tb;direction:ltr;text-orientation:mixed;dominant-baseline:auto;baseline-shift:baseline;text-anchor:start;white-space:normal;shape-padding:0;shape-margin:0;inline-size:0;clip-rule:nonzero;display:inline;overflow:visible;visibility:visible;isolation:auto;mix-blend-mode:normal;color-interpolation:sRGB;color-interpolation-filters:linearRGB;solid-color:#000000;solid-opacity:1;vector-effect:none;fill:#50b86b;fill-opacity:1;fill-rule:nonzero;stroke:none;stroke-width:0.529167;stroke-linecap:round;stroke-linejoin:round;stroke-miterlimit:4;stroke-dasharray:none;stroke-dashoffset:0;stroke-opacity:1;color-rendering:auto;image-rendering:auto;shape-rendering:auto;text-rendering:auto;enable-background:accumulate;stop-color:#000000"
         sodipodi:nodetypes="cssssssssccsccc" />
      <path
         id="path1461"
         d="m 1.2159461,334.54396 c -0.046379,0.31439 -0.07183,0.63088 -0.07183,0.91622 0,2.72473 2.0607333,4.97191 4.7087565,5.26687 0.1558197,0.0174 0.2925476,-0.10366 0.2940389,-0.26045 0.00164,-0.18569 0.1294463,-0.41482 0.2775024,-0.68627 0.1480561,-0.27144 0.317822,-0.61555 0.2005044,-1.00665 -0.075744,-0.25253 -0.2502038,-0.43604 -0.4392496,-0.54157 -0.3876032,-0.19404 -1.0532846,-0.21596 -1.1875243,-0.35347 -0.08814,-0.17631 -0.1782673,-0.64588 -0.3054078,-1.09296 -0.1271405,-0.44707 -0.2966169,-0.9348 -0.7565429,-1.11879 -0.070913,-0.0284 -0.1386941,-0.0467 -0.2072225,-0.0672 -0.9079831,-1.50579 -1.3248272,-3.00184 -2.5130251,-1.05573 z"
         style="color:#000000;font-style:normal;font-variant:normal;font-weight:normal;font-stretch:normal;font-size:medium;line-height:normal;font-family:sans-serif;font-variant-ligatures:normal;font-variant-position:normal;font-variant-caps:normal;font-variant-numeric:normal;font-variant-alternates:normal;font-variant-east-asian:normal;font-feature-settings:normal;font-variation-settings:normal;text-indent:0;text-align:start;text-decoration:none;text-decoration-line:none;text-decoration-style:solid;text-decoration-color:#000000;letter-spacing:normal;word-spacing:normal;text-transform:none;writing-mode:lr-tb;direction:ltr;text-orientation:mixed;dominant-baseline:auto;baseline-shift:baseline;text-anchor:start;white-space:normal;shape-padding:0;shape-margin:0;inline-size:0;clip-rule:nonzero;display:inline;overflow:visible;visibility:visible;isolation:auto;mix-blend-mode:normal;color-interpolation:sRGB;color-interpolation-filters:linearRGB;solid-color:#000000;solid-opacity:1;vector-effect:none;fill:#50b86b;fill-opacity:1;fill-rule:nonzero;stroke:none;stroke-width:0.529167;stroke-linecap:round;stroke-linejoin:round;stroke-miterlimit:4;stroke-dasharray:none;stroke-dashoffset:0;stroke-opacity:1;color-rendering:auto;image-rendering:auto;shape-rendering:auto;text-rendering:auto;enable-background:accumulate;stop-color:#000000"
         sodipodi:nodetypes="csccssccsccc" />
      <path
         id="path1144"
         style="color:#000000;font-style:normal;font-variant:normal;font-weight:normal;font-stretch:normal;font-size:medium;line-height:normal;font-family:sans-serif;font-variant-ligatures:normal;font-variant-position:normal;font-variant-caps:normal;font-variant-numeric:normal;font-variant-alternates:normal;font-variant-east-asian:normal;font-feature-settings:normal;font-variation-settings:normal;text-indent:0;text-align:start;text-decoration:none;text-decoration-line:none;text-decoration-style:solid;text-decoration-color:#000000;letter-spacing:normal;word-spacing:normal;text-transform:none;writing-mode:lr-tb;direction:ltr;text-orientation:mixed;dominant-baseline:auto;baseline-shift:baseline;text-anchor:start;white-space:normal;shape-padding:0;shape-margin:0;inline-size:0;clip-rule:nonzero;display:inline;overflow:visible;visibility:visible;isolation:auto;mix-blend-mode:normal;color-interpolation:sRGB;color-interpolation-filters:linearRGB;solid-color:#000000;solid-opacity:1;vector-effect:none;fill:#3e9955;fill-opacity:1;fill-rule:nonzero;stroke:none;stroke-width:0.529167;stroke-linecap:round;stroke-linejoin:round;stroke-miterlimit:4;stroke-dasharray:none;stroke-dashoffset:0;stroke-opacity:1;color-rendering:auto;image-rendering:auto;shape-rendering:auto;text-rendering:auto;enable-background:accumulate;stop-color:#000000"
         d="m 2.2923664,333.54299 c -0.068086,-1.4e-4 -0.1336061,0.026 -0.1829345,0.0729 L 1.2955281,334.391 c -0.023966,0.0229 -0.043424,0.05 -0.057361,0.0801 l 0.3420978,-0.32608 c 0.049328,-0.0469 0.1148484,-0.073 0.1829345,-0.0729 0.090945,1.4e-4 0.1754429,0.047 0.2237592,0.12403 l 1.2128457,1.9327 c 0.068528,0.0205 0.1363095,0.0388 0.2072225,0.0672 0.4599261,0.18399 0.6294025,0.67172 0.756543,1.11879 0.1271404,0.44708 0.2172677,0.91665 0.3054077,1.09296 0.0074,0.0148 0.037649,0.0453 0.1508952,0.0786 0.1132459,0.0332 0.2818477,0.057 0.4645711,0.091 0.1827234,0.034 0.3830123,0.0784 0.5720581,0.18396 0.1890457,0.10553 0.3635057,0.28904 0.4392496,0.54157 0.1173176,0.3911 -0.052448,0.73522 -0.2005045,1.00666 -0.077874,0.14278 -0.1487301,0.27303 -0.1999878,0.39223 0.052825,0.007 0.1043001,0.0194 0.1576131,0.0253 0.1558197,0.0174 0.2925476,-0.10366 0.2940389,-0.26045 0.00164,-0.18569 0.1294464,-0.41482 0.2775024,-0.68627 0.1480561,-0.27144 0.3178222,-0.61555 0.2005046,-1.00665 -0.075744,-0.25253 -0.2502039,-0.43604 -0.4392497,-0.54157 -0.3876032,-0.19404 -0.9626636,-0.18965 -1.1875244,-0.35347 -0.08814,-0.17631 -0.1782672,-0.64588 -0.3054077,-1.09296 -0.1271405,-0.44707 -0.2966169,-0.9348 -0.7565429,-1.11879 -0.070913,-0.0284 -0.1386941,-0.0467 -0.2072225,-0.0672 l -1.2128458,-1.9327 c -0.048319,-0.077 -0.1328165,-0.12388 -0.2237592,-0.12402 z"
         sodipodi:nodetypes="cccccccccsscscsscccssccsccccc" />
      <path
         id="path1435"
         d="m 3.1054692,328.6055 -2.60742192,0.88476 c -0.10720036,0.0363 -0.17942541,0.13681 -0.1796875,0.25 v 3.44727 c -6.1e-7,0.43524 0.1821681,0.85127 0.50195312,1.14648 l 1.7734375,1.63868 c 0.3348839,0.30915 0.8584754,0.30915 1.1933594,0 L 5.5625,334.33398 c 0.3197846,-0.29521 0.501954,-0.71124 0.5019531,-1.14648 v -3.44727 c -2.621e-4,-0.11319 -0.072487,-0.21367 -0.1796875,-0.25 l -2.609375,-0.88476 c -0.027072,-0.009 -0.055434,-0.0137 -0.084312,-0.0138 -0.028878,-9e-5 -0.057916,0.005 -0.08561,0.0138 z"
         style="color:#000000;font-style:normal;font-variant:normal;font-weight:normal;font-stretch:normal;font-size:medium;line-height:normal;font-family:sans-serif;font-variant-ligatures:normal;font-variant-position:normal;font-variant-caps:normal;font-variant-numeric:normal;font-variant-alternates:normal;font-variant-east-asian:normal;font-feature-settings:normal;font-variation-settings:normal;text-indent:0;text-align:start;text-decoration:none;text-decoration-line:none;text-decoration-style:solid;text-decoration-color:#000000;letter-spacing:normal;word-spacing:normal;text-transform:none;writing-mode:lr-tb;direction:ltr;text-orientation:mixed;dominant-baseline:auto;baseline-shift:baseline;text-anchor:start;white-space:normal;shape-padding:0;shape-margin:0;inline-size:0;clip-rule:nonzero;display:inline;overflow:visible;visibility:visible;isolation:auto;mix-blend-mode:normal;color-interpolation:sRGB;color-interpolation-filters:linearRGB;solid-color:#000000;solid-opacity:1;vector-effect:none;fill:#cfe3ee;fill-opacity:1;fill-rule:nonzero;stroke:none;stroke-width:0.529167;stroke-linecap:round;stroke-linejoin:round;stroke-miterlimit:4;stroke-dasharray:none;stroke-dashoffset:0;stroke-opacity:1;color-rendering:auto;image-rendering:auto;shape-rendering:auto;text-rendering:auto;enable-background:accumulate;stop-color:#000000"
         sodipodi:nodetypes="cccsccccsccccc" />
      <path
         id="path1171"
         style="color:#000000;font-style:normal;font-variant:normal;font-weight:normal;font-stretch:normal;font-size:medium;line-height:normal;font-family:sans-serif;font-variant-ligatures:normal;font-variant-position:normal;font-variant-caps:normal;font-variant-numeric:normal;font-variant-alternates:normal;font-variant-east-asian:normal;font-feature-settings:normal;font-variation-settings:normal;text-indent:0;text-align:start;text-decoration:none;text-decoration-line:none;text-decoration-style:solid;text-decoration-color:#000000;letter-spacing:normal;word-spacing:normal;text-transform:none;writing-mode:lr-tb;direction:ltr;text-orientation:mixed;dominant-baseline:auto;baseline-shift:baseline;text-anchor:start;white-space:normal;shape-padding:0;shape-margin:0;inline-size:0;clip-rule:nonzero;display:inline;overflow:visible;visibility:visible;isolation:auto;mix-blend-mode:normal;color-interpolation:sRGB;color-interpolation-filters:linearRGB;solid-color:#000000;solid-opacity:1;vector-effect:none;fill:#3a8f4c;fill-opacity:1;fill-rule:nonzero;stroke:none;stroke-width:0.529167;stroke-linecap:round;stroke-linejoin:round;stroke-miterlimit:4;stroke-dasharray:none;stroke-dashoffset:0;stroke-opacity:1;color-rendering:auto;image-rendering:auto;shape-rendering:auto;text-rendering:auto;enable-background:accumulate;stop-color:#000000"
         d="m 9.0932563,329.39434 c 0.1728307,0.23567 0.3269986,0.48481 0.5067852,0.71565 0.1526973,0.20828 0.3300827,0.39644 0.4937365,0.59558 0.255015,0.33207 0.351345,0.79319 0.199433,1.18991 -0.02294,0.0605 -0.07019,0.14208 0.02611,0.0794 0.365345,-0.17244 0.559004,-0.58557 0.57517,-0.97462 0.01341,-0.36809 -0.153023,-0.72469 -0.407731,-0.98462 -0.327793,-0.36031 -0.5974207,-0.76656 -0.8726219,-1.16689 -0.095329,-0.0915 -0.2877807,-0.1356 -0.3815553,-0.0199 -0.066312,0.0804 -0.1036592,0.17924 -0.1564378,0.27723 -0.052779,0.098 -0.1306839,0.22577 0.017111,0.28826 z"
         sodipodi:nodetypes="ccccccccccc" />
      <path
         id="path1134"
         style="color:#000000;font-style:normal;font-variant:normal;font-weight:normal;font-stretch:normal;font-size:medium;line-height:normal;font-family:sans-serif;font-variant-ligatures:normal;font-variant-position:normal;font-variant-caps:normal;font-variant-numeric:normal;font-variant-alternates:normal;font-variant-east-asian:normal;font-feature-settings:normal;font-variation-settings:normal;text-indent:0;text-align:start;text-decoration:none;text-decoration-line:none;text-decoration-style:solid;text-decoration-color:#000000;letter-spacing:normal;word-spacing:normal;text-transform:none;writing-mode:lr-tb;direction:ltr;text-orientation:mixed;dominant-baseline:auto;baseline-shift:baseline;text-anchor:start;white-space:normal;shape-padding:0;shape-margin:0;inline-size:0;clip-rule:nonzero;display:inline;overflow:visible;visibility:visible;isolation:auto;mix-blend-mode:normal;color-interpolation:sRGB;color-interpolation-filters:linearRGB;solid-color:#000000;solid-opacity:1;vector-effect:none;fill:#3e9955;fill-opacity:1;fill-rule:nonzero;stroke:none;stroke-width:0.529167;stroke-linecap:round;stroke-linejoin:round;stroke-miterlimit:4;stroke-dasharray:none;stroke-dashoffset:0;stroke-opacity:1;color-rendering:auto;image-rendering:auto;shape-rendering:auto;text-rendering:auto;enable-background:accumulate;stop-color:#000000"
         d="m 6.4450846,330.15818 c -0.2516699,0.008 -0.5109007,0.008 -0.7555095,0.0687 -0.1637901,0.11079 -0.2914814,0.26921 -0.4405853,0.39932 -0.229689,0.2262 -0.4757263,0.43789 -0.6947667,0.67356 -0.08725,0.14711 0.1492705,-0.11185 0.2400742,-0.047 1.6320987,-0.20359 3.3322035,0.43196 4.4478088,1.63675 0.2349134,0.25009 0.4457686,0.52276 0.6286092,0.8131 0.2115077,-0.41044 0.2399037,-0.88117 0.3524367,-1.32071 0.07507,-0.13944 0.248173,-0.28131 0.151145,-0.4571 -9.5e-4,-0.0962 -0.560054,-0.61448 -1.0760119,-0.93637 -0.8459549,-0.54529 -1.8466023,-0.83178 -2.8532005,-0.83031 z"
         sodipodi:nodetypes="cccccccccccc" />
      <path
         id="path1153"
         style="fill:#b7c9d2;fill-opacity:1;stroke:none;stroke-width:0.999999px;stroke-linecap:butt;stroke-linejoin:miter;stroke-opacity:1"
         d="m 14.917969,168.31445 c -1.056958,6.36957 -6.8025838,14.86245 -10.5214846,21.98828 l 5.40625,4.9961 c 1.2657026,1.16844 3.2460156,1.16844 4.5117186,0 l 6.708985,-6.19336 c 1.208634,-1.11576 1.896487,-2.68898 1.896484,-4.33399 v -13.02929 a 1.0001006,1.0001006 0 0 0 -0.677734,-0.94531 z"
         transform="matrix(0.26458333,0,0,0.26458333,0,284.3)" />
      <path
         id="path1455"
         d="m 4.1679688,331.82422 c -0.2538401,0.25592 -0.5087884,0.51074 -0.7636719,0.76562 -0.2552047,0.25521 -0.510415,0.51042 -0.765625,0.76563 -0.1025768,0.1032 -0.1025768,0.26985 0,0.37305 0.1031956,0.10257 0.2698513,0.10257 0.3730469,0 0.2559267,-0.25384 0.5107426,-0.50879 0.765625,-0.76368 0.2552083,-0.25521 0.5104166,-0.51041 0.765625,-0.76562 0.1038758,-0.10342 0.1038758,-0.27158 0,-0.375 -0.1508342,-0.11223 -0.2662645,-0.0832 -0.375,0 z"
         style="color:#000000;font-style:normal;font-variant:normal;font-weight:normal;font-stretch:normal;font-size:medium;line-height:normal;font-family:sans-serif;font-variant-ligatures:normal;font-variant-position:normal;font-variant-caps:normal;font-variant-numeric:normal;font-variant-alternates:normal;font-variant-east-asian:normal;font-feature-settings:normal;font-variation-settings:normal;text-indent:0;text-align:start;text-decoration:none;text-decoration-line:none;text-decoration-style:solid;text-decoration-color:#000000;letter-spacing:normal;word-spacing:normal;text-transform:none;writing-mode:lr-tb;direction:ltr;text-orientation:mixed;dominant-baseline:auto;baseline-shift:baseline;text-anchor:start;white-space:normal;shape-padding:0;shape-margin:0;inline-size:0;clip-rule:nonzero;display:inline;overflow:visible;visibility:visible;opacity:1;isolation:auto;mix-blend-mode:normal;color-interpolation:sRGB;color-interpolation-filters:linearRGB;solid-color:#000000;solid-opacity:1;vector-effect:none;fill:#5b6571;fill-opacity:1;fill-rule:nonzero;stroke:none;stroke-width:0.529167;stroke-linecap:round;stroke-linejoin:round;stroke-miterlimit:4;stroke-dasharray:none;stroke-dashoffset:0;stroke-opacity:1;color-rendering:auto;image-rendering:auto;shape-rendering:auto;text-rendering:auto;enable-background:accumulate;stop-color:#000000;stop-opacity:1"
         sodipodi:nodetypes="ccccccccc" />
      <path
         id="path1451"
         d="m 3.7519531,330.68359 c -0.3822242,0.38275 -0.7649718,0.76498 -1.1484375,1.14649 -0.3828155,0.38281 -0.7656283,0.76562 -1.1484375,1.14844 -0.1038758,0.10342 -0.1038758,0.27158 0,0.375 0.1034196,0.10388 0.2715804,0.10388 0.375,0 0.3827423,-0.38223 0.7649741,-0.76498 1.1464844,-1.14844 0.3828149,-0.38281 0.7656233,-0.76563 1.1484375,-1.14844 0.1025768,-0.1032 0.1025768,-0.26985 0,-0.37305 -0.1510945,-0.11377 -0.2723814,-0.0978 -0.3730469,0 z"
         style="color:#000000;font-style:normal;font-variant:normal;font-weight:normal;font-stretch:normal;font-size:medium;line-height:normal;font-family:sans-serif;font-variant-ligatures:normal;font-variant-position:normal;font-variant-caps:normal;font-variant-numeric:normal;font-variant-alternates:normal;font-variant-east-asian:normal;font-feature-settings:normal;font-variation-settings:normal;text-indent:0;text-align:start;text-decoration:none;text-decoration-line:none;text-decoration-style:solid;text-decoration-color:#000000;letter-spacing:normal;word-spacing:normal;text-transform:none;writing-mode:lr-tb;direction:ltr;text-orientation:mixed;dominant-baseline:auto;baseline-shift:baseline;text-anchor:start;white-space:normal;shape-padding:0;shape-margin:0;inline-size:0;clip-rule:nonzero;display:inline;overflow:visible;visibility:visible;opacity:1;isolation:auto;mix-blend-mode:normal;color-interpolation:sRGB;color-interpolation-filters:linearRGB;solid-color:#000000;solid-opacity:1;vector-effect:none;fill:#6a7986;fill-opacity:1;fill-rule:nonzero;stroke:none;stroke-width:0.529167;stroke-linecap:round;stroke-linejoin:round;stroke-miterlimit:4;stroke-dasharray:none;stroke-dashoffset:0;stroke-opacity:1;color-rendering:auto;image-rendering:auto;shape-rendering:auto;text-rendering:auto;enable-background:accumulate;stop-color:#000000;stop-opacity:1"
         sodipodi:nodetypes="ccccccccc" />
      <path
         id="path1139"
         style="color:#000000;font-style:normal;font-variant:normal;font-weight:normal;font-stretch:normal;font-size:medium;line-height:normal;font-family:sans-serif;font-variant-ligatures:normal;font-variant-position:normal;font-variant-caps:normal;font-variant-numeric:normal;font-variant-alternates:normal;font-variant-east-asian:normal;font-feature-settings:normal;font-variation-settings:normal;text-indent:0;text-align:start;text-decoration:none;text-decoration-line:none;text-decoration-style:solid;text-decoration-color:#000000;letter-spacing:normal;word-spacing:normal;text-transform:none;writing-mode:lr-tb;direction:ltr;text-orientation:mixed;dominant-baseline:auto;baseline-shift:baseline;text-anchor:start;white-space:normal;shape-padding:0;shape-margin:0;inline-size:0;clip-rule:nonzero;display:inline;overflow:visible;visibility:visible;isolation:auto;mix-blend-mode:normal;color-interpolation:sRGB;color-interpolation-filters:linearRGB;solid-color:#000000;solid-opacity:1;vector-effect:none;fill:#3e9955;fill-opacity:1;fill-rule:nonzero;stroke:none;stroke-width:0.529167;stroke-linecap:round;stroke-linejoin:round;stroke-miterlimit:4;stroke-dasharray:none;stroke-dashoffset:0;stroke-opacity:1;color-rendering:auto;image-rendering:auto;shape-rendering:auto;text-rendering:auto;enable-background:accumulate;stop-color:#000000"
         d="m 11.462349,335.07313 c -0.153614,0.0193 -0.262422,0.16257 -0.425652,0.15929 -0.155359,0.048 -0.432085,-0.0461 -0.505203,0.0331 0.341066,1.33583 0.114728,2.8001 -0.6028961,3.97597 -0.094065,0.15588 -0.1960716,0.30696 -0.3054127,0.45253 1.1187538,-0.8319 1.8846608,-2.12089 2.0713478,-3.50338 0.03697,-0.29899 0.0651,-0.60235 0.04109,-0.90333 -0.02225,-0.12691 -0.144942,-0.22237 -0.273269,-0.21419 z" />
      <path
         id="path1166"
         style="color:#000000;font-style:normal;font-variant:normal;font-weight:normal;font-stretch:normal;font-size:medium;line-height:normal;font-family:sans-serif;font-variant-ligatures:normal;font-variant-position:normal;font-variant-caps:normal;font-variant-numeric:normal;font-variant-alternates:normal;font-variant-east-asian:normal;font-feature-settings:normal;font-variation-settings:normal;text-indent:0;text-align:start;text-decoration:none;text-decoration-line:none;text-decoration-style:solid;text-decoration-color:#000000;letter-spacing:normal;word-spacing:normal;text-transform:none;writing-mode:lr-tb;direction:ltr;text-orientation:mixed;dominant-baseline:auto;baseline-shift:baseline;text-anchor:start;white-space:normal;shape-padding:0;shape-margin:0;inline-size:0;clip-rule:nonzero;display:inline;overflow:visible;visibility:visible;opacity:1;isolation:auto;mix-blend-mode:normal;color-interpolation:sRGB;color-interpolation-filters:linearRGB;solid-color:#000000;solid-opacity:1;vector-effect:none;fill:#5b6571;fill-opacity:1;fill-rule:nonzero;stroke:none;stroke-width:2;stroke-linecap:round;stroke-linejoin:round;stroke-miterlimit:4;stroke-dasharray:none;stroke-dashoffset:0;stroke-opacity:1;color-rendering:auto;image-rendering:auto;shape-rendering:auto;text-rendering:auto;enable-background:accumulate;stop-color:#000000;stop-opacity:1"
         d="m 14.179688,175.30859 c -1.100208,1.10348 -2.326188,2.32741 -3.31836,3.31641 -1.1154445,2.11165 -2.3321365,4.25071 -3.5273436,6.35547 l 1.0292968,-1.02735 c 2.4069728,-2.41334 4.8164008,-4.82421 7.2265628,-7.23437 0.387829,-0.39006 0.387829,-1.0201 0,-1.41016 -0.571019,-0.42968 -0.935983,-0.38496 -1.410156,0 z"
         transform="matrix(0.26458333,0,0,0.26458333,0,284.3)"
         sodipodi:nodetypes="ccccccc" />
    </g>
  </g>
</svg>
