<?xml version="1.0" encoding="UTF-8" standalone="no"?>
<svg
   xmlns:dc="http://purl.org/dc/elements/1.1/"
   xmlns:cc="http://creativecommons.org/ns#"
   xmlns:rdf="http://www.w3.org/1999/02/22-rdf-syntax-ns#"
   xmlns:svg="http://www.w3.org/2000/svg"
   xmlns="http://www.w3.org/2000/svg"
   xmlns:sodipodi="http://sodipodi.sourceforge.net/DTD/sodipodi-0.dtd"
   xmlns:inkscape="http://www.inkscape.org/namespaces/inkscape"
   inkscape:export-ydpi="768"
   inkscape:export-xdpi="768"
   inkscape:export-filename="C:\Users\adnan\Downloads\New folder\png\2 - Trash Bin.png"
   sodipodi:docname="3 - Eco Factory.svg"
   inkscape:version="1.0 (4035a4fb49, 2020-05-01)"
   id="svg979"
   version="1.1"
   viewBox="0 0 16.933334 16.933333"
   height="48pt"
   width="48pt">
  <defs
     id="defs973" />
  <sodipodi:namedview
     inkscape:snap-others="false"
     inkscape:bbox-nodes="true"
     inkscape:snap-bbox="true"
     inkscape:snap-nodes="false"
     inkscape:document-rotation="0"
     inkscape:window-maximized="1"
     inkscape:window-y="-8"
     inkscape:window-x="-8"
     inkscape:window-height="706"
     inkscape:window-width="1366"
     units="pt"
     showgrid="false"
     inkscape:current-layer="layer1"
     inkscape:document-units="pt"
     inkscape:cy="32"
     inkscape:cx="32"
     inkscape:zoom="8.546875"
     inkscape:pageshadow="2"
     inkscape:pageopacity="0.0"
     borderopacity="1.0"
     bordercolor="#666666"
     pagecolor="#ffffff"
     id="base">
    <inkscape:grid
       id="grid1526"
       type="xygrid" />
    <sodipodi:guide
       inkscape:locked="false"
       id="guide1528"
       orientation="56.666615,0"
       position="0.97013909,15.963209" />
    <sodipodi:guide
       inkscape:locked="false"
       id="guide1530"
       orientation="0,56.666667"
       position="0.97013909,0.97016731" />
    <sodipodi:guide
       inkscape:locked="false"
       id="guide1532"
       orientation="-56.666615,0"
       position="15.963195,0.97016731" />
    <sodipodi:guide
       inkscape:locked="false"
       id="guide1534"
       orientation="0,-56.666667"
       position="15.963195,15.963209" />
  </sodipodi:namedview>
  <metadata
     id="metadata976">
    <rdf:RDF>
      <cc:Work
         rdf:about="">
        <dc:format>image/svg+xml</dc:format>
        <dc:type
           rdf:resource="http://purl.org/dc/dcmitype/StillImage" />
        <dc:title></dc:title>
      </cc:Work>
    </rdf:RDF>
  </metadata>
  <g
     transform="translate(0,-280.06668)"
     id="layer1"
     inkscape:groupmode="layer"
     inkscape:label="Layer 1">
    <g
       transform="matrix(1.2083096,0,0,1.2083096,0.76718059,-36.085281)"
       style="display:inline;stroke-width:0.827602"
       id="g1072">
      <path
         id="path1395"
         d="m 2.0214844,267.44141 a 0.26460996,0.26460996 0 0 0 -0.1855469,0.0742 l -1.58789062,1.55079 a 0.26460996,0.26460996 0 0 0 -0.0800781,0.18945 v 4.26367 a 0.26460996,0.26460996 0 0 0 0.26757813,0.26367 l 5.79296869,-0.0723 A 0.26460996,0.26460996 0 0 0 6.484375,273.5 l 0.8847656,-4.26953 a 0.26460996,0.26460996 0 0 0 -0.068359,-0.23633 l -1.4140624,-1.47266 a 0.26460996,0.26460996 0 0 0 -0.1914063,-0.0801 z"
         style="color:#000000;font-style:normal;font-variant:normal;font-weight:normal;font-stretch:normal;font-size:medium;line-height:normal;font-family:sans-serif;font-variant-ligatures:normal;font-variant-position:normal;font-variant-caps:normal;font-variant-numeric:normal;font-variant-alternates:normal;font-variant-east-asian:normal;font-feature-settings:normal;font-variation-settings:normal;text-indent:0;text-align:start;text-decoration:none;text-decoration-line:none;text-decoration-style:solid;text-decoration-color:#000000;letter-spacing:normal;word-spacing:normal;text-transform:none;writing-mode:lr-tb;direction:ltr;text-orientation:mixed;dominant-baseline:auto;baseline-shift:baseline;text-anchor:start;white-space:normal;shape-padding:0;shape-margin:0;inline-size:0;clip-rule:nonzero;display:inline;overflow:visible;visibility:visible;isolation:auto;mix-blend-mode:normal;color-interpolation:sRGB;color-interpolation-filters:linearRGB;solid-color:#000000;solid-opacity:1;vector-effect:none;fill:#7d8e9e;fill-opacity:1;fill-rule:nonzero;stroke:none;stroke-width:0.43794;stroke-linecap:round;stroke-linejoin:round;stroke-miterlimit:4;stroke-dasharray:none;stroke-dashoffset:0;stroke-opacity:1;color-rendering:auto;image-rendering:auto;shape-rendering:auto;text-rendering:auto;enable-background:accumulate;stop-color:#000000" />
      <path
         transform="matrix(0.26458333,0,0,0.26458333,0,284.3)"
         d="M 7.640625,-63.716797 A 1.0001006,1.0001006 0 0 0 6.9394531,-63.4375 l -2.765625,2.701172 c 9.5414299,4.618243 11.6052319,14.724604 16.4023439,20.751953 l 2.964844,-0.03711 a 1.0001006,1.0001006 0 0 0 0.966796,-0.796875 l 3.34375,-16.136719 A 1.0001006,1.0001006 0 0 0 27.59375,-57.84961 l -5.345703,-5.564453 a 1.0001006,1.0001006 0 0 0 -0.722656,-0.302735 z"
         style="fill:#60778d;fill-opacity:1;stroke:none;stroke-width:1.6552;stroke-linecap:round;stroke-linejoin:round;stroke-opacity:1"
         id="path1445" />
      <path
         transform="matrix(0.26458333,0,0,0.26458333,0,284.3)"
         d="m 12.234375,-63.716797 7.402344,7.277344 v 16.466797 l 2,-0.02539 v -16.861328 c -2.02e-4,-0.269858 -0.109423,-0.52869 -0.302735,-0.716797 l -6.246093,-6.140625 z"
         style="color:#000000;font-style:normal;font-variant:normal;font-weight:normal;font-stretch:normal;font-size:medium;line-height:normal;font-family:sans-serif;font-variant-ligatures:normal;font-variant-position:normal;font-variant-caps:normal;font-variant-numeric:normal;font-variant-alternates:normal;font-variant-east-asian:normal;font-feature-settings:normal;font-variation-settings:normal;text-indent:0;text-align:start;text-decoration:none;text-decoration-line:none;text-decoration-style:solid;text-decoration-color:#000000;letter-spacing:normal;word-spacing:normal;text-transform:none;writing-mode:lr-tb;direction:ltr;text-orientation:mixed;dominant-baseline:auto;baseline-shift:baseline;text-anchor:start;white-space:normal;shape-padding:0;shape-margin:0;inline-size:0;clip-rule:nonzero;display:inline;overflow:visible;visibility:visible;opacity:1;isolation:auto;mix-blend-mode:normal;color-interpolation:sRGB;color-interpolation-filters:linearRGB;solid-color:#000000;solid-opacity:1;vector-effect:none;fill:#3a4d5c;fill-opacity:1;fill-rule:nonzero;stroke:none;stroke-width:1.6552;stroke-linecap:round;stroke-linejoin:round;stroke-miterlimit:4;stroke-dasharray:none;stroke-dashoffset:0;stroke-opacity:1;color-rendering:auto;image-rendering:auto;shape-rendering:auto;text-rendering:auto;enable-background:accumulate;stop-color:#000000;stop-opacity:1"
         id="path1353" />
      <path
         id="path1345"
         d="m 2.0195312,268.99023 a 0.2645835,0.2645835 0 0 0 -0.2636718,0.26758 l 0.023437,3.5 a 0.2645835,0.2645835 0 0 0 0.2675781,0.26367 0.2645835,0.2645835 0 0 0 0.2617188,-0.26562 l -0.023438,-3.50195 a 0.2645835,0.2645835 0 0 0 -0.2656241,-0.26368 z"
         style="color:#000000;font-style:normal;font-variant:normal;font-weight:normal;font-stretch:normal;font-size:medium;line-height:normal;font-family:sans-serif;font-variant-ligatures:normal;font-variant-position:normal;font-variant-caps:normal;font-variant-numeric:normal;font-variant-alternates:normal;font-variant-east-asian:normal;font-feature-settings:normal;font-variation-settings:normal;text-indent:0;text-align:start;text-decoration:none;text-decoration-line:none;text-decoration-style:solid;text-decoration-color:#000000;letter-spacing:normal;word-spacing:normal;text-transform:none;writing-mode:lr-tb;direction:ltr;text-orientation:mixed;dominant-baseline:auto;baseline-shift:baseline;text-anchor:start;white-space:normal;shape-padding:0;shape-margin:0;inline-size:0;clip-rule:nonzero;display:inline;overflow:visible;visibility:visible;opacity:1;isolation:auto;mix-blend-mode:normal;color-interpolation:sRGB;color-interpolation-filters:linearRGB;solid-color:#000000;solid-opacity:1;vector-effect:none;fill:#3a4d5c;fill-opacity:1;fill-rule:nonzero;stroke:none;stroke-width:0.43794;stroke-linecap:round;stroke-linejoin:round;stroke-miterlimit:4;stroke-dasharray:none;stroke-dashoffset:0;stroke-opacity:1;color-rendering:auto;image-rendering:auto;shape-rendering:auto;text-rendering:auto;enable-background:accumulate;stop-color:#000000;stop-opacity:1" />
      <path
         id="path1379"
         d="m 6.046875,263.52734 a 0.26460996,0.26460996 0 0 0 -0.2246094,0.10938 c -0.1552175,0.21234 -0.1253784,0.47288 -0.041016,0.70508 0.084363,0.23219 0.2342913,0.46823 0.4316406,0.70508 0.3946988,0.47368 0.9801273,0.94413 1.6542969,1.21484 a 0.26460996,0.26460996 0 0 0 0.1835937,0.006 c 0.7135916,-0.23674 1.4254988,-0.26601 2.1835942,-0.002 a 0.26460996,0.26460996 0 0 0 0.185547,-0.004 c 0.674169,-0.27071 1.261551,-0.74116 1.65625,-1.21484 0.197349,-0.23685 0.347278,-0.47289 0.43164,-0.70508 0.08436,-0.2322 0.112249,-0.49274 -0.04297,-0.70508 a 0.26460996,0.26460996 0 0 0 -0.267578,-0.10352 c -0.92037,0.1957 -0.799402,0.16737 -1.472657,0.24219 -0.295869,0.0337 -0.575724,0.0242 -0.8769532,0.0859 -0.2352768,0.0482 -0.4722553,0.21887 -0.703125,0.41211 -0.2312971,-0.19401 -0.4693146,-0.36383 -0.7050781,-0.41211 -0.301229,-0.0617 -0.5810836,-0.0522 -0.8769531,-0.0859 -0.6732524,-0.0748 -0.5522846,-0.0465 -1.4726562,-0.24219 a 0.26460996,0.26460996 0 0 0 -0.042969,-0.006 z"
         style="color:#000000;font-style:normal;font-variant:normal;font-weight:normal;font-stretch:normal;font-size:medium;line-height:normal;font-family:sans-serif;font-variant-ligatures:normal;font-variant-position:normal;font-variant-caps:normal;font-variant-numeric:normal;font-variant-alternates:normal;font-variant-east-asian:normal;font-feature-settings:normal;font-variation-settings:normal;text-indent:0;text-align:start;text-decoration:none;text-decoration-line:none;text-decoration-style:solid;text-decoration-color:#000000;letter-spacing:normal;word-spacing:normal;text-transform:none;writing-mode:lr-tb;direction:ltr;text-orientation:mixed;dominant-baseline:auto;baseline-shift:baseline;text-anchor:start;white-space:normal;shape-padding:0;shape-margin:0;inline-size:0;clip-rule:nonzero;display:inline;overflow:visible;visibility:visible;isolation:auto;mix-blend-mode:normal;color-interpolation:sRGB;color-interpolation-filters:linearRGB;solid-color:#000000;solid-opacity:1;vector-effect:none;fill:#50b86b;fill-opacity:1;fill-rule:nonzero;stroke:none;stroke-width:0.43794;stroke-linecap:round;stroke-linejoin:round;stroke-miterlimit:4;stroke-dasharray:none;stroke-dashoffset:0;stroke-opacity:1;color-rendering:auto;image-rendering:auto;shape-rendering:auto;text-rendering:auto;enable-background:accumulate;stop-color:#000000" />
      <path
         d="m 12.255582,263.52762 a 0.26460995,0.26460995 0 0 0 -0.05839,0.006 c -0.92037,0.1957 -0.799523,0.16702 -1.472779,0.24184 -0.295868,0.0337 -0.575719,0.0246 -0.8769487,0.0863 -0.235276,0.0482 -0.4719297,0.21863 -0.7027987,0.41187 -0.133904,-0.11232 -0.2700267,-0.21321 -0.4066937,-0.29043 -0.01544,0.0127 -0.03111,0.0243 -0.04651,0.0372 -0.4769857,1.14696 -0.2939437,1.71906 0.136943,2.07688 0.4581417,-0.0478 0.9228344,6.7e-4 1.4061151,0.16898 a 0.26460995,0.26460995 0 0 0 0.185518,-0.004 c 0.674169,-0.27071 1.261531,-0.74123 1.65623,-1.21491 0.197349,-0.23685 0.347136,-0.47267 0.431498,-0.70486 0.08436,-0.2322 0.112328,-0.49305 -0.04289,-0.70539 a 0.26460995,0.26460995 0 0 0 -0.20929,-0.10904 z"
         style="color:#000000;font-style:normal;font-variant:normal;font-weight:normal;font-stretch:normal;font-size:medium;line-height:normal;font-family:sans-serif;font-variant-ligatures:normal;font-variant-position:normal;font-variant-caps:normal;font-variant-numeric:normal;font-variant-alternates:normal;font-variant-east-asian:normal;font-feature-settings:normal;font-variation-settings:normal;text-indent:0;text-align:start;text-decoration:none;text-decoration-line:none;text-decoration-style:solid;text-decoration-color:#000000;letter-spacing:normal;word-spacing:normal;text-transform:none;writing-mode:lr-tb;direction:ltr;text-orientation:mixed;dominant-baseline:auto;baseline-shift:baseline;text-anchor:start;white-space:normal;shape-padding:0;shape-margin:0;inline-size:0;clip-rule:nonzero;display:inline;overflow:visible;visibility:visible;isolation:auto;mix-blend-mode:normal;color-interpolation:sRGB;color-interpolation-filters:linearRGB;solid-color:#000000;solid-opacity:1;vector-effect:none;fill:#49a862;fill-opacity:1;fill-rule:nonzero;stroke:none;stroke-width:0.43794;stroke-linecap:round;stroke-linejoin:round;stroke-miterlimit:4;stroke-dasharray:none;stroke-dashoffset:0;stroke-opacity:1;color-rendering:auto;image-rendering:auto;shape-rendering:auto;text-rendering:auto;enable-background:accumulate;stop-color:#000000"
         id="path1454" />
      <path
         sodipodi:nodetypes="cccccccccc"
         style="color:#000000;font-style:normal;font-variant:normal;font-weight:normal;font-stretch:normal;font-size:medium;line-height:normal;font-family:sans-serif;font-variant-ligatures:normal;font-variant-position:normal;font-variant-caps:normal;font-variant-numeric:normal;font-variant-alternates:normal;font-variant-east-asian:normal;font-feature-settings:normal;font-variation-settings:normal;text-indent:0;text-align:start;text-decoration:none;text-decoration-line:none;text-decoration-style:solid;text-decoration-color:#000000;letter-spacing:normal;word-spacing:normal;text-transform:none;writing-mode:lr-tb;direction:ltr;text-orientation:mixed;dominant-baseline:auto;baseline-shift:baseline;text-anchor:start;white-space:normal;shape-padding:0;shape-margin:0;inline-size:0;clip-rule:nonzero;display:inline;overflow:visible;visibility:visible;isolation:auto;mix-blend-mode:normal;color-interpolation:sRGB;color-interpolation-filters:linearRGB;solid-color:#000000;solid-opacity:1;vector-effect:none;fill:#50b86b;fill-opacity:1;fill-rule:nonzero;stroke:none;stroke-width:0.43794;stroke-linecap:round;stroke-linejoin:round;stroke-miterlimit:4;stroke-dasharray:none;stroke-dashoffset:0;stroke-opacity:1;color-rendering:auto;image-rendering:auto;shape-rendering:auto;text-rendering:auto;enable-background:accumulate;stop-color:#000000"
         d="m 10.234376,266.26572 c 0.0603,0.0211 0.126209,0.0197 0.185547,-0.004 0.674169,-0.27071 1.261551,-0.74116 1.656249,-1.21484 0.197349,-0.23685 0.347278,-0.47289 0.43164,-0.70508 0.08436,-0.2322 0.112249,-0.49274 -0.04297,-0.70508 -0.06112,-0.0841 -0.165795,-0.12456 -0.267578,-0.10352 -0.920369,0.1957 -0.799401,0.16737 -1.472656,0.24219 -0.295869,0.0337 -0.575724,0.0242 -0.8769542,0.0859 -0.235276,0.0482 -0.472255,0.21887 -0.703125,0.41211 -0.6378089,1.53368 0.3352316,1.66442 1.0898472,1.99232 z"
         id="path1452" />
      <path
         id="path1367"
         d="m 10.904297,264.38867 a 0.2645835,0.2645835 0 0 0 -0.107422,0.0332 c -0.197616,0.11197 -0.526454,0.25026 -0.8300781,0.45312 -0.3036241,0.20286 -0.6056372,0.49355 -0.6738281,0.91992 a 0.2645835,0.2645835 0 0 0 0.2207031,0.30274 0.2645835,0.2645835 0 0 0 0.3027343,-0.21875 c 0.035498,-0.22196 0.1992458,-0.3981 0.4453128,-0.5625 0.246067,-0.16441 0.551246,-0.29441 0.796875,-0.4336 a 0.2645835,0.2645835 0 0 0 0.09961,-0.36133 0.2645835,0.2645835 0 0 0 -0.253906,-0.13281 z"
         style="color:#000000;font-style:normal;font-variant:normal;font-weight:normal;font-stretch:normal;font-size:medium;line-height:normal;font-family:sans-serif;font-variant-ligatures:normal;font-variant-position:normal;font-variant-caps:normal;font-variant-numeric:normal;font-variant-alternates:normal;font-variant-east-asian:normal;font-feature-settings:normal;font-variation-settings:normal;text-indent:0;text-align:start;text-decoration:none;text-decoration-line:none;text-decoration-style:solid;text-decoration-color:#000000;letter-spacing:normal;word-spacing:normal;text-transform:none;writing-mode:lr-tb;direction:ltr;text-orientation:mixed;dominant-baseline:auto;baseline-shift:baseline;text-anchor:start;white-space:normal;shape-padding:0;shape-margin:0;inline-size:0;clip-rule:nonzero;display:inline;overflow:visible;visibility:visible;isolation:auto;mix-blend-mode:normal;color-interpolation:sRGB;color-interpolation-filters:linearRGB;solid-color:#000000;solid-opacity:1;vector-effect:none;fill:#419658;fill-opacity:1;fill-rule:nonzero;stroke:none;stroke-width:0.43794;stroke-linecap:round;stroke-linejoin:round;stroke-miterlimit:4;stroke-dasharray:none;stroke-dashoffset:0;stroke-opacity:1;color-rendering:auto;image-rendering:auto;shape-rendering:auto;text-rendering:auto;enable-background:accumulate;stop-color:#000000" />
      <path
         sodipodi:nodetypes="ccccccccc"
         id="path1409"
         d="m 12.345373,273.7107 -1.599609,-7.6875 c -0.01883,-0.0846 -0.07793,-0.1547 -0.158203,-0.1875 -0.484043,-0.19734 -0.9670614,-0.28979 -1.4414069,-0.28516 h -0.00586 c -0.4743432,-0.005 -0.9554125,0.0878 -1.4394531,0.28516 -0.081514,0.0327 -0.1415138,0.10364 -0.1601562,0.18945 L 5.966466,273.7107 Z"
         style="color:#000000;font-style:normal;font-variant:normal;font-weight:normal;font-stretch:normal;font-size:medium;line-height:normal;font-family:sans-serif;font-variant-ligatures:normal;font-variant-position:normal;font-variant-caps:normal;font-variant-numeric:normal;font-variant-alternates:normal;font-variant-east-asian:normal;font-feature-settings:normal;font-variation-settings:normal;text-indent:0;text-align:start;text-decoration:none;text-decoration-line:none;text-decoration-style:solid;text-decoration-color:#000000;letter-spacing:normal;word-spacing:normal;text-transform:none;writing-mode:lr-tb;direction:ltr;text-orientation:mixed;dominant-baseline:auto;baseline-shift:baseline;text-anchor:start;white-space:normal;shape-padding:0;shape-margin:0;inline-size:0;clip-rule:nonzero;display:inline;overflow:visible;visibility:visible;isolation:auto;mix-blend-mode:normal;color-interpolation:sRGB;color-interpolation-filters:linearRGB;solid-color:#000000;solid-opacity:1;vector-effect:none;fill:#3a4d5c;fill-opacity:1;fill-rule:nonzero;stroke:none;stroke-width:0.43794;stroke-linecap:round;stroke-linejoin:round;stroke-miterlimit:4;stroke-dasharray:none;stroke-dashoffset:0;stroke-opacity:1;color-rendering:auto;image-rendering:auto;shape-rendering:auto;text-rendering:auto;enable-background:accumulate;stop-color:#000000" />
      <path
         transform="matrix(0.26458333,0,0,0.26458333,0,284.3)"
         d="m 34.546875,-70.863281 c -1.792793,-0.0189 -3.611961,0.330244 -5.441406,1.076172 -0.308085,0.12359 -0.53501,0.392475 -0.605469,0.716797 l -0.0078,0.03711 c 0.898744,1.04213 1.840536,2.057094 2.642578,2.591797 1.142222,0.761499 3.37124,0.4611 4.365234,1.455078 4.318007,4.317997 2.644901,13.351654 1.455078,19.300781 -0.293809,1.469046 -1.862145,3.666107 -2.357422,5.662109 h 12.0625 l -6.046875,-29.054687 c -0.07117,-0.319748 -0.294262,-0.585016 -0.597656,-0.708984 -1.829454,-0.745852 -3.654464,-1.093671 -5.447266,-1.076172 z"
         style="fill:#2d3d49;fill-opacity:1;stroke:none;stroke-width:1.6552;stroke-linecap:round;stroke-linejoin:round;stroke-opacity:1"
         id="path1435" />
      <path
         transform="matrix(0.26458333,0,0,0.26458333,0,284.3)"
         d="m 34.724609,-64.919922 c -2.530315,-0.03287 -5.116019,0.232429 -7.296875,0.865234 l -0.460937,2.158204 a 1.0000006,1.0000006 0 0 0 0.398437,-0.04883 c 3.931357,-1.350123 10.854528,-1.092623 14.335938,0.0059 a 1.0000006,1.0000006 0 0 0 0.46875,0.03125 l -0.453125,-2.089844 c -1.960926,-0.543835 -4.432803,-0.888623 -6.992188,-0.921875 z"
         style="color:#000000;font-style:normal;font-variant:normal;font-weight:normal;font-stretch:normal;font-size:medium;line-height:normal;font-family:sans-serif;font-variant-ligatures:normal;font-variant-position:normal;font-variant-caps:normal;font-variant-numeric:normal;font-variant-alternates:normal;font-variant-east-asian:normal;font-feature-settings:normal;font-variation-settings:normal;text-indent:0;text-align:start;text-decoration:none;text-decoration-line:none;text-decoration-style:solid;text-decoration-color:#000000;letter-spacing:normal;word-spacing:normal;text-transform:none;writing-mode:lr-tb;direction:ltr;text-orientation:mixed;dominant-baseline:auto;baseline-shift:baseline;text-anchor:start;white-space:normal;shape-padding:0;shape-margin:0;inline-size:0;clip-rule:nonzero;display:inline;overflow:visible;visibility:visible;opacity:1;isolation:auto;mix-blend-mode:normal;color-interpolation:sRGB;color-interpolation-filters:linearRGB;solid-color:#000000;solid-opacity:1;vector-effect:none;fill:#0f2437;fill-opacity:1;fill-rule:nonzero;stroke:none;stroke-width:1.6552;stroke-linecap:round;stroke-linejoin:round;stroke-miterlimit:4;stroke-dasharray:none;stroke-dashoffset:0;stroke-opacity:1;color-rendering:auto;image-rendering:auto;shape-rendering:auto;text-rendering:auto;enable-background:accumulate;stop-color:#000000;stop-opacity:1"
         id="path1361" />
      <path
         transform="matrix(0.26458333,0,0,0.26458333,0,284.3)"
         d="m 34.953125,-60.933594 c -3.017352,-0.03454 -6.086434,0.262954 -8.400391,0.976563 l -0.429687,2.007812 a 1.0000006,1.0000006 0 0 0 0.673828,0.0039 c 3.858643,-1.325141 12.533801,-1.066141 15.9375,0.0078 a 1.0000006,1.0000006 0 0 0 0.308594,0.04687 l -0.466797,-2.144531 c -2.038295,-0.531251 -4.780925,-0.865874 -7.623047,-0.898438 z"
         style="color:#000000;font-style:normal;font-variant:normal;font-weight:normal;font-stretch:normal;font-size:medium;line-height:normal;font-family:sans-serif;font-variant-ligatures:normal;font-variant-position:normal;font-variant-caps:normal;font-variant-numeric:normal;font-variant-alternates:normal;font-variant-east-asian:normal;font-feature-settings:normal;font-variation-settings:normal;text-indent:0;text-align:start;text-decoration:none;text-decoration-line:none;text-decoration-style:solid;text-decoration-color:#000000;letter-spacing:normal;word-spacing:normal;text-transform:none;writing-mode:lr-tb;direction:ltr;text-orientation:mixed;dominant-baseline:auto;baseline-shift:baseline;text-anchor:start;white-space:normal;shape-padding:0;shape-margin:0;inline-size:0;clip-rule:nonzero;display:inline;overflow:visible;visibility:visible;opacity:1;isolation:auto;mix-blend-mode:normal;color-interpolation:sRGB;color-interpolation-filters:linearRGB;solid-color:#000000;solid-opacity:1;vector-effect:none;fill:#0f2437;fill-opacity:1;fill-rule:nonzero;stroke:none;stroke-width:1.6552;stroke-linecap:round;stroke-linejoin:round;stroke-miterlimit:4;stroke-dasharray:none;stroke-dashoffset:0;stroke-opacity:1;color-rendering:auto;image-rendering:auto;shape-rendering:auto;text-rendering:auto;enable-background:accumulate;stop-color:#000000;stop-opacity:1"
         id="path1357" />
      <path
         transform="matrix(0.26458333,0,0,0.26458333,0,284.3)"
         d="M 7.640625,-63.716797 A 1.0001006,1.0001006 0 0 0 6.9394531,-63.4375 l -0.6757812,0.660156 6.3750001,6.330078 v 16.521485 a 1.0000006,1.0000006 0 0 0 0.002,0.04102 l 1.998047,-0.02539 a 1.0000006,1.0000006 0 0 0 0,-0.01563 v -16.933594 a 1.0001006,1.0001006 0 0 0 -0.294922,-0.708984 l -6.1894531,-6.148438 z"
         style="color:#000000;font-style:normal;font-variant:normal;font-weight:normal;font-stretch:normal;font-size:medium;line-height:normal;font-family:sans-serif;font-variant-ligatures:normal;font-variant-position:normal;font-variant-caps:normal;font-variant-numeric:normal;font-variant-alternates:normal;font-variant-east-asian:normal;font-feature-settings:normal;font-variation-settings:normal;text-indent:0;text-align:start;text-decoration:none;text-decoration-line:none;text-decoration-style:solid;text-decoration-color:#000000;letter-spacing:normal;word-spacing:normal;text-transform:none;writing-mode:lr-tb;direction:ltr;text-orientation:mixed;dominant-baseline:auto;baseline-shift:baseline;text-anchor:start;white-space:normal;shape-padding:0;shape-margin:0;inline-size:0;clip-rule:nonzero;display:inline;overflow:visible;visibility:visible;opacity:1;isolation:auto;mix-blend-mode:normal;color-interpolation:sRGB;color-interpolation-filters:linearRGB;solid-color:#000000;solid-opacity:1;vector-effect:none;fill:#3a4d5c;fill-opacity:1;fill-rule:nonzero;stroke:none;stroke-width:1.6552;stroke-linecap:round;stroke-linejoin:round;stroke-miterlimit:4;stroke-dasharray:none;stroke-dashoffset:0;stroke-opacity:1;color-rendering:auto;image-rendering:auto;shape-rendering:auto;text-rendering:auto;enable-background:accumulate;stop-color:#000000;stop-opacity:1"
         id="path1349" />
    </g>
  </g>
</svg>
