<?xml version="1.0" encoding="UTF-8" standalone="no"?>
<svg
   xmlns:dc="http://purl.org/dc/elements/1.1/"
   xmlns:cc="http://creativecommons.org/ns#"
   xmlns:rdf="http://www.w3.org/1999/02/22-rdf-syntax-ns#"
   xmlns:svg="http://www.w3.org/2000/svg"
   xmlns="http://www.w3.org/2000/svg"
   xmlns:sodipodi="http://sodipodi.sourceforge.net/DTD/sodipodi-0.dtd"
   xmlns:inkscape="http://www.inkscape.org/namespaces/inkscape"
   inkscape:export-ydpi="768"
   inkscape:export-xdpi="768"
   inkscape:export-filename="C:\Users\adnan\Downloads\New folder\png\8 - Solar Energy.png"
   sodipodi:docname="9 - Windmill.svg"
   inkscape:version="1.0 (4035a4fb49, 2020-05-01)"
   id="svg979"
   version="1.1"
   viewBox="0 0 16.933334 16.933333"
   height="48pt"
   width="48pt">
  <defs
     id="defs973" />
  <sodipodi:namedview
     inkscape:snap-others="false"
     inkscape:bbox-nodes="true"
     inkscape:snap-bbox="true"
     inkscape:snap-nodes="false"
     inkscape:document-rotation="0"
     inkscape:window-maximized="1"
     inkscape:window-y="-8"
     inkscape:window-x="-8"
     inkscape:window-height="706"
     inkscape:window-width="1366"
     units="pt"
     showgrid="false"
     inkscape:current-layer="layer1"
     inkscape:document-units="pt"
     inkscape:cy="32"
     inkscape:cx="32"
     inkscape:zoom="8.546875"
     inkscape:pageshadow="2"
     inkscape:pageopacity="0.0"
     borderopacity="1.0"
     bordercolor="#666666"
     pagecolor="#ffffff"
     id="base">
    <inkscape:grid
       id="grid1526"
       type="xygrid" />
    <sodipodi:guide
       inkscape:locked="false"
       id="guide1528"
       orientation="56.666615,0"
       position="0.97013909,15.963209" />
    <sodipodi:guide
       inkscape:locked="false"
       id="guide1530"
       orientation="0,56.666667"
       position="0.97013909,0.97016731" />
    <sodipodi:guide
       inkscape:locked="false"
       id="guide1532"
       orientation="-56.666615,0"
       position="15.963195,0.97016731" />
    <sodipodi:guide
       inkscape:locked="false"
       id="guide1534"
       orientation="0,-56.666667"
       position="15.963195,15.963209" />
  </sodipodi:namedview>
  <metadata
     id="metadata976">
    <rdf:RDF>
      <cc:Work
         rdf:about="">
        <dc:format>image/svg+xml</dc:format>
        <dc:type
           rdf:resource="http://purl.org/dc/dcmitype/StillImage" />
        <dc:title></dc:title>
      </cc:Work>
    </rdf:RDF>
  </metadata>
  <g
     transform="translate(0,-280.06668)"
     id="layer1"
     inkscape:groupmode="layer"
     inkscape:label="Layer 1">
    <g
       transform="matrix(1.2138386,0,0,1.2138386,-25.936433,-64.269437)"
       style="display:inline;stroke-width:0.823833"
       id="g1203">
      <path
         style="color:#000000;font-style:normal;font-variant:normal;font-weight:normal;font-stretch:normal;font-size:medium;line-height:normal;font-family:sans-serif;font-variant-ligatures:normal;font-variant-position:normal;font-variant-caps:normal;font-variant-numeric:normal;font-variant-alternates:normal;font-variant-east-asian:normal;font-feature-settings:normal;font-variation-settings:normal;text-indent:0;text-align:start;text-decoration:none;text-decoration-line:none;text-decoration-style:solid;text-decoration-color:#000000;letter-spacing:normal;word-spacing:normal;text-transform:none;writing-mode:lr-tb;direction:ltr;text-orientation:mixed;dominant-baseline:auto;baseline-shift:baseline;text-anchor:start;white-space:normal;shape-padding:0;shape-margin:0;inline-size:0;clip-rule:nonzero;display:inline;overflow:visible;visibility:visible;isolation:auto;mix-blend-mode:normal;color-interpolation:sRGB;color-interpolation-filters:linearRGB;solid-color:#000000;solid-opacity:1;vector-effect:none;fill:#5b6571;fill-opacity:1;fill-rule:nonzero;stroke:none;stroke-width:0.435945;stroke-linecap:round;stroke-linejoin:round;stroke-miterlimit:4;stroke-dasharray:none;stroke-dashoffset:0;stroke-opacity:1;color-rendering:auto;image-rendering:auto;shape-rendering:auto;text-rendering:auto;enable-background:accumulate;stop-color:#000000"
         d="m 27.945312,290.29688 a 0.26460996,0.26460996 0 0 0 -0.273437,0.24609 l -0.265625,3.89453 a 0.26460996,0.26460996 0 0 0 0.263672,0.2832 h 1.58789 a 0.26460996,0.26460996 0 0 0 0.263672,-0.2832 l -0.263672,-3.89453 a 0.26460996,0.26460996 0 0 0 -0.408203,-0.20313 c -0.309752,0.20098 -0.502846,0.15427 -0.78125,-0.008 a 0.26460996,0.26460996 0 0 0 -0.123047,-0.0351 z"
         id="path1365" />
      <path
         id="path1458"
         style="fill:#3a4d5c;fill-opacity:1;stroke:none;stroke-width:0.435945;stroke-linecap:round;stroke-linejoin:round;stroke-opacity:1"
         d="m 27.945063,290.29653 v 5.2e-4 a 0.26460995,0.26460995 0 0 0 -0.273367,0.24598 l -0.06201,0.90537 c 0.186023,0.0672 0.37103,0.131 0.543121,0.21704 0.816332,0.40817 0.144774,2.69322 1.21853,3.02927 a 0.26460995,0.26460995 0 0 0 0.150376,-0.25734 l -0.264065,-3.89434 a 0.26460995,0.26460995 0 0 0 -0.408244,-0.20309 c -0.309753,0.20098 -0.502428,0.154 -0.78083,-0.008 a 0.26460995,0.26460995 0 0 0 -0.123508,-0.0351 z" />
      <path
         style="color:#000000;font-style:normal;font-variant:normal;font-weight:normal;font-stretch:normal;font-size:medium;line-height:normal;font-family:sans-serif;font-variant-ligatures:normal;font-variant-position:normal;font-variant-caps:normal;font-variant-numeric:normal;font-variant-alternates:normal;font-variant-east-asian:normal;font-feature-settings:normal;font-variation-settings:normal;text-indent:0;text-align:start;text-decoration:none;text-decoration-line:none;text-decoration-style:solid;text-decoration-color:#000000;letter-spacing:normal;word-spacing:normal;text-transform:none;writing-mode:lr-tb;direction:ltr;text-orientation:mixed;dominant-baseline:auto;baseline-shift:baseline;text-anchor:start;white-space:normal;shape-padding:0;shape-margin:0;inline-size:0;clip-rule:nonzero;display:inline;overflow:visible;visibility:visible;isolation:auto;mix-blend-mode:normal;color-interpolation:sRGB;color-interpolation-filters:linearRGB;solid-color:#000000;solid-opacity:1;vector-effect:none;fill:#aabfd0;fill-opacity:1;fill-rule:nonzero;stroke:none;stroke-width:0.435945;stroke-linecap:round;stroke-linejoin:round;stroke-miterlimit:4;stroke-dasharray:none;stroke-dashoffset:0;stroke-opacity:1;color-rendering:auto;image-rendering:auto;shape-rendering:auto;text-rendering:auto;enable-background:accumulate;stop-color:#000000"
         d="m 27.40625,294.19141 a 0.26460996,0.26460996 0 0 0 -0.265625,0.26367 v 1.05273 a 0.26460996,0.26460996 0 0 0 0.265625,0.26563 h 2.117188 a 0.26460996,0.26460996 0 0 0 0.263671,-0.26563 v -1.05273 a 0.26460996,0.26460996 0 0 0 -0.263671,-0.26367 z"
         id="path1350" />
      <path
         style="color:#000000;font-style:normal;font-variant:normal;font-weight:normal;font-stretch:normal;font-size:medium;line-height:normal;font-family:sans-serif;font-variant-ligatures:normal;font-variant-position:normal;font-variant-caps:normal;font-variant-numeric:normal;font-variant-alternates:normal;font-variant-east-asian:normal;font-feature-settings:normal;font-variation-settings:normal;text-indent:0;text-align:start;text-decoration:none;text-decoration-line:none;text-decoration-style:solid;text-decoration-color:#000000;letter-spacing:normal;word-spacing:normal;text-transform:none;writing-mode:lr-tb;direction:ltr;text-orientation:mixed;dominant-baseline:auto;baseline-shift:baseline;text-anchor:start;white-space:normal;shape-padding:0;shape-margin:0;inline-size:0;clip-rule:nonzero;display:inline;overflow:visible;visibility:visible;isolation:auto;mix-blend-mode:normal;color-interpolation:sRGB;color-interpolation-filters:linearRGB;solid-color:#000000;solid-opacity:1;vector-effect:none;fill:#5b6570;fill-opacity:1;fill-rule:nonzero;stroke:none;stroke-width:0.435945;stroke-linecap:round;stroke-linejoin:round;stroke-miterlimit:4;stroke-dasharray:none;stroke-dashoffset:0;stroke-opacity:1;color-rendering:auto;image-rendering:auto;shape-rendering:auto;text-rendering:auto;enable-background:accumulate;stop-color:#000000"
         d="m 27.140625,295.24414 a 0.26460996,0.26460996 0 0 0 -0.263672,0.26367 v 1.05274 a 0.26460996,0.26460996 0 0 0 0.263672,0.26562 h 2.646484 a 0.26460996,0.26460996 0 0 0 0.263672,-0.26562 v -1.05274 a 0.26460996,0.26460996 0 0 0 -0.263672,-0.26367 z"
         id="path1336" />
      <path
         style="color:#000000;font-style:normal;font-variant:normal;font-weight:normal;font-stretch:normal;font-size:medium;line-height:normal;font-family:sans-serif;font-variant-ligatures:normal;font-variant-position:normal;font-variant-caps:normal;font-variant-numeric:normal;font-variant-alternates:normal;font-variant-east-asian:normal;font-feature-settings:normal;font-variation-settings:normal;text-indent:0;text-align:start;text-decoration:none;text-decoration-line:none;text-decoration-style:solid;text-decoration-color:#000000;letter-spacing:normal;word-spacing:normal;text-transform:none;writing-mode:lr-tb;direction:ltr;text-orientation:mixed;dominant-baseline:auto;baseline-shift:baseline;text-anchor:start;white-space:normal;shape-padding:0;shape-margin:0;inline-size:0;clip-rule:nonzero;display:inline;overflow:visible;visibility:visible;isolation:auto;mix-blend-mode:normal;color-interpolation:sRGB;color-interpolation-filters:linearRGB;solid-color:#000000;solid-opacity:1;vector-effect:none;fill:#5b6570;fill-opacity:1;fill-rule:nonzero;stroke:none;stroke-width:0.435945;stroke-linecap:round;stroke-linejoin:round;stroke-miterlimit:4;stroke-dasharray:none;stroke-dashoffset:0;stroke-opacity:1;color-rendering:auto;image-rendering:auto;shape-rendering:auto;text-rendering:auto;enable-background:accumulate;stop-color:#000000"
         d="m 26.429688,296.29688 a 0.2645835,0.2645835 0 0 0 -0.265626,0.26367 0.2645835,0.2645835 0 0 0 0.265626,0.26562 h 4.21289 a 0.2645835,0.2645835 0 0 0 0.265625,-0.26562 0.2645835,0.2645835 0 0 0 -0.265625,-0.26367 z"
         id="path1323" />
      <path
         style="color:#000000;font-style:normal;font-variant:normal;font-weight:normal;font-stretch:normal;font-size:medium;line-height:normal;font-family:sans-serif;font-variant-ligatures:normal;font-variant-position:normal;font-variant-caps:normal;font-variant-numeric:normal;font-variant-alternates:normal;font-variant-east-asian:normal;font-feature-settings:normal;font-variation-settings:normal;text-indent:0;text-align:start;text-decoration:none;text-decoration-line:none;text-decoration-style:solid;text-decoration-color:#000000;letter-spacing:normal;word-spacing:normal;text-transform:none;writing-mode:lr-tb;direction:ltr;text-orientation:mixed;dominant-baseline:auto;baseline-shift:baseline;text-anchor:start;white-space:normal;shape-padding:0;shape-margin:0;inline-size:0;clip-rule:nonzero;display:inline;overflow:visible;visibility:visible;isolation:auto;mix-blend-mode:normal;color-interpolation:sRGB;color-interpolation-filters:linearRGB;solid-color:#000000;solid-opacity:1;vector-effect:none;fill:#f5f6e8;fill-opacity:1;fill-rule:nonzero;stroke:none;stroke-width:0.435945;stroke-linecap:round;stroke-linejoin:round;stroke-miterlimit:4;stroke-dasharray:none;stroke-dashoffset:0;stroke-opacity:1;color-rendering:auto;image-rendering:auto;shape-rendering:auto;text-rendering:auto;enable-background:accumulate;stop-color:#000000"
         d="m 33.320312,290.69531 a 0.2645835,0.2645835 0 0 0 -0.277343,0.20313 c -0.254803,1.07722 -0.829253,1.99615 -1.667969,2.65234 a 0.2645835,0.2645835 0 0 0 -0.04492,0.3711 0.2645835,0.2645835 0 0 0 0.371094,0.0449 c 0.935316,-0.73177 1.576951,-1.75958 1.857422,-2.94532 a 0.2645835,0.2645835 0 0 0 -0.197266,-0.31836 0.2645835,0.2645835 0 0 0 -0.04102,-0.008 z"
         id="path1456" />
      <path
         style="color:#000000;font-style:normal;font-variant:normal;font-weight:normal;font-stretch:normal;font-size:medium;line-height:normal;font-family:sans-serif;font-variant-ligatures:normal;font-variant-position:normal;font-variant-caps:normal;font-variant-numeric:normal;font-variant-alternates:normal;font-variant-east-asian:normal;font-feature-settings:normal;font-variation-settings:normal;text-indent:0;text-align:start;text-decoration:none;text-decoration-line:none;text-decoration-style:solid;text-decoration-color:#000000;letter-spacing:normal;word-spacing:normal;text-transform:none;writing-mode:lr-tb;direction:ltr;text-orientation:mixed;dominant-baseline:auto;baseline-shift:baseline;text-anchor:start;white-space:normal;shape-padding:0;shape-margin:0;inline-size:0;clip-rule:nonzero;display:inline;overflow:visible;visibility:visible;isolation:auto;mix-blend-mode:normal;color-interpolation:sRGB;color-interpolation-filters:linearRGB;solid-color:#000000;solid-opacity:1;vector-effect:none;fill:#f5f6e8;fill-opacity:1;fill-rule:nonzero;stroke:none;stroke-width:0.435945;stroke-linecap:round;stroke-linejoin:round;stroke-miterlimit:4;stroke-dasharray:none;stroke-dashoffset:0;stroke-opacity:1;color-rendering:auto;image-rendering:auto;shape-rendering:auto;text-rendering:auto;enable-background:accumulate;stop-color:#000000"
         d="m 23.384766,289.51953 a 0.2645835,0.2645835 0 0 0 -0.265625,0.26367 c -10e-7,0.99422 0.336071,1.91852 0.796875,2.69922 a 0.2645835,0.2645835 0 0 0 0.363281,0.0937 0.2645835,0.2645835 0 0 0 0.09375,-0.36328 c -0.425046,-0.72012 -0.72461,-1.55522 -0.724609,-2.42969 a 0.2645835,0.2645835 0 0 0 -0.263672,-0.26367 z"
         id="path1453" />
      <path
         style="color:#000000;font-style:normal;font-variant:normal;font-weight:normal;font-stretch:normal;font-size:medium;line-height:normal;font-family:sans-serif;font-variant-ligatures:normal;font-variant-position:normal;font-variant-caps:normal;font-variant-numeric:normal;font-variant-alternates:normal;font-variant-east-asian:normal;font-feature-settings:normal;font-variation-settings:normal;text-indent:0;text-align:start;text-decoration:none;text-decoration-line:none;text-decoration-style:solid;text-decoration-color:#000000;letter-spacing:normal;word-spacing:normal;text-transform:none;writing-mode:lr-tb;direction:ltr;text-orientation:mixed;dominant-baseline:auto;baseline-shift:baseline;text-anchor:start;white-space:normal;shape-padding:0;shape-margin:0;inline-size:0;clip-rule:nonzero;display:inline;overflow:visible;visibility:visible;isolation:auto;mix-blend-mode:normal;color-interpolation:sRGB;color-interpolation-filters:linearRGB;solid-color:#000000;solid-opacity:1;vector-effect:none;fill:#f5f6e8;fill-opacity:1;fill-rule:nonzero;stroke:none;stroke-width:0.435945;stroke-linecap:round;stroke-linejoin:round;stroke-miterlimit:4;stroke-dasharray:none;stroke-dashoffset:0;stroke-opacity:1;color-rendering:auto;image-rendering:auto;shape-rendering:auto;text-rendering:auto;enable-background:accumulate;stop-color:#000000"
         d="m 28.431641,284.47461 c -0.40473,0 -0.702993,0.11127 -1.013672,0.17578 a 0.2645835,0.2645835 0 0 0 -0.207031,0.3125 0.2645835,0.2645835 0 0 0 0.314453,0.20703 c 0.355827,-0.0739 0.603375,-0.16601 0.90625,-0.16601 0.746882,0 1.451007,0.17015 2.080078,0.47461 a 0.2645835,0.2645835 0 0 0 0.353515,-0.12305 0.2645835,0.2645835 0 0 0 -0.123046,-0.35352 c -0.698988,-0.33829 -1.482924,-0.52734 -2.310547,-0.52734 z"
         id="path1440" />
      <path
         style="color:#000000;font-style:normal;font-variant:normal;font-weight:normal;font-stretch:normal;font-size:medium;line-height:normal;font-family:sans-serif;font-variant-ligatures:normal;font-variant-position:normal;font-variant-caps:normal;font-variant-numeric:normal;font-variant-alternates:normal;font-variant-east-asian:normal;font-feature-settings:normal;font-variation-settings:normal;text-indent:0;text-align:start;text-decoration:none;text-decoration-line:none;text-decoration-style:solid;text-decoration-color:#000000;letter-spacing:normal;word-spacing:normal;text-transform:none;writing-mode:lr-tb;direction:ltr;text-orientation:mixed;dominant-baseline:auto;baseline-shift:baseline;text-anchor:start;white-space:normal;shape-padding:0;shape-margin:0;inline-size:0;clip-rule:nonzero;display:inline;overflow:visible;visibility:visible;isolation:auto;mix-blend-mode:normal;color-interpolation:sRGB;color-interpolation-filters:linearRGB;solid-color:#000000;solid-opacity:1;vector-effect:none;fill:#aabfd0;fill-opacity:1;fill-rule:nonzero;stroke:none;stroke-width:0.435945;stroke-linecap:round;stroke-linejoin:round;stroke-miterlimit:4;stroke-dasharray:none;stroke-dashoffset:0;stroke-opacity:1;color-rendering:auto;image-rendering:auto;shape-rendering:auto;text-rendering:auto;enable-background:accumulate;stop-color:#000000"
         d="m 27.449219,284.64648 a 0.26460996,0.26460996 0 0 0 -0.236328,0.31836 l 0.839843,3.98438 a 0.26460996,0.26460996 0 0 0 0.457032,0.11914 l 0.617187,-0.70313 c 0.43266,-0.4937 0.449569,-1.2303 0.04102,-1.74414 l -1.490235,-1.875 a 0.26460996,0.26460996 0 0 0 -0.228515,-0.0996 z"
         id="path1396" />
      <path
         style="color:#000000;font-style:normal;font-variant:normal;font-weight:normal;font-stretch:normal;font-size:medium;line-height:normal;font-family:sans-serif;font-variant-ligatures:normal;font-variant-position:normal;font-variant-caps:normal;font-variant-numeric:normal;font-variant-alternates:normal;font-variant-east-asian:normal;font-feature-settings:normal;font-variation-settings:normal;text-indent:0;text-align:start;text-decoration:none;text-decoration-line:none;text-decoration-style:solid;text-decoration-color:#000000;letter-spacing:normal;word-spacing:normal;text-transform:none;writing-mode:lr-tb;direction:ltr;text-orientation:mixed;dominant-baseline:auto;baseline-shift:baseline;text-anchor:start;white-space:normal;shape-padding:0;shape-margin:0;inline-size:0;clip-rule:nonzero;display:inline;overflow:visible;visibility:visible;isolation:auto;mix-blend-mode:normal;color-interpolation:sRGB;color-interpolation-filters:linearRGB;solid-color:#000000;solid-opacity:1;vector-effect:none;fill:#aabfd0;fill-opacity:1;fill-rule:nonzero;stroke:none;stroke-width:0.435945;stroke-linecap:round;stroke-linejoin:round;stroke-miterlimit:4;stroke-dasharray:none;stroke-dashoffset:0;stroke-opacity:1;color-rendering:auto;image-rendering:auto;shape-rendering:auto;text-rendering:auto;enable-background:accumulate;stop-color:#000000"
         d="m 29.314453,289.90039 a 0.26460996,0.26460996 0 0 0 -0.246094,0.37891 l 0.498047,1.04101 c 0.229016,0.47751 0.772399,0.72571 1.283203,0.58594 l 2.521485,-0.69141 a 0.26460996,0.26460996 0 0 0 -0.01758,-0.51367 l -3.996094,-0.79492 a 0.26460996,0.26460996 0 0 0 -0.04297,-0.006 z"
         id="path1425" />
      <path
         style="color:#000000;font-style:normal;font-variant:normal;font-weight:normal;font-stretch:normal;font-size:medium;line-height:normal;font-family:sans-serif;font-variant-ligatures:normal;font-variant-position:normal;font-variant-caps:normal;font-variant-numeric:normal;font-variant-alternates:normal;font-variant-east-asian:normal;font-feature-settings:normal;font-variation-settings:normal;text-indent:0;text-align:start;text-decoration:none;text-decoration-line:none;text-decoration-style:solid;text-decoration-color:#000000;letter-spacing:normal;word-spacing:normal;text-transform:none;writing-mode:lr-tb;direction:ltr;text-orientation:mixed;dominant-baseline:auto;baseline-shift:baseline;text-anchor:start;white-space:normal;shape-padding:0;shape-margin:0;inline-size:0;clip-rule:nonzero;display:inline;overflow:visible;visibility:visible;isolation:auto;mix-blend-mode:normal;color-interpolation:sRGB;color-interpolation-filters:linearRGB;solid-color:#000000;solid-opacity:1;vector-effect:none;fill:#aabfd0;fill-opacity:1;fill-rule:nonzero;stroke:none;stroke-width:0.435945;stroke-linecap:round;stroke-linejoin:round;stroke-miterlimit:4;stroke-dasharray:none;stroke-dashoffset:0;stroke-opacity:1;color-rendering:auto;image-rendering:auto;shape-rendering:auto;text-rendering:auto;enable-background:accumulate;stop-color:#000000"
         d="m 25.984375,289.63477 c -0.286344,0.086 -0.544484,0.26937 -0.71875,0.5332 l -1.341797,2.0332 a 0.26460996,0.26460996 0 0 0 0.353516,0.375 l 3.527344,-2.03515 a 0.26460996,0.26460996 0 0 0 -0.0293,-0.47266 l -0.898438,-0.38477 c -0.290787,-0.12416 -0.606234,-0.13482 -0.892578,-0.0488 z"
         id="path1411" />
      <path
         id="path1125"
         style="fill:#9db1c0;fill-opacity:1;stroke-width:0.435945;stroke-linecap:round;stroke-linejoin:round"
         d="m 27.836399,290.50901 a 0.26460995,0.26460995 0 0 0 -0.06681,-0.44712 l -0.366368,-0.15555 c -0.854877,0.42379 -2.155926,1.08622 -3.131197,1.77417 l -0.346124,0.5292 a 0.26460995,0.26460995 0 0 0 0.353268,0.37331 l 3.520969,-2.05026 a 0.26460995,0.26460995 0 0 0 0.03608,-0.0239 z" />
      <path
         style="color:#000000;font-style:normal;font-variant:normal;font-weight:normal;font-stretch:normal;font-size:medium;line-height:normal;font-family:sans-serif;font-variant-ligatures:normal;font-variant-position:normal;font-variant-caps:normal;font-variant-numeric:normal;font-variant-alternates:normal;font-variant-east-asian:normal;font-feature-settings:normal;font-variation-settings:normal;text-indent:0;text-align:start;text-decoration:none;text-decoration-line:none;text-decoration-style:solid;text-decoration-color:#000000;letter-spacing:normal;word-spacing:normal;text-transform:none;writing-mode:lr-tb;direction:ltr;text-orientation:mixed;dominant-baseline:auto;baseline-shift:baseline;text-anchor:start;white-space:normal;shape-padding:0;shape-margin:0;inline-size:0;clip-rule:nonzero;display:inline;overflow:visible;visibility:visible;isolation:auto;mix-blend-mode:normal;color-interpolation:sRGB;color-interpolation-filters:linearRGB;solid-color:#000000;solid-opacity:1;vector-effect:none;fill:#f5f6e8;fill-opacity:1;fill-rule:nonzero;stroke:none;stroke-width:0.435945;stroke-linecap:round;stroke-linejoin:round;stroke-miterlimit:4;stroke-dasharray:none;stroke-dashoffset:0;stroke-opacity:1;color-rendering:auto;image-rendering:auto;shape-rendering:auto;text-rendering:auto;enable-background:accumulate;stop-color:#000000"
         d="m 28.464844,288.61133 c -0.654203,0 -1.191416,0.53729 -1.191406,1.1914 4e-6,0.65411 0.537213,1.18946 1.191406,1.18946 0.654193,0 1.189448,-0.53535 1.189453,-1.18946 9e-6,-0.65411 -0.53525,-1.1914 -1.189453,-1.1914 z"
         id="path1380" />
      <path
         d="m 28.06404,288.988 a 0.26460995,0.26460995 0 0 0 0.445508,0.0768 l 0.262642,-0.29906 c -0.134193,-0.94467 -0.355002,-2.38786 -0.702231,-3.52972 l -0.393907,-0.49467 a 0.26460995,0.26460995 0 0 0 -0.465291,0.2183 l 0.842107,3.98644 a 0.26460995,0.26460995 0 0 0 0.01133,0.0418 z"
         style="fill:#9db1c0;fill-opacity:1;stroke-width:0.435945;stroke-linecap:round;stroke-linejoin:round"
         id="path1127" />
      <path
         d="m 28.464928,288.61136 c -0.551585,0 -1.015908,0.38367 -1.149284,0.89556 0.446143,0.0591 0.903994,-0.008 1.016992,0.10542 0.322506,0.32251 0.250558,0.81976 0.538985,1.18029 0.02689,0.0336 0.05405,0.0629 0.08113,0.092 0.412128,-0.18741 0.701763,-0.60198 0.701768,-1.0821 8e-6,-0.65411 -0.53539,-1.19115 -1.189593,-1.19115 z"
         style="fill:#dbdccf;fill-opacity:1;stroke-width:0.435945;stroke-linecap:round;stroke-linejoin:round"
         id="path1113" />
      <path
         d="m 29.314489,289.90017 a 0.26460995,0.26460995 0 0 0 -0.245981,0.37931 l 0.171567,0.35915 c 0.921247,0.24843 2.334868,0.61343 3.521234,0.74362 l 0.609779,-0.16743 a 0.26460995,0.26460995 0 0 0 -0.01757,-0.51366 l -3.99614,-0.79478 a 0.26460995,0.26460995 0 0 0 -0.04289,-0.006 z"
         style="fill:#9db1c0;fill-opacity:1;stroke-width:0.435945;stroke-linecap:round;stroke-linejoin:round"
         id="path1120" />
      <path
         transform="matrix(0.26458333,0,0,0.26458333,0,284.3)"
         d="m 103.58203,37.384766 a 1.0001006,1.0001006 0 0 0 -1.00391,0.996093 v 1.460938 c 1.29214,0.01601 2.62355,-0.0185 3.63282,0.654297 1.01789,0.678589 1.36451,1.720617 1.50195,2.867187 h 3.87109 a 1.0001006,1.0001006 0 0 0 0.99805,-1.003906 v -3.978516 a 1.0001006,1.0001006 0 0 0 -0.99805,-0.996093 z"
         style="fill:#9db1c0;fill-opacity:1;stroke-width:1.64767;stroke-linecap:round;stroke-linejoin:round"
         id="path1169" />
      <path
         transform="matrix(0.26458333,0,0,0.26458333,0,284.3)"
         d="m 107.82617,45.341797 c 0.0206,0.696551 0.0569,1.380603 0.19141,2.001953 h 7.79687 a 1.0000006,1.0000006 0 0 0 1.00391,-1.003906 1.0000006,1.0000006 0 0 0 -1.00391,-0.998047 z"
         style="fill:#3a4d5c;fill-opacity:1;stroke-width:1.64767;stroke-linecap:round;stroke-linejoin:round"
         id="path1171" />
      <path
         transform="matrix(0.26458333,0,0,0.26458333,0,284.3)"
         d="m 107.05664,41.363281 c 1.07063,1.618229 0.55116,4.086915 0.96094,5.980469 h 4.56445 a 1.0001006,1.0001006 0 0 0 0.99609,-1.003906 v -3.980469 a 1.0001006,1.0001006 0 0 0 -0.99609,-0.996094 z"
         style="fill:#3a4d5c;fill-opacity:1;stroke-width:1.64767;stroke-linecap:round;stroke-linejoin:round"
         id="path1176" />
    </g>
  </g>
</svg>
