<?xml version="1.0" encoding="UTF-8" standalone="no"?>
<svg
   inkscape:export-ydpi="768"
   inkscape:export-xdpi="768"
   inkscape:export-filename="C:\Users\RainBoyz\Desktop\EXP\FLAT ICON\SVG\Forest.png"
   width="48pt"
   height="48pt"
   viewBox="0 0 16.933334 16.933333"
   version="1.1"
   id="svg979"
   inkscape:version="1.1 (c68e22c387, 2021-05-23)"
   sodipodi:docname="16 - Forest.svg"
   xmlns:inkscape="http://www.inkscape.org/namespaces/inkscape"
   xmlns:sodipodi="http://sodipodi.sourceforge.net/DTD/sodipodi-0.dtd"
   xmlns="http://www.w3.org/2000/svg"
   xmlns:svg="http://www.w3.org/2000/svg"
   xmlns:rdf="http://www.w3.org/1999/02/22-rdf-syntax-ns#"
   xmlns:cc="http://creativecommons.org/ns#"
   xmlns:dc="http://purl.org/dc/elements/1.1/">
  <defs
     id="defs973" />
  <sodipodi:namedview
     id="base"
     pagecolor="#ffffff"
     bordercolor="#666666"
     borderopacity="1.0"
     inkscape:pageopacity="0.0"
     inkscape:pageshadow="2"
     inkscape:zoom="3.4984891"
     inkscape:cx="-53.022889"
     inkscape:cy="-10.004319"
     inkscape:document-units="pt"
     inkscape:current-layer="layer1"
     showgrid="false"
     units="pt"
     inkscape:window-width="1366"
     inkscape:window-height="716"
     inkscape:window-x="-8"
     inkscape:window-y="-8"
     inkscape:window-maximized="1"
     inkscape:document-rotation="0"
     inkscape:snap-bbox="true"
     inkscape:bbox-nodes="true"
     inkscape:snap-nodes="false"
     inkscape:pagecheckerboard="0">
    <inkscape:grid
       type="xygrid"
       id="grid1526" />
    <sodipodi:guide
       position="0.97013909,15.963209"
       orientation="56.666615,0"
       id="guide1528"
       inkscape:locked="false" />
    <sodipodi:guide
       position="0.97013909,0.97016731"
       orientation="0,56.666667"
       id="guide1530"
       inkscape:locked="false" />
    <sodipodi:guide
       position="15.963195,0.97016731"
       orientation="-56.666615,0"
       id="guide1532"
       inkscape:locked="false" />
    <sodipodi:guide
       position="15.963195,15.963209"
       orientation="0,-56.666667"
       id="guide1534"
       inkscape:locked="false" />
  </sodipodi:namedview>
  <metadata
     id="metadata976">
    <rdf:RDF>
      <cc:Work
         rdf:about="">
        <dc:format>image/svg+xml</dc:format>
        <dc:type
           rdf:resource="http://purl.org/dc/dcmitype/StillImage" />
        <dc:title />
      </cc:Work>
    </rdf:RDF>
  </metadata>
  <g
     inkscape:label="Layer 1"
     inkscape:groupmode="layer"
     id="layer1"
     transform="translate(0,-280.06668)">
    <g
       id="g1173"
       style="display:inline"
       transform="matrix(1.2101027,0,0,1.2101027,54.063881,-116.46017)">
      <path
         id="path303"
         style="color:#000000;font-style:normal;font-variant:normal;font-weight:normal;font-stretch:normal;font-size:medium;line-height:normal;font-family:sans-serif;font-variant-ligatures:normal;font-variant-position:normal;font-variant-caps:normal;font-variant-numeric:normal;font-variant-alternates:normal;font-variant-east-asian:normal;font-feature-settings:normal;font-variation-settings:normal;text-indent:0;text-align:start;text-decoration:none;text-decoration-line:none;text-decoration-style:solid;text-decoration-color:#000000;letter-spacing:normal;word-spacing:normal;text-transform:none;writing-mode:lr-tb;direction:ltr;text-orientation:mixed;dominant-baseline:auto;baseline-shift:baseline;text-anchor:start;white-space:normal;shape-padding:0;shape-margin:0;inline-size:0;clip-rule:nonzero;display:inline;overflow:visible;visibility:visible;isolation:auto;mix-blend-mode:normal;color-interpolation:sRGB;color-interpolation-filters:linearRGB;solid-color:#000000;solid-opacity:1;vector-effect:none;fill:#9a605c;fill-opacity:1;fill-rule:nonzero;stroke:none;stroke-width:0.529167;stroke-linecap:round;stroke-linejoin:round;stroke-miterlimit:4;stroke-dasharray:none;stroke-dashoffset:0;stroke-opacity:1;color-rendering:auto;image-rendering:auto;shape-rendering:auto;text-rendering:auto;enable-background:accumulate;stop-color:#000000"
         d="m -38.501953,336.63281 c -0.201739,-0.007 -0.294425,0.20415 -0.261979,0.37662 0.0134,0.43039 0.04276,0.8607 0.01674,1.29127 -0.0091,0.44674 -0.03954,0.89324 -0.100468,1.33602 -0.212687,0.29162 -0.577005,0.48823 -0.665668,0.86259 -0.08236,0.20214 0.113289,0.40655 0.317183,0.36787 1.035433,0 2.070866,0 3.106299,0 0.275419,0.002 0.319827,-0.33213 0.19461,-0.51869 -0.135795,-0.29211 -0.434387,-0.45664 -0.610101,-0.71776 -0.0262,-0.1705 -0.04917,-0.39857 -0.06507,-0.5907 -0.03043,-0.44964 -0.04938,-0.90109 -0.04447,-1.35168 0.0072,-0.27522 0.02359,-0.5505 0.0249,-0.82568 -0.01777,-0.18705 -0.213914,-0.24952 -0.374132,-0.23025 -0.512616,1.3e-4 -1.025232,2.6e-4 -1.537848,3.9e-4 z" />
      <path
         id="path1152"
         style="color:#000000;font-style:normal;font-variant:normal;font-weight:normal;font-stretch:normal;font-size:medium;line-height:normal;font-family:sans-serif;font-variant-ligatures:normal;font-variant-position:normal;font-variant-caps:normal;font-variant-numeric:normal;font-variant-alternates:normal;font-variant-east-asian:normal;font-feature-settings:normal;font-variation-settings:normal;text-indent:0;text-align:start;text-decoration:none;text-decoration-line:none;text-decoration-style:solid;text-decoration-color:#000000;letter-spacing:normal;word-spacing:normal;text-transform:none;writing-mode:lr-tb;direction:ltr;text-orientation:mixed;dominant-baseline:auto;baseline-shift:baseline;text-anchor:start;white-space:normal;shape-padding:0;shape-margin:0;inline-size:0;clip-rule:nonzero;display:inline;overflow:visible;visibility:visible;isolation:auto;mix-blend-mode:normal;color-interpolation:sRGB;color-interpolation-filters:linearRGB;solid-color:#000000;solid-opacity:1;vector-effect:none;fill:#66342d;fill-opacity:1;fill-rule:nonzero;stroke:none;stroke-width:0.529167;stroke-linecap:round;stroke-linejoin:round;stroke-miterlimit:4;stroke-dasharray:none;stroke-dashoffset:0;stroke-opacity:1;color-rendering:auto;image-rendering:auto;shape-rendering:auto;text-rendering:auto;enable-background:accumulate;stop-color:#000000"
         d="m -36.851497,336.63221 c -0.557585,7.2e-4 -1.115213,-7.5e-4 -1.672772,0.001 -0.152654,0.008 -0.265269,0.1613 -0.24216,0.30892 0.0099,0.30383 0.02388,0.60765 0.03113,0.91148 -0.02981,0.13122 0.0321,0.24451 0.123386,0.33553 0.116795,0.10586 0.269642,0.16216 0.416298,0.21418 0.462132,0.1516 0.991378,0.0912 1.40245,-0.17031 0.08443,-0.0817 0.201335,-0.18126 0.176922,-0.31066 -0.0059,-0.20854 0.01059,-0.417 0.0149,-0.6255 0.0029,-0.14532 0.0144,-0.2908 0.01113,-0.436 -0.01519,-0.12796 -0.132437,-0.23071 -0.261284,-0.22898 z" />
      <path
         id="path297"
         style="color:#000000;font-style:normal;font-variant:normal;font-weight:normal;font-stretch:normal;font-size:medium;line-height:normal;font-family:sans-serif;font-variant-ligatures:normal;font-variant-position:normal;font-variant-caps:normal;font-variant-numeric:normal;font-variant-alternates:normal;font-variant-east-asian:normal;font-feature-settings:normal;font-variation-settings:normal;text-indent:0;text-align:start;text-decoration:none;text-decoration-line:none;text-decoration-style:solid;text-decoration-color:#000000;letter-spacing:normal;word-spacing:normal;text-transform:none;writing-mode:lr-tb;direction:ltr;text-orientation:mixed;dominant-baseline:auto;baseline-shift:baseline;text-anchor:start;white-space:normal;shape-padding:0;shape-margin:0;inline-size:0;clip-rule:nonzero;display:inline;overflow:visible;visibility:visible;isolation:auto;mix-blend-mode:normal;color-interpolation:sRGB;color-interpolation-filters:linearRGB;solid-color:#000000;solid-opacity:1;vector-effect:none;fill:#50b85a;fill-opacity:1;fill-rule:nonzero;stroke:none;stroke-width:0.529167;stroke-linecap:round;stroke-linejoin:round;stroke-miterlimit:4;stroke-dasharray:none;stroke-dashoffset:0;stroke-opacity:1;color-rendering:auto;image-rendering:auto;shape-rendering:auto;text-rendering:auto;enable-background:accumulate;stop-color:#000000"
         d="m -37.081973,328.48955 c -0.463875,0.10383 -0.821039,0.30464 -1.282062,0.0584 -0.460798,-0.11089 -0.846979,0.26634 -0.932164,0.69488 -0.10195,0.36773 -0.630563,-0.26917 -0.974262,-0.10163 -0.665239,0.0176 -1.041178,0.7535 -0.907749,1.35167 0.174469,0.42414 -0.527351,0.51063 -0.599384,0.92775 -0.278741,0.31412 0.246348,0.99644 -0.143333,1.03506 -0.727551,0.0415 -1.335344,0.74107 -1.203544,1.47359 -0.03085,0.46913 0.546481,0.77535 0.340013,1.21423 -0.143267,0.61268 0.285128,1.32931 0.94851,1.34116 0.377201,-0.031 0.667457,-0.14721 0.659979,0.348 0.105387,0.59814 0.711759,1.09709 1.327296,0.92986 0.49939,-0.0616 0.818282,-0.70036 1.05691,-0.89755 0.267385,0.55333 1.010451,0.63698 1.547714,0.50574 0.371055,0.079 0.62134,-0.57729 0.775468,-0.45783 0.280056,0.56637 0.950256,1.08731 1.598321,0.80126 0.532474,-0.20367 0.703868,-0.79949 0.802053,-1.3057 0.545795,0.21561 1.269304,-0.006 1.452882,-0.60327 0.182706,-0.53415 -0.168124,-1.03985 0.270145,-1.48118 0.325771,-0.66527 0.0026,-1.56338 -0.724601,-1.78764 -0.443532,-0.0552 -0.661387,-0.10571 -0.448098,-0.56981 0.117589,-0.53697 -0.300985,-0.98725 -0.720344,-1.24975 0.189809,-0.5771 0.01446,-1.38767 -0.65264,-1.5453 -0.386538,-0.16295 -0.878081,0.16024 -1.138523,0.1881 -0.07443,-0.51542 -0.509678,-0.93965 -1.052589,-0.87005 z" />
      <path
         id="path318"
         style="color:#000000;font-style:normal;font-variant:normal;font-weight:normal;font-stretch:normal;font-size:medium;line-height:normal;font-family:sans-serif;font-variant-ligatures:normal;font-variant-position:normal;font-variant-caps:normal;font-variant-numeric:normal;font-variant-alternates:normal;font-variant-east-asian:normal;font-feature-settings:normal;font-variation-settings:normal;text-indent:0;text-align:start;text-decoration:none;text-decoration-line:none;text-decoration-style:solid;text-decoration-color:#000000;letter-spacing:normal;word-spacing:normal;text-transform:none;writing-mode:lr-tb;direction:ltr;text-orientation:mixed;dominant-baseline:auto;baseline-shift:baseline;text-anchor:start;white-space:normal;shape-padding:0;shape-margin:0;inline-size:0;clip-rule:nonzero;display:inline;overflow:visible;visibility:visible;opacity:1;isolation:auto;mix-blend-mode:normal;color-interpolation:sRGB;color-interpolation-filters:linearRGB;solid-color:#000000;solid-opacity:1;vector-effect:none;fill:#66342d;fill-opacity:1;fill-rule:nonzero;stroke:none;stroke-width:0.529167;stroke-linecap:round;stroke-linejoin:round;stroke-miterlimit:4;stroke-dasharray:none;stroke-dashoffset:0;stroke-opacity:1;color-rendering:auto;image-rendering:auto;shape-rendering:auto;text-rendering:auto;enable-background:accumulate;stop-color:#000000;stop-opacity:1"
         d="m -39.792969,340.33789 c -0.325012,-0.0182 -0.353443,0.51111 -0.02837,0.52789 1.420192,0.003 2.840537,4.7e-4 4.260788,0.001 0.32619,0.0181 0.352777,-0.51357 0.02642,-0.52808 -1.419551,-0.003 -2.839246,-4.1e-4 -4.258838,-0.001 z" />
      <path
         id="path320"
         style="fill:#46a05d;fill-opacity:1;stroke:none;stroke-width:0.264583px;stroke-linecap:butt;stroke-linejoin:miter;stroke-opacity:1"
         d="m -37.081973,328.48955 c -0.441407,0.0623 -0.779695,0.33852 -1.211373,0.0696 -0.39361,-0.11106 -0.830453,0.10991 -0.941052,0.51046 -0.06877,0.23747 -0.109186,0.4549 -0.362889,0.21264 -0.516308,-0.28735 -1.285071,-0.14308 -1.503513,0.45479 -0.103963,0.32799 -0.253524,1.0433 0.239318,1.05361 1.443532,0.28777 2.941172,0.94637 3.734485,2.25111 0.691007,1.12015 0.765572,2.4995 0.605713,3.77437 0.268632,0.54552 0.815608,1.10313 1.476492,0.95342 0.54034,-0.10493 0.834337,-0.63665 0.925446,-1.13734 0.02905,-0.4414 0.659389,0.0428 0.956024,-0.23135 0.600126,-0.2514 0.751248,-1.02742 0.516737,-1.58461 0.485412,-0.53641 0.620122,-1.47011 0.04365,-1.99469 -0.237988,-0.31355 -0.801021,-0.31633 -1.013262,-0.44298 0.134586,-0.39377 0.195567,-0.87082 -0.107733,-1.20733 -0.241292,-0.29705 -0.651015,-0.42478 -0.447273,-0.8629 0.06021,-0.54234 -0.305641,-1.14062 -0.887108,-1.16643 -0.337957,-0.0914 -0.754589,0.22247 -0.971074,0.21764 -0.08353,-0.37635 -0.288448,-0.78593 -0.717108,-0.83985 -0.109672,-0.0258 -0.222985,-0.0355 -0.335481,-0.0302 z" />
      <path
         id="path1164"
         style="color:#000000;font-style:normal;font-variant:normal;font-weight:normal;font-stretch:normal;font-size:medium;line-height:normal;font-family:sans-serif;font-variant-ligatures:normal;font-variant-position:normal;font-variant-caps:normal;font-variant-numeric:normal;font-variant-alternates:normal;font-variant-east-asian:normal;font-feature-settings:normal;font-variation-settings:normal;text-indent:0;text-align:start;text-decoration:none;text-decoration-line:none;text-decoration-style:solid;text-decoration-color:#000000;letter-spacing:normal;word-spacing:normal;text-transform:none;writing-mode:lr-tb;direction:ltr;text-orientation:mixed;dominant-baseline:auto;baseline-shift:baseline;text-anchor:start;white-space:normal;shape-padding:0;shape-margin:0;inline-size:0;clip-rule:nonzero;display:inline;overflow:visible;visibility:visible;opacity:1;isolation:auto;mix-blend-mode:normal;color-interpolation:sRGB;color-interpolation-filters:linearRGB;solid-color:#000000;solid-opacity:1;vector-effect:none;fill:#3f8f54;fill-opacity:1;fill-rule:nonzero;stroke:none;stroke-width:0.529167;stroke-linecap:round;stroke-linejoin:round;stroke-miterlimit:4;stroke-dasharray:none;stroke-dashoffset:0;stroke-opacity:1;color-rendering:auto;image-rendering:auto;shape-rendering:auto;text-rendering:auto;enable-background:accumulate;stop-color:#000000;stop-opacity:1"
         d="m -38.318074,328.48593 c -0.38819,-0.008 -0.822728,0.1871 -0.919799,0.59638 -0.05219,0.22304 -0.09662,0.4072 -0.318435,0.20153 -0.477972,-0.25486 -1.18519,-0.20022 -1.471898,0.31052 -0.192201,0.33484 -0.18462,0.74707 -0.08763,1.11056 -0.486494,0.28433 -0.837906,0.82573 -0.765024,1.40359 0.05527,0.62912 0.45267,1.18175 0.910883,1.58858 0.291345,0.15745 0.53686,-0.30278 0.25956,-0.47149 -0.394731,-0.40577 -0.801101,-0.98669 -0.58922,-1.57771 0.100976,-0.29381 0.357605,-0.49203 0.620621,-0.63399 0.243457,-0.25937 -0.133924,-0.58269 -0.03108,-0.88583 0.04871,-0.43821 0.601468,-0.59323 0.951017,-0.40305 0.215977,0.11357 0.535024,0.50013 0.736295,0.14079 0.03118,-0.28049 0.0834,-0.60853 0.36002,-0.75996 0.277083,-0.18142 0.631836,-0.0789 0.882724,0.0973 0.311142,0.0752 0.563356,-0.31026 0.89651,-0.17566 0.344688,0.0738 0.551406,0.43292 0.532557,0.7699 0.09429,0.38546 0.505477,0.16204 0.674382,-0.0302 0.340518,-0.22902 0.938732,-0.13317 1.026999,0.31913 0.116238,0.3078 -0.222186,0.61009 -0.05822,0.89244 0.263785,0.17837 0.56873,0.36212 0.66243,0.69319 0.192072,0.58627 -0.207942,1.15199 -0.59711,1.55342 -0.287407,0.17427 -0.01546,0.64309 0.273486,0.46242 0.538229,-0.48691 1.003298,-1.19959 0.881985,-1.95829 -0.04545,-0.43259 -0.387323,-0.74143 -0.728379,-0.96797 0.198292,-0.5494 0.0452,-1.29495 -0.535272,-1.54115 -0.417408,-0.18221 -0.904909,-0.0554 -1.267718,0.19136 -0.09879,-0.3396 -0.220105,-0.7787 -0.625836,-0.85238 -0.389484,-0.17115 -0.784977,0.29903 -1.113804,0.0522 -0.175234,-0.0797 -0.367511,-0.12561 -0.560045,-0.12557 z" />
    </g>
  </g>
</svg>
