<?xml version="1.0" encoding="UTF-8" standalone="no"?>
<!-- Created with Inkscape (http://www.inkscape.org/) -->

<svg
   width="48pt"
   height="48pt"
   viewBox="0 0 16.933334 16.933333"
   version="1.1"
   id="svg979"
   inkscape:version="1.1 (c68e22c387, 2021-05-23)"
   sodipodi:docname="22 - Recycling Truck.svg"
   inkscape:export-filename="E:\TR Design Studio Creative\Project Design\TR Creative Design\Icon Design\Project Hiring\Icon Icons\006 - Ecology\Send\3 - Flat\22 - Recycling Truck.png"
   inkscape:export-xdpi="768"
   inkscape:export-ydpi="768"
   xmlns:inkscape="http://www.inkscape.org/namespaces/inkscape"
   xmlns:sodipodi="http://sodipodi.sourceforge.net/DTD/sodipodi-0.dtd"
   xmlns="http://www.w3.org/2000/svg"
   xmlns:svg="http://www.w3.org/2000/svg"
   xmlns:rdf="http://www.w3.org/1999/02/22-rdf-syntax-ns#"
   xmlns:cc="http://creativecommons.org/ns#"
   xmlns:dc="http://purl.org/dc/elements/1.1/">
  <defs
     id="defs973" />
  <sodipodi:namedview
     id="base"
     pagecolor="#ffffff"
     bordercolor="#666666"
     borderopacity="1.0"
     inkscape:pageopacity="0.0"
     inkscape:pageshadow="2"
     inkscape:zoom="7.6875"
     inkscape:cx="32"
     inkscape:cy="32"
     inkscape:document-units="pt"
     inkscape:current-layer="layer1"
     showgrid="false"
     units="pt"
     inkscape:window-width="1366"
     inkscape:window-height="716"
     inkscape:window-x="-8"
     inkscape:window-y="-8"
     inkscape:window-maximized="1"
     inkscape:pagecheckerboard="0"
     inkscape:snap-bbox="true"
     inkscape:snap-nodes="false"
     inkscape:bbox-nodes="true"
     showguides="false">
    <inkscape:grid
       type="xygrid"
       id="grid1526" />
    <sodipodi:guide
       position="0.97013909,15.963209"
       orientation="56.666615,0"
       id="guide1528"
       inkscape:locked="false" />
    <sodipodi:guide
       position="0.97013909,0.97016731"
       orientation="0,56.666667"
       id="guide1530"
       inkscape:locked="false" />
    <sodipodi:guide
       position="15.963195,0.97016731"
       orientation="-56.666615,0"
       id="guide1532"
       inkscape:locked="false" />
    <sodipodi:guide
       position="15.963195,15.963209"
       orientation="0,-56.666667"
       id="guide1534"
       inkscape:locked="false" />
  </sodipodi:namedview>
  <metadata
     id="metadata976">
    <rdf:RDF>
      <cc:Work
         rdf:about="">
        <dc:format>image/svg+xml</dc:format>
        <dc:type
           rdf:resource="http://purl.org/dc/dcmitype/StillImage" />
      </cc:Work>
    </rdf:RDF>
  </metadata>
  <g
     inkscape:label="Layer 1"
     inkscape:groupmode="layer"
     id="layer1"
     transform="translate(0,-280.06668)">
    <g
       id="g286589"
       style="display:inline;stroke-width:0.811717"
       transform="matrix(1.2319565,0,0,1.2319565,-80.714355,-69.534015)">
      <g
         id="g286200"
         style="stroke-width:0.811717">
        <path
           style="color:#000000;fill:#3d9654;stroke-width:0.811717;stroke-linecap:round;stroke-linejoin:round;-inkscape-stroke:none;paint-order:markers fill stroke"
           d="m 68.685547,288.26953 a 0.2645835,0.2645835 0 0 0 -0.263672,0.26367 v 0.5293 a 0.2645835,0.2645835 0 0 0 0.263672,0.26367 0.2645835,0.2645835 0 0 0 0.265625,-0.26367 v -0.5293 a 0.2645835,0.2645835 0 0 0 -0.265625,-0.26367 z"
           id="path5312" />
        <path
           style="color:#000000;fill:#50b86b;stroke-width:0.811717;stroke-linecap:round;stroke-linejoin:round;-inkscape-stroke:none;paint-order:markers fill stroke"
           d="m 67.363281,288.79883 a 0.26460996,0.26460996 0 0 0 -0.24414,0.16015 l -0.792969,1.85157 a 0.26460996,0.26460996 0 0 0 -0.02148,0.10351 v 1.58789 a 0.26460996,0.26460996 0 0 0 0.263672,0.26563 h 3.96875 a 0.26460996,0.26460996 0 0 0 0.265625,-0.26563 v -3.43945 a 0.26460996,0.26460996 0 0 0 -0.265625,-0.26367 z"
           id="path248534" />
        <path
           id="path258186"
           style="color:#000000;fill:#46a05d;fill-opacity:1;stroke-width:3.06791;stroke-linecap:round;stroke-linejoin:round;-inkscape-stroke:none;paint-order:markers fill stroke"
           d="M 267.60156,31 V 18 c -0.0617,-0.559505 -0.1868,-1.066117 -1.0039,-0.996094 h -11.9961 c -0.40157,-0.002 -0.76537,0.236473 -0.92383,0.605469 l -1.3789,3.21875 h 10.76172 c 0.55226,-0.0021 1.00169,0.443867 1.0039,0.996094 v 10.179687 h 2.53321 c 0.76345,-0.02572 0.86545,-0.527941 1.0039,-1.003906 z"
           transform="matrix(0.26458333,0,0,0.26458333,0,284.3)"
           sodipodi:nodetypes="ccccccccccc" />
        <path
           style="color:#000000;fill:#f5f6e8;stroke-width:0.811717;stroke-linecap:round;stroke-linejoin:round;-inkscape-stroke:none;paint-order:markers fill stroke"
           d="m 67.892578,289.5918 a 0.26460996,0.26460996 0 0 0 -0.236328,0.14648 l -0.265625,0.5293 a 0.26460996,0.26460996 0 0 0 -0.02734,0.11719 v 0.79492 a 0.26460996,0.26460996 0 0 0 0.263672,0.26367 h 0.794922 a 0.26460996,0.26460996 0 0 0 0.263672,-0.26367 h 1.058594 a 0.26460996,0.26460996 0 0 0 0.263671,-0.26563 v -1.05859 a 0.26460996,0.26460996 0 0 0 -0.263671,-0.26367 z"
           id="path248558" />
        <path
           id="path256842"
           style="color:#000000;fill:#dedfd3;fill-opacity:1;stroke-width:0.811717;stroke-linecap:round;stroke-linejoin:round;-inkscape-stroke:none;paint-order:markers fill stroke"
           d="m 67.8927,289.5918 a 0.26460995,0.26460995 0 0 0 -0.236162,0.14676 l -0.191717,0.38241 h 1.75028 a 0.26460995,0.26460995 0 0 1 0.263548,0.26407 v 0.79478 h 0.265618 a 0.26460995,0.26460995 0 0 0 0.263549,-0.26562 v -1.05885 a 0.26460995,0.26460995 0 0 0 -0.263549,-0.26355 z" />
      </g>
      <g
         id="g286208"
         style="stroke-width:0.811717">
        <path
           id="path248514"
           style="color:#000000;fill:#50b86b;stroke-width:3.06791;stroke-linecap:round;stroke-linejoin:round;-inkscape-stroke:none;paint-order:markers fill stroke"
           d="m 285.59766,14 a 1.0001006,1.0001006 0 0 0 -0.9961,1.003906 V 16 a 1.0001006,1.0001006 0 0 0 0.0293,0.257812 l 3.9707,14.888672 v 0.857422 A 1.0001006,1.0001006 0 0 0 289.59961,33 h 6 a 1.0001006,1.0001006 0 0 0 0.99805,-0.996094 V 20 a 1.0001006,1.0001006 0 0 0 -0.21485,-0.626953 L 293.68359,16 h 0.91211 A 1.0000006,1.0000006 0 0 0 295.59961,15.003906 1.0000006,1.0000006 0 0 0 294.5957,14 h -2.99609 -2 z"
           transform="matrix(0.26458333,0,0,0.26458333,0,284.3)" />
        <path
           style="color:#000000;fill:#50b86b;stroke-width:0.811717;stroke-linecap:round;stroke-linejoin:round;-inkscape-stroke:none;paint-order:markers fill stroke"
           d="m 71.595703,287.47461 c -0.435245,0 -0.792972,0.35968 -0.792969,0.79492 v 0.26367 a 0.26460996,0.26460996 0 0 0 0.263672,0.26563 h 4.498047 a 0.26460996,0.26460996 0 0 0 0.265625,-0.26563 v -0.52929 c 0,-0.28912 -0.240178,-0.5293 -0.529297,-0.5293 z"
           id="path248542" />
        <path
           id="path279466"
           style="color:#000000;fill:#46a05d;fill-opacity:1;stroke-width:0.811717;stroke-linecap:round;stroke-linejoin:round;-inkscape-stroke:none;paint-order:markers fill stroke"
           d="m 75.56438,288.00417 c -0.146124,5.8e-4 -0.26411,0.11949 -0.263552,0.26561 v 0.26355 h 1.465543 c 0.368912,0.47807 0.74103,0.95335 1.122413,1.42162 0.03725,0.0472 0.0573,0.10578 0.05685,0.16588 v 2.91042 h 0.265099 c 0.145516,-3e-4 0.263483,-0.11804 0.264068,-0.26355 v -3.17603 c 4.52e-4,-0.0602 -0.01959,-0.11866 -0.05685,-0.16588 l -0.714169,-0.89246 h 0.241329 c 0.146127,5.7e-4 0.265049,-0.11742 0.265618,-0.26355 5.77e-4,-0.14694 -0.118681,-0.26619 -0.265618,-0.26561 z" />
        <path
           id="path17948"
           style="color:#000000;fill:#388b4e;fill-opacity:1;stroke-width:3.06791;stroke-linecap:round;stroke-linejoin:round;-inkscape-stroke:none;paint-order:markers fill stroke"
           d="m 287.23047,26.001953 0.5332,2 h 8.83399 v -2 z"
           transform="matrix(0.26458333,0,0,0.26458333,0,284.3)" />
        <path
           id="path18992"
           style="color:#000000;fill:#388b4e;fill-opacity:1;stroke-width:3.06791;stroke-linecap:round;stroke-linejoin:round;-inkscape-stroke:none;paint-order:markers fill stroke"
           d="m 285.36133,18.996094 0.5332,2 h 10.70313 V 20 a 1.0001006,1.0001006 0 0 0 -0.21485,-0.626953 l -0.30078,-0.376953 z"
           transform="matrix(0.26458333,0,0,0.26458333,0,284.3)" />
        <path
           id="path284083"
           style="color:#000000;fill:#46a05d;fill-opacity:1;stroke-width:0.811717;stroke-linecap:round;stroke-linejoin:round;-inkscape-stroke:none;paint-order:markers fill stroke"
           d="m 74.771662,287.47449 c 0.289121,0 0.529166,0.24004 0.529166,0.52916 v 0.52969 a 0.26460995,0.26460995 0 0 1 -0.265615,0.26561 h 0.529167 a 0.26460995,0.26460995 0 0 0 0.265615,-0.26561 v -0.52969 c 0,-0.28912 -0.240046,-0.52916 -0.529167,-0.52916 z" />
      </g>
      <g
         id="g286193"
         style="stroke-width:0.811717">
        <path
           style="color:#000000;fill:#388b4e;fill-opacity:1;stroke-width:0.811717;stroke-linecap:round;stroke-linejoin:round;-inkscape-stroke:none;paint-order:markers fill stroke"
           d="m 70.537109,288.26953 c -0.145408,5.1e-4 -0.263156,0.11826 -0.263672,0.26367 v 4.23438 c 2.116537,0 4.233073,0 6.34961,0 0.174582,3.3e-4 0.301634,-0.16552 0.255859,-0.33399 l -1.058594,-3.96875 c -0.03133,-0.11546 -0.136228,-0.19553 -0.255859,-0.19531 z"
           id="path248550"
           sodipodi:nodetypes="cccccccc" />
        <path
           id="path10167"
           style="color:#000000;fill:#f5f6e8;stroke-width:3.06791;stroke-linecap:round;stroke-linejoin:round;-inkscape-stroke:none;paint-order:markers fill stroke"
           d="m 275.99023,19.003906 c -1.48121,0.02687 -2.97749,0.899343 -3.65039,2.472656 -0.2183,0.507591 0.0156,1.09645 0.52344,1.314454 0.50757,0.218456 1.09647,-0.01445 1.31445,-0.523438 0.36711,-0.858331 1.13756,-1.263672 1.88282,-1.263672 0.30435,0 0.52787,0.03839 0.71679,0.111328 a 1.0000006,1.0000006 0 0 0 -0.0664,0.177735 1.0000006,1.0000006 0 0 0 0.70117,1.224609 l 1.1875,0.31836 a 1.0001006,1.0001006 0 0 0 1.22656,-0.708985 l 0.31641,-1.189453 a 1.0000006,1.0000006 0 0 0 -0.70899,-1.224609 1.0000006,1.0000006 0 0 0 -0.87304,0.185547 c -0.0656,-0.05623 -0.13444,-0.111178 -0.20508,-0.164063 -0.60439,-0.452447 -1.40002,-0.730469 -2.29492,-0.730469 -0.0235,0 -0.0468,-4.26e-4 -0.0703,0 z"
           transform="matrix(0.26458333,0,0,0.26458333,0,284.3)" />
        <path
           id="path11427"
           style="color:#000000;fill:#f5f6e8;stroke-width:3.06791;stroke-linecap:round;stroke-linejoin:round;-inkscape-stroke:none;paint-order:markers fill stroke"
           d="m 273.30859,24.128906 a 1.0001006,1.0001006 0 0 0 -0.93945,0.744141 l -0.31641,1.1875 a 1.0000006,1.0000006 0 0 0 0.70899,1.226562 1.0000006,1.0000006 0 0 0 0.87695,-0.18164 c 0.0665,0.05712 0.13556,0.112507 0.20703,0.166015 0.60439,0.452485 1.40198,0.72461 2.29688,0.72461 1.55061,0 3.05229,-0.906408 3.71875,-2.47461 0.2174,-0.509593 -0.0205,-1.097369 -0.53125,-1.3125 -0.24473,-0.104693 -0.52086,-0.107592 -0.76758,-0.0078 -0.2465,0.09978 -0.44174,0.293847 -0.54492,0.539062 -0.36737,0.864416 -1.05933,1.253907 -1.875,1.253907 -0.30123,0 -0.52704,-0.03789 -0.7168,-0.109375 a 1.0000006,1.0000006 0 0 0 0.0664,-0.177735 1.0000006,1.0000006 0 0 0 -0.70899,-1.226562 l -1.18164,-0.316407 a 1.0001006,1.0001006 0 0 0 -0.29297,-0.03516 z"
           transform="matrix(0.26458333,0,0,0.26458333,0,284.3)" />
        <path
           id="path274969"
           style="color:#000000;fill:#29673a;fill-opacity:1;stroke-width:0.811717;stroke-linecap:round;stroke-linejoin:round;-inkscape-stroke:none;paint-order:markers fill stroke"
           d="m 70.537297,288.26978 c -0.14541,5.1e-4 -0.263552,0.11814 -0.264068,0.26355 v 0.26562 h 2.380991 c 1.231233,0 2.680719,0.36728 3.140117,2.08179 l 0.50333,1.88696 h 0.325562 c 0.174583,3.2e-4 0.301572,-0.16588 0.255799,-0.33435 l -1.058852,-3.96875 c -0.03133,-0.11546 -0.136167,-0.19504 -0.255796,-0.19482 z"
           sodipodi:nodetypes="ccccccccccc" />
      </g>
      <g
         id="g285657"
         style="stroke-width:0.811717">
        <path
           style="color:#000000;fill:#3a4d5c;stroke-width:0.811717;stroke-linecap:round;stroke-linejoin:round;-inkscape-stroke:none;paint-order:markers fill stroke"
           d="m 68.951172,291.70898 c -0.581367,0 -1.058594,0.47723 -1.058594,1.0586 0,0.58137 0.477227,1.05664 1.058594,1.05664 0.581367,0 1.05664,-0.47527 1.05664,-1.05664 0,-0.58137 -0.475273,-1.0586 -1.05664,-1.0586 z"
           id="path248608" />
        <path
           style="color:#000000;fill:#3a4d5c;stroke-width:0.811717;stroke-linecap:round;stroke-linejoin:round;-inkscape-stroke:none;paint-order:markers fill stroke"
           d="m 74.771484,291.70898 c -0.581367,0 -1.058593,0.47723 -1.058593,1.0586 0,0.58137 0.477226,1.05664 1.058593,1.05664 0.581367,0 1.058594,-0.47527 1.058594,-1.05664 0,-0.58137 -0.477227,-1.0586 -1.058594,-1.0586 z"
           id="path248616" />
        <path
           id="path254457"
           style="color:#000000;fill:#143441;fill-opacity:1;stroke-width:0.811717;stroke-linecap:round;stroke-linejoin:round;-inkscape-stroke:none;paint-order:markers fill stroke"
           d="m 68.951347,291.70885 c -0.426699,0 -0.797293,0.25709 -0.964284,0.62373 0.132902,-0.0605 0.280447,-0.0946 0.435117,-0.0946 0.581367,0 1.056265,0.47748 1.056265,1.05885 0,0.15442 -0.03338,0.30103 -0.09353,0.43356 0.366421,-0.16629 0.622699,-0.53579 0.622699,-0.96273 0,-0.58137 -0.474898,-1.05885 -1.056264,-1.05885 z" />
        <path
           style="color:#000000;fill:#f5f6e8;fill-opacity:1;stroke-width:0.811717;stroke-linecap:round;stroke-linejoin:round;-inkscape-stroke:none;paint-order:markers fill stroke"
           d="m 68.951172,292.23828 c 0.295384,0 0.529297,0.23391 0.529297,0.5293 0,0.29538 -0.233913,0.52734 -0.529297,0.52734 -0.295384,0 -0.529297,-0.23196 -0.529297,-0.52734 0,-0.29539 0.233913,-0.5293 0.529297,-0.5293 z"
           id="path248798" />
        <path
           id="path256492"
           style="color:#000000;fill:#143441;fill-opacity:1;stroke-width:0.811717;stroke-linecap:round;stroke-linejoin:round;-inkscape-stroke:none;paint-order:markers fill stroke"
           d="m 74.773811,291.70885 c -0.426699,0 -0.797293,0.25709 -0.964284,0.62373 0.132902,-0.0605 0.280447,-0.0946 0.435117,-0.0946 0.581367,0 1.056265,0.47748 1.056265,1.05885 0,0.15442 -0.03338,0.30103 -0.09353,0.43356 0.366421,-0.16629 0.622699,-0.53579 0.622699,-0.96273 0,-0.58137 -0.474898,-1.05885 -1.056264,-1.05885 z" />
        <path
           style="color:#000000;fill:#f5f6e8;fill-opacity:1;stroke-width:0.811717;stroke-linecap:round;stroke-linejoin:round;-inkscape-stroke:none;paint-order:markers fill stroke"
           d="m 74.771484,292.23828 c 0.295385,0 0.529297,0.23391 0.529297,0.5293 0,0.29538 -0.233912,0.52734 -0.529297,0.52734 -0.295384,0 -0.529297,-0.23196 -0.529297,-0.52734 0,-0.29539 0.233913,-0.5293 0.529297,-0.5293 z"
           id="path248792" />
      </g>
    </g>
  </g>
</svg>
