<?xml version="1.0" encoding="UTF-8" standalone="no"?>
<!-- Created with Inkscape (http://www.inkscape.org/) -->

<svg
   width="48pt"
   height="48pt"
   viewBox="0 0 16.933334 16.933333"
   version="1.1"
   id="svg979"
   inkscape:version="1.1 (c68e22c387, 2021-05-23)"
   sodipodi:docname="21 - Greenhouse.svg"
   inkscape:export-filename="E:\TR Design Studio Creative\Project Design\TR Creative Design\Icon Design\Project Hiring\Icon Icons\006 - Ecology\Send\3 - Flat\21 - Greenhouse.png"
   inkscape:export-xdpi="768"
   inkscape:export-ydpi="768"
   xmlns:inkscape="http://www.inkscape.org/namespaces/inkscape"
   xmlns:sodipodi="http://sodipodi.sourceforge.net/DTD/sodipodi-0.dtd"
   xmlns="http://www.w3.org/2000/svg"
   xmlns:svg="http://www.w3.org/2000/svg"
   xmlns:rdf="http://www.w3.org/1999/02/22-rdf-syntax-ns#"
   xmlns:cc="http://creativecommons.org/ns#"
   xmlns:dc="http://purl.org/dc/elements/1.1/">
  <defs
     id="defs973" />
  <sodipodi:namedview
     id="base"
     pagecolor="#ffffff"
     bordercolor="#666666"
     borderopacity="1.0"
     inkscape:pageopacity="0.0"
     inkscape:pageshadow="2"
     inkscape:zoom="7.6875"
     inkscape:cx="32"
     inkscape:cy="32"
     inkscape:document-units="pt"
     inkscape:current-layer="layer1"
     showgrid="false"
     units="pt"
     inkscape:window-width="1366"
     inkscape:window-height="716"
     inkscape:window-x="-8"
     inkscape:window-y="-8"
     inkscape:window-maximized="1"
     inkscape:pagecheckerboard="0"
     inkscape:snap-bbox="true"
     inkscape:snap-nodes="false"
     inkscape:bbox-nodes="true"
     showguides="false">
    <inkscape:grid
       type="xygrid"
       id="grid1526" />
    <sodipodi:guide
       position="0.97013909,15.963209"
       orientation="56.666615,0"
       id="guide1528"
       inkscape:locked="false" />
    <sodipodi:guide
       position="0.97013909,0.97016731"
       orientation="0,56.666667"
       id="guide1530"
       inkscape:locked="false" />
    <sodipodi:guide
       position="15.963195,0.97016731"
       orientation="-56.666615,0"
       id="guide1532"
       inkscape:locked="false" />
    <sodipodi:guide
       position="15.963195,15.963209"
       orientation="0,-56.666667"
       id="guide1534"
       inkscape:locked="false" />
  </sodipodi:namedview>
  <metadata
     id="metadata976">
    <rdf:RDF>
      <cc:Work
         rdf:about="">
        <dc:format>image/svg+xml</dc:format>
        <dc:type
           rdf:resource="http://purl.org/dc/dcmitype/StillImage" />
      </cc:Work>
    </rdf:RDF>
  </metadata>
  <g
     inkscape:label="Layer 1"
     inkscape:groupmode="layer"
     id="layer1"
     transform="translate(0,-280.06668)">
    <g
       id="g245199"
       style="display:inline;stroke-width:0.811704"
       transform="matrix(1.231976,0,0,1.231976,-80.715642,-42.419998)">
      <g
         id="g244458"
         style="stroke-width:0.811704">
        <path
           style="color:#000000;fill:#d0e2ee;stroke-width:0.811704;stroke-linecap:round;stroke-linejoin:round;-inkscape-stroke:none;paint-order:markers fill stroke"
           d="m 67.626953,263.92969 a 0.2645835,0.2645835 0 0 0 -0.263672,0.26367 v 1.48437 a 0.2645835,0.2645835 0 0 0 0.263672,0.26563 0.2645835,0.2645835 0 0 0 0.265625,-0.26563 v -1.48437 a 0.2645835,0.2645835 0 0 0 -0.265625,-0.26367 z"
           id="path188574" />
        <path
           style="color:#000000;fill:#aabfd0;stroke-width:0.811704;stroke-linecap:round;stroke-linejoin:round;-inkscape-stroke:none;paint-order:markers fill stroke"
           d="m 67.628906,262.82422 a 0.26460996,0.26460996 0 0 0 -0.324219,0.1875 l -0.273437,1.02344 a 0.26460996,0.26460996 0 0 0 0.1875,0.32226 l 2.164062,0.58008 a 0.26460996,0.26460996 0 0 0 0.195313,-0.0215 l 1.341797,-0.73243 a 0.26460996,0.26460996 0 0 0 -0.05664,-0.48828 z"
           id="path188582" />
        <path
           id="path203518"
           style="color:#000000;fill:#96a8b7;fill-opacity:1;stroke:none;stroke-width:3.06786;stroke-linecap:round;stroke-linejoin:round;-inkscape-stroke:none;paint-order:markers fill stroke"
           d="m 264.99023,-78.640625 -7.61914,4.15625 4.86329,1.302734 a 1.0001006,1.0001006 0 0 0 0.73828,-0.08008 l 5.07031,-2.769531 a 1.0001006,1.0001006 0 0 0 -0.21289,-1.845703 z"
           transform="matrix(0.26458333,0,0,0.26458333,0,284.3)" />
        <path
           id="path204851"
           style="color:#000000;fill:#aabfd0;fill-opacity:1;stroke:none;stroke-width:3.06786;stroke-linecap:round;stroke-linejoin:round;-inkscape-stroke:none;paint-order:markers fill stroke"
           d="m 256.60156,-74.064453 -2,1.091797 v 2.589844 a 1.0000006,1.0000006 0 0 0 0.9961,1.003906 1.0000006,1.0000006 0 0 0 1.0039,-1.003906 z"
           transform="matrix(0.26458333,0,0,0.26458333,0,284.3)" />
      </g>
      <g
         id="g244821"
         style="stroke-width:0.811704">
        <path
           style="color:#000000;fill:#f0f7f9;stroke:none;stroke-width:3.06786;stroke-linecap:round;stroke-linejoin:round;-inkscape-stroke:none;paint-order:markers fill stroke"
           d="m 273.58984,-78.195312 c -0.16652,0.0013 -0.33261,0.04267 -0.48242,0.126953 l -19.99804,11.236328 c -0.31458,0.17726 -0.50769,0.510073 -0.50782,0.871093 v 22.035157 c -0.59644,0.349418 -1.0039,0.996628 -1.0039,1.726562 v 2.996094 c 0,1.090734 0.90932,2.001953 2,2.001953 17.76993,3.8e-5 23.59592,0 40.00195,0 1.09068,0 2,-0.911219 2,-2.001953 v -2.996094 c 0,-0.729934 -0.40746,-1.377144 -1.00391,-1.726562 v -22.507813 c -4e-4,-0.366614 -0.20085,-0.70433 -0.52343,-0.878906 l -19.99805,-10.763672 c -0.15111,-0.08202 -0.31785,-0.120463 -0.48438,-0.11914 z"
           transform="matrix(0.26458333,0,0,0.26458333,0,284.3)"
           id="path188558" />
        <path
           id="path228710"
           style="fill:#aabfd0;fill-opacity:1;stroke-width:1.62341;stroke-linecap:round;stroke-linejoin:round;paint-order:markers fill stroke;stop-color:#000000"
           d="m 294.5957,-43.111017 v -19.676092 h -3.99414 v 19.676092 z"
           transform="matrix(0.26458333,0,0,0.26458333,0,284.3)"
           sodipodi:nodetypes="ccccc" />
        <path
           id="path199593"
           style="color:#000000;fill:#aabfd0;fill-opacity:1;stroke:none;stroke-width:3.06786;stroke-linecap:round;stroke-linejoin:round;-inkscape-stroke:none;paint-order:markers fill stroke"
           d="m 273.58984,-78.195312 c -0.16652,0.0013 -0.33261,0.04267 -0.48242,0.126953 l -19.99804,11.236328 c -0.31458,0.17726 -0.50769,0.510074 -0.50782,0.871093 v 4.900391 c 0.42346,0.05101 0.86715,-0.0204 1.27735,-0.244141 l 17.04297,-9.300781 c 1.66786,-0.909732 3.68564,-0.909732 5.35351,0 l 16.84375,9.191407 c 0.47481,0.258987 0.99149,0.325899 1.47656,0.242187 v -5.261719 c -4e-4,-0.366614 -0.20085,-0.70433 -0.52343,-0.878906 l -19.99805,-10.763672 c -0.15111,-0.08202 -0.31785,-0.120463 -0.48438,-0.11914 z"
           transform="matrix(0.26458333,0,0,0.26458333,0,284.3)" />
        <path
           style="color:#000000;fill:#50b86b;stroke:none;stroke-width:0.811704;stroke-linecap:round;stroke-linejoin:round;-inkscape-stroke:none;paint-order:markers fill stroke"
           d="m 68.28125,267.71875 a 0.26460996,0.26460996 0 0 0 -0.25,0.24805 c 0,0 -0.01096,0.20926 0.0078,0.45117 0.01878,0.24191 0.02625,0.52431 0.251954,0.75 0.225689,0.22568 0.508092,0.23317 0.75,0.25195 0.241907,0.0188 0.449218,0.006 0.449218,0.006 a 0.26460996,0.26460996 0 0 0 0.25,-0.24805 c 0,0 0.01292,-0.20926 -0.0059,-0.45117 -0.01878,-0.24191 -0.02626,-0.52431 -0.251953,-0.75 -0.225691,-0.22568 -0.510043,-0.23317 -0.751953,-0.25195 -0.241911,-0.0188 -0.449219,-0.006 -0.449219,-0.006 z"
           id="path188596" />
        <path
           style="color:#000000;fill:#50b86b;stroke:none;stroke-width:0.811704;stroke-linecap:round;stroke-linejoin:round;-inkscape-stroke:none;paint-order:markers fill stroke"
           d="m 70.673828,267.31445 c 0,0 -0.207308,-0.0129 -0.449219,0.006 -0.24191,0.0188 -0.524308,0.0263 -0.75,0.25196 -0.225691,0.22569 -0.233178,0.50808 -0.251953,0.75 -0.01878,0.24191 -0.0078,0.45117 -0.0078,0.45117 a 0.26460996,0.26460996 0 0 0 0.25,0.24804 c 0,0 0.207311,0.0129 0.449218,-0.006 0.241908,-0.0188 0.524311,-0.0263 0.75,-0.25195 0.2257,-0.22569 0.233176,-0.50809 0.251954,-0.75 0.01878,-0.24191 0.0078,-0.45117 0.0078,-0.45117 a 0.26460996,0.26460996 0 0 0 -0.25,-0.24805 z"
           id="path188604" />
        <path
           style="color:#000000;fill:#50b86b;stroke:none;stroke-width:0.811704;stroke-linecap:round;stroke-linejoin:round;-inkscape-stroke:none;paint-order:markers fill stroke"
           d="m 74.105469,267.31445 a 0.26460996,0.26460996 0 0 0 -0.248047,0.24805 c 0,0 -0.01292,0.20926 0.0059,0.45117 0.01878,0.24191 0.02625,0.52431 0.251953,0.75 0.22569,0.22569 0.508092,0.23318 0.75,0.25195 0.241908,0.0188 0.451172,0.006 0.451172,0.006 a 0.26460996,0.26460996 0 0 0 0.248047,-0.24804 c 0,0 0.01292,-0.20926 -0.0059,-0.45117 -0.01878,-0.24191 -0.02627,-0.52431 -0.251953,-0.75 -0.225692,-0.22569 -0.50809,-0.23318 -0.75,-0.25196 -0.241911,-0.0188 -0.451172,-0.006 -0.451172,-0.006 z"
           id="path188618" />
        <path
           style="color:#000000;fill:#50b86b;stroke:none;stroke-width:0.811704;stroke-linecap:round;stroke-linejoin:round;-inkscape-stroke:none;paint-order:markers fill stroke"
           d="m 76.501953,267.71875 c 0,0 -0.207308,-0.0129 -0.449219,0.006 -0.241911,0.0188 -0.524308,0.0263 -0.75,0.25195 -0.225681,0.2257 -0.23513,0.50809 -0.253906,0.75 -0.01878,0.24191 -0.0059,0.45117 -0.0059,0.45117 a 0.26460996,0.26460996 0 0 0 0.25,0.24805 c 0,0 0.207311,0.0129 0.449218,-0.006 0.241908,-0.0188 0.524311,-0.0263 0.75,-0.25195 0.2257,-0.22569 0.233176,-0.50809 0.251954,-0.75 0.01878,-0.24191 0.0078,-0.45117 0.0078,-0.45117 a 0.26460996,0.26460996 0 0 0 -0.25,-0.24805 z"
           id="path188626" />
        <path
           style="color:#000000;fill:#2bb3cd;stroke:none;stroke-width:0.811704;stroke-linecap:round;stroke-linejoin:round;-inkscape-stroke:none;paint-order:markers fill stroke"
           d="M 72.390625,268.10742 A 0.2645835,0.2645835 0 0 0 72.125,268.37305 v 0.26367 a 0.2645835,0.2645835 0 0 0 0.265625,0.26367 0.2645835,0.2645835 0 0 0 0.263672,-0.26367 v -0.26367 a 0.2645835,0.2645835 0 0 0 -0.263672,-0.26563 z"
           id="path42144" />
        <path
           style="color:#000000;fill:#2bb3cd;stroke:none;stroke-width:0.811704;stroke-linecap:round;stroke-linejoin:round;-inkscape-stroke:none;paint-order:markers fill stroke"
           d="m 73.183594,268.10742 a 0.2645835,0.2645835 0 0 0 -0.263672,0.26563 v 0.26367 a 0.2645835,0.2645835 0 0 0 0.263672,0.26367 0.2645835,0.2645835 0 0 0 0.265625,-0.26367 v -0.26367 a 0.2645835,0.2645835 0 0 0 -0.265625,-0.26563 z"
           id="path42226" />
        <path
           style="color:#000000;fill:#2bb3cd;stroke:none;stroke-width:0.811704;stroke-linecap:round;stroke-linejoin:round;-inkscape-stroke:none;paint-order:markers fill stroke"
           d="m 71.595703,268.10742 a 0.2645835,0.2645835 0 0 0 -0.263672,0.26563 v 0.26367 a 0.2645835,0.2645835 0 0 0 0.263672,0.26367 0.2645835,0.2645835 0 0 0 0.265625,-0.26367 v -0.26367 a 0.2645835,0.2645835 0 0 0 -0.265625,-0.26563 z"
           id="path42228" />
        <path
           id="path219196"
           style="color:#000000;fill:#46a15e;fill-opacity:1;stroke:none;stroke-width:0.811704;stroke-linecap:round;stroke-linejoin:round;-inkscape-stroke:none;paint-order:markers fill stroke"
           d="m 76.301284,267.71445 c -0.07188,5e-4 -0.157845,0.003 -0.248563,0.0103 -0.241911,0.0188 -0.524134,0.026 -0.749824,0.25167 -0.102925,0.10293 -0.160967,0.21808 -0.195339,0.33538 0.1402,-0.0407 0.284115,-0.0476 0.415997,-0.0579 0.241911,-0.0189 0.449066,-0.006 0.449066,-0.006 a 0.26460995,0.26460995 0 0 1 0.250116,0.24805 c 0,0 0.01103,0.20922 -0.0078,0.45113 -0.01022,0.13165 -0.01736,0.27552 -0.05788,0.41548 0.117327,-0.0339 0.231913,-0.0914 0.334865,-0.1943 0.225697,-0.22569 0.233402,-0.50843 0.25218,-0.75034 0.01878,-0.24191 0.0078,-0.45114 0.0078,-0.45114 a 0.26460995,0.26460995 0 0 0 -0.250116,-0.24805 c 0,0 -0.08071,-0.005 -0.200504,-0.004 z" />
        <path
           id="path220749"
           style="color:#000000;fill:#46a15e;fill-opacity:1;stroke:none;stroke-width:0.811704;stroke-linecap:round;stroke-linejoin:round;-inkscape-stroke:none;paint-order:markers fill stroke"
           d="m 74.240429,267.31034 c -0.08256,8.5e-4 -0.134877,0.004 -0.134877,0.004 a 0.26460995,0.26460995 0 0 0 -0.248047,0.24805 c 0,0 -0.0074,0.11738 -0.0031,0.27802 0.05378,10e-4 0.112437,0.005 0.173114,0.009 0.241911,0.0188 0.524134,0.026 0.749827,0.25166 0.225681,0.22569 0.233399,0.50792 0.252179,0.74983 0.0047,0.0607 0.0074,0.11933 0.0088,0.17311 0.160639,0.004 0.278019,-0.003 0.278019,-0.003 a 0.26460995,0.26460995 0 0 0 0.248047,-0.24805 c 0,0 0.01313,-0.20974 -0.0057,-0.45165 -0.01878,-0.24191 -0.0265,-0.52413 -0.25218,-0.74982 -0.225692,-0.22569 -0.507915,-0.23289 -0.749826,-0.25167 -0.120954,-0.009 -0.233704,-0.0112 -0.316259,-0.0103 z" />
        <path
           id="path224124"
           style="color:#000000;fill:#46a15e;fill-opacity:1;stroke:none;stroke-width:0.811704;stroke-linecap:round;stroke-linejoin:round;-inkscape-stroke:none;paint-order:markers fill stroke"
           d="m 68.414944,267.71445 c -0.08207,8.5e-4 -0.133842,0.004 -0.133842,0.004 a 0.26460995,0.26460995 0 0 0 -0.249597,0.24805 c 0,0 -0.0064,0.11763 -0.0016,0.27854 0.05318,10e-4 0.110956,0.004 0.171051,0.009 0.241908,0.0188 0.526716,0.026 0.752409,0.25167 0.225692,0.22569 0.232883,0.50843 0.251663,0.75034 0.0047,0.0605 0.0074,0.11896 0.0088,0.1726 0.160089,0.004 0.276472,-0.003 0.276469,-0.003 a 0.26460995,0.26460995 0 0 0 0.250116,-0.24804 c 0,0 0.01262,-0.20923 -0.0062,-0.45114 -0.01878,-0.24191 -0.02597,-0.52465 -0.251664,-0.75034 -0.225692,-0.22568 -0.5105,-0.23289 -0.752409,-0.25167 -0.120957,-0.009 -0.233161,-0.0112 -0.315227,-0.0103 z" />
        <path
           id="path225487"
           style="color:#000000;fill:#46a15e;fill-opacity:1;stroke:none;stroke-width:0.811704;stroke-linecap:round;stroke-linejoin:round;-inkscape-stroke:none;paint-order:markers fill stroke"
           d="m 70.473217,267.31034 c -0.07188,5e-4 -0.157847,0.003 -0.248563,0.0103 -0.241911,0.0188 -0.524134,0.026 -0.749826,0.25167 -0.10287,0.10287 -0.160367,0.21763 -0.194302,0.33486 0.139875,-0.0404 0.2834,-0.0471 0.414962,-0.0574 0.241908,-0.0189 0.449067,-0.006 0.449067,-0.006 a 0.26460995,0.26460995 0 0 1 0.250113,0.24805 c 0,0 0.01103,0.20922 -0.0078,0.45113 -0.01021,0.13159 -0.01741,0.27506 -0.05788,0.41496 0.117297,-0.0339 0.231936,-0.0914 0.334861,-0.1943 0.225701,-0.22569 0.233403,-0.50791 0.252183,-0.74982 0.01878,-0.24191 0.0077,-0.45114 0.0077,-0.45114 a 0.26460995,0.26460995 0 0 0 -0.250113,-0.24805 c 0,0 -0.08071,-0.005 -0.200504,-0.004 z" />
        <path
           id="path9658"
           style="color:#000000;fill:#d0e2ee;stroke:none;stroke-width:3.06786;stroke-linecap:round;stroke-linejoin:round;-inkscape-stroke:none;paint-order:markers fill stroke"
           d="m 262.60352,-70.199219 c -0.55248,-0.0022 -1.00201,0.443603 -1.00391,0.996094 v 14.455078 h -7.00391 v -9.544922 c -0.002,-0.549581 -0.4465,-0.994205 -0.99609,-0.996093 -0.5496,0.0019 -0.9942,0.446512 -0.99609,0.996093 v 9.544922 h -0.002 v 2 h 0.002 v 8.548828 h -0.002 v 0.273438 c -0.59644,0.349418 -1.0039,0.996628 -1.0039,1.726562 h 10.00195 v 1.304688 3.693359 c 0.6946,10e-7 1.33977,0 2,0 v -28.996094 h 8.99805 v 2.996094 h 2.00195 v -2.996094 h 8.99805 v 28.996094 c 0.62614,0 1.3463,10e-7 2,0 v -4.998047 h 10.00195 c 0,-0.729934 -0.40746,-1.377144 -1.00391,-1.726562 V -63.875 c -0.0309,-0.526455 -0.46435,-0.945478 -0.99804,-0.943359 -0.5496,0.0019 -0.9942,0.448465 -0.9961,0.998047 v 9.072265 h -7.0039 v -14.455078 c -0.002,-0.549581 -0.4465,-0.994204 -0.9961,-0.996094 -0.55247,-0.0022 -1.002,0.443603 -1.0039,0.996094 v 1.003906 h -19.99805 v -1.003906 c -0.002,-0.549581 -0.4465,-0.994204 -0.99609,-0.996094 z m -8.00782,17.451172 h 7.00391 v 8.548828 h -7.00391 z m 31.00196,0 h 7.0039 v 8.548828 h -7.0039 z"
           transform="matrix(0.26458333,0,0,0.26458333,0,284.3)" />
        <path
           id="path197813"
           style="color:#000000;fill:#96a8b7;fill-opacity:1;stroke:none;stroke-width:3.06786;stroke-linecap:round;stroke-linejoin:round;-inkscape-stroke:none;paint-order:markers fill stroke"
           d="m 262.60352,-70.199219 c -0.55248,-0.0022 -1.00201,0.443603 -1.00391,0.996094 v 3.685547 l 4.91211,-2.681641 h -2.91211 v -1.003906 c -0.002,-0.549581 -0.4465,-0.994204 -0.99609,-0.996094 z m 21.99804,0 c -0.55247,-0.0022 -1.002,0.443603 -1.0039,0.996094 v 1.003906 h -2.91211 l 4.91211,2.681641 v -3.685547 c -0.002,-0.549581 -0.4465,-0.994204 -0.9961,-0.996094 z m -31.00195,4.910157 c -0.5496,0.0019 -0.9942,0.446512 -0.99609,0.996093 v 3.232422 c 0.42287,0.05056 0.86582,-0.02074 1.27539,-0.244141 l 0.71679,-0.390624 v -2.597657 c -0.002,-0.549581 -0.4465,-0.994206 -0.99609,-0.996093 z m 39.99805,0.470703 c -0.5496,0.0019 -0.9942,0.448465 -0.9961,0.998047 v 2.123046 l 0.51758,0.283204 c 0.47481,0.258987 0.99149,0.325899 1.47656,0.242187 V -63.875 c -0.0309,-0.526455 -0.46435,-0.945478 -0.99804,-0.943359 z"
           transform="matrix(0.26458333,0,0,0.26458333,0,284.3)" />
        <path
           style="color:#000000;fill:#3a4d5c;stroke:none;stroke-width:0.811704;stroke-linecap:round;stroke-linejoin:round;-inkscape-stroke:none;paint-order:markers fill stroke"
           d="m 71.861328,267.31445 a 0.2645835,0.2645835 0 0 0 -0.265625,0.26367 0.2645835,0.2645835 0 0 0 0.265625,0.26563 h 1.058594 a 0.2645835,0.2645835 0 0 0 0.263672,-0.26563 0.2645835,0.2645835 0 0 0 -0.263672,-0.26367 z"
           id="path28435" />
        <path
           style="color:#000000;fill:#d0e2ee;stroke:none;stroke-width:0.811704;stroke-linecap:round;stroke-linejoin:round;-inkscape-stroke:none;paint-order:markers fill stroke"
           d="m 71.429687,263.30273 -4.509765,2.46094 c -0.378432,0.20642 -0.615233,0.60409 -0.615235,1.03516 v 0.23633 c -6e-6,0.43347 0.486642,0.72319 0.867188,0.51562 l 4.509766,-2.46094 c 0.44129,-0.2407 0.974725,-0.2407 1.416015,0 l 4.457031,2.43164 c 0.404192,0.22047 0.919921,-0.0865 0.919922,-0.54687 v -0.11719 c 2e-6,-0.46792 -0.255226,-0.89898 -0.666015,-1.12305 l -4.457032,-2.43164 c -0.598645,-0.32653 -1.323229,-0.32653 -1.921875,0 z"
           id="path188722" />
      </g>
      <g
         id="g244110"
         style="stroke-width:0.811704">
        <path
           style="color:#000000;fill:#50b86b;stroke:none;stroke-width:0.811704;stroke-linecap:round;stroke-linejoin:round;-inkscape-stroke:none;paint-order:markers fill stroke"
           d="m 73.988281,269.43555 c 0,0 -0.274257,-0.0168 -0.591797,0.008 -0.317539,0.0247 -0.685001,0.0483 -0.949218,0.3125 -0.264207,0.26422 -0.287855,0.63168 -0.3125,0.94922 -0.02465,0.31754 -0.0098,0.59179 -0.0098,0.59179 a 0.26460996,0.26460996 0 0 0 0.25,0.25 c 0,0 0.274261,0.0149 0.591797,-0.01 0.317535,-0.0247 0.685002,-0.0463 0.949219,-0.31055 0.264218,-0.26421 0.287851,-0.63363 0.3125,-0.95117 0.02465,-0.31754 0.0078,-0.58984 0.0078,-0.58984 a 0.26460996,0.26460996 0 0 0 -0.248047,-0.25 z"
           id="path188646" />
        <path
           style="color:#000000;fill:#50b86b;stroke:none;stroke-width:0.811704;stroke-linecap:round;stroke-linejoin:round;-inkscape-stroke:none;paint-order:markers fill stroke"
           d="m 70.792969,269.43555 a 0.26460996,0.26460996 0 0 0 -0.25,0.25 c 0,0 -0.01684,0.2723 0.0078,0.58984 0.02465,0.31754 0.04828,0.68696 0.3125,0.95117 0.264217,0.26421 0.631683,0.2859 0.949219,0.31055 0.317536,0.0247 0.591797,0.01 0.591797,0.01 a 0.26460996,0.26460996 0 0 0 0.25,-0.25 c 0,0 0.01683,-0.27425 -0.0078,-0.59179 -0.02465,-0.31754 -0.04829,-0.685 -0.3125,-0.94922 -0.264217,-0.26421 -0.631679,-0.28785 -0.949218,-0.3125 -0.31754,-0.0247 -0.591797,-0.008 -0.591797,-0.008 z"
           id="path188654" />
        <path
           style="color:#000000;fill:#9a605c;stroke:none;stroke-width:0.811704;stroke-linecap:round;stroke-linejoin:round;-inkscape-stroke:none;paint-order:markers fill stroke"
           d="M 72.390625,270.59766 A 0.2645835,0.2645835 0 0 0 72.125,270.86328 v 1.74219 a 0.2645835,0.2645835 0 0 0 0.265625,0.26367 0.2645835,0.2645835 0 0 0 0.263672,-0.26367 v -1.74219 a 0.2645835,0.2645835 0 0 0 -0.263672,-0.26562 z"
           id="path16265" />
        <path
           id="path213289"
           style="color:#000000;fill:#46a15e;fill-opacity:1;stroke:none;stroke-width:0.811704;stroke-linecap:round;stroke-linejoin:round;-inkscape-stroke:none;paint-order:markers fill stroke"
           d="m 70.969827,269.43011 c -0.108257,10e-4 -0.176734,0.006 -0.176734,0.006 a 0.26460995,0.26460995 0 0 0 -0.129191,0.0424 c 0.219565,0.0344 0.438039,0.10421 0.611849,0.27802 0.264211,0.26422 0.287994,0.63175 0.312643,0.94929 0.02463,0.31754 0.0078,0.5917 0.0078,0.5917 a 0.26460995,0.26460995 0 0 1 -0.119372,0.20619 c 0.113689,0.0174 0.227737,0.0252 0.335896,0.0336 0.317535,0.0247 0.591696,0.0103 0.591696,0.0103 a 0.26460995,0.26460995 0 0 0 0.250113,-0.25011 c 0,0 0.01688,-0.27416 -0.0078,-0.5917 -0.02465,-0.31754 -0.04843,-0.68507 -0.312642,-0.94929 -0.264216,-0.26421 -0.631757,-0.288 -0.949296,-0.31265 -0.158769,-0.0123 -0.306705,-0.0145 -0.414962,-0.0134 z" />
        <path
           id="path214764"
           style="color:#000000;fill:#46a15e;fill-opacity:1;stroke:none;stroke-width:0.811704;stroke-linecap:round;stroke-linejoin:round;-inkscape-stroke:none;paint-order:markers fill stroke"
           d="m 73.723147,269.43011 c -0.09472,6.8e-4 -0.207518,0.004 -0.326594,0.0134 -0.108997,0.008 -0.223916,0.0172 -0.338481,0.0351 a 0.26460995,0.26460995 0 0 1 0.119888,0.20671 c 0,0 0.0169,0.2726 -0.0078,0.59014 -0.02465,0.31754 -0.04842,0.68664 -0.312642,0.95085 -0.17422,0.17424 -0.393311,0.24329 -0.613399,0.27699 a 0.26460995,0.26460995 0 0 0 0.130741,0.0439 c 0,0 0.274158,0.0146 0.591695,-0.0103 0.317535,-0.0247 0.685078,-0.0463 0.949296,-0.31057 0.264219,-0.26421 0.287994,-0.63331 0.312643,-0.95085 0.02465,-0.31754 0.0077,-0.59014 0.0077,-0.59014 a 0.26460995,0.26460995 0 0 0 -0.248047,-0.25012 v 5.2e-4 c 0,0 -0.107225,-0.007 -0.265099,-0.006 z" />
        <path
           id="path188730"
           style="color:#000000;fill:#f8c09d;stroke:none;stroke-width:3.06786;stroke-linecap:round;stroke-linejoin:round;-inkscape-stroke:none;paint-order:markers fill stroke"
           d="m 269.60156,-45.197266 c -1.11645,0 -2.07006,0.539488 -2.6875,1.25586 -0.61744,0.716371 -0.9786,1.578361 -1.26172,2.427734 l -1.0039,2.998047 a 1.0001006,1.0001006 0 0 0 -0.0527,0.316406 v 0.998047 c 5.80879,2e-6 12.47341,6e-6 18.00586,0 v -0.998047 a 1.0001006,1.0001006 0 0 0 -0.0527,-0.316406 l -1.00391,-2.998047 c -0.28312,-0.849373 -0.64428,-1.711363 -1.26172,-2.427734 -0.61743,-0.716372 -1.56323,-1.25586 -2.67968,-1.25586 z"
           transform="matrix(0.26458333,0,0,0.26458333,0,284.3)" />
        <path
           id="path216903"
           style="color:#000000;fill:#ef937e;fill-opacity:1;stroke:none;stroke-width:0.811704;stroke-linecap:round;stroke-linejoin:round;-inkscape-stroke:none;paint-order:markers fill stroke"
           d="m 71.332079,272.34156 c -0.295395,0 -0.547704,0.14274 -0.711068,0.33228 -0.07302,0.0847 -0.132281,0.17699 -0.182417,0.27336 0.110273,-0.048 0.232979,-0.0765 0.364318,-0.0765 h 2.117185 c 0.295394,0 0.54564,0.14274 0.708999,0.33228 0.163367,0.18954 0.258921,0.41761 0.33383,0.64234 l 0.204639,0.61185 h 0.604097 v -0.26407 a 0.26460995,0.26460995 0 0 0 -0.01395,-0.0837 l -0.265618,-0.79324 c -0.07491,-0.22473 -0.170463,-0.45279 -0.33383,-0.64233 -0.163359,-0.18954 -0.413604,-0.33228 -0.708998,-0.33228 z" />
      </g>
    </g>
  </g>
</svg>
