<?xml version="1.0" encoding="UTF-8" standalone="no"?>
<svg
   inkscape:export-ydpi="768"
   inkscape:export-xdpi="768"
   inkscape:export-filename="C:\Users\RainBoyz\Desktop\EXP\FLAT ICON\SVG\Herbs.png"
   width="48pt"
   height="48pt"
   viewBox="0 0 16.933334 16.933333"
   version="1.1"
   id="svg979"
   inkscape:version="1.1 (c68e22c387, 2021-05-23)"
   sodipodi:docname="13 - Herbs.svg"
   xmlns:inkscape="http://www.inkscape.org/namespaces/inkscape"
   xmlns:sodipodi="http://sodipodi.sourceforge.net/DTD/sodipodi-0.dtd"
   xmlns="http://www.w3.org/2000/svg"
   xmlns:svg="http://www.w3.org/2000/svg"
   xmlns:rdf="http://www.w3.org/1999/02/22-rdf-syntax-ns#"
   xmlns:cc="http://creativecommons.org/ns#"
   xmlns:dc="http://purl.org/dc/elements/1.1/">
  <defs
     id="defs973" />
  <sodipodi:namedview
     id="base"
     pagecolor="#ffffff"
     bordercolor="#666666"
     borderopacity="1.0"
     inkscape:pageopacity="0.0"
     inkscape:pageshadow="2"
     inkscape:zoom="7.6875"
     inkscape:cx="31.934959"
     inkscape:cy="32"
     inkscape:document-units="pt"
     inkscape:current-layer="layer1"
     showgrid="false"
     units="pt"
     inkscape:window-width="1366"
     inkscape:window-height="716"
     inkscape:window-x="-8"
     inkscape:window-y="-8"
     inkscape:window-maximized="1"
     inkscape:document-rotation="0"
     inkscape:snap-bbox="true"
     inkscape:bbox-nodes="true"
     inkscape:snap-nodes="false"
     inkscape:pagecheckerboard="0"
     showguides="false">
    <inkscape:grid
       type="xygrid"
       id="grid1526" />
    <sodipodi:guide
       position="0.97013909,15.963209"
       orientation="56.666615,0"
       id="guide1528"
       inkscape:locked="false" />
    <sodipodi:guide
       position="0.97013909,0.97016731"
       orientation="0,56.666667"
       id="guide1530"
       inkscape:locked="false" />
    <sodipodi:guide
       position="15.963195,0.97016731"
       orientation="-56.666615,0"
       id="guide1532"
       inkscape:locked="false" />
    <sodipodi:guide
       position="15.963195,15.963209"
       orientation="0,-56.666667"
       id="guide1534"
       inkscape:locked="false" />
  </sodipodi:namedview>
  <metadata
     id="metadata976">
    <rdf:RDF>
      <cc:Work
         rdf:about="">
        <dc:format>image/svg+xml</dc:format>
        <dc:type
           rdf:resource="http://purl.org/dc/dcmitype/StillImage" />
        <dc:title />
      </cc:Work>
    </rdf:RDF>
  </metadata>
  <g
     inkscape:label="Layer 1"
     inkscape:groupmode="layer"
     id="layer1"
     transform="translate(0,-280.06668)">
    <g
       id="g1199"
       style="display:inline"
       transform="matrix(1.2320461,0,0,1.2320461,0.6426825,-96.643989)">
      <path
         style="color:#000000;font-style:normal;font-variant:normal;font-weight:normal;font-stretch:normal;font-size:medium;line-height:normal;font-family:sans-serif;font-variant-ligatures:normal;font-variant-position:normal;font-variant-caps:normal;font-variant-numeric:normal;font-variant-alternates:normal;font-variant-east-asian:normal;font-feature-settings:normal;font-variation-settings:normal;text-indent:0;text-align:start;text-decoration:none;text-decoration-line:none;text-decoration-style:solid;text-decoration-color:#000000;letter-spacing:normal;word-spacing:normal;text-transform:none;writing-mode:lr-tb;direction:ltr;text-orientation:mixed;dominant-baseline:auto;baseline-shift:baseline;text-anchor:start;white-space:normal;shape-padding:0;shape-margin:0;inline-size:0;clip-rule:nonzero;display:inline;overflow:visible;visibility:visible;isolation:auto;mix-blend-mode:normal;color-interpolation:sRGB;color-interpolation-filters:linearRGB;solid-color:#000000;solid-opacity:1;vector-effect:none;fill:#7d8e9e;fill-opacity:1;fill-rule:nonzero;stroke:none;stroke-width:0.529167;stroke-linecap:round;stroke-linejoin:round;stroke-miterlimit:4;stroke-dasharray:none;stroke-dashoffset:0;stroke-opacity:1;color-rendering:auto;image-rendering:auto;shape-rendering:auto;text-rendering:auto;enable-background:accumulate;stop-color:#000000"
         d="m 2.1582031,313.93359 a 0.26460996,0.26460996 0 0 0 -0.2636719,0.26563 c -2.4e-6,0.79927 0.5128876,1.62535 1.3476563,2.26172 0.8347687,0.63636 2.0083833,1.08398 3.3847656,1.08398 1.3763823,0 2.548044,-0.44762 3.3828129,-1.08398 0.834768,-0.63637 1.349611,-1.46245 1.349609,-2.26172 a 0.26460996,0.26460996 0 0 0 -0.265625,-0.26563 z"
         id="path1155" />
      <path
         style="color:#000000;font-style:normal;font-variant:normal;font-weight:normal;font-stretch:normal;font-size:medium;line-height:normal;font-family:sans-serif;font-variant-ligatures:normal;font-variant-position:normal;font-variant-caps:normal;font-variant-numeric:normal;font-variant-alternates:normal;font-variant-east-asian:normal;font-feature-settings:normal;font-variation-settings:normal;text-indent:0;text-align:start;text-decoration:none;text-decoration-line:none;text-decoration-style:solid;text-decoration-color:#000000;letter-spacing:normal;word-spacing:normal;text-transform:none;writing-mode:lr-tb;direction:ltr;text-orientation:mixed;dominant-baseline:auto;baseline-shift:baseline;text-anchor:start;white-space:normal;shape-padding:0;shape-margin:0;inline-size:0;clip-rule:nonzero;display:inline;overflow:visible;visibility:visible;isolation:auto;mix-blend-mode:normal;color-interpolation:sRGB;color-interpolation-filters:linearRGB;solid-color:#000000;solid-opacity:1;vector-effect:none;fill:#9a605c;fill-opacity:1;fill-rule:nonzero;stroke:none;stroke-width:0.529167;stroke-linecap:round;stroke-linejoin:round;stroke-miterlimit:4;stroke-dasharray:none;stroke-dashoffset:0;stroke-opacity:1;color-rendering:auto;image-rendering:auto;shape-rendering:auto;text-rendering:auto;enable-background:accumulate;stop-color:#000000"
         d="m 1.6582031,308.36523 -0.7988281,0.46289 c -0.56581323,0.32681 -0.76222369,1.05716 -0.43554688,1.62305 l 0.4609375,0.80078 c 6.4747e-4,6.7e-4 0.001298,10e-4 0.001953,0.002 0.31838898,0.29739 0.57074128,0.32186 0.88671878,0.14838 l 0.8515625,1.47461 c 0.047022,0.0819 0.1341033,0.13248 0.2285156,0.13282 H 4.455078 c 0.2045905,1.9e-4 0.3319902,-0.22195 0.2285157,-0.39844 l -1.2519532,-2.16797 c 0.3134645,-0.18828 0.448049,-0.59196 0.3144532,-0.84175 L 3.283203,308.80082 c -0.2168374,-0.37513 -0.6215032,-0.60312 -0.9384502,-0.59646 -0.3169471,0.007 -0.5133277,0.0612 -0.6865497,0.16087 z"
         id="path1126"
         sodipodi:nodetypes="ccccccccccccccc" />
      <path
         style="color:#000000;font-style:normal;font-variant:normal;font-weight:normal;font-stretch:normal;font-size:medium;line-height:normal;font-family:sans-serif;font-variant-ligatures:normal;font-variant-position:normal;font-variant-caps:normal;font-variant-numeric:normal;font-variant-alternates:normal;font-variant-east-asian:normal;font-feature-settings:normal;font-variation-settings:normal;text-indent:0;text-align:start;text-decoration:none;text-decoration-line:none;text-decoration-style:solid;text-decoration-color:#000000;letter-spacing:normal;word-spacing:normal;text-transform:none;writing-mode:lr-tb;direction:ltr;text-orientation:mixed;dominant-baseline:auto;baseline-shift:baseline;text-anchor:start;white-space:normal;shape-padding:0;shape-margin:0;inline-size:0;clip-rule:nonzero;display:inline;overflow:visible;visibility:visible;isolation:auto;mix-blend-mode:normal;color-interpolation:sRGB;color-interpolation-filters:linearRGB;solid-color:#000000;solid-opacity:1;vector-effect:none;fill:#35700f;fill-opacity:1;fill-rule:nonzero;stroke:none;stroke-width:0.529167;stroke-linecap:round;stroke-linejoin:round;stroke-miterlimit:4;stroke-dasharray:none;stroke-dashoffset:0;stroke-opacity:1;color-rendering:auto;image-rendering:auto;shape-rendering:auto;text-rendering:auto;enable-background:accumulate;stop-color:#000000"
         d="m 9.7851542,308.01372 c -0.7649542,0.20129 -1.6394461,0.49249 -2.125,1.03125 -0.452229,0.50178 -0.6587399,1.30496 -0.7949218,2.05664 0.1216073,0.32429 0.3027685,0.68495 0.3554717,1.02539 0.035172,0.23486 0.3379667,0.30808 0.4765625,0.11524 0.3567216,-0.49585 0.8496603,-1.06268 1.2050782,-1.2461 0.3549642,-0.18318 1.0157124,-0.27887 1.6406252,-0.30664 0.09434,-0.004 0.179199,-0.0587 0.222656,-0.14257 0.504186,-0.97323 0.742187,-2.51563 0.742187,-2.51563 0.0275,-0.16834 -0.109125,-0.31834 -0.203001,-0.31151 0,0 -0.754703,0.0926 -1.5196578,0.29393 z"
         id="path1210"
         sodipodi:nodetypes="cscccsccccc" />
      <path
         style="color:#000000;font-style:normal;font-variant:normal;font-weight:normal;font-stretch:normal;font-size:medium;line-height:normal;font-family:sans-serif;font-variant-ligatures:normal;font-variant-position:normal;font-variant-caps:normal;font-variant-numeric:normal;font-variant-alternates:normal;font-variant-east-asian:normal;font-feature-settings:normal;font-variation-settings:normal;text-indent:0;text-align:start;text-decoration:none;text-decoration-line:none;text-decoration-style:solid;text-decoration-color:#000000;letter-spacing:normal;word-spacing:normal;text-transform:none;writing-mode:lr-tb;direction:ltr;text-orientation:mixed;dominant-baseline:auto;baseline-shift:baseline;text-anchor:start;white-space:normal;shape-padding:0;shape-margin:0;inline-size:0;clip-rule:nonzero;display:inline;overflow:visible;visibility:visible;opacity:1;isolation:auto;mix-blend-mode:normal;color-interpolation:sRGB;color-interpolation-filters:linearRGB;solid-color:#000000;solid-opacity:1;vector-effect:none;fill:#3f8a0f;fill-opacity:1;fill-rule:nonzero;stroke:none;stroke-width:0.529167;stroke-linecap:round;stroke-linejoin:round;stroke-miterlimit:4;stroke-dasharray:none;stroke-dashoffset:0;stroke-opacity:1;color-rendering:auto;image-rendering:auto;shape-rendering:auto;text-rendering:auto;enable-background:accumulate;stop-color:#000000;stop-opacity:1"
         d="m 9.5273438,309.13281 c -0.5605609,0.51659 -1.1582363,1.12362 -1.6992188,2.10352 -0.07057,0.12783 -0.024242,0.28867 0.1035156,0.35937 0.1278313,0.0706 0.2886691,0.0242 0.359375,-0.10351 0.5064933,-0.91743 1.048721,-1.46663 1.5957032,-1.97071 0.1083105,-0.099 0.1153212,-0.2673 0.015625,-0.375 -0.1471697,-0.11829 -0.2513564,-0.10511 -0.375,-0.0137 z"
         id="path1186"
         sodipodi:nodetypes="cscccccc" />
      <path
         style="color:#000000;font-style:normal;font-variant:normal;font-weight:normal;font-stretch:normal;font-size:medium;line-height:normal;font-family:sans-serif;font-variant-ligatures:normal;font-variant-position:normal;font-variant-caps:normal;font-variant-numeric:normal;font-variant-alternates:normal;font-variant-east-asian:normal;font-feature-settings:normal;font-variation-settings:normal;text-indent:0;text-align:start;text-decoration:none;text-decoration-line:none;text-decoration-style:solid;text-decoration-color:#000000;letter-spacing:normal;word-spacing:normal;text-transform:none;writing-mode:lr-tb;direction:ltr;text-orientation:mixed;dominant-baseline:auto;baseline-shift:baseline;text-anchor:start;white-space:normal;shape-padding:0;shape-margin:0;inline-size:0;clip-rule:nonzero;display:inline;overflow:visible;visibility:visible;isolation:auto;mix-blend-mode:normal;color-interpolation:sRGB;color-interpolation-filters:linearRGB;solid-color:#000000;solid-opacity:1;vector-effect:none;fill:#3f8a0f;fill-opacity:1;fill-rule:nonzero;stroke:none;stroke-width:0.529167;stroke-linecap:round;stroke-linejoin:round;stroke-miterlimit:4;stroke-dasharray:none;stroke-dashoffset:0;stroke-opacity:1;color-rendering:auto;image-rendering:auto;shape-rendering:auto;text-rendering:auto;enable-background:accumulate;stop-color:#000000"
         d="m 10.849609,310.14844 c -0.736732,0.0122 -1.5969116,0.0731 -2.1894528,0.3789 -0.4094278,0.21129 -0.779691,0.61343 -1.1054687,1.02149 -0.3257777,0.40806 -0.5962727,0.82437 -0.7402344,1.05469 a 0.26460996,0.26460996 0 0 0 0.2246094,0.40429 h 3.5507815 a 0.26460996,0.26460996 0 0 0 0.164062,-0.0566 c 0.46446,-0.37004 0.862369,-0.95996 1.16211,-1.46289 0.299741,-0.50292 0.49414,-0.92383 0.49414,-0.92383 a 0.26460996,0.26460996 0 0 0 -0.216797,-0.375 c 0,0 -0.607018,-0.0533 -1.34375,-0.041 z"
         id="path1196" />
      <path
         style="color:#000000;font-style:normal;font-variant:normal;font-weight:normal;font-stretch:normal;font-size:medium;line-height:normal;font-family:sans-serif;font-variant-ligatures:normal;font-variant-position:normal;font-variant-caps:normal;font-variant-numeric:normal;font-variant-alternates:normal;font-variant-east-asian:normal;font-feature-settings:normal;font-variation-settings:normal;text-indent:0;text-align:start;text-decoration:none;text-decoration-line:none;text-decoration-style:solid;text-decoration-color:#000000;letter-spacing:normal;word-spacing:normal;text-transform:none;writing-mode:lr-tb;direction:ltr;text-orientation:mixed;dominant-baseline:auto;baseline-shift:baseline;text-anchor:start;white-space:normal;shape-padding:0;shape-margin:0;inline-size:0;clip-rule:nonzero;display:inline;overflow:visible;visibility:visible;opacity:1;isolation:auto;mix-blend-mode:normal;color-interpolation:sRGB;color-interpolation-filters:linearRGB;solid-color:#000000;solid-opacity:1;vector-effect:none;fill:#54b913;fill-opacity:1;fill-rule:nonzero;stroke:none;stroke-width:0.529167;stroke-linecap:round;stroke-linejoin:round;stroke-miterlimit:4;stroke-dasharray:none;stroke-dashoffset:0;stroke-opacity:1;color-rendering:auto;image-rendering:auto;shape-rendering:auto;text-rendering:auto;enable-background:accumulate;stop-color:#000000;stop-opacity:1"
         d="m 10.333984,311.21875 c -1.3505963,0.33528 -2.296236,0.75811 -3.0976559,1.30859 -0.1187079,0.0839 -0.1474884,0.24787 -0.064453,0.36719 0.083393,0.12059 0.2489473,0.15038 0.3691406,0.0664 1.1156343,-0.78047 1.9898739,-1.02778 2.8398433,-1.21875 0.143114,-0.0315 0.233316,-0.17343 0.201172,-0.31641 -0.02606,-0.11734 -0.127937,-0.20238 -0.248047,-0.20703 z"
         id="path1190"
         sodipodi:nodetypes="ccccccc" />
      <path
         style="color:#000000;font-style:normal;font-variant:normal;font-weight:normal;font-stretch:normal;font-size:medium;line-height:normal;font-family:sans-serif;font-variant-ligatures:normal;font-variant-position:normal;font-variant-caps:normal;font-variant-numeric:normal;font-variant-alternates:normal;font-variant-east-asian:normal;font-feature-settings:normal;font-variation-settings:normal;text-indent:0;text-align:start;text-decoration:none;text-decoration-line:none;text-decoration-style:solid;text-decoration-color:#000000;letter-spacing:normal;word-spacing:normal;text-transform:none;writing-mode:lr-tb;direction:ltr;text-orientation:mixed;dominant-baseline:auto;baseline-shift:baseline;text-anchor:start;white-space:normal;shape-padding:0;shape-margin:0;inline-size:0;clip-rule:nonzero;display:inline;overflow:visible;visibility:visible;isolation:auto;mix-blend-mode:normal;color-interpolation:sRGB;color-interpolation-filters:linearRGB;solid-color:#000000;solid-opacity:1;vector-effect:none;fill:#54b913;fill-opacity:1;fill-rule:nonzero;stroke:none;stroke-width:0.529167;stroke-linecap:round;stroke-linejoin:round;stroke-miterlimit:4;stroke-dasharray:none;stroke-dashoffset:0;stroke-opacity:1;color-rendering:auto;image-rendering:auto;shape-rendering:auto;text-rendering:auto;enable-background:accumulate;stop-color:#000000"
         d="m 5.2812531,309.88889 c -0.087421,0.006 -0.1932191,0.119 -0.1953156,0.25564 -2.5e-6,6.7e-4 -2.5e-6,0.001 0,0.002 0,0 6.273e-4,0.3835 0.054687,0.8418 0.05406,0.4583 0.1394356,0.98976 0.40625,1.36133 0.1886058,0.26265 0.4830672,0.45624 0.7851562,0.625 0.039438,0.0219 0.083811,0.0333 0.1289063,0.0332 h 0.578125 c 0.091052,3.6e-4 0.1758955,-0.0461 0.2246094,-0.12304 0.095806,-0.15141 0.2498986,-0.38723 0.4335937,-0.64258 0.040184,-0.0559 0.056999,-0.12526 0.046875,-0.19336 -0.049404,-0.33022 -0.1202371,-0.66305 -0.2988281,-0.92578 -0.2673888,-0.39334 -0.7605119,-0.6654 -1.1933594,-0.87891 -0.4328474,-0.21351 -0.810545,-0.34466 -0.810545,-0.34466 -0.034066,-0.0111 -0.072733,-0.0171 -0.1601545,-0.0106 z"
         id="path1170"
         sodipodi:nodetypes="cccsscccccccscc" />
      <path
         style="color:#000000;font-style:normal;font-variant:normal;font-weight:normal;font-stretch:normal;font-size:medium;line-height:normal;font-family:sans-serif;font-variant-ligatures:normal;font-variant-position:normal;font-variant-caps:normal;font-variant-numeric:normal;font-variant-alternates:normal;font-variant-east-asian:normal;font-feature-settings:normal;font-variation-settings:normal;text-indent:0;text-align:start;text-decoration:none;text-decoration-line:none;text-decoration-style:solid;text-decoration-color:#000000;letter-spacing:normal;word-spacing:normal;text-transform:none;writing-mode:lr-tb;direction:ltr;text-orientation:mixed;dominant-baseline:auto;baseline-shift:baseline;text-anchor:start;white-space:normal;shape-padding:0;shape-margin:0;inline-size:0;clip-rule:nonzero;display:inline;overflow:visible;visibility:visible;opacity:1;isolation:auto;mix-blend-mode:normal;color-interpolation:sRGB;color-interpolation-filters:linearRGB;solid-color:#000000;solid-opacity:1;vector-effect:none;fill:#5ed313;fill-opacity:1;fill-rule:nonzero;stroke:none;stroke-width:0.529167;stroke-linecap:round;stroke-linejoin:round;stroke-miterlimit:4;stroke-dasharray:none;stroke-dashoffset:0;stroke-opacity:1;color-rendering:auto;image-rendering:auto;shape-rendering:auto;text-rendering:auto;enable-background:accumulate;stop-color:#000000;stop-opacity:1"
         d="m 6.7226562,311.85938 c -0.067421,0.005 -0.13032,0.0359 -0.1757812,0.0859 -0.098384,0.10745 -0.091399,0.27421 0.015625,0.37305 0.1413626,0.13027 0.2818016,0.26419 0.421875,0.40625 0.1028787,0.10442 0.271041,0.10529 0.375,0.002 0.1031125,-0.10266 0.103985,-0.26931 0.00195,-0.37304 -0.148343,-0.15045 -0.2945675,-0.29032 -0.4394531,-0.42383 -0.053763,-0.0501 -0.1259306,-0.0756 -0.1992188,-0.0703 z"
         id="path1182"
         sodipodi:nodetypes="cccccccc" />
      <path
         id="path1229"
         style="color:#000000;font-style:normal;font-variant:normal;font-weight:normal;font-stretch:normal;font-size:medium;line-height:normal;font-family:sans-serif;font-variant-ligatures:normal;font-variant-position:normal;font-variant-caps:normal;font-variant-numeric:normal;font-variant-alternates:normal;font-variant-east-asian:normal;font-feature-settings:normal;font-variation-settings:normal;text-indent:0;text-align:start;text-decoration:none;text-decoration-line:none;text-decoration-style:solid;text-decoration-color:#000000;letter-spacing:normal;word-spacing:normal;text-transform:none;writing-mode:lr-tb;direction:ltr;text-orientation:mixed;dominant-baseline:auto;baseline-shift:baseline;text-anchor:start;white-space:normal;shape-padding:0;shape-margin:0;inline-size:0;clip-rule:nonzero;display:inline;overflow:visible;visibility:visible;isolation:auto;mix-blend-mode:normal;color-interpolation:sRGB;color-interpolation-filters:linearRGB;solid-color:#000000;solid-opacity:1;vector-effect:none;fill:#459711;fill-opacity:1;fill-rule:nonzero;stroke:none;stroke-width:0.529167;stroke-linecap:round;stroke-linejoin:round;stroke-miterlimit:4;stroke-dasharray:none;stroke-dashoffset:0;stroke-opacity:1;color-rendering:auto;image-rendering:auto;shape-rendering:auto;text-rendering:auto;enable-background:accumulate;stop-color:#000000"
         d="m 5.334696,309.88452 c -0.00155,1.6e-4 -0.0031,3.3e-4 -0.00465,5.2e-4 -0.1360248,0.0106 -0.2416481,0.12299 -0.2439128,0.25941 -2.5e-6,6.7e-4 -2.5e-6,10e-4 0,0.002 0,0 0.00436,0.15075 0.015503,0.35295 0.1504735,0.0588 0.3580084,0.14409 0.6211507,0.27389 0.4328475,0.21351 0.9263368,0.48567 1.1937256,0.87901 0.178591,0.26273 0.2492858,0.59531 0.2986898,0.92553 0.010196,0.0683 -0.00668,0.1378 -0.047026,0.19379 -0.060241,0.0837 -0.1109524,0.1589 -0.074519,0.19775 0.036434,0.0388 0.121357,-0.008 0.1701199,-0.0846 0.095806,-0.15141 0.2498702,-0.38699 0.4335653,-0.64234 0.040347,-0.056 0.057222,-0.12553 0.047026,-0.19379 -0.049405,-0.33015 -0.1200994,-0.66272 -0.2986904,-0.92545 C 7.1782893,310.72985 6.6848,310.45768 6.2519525,310.24417 5.9625487,310.08679 5.4018321,309.85932 5.3346918,309.88429 Z"
         sodipodi:nodetypes="cccccsccccccccccc" />
      <path
         id="path1220"
         style="color:#000000;font-style:normal;font-variant:normal;font-weight:normal;font-stretch:normal;font-size:medium;line-height:normal;font-family:sans-serif;font-variant-ligatures:normal;font-variant-position:normal;font-variant-caps:normal;font-variant-numeric:normal;font-variant-alternates:normal;font-variant-east-asian:normal;font-feature-settings:normal;font-variation-settings:normal;text-indent:0;text-align:start;text-decoration:none;text-decoration-line:none;text-decoration-style:solid;text-decoration-color:#000000;letter-spacing:normal;word-spacing:normal;text-transform:none;writing-mode:lr-tb;direction:ltr;text-orientation:mixed;dominant-baseline:auto;baseline-shift:baseline;text-anchor:start;white-space:normal;shape-padding:0;shape-margin:0;inline-size:0;clip-rule:nonzero;display:inline;overflow:visible;visibility:visible;isolation:auto;mix-blend-mode:normal;color-interpolation:sRGB;color-interpolation-filters:linearRGB;solid-color:#000000;solid-opacity:1;vector-effect:none;fill:#8c5854;fill-opacity:1;fill-rule:nonzero;stroke:none;stroke-width:0.529167;stroke-linecap:round;stroke-linejoin:round;stroke-miterlimit:4;stroke-dasharray:none;stroke-dashoffset:0;stroke-opacity:1;color-rendering:auto;image-rendering:auto;shape-rendering:auto;text-rendering:auto;enable-background:accumulate;stop-color:#000000"
         d="m 2.228487,308.20706 c -0.20071,0.004 -0.3967691,0.0584 -0.569991,0.15813 l -0.7989176,0.46302 c -0.20583181,0.11889 -0.36132479,0.29206 -0.46198737,0.49041 l 0.73173827,-0.42427 c 0.1732219,-0.0997 0.3692811,-0.15413 0.5699911,-0.15813 0.4331843,-0.009 0.8378785,0.21864 1.0547159,0.59377 l 0.4630209,0.80098 c 0.09759,0.42209 -0.00819,0.65449 -0.3141927,0.84133 l 1.1761555,2.03761 h 0.3762045 c 0.2045355,1e-4 0.3318487,-0.22198 0.2284098,-0.39843 l -1.2516032,-2.16834 c 0.3132778,-0.18842 0.4477494,-0.59165 0.3141927,-0.84134 L 3.283203,308.80082 c -0.2168374,-0.37513 -0.6215317,-0.60313 -1.054716,-0.59376 z"
         sodipodi:nodetypes="cccccccccccccccc" />
      <path
         id="path1234"
         style="color:#000000;font-style:normal;font-variant:normal;font-weight:normal;font-stretch:normal;font-size:medium;line-height:normal;font-family:sans-serif;font-variant-ligatures:normal;font-variant-position:normal;font-variant-caps:normal;font-variant-numeric:normal;font-variant-alternates:normal;font-variant-east-asian:normal;font-feature-settings:normal;font-variation-settings:normal;text-indent:0;text-align:start;text-decoration:none;text-decoration-line:none;text-decoration-style:solid;text-decoration-color:#000000;letter-spacing:normal;word-spacing:normal;text-transform:none;writing-mode:lr-tb;direction:ltr;text-orientation:mixed;dominant-baseline:auto;baseline-shift:baseline;text-anchor:start;white-space:normal;shape-padding:0;shape-margin:0;inline-size:0;clip-rule:nonzero;display:inline;overflow:visible;visibility:visible;isolation:auto;mix-blend-mode:normal;color-interpolation:sRGB;color-interpolation-filters:linearRGB;solid-color:#000000;solid-opacity:1;vector-effect:none;fill:#37770e;fill-opacity:1;fill-rule:nonzero;stroke:none;stroke-width:0.529167;stroke-linecap:round;stroke-linejoin:round;stroke-miterlimit:4;stroke-dasharray:none;stroke-dashoffset:0;stroke-opacity:1;color-rendering:auto;image-rendering:auto;shape-rendering:auto;text-rendering:auto;enable-background:accumulate;stop-color:#000000"
         d="m 10.849467,310.14855 c -0.736732,0.0122 -1.5969892,0.073 -2.1895304,0.37879 -0.3338504,0.17229 -0.6399216,0.47259 -0.9188071,0.7984 0.1261623,-0.10439 0.254791,-0.19964 0.3896404,-0.26923 0.5925412,-0.3058 1.4527984,-0.36659 2.1895301,-0.37879 0.736732,-0.0123 1.344104,0.0408 1.344104,0.0408 0.182692,0.0162 0.293877,0.20887 0.216525,0.37517 0,0 -0.194286,0.42106 -0.494027,0.92398 -0.185306,0.31092 -0.411684,0.65007 -0.664559,0.95498 0.01102,-0.006 0.02155,-0.0137 0.03152,-0.0217 0.46446,-0.37004 0.862462,-0.95951 1.162203,-1.46244 0.299741,-0.50292 0.494027,-0.92397 0.494027,-0.92397 0.07735,-0.1663 -0.03383,-0.35895 -0.216525,-0.37517 0,0 -0.607372,-0.0531 -1.344104,-0.0408 z"
         sodipodi:nodetypes="cscccccsccscccc" />
      <path
         id="path1259"
         style="color:#000000;font-style:normal;font-variant:normal;font-weight:normal;font-stretch:normal;font-size:medium;line-height:normal;font-family:sans-serif;font-variant-ligatures:normal;font-variant-position:normal;font-variant-caps:normal;font-variant-numeric:normal;font-variant-alternates:normal;font-variant-east-asian:normal;font-feature-settings:normal;font-variation-settings:normal;text-indent:0;text-align:start;text-decoration:none;text-decoration-line:none;text-decoration-style:solid;text-decoration-color:#000000;letter-spacing:normal;word-spacing:normal;text-transform:none;writing-mode:lr-tb;direction:ltr;text-orientation:mixed;dominant-baseline:auto;baseline-shift:baseline;text-anchor:start;white-space:normal;shape-padding:0;shape-margin:0;inline-size:0;clip-rule:nonzero;display:inline;overflow:visible;visibility:visible;isolation:auto;mix-blend-mode:normal;color-interpolation:sRGB;color-interpolation-filters:linearRGB;solid-color:#000000;solid-opacity:1;vector-effect:none;fill:#6d7e92;fill-opacity:1;fill-rule:nonzero;stroke:none;stroke-width:0.529167;stroke-linecap:round;stroke-linejoin:round;stroke-miterlimit:4;stroke-dasharray:none;stroke-dashoffset:0;stroke-opacity:1;color-rendering:auto;image-rendering:auto;shape-rendering:auto;text-rendering:auto;enable-background:accumulate;stop-color:#000000"
         d="m 2.1580079,313.93333 c -0.146325,5.8e-4 -0.2643972,0.11982 -0.2635499,0.26614 -8e-7,0.26416 0.060726,0.53051 0.1658813,0.79271 h 7.9752237 c 0.146929,-5.6e-4 0.266179,0.11869 0.265617,0.26562 10e-7,0.44 -0.160746,0.88676 -0.4402833,1.3069 0.9609213,-0.68405 1.4784783,-1.53511 1.4986163,-2.36523 8.52e-4,-0.14713 -0.118483,-0.2667 -0.265616,-0.26614 z"
         sodipodi:nodetypes="ccccccccc" />
      <path
         style="color:#000000;font-style:normal;font-variant:normal;font-weight:normal;font-stretch:normal;font-size:medium;line-height:normal;font-family:sans-serif;font-variant-ligatures:normal;font-variant-position:normal;font-variant-caps:normal;font-variant-numeric:normal;font-variant-alternates:normal;font-variant-east-asian:normal;font-feature-settings:normal;font-variation-settings:normal;text-indent:0;text-align:start;text-decoration:none;text-decoration-line:none;text-decoration-style:solid;text-decoration-color:#000000;letter-spacing:normal;word-spacing:normal;text-transform:none;writing-mode:lr-tb;direction:ltr;text-orientation:mixed;dominant-baseline:auto;baseline-shift:baseline;text-anchor:start;white-space:normal;shape-padding:0;shape-margin:0;inline-size:0;clip-rule:nonzero;display:inline;overflow:visible;visibility:visible;isolation:auto;mix-blend-mode:normal;color-interpolation:sRGB;color-interpolation-filters:linearRGB;solid-color:#000000;solid-opacity:1;vector-effect:none;fill:#aabfd0;fill-opacity:1;fill-rule:nonzero;stroke:none;stroke-width:0.529167;stroke-linecap:round;stroke-linejoin:round;stroke-miterlimit:4;stroke-dasharray:none;stroke-dashoffset:0;stroke-opacity:1;color-rendering:auto;image-rendering:auto;shape-rendering:auto;text-rendering:auto;enable-background:accumulate;stop-color:#000000"
         d="m 1.3886719,312.48047 a 0.26460996,0.26460996 0 0 0 -0.265625,0.26367 v 1.45508 a 0.26460996,0.26460996 0 0 0 0.265625,0.26367 H 11.865234 a 0.26460996,0.26460996 0 0 0 0.263672,-0.26367 v -1.45508 a 0.26460996,0.26460996 0 0 0 -0.263672,-0.26367 z"
         id="path1140" />
      <path
         id="path1265"
         style="color:#000000;font-style:normal;font-variant:normal;font-weight:normal;font-stretch:normal;font-size:medium;line-height:normal;font-family:sans-serif;font-variant-ligatures:normal;font-variant-position:normal;font-variant-caps:normal;font-variant-numeric:normal;font-variant-alternates:normal;font-variant-east-asian:normal;font-feature-settings:normal;font-variation-settings:normal;text-indent:0;text-align:start;text-decoration:none;text-decoration-line:none;text-decoration-style:solid;text-decoration-color:#000000;letter-spacing:normal;word-spacing:normal;text-transform:none;writing-mode:lr-tb;direction:ltr;text-orientation:mixed;dominant-baseline:auto;baseline-shift:baseline;text-anchor:start;white-space:normal;shape-padding:0;shape-margin:0;inline-size:0;clip-rule:nonzero;display:inline;overflow:visible;visibility:visible;isolation:auto;mix-blend-mode:normal;color-interpolation:sRGB;color-interpolation-filters:linearRGB;solid-color:#000000;solid-opacity:1;vector-effect:none;fill:#7d8e9e;fill-opacity:1;fill-rule:nonzero;stroke:none;stroke-width:0.529167;stroke-linecap:round;stroke-linejoin:round;stroke-miterlimit:4;stroke-dasharray:none;stroke-dashoffset:0;stroke-opacity:1;color-rendering:auto;image-rendering:auto;shape-rendering:auto;text-rendering:auto;enable-background:accumulate;stop-color:#000000"
         d="m 1.3885457,312.48071 a 0.26460995,0.26460995 0 0 0 -0.2656168,0.26355 v 0.26562 H 11.336259 a 0.26460995,0.26460995 0 0 1 0.26355,0.26355 v 1.18959 h 0.265616 a 0.26460995,0.26460995 0 0 0 0.26355,-0.26355 v -1.45521 a 0.26460995,0.26460995 0 0 0 -0.26355,-0.26355 z" />
    </g>
  </g>
</svg>
