<?xml version="1.0" encoding="UTF-8" standalone="no"?>
<!-- Created with Inkscape (http://www.inkscape.org/) -->

<svg
   width="48pt"
   height="48pt"
   viewBox="0 0 16.933334 16.933333"
   version="1.1"
   id="svg979"
   inkscape:version="1.1 (c68e22c387, 2021-05-23)"
   sodipodi:docname="29 - Fresh Air.svg"
   inkscape:export-filename="E:\TR Design Studio Creative\Project Design\TR Creative Design\Icon Design\Project Hiring\Icon Icons\006 - Ecology\Send\3 - Flat\29 - Fresh Air.png"
   inkscape:export-xdpi="768"
   inkscape:export-ydpi="768"
   xmlns:inkscape="http://www.inkscape.org/namespaces/inkscape"
   xmlns:sodipodi="http://sodipodi.sourceforge.net/DTD/sodipodi-0.dtd"
   xmlns="http://www.w3.org/2000/svg"
   xmlns:svg="http://www.w3.org/2000/svg"
   xmlns:rdf="http://www.w3.org/1999/02/22-rdf-syntax-ns#"
   xmlns:cc="http://creativecommons.org/ns#"
   xmlns:dc="http://purl.org/dc/elements/1.1/">
  <defs
     id="defs973" />
  <sodipodi:namedview
     id="base"
     pagecolor="#ffffff"
     bordercolor="#666666"
     borderopacity="1.0"
     inkscape:pageopacity="0.0"
     inkscape:pageshadow="2"
     inkscape:zoom="7.6875"
     inkscape:cx="32"
     inkscape:cy="32"
     inkscape:document-units="pt"
     inkscape:current-layer="layer1"
     showgrid="false"
     units="pt"
     inkscape:window-width="1366"
     inkscape:window-height="716"
     inkscape:window-x="-8"
     inkscape:window-y="-8"
     inkscape:window-maximized="1"
     inkscape:pagecheckerboard="0"
     inkscape:snap-bbox="true"
     inkscape:snap-nodes="false"
     inkscape:bbox-nodes="true"
     showguides="false">
    <inkscape:grid
       type="xygrid"
       id="grid1526" />
    <sodipodi:guide
       position="0.97013909,15.963209"
       orientation="56.666615,0"
       id="guide1528"
       inkscape:locked="false" />
    <sodipodi:guide
       position="0.97013909,0.97016731"
       orientation="0,56.666667"
       id="guide1530"
       inkscape:locked="false" />
    <sodipodi:guide
       position="15.963195,0.97016731"
       orientation="-56.666615,0"
       id="guide1532"
       inkscape:locked="false" />
    <sodipodi:guide
       position="15.963195,15.963209"
       orientation="0,-56.666667"
       id="guide1534"
       inkscape:locked="false" />
  </sodipodi:namedview>
  <metadata
     id="metadata976">
    <rdf:RDF>
      <cc:Work
         rdf:about="">
        <dc:format>image/svg+xml</dc:format>
        <dc:type
           rdf:resource="http://purl.org/dc/dcmitype/StillImage" />
      </cc:Work>
    </rdf:RDF>
  </metadata>
  <g
     inkscape:label="Layer 1"
     inkscape:groupmode="layer"
     id="layer1"
     transform="translate(0,-280.06668)">
    <g
       id="g104714"
       style="display:inline;stroke-width:0.831186"
       transform="matrix(1.2031004,0,0,1.2031004,-52.141865,-140.60029)">
      <g
         id="g104139"
         style="stroke-width:0.831186">
        <path
           style="color:#000000;fill:#d0e2ee;stroke-width:3.14149;stroke-linecap:round;stroke-linejoin:round;-inkscape-stroke:none;paint-order:markers fill stroke"
           d="m 184.08203,255.43164 c -3.46777,0 -6.30469,2.83498 -6.30469,6.30274 5.8e-4,0.4742 2e-4,1.07265 0,1.59765 -1.43788,1.12978 -2.11718,2.84008 -2.11718,4.75977 0,3.47308 2.82961,6.30273 6.30273,6.30273 h 1.00391 14.89648 1.05664 c 1.26719,0 2.57909,-0.30092 3.60156,-1.16601 1.02248,-0.86502 1.63868,-2.27184 1.63868,-4.07422 0,-1.81232 -0.6515,-3.22359 -1.68164,-4.08203 -1.03015,-0.85845 -2.33185,-1.16016 -3.5586,-1.16016 h -1.10937 c 0.21303,-1.28015 -0.1503,-2.7142 -0.84766,-3.98633 -1.00551,-1.83432 -2.92411,-3.43164 -5.46094,-3.43164 -1.0807,0 -2.10259,0.27664 -2.99218,0.75781 -1.17003,-1.15831 -2.7566,-1.82061 -4.42774,-1.82031 z"
           transform="matrix(0.26458333,0,0,0.26458333,0,284.3)"
           id="path91931" />
        <path
           id="path92545"
           style="color:#000000;fill:#aabfd0;stroke-width:3.14149;stroke-linecap:round;stroke-linejoin:round;-inkscape-stroke:none;paint-order:markers fill stroke"
           d="m 198.91992,274.3945 c 1.26719,0 2.5791,-0.30084 3.60156,-1.16601 1.02248,-0.86502 1.63868,-2.27184 1.63868,-4.07422 0,-1.81232 -0.65151,-3.22359 -1.68164,-4.08203 -0.81267,-0.67722 -1.79485,-1.00773 -2.7754,-1.11719 l -1.89257,-0.0429 c 0.21301,-1.28013 -0.15031,-2.71422 -0.84766,-3.98633 -1.00551,-1.83432 -2.92411,-3.43164 -5.46094,-3.43164 -0.34654,0 -0.6875,0.0265 -1.01953,0.082 2.05135,0.3481 3.60897,1.75975 4.48047,3.34961 0.69735,1.27211 1.06067,2.7062 0.84766,3.98633 h -5.37305 c -0.55249,0.002 -0.99828,0.45141 -0.99609,1.00391 0.002,0.54958 0.44649,0.99615 0.99609,0.99804 h 6.21555 c 3.45363,0 5.50711,0.97109 5.50711,3.24024 0,1.80238 -0.61619,3.2092 -1.63868,4.07422 -1.02246,0.86517 -2.33437,1.16601 -3.60156,1.16601 z"
           transform="matrix(0.26458333,0,0,0.26458333,0,284.3)"
           sodipodi:nodetypes="ccssccsscsccccccccc" />
        <path
           id="path93103"
           style="color:#000000;fill:#aabfd0;stroke-width:3.14149;stroke-linecap:round;stroke-linejoin:round;-inkscape-stroke:none;paint-order:markers fill stroke"
           d="m 186.88672,256.0957 c -0.65452,0.8007 -1.04883,1.82185 -1.04883,2.92969 a 1.0000006,1.0000006 0 0 0 1.00391,0.99609 1.0000006,1.0000006 0 0 0 0.99609,-0.99609 c 0,-0.68485 0.25235,-1.30649 0.67188,-1.77344 -0.47827,-0.47347 -1.02827,-0.85991 -1.62305,-1.15625 z"
           transform="matrix(0.26458333,0,0,0.26458333,0,284.3)" />
      </g>
      <g
         id="g104695"
         style="stroke-width:0.831186">
        <path
           id="circle108054"
           style="color:#000000;fill:#5e79bc;stroke-width:3.14149;stroke-linecap:round;stroke-linejoin:round;-inkscape-stroke:none;paint-order:markers fill stroke"
           d="m 190.4375,268.1582 c -2.88231,0 -5.23244,2.4056 -5.23242,5.49805 a 1.0000006,1.0000006 0 0 0 0.99609,1.00391 1.0000006,1.0000006 0 0 0 1.00391,-1.00391 c -1e-5,-2.12145 1.43098,-3.50586 3.23242,-3.50586 1.80144,0 3.24023,1.43876 3.24023,3.24023 2e-5,1.8014 -1.43878,3.24219 -3.24023,3.24219 h -13.77344 a 1.0000006,1.0000006 0 0 0 -1.0039,1.00391 1.0000006,1.0000006 0 0 0 1.0039,0.99609 h 13.77344 c 2.88234,0 5.24221,-2.35988 5.24219,-5.24219 -1e-5,-2.88234 -2.35988,-5.23242 -5.24219,-5.23242 z m -20.13672,5.29883 a 1.0000006,1.0000006 0 0 0 -0.99805,0.99805 1.0000006,1.0000006 0 0 0 0.99805,0.99609 h 5.29883 a 1.0000006,1.0000006 0 0 0 0.99805,-0.99609 1.0000006,1.0000006 0 0 0 -0.99805,-0.99805 z m 37.10156,1.05664 a 1.0000006,1.0000006 0 0 0 -0.99804,1.00391 c 0,0.63046 -0.4906,1.11523 -1.1211,1.11523 h -7.41992 a 1.0000006,1.0000006 0 0 0 -1.0039,1.00391 1.0000006,1.0000006 0 0 0 1.0039,0.99609 h 7.41992 c 1.71138,0 3.12306,-1.40386 3.12305,-3.11523 a 1.0000006,1.0000006 0 0 0 -1.00391,-1.00391 z m -32.94531,6.36328 c -1.67492,0.0429 -3.03517,1.43061 -3.03515,3.11524 a 1.0000006,1.0000006 0 0 0 0.99609,1.0039 1.0000006,1.0000006 0 0 0 1.00391,-1.0039 c -10e-6,-0.6305 0.48476,-1.11524 1.11523,-1.11524 h 7.42578 a 1.0000006,1.0000006 0 0 0 0.99805,-1.0039 1.0000006,1.0000006 0 0 0 -0.99805,-0.9961 h -7.42578 c -0.0267,0 -0.0535,-6.8e-4 -0.0801,0 z m 11.74414,0 a 1.0000006,1.0000006 0 0 0 -0.99609,0.9961 1.0000006,1.0000006 0 0 0 0.99609,1.0039 h 13.78125 c 1.80145,0 3.24025,1.4388 3.24024,3.24024 -1e-5,1.80147 -1.43879,3.24027 -3.24024,3.24023 -1.80144,0 -3.24024,-1.38441 -3.24023,-3.50586 a 1.0000006,1.0000006 0 0 0 -0.9961,-1.0039 1.0000006,1.0000006 0 0 0 -1.0039,1.0039 c -2e-5,3.09241 2.35793,5.50782 5.24023,5.50782 2.8823,0 5.24219,-2.35985 5.24219,-5.24219 2e-5,-2.88235 -2.35985,-5.24024 -5.24219,-5.24024 z"
           transform="matrix(0.26458333,0,0,0.26458333,0,284.3)" />
        <g
           id="g104681"
           style="stroke-width:0.831186">
          <path
             style="color:#000000;fill:#50b86b;stroke-width:0.831186;stroke-linecap:round;stroke-linejoin:round;-inkscape-stroke:none;paint-order:markers fill stroke"
             d="m 44.660156,353.73633 a 0.26460996,0.26460996 0 0 0 -0.261719,0.15039 c 0,0 -0.09543,0.20299 -0.166015,0.45312 -0.07059,0.25014 -0.159116,0.55815 0.01367,0.85743 0.172798,0.29925 0.484417,0.37746 0.736328,0.4414 0.251911,0.0639 0.474609,0.082 0.474609,0.082 a 0.26460996,0.26460996 0 0 0 0.261719,-0.15234 c 0,0 0.09543,-0.20104 0.166016,-0.45117 0.07059,-0.25013 0.159115,-0.55815 -0.01367,-0.85742 -0.172794,-0.29927 -0.484414,-0.37747 -0.736328,-0.44141 -0.251915,-0.0639 -0.47461,-0.082 -0.47461,-0.082 z"
             id="path93974" />
          <path
             style="color:#000000;fill:#50b86b;stroke-width:0.831186;stroke-linecap:round;stroke-linejoin:round;-inkscape-stroke:none;paint-order:markers fill stroke"
             d="m 49.269531,359.75781 c -0.250137,0.0706 -0.451172,0.16602 -0.451172,0.16602 a 0.26460996,0.26460996 0 0 0 -0.152343,0.26172 c 0,0 0.02004,0.22269 0.08398,0.47461 0.06394,0.25191 0.140181,0.56353 0.439453,0.73632 0.299278,0.17279 0.60729,0.0843 0.857422,0.0137 C 50.297007,361.33957 50.5,361.24414 50.5,361.24414 a 0.26460996,0.26460996 0 0 0 0.150391,-0.26172 c 0,0 -0.0181,-0.22269 -0.08203,-0.47461 -0.06394,-0.25191 -0.142127,-0.56354 -0.441406,-0.73633 -0.299277,-0.17279 -0.607285,-0.0842 -0.857422,-0.0137 z"
             id="path93982" />
          <path
             style="color:#000000;fill:#50b86b;stroke-width:0.831186;stroke-linecap:round;stroke-linejoin:round;-inkscape-stroke:none;paint-order:markers fill stroke"
             d="m 56.09375,353.73633 c 0,0 -0.222695,0.0181 -0.474609,0.082 -0.251915,0.0639 -0.563535,0.14214 -0.736329,0.44141 -0.172787,0.29927 -0.08426,0.60729 -0.01367,0.85742 0.07059,0.25013 0.166015,0.45117 0.166015,0.45117 a 0.26460996,0.26460996 0 0 0 0.261719,0.15234 c 0,0 0.222699,-0.0181 0.474609,-0.082 0.251911,-0.0639 0.56353,-0.14215 0.736328,-0.4414 0.172788,-0.29928 0.08426,-0.60729 0.01367,-0.85743 -0.07058,-0.25013 -0.166015,-0.45312 -0.166015,-0.45312 a 0.26460996,0.26460996 0 0 0 -0.261718,-0.15039 z"
             id="path93990" />
          <path
             id="path102347"
             style="color:#000000;fill:#46a05d;fill-opacity:1;stroke-width:0.831186;stroke-linecap:round;stroke-linejoin:round;-inkscape-stroke:none;paint-order:markers fill stroke"
             d="m 44.624666,353.73555 a 0.26460995,0.26460995 0 0 0 -0.226343,0.15142 c 0,0 -0.08003,0.1709 -0.147796,0.39222 0.08868,0.012 0.216627,0.0331 0.355017,0.0682 0.251916,0.0639 0.563595,0.14205 0.736389,0.44132 0.172786,0.29927 0.08403,0.6077 0.01344,0.85783 -0.0058,0.0205 -0.01153,0.0402 -0.01757,0.0599 0.07258,0.01 0.119372,0.014 0.119372,0.014 a 0.26460995,0.26460995 0 0 0 0.261482,-0.15193 c 0,0 0.0953,-0.20101 0.165884,-0.45114 0.07059,-0.25013 0.159348,-0.55856 -0.01344,-0.85783 -0.172794,-0.29927 -0.484473,-0.37737 -0.736388,-0.44131 -0.251915,-0.0639 -0.47439,-0.0822 -0.47439,-0.0822 a 0.26460995,0.26460995 0 0 0 -0.03565,-5.2e-4 z" />
          <path
             style="color:#000000;fill:#143441;stroke-width:0.831186;stroke-linecap:round;stroke-linejoin:round;-inkscape-stroke:none;paint-order:markers fill stroke"
             d="m 45.207031,354.98437 a 0.2645835,0.2645835 0 0 0 -0.09766,0.36133 l 0.28125,0.48633 a 0.2645835,0.2645835 0 0 0 0.361328,0.0977 0.2645835,0.2645835 0 0 0 0.09766,-0.36133 l -0.28125,-0.48633 a 0.2645835,0.2645835 0 0 0 -0.361328,-0.0977 z"
             id="path111714" />
          <path
             id="path101209"
             style="color:#000000;fill:#46a05d;fill-opacity:1;stroke-width:0.831186;stroke-linecap:round;stroke-linejoin:round;-inkscape-stroke:none;paint-order:markers fill stroke"
             d="m 49.734948,359.67163 c -0.16547,0.001 -0.324903,0.0466 -0.465606,0.0863 -0.250137,0.0706 -0.451133,0.16589 -0.451133,0.16589 a 0.26460995,0.26460995 0 0 0 -0.152447,0.262 c 0,0 0.0047,0.0464 0.01499,0.11885 0.01957,-0.006 0.03913,-0.0118 0.05943,-0.0176 0.250137,-0.0705 0.558554,-0.15935 0.857829,0.0134 0.299278,0.17279 0.377378,0.48448 0.441317,0.73639 0.03512,0.13839 0.05616,0.26634 0.06821,0.35501 0.221327,-0.0678 0.392224,-0.14779 0.392224,-0.14779 a 0.26460995,0.26460995 0 0 0 0.150379,-0.26148 c 0,0 -0.01772,-0.22299 -0.08165,-0.47491 -0.06394,-0.25191 -0.142039,-0.5636 -0.441317,-0.73639 -0.130935,-0.0756 -0.263525,-0.1008 -0.392224,-0.0997 z" />
          <path
             style="color:#000000;fill:#143441;stroke-width:0.831186;stroke-linecap:round;stroke-linejoin:round;-inkscape-stroke:none;paint-order:markers fill stroke"
             d="m 50.277344,360.63477 a 0.2645835,0.2645835 0 0 0 -0.361328,0.0976 0.2645835,0.2645835 0 0 0 0.0957,0.36133 l 0.486328,0.28125 a 0.2645835,0.2645835 0 0 0 0.361328,-0.0977 0.2645835,0.2645835 0 0 0 -0.0957,-0.36132 z"
             id="path112095" />
          <path
             style="color:#000000;fill:#143441;stroke-width:0.831186;stroke-linecap:round;stroke-linejoin:round;-inkscape-stroke:none;paint-order:markers fill stroke"
             d="m 55.546875,354.98437 a 0.2645835,0.2645835 0 0 0 -0.361328,0.0977 l -0.28125,0.48633 a 0.2645835,0.2645835 0 0 0 0.09766,0.36133 0.2645835,0.2645835 0 0 0 0.361328,-0.0977 l 0.279297,-0.48633 a 0.2645835,0.2645835 0 0 0 -0.0957,-0.36133 z"
             id="path112101" />
          <path
             id="path96838"
             style="color:#000000;fill:#46a05d;fill-opacity:1;stroke-width:0.831186;stroke-linecap:round;stroke-linejoin:round;-inkscape-stroke:none;paint-order:markers fill stroke"
             d="m 56.12939,353.73555 a 0.26460995,0.26460995 0 0 0 -0.03566,5.2e-4 c 0,0 -0.222475,0.0183 -0.47439,0.0822 -0.251915,0.0639 -0.563594,0.14204 -0.736388,0.44131 -0.03259,0.0564 -0.05596,0.11341 -0.07183,0.17002 0.09469,-0.035 0.190497,-0.0597 0.279051,-0.0822 0.251915,-0.0639 0.47439,-0.0816 0.47439,-0.0816 a 0.26460995,0.26460995 0 0 1 0.261482,0.15038 c 0,0 0.09582,0.20256 0.166399,0.45269 0.05728,0.20297 0.126172,0.44422 0.05788,0.68781 0.17467,-0.0645 0.345281,-0.16509 0.457337,-0.35915 0.172786,-0.29928 0.08454,-0.60769 0.01395,-0.85783 -0.07058,-0.25013 -0.166399,-0.45268 -0.166399,-0.45268 a 0.26460995,0.26460995 0 0 0 -0.225825,-0.15142 z" />
        </g>
      </g>
    </g>
  </g>
</svg>
