<?xml version="1.0" encoding="UTF-8" standalone="no"?>
<svg
   xmlns:dc="http://purl.org/dc/elements/1.1/"
   xmlns:cc="http://creativecommons.org/ns#"
   xmlns:rdf="http://www.w3.org/1999/02/22-rdf-syntax-ns#"
   xmlns:svg="http://www.w3.org/2000/svg"
   xmlns="http://www.w3.org/2000/svg"
   xmlns:sodipodi="http://sodipodi.sourceforge.net/DTD/sodipodi-0.dtd"
   xmlns:inkscape="http://www.inkscape.org/namespaces/inkscape"
   inkscape:export-ydpi="768"
   inkscape:export-xdpi="768"
   inkscape:export-filename="C:\Users\adnan\Downloads\New folder\png\9 - Windmill.png"
   sodipodi:docname="10 - Eco Science.svg"
   inkscape:version="1.0 (4035a4fb49, 2020-05-01)"
   id="svg979"
   version="1.1"
   viewBox="0 0 16.933334 16.933333"
   height="48pt"
   width="48pt">
  <defs
     id="defs973" />
  <sodipodi:namedview
     inkscape:snap-others="false"
     inkscape:bbox-nodes="true"
     inkscape:snap-bbox="true"
     inkscape:snap-nodes="false"
     inkscape:document-rotation="0"
     inkscape:window-maximized="1"
     inkscape:window-y="-8"
     inkscape:window-x="-8"
     inkscape:window-height="706"
     inkscape:window-width="1366"
     units="pt"
     showgrid="false"
     inkscape:current-layer="layer1"
     inkscape:document-units="pt"
     inkscape:cy="32"
     inkscape:cx="32"
     inkscape:zoom="8.546875"
     inkscape:pageshadow="2"
     inkscape:pageopacity="0.0"
     borderopacity="1.0"
     bordercolor="#666666"
     pagecolor="#ffffff"
     id="base">
    <inkscape:grid
       id="grid1526"
       type="xygrid" />
    <sodipodi:guide
       inkscape:locked="false"
       id="guide1528"
       orientation="56.666615,0"
       position="0.97013909,15.963209" />
    <sodipodi:guide
       inkscape:locked="false"
       id="guide1530"
       orientation="0,56.666667"
       position="0.97013909,0.97016731" />
    <sodipodi:guide
       inkscape:locked="false"
       id="guide1532"
       orientation="-56.666615,0"
       position="15.963195,0.97016731" />
    <sodipodi:guide
       inkscape:locked="false"
       id="guide1534"
       orientation="0,-56.666667"
       position="15.963195,15.963209" />
  </sodipodi:namedview>
  <metadata
     id="metadata976">
    <rdf:RDF>
      <cc:Work
         rdf:about="">
        <dc:format>image/svg+xml</dc:format>
        <dc:type
           rdf:resource="http://purl.org/dc/dcmitype/StillImage" />
        <dc:title></dc:title>
      </cc:Work>
    </rdf:RDF>
  </metadata>
  <g
     transform="translate(0,-280.06668)"
     id="layer1"
     inkscape:groupmode="layer"
     inkscape:label="Layer 1">
    <g
       transform="matrix(1.2319589,0,0,1.2319589,-53.594569,-69.536153)"
       style="display:inline;stroke-width:0.811715"
       id="g1659">
      <path
         id="path1263"
         d="m 50.029297,288.19141 c -0.474458,0.0115 -0.964653,0.0945 -1.451172,0.33789 a 0.26460945,0.26460945 0 0 0 -0.01758,0.01 c -0.805158,0.48413 -0.960205,1.17604 -1.015625,1.75586 a 0.26460945,0.26460945 0 0 0 0.160156,0.26758 c 0.985574,0.41878 1.980734,0.28955 2.898438,-0.23633 a 0.26460945,0.26460945 0 0 0 0.0078,-0.004 c 0.756585,-0.47645 0.940964,-1.19441 1.009766,-1.7461 a 0.26460945,0.26460945 0 0 0 -0.236328,-0.29492 c -0.421812,-0.0408 -0.881011,-0.10133 -1.355469,-0.0898 z"
         style="color:#000000;font-style:normal;font-variant:normal;font-weight:normal;font-stretch:normal;font-size:medium;line-height:normal;font-family:sans-serif;font-variant-ligatures:normal;font-variant-position:normal;font-variant-caps:normal;font-variant-numeric:normal;font-variant-alternates:normal;font-variant-east-asian:normal;font-feature-settings:normal;font-variation-settings:normal;text-indent:0;text-align:start;text-decoration:none;text-decoration-line:none;text-decoration-style:solid;text-decoration-color:#000000;letter-spacing:normal;word-spacing:normal;text-transform:none;writing-mode:lr-tb;direction:ltr;text-orientation:mixed;dominant-baseline:auto;baseline-shift:baseline;text-anchor:start;white-space:normal;shape-padding:0;shape-margin:0;inline-size:0;clip-rule:nonzero;display:inline;overflow:visible;visibility:visible;isolation:auto;mix-blend-mode:normal;color-interpolation:sRGB;color-interpolation-filters:linearRGB;solid-color:#000000;solid-opacity:1;vector-effect:none;fill:#50b86b;fill-opacity:1;fill-rule:nonzero;stroke:none;stroke-width:0.429532;stroke-linecap:round;stroke-linejoin:round;stroke-miterlimit:4;stroke-dasharray:none;stroke-dashoffset:0;stroke-opacity:1;color-rendering:auto;image-rendering:auto;shape-rendering:auto;text-rendering:auto;enable-background:accumulate;stop-color:#000000" />
      <path
         id="path1248"
         d="m 44.900391,288.66797 a 0.26460945,0.26460945 0 0 0 -0.238282,0.29687 c 0.06325,0.48822 0.329796,1.06677 0.837891,1.40235 a 0.26460945,0.26460945 0 0 0 0.01758,0.01 c 0.754915,0.41647 1.577539,0.52012 2.390625,0.1875 a 0.26460945,0.26460945 0 0 0 0.164063,-0.27148 c -0.04542,-0.45745 -0.184116,-1.03162 -0.851563,-1.41797 a 0.26460945,0.26460945 0 0 0 -0.01758,-0.01 c -0.80525,-0.38784 -1.618844,-0.26089 -2.302734,-0.19726 z"
         style="color:#000000;font-style:normal;font-variant:normal;font-weight:normal;font-stretch:normal;font-size:medium;line-height:normal;font-family:sans-serif;font-variant-ligatures:normal;font-variant-position:normal;font-variant-caps:normal;font-variant-numeric:normal;font-variant-alternates:normal;font-variant-east-asian:normal;font-feature-settings:normal;font-variation-settings:normal;text-indent:0;text-align:start;text-decoration:none;text-decoration-line:none;text-decoration-style:solid;text-decoration-color:#000000;letter-spacing:normal;word-spacing:normal;text-transform:none;writing-mode:lr-tb;direction:ltr;text-orientation:mixed;dominant-baseline:auto;baseline-shift:baseline;text-anchor:start;white-space:normal;shape-padding:0;shape-margin:0;inline-size:0;clip-rule:nonzero;display:inline;overflow:visible;visibility:visible;isolation:auto;mix-blend-mode:normal;color-interpolation:sRGB;color-interpolation-filters:linearRGB;solid-color:#000000;solid-opacity:1;vector-effect:none;fill:#50b86b;fill-opacity:1;fill-rule:nonzero;stroke:none;stroke-width:0.429532;stroke-linecap:round;stroke-linejoin:round;stroke-miterlimit:4;stroke-dasharray:none;stroke-dashoffset:0;stroke-opacity:1;color-rendering:auto;image-rendering:auto;shape-rendering:auto;text-rendering:auto;enable-background:accumulate;stop-color:#000000" />
      <path
         id="path1239"
         d="m 47.808594,290.05469 a 0.26458299,0.26458299 0 0 0 -0.263672,0.26367 v 2.0957 a 0.26458299,0.26458299 0 0 0 0.263672,0.26367 0.26458299,0.26458299 0 0 0 0.265625,-0.26367 v -2.0957 a 0.26458299,0.26458299 0 0 0 -0.265625,-0.26367 z"
         style="color:#000000;font-style:normal;font-variant:normal;font-weight:normal;font-stretch:normal;font-size:medium;line-height:normal;font-family:sans-serif;font-variant-ligatures:normal;font-variant-position:normal;font-variant-caps:normal;font-variant-numeric:normal;font-variant-alternates:normal;font-variant-east-asian:normal;font-feature-settings:normal;font-variation-settings:normal;text-indent:0;text-align:start;text-decoration:none;text-decoration-line:none;text-decoration-style:solid;text-decoration-color:#000000;letter-spacing:normal;word-spacing:normal;text-transform:none;writing-mode:lr-tb;direction:ltr;text-orientation:mixed;dominant-baseline:auto;baseline-shift:baseline;text-anchor:start;white-space:normal;shape-padding:0;shape-margin:0;inline-size:0;clip-rule:nonzero;display:inline;overflow:visible;visibility:visible;opacity:1;isolation:auto;mix-blend-mode:normal;color-interpolation:sRGB;color-interpolation-filters:linearRGB;solid-color:#000000;solid-opacity:1;vector-effect:none;fill:#50b86b;fill-opacity:1;fill-rule:nonzero;stroke:none;stroke-width:0.429532;stroke-linecap:round;stroke-linejoin:round;stroke-miterlimit:4;stroke-dasharray:none;stroke-dashoffset:0;stroke-opacity:1;color-rendering:auto;image-rendering:auto;shape-rendering:auto;text-rendering:auto;enable-background:accumulate;stop-color:#000000;stop-opacity:1" />
      <path
         id="path1226"
         d="m 48.912109,291.81445 c -0.385685,0.0339 -0.79948,0.1385 -1.226562,0.36524 a 0.2645835,0.2645835 0 0 0 -0.06055,0.0449 c -0.39336,-0.13571 -0.613213,-0.33537 -1.039062,-0.39063 -0.555201,-0.072 -1.109026,-0.0478 -1.556641,0.21094 -0.447615,0.25871 -0.738281,0.77062 -0.738281,1.48828 v 1.0586 a 0.26460996,0.26460996 0 0 0 0.265625,0.26367 h 6.857421 a 0.26460996,0.26460996 0 0 0 0.263672,-0.27344 l -0.07617,-2.31055 a 0.26460996,0.26460996 0 0 0 -0.365234,-0.23632 c -0.07959,0.0332 -0.234515,0.0374 -0.455078,0 -0.220563,-0.0375 -0.497649,-0.10737 -0.8125,-0.16211 -0.314851,-0.0547 -0.670955,-0.0925 -1.056641,-0.0586 z"
         style="color:#000000;font-style:normal;font-variant:normal;font-weight:normal;font-stretch:normal;font-size:medium;line-height:normal;font-family:sans-serif;font-variant-ligatures:normal;font-variant-position:normal;font-variant-caps:normal;font-variant-numeric:normal;font-variant-alternates:normal;font-variant-east-asian:normal;font-feature-settings:normal;font-variation-settings:normal;text-indent:0;text-align:start;text-decoration:none;text-decoration-line:none;text-decoration-style:solid;text-decoration-color:#000000;letter-spacing:normal;word-spacing:normal;text-transform:none;writing-mode:lr-tb;direction:ltr;text-orientation:mixed;dominant-baseline:auto;baseline-shift:baseline;text-anchor:start;white-space:normal;shape-padding:0;shape-margin:0;inline-size:0;clip-rule:nonzero;display:inline;overflow:visible;visibility:visible;isolation:auto;mix-blend-mode:normal;color-interpolation:sRGB;color-interpolation-filters:linearRGB;solid-color:#000000;solid-opacity:1;vector-effect:none;fill:#9a605c;fill-opacity:1;fill-rule:nonzero;stroke:none;stroke-width:0.429533;stroke-linecap:round;stroke-linejoin:round;stroke-miterlimit:4;stroke-dasharray:none;stroke-dashoffset:0;stroke-opacity:1;color-rendering:auto;image-rendering:auto;shape-rendering:auto;text-rendering:auto;enable-background:accumulate;stop-color:#000000" />
      <path
         id="path1337"
         d="m 52.367188,286.45508 a 0.26461046,0.26461046 0 0 0 -0.263672,0.26562 v 2.13477 c -0.0012,0.0997 -0.05789,0.39013 -0.15625,0.74609 -0.09861,0.35686 -0.237083,0.79336 -0.392578,1.25586 -0.310992,0.925 -0.690675,1.9554 -0.964844,2.68164 -0.123495,0.32713 -0.102119,0.66785 0.07227,0.92188 0.174385,0.25402 0.485785,0.39453 0.835938,0.39453 h 3.970703 c 0.350407,0 0.661849,-0.14106 0.837891,-0.39453 0.176041,-0.25347 0.199991,-0.59518 0.08008,-0.92383 -0.263952,-0.72344 -0.627472,-1.74623 -0.923828,-2.66797 -0.148178,-0.46087 -0.28028,-0.89631 -0.373047,-1.25391 -0.09277,-0.35759 -0.14332,-0.65158 -0.142578,-0.75781 a 0.26461046,0.26461046 0 0 0 0,-0.002 v -2.13477 a 0.26461046,0.26461046 0 0 0 -0.263672,-0.26562 z"
         style="color:#000000;font-style:normal;font-variant:normal;font-weight:normal;font-stretch:normal;font-size:medium;line-height:normal;font-family:sans-serif;font-variant-ligatures:normal;font-variant-position:normal;font-variant-caps:normal;font-variant-numeric:normal;font-variant-alternates:normal;font-variant-east-asian:normal;font-feature-settings:normal;font-variation-settings:normal;text-indent:0;text-align:start;text-decoration:none;text-decoration-line:none;text-decoration-style:solid;text-decoration-color:#000000;letter-spacing:normal;word-spacing:normal;text-transform:none;writing-mode:lr-tb;direction:ltr;text-orientation:mixed;dominant-baseline:auto;baseline-shift:baseline;text-anchor:start;white-space:normal;shape-padding:0;shape-margin:0;inline-size:0;clip-rule:nonzero;display:inline;overflow:visible;visibility:visible;isolation:auto;mix-blend-mode:normal;color-interpolation:sRGB;color-interpolation-filters:linearRGB;solid-color:#000000;solid-opacity:1;vector-effect:none;fill:#f5f6e8;fill-opacity:1;fill-rule:nonzero;stroke:none;stroke-width:0.429534;stroke-linecap:round;stroke-linejoin:round;stroke-miterlimit:4;stroke-dasharray:none;stroke-dashoffset:0;stroke-opacity:1;color-rendering:auto;image-rendering:auto;shape-rendering:auto;text-rendering:auto;enable-background:accumulate;stop-color:#000000" />
      <path
         transform="matrix(0.26458333,0,0,0.26458333,0,284.3)"
         d="m 197.92383,8.1445312 a 1.0001025,1.0001025 0 0 0 -0.99805,1.0039063 v 6.4042965 c 8.48077,2.06829 2.6864,17.386027 5.96094,24.341797 h 6.75976 c 1.32438,0 2.50066,-0.532237 3.16602,-1.490234 0.66535,-0.957997 0.75594,-2.250046 0.30273,-3.492188 -0.99761,-2.734261 -2.3721,-6.600242 -3.49218,-10.083984 -0.56005,-1.741871 -1.05954,-3.386722 -1.41016,-4.738281 -0.35063,-1.351522 -0.54187,-2.463735 -0.53906,-2.865235 a 1.0001025,1.0001025 0 0 0 0,-0.0078 V 9.1484375 a 1.0001025,1.0001025 0 0 0 -0.9961,-1.0039063 z"
         style="fill:#e2e3d6;fill-opacity:1;stroke:none;stroke-width:1.62343;stroke-linecap:round;stroke-linejoin:round;stroke-opacity:1"
         id="path1397" />
      <path
         id="path1318"
         d="m 52.427734,290.52344 c -0.341247,0.038 -0.678618,0.19496 -0.916015,0.50781 a 0.26460996,0.26460996 0 0 0 -0.03906,0.0703 l -0.882812,2.43946 a 0.26460996,0.26460996 0 0 0 -0.002,0.006 c -0.108766,0.31833 -0.107268,0.62907 0.04687,0.86914 0.154142,0.24006 0.419025,0.36692 0.722656,0.43359 a 0.26460996,0.26460996 0 0 0 0.05664,0.006 h 4.054688 a 0.26460996,0.26460996 0 0 0 0.03125,-0.002 c 0.291646,-0.0352 0.576635,-0.11616 0.769531,-0.34571 0.192896,-0.22954 0.228281,-0.56699 0.125,-0.94922 a 0.26460996,0.26460996 0 0 0 -0.0059,-0.0176 l -0.810547,-2.31446 a 0.26460996,0.26460996 0 0 0 -0.261719,-0.17773 c -0.450579,0.0223 -1.158003,-0.24432 -1.851562,-0.41602 -0.34678,-0.0858 -0.695863,-0.14742 -1.03711,-0.10937 z"
         style="color:#000000;font-style:normal;font-variant:normal;font-weight:normal;font-stretch:normal;font-size:medium;line-height:normal;font-family:sans-serif;font-variant-ligatures:normal;font-variant-position:normal;font-variant-caps:normal;font-variant-numeric:normal;font-variant-alternates:normal;font-variant-east-asian:normal;font-feature-settings:normal;font-variation-settings:normal;text-indent:0;text-align:start;text-decoration:none;text-decoration-line:none;text-decoration-style:solid;text-decoration-color:#000000;letter-spacing:normal;word-spacing:normal;text-transform:none;writing-mode:lr-tb;direction:ltr;text-orientation:mixed;dominant-baseline:auto;baseline-shift:baseline;text-anchor:start;white-space:normal;shape-padding:0;shape-margin:0;inline-size:0;clip-rule:nonzero;display:inline;overflow:visible;visibility:visible;isolation:auto;mix-blend-mode:normal;color-interpolation:sRGB;color-interpolation-filters:linearRGB;solid-color:#000000;solid-opacity:1;vector-effect:none;fill:#87d1ee;fill-opacity:1;fill-rule:nonzero;stroke:none;stroke-width:0.429533;stroke-linecap:round;stroke-linejoin:round;stroke-miterlimit:4;stroke-dasharray:none;stroke-dashoffset:0;stroke-opacity:1;color-rendering:auto;image-rendering:auto;shape-rendering:auto;text-rendering:auto;enable-background:accumulate;stop-color:#000000" />
      <path
         id="path1351"
         d="m 51.802734,286.44531 a 0.2645835,0.2645835 0 0 0 -0.263672,0.26367 0.2645835,0.2645835 0 0 0 0.263672,0.26563 h 3.376954 a 0.2645835,0.2645835 0 0 0 0.265624,-0.26563 0.2645835,0.2645835 0 0 0 -0.265624,-0.26367 z"
         style="color:#000000;font-style:normal;font-variant:normal;font-weight:normal;font-stretch:normal;font-size:medium;line-height:normal;font-family:sans-serif;font-variant-ligatures:normal;font-variant-position:normal;font-variant-caps:normal;font-variant-numeric:normal;font-variant-alternates:normal;font-variant-east-asian:normal;font-feature-settings:normal;font-variation-settings:normal;text-indent:0;text-align:start;text-decoration:none;text-decoration-line:none;text-decoration-style:solid;text-decoration-color:#000000;letter-spacing:normal;word-spacing:normal;text-transform:none;writing-mode:lr-tb;direction:ltr;text-orientation:mixed;dominant-baseline:auto;baseline-shift:baseline;text-anchor:start;white-space:normal;shape-padding:0;shape-margin:0;inline-size:0;clip-rule:nonzero;display:inline;overflow:visible;visibility:visible;opacity:1;isolation:auto;mix-blend-mode:normal;color-interpolation:sRGB;color-interpolation-filters:linearRGB;solid-color:#000000;solid-opacity:1;vector-effect:none;fill:#f5f6e8;fill-opacity:1;fill-rule:nonzero;stroke:none;stroke-width:0.429533;stroke-linecap:round;stroke-linejoin:round;stroke-miterlimit:4;stroke-dasharray:none;stroke-dashoffset:0;stroke-opacity:1;paint-order:markers fill stroke;color-rendering:auto;image-rendering:auto;shape-rendering:auto;text-rendering:auto;enable-background:accumulate;stop-color:#000000;stop-opacity:1" />
      <path
         transform="matrix(0.26458333,0,0,0.26458333,0,284.3)"
         d="m 174.50586,28.347656 c -1.53467,-0.04272 -3.01058,0.187507 -4.26953,0.900391 0.46311,0.641186 1.03622,1.223776 1.73242,1.683594 a 1.0000987,1.0000987 0 0 0 0.0664,0.03711 c 2.85322,1.57406 5.96207,1.966131 9.03515,0.708984 a 1.0000987,1.0000987 0 0 0 0.6211,-1.02539 c -0.0452,-0.454828 -0.11827,-0.940616 -0.24219,-1.435547 -0.40275,0.161332 -0.81055,0.3467 -1.2207,0.564453 A 1.0000006,1.0000006 0 0 0 180,29.951172 c -1.48671,-0.51292 -2.31823,-1.267706 -3.92773,-1.476563 -0.5246,-0.06803 -1.04865,-0.11254 -1.56641,-0.126953 z"
         style="color:#000000;font-style:normal;font-variant:normal;font-weight:normal;font-stretch:normal;font-size:medium;line-height:normal;font-family:sans-serif;font-variant-ligatures:normal;font-variant-position:normal;font-variant-caps:normal;font-variant-numeric:normal;font-variant-alternates:normal;font-variant-east-asian:normal;font-feature-settings:normal;font-variation-settings:normal;text-indent:0;text-align:start;text-decoration:none;text-decoration-line:none;text-decoration-style:solid;text-decoration-color:#000000;letter-spacing:normal;word-spacing:normal;text-transform:none;writing-mode:lr-tb;direction:ltr;text-orientation:mixed;dominant-baseline:auto;baseline-shift:baseline;text-anchor:start;white-space:normal;shape-padding:0;shape-margin:0;inline-size:0;clip-rule:nonzero;display:inline;overflow:visible;visibility:visible;isolation:auto;mix-blend-mode:normal;color-interpolation:sRGB;color-interpolation-filters:linearRGB;solid-color:#000000;solid-opacity:1;vector-effect:none;fill:#8a5753;fill-opacity:1;fill-rule:nonzero;stroke:none;stroke-width:1.62343;stroke-linecap:round;stroke-linejoin:round;stroke-miterlimit:4;stroke-dasharray:none;stroke-dashoffset:0;stroke-opacity:1;color-rendering:auto;image-rendering:auto;shape-rendering:auto;text-rendering:auto;enable-background:accumulate;stop-color:#000000"
         id="path1368" />
      <path
         transform="matrix(0.26458333,0,0,0.26458333,0,284.3)"
         d="m 185.93555,28.351562 c -0.34977,0.0014 -0.70589,0.0168 -1.07032,0.04883 -1.4577,0.128126 -3.02255,0.523889 -4.63671,1.380859 A 1.0000006,1.0000006 0 0 0 180,29.951172 c -0.0766,-0.02643 -0.13567,-0.05834 -0.20898,-0.08594 -0.0388,0.26908 -0.069,0.533745 -0.0937,0.792969 a 1.0000987,1.0000987 0 0 0 0.60546,1.011719 c 3.72501,1.58279 7.48659,1.095 10.95508,-0.892578 a 1.0000987,1.0000987 0 0 0 0.0293,-0.01563 c 0.68207,-0.429523 1.23396,-0.913309 1.69336,-1.425781 -0.28705,0.0015 -0.63702,-0.0314 -1.05078,-0.101563 -0.83363,-0.141732 -1.88228,-0.404437 -3.07227,-0.611328 -0.89249,-0.155055 -1.87258,-0.275666 -2.92187,-0.271485 z"
         style="color:#000000;font-style:normal;font-variant:normal;font-weight:normal;font-stretch:normal;font-size:medium;line-height:normal;font-family:sans-serif;font-variant-ligatures:normal;font-variant-position:normal;font-variant-caps:normal;font-variant-numeric:normal;font-variant-alternates:normal;font-variant-east-asian:normal;font-feature-settings:normal;font-variation-settings:normal;text-indent:0;text-align:start;text-decoration:none;text-decoration-line:none;text-decoration-style:solid;text-decoration-color:#000000;letter-spacing:normal;word-spacing:normal;text-transform:none;writing-mode:lr-tb;direction:ltr;text-orientation:mixed;dominant-baseline:auto;baseline-shift:baseline;text-anchor:start;white-space:normal;shape-padding:0;shape-margin:0;inline-size:0;clip-rule:nonzero;display:inline;overflow:visible;visibility:visible;isolation:auto;mix-blend-mode:normal;color-interpolation:sRGB;color-interpolation-filters:linearRGB;solid-color:#000000;solid-opacity:1;vector-effect:none;fill:#8a5753;fill-opacity:1;fill-rule:nonzero;stroke:none;stroke-width:1.62343;stroke-linecap:round;stroke-linejoin:round;stroke-miterlimit:4;stroke-dasharray:none;stroke-dashoffset:0;stroke-opacity:1;color-rendering:auto;image-rendering:auto;shape-rendering:auto;text-rendering:auto;enable-background:accumulate;stop-color:#000000"
         id="path1373" />
      <path
         d="m 47.460151,289.04028 c -0.314616,0.40189 -0.406141,0.85425 -0.444416,1.25471 a 0.26460944,0.26460944 0 0 0 0.160195,0.26768 c 0.11588,0.0492 0.231772,0.0892 0.347784,0.12351 0.09355,-0.0228 0.187103,-0.0518 0.280601,-0.0858 -0.0331,-0.0127 -0.06613,-0.0237 -0.09922,-0.0377 A 0.26460944,0.26460944 0 0 1 47.5449,290.295 c 0.02784,-0.29127 0.08107,-0.61059 0.228926,-0.91778 -0.08052,-0.11827 -0.183484,-0.23174 -0.313677,-0.33693 z"
         style="color:#000000;font-style:normal;font-variant:normal;font-weight:normal;font-stretch:normal;font-size:medium;line-height:normal;font-family:sans-serif;font-variant-ligatures:normal;font-variant-position:normal;font-variant-caps:normal;font-variant-numeric:normal;font-variant-alternates:normal;font-variant-east-asian:normal;font-feature-settings:normal;font-variation-settings:normal;text-indent:0;text-align:start;text-decoration:none;text-decoration-line:none;text-decoration-style:solid;text-decoration-color:#000000;letter-spacing:normal;word-spacing:normal;text-transform:none;writing-mode:lr-tb;direction:ltr;text-orientation:mixed;dominant-baseline:auto;baseline-shift:baseline;text-anchor:start;white-space:normal;shape-padding:0;shape-margin:0;inline-size:0;clip-rule:nonzero;display:inline;overflow:visible;visibility:visible;isolation:auto;mix-blend-mode:normal;color-interpolation:sRGB;color-interpolation-filters:linearRGB;solid-color:#000000;solid-opacity:1;vector-effect:none;fill:#419658;fill-opacity:1;fill-rule:nonzero;stroke:none;stroke-width:0.429533;stroke-linecap:round;stroke-linejoin:round;stroke-miterlimit:4;stroke-dasharray:none;stroke-dashoffset:0;stroke-opacity:1;color-rendering:auto;image-rendering:auto;shape-rendering:auto;text-rendering:auto;enable-background:accumulate;stop-color:#000000"
         id="path1386" />
      <path
         transform="matrix(0.26458333,0,0,0.26458333,0,284.3)"
         d="m 201.79883,23.875 c 0.29341,5.393085 -0.7766,12.05898 1.08789,16.019531 h 6.75976 c 0.0397,0 0.0777,-0.0049 0.11719,-0.0059 6.4e-4,-7.7e-5 0.001,7.7e-5 0.002,0 1.09521,-0.132389 2.16418,-0.437399 2.89258,-1.292969 0.0111,-0.01357 0.0223,-0.02725 0.0332,-0.04102 0.0677,-0.08265 0.12838,-0.170093 0.18554,-0.259766 0.0268,-0.04213 0.0515,-0.08562 0.0762,-0.128906 0.0561,-0.09971 0.11011,-0.201474 0.1543,-0.308594 0.32363,-0.784535 0.32701,-1.761218 0.043,-2.832031 -0.0127,-0.03777 -0.0214,-0.07559 -0.0352,-0.113282 -0.73293,-2.008823 -1.65157,-4.62959 -2.54101,-7.259765 l -0.51563,-1.472656 a 1.0001006,1.0001006 0 0 0 -0.98828,-0.671876 c -1.70297,0.08428 -4.37672,-0.92332 -6.99804,-1.572265 -0.091,-0.02251 -0.18241,-0.03902 -0.27344,-0.06055 z"
         style="fill:#81c6e0;fill-opacity:1;stroke:none;stroke-width:1.62343;stroke-linecap:round;stroke-linejoin:round;stroke-opacity:1"
         id="path1402" />
      <path
         id="path1301"
         d="m 53.023438,291.94531 c -0.435246,0 -0.794925,0.35773 -0.794922,0.79297 -3e-6,0.43524 0.359676,0.79492 0.794922,0.79492 0.435245,0 0.792971,-0.35968 0.792968,-0.79492 3e-6,-0.43524 -0.357723,-0.79297 -0.792968,-0.79297 z"
         style="color:#000000;font-style:normal;font-variant:normal;font-weight:normal;font-stretch:normal;font-size:medium;line-height:normal;font-family:sans-serif;font-variant-ligatures:normal;font-variant-position:normal;font-variant-caps:normal;font-variant-numeric:normal;font-variant-alternates:normal;font-variant-east-asian:normal;font-feature-settings:normal;font-variation-settings:normal;text-indent:0;text-align:start;text-decoration:none;text-decoration-line:none;text-decoration-style:solid;text-decoration-color:#000000;letter-spacing:normal;word-spacing:normal;text-transform:none;writing-mode:lr-tb;direction:ltr;text-orientation:mixed;dominant-baseline:auto;baseline-shift:baseline;text-anchor:start;white-space:normal;shape-padding:0;shape-margin:0;inline-size:0;clip-rule:nonzero;display:inline;overflow:visible;visibility:visible;isolation:auto;mix-blend-mode:normal;color-interpolation:sRGB;color-interpolation-filters:linearRGB;solid-color:#000000;solid-opacity:1;vector-effect:none;fill:#2bb3cd;fill-opacity:1;fill-rule:nonzero;stroke:none;stroke-width:0.429532;stroke-linecap:round;stroke-linejoin:round;stroke-miterlimit:4;stroke-dasharray:none;stroke-dashoffset:0;stroke-opacity:1;paint-order:markers fill stroke;color-rendering:auto;image-rendering:auto;shape-rendering:auto;text-rendering:auto;enable-background:accumulate;stop-color:#000000" />
      <path
         transform="matrix(0.26458333,0,0,0.26458333,0,284.3)"
         d="m 201.80859,29.265625 c -0.043,1.790872 -0.0897,3.588115 -0.006,5.263672 0.9436,-0.509097 1.59767,-1.498634 1.59766,-2.636719 1e-5,-1.135592 -0.65157,-2.118996 -1.5918,-2.626953 z"
         style="fill:#29acc4;fill-opacity:1;stroke:none;stroke-width:1.62343;stroke-linecap:round;stroke-linejoin:round;stroke-opacity:1"
         id="path1407" />
    </g>
  </g>
</svg>
