<?xml version="1.0" encoding="UTF-8" standalone="no"?>
<!-- Created with Inkscape (http://www.inkscape.org/) -->

<svg
   width="48pt"
   height="48pt"
   viewBox="0 0 16.933334 16.933333"
   version="1.1"
   id="svg979"
   inkscape:version="1.1 (c68e22c387, 2021-05-23)"
   sodipodi:docname="26 - Mill.svg"
   inkscape:export-filename="E:\TR Design Studio Creative\Project Design\TR Creative Design\Icon Design\Project Hiring\Icon Icons\006 - Ecology\Send\3 - Flat\26 - Mill.png"
   inkscape:export-xdpi="768"
   inkscape:export-ydpi="768"
   xmlns:inkscape="http://www.inkscape.org/namespaces/inkscape"
   xmlns:sodipodi="http://sodipodi.sourceforge.net/DTD/sodipodi-0.dtd"
   xmlns="http://www.w3.org/2000/svg"
   xmlns:svg="http://www.w3.org/2000/svg"
   xmlns:rdf="http://www.w3.org/1999/02/22-rdf-syntax-ns#"
   xmlns:cc="http://creativecommons.org/ns#"
   xmlns:dc="http://purl.org/dc/elements/1.1/">
  <defs
     id="defs973" />
  <sodipodi:namedview
     id="base"
     pagecolor="#ffffff"
     bordercolor="#666666"
     borderopacity="1.0"
     inkscape:pageopacity="0.0"
     inkscape:pageshadow="2"
     inkscape:zoom="7.6875"
     inkscape:cx="32"
     inkscape:cy="32"
     inkscape:document-units="pt"
     inkscape:current-layer="layer1"
     showgrid="false"
     units="pt"
     inkscape:window-width="1366"
     inkscape:window-height="716"
     inkscape:window-x="-8"
     inkscape:window-y="-8"
     inkscape:window-maximized="1"
     inkscape:pagecheckerboard="0"
     inkscape:snap-bbox="true"
     inkscape:snap-nodes="false"
     inkscape:bbox-nodes="true"
     showguides="false">
    <inkscape:grid
       type="xygrid"
       id="grid1526" />
    <sodipodi:guide
       position="0.97013909,15.963209"
       orientation="56.666615,0"
       id="guide1528"
       inkscape:locked="false" />
    <sodipodi:guide
       position="0.97013909,0.97016731"
       orientation="0,56.666667"
       id="guide1530"
       inkscape:locked="false" />
    <sodipodi:guide
       position="15.963195,0.97016731"
       orientation="-56.666615,0"
       id="guide1532"
       inkscape:locked="false" />
    <sodipodi:guide
       position="15.963195,15.963209"
       orientation="0,-56.666667"
       id="guide1534"
       inkscape:locked="false" />
  </sodipodi:namedview>
  <metadata
     id="metadata976">
    <rdf:RDF>
      <cc:Work
         rdf:about="">
        <dc:format>image/svg+xml</dc:format>
        <dc:type
           rdf:resource="http://purl.org/dc/dcmitype/StillImage" />
      </cc:Work>
    </rdf:RDF>
  </metadata>
  <g
     inkscape:label="Layer 1"
     inkscape:groupmode="layer"
     id="layer1"
     transform="translate(0,-280.06668)">
    <g
       id="g530401"
       style="display:inline;stroke-width:0.812256"
       transform="matrix(1.2311383,0,0,1.2311383,27.750569,-150.60246)">
      <g
         id="g530385"
         style="stroke-width:0.812256">
        <path
           style="color:#000000;fill:#2bb3cd;stroke-width:0.812256;stroke-linecap:round;stroke-linejoin:round;-inkscape-stroke:none;paint-order:markers fill stroke"
           d="m -21.390625,360.37239 -0.214844,0.10742 a 0.2645835,0.2645835 0 0 0 -0.11914,0.35547 0.2645835,0.2645835 0 0 0 0.355468,0.11914 l 0.216797,-0.10937 c 0.125603,-0.0628 0.272835,-0.0628 0.398438,0 l 0.421875,0.21289 c 0.27414,0.13702 0.598906,0.13702 0.873047,0 l 0.421875,-0.21289 c 0.125601,-0.0628 0.272836,-0.0628 0.398437,0 l 0.423828,0.21289 c 0.274141,0.13702 0.596953,0.13702 0.871094,0 l 0.423828,-0.21289 c 0.125601,-0.0628 0.272835,-0.0628 0.398438,0 l 0.529296,0.26562 c 0.207517,0.10373 0.452641,0.10373 0.660157,0 l 0.529297,-0.26562 c 0.125601,-0.0628 0.272835,-0.0628 0.398437,0 l 0.423828,0.21289 c 0.274141,0.13702 0.596953,0.13702 0.871094,0 l 0.423828,-0.21289 c 0.125601,-0.0628 0.272837,-0.0628 0.398438,0 l 0.421875,0.21289 c 0.27414,0.13702 0.598906,0.13702 0.873046,0 l 0.421875,-0.21289 c 0.125603,-0.0628 0.272835,-0.0628 0.398438,0 l 0.2148437,0.10742 a 0.2645835,0.2645835 0 0 0 0.3554688,-0.11914 0.2645835,0.2645835 0 0 0 -0.1191406,-0.35352 l -0.2148438,-0.10742 c -0.2741411,-0.13702 -0.5969531,-0.13702 -0.8710941,0 l -0.423828,0.21094 c -0.125601,0.0628 -0.272836,0.0628 -0.398437,0 l -0.421875,-0.21094 c -0.274141,-0.13702 -0.598906,-0.13702 -0.873047,0 l -0.421875,0.21094 c -0.125603,0.0628 -0.272835,0.0628 -0.398438,0 l -0.423828,-0.21094 c -0.274141,-0.13702 -0.596953,-0.13702 -0.871094,0 l -0.529296,0.26367 c -0.05898,0.0295 -0.128523,0.0295 -0.1875,0 l -0.529297,-0.26367 c -0.274141,-0.13702 -0.596954,-0.13702 -0.871094,0 l -0.423828,0.21094 c -0.125603,0.0628 -0.272835,0.0628 -0.398438,0 l -0.423828,-0.21094 c -0.27414,-0.13702 -0.596953,-0.13702 -0.871093,0 l -0.423829,0.21094 c -0.124985,0.0625 -0.271289,0.0619 -0.396484,0 h -0.002 l -0.421875,-0.21094 c -0.274141,-0.13702 -0.598906,-0.13702 -0.873047,0 z"
           id="path12333" />
        <path
           style="color:#000000;fill:#2276bc;fill-opacity:1;stroke-width:0.812256;stroke-linecap:round;stroke-linejoin:round;-inkscape-stroke:none;paint-order:markers fill stroke"
           d="m -21.390625,361.43099 -0.210937,0.10546 a 0.2645835,0.2645835 0 0 0 -0.119141,0.35547 0.2645835,0.2645835 0 0 0 0.355469,0.11719 l 0.21289,-0.10547 c 0.125603,-0.0628 0.272835,-0.0628 0.398438,0 l 0.421875,0.21094 c 0.27414,0.13702 0.598906,0.13702 0.873047,0 l 0.421875,-0.21094 c 0.125601,-0.0628 0.272836,-0.0628 0.398437,0 l 0.423828,0.21094 c 0.274141,0.13702 0.596953,0.13702 0.871094,0 l 0.423828,-0.21094 c 0.125601,-0.0628 0.272835,-0.0628 0.398438,0 l 0.529296,0.26563 c 0.207517,0.10372 0.452641,0.10372 0.660157,0 l 0.529297,-0.26563 c 0.125601,-0.0628 0.272835,-0.0628 0.398437,0 l 0.423828,0.21094 c 0.274141,0.13702 0.596953,0.13702 0.871094,0 l 0.423828,-0.21094 c 0.125601,-0.0628 0.272837,-0.0628 0.398438,0 l 0.421875,0.21094 c 0.27414,0.13702 0.598906,0.13702 0.873046,0 l 0.421875,-0.21094 c 0.125603,-0.0628 0.272835,-0.0628 0.398438,0 l 0.2089844,0.10547 a 0.2645835,0.2645835 0 0 0 0.3554687,-0.11914 0.2645835,0.2645835 0 0 0 -0.1171875,-0.35547 l -0.2109375,-0.10351 c -0.2741411,-0.13702 -0.5969531,-0.13702 -0.8710941,0 l -0.423828,0.21093 c -0.125601,0.0628 -0.272836,0.0628 -0.398437,0 l -0.421875,-0.21093 c -0.274141,-0.13703 -0.598906,-0.13703 -0.873047,0 l -0.421875,0.21093 c -0.125603,0.0628 -0.272835,0.0628 -0.398438,0 l -0.423828,-0.21093 c -0.274141,-0.13702 -0.596953,-0.13703 -0.871094,0 l -0.529296,0.26367 c -0.05898,0.0295 -0.128523,0.0295 -0.1875,0 l -0.529297,-0.26367 c -0.274141,-0.13702 -0.596954,-0.13703 -0.871094,0 l -0.423828,0.21093 c -0.125603,0.0628 -0.272835,0.0628 -0.398438,0 l -0.423828,-0.21093 c -0.27414,-0.13703 -0.596953,-0.13703 -0.871093,0 l -0.423829,0.21093 c -0.124985,0.0625 -0.271289,0.0619 -0.396484,0 h -0.002 l -0.421875,-0.21093 c -0.274141,-0.13702 -0.598906,-0.13702 -0.873047,0 z"
           id="path14048" />
      </g>
      <g
         id="g530018"
         style="stroke-width:0.812256">
        <g
           id="g530006"
           style="stroke-width:0.812256">
          <path
             id="path501036"
             style="color:#000000;fill:#d0ad9a;stroke-width:0.812256;stroke-linecap:round;stroke-linejoin:round;-inkscape-stroke:none;paint-order:markers fill stroke"
             d="m -16.218648,351.95479 c -1.04386,0.10776 -1.997324,0.51957 -2.769857,1.14463 l -0.790649,0.79323 c -0.624091,0.77307 -1.035543,1.72645 -1.144633,2.76934 v 1.11311 c 0.10909,1.04289 0.520542,1.99679 1.144633,2.76986 l 0.05633,0.0501 c 0.0085,-0.004 0.01695,-0.007 0.02532,-0.0109 l 0.424264,-0.21136 c 0.27414,-0.13702 0.596608,-0.13702 0.870748,0 a 0.26460995,0.26460995 0 0 1 0.0021,0 l 0.42168,0.21136 c 0.125603,0.0628 0.272822,0.0628 0.398425,0 l 0.424263,-0.21136 c 0.274141,-0.13702 0.596607,-0.13702 0.870748,0 l 0.529684,0.26407 c 0.05898,0.0295 0.128089,0.0295 0.187068,0 l 0.529684,-0.26407 c 0.274141,-0.13702 0.596607,-0.13702 0.870748,0 l 0.423746,0.21136 c 0.125603,0.0628 0.272823,0.0628 0.398426,0 l 0.422196,-0.21136 c 0.274141,-0.13702 0.598674,-0.13702 0.872815,0 l 0.422197,0.21136 c 0.0073,0.004 0.01483,0.006 0.02222,0.009 l 0.0677,-0.0605 c 0.620591,-0.77083 1.029786,-1.72024 1.138431,-2.75798 v -1.11311 c -0.108645,-1.03773 -0.51784,-1.98715 -1.138431,-2.75797 l -0.796851,-0.80047 c -0.772902,-0.62526 -1.72763,-1.03709 -2.769857,-1.14669 z" />
          <path
             id="path507861"
             style="color:#000000;fill:#c48c76;fill-opacity:1;stroke-width:0.812256;stroke-linecap:round;stroke-linejoin:round;-inkscape-stroke:none;paint-order:markers fill stroke"
             d="m -16.218648,351.95479 c -1.043861,0.10777 -1.997324,0.51957 -2.769857,1.14463 l -0.790649,0.79323 c -0.0387,0.0479 -0.07664,0.0964 -0.113688,0.14573 0.743804,-0.5579 1.6401,-0.92453 2.615861,-1.02526 l 1.11311,0.002 c 1.042228,0.1096 1.996956,0.52144 2.769857,1.1467 l 0.79685,0.80047 c 0.620592,0.77082 1.029787,1.72024 1.138432,2.75797 v 1.11311 c -0.05975,0.57071 -0.211298,1.1142 -0.438216,1.61644 l 0.268201,0.13436 c 0.0073,0.004 0.01483,0.006 0.02222,0.009 l 0.0677,-0.0605 c 0.620591,-0.77083 1.029786,-1.72024 1.138431,-2.75798 v -1.11311 c -0.108645,-1.03773 -0.51784,-1.98715 -1.138431,-2.75797 l -0.796851,-0.80047 c -0.772902,-0.62526 -1.72763,-1.03709 -2.769857,-1.14669 z" />
          <path
             id="path501044"
             style="color:#000000;fill:#9a605c;stroke-width:0.812256;stroke-linecap:round;stroke-linejoin:round;-inkscape-stroke:none;paint-order:markers fill stroke"
             d="m -16.230534,353.22448 c -0.682854,0.0964 -1.311687,0.36451 -1.839681,0.75809 l -0.820621,0.81649 c -0.398455,0.5312 -0.668541,1.16494 -0.765328,1.85363 v 1.13275 c 0.09679,0.68869 0.366873,1.32192 0.765328,1.85312 l 0.78868,0.87844 c 0.08095,0.0604 0.176559,0.0894 0.282055,0.11168 0.08156,0.008 0.164447,-0.007 0.239779,-0.0444 l 0.424263,-0.21136 c 0.274141,-0.13702 0.596607,-0.13702 0.870748,0 l 0.529684,0.26407 c 0.05898,0.0295 0.128089,0.0295 0.187068,0 l 0.529684,-0.26407 c 0.274141,-0.13702 0.596607,-0.13702 0.870748,0 l 0.423746,0.21136 c 0.07533,0.0377 0.158736,0.0519 0.240296,0.0444 0.111032,-0.0218 0.203679,-0.055 0.289573,-0.11957 l 0.781162,-0.86642 c 0.399706,-0.53174 0.670765,-1.167 0.767396,-1.85725 v -1.1312 c -0.09663,-0.69026 -0.36769,-1.32551 -0.767396,-1.85725 l -0.805118,-0.8046 c -0.527456,-0.39652 -1.156128,-0.66665 -1.839681,-0.76584 z"
             sodipodi:nodetypes="ccccccccccccccccccccccccc" />
          <path
             id="path509312"
             style="color:#000000;fill:#754946;fill-opacity:1;stroke-width:0.812256;stroke-linecap:round;stroke-linejoin:round;-inkscape-stroke:none;paint-order:markers fill stroke"
             d="m -16.230534,353.22447 c -0.682854,0.0964 -1.311687,0.36452 -1.839681,0.7581 l -0.820622,0.81648 c -0.03619,0.0483 -0.07086,0.0974 -0.104903,0.14728 0.499453,-0.34182 1.080313,-0.57455 1.706873,-0.663 l 1.152384,0.002 c 0.683553,0.0992 1.312225,0.36932 1.839681,0.76584 l 0.805119,0.8046 c 0.399705,0.53174 0.670765,1.16699 0.767395,1.85725 v 1.1312 c -0.08761,0.62579 -0.319134,1.20607 -0.659391,1.70532 0.0492,-0.0337 0.09763,-0.0681 0.145211,-0.10387 l 0.805118,-0.80253 c 0.399705,-0.53174 0.670764,-1.167 0.767395,-1.85726 v -1.13119 c -0.09663,-0.69026 -0.36769,-1.32551 -0.767395,-1.85725 l -0.805118,-0.8046 c -0.527456,-0.39652 -1.156128,-0.66665 -1.839681,-0.76585 z" />
          <path
             id="path501052"
             style="color:#000000;fill:#66342d;stroke-width:0.812256;stroke-linecap:round;stroke-linejoin:round;-inkscape-stroke:none;paint-order:markers fill stroke"
             d="m -17.926037,360.60594 1.470711,-1.47123 v 1.17254 c 0.05813,0.0165 0.115019,0.0381 0.170015,0.0656 l 0.529684,0.26407 c 0.05898,0.0295 0.128089,0.0295 0.187068,0 l 0.529684,-0.26407 c 0.05484,-0.0274 0.111538,-0.0492 0.169498,-0.0656 v -1.17306 l 1.471229,1.47175 c 0.01788,-0.006 0.03501,-0.0131 0.05219,-0.0217 l 0.422196,-0.21135 c 0.274141,-0.13702 0.598674,-0.13702 0.872815,0 l 0.422197,0.21135 c 0.125601,0.0628 0.272824,0.0628 0.398425,0 l 0.03772,-0.0191 -2.553333,-2.55126 h 3.640605 c 0.2885883,0 0.5291666,-0.24109 0.5291666,-0.52968 v -0.52917 c 0,-0.28859 -0.2405783,-0.52917 -0.5291666,-0.52917 h -3.640605 l 2.574003,-2.57452 c 0.204059,-0.20406 0.204063,-0.5437 0,-0.74776 l -0.375171,-0.37517 c -0.204062,-0.20406 -0.543697,-0.20407 -0.747758,0 l -2.57452,2.57659 v -3.64267 c 0,-0.28859 -0.240577,-0.52762 -0.529166,-0.52762 h -0.529167 c -0.288589,0 -0.527616,0.23903 -0.527616,0.52762 v 3.64009 l -2.574003,-2.57401 c -0.203972,-0.20397 -0.544184,-0.20379 -0.748275,0 l -0.374654,0.37517 c -0.204063,0.20406 -0.204056,0.5437 0,0.74776 l 2.574003,2.57452 h -3.640605 c -0.288589,0 -0.529166,0.24058 -0.529166,0.52917 v 0.52917 c 0,0.28859 0.240577,0.52968 0.529166,0.52968 h 3.638538 l -2.551266,2.55126 0.03772,0.0191 c 0.125601,0.0628 0.270758,0.0628 0.396358,0 l 0.424264,-0.21135 c 0.27414,-0.13702 0.596608,-0.13702 0.870748,0 z"
             sodipodi:nodetypes="cccccccccccccccccssssccssccssssccccccssssccccccc" />
        </g>
        <g
           id="g529999"
           style="stroke-width:0.812256">
          <path
             style="color:#000000;fill:#d0ad9a;stroke-width:0.812256;stroke-linecap:round;stroke-linejoin:round;-inkscape-stroke:none;paint-order:markers fill stroke"
             d="m -15.662109,355.89648 c -0.727493,0 -1.322266,0.59478 -1.322266,1.32227 0,0.72749 0.594773,1.32422 1.322266,1.32422 0.727492,0 1.322265,-0.59673 1.322265,-1.32422 0,-0.72749 -0.594773,-1.32227 -1.322265,-1.32227 z"
             id="path501124" />
          <path
             id="path521025"
             style="color:#000000;fill:#c48c76;fill-opacity:1;stroke-width:0.812256;stroke-linecap:round;stroke-linejoin:round;-inkscape-stroke:none;paint-order:markers fill stroke"
             d="m -15.696199,355.89666 c -0.485105,0.0124 -0.907309,0.28928 -1.127063,0.69092 0.188039,-0.1031 0.403428,-0.16175 0.632003,-0.16175 0.727491,0 1.322399,0.59439 1.322399,1.32188 0,0.22883 -0.05896,0.4451 -0.162264,0.63356 0.410994,-0.22546 0.691431,-0.6634 0.691431,-1.16272 0,-0.72749 -0.594908,-1.32189 -1.3224,-1.32189 -0.01137,0 -0.02281,-2.9e-4 -0.03411,0 z" />
          <path
             style="color:#000000;fill:#754946;fill-opacity:1;stroke-width:0.812256;stroke-linecap:round;stroke-linejoin:round;-inkscape-stroke:none;paint-order:markers fill stroke"
             d="m -15.662109,356.42578 c 0.441509,0 0.792968,0.35146 0.792968,0.79297 0,0.44151 -0.351459,0.79492 -0.792968,0.79492 -0.44151,0 -0.792969,-0.35341 -0.792969,-0.79492 0,-0.44151 0.351459,-0.79297 0.792969,-0.79297 z"
             id="path501154" />
        </g>
      </g>
    </g>
  </g>
</svg>
