<?xml version="1.0" encoding="UTF-8" standalone="no"?>
<svg
   xmlns:dc="http://purl.org/dc/elements/1.1/"
   xmlns:cc="http://creativecommons.org/ns#"
   xmlns:rdf="http://www.w3.org/1999/02/22-rdf-syntax-ns#"
   xmlns:svg="http://www.w3.org/2000/svg"
   xmlns="http://www.w3.org/2000/svg"
   xmlns:sodipodi="http://sodipodi.sourceforge.net/DTD/sodipodi-0.dtd"
   xmlns:inkscape="http://www.inkscape.org/namespaces/inkscape"
   inkscape:export-ydpi="768"
   inkscape:export-xdpi="768"
   inkscape:export-filename="C:\Users\adnan\Downloads\New folder\png\4 - Eco Car.png"
   sodipodi:docname="5 - No Plastic.svg"
   inkscape:version="1.0 (4035a4fb49, 2020-05-01)"
   id="svg979"
   version="1.1"
   viewBox="0 0 16.933334 16.933333"
   height="48pt"
   width="48pt">
  <defs
     id="defs973" />
  <sodipodi:namedview
     inkscape:snap-others="false"
     inkscape:bbox-nodes="true"
     inkscape:snap-bbox="true"
     inkscape:snap-nodes="false"
     inkscape:document-rotation="0"
     inkscape:window-maximized="1"
     inkscape:window-y="-8"
     inkscape:window-x="-8"
     inkscape:window-height="706"
     inkscape:window-width="1366"
     units="pt"
     showgrid="false"
     inkscape:current-layer="layer1"
     inkscape:document-units="pt"
     inkscape:cy="32"
     inkscape:cx="32"
     inkscape:zoom="8.546875"
     inkscape:pageshadow="2"
     inkscape:pageopacity="0.0"
     borderopacity="1.0"
     bordercolor="#666666"
     pagecolor="#ffffff"
     id="base">
    <inkscape:grid
       id="grid1526"
       type="xygrid" />
    <sodipodi:guide
       inkscape:locked="false"
       id="guide1528"
       orientation="56.666615,0"
       position="0.97013909,15.963209" />
    <sodipodi:guide
       inkscape:locked="false"
       id="guide1530"
       orientation="0,56.666667"
       position="0.97013909,0.97016731" />
    <sodipodi:guide
       inkscape:locked="false"
       id="guide1532"
       orientation="-56.666615,0"
       position="15.963195,0.97016731" />
    <sodipodi:guide
       inkscape:locked="false"
       id="guide1534"
       orientation="0,-56.666667"
       position="15.963195,15.963209" />
  </sodipodi:namedview>
  <metadata
     id="metadata976">
    <rdf:RDF>
      <cc:Work
         rdf:about="">
        <dc:format>image/svg+xml</dc:format>
        <dc:type
           rdf:resource="http://purl.org/dc/dcmitype/StillImage" />
        <dc:title></dc:title>
      </cc:Work>
    </rdf:RDF>
  </metadata>
  <g
     transform="translate(0,-280.06668)"
     id="layer1"
     inkscape:groupmode="layer"
     inkscape:label="Layer 1">
    <g
       transform="matrix(1.231777,0,0,1.231777,-53.586507,-42.367186)"
       style="display:inline;stroke-width:0.811835"
       id="g1284">
      <path
         id="path1201"
         d="m 50.376953,262.55078 c -3.357751,0 -6.085937,2.72818 -6.085937,6.08594 0,3.35776 2.728186,6.08594 6.085937,6.08594 3.325266,0 6.016286,-2.68114 6.068359,-5.99414 a 0.2645835,0.2645835 0 0 0 0.01758,-0.0918 0.2645835,0.2645835 0 0 0 -0.01953,-0.0957 c -0.05439,-3.31099 -2.742605,-5.99024 -6.066406,-5.99024 z"
         style="color:#000000;font-style:normal;font-variant:normal;font-weight:normal;font-stretch:normal;font-size:medium;line-height:normal;font-family:sans-serif;font-variant-ligatures:normal;font-variant-position:normal;font-variant-caps:normal;font-variant-numeric:normal;font-variant-alternates:normal;font-variant-east-asian:normal;font-feature-settings:normal;font-variation-settings:normal;text-indent:0;text-align:start;text-decoration:none;text-decoration-line:none;text-decoration-style:solid;text-decoration-color:#000000;letter-spacing:normal;word-spacing:normal;text-transform:none;writing-mode:lr-tb;direction:ltr;text-orientation:mixed;dominant-baseline:auto;baseline-shift:baseline;text-anchor:start;white-space:normal;shape-padding:0;shape-margin:0;inline-size:0;clip-rule:nonzero;display:inline;overflow:visible;visibility:visible;isolation:auto;mix-blend-mode:normal;color-interpolation:sRGB;color-interpolation-filters:linearRGB;solid-color:#000000;solid-opacity:1;vector-effect:none;fill:#dc1c4b;fill-opacity:1;fill-rule:nonzero;stroke:none;stroke-width:0.429596;stroke-linecap:round;stroke-linejoin:round;stroke-miterlimit:4;stroke-dasharray:none;stroke-dashoffset:0;stroke-opacity:1;color-rendering:auto;image-rendering:auto;shape-rendering:auto;text-rendering:auto;enable-background:accumulate;stop-color:#000000" />
      <path
         id="path1119"
         d="m 49.318359,266.78516 a 0.26460996,0.26460996 0 0 0 -0.263671,0.26367 v 0.72461 c 0,0.087 -0.05419,0.16194 -0.136719,0.18945 l -0.769531,0.25586 c -0.405956,0.13531 -0.681676,0.51935 -0.681641,0.94727 5.8e-5,0.69122 1.92e-4,1.44845 0,1.68359 a 0.26460996,0.26460996 0 0 0 0.263672,0.26367 h 5.292969 a 0.26460996,0.26460996 0 0 0 0.263671,-0.26367 c -1.93e-4,-0.23513 -5.8e-5,-0.99243 0,-1.68359 3.7e-5,-0.42792 -0.277624,-0.81197 -0.683593,-0.94727 l -0.767578,-0.25586 c -0.08253,-0.0275 -0.136719,-0.10245 -0.136719,-0.18945 v -0.72461 a 0.26460996,0.26460996 0 0 0 -0.263672,-0.26367 z"
         style="color:#000000;font-style:normal;font-variant:normal;font-weight:normal;font-stretch:normal;font-size:medium;line-height:normal;font-family:sans-serif;font-variant-ligatures:normal;font-variant-position:normal;font-variant-caps:normal;font-variant-numeric:normal;font-variant-alternates:normal;font-variant-east-asian:normal;font-feature-settings:normal;font-variation-settings:normal;text-indent:0;text-align:start;text-decoration:none;text-decoration-line:none;text-decoration-style:solid;text-decoration-color:#000000;letter-spacing:normal;word-spacing:normal;text-transform:none;writing-mode:lr-tb;direction:ltr;text-orientation:mixed;dominant-baseline:auto;baseline-shift:baseline;text-anchor:start;white-space:normal;shape-padding:0;shape-margin:0;inline-size:0;clip-rule:nonzero;display:inline;overflow:visible;visibility:visible;isolation:auto;mix-blend-mode:normal;color-interpolation:sRGB;color-interpolation-filters:linearRGB;solid-color:#000000;solid-opacity:1;vector-effect:none;fill:#f5f6e8;fill-opacity:1;fill-rule:nonzero;stroke:none;stroke-width:0.429596;stroke-linecap:round;stroke-linejoin:round;stroke-miterlimit:4;stroke-dasharray:none;stroke-dashoffset:0;stroke-opacity:1;color-rendering:auto;image-rendering:auto;shape-rendering:auto;text-rendering:auto;enable-background:accumulate;stop-color:#000000" />
      <path
         d="m 49.318436,266.78531 a 0.26460995,0.26460995 0 0 0 -0.263549,0.26355 v 0.7245 c 0,0.0108 -0.003,0.0207 -0.0047,0.031 0.08484,0.0251 0.174758,0.0393 0.268201,0.0393 h 2.117182 c 0.09345,0 0.183362,-0.0141 0.268203,-0.0393 -0.0016,-0.0103 -0.0047,-0.0202 -0.0047,-0.031 v -0.7245 a 0.26460995,0.26460995 0 0 0 -0.263552,-0.26355 z"
         style="color:#000000;font-style:normal;font-variant:normal;font-weight:normal;font-stretch:normal;font-size:medium;line-height:normal;font-family:sans-serif;font-variant-ligatures:normal;font-variant-position:normal;font-variant-caps:normal;font-variant-numeric:normal;font-variant-alternates:normal;font-variant-east-asian:normal;font-feature-settings:normal;font-variation-settings:normal;text-indent:0;text-align:start;text-decoration:none;text-decoration-line:none;text-decoration-style:solid;text-decoration-color:#000000;letter-spacing:normal;word-spacing:normal;text-transform:none;writing-mode:lr-tb;direction:ltr;text-orientation:mixed;dominant-baseline:auto;baseline-shift:baseline;text-anchor:start;white-space:normal;shape-padding:0;shape-margin:0;inline-size:0;clip-rule:nonzero;display:inline;overflow:visible;visibility:visible;isolation:auto;mix-blend-mode:normal;color-interpolation:sRGB;color-interpolation-filters:linearRGB;solid-color:#000000;solid-opacity:1;vector-effect:none;fill:#dedfd2;fill-opacity:1;fill-rule:nonzero;stroke:none;stroke-width:0.429596;stroke-linecap:round;stroke-linejoin:round;stroke-miterlimit:4;stroke-dasharray:none;stroke-dashoffset:0;stroke-opacity:1;color-rendering:auto;image-rendering:auto;shape-rendering:auto;text-rendering:auto;enable-background:accumulate;stop-color:#000000"
         id="path1233" />
      <path
         id="path1103"
         d="m 49.318359,265.19727 c -0.199825,0 -0.385658,0.0573 -0.533203,0.16796 -0.147545,0.11066 -0.259765,0.28955 -0.259765,0.49415 v 0.79296 c 0,0.2046 0.11222,0.38153 0.259765,0.49219 0.147545,0.11066 0.333378,0.16992 0.533203,0.16992 h 2.117188 c 0.199826,0 0.385658,-0.0593 0.533203,-0.16992 0.147545,-0.11066 0.259766,-0.28759 0.259766,-0.49219 v -0.79296 c 0,-0.2046 -0.112221,-0.38349 -0.259766,-0.49415 -0.147545,-0.11065 -0.333377,-0.16796 -0.533203,-0.16796 z"
         style="color:#000000;font-style:normal;font-variant:normal;font-weight:normal;font-stretch:normal;font-size:medium;line-height:normal;font-family:sans-serif;font-variant-ligatures:normal;font-variant-position:normal;font-variant-caps:normal;font-variant-numeric:normal;font-variant-alternates:normal;font-variant-east-asian:normal;font-feature-settings:normal;font-variation-settings:normal;text-indent:0;text-align:start;text-decoration:none;text-decoration-line:none;text-decoration-style:solid;text-decoration-color:#000000;letter-spacing:normal;word-spacing:normal;text-transform:none;writing-mode:lr-tb;direction:ltr;text-orientation:mixed;dominant-baseline:auto;baseline-shift:baseline;text-anchor:start;white-space:normal;shape-padding:0;shape-margin:0;inline-size:0;clip-rule:nonzero;display:inline;overflow:visible;visibility:visible;isolation:auto;mix-blend-mode:normal;color-interpolation:sRGB;color-interpolation-filters:linearRGB;solid-color:#000000;solid-opacity:1;vector-effect:none;fill:#2bb3cd;fill-opacity:1;fill-rule:nonzero;stroke:none;stroke-width:0.429596;stroke-linecap:round;stroke-linejoin:round;stroke-miterlimit:4;stroke-dasharray:none;stroke-dashoffset:0;stroke-opacity:1;color-rendering:auto;image-rendering:auto;shape-rendering:auto;text-rendering:auto;enable-background:accumulate;stop-color:#000000" />
      <path
         id="path1152"
         d="m 48.259766,270.22461 c -0.435159,0 -0.792969,0.35781 -0.792969,0.79297 0,0.43516 0.357816,0.79492 0.792969,0.79492 h 4.234375 c 0.435152,0 0.792968,-0.35976 0.792968,-0.79492 0,-0.43516 -0.35781,-0.79297 -0.792968,-0.79297 z"
         style="color:#000000;font-style:normal;font-variant:normal;font-weight:normal;font-stretch:normal;font-size:medium;line-height:normal;font-family:sans-serif;font-variant-ligatures:normal;font-variant-position:normal;font-variant-caps:normal;font-variant-numeric:normal;font-variant-alternates:normal;font-variant-east-asian:normal;font-feature-settings:normal;font-variation-settings:normal;text-indent:0;text-align:start;text-decoration:none;text-decoration-line:none;text-decoration-style:solid;text-decoration-color:#000000;letter-spacing:normal;word-spacing:normal;text-transform:none;writing-mode:lr-tb;direction:ltr;text-orientation:mixed;dominant-baseline:auto;baseline-shift:baseline;text-anchor:start;white-space:normal;shape-padding:0;shape-margin:0;inline-size:0;clip-rule:nonzero;display:inline;overflow:visible;visibility:visible;isolation:auto;mix-blend-mode:normal;color-interpolation:sRGB;color-interpolation-filters:linearRGB;solid-color:#000000;solid-opacity:1;vector-effect:none;fill:#87d1ee;fill-opacity:1;fill-rule:nonzero;stroke:none;stroke-width:0.429596;stroke-linecap:round;stroke-linejoin:round;stroke-miterlimit:4;stroke-dasharray:none;stroke-dashoffset:0;stroke-opacity:1;color-rendering:auto;image-rendering:auto;shape-rendering:auto;text-rendering:auto;enable-background:accumulate;stop-color:#000000" />
      <path
         id="path1134"
         d="m 53.005859,268.90234 a 0.26460996,0.26460996 0 0 0 -0.05664,0.01 c -0.862025,0.24629 -1.673315,0.12448 -2.533203,-0.008 -0.859889,-0.13229 -1.767785,-0.27506 -2.757813,0.008 a 0.26460996,0.26460996 0 0 0 -0.191406,0.25391 v 1.85156 a 0.26460996,0.26460996 0 0 0 0.263672,0.26562 h 5.292969 a 0.26460996,0.26460996 0 0 0 0.263671,-0.26562 v -1.85156 a 0.26460996,0.26460996 0 0 0 -0.28125,-0.26368 z"
         style="color:#000000;font-style:normal;font-variant:normal;font-weight:normal;font-stretch:normal;font-size:medium;line-height:normal;font-family:sans-serif;font-variant-ligatures:normal;font-variant-position:normal;font-variant-caps:normal;font-variant-numeric:normal;font-variant-alternates:normal;font-variant-east-asian:normal;font-feature-settings:normal;font-variation-settings:normal;text-indent:0;text-align:start;text-decoration:none;text-decoration-line:none;text-decoration-style:solid;text-decoration-color:#000000;letter-spacing:normal;word-spacing:normal;text-transform:none;writing-mode:lr-tb;direction:ltr;text-orientation:mixed;dominant-baseline:auto;baseline-shift:baseline;text-anchor:start;white-space:normal;shape-padding:0;shape-margin:0;inline-size:0;clip-rule:nonzero;display:inline;overflow:visible;visibility:visible;isolation:auto;mix-blend-mode:normal;color-interpolation:sRGB;color-interpolation-filters:linearRGB;solid-color:#000000;solid-opacity:1;vector-effect:none;fill:#87d1ee;fill-opacity:1;fill-rule:nonzero;stroke:none;stroke-width:0.429596;stroke-linecap:round;stroke-linejoin:round;stroke-miterlimit:4;stroke-dasharray:none;stroke-dashoffset:0;stroke-opacity:1;color-rendering:auto;image-rendering:auto;shape-rendering:auto;text-rendering:auto;enable-background:accumulate;stop-color:#000000" />
      <path
         d="m 49.318434,265.19729 c -0.199824,0 -0.385755,0.0573 -0.5333,0.16795 -0.122912,0.0922 -0.217069,0.23302 -0.246499,0.39532 0.0798,-0.0215 0.163502,-0.0341 0.250632,-0.0341 h 2.117182 c 0.199827,0 0.385758,0.0573 0.533303,0.16795 0.147544,0.11066 0.259416,0.28942 0.259416,0.49402 v 0.79324 c 0,0.0339 -0.0071,0.0654 -0.01292,0.0977 0.103187,-0.0283 0.199475,-0.0725 0.28267,-0.13487 0.147545,-0.11066 0.259416,-0.28736 0.259416,-0.49196 v -0.79323 c 0,-0.2046 -0.111871,-0.38337 -0.259416,-0.49403 -0.147545,-0.11065 -0.333475,-0.16795 -0.533302,-0.16795 z"
         style="color:#000000;font-style:normal;font-variant:normal;font-weight:normal;font-stretch:normal;font-size:medium;line-height:normal;font-family:sans-serif;font-variant-ligatures:normal;font-variant-position:normal;font-variant-caps:normal;font-variant-numeric:normal;font-variant-alternates:normal;font-variant-east-asian:normal;font-feature-settings:normal;font-variation-settings:normal;text-indent:0;text-align:start;text-decoration:none;text-decoration-line:none;text-decoration-style:solid;text-decoration-color:#000000;letter-spacing:normal;word-spacing:normal;text-transform:none;writing-mode:lr-tb;direction:ltr;text-orientation:mixed;dominant-baseline:auto;baseline-shift:baseline;text-anchor:start;white-space:normal;shape-padding:0;shape-margin:0;inline-size:0;clip-rule:nonzero;display:inline;overflow:visible;visibility:visible;isolation:auto;mix-blend-mode:normal;color-interpolation:sRGB;color-interpolation-filters:linearRGB;solid-color:#000000;solid-opacity:1;vector-effect:none;fill:#23a1b9;fill-opacity:1;fill-rule:nonzero;stroke:none;stroke-width:0.429596;stroke-linecap:round;stroke-linejoin:round;stroke-miterlimit:4;stroke-dasharray:none;stroke-dashoffset:0;stroke-opacity:1;color-rendering:auto;image-rendering:auto;shape-rendering:auto;text-rendering:auto;enable-background:accumulate;stop-color:#000000"
         id="path1218" />
      <path
         transform="matrix(0.26458333,0,0,0.26458333,0,284.3)"
         d="m 187.39648,-72.199219 v 2.996094 a 1.0000006,1.0000006 0 0 0 1.00391,1.003906 1.0000006,1.0000006 0 0 0 0.99609,-1.003906 v -2.996094 z"
         style="color:#000000;font-style:normal;font-variant:normal;font-weight:normal;font-stretch:normal;font-size:medium;line-height:normal;font-family:sans-serif;font-variant-ligatures:normal;font-variant-position:normal;font-variant-caps:normal;font-variant-numeric:normal;font-variant-alternates:normal;font-variant-east-asian:normal;font-feature-settings:normal;font-variation-settings:normal;text-indent:0;text-align:start;text-decoration:none;text-decoration-line:none;text-decoration-style:solid;text-decoration-color:#000000;letter-spacing:normal;word-spacing:normal;text-transform:none;writing-mode:lr-tb;direction:ltr;text-orientation:mixed;dominant-baseline:auto;baseline-shift:baseline;text-anchor:start;white-space:normal;shape-padding:0;shape-margin:0;inline-size:0;clip-rule:nonzero;display:inline;overflow:visible;visibility:visible;opacity:1;isolation:auto;mix-blend-mode:normal;color-interpolation:sRGB;color-interpolation-filters:linearRGB;solid-color:#000000;solid-opacity:1;vector-effect:none;fill:#2276bc;fill-opacity:1;fill-rule:nonzero;stroke:none;stroke-width:1.62367;stroke-linecap:round;stroke-linejoin:round;stroke-miterlimit:4;stroke-dasharray:none;stroke-dashoffset:0;stroke-opacity:1;color-rendering:auto;image-rendering:auto;shape-rendering:auto;text-rendering:auto;enable-background:accumulate;stop-color:#000000;stop-opacity:1"
         id="path1090" />
      <path
         transform="matrix(0.26458333,0,0,0.26458333,0,284.3)"
         d="m 191.39844,-72.199219 v 2.996094 a 1.0000006,1.0000006 0 0 0 1.0039,1.003906 1.0000006,1.0000006 0 0 0 0.9961,-1.003906 v -2.996094 z"
         style="color:#000000;font-style:normal;font-variant:normal;font-weight:normal;font-stretch:normal;font-size:medium;line-height:normal;font-family:sans-serif;font-variant-ligatures:normal;font-variant-position:normal;font-variant-caps:normal;font-variant-numeric:normal;font-variant-alternates:normal;font-variant-east-asian:normal;font-feature-settings:normal;font-variation-settings:normal;text-indent:0;text-align:start;text-decoration:none;text-decoration-line:none;text-decoration-style:solid;text-decoration-color:#000000;letter-spacing:normal;word-spacing:normal;text-transform:none;writing-mode:lr-tb;direction:ltr;text-orientation:mixed;dominant-baseline:auto;baseline-shift:baseline;text-anchor:start;white-space:normal;shape-padding:0;shape-margin:0;inline-size:0;clip-rule:nonzero;display:inline;overflow:visible;visibility:visible;opacity:1;isolation:auto;mix-blend-mode:normal;color-interpolation:sRGB;color-interpolation-filters:linearRGB;solid-color:#000000;solid-opacity:1;vector-effect:none;fill:#2276bc;fill-opacity:1;fill-rule:nonzero;stroke:none;stroke-width:1.62367;stroke-linecap:round;stroke-linejoin:round;stroke-miterlimit:4;stroke-dasharray:none;stroke-dashoffset:0;stroke-opacity:1;color-rendering:auto;image-rendering:auto;shape-rendering:auto;text-rendering:auto;enable-background:accumulate;stop-color:#000000;stop-opacity:1"
         id="path1094" />
      <path
         id="path1167"
         d="m 48.259766,271.2832 c -0.435159,0 -0.792969,0.35781 -0.792969,0.79297 a 0.26460996,0.26460996 0 0 0 0,0.008 l 0.01367,0.52149 a 0.26460996,0.26460996 0 0 0 0,0.002 v 0.006 a 0.26460996,0.26460996 0 0 0 0.126953,0.2168 l -0.002,0.002 c 0.0032,0.002 0.0066,-1e-5 0.0098,0.002 a 0.26460996,0.26460996 0 0 0 0.119141,0.0352 c 1.869119,1.10118 3.804694,0.96995 5.429687,-0.0488 a 0.26460996,0.26460996 0 0 0 0.125,-0.22461 l -0.002,-0.51953 c 0,-0.43516 -0.35781,-0.79297 -0.792968,-0.79297 z"
         style="color:#000000;font-style:normal;font-variant:normal;font-weight:normal;font-stretch:normal;font-size:medium;line-height:normal;font-family:sans-serif;font-variant-ligatures:normal;font-variant-position:normal;font-variant-caps:normal;font-variant-numeric:normal;font-variant-alternates:normal;font-variant-east-asian:normal;font-feature-settings:normal;font-variation-settings:normal;text-indent:0;text-align:start;text-decoration:none;text-decoration-line:none;text-decoration-style:solid;text-decoration-color:#000000;letter-spacing:normal;word-spacing:normal;text-transform:none;writing-mode:lr-tb;direction:ltr;text-orientation:mixed;dominant-baseline:auto;baseline-shift:baseline;text-anchor:start;white-space:normal;shape-padding:0;shape-margin:0;inline-size:0;clip-rule:nonzero;display:inline;overflow:visible;visibility:visible;isolation:auto;mix-blend-mode:normal;color-interpolation:sRGB;color-interpolation-filters:linearRGB;solid-color:#000000;solid-opacity:1;vector-effect:none;fill:#87d1ee;fill-opacity:1;fill-rule:nonzero;stroke:none;stroke-width:0.429596;stroke-linecap:round;stroke-linejoin:round;stroke-miterlimit:4;stroke-dasharray:none;stroke-dashoffset:0;stroke-opacity:1;color-rendering:auto;image-rendering:auto;shape-rendering:auto;text-rendering:auto;enable-background:accumulate;stop-color:#000000" />
      <path
         transform="matrix(0.26458333,0,0,0.26458333,0,284.3)"
         d="m 191.85742,-49.195312 c 1.21517,2.671344 2.13369,6.145066 3.98633,8.128906 1.76106,-0.524953 3.46844,-1.300636 5.0918,-2.31836 a 1.0001006,1.0001006 0 0 0 0.47265,-0.849609 l -0.008,-1.962891 c 0,-1.644699 -1.35335,-2.998046 -2.99805,-2.998046 z"
         style="fill:#2bb3cd;fill-opacity:1;stroke:none;stroke-width:1.62367;stroke-linecap:round;stroke-linejoin:round;stroke-opacity:1"
         id="path1240" />
      <path
         id="path1195"
         d="m 50.376953,263.60938 c -2.773248,-10e-6 -5.027344,2.25409 -5.027344,5.02734 0,2.77325 2.254096,5.02734 5.027344,5.02734 2.773248,0 5.027344,-2.25409 5.027344,-5.02734 0,-2.77325 -2.254096,-5.02735 -5.027344,-5.02734 z m 0,0.52929 c 2.487265,0 4.498047,2.01078 4.498047,4.49805 0,2.48726 -2.010782,4.49805 -4.498047,4.49805 -2.487264,0 -4.498047,-2.01079 -4.498047,-4.49805 0,-2.48727 2.010783,-4.49805 4.498047,-4.49805 z"
         style="color:#000000;font-style:normal;font-variant:normal;font-weight:normal;font-stretch:normal;font-size:medium;line-height:normal;font-family:sans-serif;font-variant-ligatures:normal;font-variant-position:normal;font-variant-caps:normal;font-variant-numeric:normal;font-variant-alternates:normal;font-variant-east-asian:normal;font-feature-settings:normal;font-variation-settings:normal;text-indent:0;text-align:start;text-decoration:none;text-decoration-line:none;text-decoration-style:solid;text-decoration-color:#000000;letter-spacing:normal;word-spacing:normal;text-transform:none;writing-mode:lr-tb;direction:ltr;text-orientation:mixed;dominant-baseline:auto;baseline-shift:baseline;text-anchor:start;white-space:normal;shape-padding:0;shape-margin:0;inline-size:0;clip-rule:nonzero;display:inline;overflow:visible;visibility:visible;opacity:1;isolation:auto;mix-blend-mode:normal;color-interpolation:sRGB;color-interpolation-filters:linearRGB;solid-color:#000000;solid-opacity:1;vector-effect:none;fill:#f5f6e8;fill-opacity:1;fill-rule:nonzero;stroke:none;stroke-width:0.429596;stroke-linecap:round;stroke-linejoin:round;stroke-miterlimit:4;stroke-dasharray:none;stroke-dashoffset:0;stroke-opacity:1;color-rendering:auto;image-rendering:auto;shape-rendering:auto;text-rendering:auto;enable-background:accumulate;stop-color:#000000;stop-opacity:1" />
      <path
         d="m 50.376772,262.55094 c -1.948246,0 -3.68323,0.91911 -4.797639,2.34611 1.032396,-0.80624 2.329801,-1.28778 3.739306,-1.28778 3.323801,0 6.012423,2.67935 6.066813,5.99034 a 0.26458349,0.26458349 0 0 1 0.01912,0.0956 0.26458349,0.26458349 0 0 1 -0.01757,0.0915 c -0.02164,1.37661 -0.499748,2.64368 -1.288812,3.65508 1.405194,-1.09706 2.317059,-2.79934 2.347145,-4.71341 a 0.26458349,0.26458349 0 0 0 0.01757,-0.0915 0.26458349,0.26458349 0 0 0 -0.01912,-0.0956 c -0.05439,-3.31099 -2.743012,-5.99033 -6.066814,-5.99033 z"
         style="color:#000000;font-style:normal;font-variant:normal;font-weight:normal;font-stretch:normal;font-size:medium;line-height:normal;font-family:sans-serif;font-variant-ligatures:normal;font-variant-position:normal;font-variant-caps:normal;font-variant-numeric:normal;font-variant-alternates:normal;font-variant-east-asian:normal;font-feature-settings:normal;font-variation-settings:normal;text-indent:0;text-align:start;text-decoration:none;text-decoration-line:none;text-decoration-style:solid;text-decoration-color:#000000;letter-spacing:normal;word-spacing:normal;text-transform:none;writing-mode:lr-tb;direction:ltr;text-orientation:mixed;dominant-baseline:auto;baseline-shift:baseline;text-anchor:start;white-space:normal;shape-padding:0;shape-margin:0;inline-size:0;clip-rule:nonzero;display:inline;overflow:visible;visibility:visible;isolation:auto;mix-blend-mode:normal;color-interpolation:sRGB;color-interpolation-filters:linearRGB;solid-color:#000000;solid-opacity:1;vector-effect:none;fill:#b41d48;fill-opacity:1;fill-rule:nonzero;stroke:none;stroke-width:0.429596;stroke-linecap:round;stroke-linejoin:round;stroke-miterlimit:4;stroke-dasharray:none;stroke-dashoffset:0;stroke-opacity:1;color-rendering:auto;image-rendering:auto;shape-rendering:auto;text-rendering:auto;enable-background:accumulate;stop-color:#000000"
         id="path1223" />
      <path
         transform="matrix(0.26458333,0,0,0.26458333,0,284.3)"
         d="m 190.40039,-78.201172 c -0.64783,-2e-6 -1.28668,0.03412 -1.91797,0.09766 11.12162,1.004241 19.91996,9.969499 20.77735,21.138672 0.0865,-0.734515 0.14257,-1.476888 0.14257,-2.234375 0,-10.481575 -8.52038,-19.001991 -19.00195,-19.001953 z"
         style="color:#000000;font-style:normal;font-variant:normal;font-weight:normal;font-stretch:normal;font-size:medium;line-height:normal;font-family:sans-serif;font-variant-ligatures:normal;font-variant-position:normal;font-variant-caps:normal;font-variant-numeric:normal;font-variant-alternates:normal;font-variant-east-asian:normal;font-feature-settings:normal;font-variation-settings:normal;text-indent:0;text-align:start;text-decoration:none;text-decoration-line:none;text-decoration-style:solid;text-decoration-color:#000000;letter-spacing:normal;word-spacing:normal;text-transform:none;writing-mode:lr-tb;direction:ltr;text-orientation:mixed;dominant-baseline:auto;baseline-shift:baseline;text-anchor:start;white-space:normal;shape-padding:0;shape-margin:0;inline-size:0;clip-rule:nonzero;display:inline;overflow:visible;visibility:visible;isolation:auto;mix-blend-mode:normal;color-interpolation:sRGB;color-interpolation-filters:linearRGB;solid-color:#000000;solid-opacity:1;vector-effect:none;fill:#dedfd2;fill-opacity:1;fill-rule:nonzero;stroke:none;stroke-width:1.62367;stroke-linecap:round;stroke-linejoin:round;stroke-miterlimit:4;stroke-dasharray:none;stroke-dashoffset:0;stroke-opacity:1;color-rendering:auto;image-rendering:auto;shape-rendering:auto;text-rendering:auto;enable-background:accumulate;stop-color:#000000"
         id="path1228" />
      <path
         transform="matrix(0.26458333,0,0,0.26458333,0,284.3)"
         d="m 184.21094,-58.769531 c -1.32269,0.03549 -2.68275,0.21014 -4.08594,0.611328 a 1.0001006,1.0001006 0 0 0 -0.57617,0.443359 c 2.79686,3.559156 8.31005,2.885633 11.04687,6.306641 0.47917,0.598964 0.88005,1.376481 1.25977,2.210937 h 8.54883 a 1.0001006,1.0001006 0 0 0 0.99609,-1.003906 v -6.998047 a 1.0001006,1.0001006 0 0 0 -1.0625,-0.996093 1.0001006,1.0001006 0 0 0 -0.21484,0.03711 c -3.25805,0.93086 -6.32425,0.471415 -9.57422,-0.0293 -2.03124,-0.312496 -4.13342,-0.641189 -6.33789,-0.582031 z"
         style="fill:#2bb3cd;fill-opacity:1;stroke:none;stroke-width:1.62367;stroke-linecap:round;stroke-linejoin:round;stroke-opacity:1"
         id="path1238" />
      <path
         transform="matrix(0.26458333,0,0,0.26458333,0,284.3)"
         d="m 188.35352,-53.199219 c 0.8474,0.451766 1.61877,1.011755 2.24218,1.791016 0.84131,1.051639 1.47331,2.601097 2.09766,4.210937 h 5.70898 c 1.64467,0 2.99805,-1.359207 2.99805,-3.003906 0,-1.644699 -1.35335,-2.998047 -2.99805,-2.998047 z"
         style="fill:#2bb3cd;fill-opacity:1;stroke:none;stroke-width:1.62367;stroke-linecap:round;stroke-linejoin:round;stroke-opacity:1"
         id="path1247" />
      <path
         id="path1183"
         d="m 46.736328,265.31836 a 0.2645835,0.2645835 0 0 0 -0.214844,0.0937 0.2645835,0.2645835 0 0 0 0.0332,0.37305 l 7.304687,6.10937 a 0.2645835,0.2645835 0 0 0 0.373047,-0.0332 0.2645835,0.2645835 0 0 0 -0.0332,-0.37305 l -7.304688,-6.10937 a 0.2645835,0.2645835 0 0 0 -0.158203,-0.0606 z"
         style="color:#000000;font-style:normal;font-variant:normal;font-weight:normal;font-stretch:normal;font-size:medium;line-height:normal;font-family:sans-serif;font-variant-ligatures:normal;font-variant-position:normal;font-variant-caps:normal;font-variant-numeric:normal;font-variant-alternates:normal;font-variant-east-asian:normal;font-feature-settings:normal;font-variation-settings:normal;text-indent:0;text-align:start;text-decoration:none;text-decoration-line:none;text-decoration-style:solid;text-decoration-color:#000000;letter-spacing:normal;word-spacing:normal;text-transform:none;writing-mode:lr-tb;direction:ltr;text-orientation:mixed;dominant-baseline:auto;baseline-shift:baseline;text-anchor:start;white-space:normal;shape-padding:0;shape-margin:0;inline-size:0;clip-rule:nonzero;display:inline;overflow:visible;visibility:visible;isolation:auto;mix-blend-mode:normal;color-interpolation:sRGB;color-interpolation-filters:linearRGB;solid-color:#000000;solid-opacity:1;vector-effect:none;fill:#f5f6e8;fill-opacity:1;fill-rule:nonzero;stroke:none;stroke-width:0.429596;stroke-linecap:round;stroke-linejoin:round;stroke-miterlimit:4;stroke-dasharray:none;stroke-dashoffset:0;stroke-opacity:1;color-rendering:auto;image-rendering:auto;shape-rendering:auto;text-rendering:auto;enable-background:accumulate;stop-color:#000000" />
      <path
         transform="matrix(0.26458333,0,0,0.26458333,0,284.3)"
         d="m 187.39648,-72.199219 v 2 h 2 v -2 z"
         style="color:#000000;font-style:normal;font-variant:normal;font-weight:normal;font-stretch:normal;font-size:medium;line-height:normal;font-family:sans-serif;font-variant-ligatures:normal;font-variant-position:normal;font-variant-caps:normal;font-variant-numeric:normal;font-variant-alternates:normal;font-variant-east-asian:normal;font-feature-settings:normal;font-variation-settings:normal;text-indent:0;text-align:start;text-decoration:none;text-decoration-line:none;text-decoration-style:solid;text-decoration-color:#000000;letter-spacing:normal;word-spacing:normal;text-transform:none;writing-mode:lr-tb;direction:ltr;text-orientation:mixed;dominant-baseline:auto;baseline-shift:baseline;text-anchor:start;white-space:normal;shape-padding:0;shape-margin:0;inline-size:0;clip-rule:nonzero;display:inline;overflow:visible;visibility:visible;isolation:auto;mix-blend-mode:normal;color-interpolation:sRGB;color-interpolation-filters:linearRGB;solid-color:#000000;solid-opacity:1;vector-effect:none;fill:#1e67a3;fill-opacity:1;fill-rule:nonzero;stroke:none;stroke-width:1.62367;stroke-linecap:round;stroke-linejoin:round;stroke-miterlimit:4;stroke-dasharray:none;stroke-dashoffset:0;stroke-opacity:1;color-rendering:auto;image-rendering:auto;shape-rendering:auto;text-rendering:auto;enable-background:accumulate;stop-color:#000000"
         id="path1255" />
      <path
         transform="matrix(0.26458333,0,0,0.26458333,0,284.3)"
         d="m 191.39844,-72.199219 v 2 h 1.0039 c 0.34685,0 0.68037,0.05072 0.9961,0.140625 v -2.140625 z"
         style="color:#000000;font-style:normal;font-variant:normal;font-weight:normal;font-stretch:normal;font-size:medium;line-height:normal;font-family:sans-serif;font-variant-ligatures:normal;font-variant-position:normal;font-variant-caps:normal;font-variant-numeric:normal;font-variant-alternates:normal;font-variant-east-asian:normal;font-feature-settings:normal;font-variation-settings:normal;text-indent:0;text-align:start;text-decoration:none;text-decoration-line:none;text-decoration-style:solid;text-decoration-color:#000000;letter-spacing:normal;word-spacing:normal;text-transform:none;writing-mode:lr-tb;direction:ltr;text-orientation:mixed;dominant-baseline:auto;baseline-shift:baseline;text-anchor:start;white-space:normal;shape-padding:0;shape-margin:0;inline-size:0;clip-rule:nonzero;display:inline;overflow:visible;visibility:visible;isolation:auto;mix-blend-mode:normal;color-interpolation:sRGB;color-interpolation-filters:linearRGB;solid-color:#000000;solid-opacity:1;vector-effect:none;fill:#1e67a3;fill-opacity:1;fill-rule:nonzero;stroke:none;stroke-width:1.62367;stroke-linecap:round;stroke-linejoin:round;stroke-miterlimit:4;stroke-dasharray:none;stroke-dashoffset:0;stroke-opacity:1;color-rendering:auto;image-rendering:auto;shape-rendering:auto;text-rendering:auto;enable-background:accumulate;stop-color:#000000"
         id="path1260" />
    </g>
  </g>
</svg>
