<?xml version="1.0" encoding="UTF-8" standalone="no"?>
<!-- Created with Inkscape (http://www.inkscape.org/) -->

<svg
   width="48pt"
   height="48pt"
   viewBox="0 0 16.933334 16.933333"
   version="1.1"
   id="svg979"
   inkscape:version="1.1 (c68e22c387, 2021-05-23)"
   sodipodi:docname="23 - Eco Accumulator.svg"
   inkscape:export-filename="E:\TR Design Studio Creative\Project Design\TR Creative Design\Icon Design\Project Hiring\Icon Icons\006 - Ecology\Send\3 - Flat\23 - Eco Accumulator.png"
   inkscape:export-xdpi="768"
   inkscape:export-ydpi="768"
   xmlns:inkscape="http://www.inkscape.org/namespaces/inkscape"
   xmlns:sodipodi="http://sodipodi.sourceforge.net/DTD/sodipodi-0.dtd"
   xmlns="http://www.w3.org/2000/svg"
   xmlns:svg="http://www.w3.org/2000/svg"
   xmlns:rdf="http://www.w3.org/1999/02/22-rdf-syntax-ns#"
   xmlns:cc="http://creativecommons.org/ns#"
   xmlns:dc="http://purl.org/dc/elements/1.1/">
  <defs
     id="defs973" />
  <sodipodi:namedview
     id="base"
     pagecolor="#ffffff"
     bordercolor="#666666"
     borderopacity="1.0"
     inkscape:pageopacity="0.0"
     inkscape:pageshadow="2"
     inkscape:zoom="7.6875"
     inkscape:cx="32"
     inkscape:cy="32"
     inkscape:document-units="pt"
     inkscape:current-layer="layer1"
     showgrid="false"
     units="pt"
     inkscape:window-width="1366"
     inkscape:window-height="716"
     inkscape:window-x="-8"
     inkscape:window-y="-8"
     inkscape:window-maximized="1"
     inkscape:pagecheckerboard="0"
     inkscape:snap-bbox="true"
     inkscape:snap-nodes="false"
     inkscape:bbox-nodes="true"
     showguides="false">
    <inkscape:grid
       type="xygrid"
       id="grid1526" />
    <sodipodi:guide
       position="0.97013909,15.963209"
       orientation="56.666615,0"
       id="guide1528"
       inkscape:locked="false" />
    <sodipodi:guide
       position="0.97013909,0.97016731"
       orientation="0,56.666667"
       id="guide1530"
       inkscape:locked="false" />
    <sodipodi:guide
       position="15.963195,0.97016731"
       orientation="-56.666615,0"
       id="guide1532"
       inkscape:locked="false" />
    <sodipodi:guide
       position="15.963195,15.963209"
       orientation="0,-56.666667"
       id="guide1534"
       inkscape:locked="false" />
  </sodipodi:namedview>
  <metadata
     id="metadata976">
    <rdf:RDF>
      <cc:Work
         rdf:about="">
        <dc:format>image/svg+xml</dc:format>
        <dc:type
           rdf:resource="http://purl.org/dc/dcmitype/StillImage" />
      </cc:Work>
    </rdf:RDF>
  </metadata>
  <g
     inkscape:label="Layer 1"
     inkscape:groupmode="layer"
     id="layer1"
     transform="translate(0,-280.06668)">
    <g
       id="g413372"
       style="display:inline;stroke-width:0.801282"
       transform="matrix(1.2479994,0,0,1.2479994,-81.875571,-101.67032)">
      <g
         id="g412938"
         style="stroke-width:0.801282">
        <path
           style="color:#000000;fill:#f5f6e8;stroke-width:0.801282;stroke-linecap:round;stroke-linejoin:round;-inkscape-stroke:none;paint-order:markers fill stroke"
           d="m 70.802734,308.82617 c -0.43219,0 -0.807821,0.30863 -0.892578,0.73242 L 69.75,310.36328 a 0.26460996,0.26460996 0 0 0 0.257812,0.31641 h 4.763672 a 0.26460996,0.26460996 0 0 0 0.259766,-0.31641 l -0.162109,-0.80469 c -0.08476,-0.42379 -0.460388,-0.73242 -0.892579,-0.73242 z"
           id="path352218" />
        <path
           style="color:#000000;fill:#3a4d5c;stroke-width:0.801282;stroke-linecap:round;stroke-linejoin:round;-inkscape-stroke:none;paint-order:markers fill stroke"
           d="m 77.417969,307.50391 h -3.441407 c -0.145413,5e-4 -0.26317,0.11826 -0.263671,0.26367 -5.74e-4,0.14617 0.117497,0.26512 0.263671,0.26562 h 3.441407 c 0.297727,0 0.527343,0.23156 0.527343,0.5293 0,0.29774 -0.229612,0.5293 -0.527343,0.5293 -0.146176,-5.8e-4 -0.265121,0.11749 -0.265625,0.26367 -5.77e-4,0.14694 0.118687,0.2662 0.265625,0.26562 0.547624,-0.14674 0.978515,-0.46008 0.978515,-1.05956 0,-0.56854 -0.52821,-1.05762 -0.978515,-1.05762 z"
           id="path34067"
           sodipodi:nodetypes="ccccssccccc" />
        <path
           style="color:#000000;fill:#dc1c4b;stroke-width:0.801282;stroke-linecap:round;stroke-linejoin:round;-inkscape-stroke:none;paint-order:markers fill stroke"
           d="m 76.623047,308.82617 c -0.435237,0 -0.792966,0.35968 -0.792969,0.79492 v 0.79297 a 0.26460996,0.26460996 0 0 0 0.263672,0.26563 h 1.324219 a 0.26460996,0.26460996 0 0 0 0.263672,-0.26563 v -0.79297 c -3e-6,-0.43524 -0.357732,-0.79492 -0.792969,-0.79492 z"
           id="path352232" />
        <path
           style="color:#000000;fill:#3a4d5c;stroke-width:0.801282;stroke-linecap:round;stroke-linejoin:round;-inkscape-stroke:none;paint-order:markers fill stroke"
           d="m 67.363281,309.62109 c 0.146175,-5e-4 0.264246,-0.11945 0.263672,-0.26562 -5.01e-4,-0.14541 -0.118258,-0.26317 -0.263672,-0.26367 -0.297731,0 -0.529297,-0.23156 -0.529297,-0.5293 0,-0.29774 0.231566,-0.5293 0.529297,-0.5293 h 3.439453 c 0.146175,-5e-4 0.264246,-0.11945 0.263672,-0.26562 -5.01e-4,-0.14541 -0.118258,-0.26317 -0.263672,-0.26367 h -3.439453 c -0.589611,0 -0.980469,0.49507 -0.980469,1.05859 0,0.67175 0.588373,1.04728 0.980469,1.05859 z"
           id="rect33227"
           sodipodi:nodetypes="cccsscccccc" />
        <path
           style="color:#000000;fill:#ec7523;fill-opacity:1;stroke-width:0.801282;stroke-linecap:round;stroke-linejoin:round;-inkscape-stroke:none;paint-order:markers fill stroke"
           d="M 72.390625,307.24023 A 0.26460996,0.26460996 0 0 0 72.125,307.50391 v 0.79296 a 0.26460996,0.26460996 0 0 0 0.484375,0.14844 l 0.529297,-0.79492 a 0.26460996,0.26460996 0 0 0 -0.21875,-0.41016 z"
           id="path352254" />
        <path
           style="color:#000000;fill:#febe40;stroke-width:0.801282;stroke-linecap:round;stroke-linejoin:round;-inkscape-stroke:none;paint-order:markers fill stroke"
           d="m 72.466797,306.7207 a 0.26460996,0.26460996 0 0 0 -0.296875,0.10742 l -0.529297,0.79297 a 0.26460996,0.26460996 0 0 0 0.220703,0.41211 h 0.529297 a 0.26460996,0.26460996 0 0 0 0.263672,-0.26562 v -0.79297 a 0.26460996,0.26460996 0 0 0 -0.1875,-0.25391 z"
           id="path352246" />
        <path
           style="color:#000000;fill:#2bb3cd;stroke-width:0.801282;stroke-linecap:round;stroke-linejoin:round;-inkscape-stroke:none;paint-order:markers fill stroke"
           d="m 67.892578,308.82617 c -0.435236,0 -0.794919,0.35968 -0.794922,0.79492 v 0.79297 a 0.26460996,0.26460996 0 0 0 0.265625,0.26563 h 1.322266 a 0.26460996,0.26460996 0 0 0 0.265625,-0.26563 v -0.79297 c -3e-6,-0.43524 -0.359686,-0.79492 -0.794922,-0.79492 z"
           id="path352312" />
        <path
           id="path355519"
           style="color:#000000;fill:#2276bc;fill-opacity:1;stroke-width:0.801282;stroke-linecap:round;stroke-linejoin:round;-inkscape-stroke:none;paint-order:markers fill stroke"
           d="m 67.892495,308.82615 c -0.354944,0 -0.659302,0.23946 -0.759642,0.56379 0.07308,-0.0225 0.15054,-0.0346 0.230476,-0.0346 h 0.263551 c 0.435234,0 0.795295,0.35954 0.795301,0.79478 v 0.52968 h 0.263548 a 0.26460995,0.26460995 0 0 0 0.265618,-0.26561 v -0.79324 c -5e-6,-0.43524 -0.360066,-0.79478 -0.7953,-0.79478 z" />
        <path
           id="path358490"
           style="color:#000000;fill:#b31e48;fill-opacity:1;stroke-width:0.801282;stroke-linecap:round;stroke-linejoin:round;-inkscape-stroke:none;paint-order:markers fill stroke"
           d="m 76.622789,308.82615 c -0.354944,0 -0.659302,0.23946 -0.759642,0.56379 0.07308,-0.0225 0.15054,-0.0346 0.230476,-0.0346 h 0.263551 c 0.435234,0 0.795295,0.35954 0.795301,0.79478 v 0.52968 h 0.263548 a 0.26460995,0.26460995 0 0 0 0.265618,-0.26561 v -0.79324 c -5e-6,-0.43524 -0.360066,-0.79478 -0.7953,-0.79478 z" />
        <path
           id="path360999"
           style="color:#000000;fill:#cccccc;fill-opacity:1;stroke-width:0.801282;stroke-linecap:round;stroke-linejoin:round;-inkscape-stroke:none;paint-order:markers fill stroke"
           d="m 70.802912,308.82615 c -0.381572,0 -0.719482,0.2406 -0.851628,0.5886 0.100825,-0.0385 0.209802,-0.0594 0.322461,-0.0594 h 3.17345 c 0.432191,0 0.808209,0.30846 0.892968,0.73225 l 0.118857,0.59221 h 0.312642 a 0.26460995,0.26460995 0 0 0 0.259416,-0.31626 l -0.161748,-0.80511 c -0.08476,-0.42379 -0.460777,-0.73226 -0.892969,-0.73226 z" />
      </g>
      <g
         id="g413339"
         style="stroke-width:0.801282">
        <path
           style="color:#000000;fill:#aabfd0;fill-opacity:1;stroke-width:0.801282;stroke-linecap:round;stroke-linejoin:round;-inkscape-stroke:none;paint-order:markers fill stroke"
           d="m 67.363281,311.20898 a 0.26460996,0.26460996 0 0 0 -0.265625,0.26368 v 5.82031 a 0.26460996,0.26460996 0 0 0 0.265625,0.26562 h 10.054688 a 0.26460996,0.26460996 0 0 0 0.263672,-0.26562 v -5.82031 a 0.26460996,0.26460996 0 0 0 -0.263672,-0.26368 z"
           id="path352196" />
        <path
           id="path368403"
           style="color:#000000;fill:#7d8e9e;fill-opacity:1;stroke-width:0.801282;stroke-linecap:round;stroke-linejoin:round;-inkscape-stroke:none;paint-order:markers fill stroke"
           d="m 67.363329,311.20895 c -0.14612,-5.6e-4 -0.265032,0.11743 -0.265616,0.26355 v 1.01035 h 6.858585 c 1.797635,0.0613 2.666931,0.72933 2.666931,2.66957 v 2.40601 h 0.794785 c 0.146117,-5.8e-4 0.264102,-0.11949 0.263549,-0.26561 v -5.82032 c -5.81e-4,-0.14531 -0.118236,-0.26297 -0.263549,-0.26355 z"
           sodipodi:nodetypes="ccccccccccc" />
        <path
           style="color:#000000;fill:#626d7a;fill-opacity:1;stroke-width:0.801282;stroke-linecap:round;stroke-linejoin:round;-inkscape-stroke:none;paint-order:markers fill stroke"
           d="m 67.097656,317.0293 c -0.288578,0 -0.529297,0.24072 -0.529297,0.52929 v 0.5293 c 0,0.28858 0.240719,0.5293 0.529297,0.5293 h 10.583985 c 0.288578,0 0.529297,-0.24072 0.529296,-0.5293 v -0.5293 c 0,-0.28857 -0.240718,-0.52929 -0.529296,-0.52929 z"
           id="path352210" />
        <path
           style="color:#000000;fill:#f5f6e8;stroke-width:0.801282;stroke-linecap:round;stroke-linejoin:round;-inkscape-stroke:none;paint-order:markers fill stroke"
           d="m 68.15625,312.26562 a 0.2645835,0.2645835 0 0 0 -0.263672,0.26563 0.2645835,0.2645835 0 0 0 0.263672,0.26367 h 0.529297 a 0.2645835,0.2645835 0 0 0 0.265625,-0.26367 0.2645835,0.2645835 0 0 0 -0.265625,-0.26563 z"
           id="path47096" />
        <path
           style="color:#000000;fill:#f5f6e8;stroke-width:0.801282;stroke-linecap:round;stroke-linejoin:round;-inkscape-stroke:none;paint-order:markers fill stroke"
           d="m 68.421875,312.00195 a 0.2645835,0.2645835 0 0 0 -0.265625,0.26367 v 0.5293 a 0.2645835,0.2645835 0 0 0 0.265625,0.26563 0.2645835,0.2645835 0 0 0 0.263672,-0.26563 v -0.5293 a 0.2645835,0.2645835 0 0 0 -0.263672,-0.26367 z"
           id="path47178" />
        <path
           style="color:#000000;fill:#f5f6e8;stroke-width:0.801282;stroke-linecap:round;stroke-linejoin:round;-inkscape-stroke:none;paint-order:markers fill stroke"
           d="m 76.09375,312.26562 a 0.2645835,0.2645835 0 0 0 -0.263672,0.26563 0.2645835,0.2645835 0 0 0 0.263672,0.26367 h 0.529297 a 0.2645835,0.2645835 0 0 0 0.265625,-0.26367 0.2645835,0.2645835 0 0 0 -0.265625,-0.26563 z"
           id="path47180" />
        <path
           style="color:#000000;fill:#626d7a;fill-opacity:1;stroke-width:0.801282;stroke-linecap:round;stroke-linejoin:round;-inkscape-stroke:none;paint-order:markers fill stroke"
           d="m 67.097656,310.15039 c -0.288578,0 -0.529297,0.24072 -0.529297,0.5293 v 0.52929 c 0,0.28858 0.240719,0.52735 0.529297,0.52735 h 10.583985 c 0.288578,0 0.529297,-0.23877 0.529296,-0.52735 v -0.52929 c 0,-0.28858 -0.240718,-0.5293 -0.529296,-0.5293 z"
           id="path352320" />
        <path
           id="path365983"
           style="color:#000000;fill:#555f6a;fill-opacity:1;stroke-width:0.801282;stroke-linecap:round;stroke-linejoin:round;-inkscape-stroke:none;paint-order:markers fill stroke"
           d="m 67.097713,310.15062 c -0.288578,0 -0.529166,0.24058 -0.529166,0.52916 h 10.583849 c 0.288578,0 0.529167,0.24059 0.529167,0.52917 v 0.52762 c 0.288578,0 0.529166,-0.23904 0.529166,-0.52762 v -0.52917 c 0,-0.28858 -0.240588,-0.52916 -0.529166,-0.52916 z" />
        <g
           id="g413318"
           style="stroke-width:0.801282">
          <path
             style="color:#000000;fill:#66342d;stroke-width:0.801282;stroke-linecap:round;stroke-linejoin:round;-inkscape-stroke:none;paint-order:markers fill stroke"
             d="m 72.390625,313.60937 a 0.2645835,0.2645835 0 0 0 -0.263672,0.26368 l -0.002,3.41992 a 0.2645835,0.2645835 0 0 0 0.265625,0.26562 0.2645835,0.2645835 0 0 0 0.263672,-0.26562 l 0.002,-3.41992 a 0.2645835,0.2645835 0 0 0 -0.265625,-0.26368 z"
             id="path35554" />
          <path
             style="color:#000000;fill:#50b86b;stroke-width:0.801282;stroke-linecap:round;stroke-linejoin:round;-inkscape-stroke:none;paint-order:markers fill stroke"
             d="m 73.735831,312.5332 c 0,0 -0.174453,-0.0164 -0.384766,0.004 -0.210312,0.0203 -0.479087,0.0631 -0.6875,0.27148 -0.208409,0.20841 -0.302603,0.49803 -0.390625,0.75977 -0.08802,0.26174 -0.140625,0.48828 -0.140625,0.48828 a 0.26460945,0.26460945 0 0 0 0.31836,0.31836 c 0,0 0.226542,-0.0526 0.488281,-0.14063 0.261739,-0.088 0.551358,-0.18219 0.759766,-0.39062 0.208409,-0.2084 0.251206,-0.47719 0.271484,-0.6875 0.02028,-0.21031 0.0039,-0.38477 0.0039,-0.38477 a 0.26460945,0.26460945 0 0 0 -0.238281,-0.23828 z"
             id="path352278" />
          <path
             style="color:#000000;fill:#50b86b;stroke-width:0.801282;stroke-linecap:round;stroke-linejoin:round;-inkscape-stroke:none;paint-order:markers fill stroke"
             d="m 71.04742,312.5332 a 0.26460945,0.26460945 0 0 0 -0.238282,0.23828 c 0,0 -0.01637,0.17446 0.0039,0.38477 0.02028,0.21031 0.06307,0.4791 0.271484,0.6875 0.208408,0.20843 0.498027,0.3026 0.759766,0.39062 0.261739,0.088 0.488281,0.14063 0.488281,0.14063 a 0.26460945,0.26460945 0 0 0 0.318359,-0.31836 c 0,0 -0.0526,-0.22654 -0.140625,-0.48828 -0.08802,-0.26174 -0.182215,-0.55136 -0.390625,-0.75977 -0.208412,-0.2084 -0.477187,-0.25121 -0.6875,-0.27148 -0.210312,-0.0203 -0.384765,-0.004 -0.384765,-0.004 z"
             id="path352270" />
          <path
             style="color:#000000;fill:#50b86b;stroke-width:0.801282;stroke-linecap:round;stroke-linejoin:round;-inkscape-stroke:none;paint-order:markers fill stroke"
             d="m 70.496094,314.36523 a 0.26460996,0.26460996 0 0 0 -0.238282,0.23829 c 0,0 -0.02174,0.23716 0.0059,0.52343 0.0276,0.28627 0.09009,0.64282 0.351562,0.9043 0.261476,0.26148 0.668057,0.40455 1.033203,0.52734 0.365147,0.1228 0.683594,0.19922 0.683594,0.19922 a 0.26460996,0.26460996 0 0 0 0.31836,-0.32031 c 0,0 -0.07642,-0.31649 -0.199219,-0.68164 -0.122798,-0.36515 -0.263914,-0.77173 -0.525391,-1.0332 -0.261476,-0.26148 -0.619981,-0.32396 -0.90625,-0.35157 -0.286268,-0.0276 -0.523437,-0.006 -0.523437,-0.006 z"
             id="path352286" />
          <path
             style="color:#000000;fill:#50b86b;stroke-width:0.801282;stroke-linecap:round;stroke-linejoin:round;-inkscape-stroke:none;paint-order:markers fill stroke"
             d="m 74.285156,314.36523 c 0,0 -0.235216,-0.0217 -0.521484,0.006 -0.286269,0.0276 -0.644773,0.0901 -0.90625,0.35157 -0.261477,0.26147 -0.404546,0.66805 -0.527344,1.0332 -0.122798,0.36515 -0.197266,0.68164 -0.197266,0.68164 a 0.26460996,0.26460996 0 0 0 0.31836,0.32031 c 0,0 0.318447,-0.0764 0.683594,-0.19922 0.365146,-0.12279 0.771727,-0.26586 1.033203,-0.52734 0.261477,-0.26148 0.323962,-0.61803 0.351562,-0.9043 0.0276,-0.28627 0.0039,-0.52343 0.0039,-0.52343 a 0.26460996,0.26460996 0 0 0 -0.238281,-0.23829 z"
             id="path352262" />
          <path
             id="path384839"
             style="color:#000000;fill:#388b4e;fill-opacity:1;stroke-width:0.801282;stroke-linecap:round;stroke-linejoin:round;-inkscape-stroke:none;paint-order:markers fill stroke"
             d="m 74.054346,314.35708 c -0.0787,2.3e-4 -0.172696,0.003 -0.273367,0.0124 a 0.26460995,0.26460995 0 0 1 0.213423,0.2341 c 0,0 0.02347,0.23721 -0.0041,0.52348 -0.0276,0.28627 -0.08992,0.64286 -0.351401,0.90434 -0.261474,0.26148 -0.668382,0.40431 -1.033528,0.5271 -0.149865,0.0504 -0.290314,0.0924 -0.405659,0.12505 a 0.26460995,0.26460995 0 0 0 0.251663,0.0744 c 0,0 0.318016,-0.0766 0.683162,-0.19947 0.365147,-0.12279 0.772055,-0.26562 1.033529,-0.5271 0.261477,-0.26148 0.3238,-0.61807 0.351401,-0.90434 0.0276,-0.28627 0.0041,-0.52348 0.0041,-0.52348 a 0.26460995,0.26460995 0 0 0 -0.238228,-0.23823 c 0,0 -0.09219,-0.009 -0.230995,-0.008 z" />
          <path
             id="path392312"
             style="color:#000000;fill:#388b4e;fill-opacity:1;stroke-width:0.801282;stroke-linecap:round;stroke-linejoin:round;-inkscape-stroke:none;paint-order:markers fill stroke"
             d="m 73.533438,312.52697 c -0.05449,8.1e-4 -0.116697,0.003 -0.182419,0.01 -0.0271,0.003 -0.05493,0.006 -0.08371,0.01 a 0.26460944,0.26460944 0 0 1 0.177765,0.22479 c 0,0 0.01615,0.17416 -0.0041,0.38447 -0.02028,0.21031 -0.06289,0.47941 -0.271302,0.68781 -0.208409,0.20843 -0.498422,0.30268 -0.760161,0.39068 -0.07481,0.0252 -0.14573,0.0467 -0.210322,0.0656 a 0.26460944,0.26460944 0 0 0 0.251663,0.0749 c 0,0 0.226087,-0.0525 0.487826,-0.14056 0.261739,-0.088 0.551751,-0.18225 0.760161,-0.39068 0.208407,-0.2084 0.251021,-0.4775 0.271301,-0.68781 0.02028,-0.21031 0.0041,-0.38447 0.0041,-0.38447 a 0.26460944,0.26460944 0 0 0 -0.238228,-0.23823 c 0,0 -0.0827,-0.008 -0.202571,-0.006 z" />
          <path
             id="path400795"
             style="color:#000000;fill:#388b4e;fill-opacity:1;stroke-width:0.801282;stroke-linecap:round;stroke-linejoin:round;-inkscape-stroke:none;paint-order:markers fill stroke"
             d="m 71.217874,312.5267 c -0.102454,-1.8e-4 -0.170532,0.006 -0.170532,0.006 v 5.2e-4 a 0.26460944,0.26460944 0 0 0 -0.238228,0.23823 c 0,0 -0.01151,0.12334 -0.0031,0.28784 0.03113,0.002 0.06365,0.003 0.09715,0.007 0.210312,0.0203 0.478885,0.0634 0.687294,0.27182 0.208413,0.20841 0.302655,0.4979 0.390676,0.75964 0.02372,0.0705 0.04429,0.1378 0.06253,0.19947 0.16723,0.0495 0.28887,0.078 0.28887,0.078 a 0.26460944,0.26460944 0 0 0 0.318328,-0.31833 c 0,0 -0.05254,-0.2266 -0.14056,-0.48834 -0.08802,-0.26174 -0.182264,-0.55175 -0.390676,-0.76016 -0.20841,-0.2084 -0.476983,-0.25103 -0.687295,-0.2713 -0.07887,-0.008 -0.152985,-0.0102 -0.214458,-0.0103 z" />
          <path
             id="path400797"
             style="color:#000000;fill:#388b4e;fill-opacity:1;stroke-width:0.801282;stroke-linecap:round;stroke-linejoin:round;-inkscape-stroke:none;paint-order:markers fill stroke"
             d="m 70.687676,314.35708 c -0.116613,10e-4 -0.19172,0.008 -0.19172,0.008 a 0.26460995,0.26460995 0 0 0 -0.238228,0.23823 c 0,0 -0.01079,0.11576 -0.0078,0.28318 0.07229,0.001 0.153885,0.005 0.240295,0.0134 0.286269,0.0276 0.64493,0.0899 0.906404,0.3514 0.261477,0.26147 0.402752,0.66838 0.52555,1.03353 0.0491,0.146 0.09012,0.28303 0.122473,0.39636 0.171027,0.0487 0.287322,0.0765 0.287322,0.0765 a 0.26460995,0.26460995 0 0 0 0.318325,-0.3204 c 0,0 -0.07615,-0.31646 -0.198953,-0.68161 -0.122799,-0.36515 -0.264073,-0.77206 -0.52555,-1.03353 -0.261475,-0.26148 -0.620136,-0.32379 -0.906404,-0.3514 -0.125241,-0.0121 -0.241065,-0.0148 -0.331761,-0.014 z" />
        </g>
        <path
           id="path368038"
           style="color:#000000;fill:#555f6a;fill-opacity:1;stroke-width:0.801282;stroke-linecap:round;stroke-linejoin:round;-inkscape-stroke:none;paint-order:markers fill stroke"
           d="m 67.097713,317.0293 c -0.288578,0 -0.529166,0.24058 -0.529166,0.52916 h 10.583849 c 0.288578,0 0.529167,0.24059 0.529167,0.52917 v 0.52762 c 0.288578,0 0.529166,-0.23904 0.529166,-0.52762 v -0.52917 c 0,-0.28858 -0.240588,-0.52916 -0.529166,-0.52916 z" />
      </g>
    </g>
  </g>
</svg>
