<?xml version="1.0" encoding="UTF-8" standalone="no"?>
<svg
   inkscape:export-ydpi="768"
   inkscape:export-xdpi="768"
   inkscape:export-filename="C:\Users\RainBoyz\Desktop\EXP\FLAT ICON\SVG\Meadow.png"
   width="48pt"
   height="48pt"
   viewBox="0 0 16.933334 16.933333"
   version="1.1"
   id="svg979"
   inkscape:version="1.1 (c68e22c387, 2021-05-23)"
   sodipodi:docname="15 - Meadow.svg"
   xmlns:inkscape="http://www.inkscape.org/namespaces/inkscape"
   xmlns:sodipodi="http://sodipodi.sourceforge.net/DTD/sodipodi-0.dtd"
   xmlns="http://www.w3.org/2000/svg"
   xmlns:svg="http://www.w3.org/2000/svg"
   xmlns:rdf="http://www.w3.org/1999/02/22-rdf-syntax-ns#"
   xmlns:cc="http://creativecommons.org/ns#"
   xmlns:dc="http://purl.org/dc/elements/1.1/">
  <defs
     id="defs973" />
  <sodipodi:namedview
     id="base"
     pagecolor="#ffffff"
     bordercolor="#666666"
     borderopacity="1.0"
     inkscape:pageopacity="0.0"
     inkscape:pageshadow="2"
     inkscape:zoom="1.4501213"
     inkscape:cx="31.376685"
     inkscape:cy="31.721484"
     inkscape:document-units="pt"
     inkscape:current-layer="layer1"
     showgrid="false"
     units="pt"
     inkscape:window-width="1366"
     inkscape:window-height="716"
     inkscape:window-x="-8"
     inkscape:window-y="-8"
     inkscape:window-maximized="1"
     inkscape:document-rotation="0"
     inkscape:snap-bbox="true"
     inkscape:bbox-nodes="true"
     inkscape:snap-nodes="false"
     inkscape:pagecheckerboard="0">
    <inkscape:grid
       type="xygrid"
       id="grid1526" />
    <sodipodi:guide
       position="0.97013909,15.963209"
       orientation="56.666615,0"
       id="guide1528"
       inkscape:locked="false" />
    <sodipodi:guide
       position="0.97013909,0.97016731"
       orientation="0,56.666667"
       id="guide1530"
       inkscape:locked="false" />
    <sodipodi:guide
       position="15.963195,0.97016731"
       orientation="-56.666615,0"
       id="guide1532"
       inkscape:locked="false" />
    <sodipodi:guide
       position="15.963195,15.963209"
       orientation="0,-56.666667"
       id="guide1534"
       inkscape:locked="false" />
  </sodipodi:namedview>
  <metadata
     id="metadata976">
    <rdf:RDF>
      <cc:Work
         rdf:about="">
        <dc:format>image/svg+xml</dc:format>
        <dc:type
           rdf:resource="http://purl.org/dc/dcmitype/StillImage" />
        <dc:title />
      </cc:Work>
    </rdf:RDF>
  </metadata>
  <g
     inkscape:label="Layer 1"
     inkscape:groupmode="layer"
     id="layer1"
     transform="translate(0,-280.06668)">
    <g
       id="g1257"
       style="display:inline"
       transform="matrix(1.2317605,0,0,1.2317605,-53.585564,-96.593954)">
      <path
         id="path436"
         transform="matrix(0.26458333,0,0,0.26458333,0,284.3)"
         d="m 201.4668,94.755859 v 0.002 c -1.02822,0.05178 -2.03315,0.418162 -2.76172,1.171876 -0.38616,0.399486 -0.66669,0.906637 -0.8418,1.478515 -0.45916,-0.157924 -0.95126,-0.244141 -1.46094,-0.244141 -0.71634,0 -1.52519,0.254039 -2.11132,0.884766 -0.42151,0.453656 -0.69209,1.068697 -0.81446,1.798828 -0.71126,0.149759 -1.30958,0.458727 -1.74609,0.896487 -0.56871,0.57033 -0.82607,1.31509 -0.8418,2.01563 -0.0159,0.70053 0.192,1.37393 0.60547,1.92578 0.41346,0.55185 1.08416,0.98813 1.875,1.01172 a 1.0001006,1.0001006 0 0 0 0.30274,-0.0371 c 6.94665,-1.95081 12.51845,-1.17371 18.85351,-1.97266 a 1.0001006,1.0001006 0 0 0 0.83399,-1.2832 c -0.44418,-1.43894 -0.96515,-2.89047 -2.11915,-3.906256 -1.02479,-0.902063 -2.52364,-1.268204 -4.38281,-0.927735 -1.35007,-1.937753 -3.46369,-2.911137 -5.39062,-2.814453 z"
         style="color:#000000;font-style:normal;font-variant:normal;font-weight:normal;font-stretch:normal;font-size:medium;line-height:normal;font-family:sans-serif;font-variant-ligatures:normal;font-variant-position:normal;font-variant-caps:normal;font-variant-numeric:normal;font-variant-alternates:normal;font-variant-east-asian:normal;font-feature-settings:normal;font-variation-settings:normal;text-indent:0;text-align:start;text-decoration:none;text-decoration-line:none;text-decoration-style:solid;text-decoration-color:#000000;letter-spacing:normal;word-spacing:normal;text-transform:none;writing-mode:lr-tb;direction:ltr;text-orientation:mixed;dominant-baseline:auto;baseline-shift:baseline;text-anchor:start;white-space:normal;shape-padding:0;shape-margin:0;inline-size:0;clip-rule:nonzero;display:inline;overflow:visible;visibility:visible;isolation:auto;mix-blend-mode:normal;color-interpolation:sRGB;color-interpolation-filters:linearRGB;solid-color:#000000;solid-opacity:1;vector-effect:none;fill:#8fc23f;fill-opacity:1;fill-rule:nonzero;stroke:none;stroke-width:2;stroke-linecap:round;stroke-linejoin:round;stroke-miterlimit:4;stroke-dasharray:none;stroke-dashoffset:0;stroke-opacity:1;color-rendering:auto;image-rendering:auto;shape-rendering:auto;text-rendering:auto;enable-background:accumulate;stop-color:#000000" />
      <path
         id="path343"
         d="m 56.179688,311.20898 c -2.477744,0.16667 -4.340518,0.0713 -6.445313,1.07618 a 0.26460996,0.26460996 0 0 0 -0.119141,0.11523 l -0.002,0.002 a 0.26460996,0.26460996 0 0 0 0.226563,0.39063 c 0.05761,0.002 0.172615,0.0265 0.251953,0.0859 0.07934,0.0594 0.141833,0.13769 0.152344,0.32812 a 0.26460996,0.26460996 0 0 0 0.49414,0.11719 c 0.07469,-0.12958 0.232183,-0.17222 0.361328,-0.0977 0.06643,0.0383 0.107672,0.0997 0.123047,0.16406 a 0.26460996,0.26460996 0 0 0 0.521485,-0.0625 c -5.67e-4,-0.15155 0.114189,-0.26562 0.263671,-0.26562 0.149289,0 0.265424,0.11616 0.265626,0.26562 a 0.26460996,0.26460996 0 0 0 0.263671,0.26368 c 0.149894,2e-5 0.265623,0.11644 0.265625,0.26562 1e-6,0.14926 -0.114413,0.26367 -0.263672,0.26367 a 0.26460996,0.26460996 0 0 0 -0.111328,0.50586 c 0.028,0.0128 0.08188,0.0115 0.111328,0.0234 0.420869,0.1711 0.963231,0.27021 1.589844,0.33984 0.670462,0.0745 1.402937,0.12204 2.042969,0.18555 a 0.26460996,0.26460996 0 0 0 0.291016,-0.26367 v -3.43945 a 0.26460996,0.26460996 0 0 0 -0.283203,-0.26368 z"
         style="color:#000000;font-style:normal;font-variant:normal;font-weight:normal;font-stretch:normal;font-size:medium;line-height:normal;font-family:sans-serif;font-variant-ligatures:normal;font-variant-position:normal;font-variant-caps:normal;font-variant-numeric:normal;font-variant-alternates:normal;font-variant-east-asian:normal;font-feature-settings:normal;font-variation-settings:normal;text-indent:0;text-align:start;text-decoration:none;text-decoration-line:none;text-decoration-style:solid;text-decoration-color:#000000;letter-spacing:normal;word-spacing:normal;text-transform:none;writing-mode:lr-tb;direction:ltr;text-orientation:mixed;dominant-baseline:auto;baseline-shift:baseline;text-anchor:start;white-space:normal;shape-padding:0;shape-margin:0;inline-size:0;clip-rule:nonzero;display:inline;overflow:visible;visibility:visible;isolation:auto;mix-blend-mode:normal;color-interpolation:sRGB;color-interpolation-filters:linearRGB;solid-color:#000000;solid-opacity:1;vector-effect:none;fill:#46a05d;fill-opacity:1;fill-rule:nonzero;stroke:none;stroke-width:0.529167;stroke-linecap:round;stroke-linejoin:round;stroke-miterlimit:4;stroke-dasharray:none;stroke-dashoffset:0;stroke-opacity:1;color-rendering:auto;image-rendering:auto;shape-rendering:auto;text-rendering:auto;enable-background:accumulate;stop-color:#000000" />
      <path
         d="m 52.007677,311.89884 c -0.22347,0 -0.369531,0.1632 -0.556554,0.25579 -0.230722,-0.0837 -0.459531,-0.10485 -0.69143,-0.0687 -0.06334,-0.0521 -0.121666,-0.10461 -0.191204,-0.14727 -0.275074,0.0983 -0.552371,0.21226 -0.834057,0.34674 -0.05112,0.0246 -0.09297,0.065 -0.119374,0.11524 l -0.0021,0.002 c -0.0944,0.17409 0.02887,0.38637 0.226859,0.39068 0.05761,0.002 0.172329,0.0269 0.251667,0.0863 0.07934,0.0594 0.141933,0.13771 0.152445,0.32814 0.01435,0.26346 0.363221,0.34594 0.494024,0.11679 0.07469,-0.12958 0.232593,-0.17219 0.361736,-0.0977 0.06643,0.0383 0.107617,0.1 0.122992,0.16433 0.07509,0.30233 0.519901,0.24902 0.521414,-0.0625 -5.66e-4,-0.15156 0.114067,-0.26562 0.263549,-0.26562 0.149291,0 0.265417,0.11615 0.265618,0.26562 5.86e-4,0.14531 0.118239,0.26296 0.263548,0.26354 0.149895,3e-5 0.265616,0.11644 0.265618,0.26562 0,0.14926 -0.114292,0.26355 -0.263549,0.26355 -0.286523,-0.003 -0.372414,0.38835 -0.111106,0.50591 0.329619,0.09 0.676066,0.20101 0.962215,0.25481 0.337887,-0.23568 0.576713,-0.57915 0.57671,-1.02423 -5e-6,-0.53259 -0.332893,-0.94481 -0.765328,-1.18907 -0.245888,-0.43709 -0.661326,-0.76946 -1.193726,-0.76946 z"
         style="color:#000000;font-style:normal;font-variant:normal;font-weight:normal;font-stretch:normal;font-size:medium;line-height:normal;font-family:sans-serif;font-variant-ligatures:normal;font-variant-position:normal;font-variant-caps:normal;font-variant-numeric:normal;font-variant-alternates:normal;font-variant-east-asian:normal;font-feature-settings:normal;font-variation-settings:normal;text-indent:0;text-align:start;text-decoration:none;text-decoration-line:none;text-decoration-style:solid;text-decoration-color:#000000;letter-spacing:normal;word-spacing:normal;text-transform:none;writing-mode:lr-tb;direction:ltr;text-orientation:mixed;dominant-baseline:auto;baseline-shift:baseline;text-anchor:start;white-space:normal;shape-padding:0;shape-margin:0;inline-size:0;clip-rule:nonzero;display:inline;overflow:visible;visibility:visible;isolation:auto;mix-blend-mode:normal;color-interpolation:sRGB;color-interpolation-filters:linearRGB;solid-color:#000000;solid-opacity:1;vector-effect:none;fill:#3f8f54;fill-opacity:1;fill-rule:nonzero;stroke:none;stroke-width:2;stroke-linecap:round;stroke-linejoin:round;stroke-miterlimit:4;stroke-dasharray:none;stroke-dashoffset:0;stroke-opacity:1;color-rendering:auto;image-rendering:auto;shape-rendering:auto;text-rendering:auto;enable-background:accumulate;stop-color:#000000"
         id="path467"
         sodipodi:nodetypes="ccccccccscccccsccscccsccc" />
      <path
         id="path291"
         d="m 44.539062,312.53125 a 0.26460996,0.26460996 0 0 0 -0.248046,0.26367 v 4.49805 c 0,0.72748 0.59478,1.32422 1.322265,1.32422 h 9.525391 c 0.727485,0 1.324219,-0.59674 1.324219,-1.32422 v -2.38086 a 0.26460996,0.26460996 0 0 0 -0.238282,-0.26367 c -2.652784,-0.26528 -3.666341,-0.2594 -5.755859,-1.04297 -2.143816,-0.80393 -3.247834,-0.80837 -5.886719,-1.07227 a 0.26460996,0.26460996 0 0 0 -0.04297,-0.002 z"
         style="color:#000000;font-style:normal;font-variant:normal;font-weight:normal;font-stretch:normal;font-size:medium;line-height:normal;font-family:sans-serif;font-variant-ligatures:normal;font-variant-position:normal;font-variant-caps:normal;font-variant-numeric:normal;font-variant-alternates:normal;font-variant-east-asian:normal;font-feature-settings:normal;font-variation-settings:normal;text-indent:0;text-align:start;text-decoration:none;text-decoration-line:none;text-decoration-style:solid;text-decoration-color:#000000;letter-spacing:normal;word-spacing:normal;text-transform:none;writing-mode:lr-tb;direction:ltr;text-orientation:mixed;dominant-baseline:auto;baseline-shift:baseline;text-anchor:start;white-space:normal;shape-padding:0;shape-margin:0;inline-size:0;clip-rule:nonzero;display:inline;overflow:visible;visibility:visible;isolation:auto;mix-blend-mode:normal;color-interpolation:sRGB;color-interpolation-filters:linearRGB;solid-color:#000000;solid-opacity:1;vector-effect:none;fill:#46a05d;fill-opacity:1;fill-rule:nonzero;stroke:none;stroke-width:0.529167;stroke-linecap:round;stroke-linejoin:round;stroke-miterlimit:4;stroke-dasharray:none;stroke-dashoffset:0;stroke-opacity:1;color-rendering:auto;image-rendering:auto;shape-rendering:auto;text-rendering:auto;enable-background:accumulate;stop-color:#000000" />
      <path
         transform="matrix(0.26458333,0,0,0.26458333,0,284.3)"
         d="m 201.91615,94.734384 c -1.47757,0.07521 -2.4825,0.44159 -3.21107,1.195304 -0.1232,0.127454 -0.23228,0.268036 -0.33399,0.416015 3.48536,1.753963 7.10658,5.448807 10.55079,7.650387 1.1845,-0.0678 2.37732,-0.15395 3.60351,-0.30859 0.61594,-0.0763 1.01438,-0.68935 0.83399,-1.2832 -0.44418,-1.43894 -0.96515,-2.890467 -2.11915,-3.906253 -1.02479,-0.902063 -2.52364,-1.268203 -4.38281,-0.927735 -1.35007,-1.937752 -3.46369,-2.911137 -4.94127,-2.835928 z"
         style="fill:#7faf36;fill-opacity:1;stroke:none;stroke-width:0.999999px;stroke-linecap:butt;stroke-linejoin:miter;stroke-opacity:1"
         id="path1319"
         sodipodi:nodetypes="csccccscc" />
      <path
         transform="matrix(0.26458333,0,0,0.26458333,0,284.3)"
         d="m 212.41211,101.79492 c -8.82512,0.357 -16.79272,0.25237 -24.43945,3.97656 -0.54509,0.36151 -0.48928,0.62287 -0.53516,1.20704 0.4207,0.73227 0.7118,0.68274 1.43555,0.59375 l 0.008,-0.008 c 7.28792,-3.46567 15.36079,-3.24434 24.52148,-3.82422 v -0.94726 c -0.001,-0.54771 -0.44255,-0.99265 -0.99023,-0.99805 z"
         style="color:#000000;font-style:normal;font-variant:normal;font-weight:normal;font-stretch:normal;font-size:medium;line-height:normal;font-family:sans-serif;font-variant-ligatures:normal;font-variant-position:normal;font-variant-caps:normal;font-variant-numeric:normal;font-variant-alternates:normal;font-variant-east-asian:normal;font-feature-settings:normal;font-variation-settings:normal;text-indent:0;text-align:start;text-decoration:none;text-decoration-line:none;text-decoration-style:solid;text-decoration-color:#000000;letter-spacing:normal;word-spacing:normal;text-transform:none;writing-mode:lr-tb;direction:ltr;text-orientation:mixed;dominant-baseline:auto;baseline-shift:baseline;text-anchor:start;white-space:normal;shape-padding:0;shape-margin:0;inline-size:0;clip-rule:nonzero;display:inline;overflow:visible;visibility:visible;opacity:1;isolation:auto;mix-blend-mode:normal;color-interpolation:sRGB;color-interpolation-filters:linearRGB;solid-color:#000000;solid-opacity:1;vector-effect:none;fill:#39804b;fill-opacity:1;fill-rule:nonzero;stroke:none;stroke-width:2;stroke-linecap:round;stroke-linejoin:round;stroke-miterlimit:4;stroke-dasharray:none;stroke-dashoffset:0;stroke-opacity:1;color-rendering:auto;image-rendering:auto;shape-rendering:auto;text-rendering:auto;enable-background:accumulate;stop-color:#000000;stop-opacity:1"
         id="path337"
         sodipodi:nodetypes="ccccccccc" />
      <path
         id="path385"
         d="m 49.318436,311.73657 c -0.294148,0 -0.549937,0.16583 -0.686779,0.40669 -0.268256,-0.0757 -0.568907,-0.009 -0.778248,0.20051 -0.268917,0.26891 -0.310854,0.67569 -0.118856,0.97668 a 0.26460995,0.26460995 0 0 0 0.177768,0.11886 c 0.73747,0.1296 1.446628,0.31589 2.370915,0.66249 0.731071,0.27416 1.341607,0.45327 1.933731,0.58394 a 0.26460995,0.26460995 0 0 0 0.09767,0.002 l 0.263549,-0.0388 -0.03927,0.002 c 0.435245,0 0.793234,-0.358 0.793232,-0.79324 -3e-6,-0.35395 -0.239342,-0.65373 -0.56224,-0.75499 -0.09832,-0.32826 -0.404918,-0.56896 -0.762227,-0.56896 -0.235151,0 -0.445768,0.10717 -0.591696,0.27285 -0.01767,-0.0122 -0.03384,-0.0258 -0.05271,-0.0367 -0.22561,-0.13024 -0.490913,-0.13328 -0.714687,-0.0356 -0.123319,-0.21407 -0.328652,-0.37314 -0.572574,-0.43615 -0.10065,-0.32411 -0.403513,-0.56121 -0.757576,-0.56121 z"
         style="color:#000000;font-style:normal;font-variant:normal;font-weight:normal;font-stretch:normal;font-size:medium;line-height:normal;font-family:sans-serif;font-variant-ligatures:normal;font-variant-position:normal;font-variant-caps:normal;font-variant-numeric:normal;font-variant-alternates:normal;font-variant-east-asian:normal;font-feature-settings:normal;font-variation-settings:normal;text-indent:0;text-align:start;text-decoration:none;text-decoration-line:none;text-decoration-style:solid;text-decoration-color:#000000;letter-spacing:normal;word-spacing:normal;text-transform:none;writing-mode:lr-tb;direction:ltr;text-orientation:mixed;dominant-baseline:auto;baseline-shift:baseline;text-anchor:start;white-space:normal;shape-padding:0;shape-margin:0;inline-size:0;clip-rule:nonzero;display:inline;overflow:visible;visibility:visible;isolation:auto;mix-blend-mode:normal;color-interpolation:sRGB;color-interpolation-filters:linearRGB;solid-color:#000000;solid-opacity:1;vector-effect:none;fill:#8fc23f;fill-opacity:1;fill-rule:nonzero;stroke:none;stroke-width:0.529167;stroke-linecap:round;stroke-linejoin:round;stroke-miterlimit:4;stroke-dasharray:none;stroke-dashoffset:0;stroke-opacity:1;color-rendering:auto;image-rendering:auto;shape-rendering:auto;text-rendering:auto;enable-background:accumulate;stop-color:#000000" />
      <path
         id="path304"
         d="m 46.142578,310.56641 a 0.2645835,0.2645835 0 0 0 -0.263672,0.26367 v 2.11719 a 0.2645835,0.2645835 0 0 0 0.263672,0.26367 0.2645835,0.2645835 0 0 0 0.265625,-0.26367 v -2.11719 a 0.2645835,0.2645835 0 0 0 -0.265625,-0.26367 z"
         style="color:#000000;font-style:normal;font-variant:normal;font-weight:normal;font-stretch:normal;font-size:medium;line-height:normal;font-family:sans-serif;font-variant-ligatures:normal;font-variant-position:normal;font-variant-caps:normal;font-variant-numeric:normal;font-variant-alternates:normal;font-variant-east-asian:normal;font-feature-settings:normal;font-variation-settings:normal;text-indent:0;text-align:start;text-decoration:none;text-decoration-line:none;text-decoration-style:solid;text-decoration-color:#000000;letter-spacing:normal;word-spacing:normal;text-transform:none;writing-mode:lr-tb;direction:ltr;text-orientation:mixed;dominant-baseline:auto;baseline-shift:baseline;text-anchor:start;white-space:normal;shape-padding:0;shape-margin:0;inline-size:0;clip-rule:nonzero;display:inline;overflow:visible;visibility:visible;opacity:1;isolation:auto;mix-blend-mode:normal;color-interpolation:sRGB;color-interpolation-filters:linearRGB;solid-color:#000000;solid-opacity:1;vector-effect:none;fill:#9a605c;fill-opacity:1;fill-rule:nonzero;stroke:none;stroke-width:0.529167;stroke-linecap:round;stroke-linejoin:round;stroke-miterlimit:4;stroke-dasharray:none;stroke-dashoffset:0;stroke-opacity:1;color-rendering:auto;image-rendering:auto;shape-rendering:auto;text-rendering:auto;enable-background:accumulate;stop-color:#000000;stop-opacity:1" />
      <path
         id="path310"
         d="m 46.142578,306.97461 c -0.654429,0 -1.189452,0.53698 -1.189453,1.19141 2e-6,0.12919 0.03908,0.253 0.08008,0.375 -0.408087,0.34883 -0.742098,0.79826 -0.742187,1.34375 0,1.01974 0.831819,1.85156 1.851562,1.85156 1.019744,0 1.853516,-0.83182 1.853516,-1.85156 8.9e-5,-0.54567 -0.333983,-0.99479 -0.742188,-1.34375 0.04127,-0.12226 0.08,-0.24548 0.08008,-0.375 -10e-7,-0.65443 -0.536977,-1.19141 -1.191406,-1.19141 z"
         style="color:#000000;font-style:normal;font-variant:normal;font-weight:normal;font-stretch:normal;font-size:medium;line-height:normal;font-family:sans-serif;font-variant-ligatures:normal;font-variant-position:normal;font-variant-caps:normal;font-variant-numeric:normal;font-variant-alternates:normal;font-variant-east-asian:normal;font-feature-settings:normal;font-variation-settings:normal;text-indent:0;text-align:start;text-decoration:none;text-decoration-line:none;text-decoration-style:solid;text-decoration-color:#000000;letter-spacing:normal;word-spacing:normal;text-transform:none;writing-mode:lr-tb;direction:ltr;text-orientation:mixed;dominant-baseline:auto;baseline-shift:baseline;text-anchor:start;white-space:normal;shape-padding:0;shape-margin:0;inline-size:0;clip-rule:nonzero;display:inline;overflow:visible;visibility:visible;isolation:auto;mix-blend-mode:normal;color-interpolation:sRGB;color-interpolation-filters:linearRGB;solid-color:#000000;solid-opacity:1;vector-effect:none;fill:#46a05d;fill-opacity:1;fill-rule:nonzero;stroke:none;stroke-width:0.529167;stroke-linecap:round;stroke-linejoin:round;stroke-miterlimit:4;stroke-dasharray:none;stroke-dashoffset:0;stroke-opacity:1;color-rendering:auto;image-rendering:auto;shape-rendering:auto;text-rendering:auto;enable-background:accumulate;stop-color:#000000" />
      <path
         id="path325"
         d="m 49.185547,306.71094 c -0.654429,0 -1.189456,0.53502 -1.189453,1.18945 4e-6,0.65442 0.535029,1.19141 1.189453,1.19141 0.654424,0 1.191401,-0.53699 1.191406,-1.19141 2e-6,-0.65443 -0.536977,-1.18945 -1.191406,-1.18945 z"
         style="color:#000000;font-style:normal;font-variant:normal;font-weight:normal;font-stretch:normal;font-size:medium;line-height:normal;font-family:sans-serif;font-variant-ligatures:normal;font-variant-position:normal;font-variant-caps:normal;font-variant-numeric:normal;font-variant-alternates:normal;font-variant-east-asian:normal;font-feature-settings:normal;font-variation-settings:normal;text-indent:0;text-align:start;text-decoration:none;text-decoration-line:none;text-decoration-style:solid;text-decoration-color:#000000;letter-spacing:normal;word-spacing:normal;text-transform:none;writing-mode:lr-tb;direction:ltr;text-orientation:mixed;dominant-baseline:auto;baseline-shift:baseline;text-anchor:start;white-space:normal;shape-padding:0;shape-margin:0;inline-size:0;clip-rule:nonzero;display:inline;overflow:visible;visibility:visible;isolation:auto;mix-blend-mode:normal;color-interpolation:sRGB;color-interpolation-filters:linearRGB;solid-color:#000000;solid-opacity:1;vector-effect:none;fill:#fbbe40;fill-opacity:1;fill-rule:nonzero;stroke:none;stroke-width:0.529167;stroke-linecap:round;stroke-linejoin:round;stroke-miterlimit:4;stroke-dasharray:none;stroke-dashoffset:0;stroke-opacity:1;color-rendering:auto;image-rendering:auto;shape-rendering:auto;text-rendering:auto;enable-background:accumulate;stop-color:#000000" />
      <path
         d="m 44.538884,312.53135 a 0.26460995,0.26460995 0 0 0 -0.248047,0.26355 v 2.49649 c 2.184715,0.37859 4.488209,0.24878 6.573758,1.11776 1.384916,0.57705 1.801746,1.56632 2.481503,2.20813 h 1.792655 c 0.727485,0 1.323949,-0.59698 1.323949,-1.32446 v -2.38074 a 0.26460995,0.26460995 0 0 0 -0.238228,-0.26355 c -2.652784,-0.26528 -3.666202,-0.25926 -5.75572,-1.04283 -2.143815,-0.80393 -3.248093,-0.80839 -5.886979,-1.07229 a 0.26460995,0.26460995 0 0 0 -0.04289,-0.002 z"
         style="fill:#3f8f54;fill-opacity:1;stroke:none;stroke-width:0.264583px;stroke-linecap:butt;stroke-linejoin:miter;stroke-opacity:1"
         id="path479" />
      <path
         transform="matrix(0.26458333,0,0,0.26458333,0,284.3)"
         d="m 190.00781,106.11523 c 1.15178,3.31573 4.08476,6.42111 7.56446,8.74805 a 1.0001006,1.0001006 0 0 0 0.15234,-0.0117 l 0.99609,-0.14648 -0.14843,0.008 c 1.64502,0 2.99805,-1.35304 2.99804,-2.99805 -1e-5,-1.33776 -0.9046,-2.4708 -2.125,-2.85351 -0.3716,-1.24067 -1.5304,-2.15039 -2.88086,-2.15039 -0.88876,0 -1.68479,0.40506 -2.23633,1.03125 -0.0668,-0.0461 -0.12789,-0.0975 -0.19921,-0.13867 -0.8527,-0.49225 -1.85542,-0.50395 -2.70118,-0.13477 -0.3334,-0.57875 -0.82937,-1.04429 -1.41992,-1.35352 z"
         style="fill:#7faf36;fill-opacity:1;stroke:none;stroke-width:0.999999px;stroke-linecap:butt;stroke-linejoin:miter;stroke-opacity:1"
         id="path1324" />
      <path
         transform="matrix(0.26458333,0,0,0.26458333,0,284.3)"
         d="m 168.33594,106.70117 a 1.0001006,1.0001006 0 0 0 -0.9375,0.9961 v 0.82226 c 9.48657,0.93278 14.98019,1.24159 22.64844,4.11719 7.80058,2.92521 14.00951,3.23982 23.35546,4.14844 v -1.08594 a 1.0001006,1.0001006 0 0 0 -0.90039,-0.9961 c -10.02627,-1.00263 -13.85651,-0.97988 -21.7539,-3.9414 -3.9482,-1.48057 -7.36569,-2.29956 -10.98438,-2.86914 -3.14789,-0.4553 -6.55477,-0.71249 -11.26562,-1.1836 a 1.0001006,1.0001006 0 0 0 -0.16211,-0.008 z"
         style="color:#000000;font-style:normal;font-variant:normal;font-weight:normal;font-stretch:normal;font-size:medium;line-height:normal;font-family:sans-serif;font-variant-ligatures:normal;font-variant-position:normal;font-variant-caps:normal;font-variant-numeric:normal;font-variant-alternates:normal;font-variant-east-asian:normal;font-feature-settings:normal;font-variation-settings:normal;text-indent:0;text-align:start;text-decoration:none;text-decoration-line:none;text-decoration-style:solid;text-decoration-color:#000000;letter-spacing:normal;word-spacing:normal;text-transform:none;writing-mode:lr-tb;direction:ltr;text-orientation:mixed;dominant-baseline:auto;baseline-shift:baseline;text-anchor:start;white-space:normal;shape-padding:0;shape-margin:0;inline-size:0;clip-rule:nonzero;display:inline;overflow:visible;visibility:visible;opacity:1;isolation:auto;mix-blend-mode:normal;color-interpolation:sRGB;color-interpolation-filters:linearRGB;solid-color:#000000;solid-opacity:1;vector-effect:none;fill:#39804b;fill-opacity:1;fill-rule:nonzero;stroke:none;stroke-width:2;stroke-linecap:round;stroke-linejoin:round;stroke-miterlimit:4;stroke-dasharray:none;stroke-dashoffset:0;stroke-opacity:1;color-rendering:auto;image-rendering:auto;shape-rendering:auto;text-rendering:auto;enable-background:accumulate;stop-color:#000000;stop-opacity:1"
         id="path285" />
      <path
         d="m 46.142401,306.97458 c -0.462785,0 -0.86143,0.27121 -1.057814,0.65991 0.160128,-0.0808 0.337965,-0.13074 0.528648,-0.13074 0.654431,0 1.191659,0.53723 1.191659,1.19166 -7.9e-5,0.12952 -0.03883,0.25239 -0.0801,0.37465 0.408204,0.34896 0.742162,0.79844 0.742072,1.34411 0,0.37462 -0.112991,0.72295 -0.305925,1.01492 0.501965,-0.33191 0.835091,-0.90005 0.835091,-1.54409 9e-5,-0.54567 -0.333867,-0.99514 -0.742071,-1.3441 0.04127,-0.12226 0.08002,-0.24514 0.0801,-0.37466 0,-0.65443 -0.537229,-1.19166 -1.19166,-1.19166 z"
         style="color:#000000;font-style:normal;font-variant:normal;font-weight:normal;font-stretch:normal;font-size:medium;line-height:normal;font-family:sans-serif;font-variant-ligatures:normal;font-variant-position:normal;font-variant-caps:normal;font-variant-numeric:normal;font-variant-alternates:normal;font-variant-east-asian:normal;font-feature-settings:normal;font-variation-settings:normal;text-indent:0;text-align:start;text-decoration:none;text-decoration-line:none;text-decoration-style:solid;text-decoration-color:#000000;letter-spacing:normal;word-spacing:normal;text-transform:none;writing-mode:lr-tb;direction:ltr;text-orientation:mixed;dominant-baseline:auto;baseline-shift:baseline;text-anchor:start;white-space:normal;shape-padding:0;shape-margin:0;inline-size:0;clip-rule:nonzero;display:inline;overflow:visible;visibility:visible;isolation:auto;mix-blend-mode:normal;color-interpolation:sRGB;color-interpolation-filters:linearRGB;solid-color:#000000;solid-opacity:1;vector-effect:none;fill:#3f8f54;fill-opacity:1;fill-rule:nonzero;stroke:none;stroke-width:0.529167;stroke-linecap:round;stroke-linejoin:round;stroke-miterlimit:4;stroke-dasharray:none;stroke-dashoffset:0;stroke-opacity:1;color-rendering:auto;image-rendering:auto;shape-rendering:auto;text-rendering:auto;enable-background:accumulate;stop-color:#000000"
         id="path1307" />
      <path
         d="m 49.185628,306.71103 c -0.463169,0 -0.862126,0.27075 -1.058333,0.6594 0.160213,-0.0807 0.338344,-0.13023 0.529167,-0.13023 0.654428,0 1.191143,0.53516 1.191141,1.18959 0,0.19118 -0.05007,0.36953 -0.131258,0.5302 0.389033,-0.19684 0.660422,-0.59634 0.660424,-1.05936 3e-6,-0.65443 -0.536712,-1.1896 -1.191141,-1.1896 z"
         style="color:#000000;font-style:normal;font-variant:normal;font-weight:normal;font-stretch:normal;font-size:medium;line-height:normal;font-family:sans-serif;font-variant-ligatures:normal;font-variant-position:normal;font-variant-caps:normal;font-variant-numeric:normal;font-variant-alternates:normal;font-variant-east-asian:normal;font-feature-settings:normal;font-variation-settings:normal;text-indent:0;text-align:start;text-decoration:none;text-decoration-line:none;text-decoration-style:solid;text-decoration-color:#000000;letter-spacing:normal;word-spacing:normal;text-transform:none;writing-mode:lr-tb;direction:ltr;text-orientation:mixed;dominant-baseline:auto;baseline-shift:baseline;text-anchor:start;white-space:normal;shape-padding:0;shape-margin:0;inline-size:0;clip-rule:nonzero;display:inline;overflow:visible;visibility:visible;isolation:auto;mix-blend-mode:normal;color-interpolation:sRGB;color-interpolation-filters:linearRGB;solid-color:#000000;solid-opacity:1;vector-effect:none;fill:#f4a82f;fill-opacity:1;fill-rule:nonzero;stroke:none;stroke-width:0.529167;stroke-linecap:round;stroke-linejoin:round;stroke-miterlimit:4;stroke-dasharray:none;stroke-dashoffset:0;stroke-opacity:1;color-rendering:auto;image-rendering:auto;shape-rendering:auto;text-rendering:auto;enable-background:accumulate;stop-color:#000000"
         id="path1312" />
    </g>
  </g>
</svg>
