<?xml version="1.0" encoding="UTF-8" standalone="no"?>
<svg
   xmlns:dc="http://purl.org/dc/elements/1.1/"
   xmlns:cc="http://creativecommons.org/ns#"
   xmlns:rdf="http://www.w3.org/1999/02/22-rdf-syntax-ns#"
   xmlns:svg="http://www.w3.org/2000/svg"
   xmlns="http://www.w3.org/2000/svg"
   xmlns:sodipodi="http://sodipodi.sourceforge.net/DTD/sodipodi-0.dtd"
   xmlns:inkscape="http://www.inkscape.org/namespaces/inkscape"
   inkscape:export-ydpi="768"
   inkscape:export-xdpi="768"
   inkscape:export-filename="C:\Users\adnan\Downloads\New folder\png\1 - Global Warming.png"
   sodipodi:docname="2 - Trash Bin.svg"
   inkscape:version="1.0 (4035a4fb49, 2020-05-01)"
   id="svg979"
   version="1.1"
   viewBox="0 0 16.933334 16.933333"
   height="48pt"
   width="48pt">
  <defs
     id="defs973" />
  <sodipodi:namedview
     inkscape:snap-others="false"
     inkscape:bbox-nodes="true"
     inkscape:snap-bbox="true"
     inkscape:snap-nodes="false"
     inkscape:document-rotation="0"
     inkscape:window-maximized="1"
     inkscape:window-y="-8"
     inkscape:window-x="-8"
     inkscape:window-height="706"
     inkscape:window-width="1366"
     units="pt"
     showgrid="false"
     inkscape:current-layer="layer1"
     inkscape:document-units="pt"
     inkscape:cy="32"
     inkscape:cx="32"
     inkscape:zoom="8.546875"
     inkscape:pageshadow="2"
     inkscape:pageopacity="0.0"
     borderopacity="1.0"
     bordercolor="#666666"
     pagecolor="#ffffff"
     id="base">
    <inkscape:grid
       id="grid1526"
       type="xygrid" />
    <sodipodi:guide
       inkscape:locked="false"
       id="guide1528"
       orientation="56.666615,0"
       position="0.97013909,15.963209" />
    <sodipodi:guide
       inkscape:locked="false"
       id="guide1530"
       orientation="0,56.666667"
       position="0.97013909,0.97016731" />
    <sodipodi:guide
       inkscape:locked="false"
       id="guide1532"
       orientation="-56.666615,0"
       position="15.963195,0.97016731" />
    <sodipodi:guide
       inkscape:locked="false"
       id="guide1534"
       orientation="0,-56.666667"
       position="15.963195,15.963209" />
  </sodipodi:namedview>
  <metadata
     id="metadata976">
    <rdf:RDF>
      <cc:Work
         rdf:about="">
        <dc:format>image/svg+xml</dc:format>
        <dc:type
           rdf:resource="http://purl.org/dc/dcmitype/StillImage" />
        <dc:title></dc:title>
      </cc:Work>
    </rdf:RDF>
  </metadata>
  <g
     transform="translate(0,-280.06668)"
     id="layer1"
     inkscape:groupmode="layer"
     inkscape:label="Layer 1">
    <g
       transform="matrix(1.2317247,0,0,1.2317247,27.759032,-42.353455)"
       style="display:inline;stroke-width:0.81187"
       id="g1262">
      <path
         id="path1099"
         d="m -18.164062,265.13086 a 0.26460996,0.26460996 0 0 0 -0.265626,0.26562 v 6.07422 2.86914 a 0.26460996,0.26460996 0 0 0 0.265626,0.26368 h 3.851562 a 0.26460996,0.26460996 0 0 0 0.253906,-0.19141 l 0.04883,-0.17383 a 0.26460996,0.26460996 0 0 0 0.002,-0.006 l 1.207031,-4.72851 a 0.26460996,0.26460996 0 0 0 0.0078,-0.0664 v -4.04102 a 0.26460996,0.26460996 0 0 0 -0.265625,-0.26562 z"
         style="color:#000000;font-style:normal;font-variant:normal;font-weight:normal;font-stretch:normal;font-size:medium;line-height:normal;font-family:sans-serif;font-variant-ligatures:normal;font-variant-position:normal;font-variant-caps:normal;font-variant-numeric:normal;font-variant-alternates:normal;font-variant-east-asian:normal;font-feature-settings:normal;font-variation-settings:normal;text-indent:0;text-align:start;text-decoration:none;text-decoration-line:none;text-decoration-style:solid;text-decoration-color:#000000;letter-spacing:normal;word-spacing:normal;text-transform:none;writing-mode:lr-tb;direction:ltr;text-orientation:mixed;dominant-baseline:auto;baseline-shift:baseline;text-anchor:start;white-space:normal;shape-padding:0;shape-margin:0;inline-size:0;clip-rule:nonzero;display:inline;overflow:visible;visibility:visible;isolation:auto;mix-blend-mode:normal;color-interpolation:sRGB;color-interpolation-filters:linearRGB;solid-color:#000000;solid-opacity:1;vector-effect:none;fill:#50b86b;fill-opacity:1;fill-rule:nonzero;stroke:none;stroke-width:0.429615;stroke-linecap:round;stroke-linejoin:round;stroke-miterlimit:4;stroke-dasharray:none;stroke-dashoffset:0;stroke-opacity:1;color-rendering:auto;image-rendering:auto;shape-rendering:auto;text-rendering:auto;enable-background:accumulate;stop-color:#000000" />
      <path
         id="path1060"
         d="m -16.208984,262.55078 c -0.331508,0 -0.622292,0.2288 -0.701172,0.55078 l -0.234375,0.95313 a 0.26460996,0.26460996 0 0 0 0.255859,0.32812 h 2.873047 a 0.26460996,0.26460996 0 0 0 0.257813,-0.32812 l -0.234376,-0.95313 c -0.07888,-0.32198 -0.369664,-0.55078 -0.701171,-0.55078 z"
         style="color:#000000;font-style:normal;font-variant:normal;font-weight:normal;font-stretch:normal;font-size:medium;line-height:normal;font-family:sans-serif;font-variant-ligatures:normal;font-variant-position:normal;font-variant-caps:normal;font-variant-numeric:normal;font-variant-alternates:normal;font-variant-east-asian:normal;font-feature-settings:normal;font-variation-settings:normal;text-indent:0;text-align:start;text-decoration:none;text-decoration-line:none;text-decoration-style:solid;text-decoration-color:#000000;letter-spacing:normal;word-spacing:normal;text-transform:none;writing-mode:lr-tb;direction:ltr;text-orientation:mixed;dominant-baseline:auto;baseline-shift:baseline;text-anchor:start;white-space:normal;shape-padding:0;shape-margin:0;inline-size:0;clip-rule:nonzero;display:inline;overflow:visible;visibility:visible;isolation:auto;mix-blend-mode:normal;color-interpolation:sRGB;color-interpolation-filters:linearRGB;solid-color:#000000;solid-opacity:1;vector-effect:none;fill:#50b86b;fill-opacity:1;fill-rule:nonzero;stroke:none;stroke-width:0.429615;stroke-linecap:round;stroke-linejoin:round;stroke-miterlimit:4;stroke-dasharray:none;stroke-dashoffset:0;stroke-opacity:1;color-rendering:auto;image-rendering:auto;shape-rendering:auto;text-rendering:auto;enable-background:accumulate;stop-color:#000000" />
      <path
         id="path1259"
         d="m -18.162109,271.20117 c -0.936353,0 -1.701166,0.76441 -1.701172,1.70117 -7e-6,0.93678 0.76481,1.70118 1.701172,1.70118 0.936362,0 1.701178,-0.7644 1.701171,-1.70118 -6e-6,-0.93676 -0.764818,-1.70117 -1.701171,-1.70117 z"
         style="color:#000000;font-style:normal;font-variant:normal;font-weight:normal;font-stretch:normal;font-size:medium;line-height:normal;font-family:sans-serif;font-variant-ligatures:normal;font-variant-position:normal;font-variant-caps:normal;font-variant-numeric:normal;font-variant-alternates:normal;font-variant-east-asian:normal;font-feature-settings:normal;font-variation-settings:normal;text-indent:0;text-align:start;text-decoration:none;text-decoration-line:none;text-decoration-style:solid;text-decoration-color:#000000;letter-spacing:normal;word-spacing:normal;text-transform:none;writing-mode:lr-tb;direction:ltr;text-orientation:mixed;dominant-baseline:auto;baseline-shift:baseline;text-anchor:start;white-space:normal;shape-padding:0;shape-margin:0;inline-size:0;clip-rule:nonzero;display:inline;overflow:visible;visibility:visible;isolation:auto;mix-blend-mode:normal;color-interpolation:sRGB;color-interpolation-filters:linearRGB;solid-color:#000000;solid-opacity:1;vector-effect:none;fill:#3a4d5c;fill-opacity:1;fill-rule:nonzero;stroke:none;stroke-width:0.429615;stroke-linecap:round;stroke-linejoin:round;stroke-miterlimit:4;stroke-dasharray:none;stroke-dashoffset:0;stroke-opacity:1;color-rendering:auto;image-rendering:auto;shape-rendering:auto;text-rendering:auto;enable-background:accumulate;stop-color:#000000" />
      <path
         id="path1118"
         d="m -18.164266,265.13063 c -0.146927,-5.6e-4 -0.266177,0.11869 -0.265617,0.26561 v 0.3912 c 3.287728,2.23362 5.048416,5.18144 1.952336,8.27753 -0.06803,0.068 -0.09442,0.30121 -0.104903,0.53846 h 2.270145 c 0.117686,-2.2e-4 0.221084,-0.0781 0.253732,-0.1912 l 0.04858,-0.17415 c 7.14e-4,-0.002 0.0014,-0.004 0.0021,-0.006 l 1.207162,-4.72839 c 0.0054,-0.0218 0.008,-0.0442 0.0078,-0.0667 v -4.04109 c 5.56e-4,-0.14693 -0.118689,-0.26618 -0.265617,-0.26562 z"
         style="color:#000000;font-style:normal;font-variant:normal;font-weight:normal;font-stretch:normal;font-size:medium;line-height:normal;font-family:sans-serif;font-variant-ligatures:normal;font-variant-position:normal;font-variant-caps:normal;font-variant-numeric:normal;font-variant-alternates:normal;font-variant-east-asian:normal;font-feature-settings:normal;font-variation-settings:normal;text-indent:0;text-align:start;text-decoration:none;text-decoration-line:none;text-decoration-style:solid;text-decoration-color:#000000;letter-spacing:normal;word-spacing:normal;text-transform:none;writing-mode:lr-tb;direction:ltr;text-orientation:mixed;dominant-baseline:auto;baseline-shift:baseline;text-anchor:start;white-space:normal;shape-padding:0;shape-margin:0;inline-size:0;clip-rule:nonzero;display:inline;overflow:visible;visibility:visible;isolation:auto;mix-blend-mode:normal;color-interpolation:sRGB;color-interpolation-filters:linearRGB;solid-color:#000000;solid-opacity:1;vector-effect:none;fill:#46a05d;fill-opacity:1;fill-rule:nonzero;stroke:none;stroke-width:0.429615;stroke-linecap:round;stroke-linejoin:round;stroke-miterlimit:4;stroke-dasharray:none;stroke-dashoffset:0;stroke-opacity:1;color-rendering:auto;image-rendering:auto;shape-rendering:auto;text-rendering:auto;enable-background:accumulate;stop-color:#000000" />
      <path
         id="path1245"
         d="m -16.347656,266.4082 c -0.440801,0 -0.80469,0.36389 -0.804688,0.80469 v 1.47656 c -2e-6,0.4408 0.363887,0.80469 0.804688,0.80469 h 1.474609 c 0.4408,0 0.802737,-0.36389 0.802735,-0.80469 v -1.47656 c 2e-6,-0.4408 -0.361935,-0.80469 -0.802735,-0.80469 z"
         style="color:#000000;font-style:normal;font-variant:normal;font-weight:normal;font-stretch:normal;font-size:medium;line-height:normal;font-family:sans-serif;font-variant-ligatures:normal;font-variant-position:normal;font-variant-caps:normal;font-variant-numeric:normal;font-variant-alternates:normal;font-variant-east-asian:normal;font-feature-settings:normal;font-variation-settings:normal;text-indent:0;text-align:start;text-decoration:none;text-decoration-line:none;text-decoration-style:solid;text-decoration-color:#000000;letter-spacing:normal;word-spacing:normal;text-transform:none;writing-mode:lr-tb;direction:ltr;text-orientation:mixed;dominant-baseline:auto;baseline-shift:baseline;text-anchor:start;white-space:normal;shape-padding:0;shape-margin:0;inline-size:0;clip-rule:nonzero;display:inline;overflow:visible;visibility:visible;isolation:auto;mix-blend-mode:normal;color-interpolation:sRGB;color-interpolation-filters:linearRGB;solid-color:#000000;solid-opacity:1;vector-effect:none;fill:#388b4e;fill-opacity:1;fill-rule:nonzero;stroke:none;stroke-width:0.429615;stroke-linecap:round;stroke-linejoin:round;stroke-miterlimit:4;stroke-dasharray:none;stroke-dashoffset:0;stroke-opacity:1;color-rendering:auto;image-rendering:auto;shape-rendering:auto;text-rendering:auto;enable-background:accumulate;stop-color:#000000" />
      <path
         sodipodi:nodetypes="cssccscccscccccssccsscc"
         id="path1273"
         d="m -11.953125,268.77344 c -0.175718,-0.0585 -0.300149,0.0274 -0.373047,0.082 -0.0729,0.0546 -0.12835,0.11334 -0.183594,0.16601 -0.110488,0.10534 -0.145485,0.12187 -0.197265,0.15235 -0.436625,0 -0.717619,0.0329 -0.933594,0.19726 -0.107988,0.0822 -0.184854,0.21433 -0.203125,0.33985 -0.01827,0.12552 0.0071,0.23694 0.04102,0.33984 0.128233,0.38857 0.397825,0.76883 0.486328,1.12305 -0.03896,0.101 -0.127795,0.25546 -0.285156,0.43945 -0.175096,0.20472 -0.399058,0.432 -0.615235,0.66797 -0.216177,0.23597 -0.424378,0.47885 -0.572265,0.73437 -0.147888,0.25553 -0.246725,0.54907 -0.148438,0.84376 0.132823,0.39822 0.536948,0.58695 0.996094,0.71093 0.459146,0.12399 1.016193,0.17138 1.570312,0.14649 0.55412,-0.0249 1.102729,-0.12069 1.550782,-0.3086 0.448052,-0.1879 0.8313664,-0.48977 0.8964839,-0.94531 0.103128,-0.72146 -0.2698969,-1.27305 -0.7011719,-1.66797 -0.40962,-0.37509 -0.865055,-0.65366 -1.132812,-0.90234 0.01059,-0.0276 0.01936,-0.0551 0.04883,-0.10742 0.08251,-0.14656 0.224305,-0.34881 0.339843,-0.57422 0.115538,-0.22541 0.2192,-0.48897 0.148438,-0.7793 -0.07076,-0.29033 -0.330384,-0.52427 -0.732422,-0.6582 z"
         style="color:#000000;font-style:normal;font-variant:normal;font-weight:normal;font-stretch:normal;font-size:medium;line-height:normal;font-family:sans-serif;font-variant-ligatures:normal;font-variant-position:normal;font-variant-caps:normal;font-variant-numeric:normal;font-variant-alternates:normal;font-variant-east-asian:normal;font-feature-settings:normal;font-variation-settings:normal;text-indent:0;text-align:start;text-decoration:none;text-decoration-line:none;text-decoration-style:solid;text-decoration-color:#000000;letter-spacing:normal;word-spacing:normal;text-transform:none;writing-mode:lr-tb;direction:ltr;text-orientation:mixed;dominant-baseline:auto;baseline-shift:baseline;text-anchor:start;white-space:normal;shape-padding:0;shape-margin:0;inline-size:0;clip-rule:nonzero;display:inline;overflow:visible;visibility:visible;isolation:auto;mix-blend-mode:normal;color-interpolation:sRGB;color-interpolation-filters:linearRGB;solid-color:#000000;solid-opacity:1;vector-effect:none;fill:#143441;fill-opacity:1;fill-rule:nonzero;stroke:none;stroke-width:0.429614;stroke-linecap:round;stroke-linejoin:round;stroke-miterlimit:4;stroke-dasharray:none;stroke-dashoffset:0;stroke-opacity:1;color-rendering:auto;image-rendering:auto;shape-rendering:auto;text-rendering:auto;enable-background:accumulate;stop-color:#000000" />
      <path
         d="m -16.208833,262.55094 c -0.331508,0 -0.622369,0.22889 -0.701249,0.55087 l -5.16e-4,0.002 c 0.0558,-0.0139 0.113195,-0.0238 0.172599,-0.0238 h 1.515669 c 0.331508,0 0.621853,0.22889 0.700733,0.55087 l 0.185002,0.75189 h 0.320911 a 0.26460995,0.26460995 0 0 0 0.257865,-0.32815 l -0.234611,-0.95291 c -0.07888,-0.32198 -0.369225,-0.55087 -0.700732,-0.55087 z"
         style="color:#000000;font-style:normal;font-variant:normal;font-weight:normal;font-stretch:normal;font-size:medium;line-height:normal;font-family:sans-serif;font-variant-ligatures:normal;font-variant-position:normal;font-variant-caps:normal;font-variant-numeric:normal;font-variant-alternates:normal;font-variant-east-asian:normal;font-feature-settings:normal;font-variation-settings:normal;text-indent:0;text-align:start;text-decoration:none;text-decoration-line:none;text-decoration-style:solid;text-decoration-color:#000000;letter-spacing:normal;word-spacing:normal;text-transform:none;writing-mode:lr-tb;direction:ltr;text-orientation:mixed;dominant-baseline:auto;baseline-shift:baseline;text-anchor:start;white-space:normal;shape-padding:0;shape-margin:0;inline-size:0;clip-rule:nonzero;display:inline;overflow:visible;visibility:visible;isolation:auto;mix-blend-mode:normal;color-interpolation:sRGB;color-interpolation-filters:linearRGB;solid-color:#000000;solid-opacity:1;vector-effect:none;fill:#46a05d;fill-opacity:1;fill-rule:nonzero;stroke:none;stroke-width:0.429615;stroke-linecap:round;stroke-linejoin:round;stroke-miterlimit:4;stroke-dasharray:none;stroke-dashoffset:0;stroke-opacity:1;color-rendering:auto;image-rendering:auto;shape-rendering:auto;text-rendering:auto;enable-background:accumulate;stop-color:#000000"
         id="path1133" />
      <path
         id="path1074"
         d="m -20.074219,262.86523 c -0.417545,-0.20894 -0.933908,-0.0368 -1.142578,0.38086 l -0.113281,0.22852 c -0.208671,0.41768 -0.03864,0.93363 0.378906,1.14258 l 2.029297,1.01562 a 0.26460996,0.26460996 0 0 0 0.119141,0.0274 h 5.74414 0.523438 c 0.383699,0 0.699218,-0.31748 0.699218,-0.70118 v -0.40625 c 0,-0.3837 -0.315519,-0.69921 -0.699218,-0.69921 h -5.566406 l -1.220704,-0.61133 z"
         style="color:#000000;font-style:normal;font-variant:normal;font-weight:normal;font-stretch:normal;font-size:medium;line-height:normal;font-family:sans-serif;font-variant-ligatures:normal;font-variant-position:normal;font-variant-caps:normal;font-variant-numeric:normal;font-variant-alternates:normal;font-variant-east-asian:normal;font-feature-settings:normal;font-variation-settings:normal;text-indent:0;text-align:start;text-decoration:none;text-decoration-line:none;text-decoration-style:solid;text-decoration-color:#000000;letter-spacing:normal;word-spacing:normal;text-transform:none;writing-mode:lr-tb;direction:ltr;text-orientation:mixed;dominant-baseline:auto;baseline-shift:baseline;text-anchor:start;white-space:normal;shape-padding:0;shape-margin:0;inline-size:0;clip-rule:nonzero;display:inline;overflow:visible;visibility:visible;isolation:auto;mix-blend-mode:normal;color-interpolation:sRGB;color-interpolation-filters:linearRGB;solid-color:#000000;solid-opacity:1;vector-effect:none;fill:#388b4e;fill-opacity:1;fill-rule:nonzero;stroke:none;stroke-width:0.429615;stroke-linecap:round;stroke-linejoin:round;stroke-miterlimit:4;stroke-dasharray:none;stroke-dashoffset:0;stroke-opacity:1;color-rendering:auto;image-rendering:auto;shape-rendering:auto;text-rendering:auto;enable-background:accumulate;stop-color:#000000" />
      <path
         d="m -20.399794,262.7778 c -0.331161,-0.0202 -0.660502,0.15494 -0.817005,0.46819 l -0.113171,0.22841 c -0.104255,0.20868 -0.113919,0.44186 -0.04547,0.64905 0.01298,-0.0403 0.02602,-0.0809 0.04547,-0.11989 l 0.113171,-0.22841 c 0.20867,-0.41766 0.725021,-0.58979 1.142566,-0.38085 l 0.751893,0.37724 1.220597,0.61133 h 5.566589 c 0.36272,0 0.661064,0.28271 0.692981,0.63769 0.0019,-0.0206 0.0062,-0.0404 0.0062,-0.0615 v -0.40617 c 0,-0.3837 -0.315483,-0.69919 -0.699182,-0.69919 h -5.566589 l -1.220598,-0.61133 -0.751892,-0.37724 c -0.104386,-0.0522 -0.215175,-0.0806 -0.325561,-0.0873 z"
         style="color:#000000;font-style:normal;font-variant:normal;font-weight:normal;font-stretch:normal;font-size:medium;line-height:normal;font-family:sans-serif;font-variant-ligatures:normal;font-variant-position:normal;font-variant-caps:normal;font-variant-numeric:normal;font-variant-alternates:normal;font-variant-east-asian:normal;font-feature-settings:normal;font-variation-settings:normal;text-indent:0;text-align:start;text-decoration:none;text-decoration-line:none;text-decoration-style:solid;text-decoration-color:#000000;letter-spacing:normal;word-spacing:normal;text-transform:none;writing-mode:lr-tb;direction:ltr;text-orientation:mixed;dominant-baseline:auto;baseline-shift:baseline;text-anchor:start;white-space:normal;shape-padding:0;shape-margin:0;inline-size:0;clip-rule:nonzero;display:inline;overflow:visible;visibility:visible;isolation:auto;mix-blend-mode:normal;color-interpolation:sRGB;color-interpolation-filters:linearRGB;solid-color:#000000;solid-opacity:1;vector-effect:none;fill:#29673a;fill-opacity:1;fill-rule:nonzero;stroke:none;stroke-width:0.429615;stroke-linecap:round;stroke-linejoin:round;stroke-miterlimit:4;stroke-dasharray:none;stroke-dashoffset:0;stroke-opacity:1;color-rendering:auto;image-rendering:auto;shape-rendering:auto;text-rendering:auto;enable-background:accumulate;stop-color:#000000"
         id="path1138" />
      <path
         d="m -16.347839,266.40807 c -0.309938,0 -0.578486,0.18179 -0.712618,0.44183 0.92338,0.81825 1.62126,1.7057 1.960604,2.64429 h 0.226859 c 0.440801,0 0.802538,-0.36381 0.802535,-0.80461 v -1.47691 c 3e-6,-0.4408 -0.361734,-0.8046 -0.802535,-0.8046 z"
         style="color:#000000;font-style:normal;font-variant:normal;font-weight:normal;font-stretch:normal;font-size:medium;line-height:normal;font-family:sans-serif;font-variant-ligatures:normal;font-variant-position:normal;font-variant-caps:normal;font-variant-numeric:normal;font-variant-alternates:normal;font-variant-east-asian:normal;font-feature-settings:normal;font-variation-settings:normal;text-indent:0;text-align:start;text-decoration:none;text-decoration-line:none;text-decoration-style:solid;text-decoration-color:#000000;letter-spacing:normal;word-spacing:normal;text-transform:none;writing-mode:lr-tb;direction:ltr;text-orientation:mixed;dominant-baseline:auto;baseline-shift:baseline;text-anchor:start;white-space:normal;shape-padding:0;shape-margin:0;inline-size:0;clip-rule:nonzero;display:inline;overflow:visible;visibility:visible;isolation:auto;mix-blend-mode:normal;color-interpolation:sRGB;color-interpolation-filters:linearRGB;solid-color:#000000;solid-opacity:1;vector-effect:none;fill:#29673a;fill-opacity:1;fill-rule:nonzero;stroke:none;stroke-width:0.429615;stroke-linecap:round;stroke-linejoin:round;stroke-miterlimit:4;stroke-dasharray:none;stroke-dashoffset:0;stroke-opacity:1;color-rendering:auto;image-rendering:auto;shape-rendering:auto;text-rendering:auto;enable-background:accumulate;stop-color:#000000"
         id="path1146" />
      <path
         d="m -12.075232,268.75366 c -0.112544,0.002 -0.196474,0.0608 -0.251148,0.1018 -0.0729,0.0546 -0.128207,0.11322 -0.183451,0.16589 -0.110488,0.10534 -0.145624,0.12196 -0.197404,0.15244 -0.436625,0 -0.717301,0.0331 -0.933276,0.19741 -0.107988,0.0822 -0.184818,0.21399 -0.203089,0.33951 -0.01827,0.12552 0.0069,0.23713 0.04082,0.34003 0.128233,0.38857 0.397772,0.76871 0.486275,1.12293 -0.01664,0.0431 -0.04742,0.10044 -0.08372,0.16123 1.082174,0.5861 0.642866,2.5364 1.105876,3.3755 0.527627,-0.0301 1.046626,-0.12314 1.473812,-0.3023 0.448052,-0.1879 0.8314685,-0.48962 0.8965862,-0.94516 0.1031279,-0.72146 -0.2699742,-1.2732 -0.7012492,-1.66812 -0.40962,-0.37509 -0.864991,-0.65359 -1.132748,-0.90227 0.01059,-0.0276 0.01962,-0.0552 0.04909,-0.10749 0.08251,-0.14656 0.223976,-0.34871 0.339514,-0.57412 0.115538,-0.22541 0.21959,-0.48895 0.148828,-0.77928 -0.07076,-0.29033 -0.330734,-0.52443 -0.732772,-0.65836 -0.04393,-0.0146 -0.08444,-0.0203 -0.121956,-0.0196 z"
         style="fill:#0f2437;fill-opacity:1;stroke:none;stroke-width:0.429615;stroke-linecap:round;stroke-linejoin:round"
         id="path1151" />
      <path
         id="path1287"
         d="m -11.953125,270.82031 c -0.422908,0.009 -0.610577,0.007 -1.097656,0.0117 a 0.26458299,0.26458299 0 0 0 -0.261719,0.26758 0.26458299,0.26458299 0 0 0 0.267578,0.26172 c 0.484215,-0.005 0.675604,-0.003 1.103516,-0.0117 a 0.26458299,0.26458299 0 0 0 0.257812,-0.27149 0.26458299,0.26458299 0 0 0 -0.269531,-0.25781 z"
         style="color:#000000;font-style:normal;font-variant:normal;font-weight:normal;font-stretch:normal;font-size:medium;line-height:normal;font-family:sans-serif;font-variant-ligatures:normal;font-variant-position:normal;font-variant-caps:normal;font-variant-numeric:normal;font-variant-alternates:normal;font-variant-east-asian:normal;font-feature-settings:normal;font-variation-settings:normal;text-indent:0;text-align:start;text-decoration:none;text-decoration-line:none;text-decoration-style:solid;text-decoration-color:#000000;letter-spacing:normal;word-spacing:normal;text-transform:none;writing-mode:lr-tb;direction:ltr;text-orientation:mixed;dominant-baseline:auto;baseline-shift:baseline;text-anchor:start;white-space:normal;shape-padding:0;shape-margin:0;inline-size:0;clip-rule:nonzero;display:inline;overflow:visible;visibility:visible;isolation:auto;mix-blend-mode:normal;color-interpolation:sRGB;color-interpolation-filters:linearRGB;solid-color:#000000;solid-opacity:1;vector-effect:none;fill:#05151a;fill-opacity:1;fill-rule:nonzero;stroke:none;stroke-width:0.429614;stroke-linecap:round;stroke-linejoin:round;stroke-miterlimit:4;stroke-dasharray:none;stroke-dashoffset:0;stroke-opacity:1;color-rendering:auto;image-rendering:auto;shape-rendering:auto;text-rendering:auto;enable-background:accumulate;stop-color:#000000" />
      <path
         d="m -18.162197,271.20106 c -0.603346,0 -1.133907,0.31842 -1.436088,0.79478 0.263078,-0.16701 0.573614,-0.26562 0.906922,-0.26562 0.936353,0 1.701182,0.76443 1.701188,1.70119 2e-6,0.3336 -0.09843,0.6443 -0.265617,0.90744 0.476378,-0.30209 0.794788,-0.83298 0.794783,-1.4366 -5e-6,-0.93676 -0.764835,-1.70119 -1.701188,-1.70119 z"
         style="color:#000000;font-style:normal;font-variant:normal;font-weight:normal;font-stretch:normal;font-size:medium;line-height:normal;font-family:sans-serif;font-variant-ligatures:normal;font-variant-position:normal;font-variant-caps:normal;font-variant-numeric:normal;font-variant-alternates:normal;font-variant-east-asian:normal;font-feature-settings:normal;font-variation-settings:normal;text-indent:0;text-align:start;text-decoration:none;text-decoration-line:none;text-decoration-style:solid;text-decoration-color:#000000;letter-spacing:normal;word-spacing:normal;text-transform:none;writing-mode:lr-tb;direction:ltr;text-orientation:mixed;dominant-baseline:auto;baseline-shift:baseline;text-anchor:start;white-space:normal;shape-padding:0;shape-margin:0;inline-size:0;clip-rule:nonzero;display:inline;overflow:visible;visibility:visible;isolation:auto;mix-blend-mode:normal;color-interpolation:sRGB;color-interpolation-filters:linearRGB;solid-color:#000000;solid-opacity:1;vector-effect:none;fill:#143441;fill-opacity:1;fill-rule:nonzero;stroke:none;stroke-width:0.429615;stroke-linecap:round;stroke-linejoin:round;stroke-miterlimit:4;stroke-dasharray:none;stroke-dashoffset:0;stroke-opacity:1;color-rendering:auto;image-rendering:auto;shape-rendering:auto;text-rendering:auto;enable-background:accumulate;stop-color:#000000"
         id="path1156" />
    </g>
  </g>
</svg>
