<?xml version="1.0" encoding="UTF-8" standalone="no"?>
<svg
   xmlns:dc="http://purl.org/dc/elements/1.1/"
   xmlns:cc="http://creativecommons.org/ns#"
   xmlns:rdf="http://www.w3.org/1999/02/22-rdf-syntax-ns#"
   xmlns:svg="http://www.w3.org/2000/svg"
   xmlns="http://www.w3.org/2000/svg"
   xmlns:sodipodi="http://sodipodi.sourceforge.net/DTD/sodipodi-0.dtd"
   xmlns:inkscape="http://www.inkscape.org/namespaces/inkscape"
   sodipodi:docname="1 - Global Warming.svg"
   inkscape:version="1.0 (4035a4fb49, 2020-05-01)"
   id="svg979"
   version="1.1"
   viewBox="0 0 16.933334 16.933333"
   height="48pt"
   width="48pt">
  <defs
     id="defs973" />
  <sodipodi:namedview
     inkscape:snap-others="false"
     inkscape:bbox-nodes="true"
     inkscape:snap-bbox="true"
     inkscape:snap-nodes="false"
     inkscape:document-rotation="0"
     inkscape:window-maximized="1"
     inkscape:window-y="-8"
     inkscape:window-x="-8"
     inkscape:window-height="706"
     inkscape:window-width="1366"
     units="pt"
     showgrid="false"
     inkscape:current-layer="layer1"
     inkscape:document-units="pt"
     inkscape:cy="32"
     inkscape:cx="32"
     inkscape:zoom="8.546875"
     inkscape:pageshadow="2"
     inkscape:pageopacity="0.0"
     borderopacity="1.0"
     bordercolor="#666666"
     pagecolor="#ffffff"
     id="base">
    <inkscape:grid
       id="grid1526"
       type="xygrid" />
    <sodipodi:guide
       inkscape:locked="false"
       id="guide1528"
       orientation="56.666615,0"
       position="0.97013909,15.963209" />
    <sodipodi:guide
       inkscape:locked="false"
       id="guide1530"
       orientation="0,56.666667"
       position="0.97013909,0.97016731" />
    <sodipodi:guide
       inkscape:locked="false"
       id="guide1532"
       orientation="-56.666615,0"
       position="15.963195,0.97016731" />
    <sodipodi:guide
       inkscape:locked="false"
       id="guide1534"
       orientation="0,-56.666667"
       position="15.963195,15.963209" />
  </sodipodi:namedview>
  <metadata
     id="metadata976">
    <rdf:RDF>
      <cc:Work
         rdf:about="">
        <dc:format>image/svg+xml</dc:format>
        <dc:type
           rdf:resource="http://purl.org/dc/dcmitype/StillImage" />
        <dc:title></dc:title>
      </cc:Work>
    </rdf:RDF>
  </metadata>
  <g
     transform="translate(0,-280.06668)"
     id="layer1"
     inkscape:groupmode="layer"
     inkscape:label="Layer 1">
    <g
       transform="matrix(1.2325731,0,0,1.2325731,54.904853,-42.579256)"
       style="display:inline;stroke-width:0.811311"
       id="g1220">
      <path
         id="path1155"
         d="m -37.099609,263.69922 c -0.684746,0 -1.341773,0.12451 -1.947266,0.35351 a 0.26460996,0.26460996 0 0 0 -0.01953,0.01 l -0.09961,0.0469 a 0.26460996,0.26460996 0 0 0 -0.148437,0.21289 c -0.169525,1.72468 -1.20686,2.76076 -2.962891,3.40429 a 0.26460996,0.26460996 0 0 0 -0.166015,0.18946 l -0.07031,0.30078 a 0.26460996,0.26460996 0 0 0 -0.002,0.0117 c -0.0579,0.31634 -0.08789,0.63818 -0.08789,0.9746 0,3.03699 2.466934,5.50391 5.503907,5.50391 3.036973,0 5.505859,-2.46692 5.505859,-5.50391 0,-3.03697 -2.468886,-5.5039 -5.505859,-5.5039 z"
         style="color:#000000;font-style:normal;font-variant:normal;font-weight:normal;font-stretch:normal;font-size:medium;line-height:normal;font-family:sans-serif;font-variant-ligatures:normal;font-variant-position:normal;font-variant-caps:normal;font-variant-numeric:normal;font-variant-alternates:normal;font-variant-east-asian:normal;font-feature-settings:normal;font-variation-settings:normal;text-indent:0;text-align:start;text-decoration:none;text-decoration-line:none;text-decoration-style:solid;text-decoration-color:#000000;letter-spacing:normal;word-spacing:normal;text-transform:none;writing-mode:lr-tb;direction:ltr;text-orientation:mixed;dominant-baseline:auto;baseline-shift:baseline;text-anchor:start;white-space:normal;shape-padding:0;shape-margin:0;inline-size:0;clip-rule:nonzero;display:inline;overflow:visible;visibility:visible;isolation:auto;mix-blend-mode:normal;color-interpolation:sRGB;color-interpolation-filters:linearRGB;solid-color:#000000;solid-opacity:1;vector-effect:none;fill:#87d1ee;fill-opacity:1;fill-rule:nonzero;stroke:none;stroke-width:0.429319;stroke-linecap:round;stroke-linejoin:round;stroke-miterlimit:4;stroke-dasharray:none;stroke-dashoffset:0;stroke-opacity:1;color-rendering:auto;image-rendering:auto;shape-rendering:auto;text-rendering:auto;enable-background:accumulate;stop-color:#000000" />
      <path
         id="path1098"
         d="m -42.134766,270.39062 a 0.26460996,0.26460996 0 0 0 -0.253906,0.3418 c 0.384422,1.27005 1.094201,2.27778 2.31836,3.10547 a 0.26460996,0.26460996 0 0 0 0.402343,-0.14062 c 0,0 0.05235,-0.17245 0.150391,-0.38477 0.09804,-0.21232 0.246475,-0.45638 0.382812,-0.57227 0.183542,-0.15601 0.275462,-0.21093 0.375,-0.29492 0.09954,-0.084 0.185546,-0.19922 0.269532,-0.36719 0.07108,-0.14216 0.08366,-0.28101 0.0918,-0.43164 0.0081,-0.15062 0.0023,-0.30849 -0.0078,-0.45507 -0.02022,-0.29318 -0.06055,-0.54493 -0.06055,-0.54493 a 0.26460996,0.26460996 0 0 0 -0.251953,-0.22265 c -1.190873,-0.0417 -1.980828,-0.0332 -3.416016,-0.0332 z"
         style="color:#000000;font-style:normal;font-variant:normal;font-weight:normal;font-stretch:normal;font-size:medium;line-height:normal;font-family:sans-serif;font-variant-ligatures:normal;font-variant-position:normal;font-variant-caps:normal;font-variant-numeric:normal;font-variant-alternates:normal;font-variant-east-asian:normal;font-feature-settings:normal;font-variation-settings:normal;text-indent:0;text-align:start;text-decoration:none;text-decoration-line:none;text-decoration-style:solid;text-decoration-color:#000000;letter-spacing:normal;word-spacing:normal;text-transform:none;writing-mode:lr-tb;direction:ltr;text-orientation:mixed;dominant-baseline:auto;baseline-shift:baseline;text-anchor:start;white-space:normal;shape-padding:0;shape-margin:0;inline-size:0;clip-rule:nonzero;display:inline;overflow:visible;visibility:visible;isolation:auto;mix-blend-mode:normal;color-interpolation:sRGB;color-interpolation-filters:linearRGB;solid-color:#000000;solid-opacity:1;vector-effect:none;fill:#50b86b;fill-opacity:1;fill-rule:nonzero;stroke:none;stroke-width:0.429319;stroke-linecap:round;stroke-linejoin:round;stroke-miterlimit:4;stroke-dasharray:none;stroke-dashoffset:0;stroke-opacity:1;paint-order:markers fill stroke;color-rendering:auto;image-rendering:auto;shape-rendering:auto;text-rendering:auto;enable-background:accumulate;stop-color:#000000" />
      <path
         sodipodi:nodetypes="ccccccccscscc"
         d="m -37.099538,263.69919 c -0.684747,0 -1.341676,0.12447 -1.947167,0.35347 -0.0067,0.003 -0.01323,0.006 -0.01963,0.01 l -0.09974,0.047 c -0.08323,0.0402 -0.139449,0.12091 -0.14831,0.21291 -0.02008,0.20421 -0.05299,0.39803 -0.09715,0.58343 0.403482,-0.0939 0.822222,-0.14832 1.25367,-0.14832 v 5.3e-4 c 3.036972,0 5.505606,2.46657 5.505606,5.50354 0,1.24834 -0.421693,2.39676 -1.123961,3.32073 1.323269,-1.00575 2.182294,-2.59134 2.182294,-4.37906 0,-3.03697 -2.468634,-5.50354 -5.505606,-5.50354 z"
         style="color:#000000;font-style:normal;font-variant:normal;font-weight:normal;font-stretch:normal;font-size:medium;line-height:normal;font-family:sans-serif;font-variant-ligatures:normal;font-variant-position:normal;font-variant-caps:normal;font-variant-numeric:normal;font-variant-alternates:normal;font-variant-east-asian:normal;font-feature-settings:normal;font-variation-settings:normal;text-indent:0;text-align:start;text-decoration:none;text-decoration-line:none;text-decoration-style:solid;text-decoration-color:#000000;letter-spacing:normal;word-spacing:normal;text-transform:none;writing-mode:lr-tb;direction:ltr;text-orientation:mixed;dominant-baseline:auto;baseline-shift:baseline;text-anchor:start;white-space:normal;shape-padding:0;shape-margin:0;inline-size:0;clip-rule:nonzero;display:inline;overflow:visible;visibility:visible;isolation:auto;mix-blend-mode:normal;color-interpolation:sRGB;color-interpolation-filters:linearRGB;solid-color:#000000;solid-opacity:1;vector-effect:none;fill:#2bb3cd;fill-opacity:1;fill-rule:nonzero;stroke:none;stroke-width:0.429319;stroke-linecap:round;stroke-linejoin:round;stroke-miterlimit:4;stroke-dasharray:none;stroke-dashoffset:0;stroke-opacity:1;color-rendering:auto;image-rendering:auto;shape-rendering:auto;text-rendering:auto;enable-background:accumulate;stop-color:#000000"
         id="path1170" />
      <path
         id="path1112"
         d="m -35.4375,270.29102 c -0.319633,-0.0194 -0.606076,0.0489 -0.833984,0.15234 -0.455818,0.20693 -0.716797,0.54492 -0.716797,0.54492 a 0.26460996,0.26460996 0 0 0 -0.01367,0.0176 c -0.17477,0.26793 -0.233969,0.59523 -0.103516,0.87305 0.130453,0.27781 0.392442,0.48194 0.757813,0.67968 l -0.02539,-0.0156 c 0.120736,0.0845 0.174246,0.20334 0.113281,0.49609 -0.06097,0.29276 -0.269327,0.71992 -0.666015,1.22852 a 0.26460996,0.26460996 0 0 0 0.220703,0.42578 c 1.25633,-0.061 2.347862,-0.60493 3.3125,-1.41992 a 0.26460996,0.26460996 0 0 0 0.03125,-0.0312 c 0.215749,-0.25556 0.276274,-0.61051 0.253906,-0.97266 -0.02237,-0.36215 -0.140907,-0.7438 -0.43164,-1.00586 a 0.26460996,0.26460996 0 0 0 -0.02539,-0.0215 l -0.830078,-0.57813 a 0.26460996,0.26460996 0 0 0 -0.0039,-0.002 c -0.366047,-0.24403 -0.719429,-0.35166 -1.039062,-0.37109 z"
         style="color:#000000;font-style:normal;font-variant:normal;font-weight:normal;font-stretch:normal;font-size:medium;line-height:normal;font-family:sans-serif;font-variant-ligatures:normal;font-variant-position:normal;font-variant-caps:normal;font-variant-numeric:normal;font-variant-alternates:normal;font-variant-east-asian:normal;font-feature-settings:normal;font-variation-settings:normal;text-indent:0;text-align:start;text-decoration:none;text-decoration-line:none;text-decoration-style:solid;text-decoration-color:#000000;letter-spacing:normal;word-spacing:normal;text-transform:none;writing-mode:lr-tb;direction:ltr;text-orientation:mixed;dominant-baseline:auto;baseline-shift:baseline;text-anchor:start;white-space:normal;shape-padding:0;shape-margin:0;inline-size:0;clip-rule:nonzero;display:inline;overflow:visible;visibility:visible;isolation:auto;mix-blend-mode:normal;color-interpolation:sRGB;color-interpolation-filters:linearRGB;solid-color:#000000;solid-opacity:1;vector-effect:none;fill:#50b86b;fill-opacity:1;fill-rule:nonzero;stroke:none;stroke-width:0.429319;stroke-linecap:round;stroke-linejoin:round;stroke-miterlimit:4;stroke-dasharray:none;stroke-dashoffset:0;stroke-opacity:1;paint-order:markers fill stroke;color-rendering:auto;image-rendering:auto;shape-rendering:auto;text-rendering:auto;enable-background:accumulate;stop-color:#000000" />
      <path
         id="path1126"
         d="m -37.416016,263.70312 c -0.632455,0.0356 -1.231627,0.17836 -1.742187,0.40235 a 0.26460996,0.26460996 0 0 0 -0.15625,0.20898 l -0.445313,3.44141 a 0.26460996,0.26460996 0 0 0 0.03125,0.16211 c 0.417787,0.75337 0.715833,1.29456 1.070313,1.69336 0.35448,0.3988 0.781953,0.63841 1.349609,0.74023 a 0.26460996,0.26460996 0 0 0 0.285156,-0.375 c 0,0 -0.09187,-0.19361 -0.11914,-0.42773 -0.02727,-0.23412 -0.0019,-0.45212 0.21289,-0.61328 0.02663,-0.015 0.342507,-0.19156 0.710938,-0.42774 0.191801,-0.12295 0.39136,-0.25794 0.560547,-0.38867 0.169187,-0.13073 0.306553,-0.23539 0.400391,-0.4043 0.143427,-0.25817 0.213209,-0.6403 0.236328,-1.08984 0.02312,-0.44954 -0.01362,-0.94531 -0.210938,-1.35156 -0.281445,-0.57945 -0.08008,-0.96289 -0.08008,-0.96289 a 0.26460996,0.26460996 0 0 0 -0.158203,-0.36719 c -0.646639,-0.20454 -1.312857,-0.27581 -1.945313,-0.24024 z"
         style="color:#000000;font-style:normal;font-variant:normal;font-weight:normal;font-stretch:normal;font-size:medium;line-height:normal;font-family:sans-serif;font-variant-ligatures:normal;font-variant-position:normal;font-variant-caps:normal;font-variant-numeric:normal;font-variant-alternates:normal;font-variant-east-asian:normal;font-feature-settings:normal;font-variation-settings:normal;text-indent:0;text-align:start;text-decoration:none;text-decoration-line:none;text-decoration-style:solid;text-decoration-color:#000000;letter-spacing:normal;word-spacing:normal;text-transform:none;writing-mode:lr-tb;direction:ltr;text-orientation:mixed;dominant-baseline:auto;baseline-shift:baseline;text-anchor:start;white-space:normal;shape-padding:0;shape-margin:0;inline-size:0;clip-rule:nonzero;display:inline;overflow:visible;visibility:visible;isolation:auto;mix-blend-mode:normal;color-interpolation:sRGB;color-interpolation-filters:linearRGB;solid-color:#000000;solid-opacity:1;vector-effect:none;fill:#50b86b;fill-opacity:1;fill-rule:nonzero;stroke:none;stroke-width:0.429319;stroke-linecap:round;stroke-linejoin:round;stroke-miterlimit:4;stroke-dasharray:none;stroke-dashoffset:0;stroke-opacity:1;paint-order:markers fill stroke;color-rendering:auto;image-rendering:auto;shape-rendering:auto;text-rendering:auto;enable-background:accumulate;stop-color:#000000" />
      <path
         sodipodi:nodetypes="ccccccccccsccccccc"
         d="m -37.101094,263.69919 c -0.668184,0.0244 -1.190176,0.10415 -1.760613,0.2935 -0.09889,0.0352 -0.198128,0.0703 -0.291455,0.1111 l -0.01292,0.006 c -0.08323,0.0402 -0.139449,0.12091 -0.14831,0.21291 -0.01114,0.10776 -0.02646,0.20382 -0.03976,0.29874 l -0.03617,0.2806 c 0.397015,-0.0909 0.808503,-0.14417 1.232482,-0.14417 v 5.1e-4 c 1.133734,0 2.187948,0.34444 3.064412,0.93328 -0.03361,-0.14504 -0.07539,-0.28708 -0.139009,-0.41806 -0.281446,-0.57945 -0.0801,-0.96273 -0.0801,-0.96273 0.06388,-0.13281 0.0069,-0.29221 -0.126608,-0.3545 -0.05154,-0.0163 -0.103884,-0.0312 -0.156062,-0.046 -0.488929,-0.12945 -1.041588,-0.20675 -1.5043,-0.2103 v -5.2e-4 h -0.0016 z"
         style="color:#000000;font-style:normal;font-variant:normal;font-weight:normal;font-stretch:normal;font-size:medium;line-height:normal;font-family:sans-serif;font-variant-ligatures:normal;font-variant-position:normal;font-variant-caps:normal;font-variant-numeric:normal;font-variant-alternates:normal;font-variant-east-asian:normal;font-feature-settings:normal;font-variation-settings:normal;text-indent:0;text-align:start;text-decoration:none;text-decoration-line:none;text-decoration-style:solid;text-decoration-color:#000000;letter-spacing:normal;word-spacing:normal;text-transform:none;writing-mode:lr-tb;direction:ltr;text-orientation:mixed;dominant-baseline:auto;baseline-shift:baseline;text-anchor:start;white-space:normal;shape-padding:0;shape-margin:0;inline-size:0;clip-rule:nonzero;display:inline;overflow:visible;visibility:visible;isolation:auto;mix-blend-mode:normal;color-interpolation:sRGB;color-interpolation-filters:linearRGB;solid-color:#000000;solid-opacity:1;vector-effect:none;fill:#46a05d;fill-opacity:1;fill-rule:nonzero;stroke:none;stroke-width:0.429319;stroke-linecap:round;stroke-linejoin:round;stroke-miterlimit:4;stroke-dasharray:none;stroke-dashoffset:0;stroke-opacity:1;color-rendering:auto;image-rendering:auto;shape-rendering:auto;text-rendering:auto;enable-background:accumulate;stop-color:#000000"
         id="path1180" />
      <path
         id="path1141"
         d="m -41.232422,262.56641 a 0.26460996,0.26460996 0 0 0 -0.130859,0.0547 c -0.24033,0.18537 -0.423062,0.48085 -0.535157,0.81446 -0.112094,0.3336 -0.152453,0.71907 0.03906,1.05078 0.08661,0.15001 0.0537,0.19022 -0.02344,0.27539 -0.07552,0.0834 -0.23761,0.14556 -0.291016,0.15039 -0.04441,-10e-4 -0.06755,-0.009 -0.09766,-0.0352 -0.03263,-0.0279 -0.074,-0.0813 -0.109375,-0.16211 -0.07075,-0.16166 -0.115765,-0.41424 -0.144532,-0.64843 a 0.26460996,0.26460996 0 0 0 -0.394531,-0.19727 c -0.363216,0.2097 -0.592738,0.5188 -0.707031,0.87305 -0.114293,0.35425 -0.130859,0.74784 -0.130859,1.19922 0,0.81607 0.260302,1.46861 0.771484,1.89062 0.511182,0.42201 1.233743,0.60352 2.123047,0.60352 a 0.26460996,0.26460996 0 0 0 0.01758,0 c 0.688896,-0.0462 1.194009,-0.19623 1.582031,-0.48633 0.388022,-0.29011 0.636103,-0.70007 0.863281,-1.20703 a 0.26460996,0.26460996 0 0 0 0.01563,-0.041 c 0.103236,-0.38528 0.209704,-0.90987 0.121094,-1.44336 -0.08861,-0.53349 -0.406128,-1.0789 -1.072266,-1.39258 a 0.26460996,0.26460996 0 0 0 -0.375,0.27344 c 0.03993,0.32255 0.02571,0.57783 -0.01953,0.70703 -0.04525,0.12921 -0.04773,0.13672 -0.171875,0.13672 -0.08707,0 -0.119717,-0.0163 -0.140625,-0.0312 -0.02091,-0.015 -0.04379,-0.0398 -0.06836,-0.10547 -0.04913,-0.13137 -0.07281,-0.40274 -0.09766,-0.74414 -0.01489,-0.20467 -0.114413,-0.3774 -0.22461,-0.48633 -0.110197,-0.10892 -0.219674,-0.16969 -0.300781,-0.22851 -0.08111,-0.0588 -0.130511,-0.10592 -0.164063,-0.17188 -0.03355,-0.0659 -0.05982,-0.1648 -0.03906,-0.35546 a 0.26460996,0.26460996 0 0 0 -0.294922,-0.29297 z"
         style="color:#000000;font-style:normal;font-variant:normal;font-weight:normal;font-stretch:normal;font-size:medium;line-height:normal;font-family:sans-serif;font-variant-ligatures:normal;font-variant-position:normal;font-variant-caps:normal;font-variant-numeric:normal;font-variant-alternates:normal;font-variant-east-asian:normal;font-feature-settings:normal;font-variation-settings:normal;text-indent:0;text-align:start;text-decoration:none;text-decoration-line:none;text-decoration-style:solid;text-decoration-color:#000000;letter-spacing:normal;word-spacing:normal;text-transform:none;writing-mode:lr-tb;direction:ltr;text-orientation:mixed;dominant-baseline:auto;baseline-shift:baseline;text-anchor:start;white-space:normal;shape-padding:0;shape-margin:0;inline-size:0;clip-rule:nonzero;display:inline;overflow:visible;visibility:visible;isolation:auto;mix-blend-mode:normal;color-interpolation:sRGB;color-interpolation-filters:linearRGB;solid-color:#000000;solid-opacity:1;vector-effect:none;fill:#dc1c4b;fill-opacity:1;fill-rule:nonzero;stroke:none;stroke-width:0.429319;stroke-linecap:round;stroke-linejoin:round;stroke-miterlimit:4;stroke-dasharray:none;stroke-dashoffset:0;stroke-opacity:1;color-rendering:auto;image-rendering:auto;shape-rendering:auto;text-rendering:auto;enable-background:accumulate;stop-color:#000000" />
      <path
         transform="matrix(0.26458333,0,0,0.26458333,0,284.3)"
         d="m -125.13086,-44.814453 c -0.66553,1.525128 -1.50756,2.955733 -2.5,4.267578 0.31843,-0.236876 0.62804,-0.491675 0.93945,-0.744141 0.23471,-0.201289 0.46393,-0.409789 0.68946,-0.621093 0.61549,-0.795545 0.85232,-1.822086 0.87109,-2.902344 z"
         style="color:#000000;font-style:normal;font-variant:normal;font-weight:normal;font-stretch:normal;font-size:medium;line-height:normal;font-family:sans-serif;font-variant-ligatures:normal;font-variant-position:normal;font-variant-caps:normal;font-variant-numeric:normal;font-variant-alternates:normal;font-variant-east-asian:normal;font-feature-settings:normal;font-variation-settings:normal;text-indent:0;text-align:start;text-decoration:none;text-decoration-line:none;text-decoration-style:solid;text-decoration-color:#000000;letter-spacing:normal;word-spacing:normal;text-transform:none;writing-mode:lr-tb;direction:ltr;text-orientation:mixed;dominant-baseline:auto;baseline-shift:baseline;text-anchor:start;white-space:normal;shape-padding:0;shape-margin:0;inline-size:0;clip-rule:nonzero;display:inline;overflow:visible;visibility:visible;isolation:auto;mix-blend-mode:normal;color-interpolation:sRGB;color-interpolation-filters:linearRGB;solid-color:#000000;solid-opacity:1;vector-effect:none;fill:#46a05d;fill-opacity:1;fill-rule:nonzero;stroke:none;stroke-width:1.62262;stroke-linecap:round;stroke-linejoin:round;stroke-miterlimit:4;stroke-dasharray:none;stroke-dashoffset:0;stroke-opacity:1;color-rendering:auto;image-rendering:auto;shape-rendering:auto;text-rendering:auto;enable-background:accumulate;stop-color:#000000"
         id="path1187" />
      <path
         sodipodi:nodetypes="ccccccscsscccccc"
         d="m -42.134893,270.39077 c -0.177895,-3.7e-4 -0.305477,0.17138 -0.25373,0.34158 0.01942,0.0642 0.04348,0.12474 0.0646,0.18759 1.197692,-9.8e-4 1.997913,-0.005 3.076297,0.0331 0.126317,0.005 0.23174,0.0979 0.251664,0.22273 0.05498,0.35089 0.06987,0.65612 0.06826,0.99994 -0.0081,0.15063 -0.0204,0.28933 -0.09147,0.43149 -0.01532,0.0307 -0.03149,0.0513 -0.04702,0.0786 0.132839,-0.10774 0.222424,-0.1694 0.30644,-0.24029 0.09954,-0.084 0.185764,-0.19945 0.269751,-0.36742 0.07108,-0.14216 0.08333,-0.28087 0.09147,-0.4315 0.0081,-0.15062 0.0024,-0.30869 -0.0078,-0.45527 -0.02021,-0.29318 -0.06046,-0.54467 -0.06046,-0.54467 -0.01992,-0.12482 -0.125346,-0.21812 -0.251664,-0.22273 -1.190873,-0.0417 -1.981141,-0.0331 -3.416329,-0.0331 z"
         style="color:#000000;font-style:normal;font-variant:normal;font-weight:normal;font-stretch:normal;font-size:medium;line-height:normal;font-family:sans-serif;font-variant-ligatures:normal;font-variant-position:normal;font-variant-caps:normal;font-variant-numeric:normal;font-variant-alternates:normal;font-variant-east-asian:normal;font-feature-settings:normal;font-variation-settings:normal;text-indent:0;text-align:start;text-decoration:none;text-decoration-line:none;text-decoration-style:solid;text-decoration-color:#000000;letter-spacing:normal;word-spacing:normal;text-transform:none;writing-mode:lr-tb;direction:ltr;text-orientation:mixed;dominant-baseline:auto;baseline-shift:baseline;text-anchor:start;white-space:normal;shape-padding:0;shape-margin:0;inline-size:0;clip-rule:nonzero;display:inline;overflow:visible;visibility:visible;isolation:auto;mix-blend-mode:normal;color-interpolation:sRGB;color-interpolation-filters:linearRGB;solid-color:#000000;solid-opacity:1;vector-effect:none;fill:#46a05d;fill-opacity:1;fill-rule:nonzero;stroke:none;stroke-width:0.429319;stroke-linecap:round;stroke-linejoin:round;stroke-miterlimit:4;stroke-dasharray:none;stroke-dashoffset:0;stroke-opacity:1;paint-order:markers fill stroke;color-rendering:auto;image-rendering:auto;shape-rendering:auto;text-rendering:auto;enable-background:accumulate;stop-color:#000000"
         id="path1192" />
      <path
         sodipodi:nodetypes="ccccccccscccscccccc"
         d="m -35.437624,270.29104 c -0.319632,-0.0194 -0.606149,0.049 -0.834056,0.15244 -0.455819,0.20693 -0.716754,0.54467 -0.716754,0.54467 -0.0047,0.006 -0.0092,0.0115 -0.01343,0.0176 -0.02287,0.0351 -0.0381,0.0732 -0.05684,0.11007 0.07782,-0.0506 0.162303,-0.0998 0.257865,-0.14314 0.227907,-0.10344 0.514424,-0.17185 0.834057,-0.15245 0.85086,0.1215 1.303235,0.56244 2.031263,1.09293 0.158026,0.14163 0.276421,0.52356 0.298792,0.88571 0.01678,0.27162 -0.0129,0.53916 -0.119888,0.76378 0.123314,-0.0921 0.244443,-0.18855 0.363802,-0.28939 0.01135,-0.009 0.0219,-0.0198 0.03152,-0.031 0.21575,-0.25556 0.276098,-0.6104 0.253731,-0.97255 -0.02237,-0.36215 -0.140767,-0.74408 -0.431499,-1.00614 -0.008,-0.008 -0.01645,-0.0147 -0.02532,-0.0212 l -0.829924,-0.57826 c -0.0014,-6.8e-4 -0.0027,-10e-4 -0.0041,-0.002 -0.366045,-0.24403 -0.719579,-0.3516 -1.039212,-0.37103 z"
         style="color:#000000;font-style:normal;font-variant:normal;font-weight:normal;font-stretch:normal;font-size:medium;line-height:normal;font-family:sans-serif;font-variant-ligatures:normal;font-variant-position:normal;font-variant-caps:normal;font-variant-numeric:normal;font-variant-alternates:normal;font-variant-east-asian:normal;font-feature-settings:normal;font-variation-settings:normal;text-indent:0;text-align:start;text-decoration:none;text-decoration-line:none;text-decoration-style:solid;text-decoration-color:#000000;letter-spacing:normal;word-spacing:normal;text-transform:none;writing-mode:lr-tb;direction:ltr;text-orientation:mixed;dominant-baseline:auto;baseline-shift:baseline;text-anchor:start;white-space:normal;shape-padding:0;shape-margin:0;inline-size:0;clip-rule:nonzero;display:inline;overflow:visible;visibility:visible;isolation:auto;mix-blend-mode:normal;color-interpolation:sRGB;color-interpolation-filters:linearRGB;solid-color:#000000;solid-opacity:1;vector-effect:none;fill:#46a05d;fill-opacity:1;fill-rule:nonzero;stroke:none;stroke-width:0.429319;stroke-linecap:round;stroke-linejoin:round;stroke-miterlimit:4;stroke-dasharray:none;stroke-dashoffset:0;stroke-opacity:1;paint-order:markers fill stroke;color-rendering:auto;image-rendering:auto;shape-rendering:auto;text-rendering:auto;enable-background:accumulate;stop-color:#000000"
         id="path1197" />
      <path
         sodipodi:nodetypes="cccccscccccccccccccccccccsccscccccccsccccccsccc"
         d="m -41.199547,262.56435 c -0.06206,-0.009 -0.117961,0.0409 -0.163811,0.0568 -0.153255,0.11821 -0.279895,0.28426 -0.382923,0.47336 0.164399,-0.0104 0.298217,0.13037 0.279569,0.29404 -0.02076,0.19065 0.0057,0.28963 0.03927,0.35553 0.03355,0.066 0.0827,0.11328 0.163814,0.17208 0.08111,0.0588 0.190558,0.11949 0.300757,0.22841 0.110196,0.10893 0.209902,0.28161 0.224793,0.48628 0.02485,0.3414 0.04854,0.61277 0.09767,0.74414 0.04481,0.13252 0.130468,0.10434 0.20877,0.13642 0.124145,0 0.126833,-0.007 0.172082,-0.13642 0.04524,-0.1292 0.05957,-0.38439 0.01964,-0.70694 -0.0098,-0.075 0.01295,-0.15061 0.06253,-0.20774 -0.0112,-0.10926 -0.02163,-0.22278 -0.03152,-0.35863 -0.01489,-0.20467 -0.114596,-0.37735 -0.224792,-0.48628 -0.110199,-0.10892 -0.219652,-0.1701 -0.300758,-0.22892 -0.08111,-0.0588 -0.130262,-0.10561 -0.163814,-0.17157 -0.03355,-0.0659 -0.06003,-0.16487 -0.03927,-0.35553 0.01817,-0.15682 -0.104131,-0.29456 -0.261999,-0.29507 z m -1.583367,1.26969 c -0.04799,-9.4e-4 -0.09532,0.0112 -0.136943,0.0351 -0.244131,0.14094 -0.422963,0.32935 -0.551902,0.54363 0.0078,-0.005 0.01482,-0.01 0.02273,-0.0145 0.164208,-0.0942 0.371307,0.01 0.394293,0.19741 0.02876,0.23419 0.07394,0.48636 0.144693,0.64802 0.03537,0.0808 0.07692,0.13436 0.109556,0.16226 0.144884,0.0762 0.271531,-0.0461 0.388606,-0.11528 0.07714,-0.0852 0.109865,-0.12542 0.02326,-0.27543 -0.140404,-0.24319 -0.154271,-0.51476 -0.108522,-0.77411 -0.0093,-0.0588 -0.02127,-0.11646 -0.02842,-0.17467 -0.01594,-0.13077 -0.125642,-0.22989 -0.25735,-0.23254 z m 3.339333,0.006 c -0.161582,-0.003 -0.288009,0.13843 -0.267169,0.29869 0.01621,0.13095 0.0218,0.24655 0.0217,0.3514 0.545081,0.32171 0.81579,0.81322 0.89607,1.29656 0.08861,0.53349 -0.01769,1.05804 -0.120923,1.44332 -0.004,0.0142 -0.0092,0.028 -0.0155,0.0413 -0.120627,0.26919 -0.24819,0.50982 -0.398423,0.72089 0.02126,-0.0146 0.04349,-0.028 0.06408,-0.0434 0.388022,-0.29011 0.636336,-0.69968 0.863512,-1.20664 0.0063,-0.0133 0.0115,-0.0272 0.01551,-0.0414 0.103235,-0.38528 0.209531,-0.90983 0.120922,-1.44332 -0.08861,-0.53349 -0.406148,-1.079 -1.072287,-1.39268 -0.03369,-0.0157 -0.07031,-0.0242 -0.107484,-0.0248 z"
         style="color:#000000;font-style:normal;font-variant:normal;font-weight:normal;font-stretch:normal;font-size:medium;line-height:normal;font-family:sans-serif;font-variant-ligatures:normal;font-variant-position:normal;font-variant-caps:normal;font-variant-numeric:normal;font-variant-alternates:normal;font-variant-east-asian:normal;font-feature-settings:normal;font-variation-settings:normal;text-indent:0;text-align:start;text-decoration:none;text-decoration-line:none;text-decoration-style:solid;text-decoration-color:#000000;letter-spacing:normal;word-spacing:normal;text-transform:none;writing-mode:lr-tb;direction:ltr;text-orientation:mixed;dominant-baseline:auto;baseline-shift:baseline;text-anchor:start;white-space:normal;shape-padding:0;shape-margin:0;inline-size:0;clip-rule:nonzero;display:inline;overflow:visible;visibility:visible;isolation:auto;mix-blend-mode:normal;color-interpolation:sRGB;color-interpolation-filters:linearRGB;solid-color:#000000;solid-opacity:1;vector-effect:none;fill:#b31e48;fill-opacity:1;fill-rule:nonzero;stroke:none;stroke-width:0.429319;stroke-linecap:round;stroke-linejoin:round;stroke-miterlimit:4;stroke-dasharray:none;stroke-dashoffset:0;stroke-opacity:1;color-rendering:auto;image-rendering:auto;shape-rendering:auto;text-rendering:auto;enable-background:accumulate;stop-color:#000000"
         id="path1204" />
    </g>
  </g>
</svg>
