<?xml version="1.0" encoding="UTF-8" standalone="no"?>
<svg
   inkscape:export-ydpi="768"
   inkscape:export-xdpi="768"
   inkscape:export-filename="C:\Users\RainBoyz\Desktop\EXP\FLAT ICON\SVG\Rose Plant.png"
   width="48pt"
   height="48pt"
   viewBox="0 0 16.933334 16.933333"
   version="1.1"
   id="svg979"
   inkscape:version="1.1 (c68e22c387, 2021-05-23)"
   sodipodi:docname="12 - Rose Plant.svg"
   xmlns:inkscape="http://www.inkscape.org/namespaces/inkscape"
   xmlns:sodipodi="http://sodipodi.sourceforge.net/DTD/sodipodi-0.dtd"
   xmlns="http://www.w3.org/2000/svg"
   xmlns:svg="http://www.w3.org/2000/svg"
   xmlns:rdf="http://www.w3.org/1999/02/22-rdf-syntax-ns#"
   xmlns:cc="http://creativecommons.org/ns#"
   xmlns:dc="http://purl.org/dc/elements/1.1/">
  <defs
     id="defs973" />
  <sodipodi:namedview
     id="base"
     pagecolor="#ffffff"
     bordercolor="#666666"
     borderopacity="1.0"
     inkscape:pageopacity="0.0"
     inkscape:pageshadow="2"
     inkscape:zoom="7.6875"
     inkscape:cx="31.934959"
     inkscape:cy="32"
     inkscape:document-units="pt"
     inkscape:current-layer="layer1"
     showgrid="false"
     units="pt"
     inkscape:window-width="1366"
     inkscape:window-height="716"
     inkscape:window-x="-8"
     inkscape:window-y="-8"
     inkscape:window-maximized="1"
     inkscape:document-rotation="0"
     inkscape:snap-bbox="true"
     inkscape:bbox-nodes="true"
     inkscape:snap-nodes="false"
     inkscape:pagecheckerboard="0"
     showguides="false">
    <inkscape:grid
       type="xygrid"
       id="grid1526" />
    <sodipodi:guide
       position="0.97013909,15.963209"
       orientation="56.666615,0"
       id="guide1528"
       inkscape:locked="false" />
    <sodipodi:guide
       position="0.97013909,0.97016731"
       orientation="0,56.666667"
       id="guide1530"
       inkscape:locked="false" />
    <sodipodi:guide
       position="15.963195,0.97016731"
       orientation="-56.666615,0"
       id="guide1532"
       inkscape:locked="false" />
    <sodipodi:guide
       position="15.963195,15.963209"
       orientation="0,-56.666667"
       id="guide1534"
       inkscape:locked="false" />
  </sodipodi:namedview>
  <metadata
     id="metadata976">
    <rdf:RDF>
      <cc:Work
         rdf:about="">
        <dc:format>image/svg+xml</dc:format>
        <dc:type
           rdf:resource="http://purl.org/dc/dcmitype/StillImage" />
        <dc:title />
      </cc:Work>
    </rdf:RDF>
  </metadata>
  <g
     inkscape:label="Layer 1"
     inkscape:groupmode="layer"
     id="layer1"
     transform="translate(0,-280.06668)">
    <g
       id="g1157"
       style="display:inline"
       transform="matrix(1.2319739,0,0,1.2319739,28.296994,-96.736412)">
      <path
         id="path1109"
         d="m -16.095703,306.64062 a 0.2645835,0.2645835 0 0 0 -0.265625,0.26368 v 1.05859 a 0.2645835,0.2645835 0 0 0 0.265625,0.26563 0.2645835,0.2645835 0 0 0 0.263672,-0.26563 v -1.05859 a 0.2645835,0.2645835 0 0 0 -0.263672,-0.26368 z"
         style="color:#000000;font-style:normal;font-variant:normal;font-weight:normal;font-stretch:normal;font-size:medium;line-height:normal;font-family:sans-serif;font-variant-ligatures:normal;font-variant-position:normal;font-variant-caps:normal;font-variant-numeric:normal;font-variant-alternates:normal;font-variant-east-asian:normal;font-feature-settings:normal;font-variation-settings:normal;text-indent:0;text-align:start;text-decoration:none;text-decoration-line:none;text-decoration-style:solid;text-decoration-color:#000000;letter-spacing:normal;word-spacing:normal;text-transform:none;writing-mode:lr-tb;direction:ltr;text-orientation:mixed;dominant-baseline:auto;baseline-shift:baseline;text-anchor:start;white-space:normal;shape-padding:0;shape-margin:0;inline-size:0;clip-rule:nonzero;display:inline;overflow:visible;visibility:visible;opacity:1;isolation:auto;mix-blend-mode:normal;color-interpolation:sRGB;color-interpolation-filters:linearRGB;solid-color:#000000;solid-opacity:1;vector-effect:none;fill:#64dd17;fill-opacity:1;fill-rule:nonzero;stroke:none;stroke-width:0.529167;stroke-linecap:round;stroke-linejoin:round;stroke-miterlimit:4;stroke-dasharray:none;stroke-dashoffset:0;stroke-opacity:1;color-rendering:auto;image-rendering:auto;shape-rendering:auto;text-rendering:auto;enable-background:accumulate;stop-color:#000000;stop-opacity:1" />
      <path
         id="path1115"
         d="m -18.134766,306.91797 c 0,0 -0.105692,0.36648 -0.171875,0.81836 -0.06618,0.45188 -0.118673,0.98586 0.08203,1.41406 0.03893,0.0829 0.117986,0.13982 0.208984,0.15039 0.93773,0.10788 1.377828,0.2671 1.717018,0.9154 0.09084,0.17741 0.386232,0.14378 0.432415,-0.004 0.04618,-0.14808 0.07505,-0.27847 0.100741,-0.46259 -0.372732,-0.43519 -0.299951,-0.97833 -0.04486,-1.59437 0.05182,-0.57821 -0.76556,-0.93601 -1.18949,-1.12301 -0.281233,-0.13382 -0.59986,-0.23346 -0.892675,-0.30529 -0.113538,0.005 -0.210994,0.0818 -0.242288,0.19105 z"
         style="color:#000000;font-style:normal;font-variant:normal;font-weight:normal;font-stretch:normal;font-size:medium;line-height:normal;font-family:sans-serif;font-variant-ligatures:normal;font-variant-position:normal;font-variant-caps:normal;font-variant-numeric:normal;font-variant-alternates:normal;font-variant-east-asian:normal;font-feature-settings:normal;font-variation-settings:normal;text-indent:0;text-align:start;text-decoration:none;text-decoration-line:none;text-decoration-style:solid;text-decoration-color:#000000;letter-spacing:normal;word-spacing:normal;text-transform:none;writing-mode:lr-tb;direction:ltr;text-orientation:mixed;dominant-baseline:auto;baseline-shift:baseline;text-anchor:start;white-space:normal;shape-padding:0;shape-margin:0;inline-size:0;clip-rule:nonzero;display:inline;overflow:visible;visibility:visible;isolation:auto;mix-blend-mode:normal;color-interpolation:sRGB;color-interpolation-filters:linearRGB;solid-color:#000000;solid-opacity:1;vector-effect:none;fill:#e5003a;fill-opacity:1;fill-rule:nonzero;stroke:none;stroke-width:0.529167;stroke-linecap:round;stroke-linejoin:round;stroke-miterlimit:4;stroke-dasharray:none;stroke-dashoffset:0;stroke-opacity:1;color-rendering:auto;image-rendering:auto;shape-rendering:auto;text-rendering:auto;enable-background:accumulate;stop-color:#000000"
         sodipodi:nodetypes="csccccccccc" />
      <path
         id="path1088"
         style="color:#000000;font-style:normal;font-variant:normal;font-weight:normal;font-stretch:normal;font-size:medium;line-height:normal;font-family:sans-serif;font-variant-ligatures:normal;font-variant-position:normal;font-variant-caps:normal;font-variant-numeric:normal;font-variant-alternates:normal;font-variant-east-asian:normal;font-feature-settings:normal;font-variation-settings:normal;text-indent:0;text-align:start;text-decoration:none;text-decoration-line:none;text-decoration-style:solid;text-decoration-color:#000000;letter-spacing:normal;word-spacing:normal;text-transform:none;writing-mode:lr-tb;direction:ltr;text-orientation:mixed;dominant-baseline:auto;baseline-shift:baseline;text-anchor:start;white-space:normal;shape-padding:0;shape-margin:0;inline-size:0;clip-rule:nonzero;display:inline;overflow:visible;visibility:visible;isolation:auto;mix-blend-mode:normal;color-interpolation:sRGB;color-interpolation-filters:linearRGB;solid-color:#000000;solid-opacity:1;vector-effect:none;fill:#cc0035;fill-opacity:1;fill-rule:nonzero;stroke:none;stroke-width:0.529167;stroke-linecap:round;stroke-linejoin:round;stroke-miterlimit:4;stroke-dasharray:none;stroke-dashoffset:0;stroke-opacity:1;color-rendering:auto;image-rendering:auto;shape-rendering:auto;text-rendering:auto;enable-background:accumulate;stop-color:#000000"
         d="m -18.134621,306.9177 c 0,0 -0.04366,0.15816 -0.09198,0.38344 0.120345,0.0366 0.367148,0.11513 0.697632,0.25994 0.427363,0.18726 0.916193,0.42553 1.067666,0.697 0.151472,0.27147 0.153561,0.35386 0.121943,0.42591 -0.15264,0.35299 -0.197944,0.79471 -0.162673,1.00573 0.03527,0.21101 0.06376,0.26041 0.09087,0.314 0.08574,0.051 0.135487,0.14592 0.128675,0.24546 0.140576,0.14016 0.379695,0.0814 0.421108,-0.0521 0.04141,-0.13343 0.07036,-0.26388 0.09623,-0.44792 0.02586,-0.18404 -0.105072,-0.31962 -0.182245,-0.45438 -0.07717,-0.13477 -0.04871,-0.70984 0.137255,-1.13991 0.03162,-0.072 0.02953,-0.15443 -0.121945,-0.4259 -0.151471,-0.27147 -0.640301,-0.50974 -1.067664,-0.697 -0.283715,-0.14194 -0.657134,-0.25722 -0.934986,-0.30333 -0.07097,0.003 -0.168496,0.0799 -0.199885,0.18903 z"
         sodipodi:nodetypes="ccsccccccccccccc" />
      <path
         id="path1145"
         d="m -14.683592,306.99818 c -0.46132,0.0702 -0.996033,0.17375 -1.335937,0.51367 -0.308824,0.30883 -0.419955,0.77445 -0.494141,1.19531 -0.07419,0.42086 -0.08843,0.80113 -0.0918,0.91406 0.03563,0.21126 0.152225,0.27609 0.324214,0.34957 0.03772,7e-5 0.168355,0.002 0.392578,-0.0117 0.506555,-0.35599 1.170515,-0.59318 1.775392,-0.66598 0.08599,-0.01 0.161842,-0.0607 0.203125,-0.13672 0.205873,-0.37762 0.279371,-0.85694 0.318359,-1.25586 0.03719,-0.38048 0.03163,-0.65788 0.03225,-0.7129 -0.01267,-0.16427 -0.128999,-0.26785 -0.234239,-0.26448 -0.105241,0.003 -0.449518,0.008 -0.889801,0.075 z"
         style="color:#000000;font-style:normal;font-variant:normal;font-weight:normal;font-stretch:normal;font-size:medium;line-height:normal;font-family:sans-serif;font-variant-ligatures:normal;font-variant-position:normal;font-variant-caps:normal;font-variant-numeric:normal;font-variant-alternates:normal;font-variant-east-asian:normal;font-feature-settings:normal;font-variation-settings:normal;text-indent:0;text-align:start;text-decoration:none;text-decoration-line:none;text-decoration-style:solid;text-decoration-color:#000000;letter-spacing:normal;word-spacing:normal;text-transform:none;writing-mode:lr-tb;direction:ltr;text-orientation:mixed;dominant-baseline:auto;baseline-shift:baseline;text-anchor:start;white-space:normal;shape-padding:0;shape-margin:0;inline-size:0;clip-rule:nonzero;display:inline;overflow:visible;visibility:visible;isolation:auto;mix-blend-mode:normal;color-interpolation:sRGB;color-interpolation-filters:linearRGB;solid-color:#000000;solid-opacity:1;vector-effect:none;fill:#cc0035;fill-opacity:1;fill-rule:nonzero;stroke:none;stroke-width:0.529167;stroke-linecap:round;stroke-linejoin:round;stroke-miterlimit:4;stroke-dasharray:none;stroke-dashoffset:0;stroke-opacity:1;color-rendering:auto;image-rendering:auto;shape-rendering:auto;text-rendering:auto;enable-background:accumulate;stop-color:#000000"
         sodipodi:nodetypes="ccscccccsccc" />
      <path
         id="path1173"
         d="m -14.458984,308.80274 c -0.536447,0.0817 -1.155604,0.2083 -1.53711,0.58985 -0.213466,0.24818 -0.347656,0.4774 -0.347656,0.76367 0.257296,0.65291 0.294117,1.71569 0.294922,1.75781 0.0023,0.15263 0.132969,0.27164 0.285156,0.25977 0.301394,-0.0222 0.666526,-0.0653 1.015625,-0.15235 0.3491,-0.0871 0.686556,-0.20994 0.927735,-0.45117 0.389935,-0.38994 0.500964,-1.02529 0.568359,-1.57422 0.06739,-0.54892 0.05859,-1.02148 0.05859,-1.02148 -0.0026,-0.14618 -0.12335,-0.26251 -0.196439,-0.26115 0,0 -0.532736,0.007 -1.069182,0.0893 z"
         style="color:#000000;font-style:normal;font-variant:normal;font-weight:normal;font-stretch:normal;font-size:medium;line-height:normal;font-family:sans-serif;font-variant-ligatures:normal;font-variant-position:normal;font-variant-caps:normal;font-variant-numeric:normal;font-variant-alternates:normal;font-variant-east-asian:normal;font-feature-settings:normal;font-variation-settings:normal;text-indent:0;text-align:start;text-decoration:none;text-decoration-line:none;text-decoration-style:solid;text-decoration-color:#000000;letter-spacing:normal;word-spacing:normal;text-transform:none;writing-mode:lr-tb;direction:ltr;text-orientation:mixed;dominant-baseline:auto;baseline-shift:baseline;text-anchor:start;white-space:normal;shape-padding:0;shape-margin:0;inline-size:0;clip-rule:nonzero;display:inline;overflow:visible;visibility:visible;isolation:auto;mix-blend-mode:normal;color-interpolation:sRGB;color-interpolation-filters:linearRGB;solid-color:#000000;solid-opacity:1;vector-effect:none;fill:#e5003a;fill-opacity:1;fill-rule:nonzero;stroke:none;stroke-width:0.529167;stroke-linecap:round;stroke-linejoin:round;stroke-miterlimit:4;stroke-dasharray:none;stroke-dashoffset:0;stroke-opacity:1;color-rendering:auto;image-rendering:auto;shape-rendering:auto;text-rendering:auto;enable-background:accumulate;stop-color:#000000"
         sodipodi:nodetypes="cccccccsccc" />
      <path
         id="path1221"
         d="m -16.095703,317.22461 a 0.2645835,0.2645835 0 0 0 -0.265625,0.26367 c 0,0.17639 -0.08288,0.35952 -0.291016,0.51563 -0.208138,0.1561 -0.54618,0.27929 -1.03125,0.27929 a 0.2645835,0.2645835 0 0 0 -0.265625,0.26368 0.2645835,0.2645835 0 0 0 0.265625,0.26367 c 0.573263,0 1.028581,-0.14205 1.34961,-0.38282 0.321028,-0.24077 0.501953,-0.58667 0.501953,-0.93945 a 0.2645835,0.2645835 0 0 0 -0.263672,-0.26367 z"
         style="color:#000000;font-style:normal;font-variant:normal;font-weight:normal;font-stretch:normal;font-size:medium;line-height:normal;font-family:sans-serif;font-variant-ligatures:normal;font-variant-position:normal;font-variant-caps:normal;font-variant-numeric:normal;font-variant-alternates:normal;font-variant-east-asian:normal;font-feature-settings:normal;font-variation-settings:normal;text-indent:0;text-align:start;text-decoration:none;text-decoration-line:none;text-decoration-style:solid;text-decoration-color:#000000;letter-spacing:normal;word-spacing:normal;text-transform:none;writing-mode:lr-tb;direction:ltr;text-orientation:mixed;dominant-baseline:auto;baseline-shift:baseline;text-anchor:start;white-space:normal;shape-padding:0;shape-margin:0;inline-size:0;clip-rule:nonzero;display:inline;overflow:visible;visibility:visible;opacity:1;isolation:auto;mix-blend-mode:normal;color-interpolation:sRGB;color-interpolation-filters:linearRGB;solid-color:#000000;solid-opacity:1;vector-effect:none;fill:#64dd17;fill-opacity:1;fill-rule:nonzero;stroke:none;stroke-width:0.529167;stroke-linecap:round;stroke-linejoin:round;stroke-miterlimit:4;stroke-dasharray:none;stroke-dashoffset:0;stroke-opacity:1;color-rendering:auto;image-rendering:auto;shape-rendering:auto;text-rendering:auto;enable-background:accumulate;stop-color:#000000;stop-opacity:1" />
      <path
         id="path1217"
         d="m -16.095703,317.22461 a 0.2645835,0.2645835 0 0 0 -0.265625,0.26367 c 0,0.35278 0.180925,0.69868 0.501953,0.93945 0.321028,0.24077 0.776346,0.38282 1.349609,0.38282 a 0.2645835,0.2645835 0 0 0 0.265625,-0.26367 0.2645835,0.2645835 0 0 0 -0.265625,-0.26368 c -0.485069,0 -0.823111,-0.12319 -1.03125,-0.27929 -0.208138,-0.15611 -0.291015,-0.33924 -0.291015,-0.51563 a 0.2645835,0.2645835 0 0 0 -0.263672,-0.26367 z"
         style="color:#000000;font-style:normal;font-variant:normal;font-weight:normal;font-stretch:normal;font-size:medium;line-height:normal;font-family:sans-serif;font-variant-ligatures:normal;font-variant-position:normal;font-variant-caps:normal;font-variant-numeric:normal;font-variant-alternates:normal;font-variant-east-asian:normal;font-feature-settings:normal;font-variation-settings:normal;text-indent:0;text-align:start;text-decoration:none;text-decoration-line:none;text-decoration-style:solid;text-decoration-color:#000000;letter-spacing:normal;word-spacing:normal;text-transform:none;writing-mode:lr-tb;direction:ltr;text-orientation:mixed;dominant-baseline:auto;baseline-shift:baseline;text-anchor:start;white-space:normal;shape-padding:0;shape-margin:0;inline-size:0;clip-rule:nonzero;display:inline;overflow:visible;visibility:visible;opacity:1;isolation:auto;mix-blend-mode:normal;color-interpolation:sRGB;color-interpolation-filters:linearRGB;solid-color:#000000;solid-opacity:1;vector-effect:none;fill:#64dd17;fill-opacity:1;fill-rule:nonzero;stroke:none;stroke-width:0.529167;stroke-linecap:round;stroke-linejoin:round;stroke-miterlimit:4;stroke-dasharray:none;stroke-dashoffset:0;stroke-opacity:1;color-rendering:auto;image-rendering:auto;shape-rendering:auto;text-rendering:auto;enable-background:accumulate;stop-color:#000000;stop-opacity:1" />
      <path
         id="path1191"
         d="m -16.160144,315.09961 c 0,0 0.308059,0.0776 0.68164,0.11914 0.373581,0.0415 0.810596,0.0783 1.166016,-0.12695 0.35542,-0.20521 0.542554,-0.60296 0.693359,-0.94727 0.150806,-0.3443 0.238282,-0.65039 0.238282,-0.65039 0.03954,-0.14019 -0.04164,-0.28597 -0.181641,-0.32617 0,0 -0.313939,-0.0912 -0.693366,-0.14457 -0.379426,-0.0534 -0.8235,-0.10271 -1.187505,0.10746 -0.36401,0.21016 -0.543999,0.62129 -0.6875,0.97656 -0.143502,0.35527 -0.226557,0.70313 -0.226557,0.70313 -0.0043,0.1533 0.07878,0.2598 0.197272,0.28906 z"
         style="color:#000000;font-style:normal;font-variant:normal;font-weight:normal;font-stretch:normal;font-size:medium;line-height:normal;font-family:sans-serif;font-variant-ligatures:normal;font-variant-position:normal;font-variant-caps:normal;font-variant-numeric:normal;font-variant-alternates:normal;font-variant-east-asian:normal;font-feature-settings:normal;font-variation-settings:normal;text-indent:0;text-align:start;text-decoration:none;text-decoration-line:none;text-decoration-style:solid;text-decoration-color:#000000;letter-spacing:normal;word-spacing:normal;text-transform:none;writing-mode:lr-tb;direction:ltr;text-orientation:mixed;dominant-baseline:auto;baseline-shift:baseline;text-anchor:start;white-space:normal;shape-padding:0;shape-margin:0;inline-size:0;clip-rule:nonzero;display:inline;overflow:visible;visibility:visible;isolation:auto;mix-blend-mode:normal;color-interpolation:sRGB;color-interpolation-filters:linearRGB;solid-color:#000000;solid-opacity:1;vector-effect:none;fill:#54b913;fill-opacity:1;fill-rule:nonzero;stroke:none;stroke-width:0.529167;stroke-linecap:round;stroke-linejoin:round;stroke-miterlimit:4;stroke-dasharray:none;stroke-dashoffset:0;stroke-opacity:1;color-rendering:auto;image-rendering:auto;shape-rendering:auto;text-rendering:auto;enable-background:accumulate;stop-color:#000000"
         sodipodi:nodetypes="cccsccccscc" />
      <path
         id="path1205"
         d="m -18.630859,313.96094 c -0.139998,0.0402 -0.221184,0.18598 -0.181641,0.32617 0,0 0.08748,0.30609 0.238281,0.65039 0.150805,0.3443 0.33794,0.74206 0.69336,0.94727 0.35542,0.20523 0.792434,0.16849 1.166015,0.12695 0.373581,-0.0415 0.681641,-0.11914 0.681641,-0.11914 0.117783,-0.0291 0.200698,-0.13454 0.197035,-0.22745 5.9e-5,-0.0217 -0.08281,-0.40952 -0.226319,-0.76479 -0.143502,-0.35527 -0.32349,-0.7664 -0.6875,-0.97656 -0.364005,-0.21017 -0.808079,-0.16078 -1.187507,-0.10742 -0.379427,0.0534 -0.693365,0.14458 -0.693365,0.14458 z"
         style="color:#000000;font-style:normal;font-variant:normal;font-weight:normal;font-stretch:normal;font-size:medium;line-height:normal;font-family:sans-serif;font-variant-ligatures:normal;font-variant-position:normal;font-variant-caps:normal;font-variant-numeric:normal;font-variant-alternates:normal;font-variant-east-asian:normal;font-feature-settings:normal;font-variation-settings:normal;text-indent:0;text-align:start;text-decoration:none;text-decoration-line:none;text-decoration-style:solid;text-decoration-color:#000000;letter-spacing:normal;word-spacing:normal;text-transform:none;writing-mode:lr-tb;direction:ltr;text-orientation:mixed;dominant-baseline:auto;baseline-shift:baseline;text-anchor:start;white-space:normal;shape-padding:0;shape-margin:0;inline-size:0;clip-rule:nonzero;display:inline;overflow:visible;visibility:visible;isolation:auto;mix-blend-mode:normal;color-interpolation:sRGB;color-interpolation-filters:linearRGB;solid-color:#000000;solid-opacity:1;vector-effect:none;fill:#54b913;fill-opacity:1;fill-rule:nonzero;stroke:none;stroke-width:0.529167;stroke-linecap:round;stroke-linejoin:round;stroke-miterlimit:4;stroke-dasharray:none;stroke-dashoffset:0;stroke-opacity:1;color-rendering:auto;image-rendering:auto;shape-rendering:auto;text-rendering:auto;enable-background:accumulate;stop-color:#000000"
         sodipodi:nodetypes="ccsccccsccc" />
      <path
         id="path1104"
         style="color:#000000;font-style:normal;font-variant:normal;font-weight:normal;font-stretch:normal;font-size:medium;line-height:normal;font-family:sans-serif;font-variant-ligatures:normal;font-variant-position:normal;font-variant-caps:normal;font-variant-numeric:normal;font-variant-alternates:normal;font-variant-east-asian:normal;font-feature-settings:normal;font-variation-settings:normal;text-indent:0;text-align:start;text-decoration:none;text-decoration-line:none;text-decoration-style:solid;text-decoration-color:#000000;letter-spacing:normal;word-spacing:normal;text-transform:none;writing-mode:lr-tb;direction:ltr;text-orientation:mixed;dominant-baseline:auto;baseline-shift:baseline;text-anchor:start;white-space:normal;shape-padding:0;shape-margin:0;inline-size:0;clip-rule:nonzero;display:inline;overflow:visible;visibility:visible;isolation:auto;mix-blend-mode:normal;color-interpolation:sRGB;color-interpolation-filters:linearRGB;solid-color:#000000;solid-opacity:1;vector-effect:none;fill:#4aa111;fill-opacity:1;fill-rule:nonzero;stroke:none;stroke-width:0.529167;stroke-linecap:round;stroke-linejoin:round;stroke-miterlimit:4;stroke-dasharray:none;stroke-dashoffset:0;stroke-opacity:1;color-rendering:auto;image-rendering:auto;shape-rendering:auto;text-rendering:auto;enable-background:accumulate;stop-color:#000000"
         d="m -17.937511,313.81632 c -0.379421,0.0533 -0.693498,0.14418 -0.693498,0.14418 -0.205602,0.0817 -0.230006,0.22897 -0.145724,0.43873 0.09461,-0.0191 0.197395,-0.0379 0.310059,-0.0537 0.379421,-0.0534 0.823519,-0.10268 1.187524,0.10749 0.36401,0.21016 0.543795,0.62089 0.687297,0.97617 0.09483,0.23477 0.149612,0.41353 0.183968,0.53433 0.20894,-0.0361 0.374654,-0.0713 0.374654,-0.0713 0.117701,-0.0291 0.200537,-0.13455 0.196879,-0.22747 6.8e-5,-0.0218 -0.08288,-0.40945 -0.226383,-0.76472 -0.143502,-0.35527 -0.323287,-0.76601 -0.687297,-0.97617 -0.182002,-0.10508 -0.384131,-0.14571 -0.588055,-0.15287 -0.203924,-0.007 -0.409714,0.0186 -0.599424,0.0453 z"
         sodipodi:nodetypes="cccccscccsscc" />
      <path
         id="path1110"
         style="color:#000000;font-style:normal;font-variant:normal;font-weight:normal;font-stretch:normal;font-size:medium;line-height:normal;font-family:sans-serif;font-variant-ligatures:normal;font-variant-position:normal;font-variant-caps:normal;font-variant-numeric:normal;font-variant-alternates:normal;font-variant-east-asian:normal;font-feature-settings:normal;font-variation-settings:normal;text-indent:0;text-align:start;text-decoration:none;text-decoration-line:none;text-decoration-style:solid;text-decoration-color:#000000;letter-spacing:normal;word-spacing:normal;text-transform:none;writing-mode:lr-tb;direction:ltr;text-orientation:mixed;dominant-baseline:auto;baseline-shift:baseline;text-anchor:start;white-space:normal;shape-padding:0;shape-margin:0;inline-size:0;clip-rule:nonzero;display:inline;overflow:visible;visibility:visible;isolation:auto;mix-blend-mode:normal;color-interpolation:sRGB;color-interpolation-filters:linearRGB;solid-color:#000000;solid-opacity:1;vector-effect:none;fill:#4aa111;fill-opacity:1;fill-rule:nonzero;stroke:none;stroke-width:0.529167;stroke-linecap:round;stroke-linejoin:round;stroke-miterlimit:4;stroke-dasharray:none;stroke-dashoffset:0;stroke-opacity:1;color-rendering:auto;image-rendering:auto;shape-rendering:auto;text-rendering:auto;enable-background:accumulate;stop-color:#000000"
         d="m -15.44351,313.13076 c -0.202779,0.11708 -0.345333,0.29817 -0.459404,0.49558 0.350153,-0.16767 0.761984,-0.12397 1.117762,-0.0739 0.37942,0.0533 0.693497,0.1447 0.693497,0.1447 0.139845,0.0403 0.220883,0.18599 0.181385,0.32607 0,0 -0.08742,0.30631 -0.238229,0.65061 -0.06422,0.14662 -0.13824,0.30103 -0.225826,0.44804 0.428677,-0.21349 0.603826,-0.63388 0.754991,-0.97723 0.150806,-0.3443 0.238228,-0.65061 0.238228,-0.65061 0.03951,-0.14008 -0.04153,-0.28577 -0.181384,-0.32608 0,0 -0.314078,-0.0914 -0.693498,-0.14469 -0.18971,-0.0267 -0.395499,-0.0522 -0.599445,-0.0451 -0.203946,0.007 -0.406074,0.0475 -0.588077,0.15258 z"
         sodipodi:nodetypes="cccccsccccccc" />
      <path
         id="path1185"
         d="m -16.095703,311.66797 a 0.2645835,0.2645835 0 0 0 -0.265625,0.26367 v 5.55664 a 0.2645835,0.2645835 0 0 0 0.265625,0.26563 0.2645835,0.2645835 0 0 0 0.263672,-0.26563 v -5.55664 a 0.2645835,0.2645835 0 0 0 -0.263672,-0.26367 z"
         style="color:#000000;font-style:normal;font-variant:normal;font-weight:normal;font-stretch:normal;font-size:medium;line-height:normal;font-family:sans-serif;font-variant-ligatures:normal;font-variant-position:normal;font-variant-caps:normal;font-variant-numeric:normal;font-variant-alternates:normal;font-variant-east-asian:normal;font-feature-settings:normal;font-variation-settings:normal;text-indent:0;text-align:start;text-decoration:none;text-decoration-line:none;text-decoration-style:solid;text-decoration-color:#000000;letter-spacing:normal;word-spacing:normal;text-transform:none;writing-mode:lr-tb;direction:ltr;text-orientation:mixed;dominant-baseline:auto;baseline-shift:baseline;text-anchor:start;white-space:normal;shape-padding:0;shape-margin:0;inline-size:0;clip-rule:nonzero;display:inline;overflow:visible;visibility:visible;opacity:1;isolation:auto;mix-blend-mode:normal;color-interpolation:sRGB;color-interpolation-filters:linearRGB;solid-color:#000000;solid-opacity:1;vector-effect:none;fill:#64dd17;fill-opacity:1;fill-rule:nonzero;stroke:none;stroke-width:0.529167;stroke-linecap:round;stroke-linejoin:round;stroke-miterlimit:4;stroke-dasharray:none;stroke-dashoffset:0;stroke-opacity:1;color-rendering:auto;image-rendering:auto;shape-rendering:auto;text-rendering:auto;enable-background:accumulate;stop-color:#000000;stop-opacity:1" />
      <path
         id="path1116"
         style="color:#000000;font-style:normal;font-variant:normal;font-weight:normal;font-stretch:normal;font-size:medium;line-height:normal;font-family:sans-serif;font-variant-ligatures:normal;font-variant-position:normal;font-variant-caps:normal;font-variant-numeric:normal;font-variant-alternates:normal;font-variant-east-asian:normal;font-feature-settings:normal;font-variation-settings:normal;text-indent:0;text-align:start;text-decoration:none;text-decoration-line:none;text-decoration-style:solid;text-decoration-color:#000000;letter-spacing:normal;word-spacing:normal;text-transform:none;writing-mode:lr-tb;direction:ltr;text-orientation:mixed;dominant-baseline:auto;baseline-shift:baseline;text-anchor:start;white-space:normal;shape-padding:0;shape-margin:0;inline-size:0;clip-rule:nonzero;display:inline;overflow:visible;visibility:visible;opacity:1;isolation:auto;mix-blend-mode:normal;color-interpolation:sRGB;color-interpolation-filters:linearRGB;solid-color:#000000;solid-opacity:1;vector-effect:none;fill:#4aa111;fill-opacity:1;fill-rule:nonzero;stroke:none;stroke-width:0.529167;stroke-linecap:round;stroke-linejoin:round;stroke-miterlimit:4;stroke-dasharray:none;stroke-dashoffset:0;stroke-opacity:1;color-rendering:auto;image-rendering:auto;shape-rendering:auto;text-rendering:auto;enable-background:accumulate;stop-color:#000000;stop-opacity:1"
         d="m -16.095658,311.66784 c -0.146126,-5.7e-4 -0.265047,0.11742 -0.265617,0.26355 v 1.05833 h 0.529167 v -1.05833 c -5.67e-4,-0.14532 -0.118231,-0.26298 -0.26355,-0.26355 z"
         sodipodi:nodetypes="sccccs" />
      <path
         id="path1159"
         d="m -18.998722,308.90702 c -0.0014,0.0786 -0.0097,0.54343 0.05731,1.08921 0.0674,0.54893 0.178425,1.18428 0.568359,1.57422 0.289174,0.28923 0.714111,0.41388 1.136719,0.49805 0.490697,0.091 0.966137,0.12502 1.457031,0.12705 0.146175,-0.002 0.263368,-0.12141 0.261719,-0.26758 0,0 -0.0053,-1.13761 -0.332031,-1.96679 -0.08383,-0.21272 -0.190353,-0.41105 -0.347657,-0.56836 -0.381505,-0.38156 -1.000662,-0.5082 -1.537109,-0.58985 -0.536447,-0.0816 -0.996092,-0.088 -0.996092,-0.088 -0.146179,-0.003 -0.26688,0.11347 -0.268251,0.19206 z"
         style="color:#000000;font-style:normal;font-variant:normal;font-weight:normal;font-stretch:normal;font-size:medium;line-height:normal;font-family:sans-serif;font-variant-ligatures:normal;font-variant-position:normal;font-variant-caps:normal;font-variant-numeric:normal;font-variant-alternates:normal;font-variant-east-asian:normal;font-feature-settings:normal;font-variation-settings:normal;text-indent:0;text-align:start;text-decoration:none;text-decoration-line:none;text-decoration-style:solid;text-decoration-color:#000000;letter-spacing:normal;word-spacing:normal;text-transform:none;writing-mode:lr-tb;direction:ltr;text-orientation:mixed;dominant-baseline:auto;baseline-shift:baseline;text-anchor:start;white-space:normal;shape-padding:0;shape-margin:0;inline-size:0;clip-rule:nonzero;display:inline;overflow:visible;visibility:visible;isolation:auto;mix-blend-mode:normal;color-interpolation:sRGB;color-interpolation-filters:linearRGB;solid-color:#000000;solid-opacity:1;vector-effect:none;fill:#b20030;fill-opacity:1;fill-rule:nonzero;stroke:none;stroke-width:0.529167;stroke-linecap:round;stroke-linejoin:round;stroke-miterlimit:4;stroke-dasharray:none;stroke-dashoffset:0;stroke-opacity:1;color-rendering:auto;image-rendering:auto;shape-rendering:auto;text-rendering:auto;enable-background:accumulate;stop-color:#000000"
         sodipodi:nodetypes="ccccccccccc" />
      <path
         id="path1093"
         style="color:#000000;font-style:normal;font-variant:normal;font-weight:normal;font-stretch:normal;font-size:medium;line-height:normal;font-family:sans-serif;font-variant-ligatures:normal;font-variant-position:normal;font-variant-caps:normal;font-variant-numeric:normal;font-variant-alternates:normal;font-variant-east-asian:normal;font-feature-settings:normal;font-variation-settings:normal;text-indent:0;text-align:start;text-decoration:none;text-decoration-line:none;text-decoration-style:solid;text-decoration-color:#000000;letter-spacing:normal;word-spacing:normal;text-transform:none;writing-mode:lr-tb;direction:ltr;text-orientation:mixed;dominant-baseline:auto;baseline-shift:baseline;text-anchor:start;white-space:normal;shape-padding:0;shape-margin:0;inline-size:0;clip-rule:nonzero;display:inline;overflow:visible;visibility:visible;isolation:auto;mix-blend-mode:normal;color-interpolation:sRGB;color-interpolation-filters:linearRGB;solid-color:#000000;solid-opacity:1;vector-effect:none;fill:#b20030;fill-opacity:1;fill-rule:nonzero;stroke:none;stroke-width:0.529167;stroke-linecap:round;stroke-linejoin:round;stroke-miterlimit:4;stroke-dasharray:none;stroke-dashoffset:0;stroke-opacity:1;color-rendering:auto;image-rendering:auto;shape-rendering:auto;text-rendering:auto;enable-background:accumulate;stop-color:#000000"
         d="m -16.01994,307.51166 c -0.308825,0.30883 -0.419841,0.77442 -0.494027,1.19528 -0.07419,0.42086 -0.08861,0.80123 -0.09198,0.91416 -0.0012,0.0425 0.0078,0.0847 0.02636,0.12299 0.01361,-0.1501 0.033,-0.3229 0.06563,-0.50798 0.07419,-0.42086 0.185202,-0.88645 0.494027,-1.19528 0.339904,-0.33992 0.875032,-0.44346 1.336352,-0.51366 0.440283,-0.0673 0.784238,-0.0717 0.876552,-0.0749 0.09231,-0.003 0.19298,0.0652 0.23242,0.16956 0.04313,-0.39998 0.04307,-0.69134 -0.251634,-0.70024 -0.333239,0.0249 -0.595062,0.0374 -0.956865,0.092 -0.361803,0.0546 -0.896931,0.15815 -1.236835,0.49807 z"
         sodipodi:nodetypes="cscccccccccc" />
      <path
         id="path1098"
         style="color:#000000;font-style:normal;font-variant:normal;font-weight:normal;font-stretch:normal;font-size:medium;line-height:normal;font-family:sans-serif;font-variant-ligatures:normal;font-variant-position:normal;font-variant-caps:normal;font-variant-numeric:normal;font-variant-alternates:normal;font-variant-east-asian:normal;font-feature-settings:normal;font-variation-settings:normal;text-indent:0;text-align:start;text-decoration:none;text-decoration-line:none;text-decoration-style:solid;text-decoration-color:#000000;letter-spacing:normal;word-spacing:normal;text-transform:none;writing-mode:lr-tb;direction:ltr;text-orientation:mixed;dominant-baseline:auto;baseline-shift:baseline;text-anchor:start;white-space:normal;shape-padding:0;shape-margin:0;inline-size:0;clip-rule:nonzero;display:inline;overflow:visible;visibility:visible;isolation:auto;mix-blend-mode:normal;color-interpolation:sRGB;color-interpolation-filters:linearRGB;solid-color:#000000;solid-opacity:1;vector-effect:none;fill:#b20030;fill-opacity:1;fill-rule:nonzero;stroke:none;stroke-width:0.529167;stroke-linecap:round;stroke-linejoin:round;stroke-miterlimit:4;stroke-dasharray:none;stroke-dashoffset:0;stroke-opacity:1;color-rendering:auto;image-rendering:auto;shape-rendering:auto;text-rendering:auto;enable-background:accumulate;stop-color:#000000"
         d="m -14.459066,308.80295 c -0.536447,0.0817 -1.155351,0.20807 -1.536857,0.58963 -0.213431,0.24819 -0.347782,0.47747 -0.347782,0.76377 0.02344,0.0595 0.04312,0.12496 0.06304,0.19017 0.07363,-0.15766 0.163937,-0.30397 0.284737,-0.42478 0.381506,-0.38155 1.00041,-0.50793 1.536857,-0.58963 0.536447,-0.0819 0.996322,-0.0879 0.996322,-0.0879 0.117596,-0.002 0.222444,0.0737 0.257349,0.18604 0.01318,-0.26593 0.01188,-0.45579 0.01188,-0.45579 -0.0028,-0.14592 -0.123306,-0.26199 -0.196265,-0.2607 0,0 -0.532834,0.007 -1.069281,0.0892 z"
         sodipodi:nodetypes="cccccccccccc" />
      <path
         id="path260"
         style="color:#000000;font-style:normal;font-variant:normal;font-weight:normal;font-stretch:normal;font-size:medium;line-height:normal;font-family:sans-serif;font-variant-ligatures:normal;font-variant-position:normal;font-variant-caps:normal;font-variant-numeric:normal;font-variant-alternates:normal;font-variant-east-asian:normal;font-feature-settings:normal;font-variation-settings:normal;text-indent:0;text-align:start;text-decoration:none;text-decoration-line:none;text-decoration-style:solid;text-decoration-color:#000000;letter-spacing:normal;word-spacing:normal;text-transform:none;writing-mode:lr-tb;direction:ltr;text-orientation:mixed;dominant-baseline:auto;baseline-shift:baseline;text-anchor:start;white-space:normal;shape-padding:0;shape-margin:0;inline-size:0;clip-rule:nonzero;display:inline;overflow:visible;visibility:visible;isolation:auto;mix-blend-mode:normal;color-interpolation:sRGB;color-interpolation-filters:linearRGB;solid-color:#000000;solid-opacity:1;vector-effect:none;fill:#990027;fill-opacity:1;fill-rule:nonzero;stroke:none;stroke-width:0.529167;stroke-linecap:round;stroke-linejoin:round;stroke-miterlimit:4;stroke-dasharray:none;stroke-dashoffset:0;stroke-opacity:1;color-rendering:auto;image-rendering:auto;shape-rendering:auto;text-rendering:auto;enable-background:accumulate;stop-color:#000000"
         d="m -18.998536,308.90558 c -0.0014,0.077 -0.0021,0.19541 0.0022,0.35039 0.184983,0.0107 0.434226,0.0306 0.732771,0.076 0.536447,0.0817 1.155352,0.20858 1.536857,0.59014 0.157305,0.15731 0.263953,0.35521 0.347783,0.56793 0.232429,0.58986 0.299484,1.32025 0.320394,1.7017 0.15036,0.004 0.279052,0.004 0.279052,0.004 0.146329,-10e-4 0.26371,-0.12136 0.262,-0.26769 0,0 -0.0055,-1.13762 -0.33228,-1.9668 -0.08383,-0.21272 -0.190478,-0.41062 -0.347782,-0.56793 -0.381505,-0.38156 -1.00041,-0.50849 -1.536857,-0.59014 -0.536447,-0.0816 -1.069279,-0.0893 -1.069279,-0.0893 -0.07296,-0.001 -0.193419,0.1147 -0.19486,0.19167 z"
         sodipodi:nodetypes="ccccccccscccc" />
    </g>
  </g>
</svg>
