<?xml version="1.0" encoding="UTF-8" standalone="no"?>
<!-- Created with Inkscape (http://www.inkscape.org/) -->

<svg
   width="48pt"
   height="48pt"
   viewBox="0 0 16.933334 16.933333"
   version="1.1"
   id="svg979"
   inkscape:version="1.1 (c68e22c387, 2021-05-23)"
   sodipodi:docname="25 - Eco Lightbulb.svg"
   inkscape:export-filename="E:\TR Design Studio Creative\Project Design\TR Creative Design\Icon Design\Project Hiring\Icon Icons\006 - Ecology\Send\3 - Flat\25 - Eco Lightbulb.png"
   inkscape:export-xdpi="768"
   inkscape:export-ydpi="768"
   xmlns:inkscape="http://www.inkscape.org/namespaces/inkscape"
   xmlns:sodipodi="http://sodipodi.sourceforge.net/DTD/sodipodi-0.dtd"
   xmlns="http://www.w3.org/2000/svg"
   xmlns:svg="http://www.w3.org/2000/svg"
   xmlns:rdf="http://www.w3.org/1999/02/22-rdf-syntax-ns#"
   xmlns:cc="http://creativecommons.org/ns#"
   xmlns:dc="http://purl.org/dc/elements/1.1/">
  <defs
     id="defs973" />
  <sodipodi:namedview
     id="base"
     pagecolor="#ffffff"
     bordercolor="#666666"
     borderopacity="1.0"
     inkscape:pageopacity="0.0"
     inkscape:pageshadow="2"
     inkscape:zoom="7.6875"
     inkscape:cx="32"
     inkscape:cy="32"
     inkscape:document-units="pt"
     inkscape:current-layer="layer1"
     showgrid="false"
     units="pt"
     inkscape:window-width="1366"
     inkscape:window-height="716"
     inkscape:window-x="-8"
     inkscape:window-y="-8"
     inkscape:window-maximized="1"
     inkscape:pagecheckerboard="0"
     inkscape:snap-bbox="true"
     inkscape:snap-nodes="false"
     inkscape:bbox-nodes="true"
     showguides="false">
    <inkscape:grid
       type="xygrid"
       id="grid1526" />
    <sodipodi:guide
       position="0.97013909,15.963209"
       orientation="56.666615,0"
       id="guide1528"
       inkscape:locked="false" />
    <sodipodi:guide
       position="0.97013909,0.97016731"
       orientation="0,56.666667"
       id="guide1530"
       inkscape:locked="false" />
    <sodipodi:guide
       position="15.963195,0.97016731"
       orientation="-56.666615,0"
       id="guide1532"
       inkscape:locked="false" />
    <sodipodi:guide
       position="15.963195,15.963209"
       orientation="0,-56.666667"
       id="guide1534"
       inkscape:locked="false" />
  </sodipodi:namedview>
  <metadata
     id="metadata976">
    <rdf:RDF>
      <cc:Work
         rdf:about="">
        <dc:format>image/svg+xml</dc:format>
        <dc:type
           rdf:resource="http://purl.org/dc/dcmitype/StillImage" />
      </cc:Work>
    </rdf:RDF>
  </metadata>
  <g
     inkscape:label="Layer 1"
     inkscape:groupmode="layer"
     id="layer1"
     transform="translate(0,-280.06668)">
    <g
       id="g2228"
       transform="matrix(1.2245025,0,0,1.2245025,-1.9850758,-65.450796)"
       style="stroke-width:0.816658">
      <path
         style="color:#000000;display:inline;fill:#fff79c;stroke-width:0.816658;stroke-linecap:round;stroke-linejoin:round;-inkscape-stroke:none;paint-order:markers fill stroke"
         d="m 8.53649,283.07917 c -2.173784,0 -3.94336,1.76761 -3.94336,3.9414 7.28e-4,0.819 0.257976,1.61045 0.720704,2.26758 0.296231,0.42069 0.765929,1.06548 0.839843,1.42969 0.05487,0.27034 0.09126,0.5576 0.138672,0.86914 a 0.26461046,0.26461046 0 0 0 0.261719,0.22461 h 3.962891 a 0.26461046,0.26461046 0 0 0 0.263671,-0.23828 c 0.02897,-0.27959 0.07369,-0.56979 0.136719,-0.84766 0.08469,-0.37335 0.548194,-1.02233 0.841797,-1.43945 0.462431,-0.65699 0.718028,-1.44692 0.71875,-2.26563 0,-2.17379 -1.767623,-3.9414 -3.941406,-3.9414 z"
         id="path432356" />
      <path
         id="path460115"
         style="color:#000000;display:inline;fill:#fed883;fill-opacity:1;stroke-width:0.816658;stroke-linecap:round;stroke-linejoin:round;-inkscape-stroke:none;paint-order:markers fill stroke"
         d="m 8.138111,283.09938 c -0.690999,0.0696 -1.330007,0.31813 -1.869654,0.69867 0.381442,-0.1232 0.787871,-0.18965 1.209746,-0.18965 2.084486,0 3.795009,1.62546 3.932058,3.67574 -0.04918,0.72383 -0.296929,1.41577 -0.709517,2.00195 -0.293603,0.41712 -0.757119,1.06635 -0.841809,1.4397 -0.06303,0.27787 -0.107456,0.56791 -0.136425,0.8475 -0.01357,0.13554 -0.127846,0.23863 -0.264067,0.23823 h 0.299722 0.758611 c 0.136221,5.2e-4 0.250486,-0.10269 0.264068,-0.23823 0.0072,-0.0699 0.01558,-0.14051 0.02479,-0.21136 0.04125,-0.80009 0.49171,-1.41993 0.953429,-2.07584 0.463243,-0.67791 0.714187,-1.45523 0.71882,-2.2655 0,-1.18879 -0.528617,-2.25599 -1.363224,-2.97914 -0.834702,-0.72778 -1.89871,-1.02432 -2.976562,-0.94207 z"
         sodipodi:nodetypes="ccscsscccccccccc" />
      <g
         id="g2200"
         style="stroke-width:0.816658">
        <path
           id="path16385"
           style="color:#000000;display:inline;fill:#9a605c;stroke-width:0.816658;stroke-linecap:round;stroke-linejoin:round;-inkscape-stroke:none;paint-order:markers fill stroke"
           d="m 8.800085,284.89928 c 0,-0.0913 0.06886,-0.1602 0.1601972,-0.1602 0.09134,0 0.1601946,0.0688 0.1601973,0.1602 -5.292e-4,0.14612 0.1174247,0.26504 0.2635488,0.26561 0.1461241,-5.3e-4 0.2641203,-0.11949 0.2635488,-0.26561 -2.6e-6,-0.37732 -0.3099938,-0.68937 -0.6872949,-0.68937 -0.3773011,0 -0.6893586,0.31205 -0.6893639,0.68937 v 6.64662 c -5.292e-4,0.14694 0.1186736,0.26619 0.2656178,0.26562 0.146177,-5.3e-4 0.2641283,-0.11944 0.2635489,-0.26562 0,-2.21554 0,-4.43108 0,-6.64662 z"
           sodipodi:nodetypes="cscccsccccc" />
        <path
           style="color:#000000;display:inline;fill:#50b86b;stroke-width:0.816658;stroke-linecap:round;stroke-linejoin:round;-inkscape-stroke:none;paint-order:markers fill stroke"
           d="m 7.804068,288.62409 c -0.251683,0.003 -0.462891,0.043 -0.462891,0.043 a 0.26461046,0.26461046 0 0 0 -0.214843,0.21289 c 0,0 -0.03963,0.21291 -0.04297,0.46484 -0.0033,0.25194 -0.0094,0.56477 0.230469,0.80469 0.239843,0.23985 0.550922,0.23186 0.802734,0.22851 0.251811,-0.003 0.464844,-0.041 0.464844,-0.041 a 0.26461046,0.26461046 0 0 0 0.21875,-0.27539 c 0,0 -0.0177,-0.29604 -0.0078,-0.62305 a 0.26461046,0.26461046 0 0 0 0,-0.0332 c -0.0087,-0.095 -0.02195,-0.18781 -0.04492,-0.27735 -0.02297,-0.0895 -0.04479,-0.17953 -0.138672,-0.27343 a 0.26461046,0.26461046 0 0 0 -0.002,0 C 8.36695,288.61479 8.056176,288.62078 7.804035,288.62413 Z"
           id="path432422" />
        <path
           style="color:#000000;display:inline;fill:#50b86b;stroke-width:0.816658;stroke-linecap:round;stroke-linejoin:round;-inkscape-stroke:none;paint-order:markers fill stroke"
           d="m 7.460318,285.25299 c -0.359148,0.005 -0.664063,0.0605 -0.664063,0.0605 a 0.26461046,0.26461046 0 0 0 -0.214843,0.21289 c 0,0 -0.05384,0.30492 -0.05859,0.66406 -0.0048,0.35915 0.0028,0.79384 0.302734,1.09375 0.299907,0.29991 0.732653,0.3075 1.091797,0.30274 0.359144,-0.005 0.664063,-0.0605 0.664063,-0.0605 a 0.26461046,0.26461046 0 0 0 0.21875,-0.24609 c 0,0 0.01832,-0.3281 0.0059,-0.69336 -0.0062,-0.18263 -0.01991,-0.37609 -0.05078,-0.55078 -0.03087,-0.1747 -0.05352,-0.33282 -0.201172,-0.48047 -0.299905,-0.29992 -0.734603,-0.30749 -1.09375,-0.30274 z"
           id="path432430" />
        <path
           style="color:#000000;display:inline;fill:#50b86b;stroke-width:0.816658;stroke-linecap:round;stroke-linejoin:round;-inkscape-stroke:none;paint-order:markers fill stroke"
           d="m 9.266959,285.81354 c -0.252132,-0.003 -0.562912,-0.009 -0.802735,0.23047 -0.09389,0.0939 -0.117657,0.1839 -0.140625,0.27344 -0.02297,0.0895 -0.03625,0.1824 -0.04492,0.27734 a 0.26461046,0.26461046 0 0 0 0,0.0332 c 0.0099,0.32702 -0.0078,0.62305 -0.0078,0.62305 a 0.26461046,0.26461046 0 0 0 0.21875,0.27539 c 0,0 0.213032,0.0377 0.464844,0.041 0.251811,0.003 0.56289,0.0113 0.802734,-0.22852 0.239916,-0.23991 0.233812,-0.55275 0.230469,-0.80469 -0.0033,-0.25193 -0.04297,-0.46484 -0.04297,-0.46484 a 0.26461046,0.26461046 0 0 0 -0.212891,-0.21289 c 0,0 -0.213161,-0.0396 -0.464843,-0.043 z"
           id="path432444" />
        <path
           style="color:#000000;display:inline;fill:#50b86b;fill-opacity:1;stroke-width:0.816658;stroke-linecap:round;stroke-linejoin:round;-inkscape-stroke:none;paint-order:markers fill stroke"
           d="m 9.610709,288.06354 c -0.359148,-0.005 -0.793845,0.003 -1.09375,0.30274 -0.147656,0.14765 -0.170299,0.30577 -0.201172,0.48046 -0.03087,0.1747 -0.04455,0.36815 -0.05078,0.55079 -0.01246,0.36526 0.0059,0.69336 0.0059,0.69336 a 0.26461046,0.26461046 0 0 0 0.21875,0.24609 c 0,0 0.304918,0.0558 0.664062,0.0606 0.359145,0.005 0.79189,-0.003 1.091797,-0.30274 0.299906,-0.29991 0.30749,-0.7346 0.302735,-1.09375 -0.0048,-0.35914 -0.05859,-0.66406 -0.05859,-0.66406 a 0.26461046,0.26461046 0 0 0 -0.214844,-0.21289 c 0,0 -0.304915,-0.0558 -0.664062,-0.0606 z"
           id="path16961" />
        <path
           id="path438605"
           style="color:#000000;display:inline;fill:#46a05d;fill-opacity:1;stroke-width:0.816658;stroke-linecap:round;stroke-linejoin:round;-inkscape-stroke:none;paint-order:markers fill stroke"
           d="m 9.170089,285.81291 c -0.231675,1.2e-4 -0.496057,0.0215 -0.705901,0.231 -0.09389,0.0939 -0.117591,0.18383 -0.140559,0.27337 -0.0046,0.0179 -0.0085,0.0361 -0.0124,0.0543 0.145828,-0.0326 0.294074,-0.0305 0.426331,-0.0289 0.251682,0.003 0.465087,0.0429 0.465087,0.0429 a 0.26461045,0.26461045 0 0 1 0.212908,0.21291 c 0,0 0.03959,0.21315 0.04289,0.46508 0.0019,0.14404 0.0045,0.3078 -0.03824,0.46664 0.118552,-0.0316 0.234252,-0.0885 0.336931,-0.1912 0.239916,-0.23991 0.23382,-0.55266 0.230476,-0.8046 -0.0033,-0.25193 -0.04289,-0.46509 -0.04289,-0.46509 a 0.26461045,0.26461045 0 0 0 -0.212907,-0.21291 c 0,0 -0.213405,-0.0395 -0.465087,-0.0429 -0.03152,-3.7e-4 -0.06354,-5.3e-4 -0.09663,-5.2e-4 z" />
        <path
           id="path449074"
           style="color:#000000;display:inline;fill:#46a05d;fill-opacity:1;stroke-width:0.816658;stroke-linecap:round;stroke-linejoin:round;-inkscape-stroke:none;paint-order:markers fill stroke"
           d="m 7.528328,285.25222 c -0.02299,1.4e-4 -0.04577,2.2e-4 -0.06821,5.2e-4 -0.359148,0.005 -0.664043,0.061 -0.664043,0.061 a 0.26461045,0.26461045 0 0 0 -0.214458,0.21291 c 0,0 -0.02008,0.11163 -0.03669,0.27905 0.10982,-0.0113 0.243395,-0.0218 0.386024,-0.0238 0.359146,-0.005 0.794084,0.003 1.093989,0.30282 0.147653,0.14765 0.170151,0.30589 0.201022,0.48059 0.03087,0.17469 0.04496,0.36824 0.05116,0.55087 0.0057,0.16787 0.0046,0.32618 0.0021,0.4501 0.180335,-0.0176 0.302308,-0.0398 0.302308,-0.0398 a 0.26461045,0.26461045 0 0 0 0.218591,-0.24597 c 0,0 0.01862,-0.32824 0.0062,-0.6935 -0.0062,-0.18263 -0.02029,-0.37618 -0.05116,-0.55087 -0.03087,-0.1747 -0.05337,-0.33294 -0.201023,-0.4806 -0.281159,-0.28117 -0.680992,-0.30532 -1.025776,-0.30334 z" />
        <path
           id="path452357"
           style="color:#000000;display:inline;fill:#46a05d;fill-opacity:1;stroke-width:0.816658;stroke-linecap:round;stroke-linejoin:round;-inkscape-stroke:none;paint-order:markers fill stroke"
           d="m 9.472912,288.06291 c -0.327906,0.002 -0.693597,0.0411 -0.956013,0.30334 -0.09735,0.0973 -0.140063,0.19927 -0.166915,0.30747 0.23781,-0.082 0.500406,-0.0844 0.731737,-0.0811 0.359148,0.005 0.664043,0.0605 0.664043,0.0605 a 0.26461045,0.26461045 0 0 1 0.214974,0.21291 c 0,0 0.05359,0.30542 0.05839,0.66456 0.0032,0.24434 7.57e-4,0.52348 -0.0956,0.77153 0.116437,-0.0453 0.225954,-0.11129 0.321945,-0.20723 0.299905,-0.29991 0.307578,-0.73484 0.302823,-1.09399 -0.0048,-0.35914 -0.05839,-0.66404 -0.05839,-0.66404 a 0.26461045,0.26461045 0 0 0 -0.214974,-0.2129 c 0,0 -0.304896,-0.0557 -0.664044,-0.0605 -0.04489,-6.2e-4 -0.09113,-8.4e-4 -0.137975,-5.1e-4 z" />
        <path
           id="path454080"
           style="color:#000000;display:inline;fill:#46a05d;fill-opacity:1;stroke-width:0.816658;stroke-linecap:round;stroke-linejoin:round;-inkscape-stroke:none;paint-order:markers fill stroke"
           d="m 7.900914,288.62308 c -0.0331,2e-5 -0.06512,6.1e-4 -0.09663,10e-4 -0.251685,0.003 -0.463021,0.0429 -0.463021,0.0429 a 0.26461045,0.26461045 0 0 0 -0.214974,0.21291 c 0,0 -0.0215,0.11769 -0.03411,0.28164 0.05634,-0.004 0.118396,-0.007 0.182936,-0.008 0.25214,-0.003 0.562716,-0.009 0.802534,0.23048 a 0.26461045,0.26461045 0 0 1 0.0021,0 c 0.09388,0.0939 0.115523,0.18386 0.138494,0.27336 0.02297,0.0895 0.03626,0.18251 0.04496,0.27751 a 0.26461045,0.26461045 0 0 1 0,0.002 0.26461045,0.26461045 0 0 1 0,0.002 0.26461045,0.26461045 0 0 1 5.19e-4,0.002 0.26461045,0.26461045 0 0 1 0,0.002 0.26461045,0.26461045 0 0 0 0,5.2e-4 0.26461045,0.26461045 0 0 1 0,0.002 0.26461045,0.26461045 0 0 1 0,0.002 0.26461045,0.26461045 0 0 1 0,0.002 0.26461045,0.26461045 0 0 1 0,0.002 0.26461045,0.26461045 0 0 1 0,0.002 0.26461045,0.26461045 0 0 1 0,0.002 0.26461045,0.26461045 0 0 0 0,5.1e-4 0.26461045,0.26461045 0 0 1 0,0.002 0.26461045,0.26461045 0 0 1 0,0.002 0.26461045,0.26461045 0 0 1 0,0.002 0.26461045,0.26461045 0 0 1 0,0.002 0.26461045,0.26461045 0 0 1 0,0.002 0.26461045,0.26461045 0 0 1 0,0.002 0.26461045,0.26461045 0 0 0 0,5.2e-4 0.26461045,0.26461045 0 0 1 0,0.002 0.26461045,0.26461045 0 0 1 -5.19e-4,0.002 0.26461045,0.26461045 0 0 1 0,0.002 0.26461045,0.26461045 0 0 1 0,0.002 0.26461045,0.26461045 0 0 0 0,5.2e-4 c -0.0046,0.15079 -0.0032,0.29351 -5.16e-4,0.40514 0.182782,-0.0113 0.318844,-0.0356 0.318844,-0.0356 a 0.26461045,0.26461045 0 0 0 0.218591,-0.27544 c 0,0 -0.01765,-0.29621 -0.0078,-0.62322 a 0.26461045,0.26461045 0 0 0 0,-5.1e-4 0.26461045,0.26461045 0 0 0 0,-0.002 0.26461045,0.26461045 0 0 0 0,-0.002 0.26461045,0.26461045 0 0 0 5.18e-4,-0.002 0.26461045,0.26461045 0 0 0 0,-0.002 0.26461045,0.26461045 0 0 0 0,-0.002 0.26461045,0.26461045 0 0 0 0,-5.2e-4 0.26461045,0.26461045 0 0 0 0,-0.002 0.26461045,0.26461045 0 0 0 0,-0.002 0.26461045,0.26461045 0 0 0 0,-0.002 0.26461045,0.26461045 0 0 0 0,-0.002 0.26461045,0.26461045 0 0 0 0,-0.002 0.26461045,0.26461045 0 0 0 0,-5.2e-4 0.26461045,0.26461045 0 0 0 0,-0.002 0.26461045,0.26461045 0 0 0 0,-0.002 0.26461045,0.26461045 0 0 0 0,-0.002 0.26461045,0.26461045 0 0 0 0,-0.002 0.26461045,0.26461045 0 0 0 0,-0.002 0.26461045,0.26461045 0 0 0 0,-0.002 0.26461045,0.26461045 0 0 0 0,-5.2e-4 0.26461045,0.26461045 0 0 0 0,-0.002 0.26461045,0.26461045 0 0 0 -5.18e-4,-0.002 0.26461045,0.26461045 0 0 0 0,-0.002 0.26461045,0.26461045 0 0 0 0,-0.002 c -0.0087,-0.095 -0.02199,-0.18796 -0.04496,-0.2775 -0.02297,-0.0895 -0.04461,-0.17947 -0.138494,-0.27337 a 0.26461045,0.26461045 0 0 0 -0.0021,0 c -0.209841,-0.20984 -0.474224,-0.23162 -0.705901,-0.23151 z" />
      </g>
      <g
         id="g2207"
         style="stroke-width:0.816658">
        <path
           style="color:#000000;display:inline;fill:#0f2437;fill-opacity:1;stroke-width:0.816658;stroke-linecap:round;stroke-linejoin:round;-inkscape-stroke:none;paint-order:markers fill stroke"
           d="m 7.403677,293.54596 a 0.26461046,0.26461046 0 0 0 -0.263672,0.26368 c -5e-6,0.76785 0.628629,1.39648 1.396485,1.39648 0.767856,0 1.394536,-0.62863 1.394531,-1.39648 a 0.26461046,0.26461046 0 0 0 -0.263672,-0.26368 z"
           id="path432342" />
        <path
           style="color:#000000;display:inline;fill:#aabfd0;stroke-width:0.816658;stroke-linecap:round;stroke-linejoin:round;-inkscape-stroke:none;paint-order:markers fill stroke"
           d="m 7.120474,292.41315 c -0.455403,0 -0.830078,0.37468 -0.830078,0.83008 0,0.4554 0.374675,0.83008 0.830078,0.83008 h 2.830078 c 0.455403,0 0.830078,-0.37468 0.830078,-0.83008 0,-0.4554 -0.374675,-0.83008 -0.830078,-0.83008 z"
           id="path432364" />
        <path
           id="path464636"
           style="color:#000000;display:inline;fill:#7d8e9e;fill-opacity:1;stroke-width:0.816658;stroke-linecap:round;stroke-linejoin:round;-inkscape-stroke:none;paint-order:markers fill stroke"
           d="m 7.1206,292.41303 c -0.43495,-0.01 -0.828309,0.37424 -0.830166,0.80915 0.0015,0.0922 -0.01628,0.24104 0.115354,0.20112 1.047047,-10e-4 2.09416,0.003 3.141165,-0.002 0.523938,0 0.751486,0.0829 0.662338,0.61051 0.387175,-0.12255 0.645938,-0.55342 0.555137,-0.9528 -0.07285,-0.39875 -0.468455,-0.69721 -0.871033,-0.66621 l -2.772797,5.1e-4 z"
           sodipodi:nodetypes="ccccccccc" />
        <path
           style="color:#000000;display:inline;fill:#d0e2ee;stroke-width:0.816658;stroke-linecap:round;stroke-linejoin:round;-inkscape-stroke:none;paint-order:markers fill stroke"
           d="m 6.556021,291.28229 c -0.455409,0 -0.830078,0.37467 -0.830078,0.83008 0,0.45541 0.374669,0.83008 0.830078,0.83008 h 3.958984 c 0.45541,0 0.830079,-0.37467 0.830079,-0.83008 0,-0.45541 -0.374669,-0.83008 -0.830079,-0.83008 z"
           id="path432378" />
        <path
           id="path463225"
           style="color:#000000;display:inline;fill:#aabfd0;fill-opacity:1;stroke-width:0.816658;stroke-linecap:round;stroke-linejoin:round;-inkscape-stroke:none;paint-order:markers fill stroke"
           d="m 6.555778,291.28235 c -0.365294,0 -0.678362,0.24111 -0.788066,0.57154 0.08174,-0.0272 0.168497,-0.0424 0.2589,-0.0424 h 3.959447 c 0.455411,0 0.829924,0.37451 0.829924,0.82992 0,0.0902 -0.01525,0.17729 -0.04238,0.2589 0.33038,-0.10974 0.571543,-0.42281 0.571543,-0.78807 0,-0.45541 -0.374513,-0.82992 -0.829924,-0.82992 z" />
      </g>
      <path
         id="path15191"
         style="color:#000000;display:inline;fill:#ec7523;stroke-width:0.816658;stroke-linecap:round;stroke-linejoin:round;-inkscape-stroke:none;paint-order:markers fill stroke"
         d="m 4.7217816,282.96193 a 0.26458399,0.26458399 0 0 0 -0.1855179,0.078 0.26458399,0.26458399 0 0 0 0,0.3731 l 0.3984228,0.40049 a 0.26458399,0.26458399 0 0 0 0.3751713,0 0.26458399,0.26458399 0 0 0 0,-0.37517 l -0.4004919,-0.39842 a 0.26458399,0.26458399 0 0 0 -0.1875843,-0.078 z m 7.6274404,0 a 0.26458399,0.26458399 0 0 0 -0.187585,0.078 l -0.400492,0.39842 a 0.26458399,0.26458399 0 0 0 0,0.37517 0.26458399,0.26458399 0 0 0 0.375169,0 l 0.398426,-0.40049 a 0.26458399,0.26458399 0 0 0 0,-0.3731 0.26458399,0.26458399 0 0 0 -0.185518,-0.078 z m -9.030457,2.4169 a 0.26458399,0.26458399 0 0 0 -0.2470123,0.19637 0.26458399,0.26458399 0 0 0 0.1875843,0.32453 l 0.5467376,0.14624 a 0.26458399,0.26458399 0 0 0 0.3240114,-0.18758 0.26458399,0.26458399 0 0 0 -0.1875869,-0.32401 l -0.546735,-0.14676 a 0.26458399,0.26458399 0 0 0 -0.076999,-0.009 z m 10.433473,0 a 0.26458399,0.26458399 0 0 0 -0.077,0.009 l -0.546737,0.14676 a 0.26458399,0.26458399 0 0 0 -0.185518,0.32401 0.26458399,0.26458399 0 0 0 0.321945,0.18758 l 0.546737,-0.14624 a 0.26458399,0.26458399 0 0 0 0.187585,-0.32453 0.26458399,0.26458399 0 0 0 -0.247013,-0.19637 z m -9.8950036,2.6448 a 0.26458399,0.26458399 0 0 0 -0.05116,0.009 l -0.5467376,0.14624 a 0.26458399,0.26458399 0 0 0 -0.1875843,0.32453 0.26458399,0.26458399 0 0 0 0.3240114,0.18707 l 0.546735,-0.14625 A 0.26458399,0.26458399 0 0 0 4.130086,288.22 0.26458399,0.26458399 0 0 0 3.8572344,288.02363 Z m 9.3306956,5.3e-4 a 0.26458399,0.26458399 0 0 0 -0.244946,0.19586 0.26458399,0.26458399 0 0 0 0.185518,0.32401 l 0.546737,0.14624 a 0.26458399,0.26458399 0 0 0 0.324012,-0.18707 0.26458399,0.26458399 0 0 0 -0.187585,-0.32452 l -0.546737,-0.14625 a 0.26458399,0.26458399 0 0 0 -0.077,-0.008 z m -8.0656565,2.16266 a 0.26458399,0.26458399 0 0 0 -0.187587,0.078 l -0.3984228,0.40049 a 0.26458399,0.26458399 0 0 0 0,0.37259 0.26458399,0.26458399 0 0 0 0.3731022,0 l 0.4004919,-0.39842 a 0.26458399,0.26458399 0 0 0 0,-0.37466 0.26458399,0.26458399 0 0 0 -0.1875843,-0.078 z m 6.8264565,0 a 0.26458399,0.26458399 0 0 0 -0.187585,0.078 0.26458399,0.26458399 0 0 0 0,0.37466 l 0.400492,0.39842 a 0.26458399,0.26458399 0 0 0 0.373103,0 0.26458399,0.26458399 0 0 0 0,-0.37259 l -0.398426,-0.40049 a 0.26458399,0.26458399 0 0 0 -0.187584,-0.078 z" />
    </g>
  </g>
</svg>
