<?xml version="1.0" encoding="UTF-8" standalone="no"?>
<!-- Created with Inkscape (http://www.inkscape.org/) -->

<svg
   width="48pt"
   height="48pt"
   viewBox="0 0 16.933334 16.933333"
   version="1.1"
   id="svg979"
   inkscape:version="1.1 (c68e22c387, 2021-05-23)"
   sodipodi:docname="30 - Island.svg"
   inkscape:export-filename="E:\TR Design Studio Creative\Project Design\TR Creative Design\Icon Design\Project Hiring\Icon Icons\006 - Ecology\Send\3 - Flat\30 - Island.png"
   inkscape:export-xdpi="768"
   inkscape:export-ydpi="768"
   xmlns:inkscape="http://www.inkscape.org/namespaces/inkscape"
   xmlns:sodipodi="http://sodipodi.sourceforge.net/DTD/sodipodi-0.dtd"
   xmlns="http://www.w3.org/2000/svg"
   xmlns:svg="http://www.w3.org/2000/svg"
   xmlns:rdf="http://www.w3.org/1999/02/22-rdf-syntax-ns#"
   xmlns:cc="http://creativecommons.org/ns#"
   xmlns:dc="http://purl.org/dc/elements/1.1/">
  <defs
     id="defs973" />
  <sodipodi:namedview
     id="base"
     pagecolor="#ffffff"
     bordercolor="#666666"
     borderopacity="1.0"
     inkscape:pageopacity="0.0"
     inkscape:pageshadow="2"
     inkscape:zoom="7.6875"
     inkscape:cx="32"
     inkscape:cy="32"
     inkscape:document-units="pt"
     inkscape:current-layer="layer1"
     showgrid="false"
     units="pt"
     inkscape:window-width="1366"
     inkscape:window-height="716"
     inkscape:window-x="-8"
     inkscape:window-y="-8"
     inkscape:window-maximized="1"
     inkscape:pagecheckerboard="0"
     inkscape:snap-bbox="true"
     inkscape:snap-nodes="false"
     inkscape:bbox-nodes="true"
     showguides="false">
    <inkscape:grid
       type="xygrid"
       id="grid1526" />
    <sodipodi:guide
       position="0.97013909,15.963209"
       orientation="56.666615,0"
       id="guide1528"
       inkscape:locked="false" />
    <sodipodi:guide
       position="0.97013909,0.97016731"
       orientation="0,56.666667"
       id="guide1530"
       inkscape:locked="false" />
    <sodipodi:guide
       position="15.963195,0.97016731"
       orientation="-56.666615,0"
       id="guide1532"
       inkscape:locked="false" />
    <sodipodi:guide
       position="15.963195,15.963209"
       orientation="0,-56.666667"
       id="guide1534"
       inkscape:locked="false" />
  </sodipodi:namedview>
  <metadata
     id="metadata976">
    <rdf:RDF>
      <cc:Work
         rdf:about="">
        <dc:format>image/svg+xml</dc:format>
        <dc:type
           rdf:resource="http://purl.org/dc/dcmitype/StillImage" />
      </cc:Work>
    </rdf:RDF>
  </metadata>
  <g
     inkscape:label="Layer 1"
     inkscape:groupmode="layer"
     id="layer1"
     transform="translate(0,-280.06668)">
    <g
       id="g3904"
       transform="matrix(1.230358,0,0,1.230358,-0.84983174,-64.009387)"
       style="stroke-width:0.812772">
      <path
         style="color:#000000;display:inline;fill:#3a4d5c;stroke-width:0.812772;stroke-linecap:round;stroke-linejoin:round;-inkscape-stroke:none;paint-order:markers fill stroke"
         d="m 4.826924,286.94501 c -1.065366,0 -1.935545,0.87017 -1.935547,1.93554 0,0.1107 0.0094,0.21825 0.02734,0.32422 a 0.26460996,0.26460996 0 0 0 0.244141,0.2207 l 2.896484,0.1875 a 0.26460996,0.26460996 0 0 0 0.28125,-0.26367 v -2.13867 A 0.26460996,0.26460996 0 0 0 6.07692,286.94501 Z"
         id="path161230" />
      <path
         style="color:#000000;display:inline;fill:#50b86b;stroke-width:0.812772;stroke-linecap:round;stroke-linejoin:round;-inkscape-stroke:none;paint-order:markers fill stroke"
         d="m 8.86794,280.70672 c -0.60006,0 -1.07799,0.34728 -1.414063,0.75977 -0.336072,0.41249 -0.550626,0.89983 -0.658203,1.28711 a 0.26460996,0.26460996 0 0 0 -0.002,0 c -0.310954,1.14118 -0.663322,2.41243 -0.970703,3.46875 a 0.26460996,0.26460996 0 0 0 -0.01172,0.0723 v 3.05468 a 0.26460996,0.26460996 0 0 0 0.265625,0.26367 l 6.230469,0.004 a 0.26460996,0.26460996 0 0 0 0.253906,-0.3418 c -0.55471,-1.86209 -1.108364,-4.60506 -1.61914,-6.51953 a 0.26460996,0.26460996 0 0 0 -0.002,-0.002 c -0.107577,-0.38728 -0.32213,-0.87462 -0.658203,-1.28711 -0.336073,-0.41249 -0.814002,-0.75976 -1.414062,-0.75977 z"
         id="path161238" />
      <path
         style="color:#000000;fill:#2bb3cd;stroke-width:0.812772;stroke-linecap:round;stroke-linejoin:round;-inkscape-stroke:none;paint-order:markers fill stroke"
         d="m 1.640625,290.41797 a 0.2645835,0.2645835 0 0 0 -0.1191406,0.35547 0.2645835,0.2645835 0 0 0 0.3554687,0.11914 c 0.1480635,-0.074 0.1781084,-0.074 0.3261719,0 l 0.4238281,0.21094 c 0.2741407,0.13702 0.5969531,0.13702 0.8710938,0 l 0.4238281,-0.21094 c 0.1256028,-0.0628 0.2728362,-0.0628 0.3984375,0 l 0.4238281,0.21094 c 0.2741408,0.13702 0.596953,0.13702 0.8710938,0 l 0.4238281,-0.21094 c 0.1256009,-0.0628 0.2728366,-0.0628 0.3984375,0 l 0.5292969,0.26367 c 0.207516,0.10372 0.4526402,0.10372 0.6601562,0 L 8.15625,290.89258 c 0.1249871,-0.0625 0.2712875,-0.0619 0.3964844,0 l 0.4238281,0.21094 c 0.2741403,0.13702 0.5989061,0.13702 0.8730469,0 l 0.4218746,-0.21094 c 0.125601,-0.0628 0.272837,-0.0628 0.398438,0 l 0.423828,0.21094 c 0.274141,0.13702 0.596953,0.13702 0.871094,0 l 0.423828,-0.21094 c 0.125603,-0.0628 0.272835,-0.0628 0.398437,0 a 0.26460996,0.26460996 0 0 0 0.0059,0.002 c 0.155837,0.073 0.313222,0.16347 0.478515,0.25586 a 0.2645835,0.2645835 0 0 0 0.359375,-0.10156 0.2645835,0.2645835 0 0 0 -0.101562,-0.36133 c -0.159841,-0.0894 -0.326431,-0.18425 -0.507813,-0.26953 -0.273745,-0.1361 -0.595614,-0.13672 -0.86914,0 l -0.423828,0.21289 c -0.125601,0.0628 -0.272837,0.0628 -0.398438,0 l -0.423828,-0.21289 c -0.274141,-0.13702 -0.596953,-0.13702 -0.871094,0 l -0.4238279,0.21289 c -0.1256028,0.0628 -0.2728362,0.0628 -0.3984375,0 l -0.421875,-0.21289 c -0.2741408,-0.13702 -0.598906,-0.13702 -0.8730469,0 l -0.5292968,0.26562 c -0.058978,0.0295 -0.1265692,0.0295 -0.1855469,0 l -0.5292969,-0.26562 c -0.2741406,-0.13702 -0.5969531,-0.13702 -0.8710937,0 l -0.4238282,0.21289 c -0.1256027,0.0628 -0.2728347,0.0628 -0.3984375,0 l -0.4238281,-0.21289 c -0.2741403,-0.13702 -0.5969529,-0.13702 -0.8710937,0 l -0.4238281,0.21289 c -0.125601,0.0628 -0.2728366,0.0628 -0.3984375,0 l -0.4238282,-0.21289 c -0.2516801,-0.1258 -0.547148,-0.1258 -0.7988281,0 z"
         id="path150179" />
      <path
         style="color:#000000;fill:#2bb3cd;stroke-width:0.812772;stroke-linecap:round;stroke-linejoin:round;-inkscape-stroke:none;paint-order:markers fill stroke"
         d="m 1.6621094,291.51172 a 0.2645835,0.2645835 0 0 0 -0.1542969,0.33984 0.2645835,0.2645835 0 0 0 0.3398437,0.1543 c 0.1152912,-0.0433 0.2437917,-0.0363 0.3554688,0.0195 l 0.4238281,0.21094 c 0.2741407,0.13702 0.5969531,0.13702 0.8710938,0 l 0.4238281,-0.21094 c 0.1256028,-0.0628 0.2728362,-0.0628 0.3984375,0 l 0.4238281,0.21094 c 0.2741408,0.13702 0.596953,0.13702 0.8710938,0 l 0.4238281,-0.21094 c 0.1256009,-0.0628 0.2728366,-0.0628 0.3984375,0 l 0.5292969,0.26367 c 0.207516,0.10372 0.4526402,0.10372 0.6601562,0 L 8.15625,292.02539 c 0.1249871,-0.0625 0.2712875,-0.0619 0.3964844,0 l 0.4238281,0.21094 c 0.2741403,0.13702 0.5989061,0.13702 0.8730469,0 l 0.4218746,-0.21094 c 0.125601,-0.0628 0.272837,-0.0628 0.398438,0 l 0.423828,0.21094 c 0.274141,0.13702 0.596953,0.13702 0.871094,0 l 0.423828,-0.21094 c 0.125603,-0.0628 0.272835,-0.0628 0.398437,0 a 0.26460996,0.26460996 0 0 0 0.01563,0.008 c 0.14075,0.0586 0.281369,0.16039 0.447266,0.27344 a 0.2645835,0.2645835 0 0 0 0.369141,-0.0703 0.2645835,0.2645835 0 0 0 -0.07031,-0.36719 c -0.150054,-0.10225 -0.316319,-0.22573 -0.527344,-0.31641 -0.273745,-0.1361 -0.595614,-0.13671 -0.86914,0 l -0.423828,0.21094 c -0.125601,0.0628 -0.272837,0.0628 -0.398438,0 l -0.423828,-0.21094 c -0.274141,-0.13702 -0.596953,-0.13702 -0.871094,0 l -0.4238279,0.21094 c -0.1256028,0.0628 -0.2728362,0.0628 -0.3984375,0 l -0.421875,-0.21094 c -0.2741408,-0.13702 -0.598906,-0.13702 -0.8730469,0 l -0.5292968,0.26368 c -0.058978,0.0295 -0.1265692,0.0295 -0.1855469,0 l -0.5292969,-0.26368 c -0.2741406,-0.13702 -0.5969531,-0.13702 -0.8710937,0 l -0.4238282,0.21094 c -0.1256027,0.0628 -0.2728347,0.0628 -0.3984375,0 l -0.4238281,-0.21094 c -0.2741403,-0.13702 -0.5969529,-0.13702 -0.8710937,0 l -0.4238281,0.21094 c -0.125601,0.0628 -0.2728366,0.0628 -0.3984375,0 l -0.4238282,-0.21094 c -0.2436625,-0.12178 -0.5248713,-0.13589 -0.7773437,-0.041 z"
         id="path150181" />
      <path
         id="path166074"
         style="color:#000000;display:inline;fill:#46a05d;fill-opacity:1;stroke-width:0.812772;stroke-linecap:round;stroke-linejoin:round;-inkscape-stroke:none;paint-order:markers fill stroke"
         d="m 8.867816,280.7066 c -0.600059,0 -1.077794,0.34715 -1.413867,0.75964 -0.116234,0.14267 -0.217644,0.2947 -0.305406,0.44803 0.199988,-0.0934 0.420447,-0.14934 0.66094,-0.14934 0.600061,1e-5 1.077796,0.34767 1.413867,0.76016 0.336073,0.41249 0.55078,0.89946 0.658357,1.28674 a 0.26460995,0.26460995 0 0 1 0.0021,0.002 c 0.448546,1.68123 0.930093,4.00131 1.41645,5.80275 l 1.007173,5.1e-4 a 0.26460995,0.26460995 0 0 0 0.253733,-0.34209 c -0.55471,-1.86209 -1.108247,-4.60503 -1.619022,-6.5195 a 0.26460995,0.26460995 0 0 0 -0.0021,-0.002 c -0.107576,-0.38728 -0.322283,-0.87425 -0.658357,-1.28674 -0.336071,-0.41249 -0.813805,-0.76015 -1.413868,-0.76016 z" />
      <path
         id="path161306"
         style="color:#000000;display:inline;fill:#fed883;stroke-width:0.812772;stroke-linecap:round;stroke-linejoin:round;-inkscape-stroke:none;paint-order:markers fill stroke"
         d="m 7.5790067,287.05608 c -1.392772,0 -2.6149856,0.67671 -3.4101273,1.69343 -0.1128553,-0.01 -0.4649549,-0.0567 -0.9472294,0.12506 -0.4906698,0.18495 -1.0061655,0.63479 -1.1224128,1.45263 0.1171734,0.008 0.2334657,0.0387 0.3410638,0.0925 l 0.4237487,0.21084 c 0.1256004,0.0628 0.2728225,0.0628 0.3984255,0 l 0.4216796,-0.21084 a 0.26460995,0.26460995 0 0 1 0.00212,0 c 0.2741401,-0.13703 0.5971249,-0.13703 0.871265,0 l 0.4237461,0.21084 c 0.1249865,0.0625 0.2711635,0.0619 0.396359,0 L 5.801391,290.4197 c 0.2741401,-0.13703 0.5991913,-0.13703 0.8733314,0 l 0.5271002,0.26355 c 0.058978,0.0295 0.128606,0.0295 0.1875843,0 l 0.5291667,-0.26355 c 0.2741427,-0.13703 0.5971249,-0.13703 0.8712649,0 l 0.4237461,0.21084 c 0.125603,0.0628 0.2728251,0.0628 0.3984255,0 l 0.4237479,-0.21084 c 0.274141,-0.13703 0.597125,-0.13703 0.871263,0 l 0.423749,0.21084 c 0.1256,0.0628 0.272822,0.0628 0.398425,0 l 0.422196,-0.21084 c 0.27414,-0.13703 0.598672,-0.13703 0.872815,0 0.01765,0.008 0.03433,0.0173 0.05168,0.0258 -0.06651,-0.92037 -0.612987,-1.41105 -1.131713,-1.59835 -0.47733,-0.17235 -0.821756,-0.11953 -0.935344,-0.10749 -0.799585,-1.02613 -2.0313969,-1.6831 -3.4297648,-1.6831 z" />
      <g
         id="g3850"
         style="stroke-width:0.812772">
        <path
           style="color:#000000;display:inline;fill:#311a12;stroke-width:0.812772;stroke-linecap:round;stroke-linejoin:round;-inkscape-stroke:none;paint-order:markers fill stroke"
           d="m 3.932393,285.2536 c -0.430288,0 -0.785156,0.35487 -0.785156,0.78516 0,0.43028 0.354868,0.7832 0.785156,0.7832 0.430288,0 0.783203,-0.35292 0.783203,-0.7832 0,-0.43029 -0.352915,-0.78516 -0.783203,-0.78516 z"
           id="path161262" />
        <g
           id="g180818"
           transform="translate(-64.817607,-64.860981)"
           style="display:inline;stroke-width:0.812772">
          <path
             style="color:#000000;fill:#8fc23f;stroke-width:0.812772;stroke-linecap:round;stroke-linejoin:round;-inkscape-stroke:none;paint-order:markers fill stroke"
             d="m 69.478516,346.49935 a 0.26460996,0.26460996 0 0 0 -0.195313,0.0684 c 0,0 -0.393024,0.3515 -0.662109,0.91211 -0.269085,0.56062 -0.415439,1.3743 0.08008,2.20899 a 0.26460996,0.26460996 0 0 0 0.445312,0.0156 l 0.8125,-1.16992 a 0.26460996,0.26460996 0 0 0 0.01172,-0.28515 c 0,0 -0.343748,-0.58451 -0.248047,-1.45704 a 0.26460996,0.26460996 0 0 0 -0.24414,-0.29296 z"
             id="path161270" />
        </g>
        <path
           style="color:#000000;display:inline;fill:#8fc23f;stroke-width:0.812772;stroke-linecap:round;stroke-linejoin:round;-inkscape-stroke:none;paint-order:markers fill stroke"
           d="m 1.694112,283.10907 a 0.26460996,0.26460996 0 0 0 -0.115235,0.4668 c 0.679757,0.54538 0.890625,1.28125 0.890625,1.28125 a 0.26460996,0.26460996 0 0 0 0.271485,0.1914 l 1.388672,-0.0918 A 0.26460996,0.26460996 0 0 0 4.36794,284.6286 c -0.240888,-0.94478 -0.946194,-1.35984 -1.544922,-1.49219 -0.598728,-0.13234 -1.128906,-0.0273 -1.128906,-0.0273 z"
           id="path161278" />
        <path
           style="color:#000000;display:inline;fill:#9a605c;stroke-width:0.812772;stroke-linecap:round;stroke-linejoin:round;-inkscape-stroke:none;paint-order:markers fill stroke"
           d="m 6.737125,287.42743 c -0.307283,-1.81838 -1.646484,-2.73047 -1.646484,-2.73047 -0.02443,-0.0168 -0.0515,-0.0293 -0.08008,-0.0371 L 4.18044,284.43719 c -0.168473,-0.0458 -0.334319,0.0813 -0.333985,0.25586 l 0.002,0.73242 c -8.1e-5,0.0562 0.0177,0.11087 0.05078,0.15625 0,0 0.769531,1.04275 0.769531,2.71094 -2.48e-4,0.0999 0.0528,0.18193 0.127964,0.22725 z"
           id="path161286"
           sodipodi:nodetypes="cccccccccc" />
        <path
           id="path128634"
           style="color:#000000;display:inline;fill:#d0ad9a;stroke-width:0.812772;stroke-linecap:round;stroke-linejoin:round;-inkscape-stroke:none;paint-order:markers fill stroke"
           d="m 6.2876125,286.11298 -1.7600983,0.95963 c 0.040124,0.16986 0.074046,0.35237 0.0987,0.54674 l 1.8820553,-1.02578 c -0.066363,-0.17181 -0.1413933,-0.33209 -0.220657,-0.48059 z" />
        <path
           id="path128636"
           style="color:#000000;display:inline;fill:#d0ad9a;stroke-width:0.812772;stroke-linecap:round;stroke-linejoin:round;-inkscape-stroke:none;paint-order:markers fill stroke"
           d="m 5.5171167,285.06809 -1.4061149,0.86919 c 0.06731,0.12968 0.1435603,0.29338 0.2175563,0.48731 l 1.5420261,-0.95446 c -0.1233699,-0.15852 -0.2446788,-0.29226 -0.3534675,-0.40204 z" />
        <path
           id="path187387"
           style="color:#000000;display:inline;fill:#65a034;fill-opacity:1;stroke-width:0.812772;stroke-linecap:round;stroke-linejoin:round;-inkscape-stroke:none;paint-order:markers fill stroke"
           d="m 4.9290406,282.71061 c -0.1691137,0.0543 -0.3757613,0.13983 -0.566891,0.29145 -0.2821993,0.22387 -0.5135165,0.6101 -0.5157311,1.16014 a 0.26460995,0.26460995 0 0 0 0.197403,0.25786 l 0.48886,0.13023 0.6087481,-0.87695 a 0.26460995,0.26460995 0 0 0 0.01188,-0.28474 c 0,0 -0.1499023,-0.25467 -0.224274,-0.67799 z" />
        <path
           style="color:#000000;display:inline;fill:#8fc23f;stroke-width:0.812772;stroke-linecap:round;stroke-linejoin:round;-inkscape-stroke:none;paint-order:markers fill stroke"
           d="m 5.168721,283.17352 a 0.26460996,0.26460996 0 0 0 -0.0293,0.006 c -0.178681,0.0479 -0.495144,0.12769 -0.777344,0.35156 -0.282199,0.22387 -0.513409,0.61012 -0.515625,1.16016 a 0.26460996,0.26460996 0 0 0 0.197266,0.25781 l 0.830078,0.22071 a 0.26460996,0.26460996 0 0 0 0.292969,-0.11329 c 0,0 0.129509,-0.21018 0.4375,-0.39648 0.307991,-0.1863 0.77239,-0.33962 1.474609,-0.16406 a 0.26460996,0.26460996 0 0 0 0.3125,-0.34766 c 0,0 -0.125321,-0.3343 -0.46875,-0.60742 -0.343428,-0.27312 -0.917828,-0.49506 -1.753906,-0.36719 z"
           id="path161246" />
        <path
           id="path186033"
           style="color:#000000;display:inline;fill:#65a034;fill-opacity:1;stroke-width:0.812772;stroke-linecap:round;stroke-linejoin:round;-inkscape-stroke:none;paint-order:markers fill stroke"
           d="m 3.4392089,283.71158 c -0.1684232,0.002 -0.3238341,0.0351 -0.4599226,0.0889 -0.334981,0.13245 -0.5606309,0.36731 -0.6914303,0.49816 a 0.26460995,0.26460995 0 0 0 -0.019632,0.0217 c -0.00918,0.0115 -0.017939,0.0227 -0.026871,0.0341 0.1656371,0.2856 0.2284095,0.50281 0.2284095,0.50281 a 0.26460995,0.26460995 0 0 0 0.2713011,0.1912 l 1.3885466,-0.092 a 0.26460995,0.26460995 0 0 0 0.2382282,-0.32763 c -0.087254,-0.34223 -0.23504,-0.61549 -0.4170283,-0.83044 -0.1790171,-0.0633 -0.3512159,-0.0889 -0.5115957,-0.0868 z" />
        <path
           id="path192236"
           style="color:#000000;display:inline;fill:#65a034;fill-opacity:1;stroke-width:0.812772;stroke-linecap:round;stroke-linejoin:round;-inkscape-stroke:none;paint-order:markers fill stroke"
           d="m 6.763553,283.42943 c 0.06904,0.11155 0.0987,0.18965 0.0987,0.18965 a 0.26460995,0.26460995 0 0 1 -0.312642,0.34778 c -0.70222,-0.17556 -1.166339,-0.0225 -1.47433,0.16382 -0.307991,0.18629 -0.4377,0.39687 -0.4377,0.39687 a 0.26460995,0.26460995 0 0 1 -0.293005,0.11317 l -0.488342,-0.12971 c -0.0058,0.058 -0.0096,0.11817 -0.0098,0.18035 a 0.26460995,0.26460995 0 0 0 0.197403,0.25787 l 0.829923,0.22066 a 0.26460995,0.26460995 0 0 0 0.293005,-0.11317 c 0,0 0.12971,-0.21058 0.4377,-0.39688 0.307991,-0.1863 0.77211,-0.33937 1.47433,-0.16381 a 0.26460995,0.26460995 0 0 0 0.312642,-0.34779 c 0,0 -0.125277,-0.33407 -0.468706,-0.60719 -0.04835,-0.0384 -0.101576,-0.076 -0.159163,-0.11162 z" />
        <path
           style="color:#000000;display:inline;fill:#8fc23f;stroke-width:0.812772;stroke-linecap:round;stroke-linejoin:round;-inkscape-stroke:none;paint-order:markers fill stroke"
           d="m 2.979268,284.32977 c -0.334982,0.13245 -0.560607,0.3672 -0.691406,0.49805 a 0.26460996,0.26460996 0 0 0 -0.01953,0.0215 c -0.528778,0.66013 -0.62341,1.2672 -0.558593,1.70117 0.06482,0.43398 0.289062,0.71094 0.289062,0.71094 a 0.26460996,0.26460996 0 0 0 0.458985,-0.0976 c 0.392343,-1.37155 1.68164,-1.47461 1.68164,-1.47461 a 0.26460996,0.26460996 0 0 0 0.238281,-0.26368 l -0.002,-0.73242 a 0.26460996,0.26460996 0 0 0 -0.132812,-0.23047 c -0.477453,-0.2731 -0.92869,-0.26526 -1.263672,-0.13281 z"
           id="path161254" />
        <path
           id="path189948"
           style="color:#000000;display:inline;fill:#65a034;fill-opacity:1;stroke-width:0.812772;stroke-linecap:round;stroke-linejoin:round;-inkscape-stroke:none;paint-order:markers fill stroke"
           d="m 3.9683756,284.76991 c -0.1684232,0.002 -0.3238342,0.0351 -0.4599226,0.0889 -0.334981,0.13245 -0.5606309,0.36731 -0.6914303,0.49816 a 0.26460995,0.26460995 0 0 0 -0.019632,0.0217 c -0.5287777,0.66013 -0.6234377,1.26722 -0.5586201,1.70119 0.014049,0.0941 0.03583,0.18076 0.060978,0.2589 a 0.26460995,0.26460995 0 0 0 0.1581283,-0.17467 c 0.3923426,-1.37155 1.6815514,-1.47484 1.6815514,-1.47484 a 0.26460995,0.26460995 0 0 0 0.2382282,-0.26355 l -0.00159,-0.60152 c -0.1418088,-0.0395 -0.278646,-0.0559 -0.4077256,-0.0543 z" />
      </g>
      <path
         id="path150731"
         style="color:#000000;display:inline;fill:#fead66;stroke-width:0.812772;stroke-linecap:round;stroke-linejoin:round;-inkscape-stroke:none;paint-order:markers fill stroke"
         d="m 7.5790067,287.05608 -0.334862,0.0129 c -1.3033877,0.0994 -2.4485256,0.77452 -3.1791354,1.77043 -0.1041373,0.14195 -0.2001599,0.28902 -0.286803,0.44339 -0.07221,0.12776 -0.026919,0.28979 0.1012851,0.36122 0.1273175,0.0709 0.2882847,0.0258 0.3596667,-0.10129 0.076102,-0.13557 0.1601364,-0.26591 0.2516637,-0.39068 1.5859918,-2.03159 4.0656562,-1.61924 5.4596162,0.11731 0.113588,-0.012 0.458012,-0.0654 0.935344,0.10697 0.426765,0.15409 0.871025,0.51465 1.052648,1.1498 l 0.212907,-0.10645 c 0.27414,-0.13703 0.598673,-0.13703 0.872816,0 0.01744,0.008 0.03402,0.0169 0.05116,0.0253 -0.06672,-0.91993 -0.612611,-1.4111 -1.131197,-1.59835 -0.477332,-0.17234 -0.821756,-0.11953 -0.935345,-0.10749 -0.799584,-1.02613 -2.0313965,-1.6831 -3.4297643,-1.6831 z" />
    </g>
  </g>
</svg>
