<?xml version="1.0" encoding="UTF-8" standalone="no"?>
<svg
   xmlns:dc="http://purl.org/dc/elements/1.1/"
   xmlns:cc="http://creativecommons.org/ns#"
   xmlns:rdf="http://www.w3.org/1999/02/22-rdf-syntax-ns#"
   xmlns:svg="http://www.w3.org/2000/svg"
   xmlns="http://www.w3.org/2000/svg"
   xmlns:sodipodi="http://sodipodi.sourceforge.net/DTD/sodipodi-0.dtd"
   xmlns:inkscape="http://www.inkscape.org/namespaces/inkscape"
   inkscape:export-ydpi="768"
   inkscape:export-xdpi="768"
   inkscape:export-filename="C:\Users\adnan\Downloads\New folder\png\3 - Eco Factory.png"
   sodipodi:docname="4 - Eco Car.svg"
   inkscape:version="1.0 (4035a4fb49, 2020-05-01)"
   id="svg979"
   version="1.1"
   viewBox="0 0 16.933334 16.933333"
   height="48pt"
   width="48pt">
  <defs
     id="defs973" />
  <sodipodi:namedview
     inkscape:snap-others="false"
     inkscape:bbox-nodes="true"
     inkscape:snap-bbox="true"
     inkscape:snap-nodes="false"
     inkscape:document-rotation="0"
     inkscape:window-maximized="1"
     inkscape:window-y="-8"
     inkscape:window-x="-8"
     inkscape:window-height="706"
     inkscape:window-width="1366"
     units="pt"
     showgrid="false"
     inkscape:current-layer="layer1"
     inkscape:document-units="pt"
     inkscape:cy="32"
     inkscape:cx="32"
     inkscape:zoom="8.546875"
     inkscape:pageshadow="2"
     inkscape:pageopacity="0.0"
     borderopacity="1.0"
     bordercolor="#666666"
     pagecolor="#ffffff"
     id="base">
    <inkscape:grid
       id="grid1526"
       type="xygrid" />
    <sodipodi:guide
       inkscape:locked="false"
       id="guide1528"
       orientation="56.666615,0"
       position="0.97013909,15.963209" />
    <sodipodi:guide
       inkscape:locked="false"
       id="guide1530"
       orientation="0,56.666667"
       position="0.97013909,0.97016731" />
    <sodipodi:guide
       inkscape:locked="false"
       id="guide1532"
       orientation="-56.666615,0"
       position="15.963195,0.97016731" />
    <sodipodi:guide
       inkscape:locked="false"
       id="guide1534"
       orientation="0,-56.666667"
       position="15.963195,15.963209" />
  </sodipodi:namedview>
  <metadata
     id="metadata976">
    <rdf:RDF>
      <cc:Work
         rdf:about="">
        <dc:format>image/svg+xml</dc:format>
        <dc:type
           rdf:resource="http://purl.org/dc/dcmitype/StillImage" />
        <dc:title></dc:title>
      </cc:Work>
    </rdf:RDF>
  </metadata>
  <g
     transform="translate(0,-280.06668)"
     id="layer1"
     inkscape:groupmode="layer"
     inkscape:label="Layer 1">
    <g
       transform="matrix(1.2307907,0,0,1.2307907,-26.436586,-42.102224)"
       style="display:inline;stroke-width:0.812486"
       id="g1367">
      <path
         style="color:#000000;font-style:normal;font-variant:normal;font-weight:normal;font-stretch:normal;font-size:medium;line-height:normal;font-family:sans-serif;font-variant-ligatures:normal;font-variant-position:normal;font-variant-caps:normal;font-variant-numeric:normal;font-variant-alternates:normal;font-variant-east-asian:normal;font-feature-settings:normal;font-variation-settings:normal;text-indent:0;text-align:start;text-decoration:none;text-decoration-line:none;text-decoration-style:solid;text-decoration-color:#000000;letter-spacing:normal;word-spacing:normal;text-transform:none;writing-mode:lr-tb;direction:ltr;text-orientation:mixed;dominant-baseline:auto;baseline-shift:baseline;text-anchor:start;white-space:normal;shape-padding:0;shape-margin:0;inline-size:0;clip-rule:nonzero;display:inline;overflow:visible;visibility:visible;isolation:auto;mix-blend-mode:normal;color-interpolation:sRGB;color-interpolation-filters:linearRGB;solid-color:#000000;solid-opacity:1;vector-effect:none;fill:#50b86d;fill-opacity:1;fill-rule:nonzero;stroke:none;stroke-width:0.429941;stroke-linecap:round;stroke-linejoin:round;stroke-miterlimit:4;stroke-dasharray:none;stroke-dashoffset:0;stroke-opacity:1;color-rendering:auto;image-rendering:auto;shape-rendering:auto;text-rendering:auto;enable-background:accumulate;stop-color:#000000"
         d="m 26.582031,267.59375 c -0.461821,-0.007 -0.913823,0.27278 -1.068359,0.72656 -0.151413,0.44461 -0.226294,0.91055 -0.275391,1.38281 H 23.1875 c -0.353143,0 -0.644528,0.29139 -0.644531,0.64454 v 2 a 0.26460996,0.26460996 0 0 0 0.263672,0.26562 h 1.347656 2.900391 2.902343 2.904297 1.058594 a 0.26460996,0.26460996 0 0 0 0.257812,-0.32422 l -0.123046,-0.52929 a 0.26460996,0.26460996 0 0 0 -0.0039,-0.0176 c -0.157587,-0.51963 -0.375486,-1.33062 -0.832031,-1.92383 -0.309123,-0.50677 -0.716799,-0.85076 -1.125,-1.12891 a 0.26460996,0.26460996 0 0 0 -0.01758,-0.01 c -0.863568,-0.49281 -1.701432,-0.71731 -2.470703,-0.82422 -1.132063,-0.20748 -2.186252,-0.24847 -3.023438,-0.26172 z"
         id="path1231" />
      <path
         style="color:#000000;font-style:normal;font-variant:normal;font-weight:normal;font-stretch:normal;font-size:medium;line-height:normal;font-family:sans-serif;font-variant-ligatures:normal;font-variant-position:normal;font-variant-caps:normal;font-variant-numeric:normal;font-variant-alternates:normal;font-variant-east-asian:normal;font-feature-settings:normal;font-variation-settings:normal;text-indent:0;text-align:start;text-decoration:none;text-decoration-line:none;text-decoration-style:solid;text-decoration-color:#000000;letter-spacing:normal;word-spacing:normal;text-transform:none;writing-mode:lr-tb;direction:ltr;text-orientation:mixed;dominant-baseline:auto;baseline-shift:baseline;text-anchor:start;white-space:normal;shape-padding:0;shape-margin:0;inline-size:0;clip-rule:nonzero;display:inline;overflow:visible;visibility:visible;isolation:auto;mix-blend-mode:normal;color-interpolation:sRGB;color-interpolation-filters:linearRGB;solid-color:#000000;solid-opacity:1;vector-effect:none;fill:#143441;fill-opacity:1;fill-rule:nonzero;stroke:none;stroke-width:0.429941;stroke-linecap:round;stroke-linejoin:round;stroke-miterlimit:4;stroke-dasharray:none;stroke-dashoffset:0;stroke-opacity:1;color-rendering:auto;image-rendering:auto;shape-rendering:auto;text-rendering:auto;enable-background:accumulate;stop-color:#000000"
         d="m 27.304688,270.76172 a 0.2645835,0.2645835 0 0 0 -0.263672,0.26367 0.2645835,0.2645835 0 0 0 0.263672,0.26563 h 0.529296 a 0.2645835,0.2645835 0 0 0 0.265625,-0.26563 0.2645835,0.2645835 0 0 0 -0.265625,-0.26367 z"
         id="path1102" />
      <path
         style="color:#000000;font-style:normal;font-variant:normal;font-weight:normal;font-stretch:normal;font-size:medium;line-height:normal;font-family:sans-serif;font-variant-ligatures:normal;font-variant-position:normal;font-variant-caps:normal;font-variant-numeric:normal;font-variant-alternates:normal;font-variant-east-asian:normal;font-feature-settings:normal;font-variation-settings:normal;text-indent:0;text-align:start;text-decoration:none;text-decoration-line:none;text-decoration-style:solid;text-decoration-color:#000000;letter-spacing:normal;word-spacing:normal;text-transform:none;writing-mode:lr-tb;direction:ltr;text-orientation:mixed;dominant-baseline:auto;baseline-shift:baseline;text-anchor:start;white-space:normal;shape-padding:0;shape-margin:0;inline-size:0;clip-rule:nonzero;display:inline;overflow:visible;visibility:visible;isolation:auto;mix-blend-mode:normal;color-interpolation:sRGB;color-interpolation-filters:linearRGB;solid-color:#000000;solid-opacity:1;vector-effect:none;fill:#143441;fill-opacity:1;fill-rule:nonzero;stroke:none;stroke-width:0.429941;stroke-linecap:round;stroke-linejoin:round;stroke-miterlimit:4;stroke-dasharray:none;stroke-dashoffset:0;stroke-opacity:1;color-rendering:auto;image-rendering:auto;shape-rendering:auto;text-rendering:auto;enable-background:accumulate;stop-color:#000000"
         d="m 22.533203,272.08398 a 0.2645835,0.2645835 0 0 0 -0.265625,0.26368 0.2645835,0.2645835 0 0 0 0.265625,0.26562 h 11.650391 a 0.2645835,0.2645835 0 0 0 0.265625,-0.26562 0.2645835,0.2645835 0 0 0 -0.265625,-0.26368 z"
         id="path1219" />
      <path
         style="color:#000000;font-style:normal;font-variant:normal;font-weight:normal;font-stretch:normal;font-size:medium;line-height:normal;font-family:sans-serif;font-variant-ligatures:normal;font-variant-position:normal;font-variant-caps:normal;font-variant-numeric:normal;font-variant-alternates:normal;font-variant-east-asian:normal;font-feature-settings:normal;font-variation-settings:normal;text-indent:0;text-align:start;text-decoration:none;text-decoration-line:none;text-decoration-style:solid;text-decoration-color:#000000;letter-spacing:normal;word-spacing:normal;text-transform:none;writing-mode:lr-tb;direction:ltr;text-orientation:mixed;dominant-baseline:auto;baseline-shift:baseline;text-anchor:start;white-space:normal;shape-padding:0;shape-margin:0;inline-size:0;clip-rule:nonzero;display:inline;overflow:visible;visibility:visible;isolation:auto;mix-blend-mode:normal;color-interpolation:sRGB;color-interpolation-filters:linearRGB;solid-color:#000000;solid-opacity:1;vector-effect:none;fill:#143441;fill-opacity:1;fill-rule:nonzero;stroke:none;stroke-width:0.429941;stroke-linecap:round;stroke-linejoin:round;stroke-miterlimit:4;stroke-dasharray:none;stroke-dashoffset:0;stroke-opacity:1;color-rendering:auto;image-rendering:auto;shape-rendering:auto;text-rendering:auto;enable-background:accumulate;stop-color:#000000"
         d="m 32.304688,264.66406 -1.824219,0.004 a 0.26460996,0.26460996 0 0 0 -0.002,0 l -2.455078,0.004 a 0.2645835,0.2645835 0 0 0 -0.263672,0.26562 0.2645835,0.2645835 0 0 0 0.265625,0.26367 l 2.455078,-0.004 1.826172,-0.004 c 0.893909,-0.002 1.613282,0.71742 1.613281,1.61133 v 5.52929 a 0.2645835,0.2645835 0 0 0 0.263672,0.26563 0.2645835,0.2645835 0 0 0 0.265625,-0.26563 v -5.52929 c 1e-6,-1.18025 -0.964285,-2.14286 -2.144531,-2.14063 z"
         id="path1246" />
      <path
         style="color:#000000;font-style:normal;font-variant:normal;font-weight:normal;font-stretch:normal;font-size:medium;line-height:normal;font-family:sans-serif;font-variant-ligatures:normal;font-variant-position:normal;font-variant-caps:normal;font-variant-numeric:normal;font-variant-alternates:normal;font-variant-east-asian:normal;font-feature-settings:normal;font-variation-settings:normal;text-indent:0;text-align:start;text-decoration:none;text-decoration-line:none;text-decoration-style:solid;text-decoration-color:#000000;letter-spacing:normal;word-spacing:normal;text-transform:none;writing-mode:lr-tb;direction:ltr;text-orientation:mixed;dominant-baseline:auto;baseline-shift:baseline;text-anchor:start;white-space:normal;shape-padding:0;shape-margin:0;inline-size:0;clip-rule:nonzero;display:inline;overflow:visible;visibility:visible;isolation:auto;mix-blend-mode:normal;color-interpolation:sRGB;color-interpolation-filters:linearRGB;solid-color:#000000;solid-opacity:1;vector-effect:none;fill:#31934e;fill-opacity:1;fill-rule:nonzero;stroke:none;stroke-width:0.429941;stroke-linecap:round;stroke-linejoin:round;stroke-miterlimit:4;stroke-dasharray:none;stroke-dashoffset:0;stroke-opacity:1;color-rendering:auto;image-rendering:auto;shape-rendering:auto;text-rendering:auto;enable-background:accumulate;stop-color:#000000"
         d="m 24.130859,270.76172 a 0.26460996,0.26460996 0 0 0 -0.265625,0.26367 v 1.32227 a 0.26460996,0.26460996 0 0 0 0.265625,0.26562 h 0.951172 0.939453 1.019532 a 0.26460996,0.26460996 0 0 0 0.248046,-0.35742 c -0.06411,-0.17215 -0.155122,-0.35885 -0.283203,-0.5625 -0.104006,-0.2026 -0.284706,-0.43333 -0.625,-0.62891 -0.251021,-0.16254 -0.552823,-0.2814 -0.912109,-0.30273 a 0.26460996,0.26460996 0 0 0 -0.01563,0 z"
         id="path1160" />
      <path
         id="path1115"
         style="color:#000000;font-style:normal;font-variant:normal;font-weight:normal;font-stretch:normal;font-size:medium;line-height:normal;font-family:sans-serif;font-variant-ligatures:normal;font-variant-position:normal;font-variant-caps:normal;font-variant-numeric:normal;font-variant-alternates:normal;font-variant-east-asian:normal;font-feature-settings:normal;font-variation-settings:normal;text-indent:0;text-align:start;text-decoration:none;text-decoration-line:none;text-decoration-style:solid;text-decoration-color:#000000;letter-spacing:normal;word-spacing:normal;text-transform:none;writing-mode:lr-tb;direction:ltr;text-orientation:mixed;dominant-baseline:auto;baseline-shift:baseline;text-anchor:start;white-space:normal;shape-padding:0;shape-margin:0;inline-size:0;clip-rule:nonzero;display:inline;overflow:visible;visibility:visible;isolation:auto;mix-blend-mode:normal;color-interpolation:sRGB;color-interpolation-filters:linearRGB;solid-color:#000000;solid-opacity:1;vector-effect:none;fill:#143441;fill-opacity:1;fill-rule:nonzero;stroke:none;stroke-width:1.62497;stroke-linecap:round;stroke-linejoin:round;stroke-miterlimit:4;stroke-dasharray:none;stroke-dashoffset:0;stroke-opacity:1;color-rendering:auto;image-rendering:auto;shape-rendering:auto;text-rendering:auto;enable-background:accumulate;stop-color:#000000"
         d="m 85.201172,-52.224609 v 2.001953 h 2.998047 a 1.0000006,1.0000006 0 0 0 1.003906,-1.003906 1.0000006,1.0000006 0 0 0 -1.003906,-0.998047 z"
         transform="matrix(0.26458333,0,0,0.26458333,0,284.3)" />
      <path
         style="color:#000000;font-style:normal;font-variant:normal;font-weight:normal;font-stretch:normal;font-size:medium;line-height:normal;font-family:sans-serif;font-variant-ligatures:normal;font-variant-position:normal;font-variant-caps:normal;font-variant-numeric:normal;font-variant-alternates:normal;font-variant-east-asian:normal;font-feature-settings:normal;font-variation-settings:normal;text-indent:0;text-align:start;text-decoration:none;text-decoration-line:none;text-decoration-style:solid;text-decoration-color:#000000;letter-spacing:normal;word-spacing:normal;text-transform:none;writing-mode:lr-tb;direction:ltr;text-orientation:mixed;dominant-baseline:auto;baseline-shift:baseline;text-anchor:start;white-space:normal;shape-padding:0;shape-margin:0;inline-size:0;clip-rule:nonzero;display:inline;overflow:visible;visibility:visible;isolation:auto;mix-blend-mode:normal;color-interpolation:sRGB;color-interpolation-filters:linearRGB;solid-color:#000000;solid-opacity:1;vector-effect:none;fill:#febe40;fill-opacity:1;fill-rule:nonzero;stroke:none;stroke-width:0.429941;stroke-linecap:round;stroke-linejoin:round;stroke-miterlimit:4;stroke-dasharray:none;stroke-dashoffset:0;stroke-opacity:1;color-rendering:auto;image-rendering:auto;shape-rendering:auto;text-rendering:auto;enable-background:accumulate;stop-color:#000000"
         d="m 25.982422,264.14648 a 0.2645835,0.2645835 0 0 0 -0.265625,0.26368 0.2645835,0.2645835 0 0 0 0.265625,0.26562 h 0.792969 a 0.2645835,0.2645835 0 0 0 0.265625,-0.26562 0.2645835,0.2645835 0 0 0 -0.265625,-0.26368 z"
         id="path1272" />
      <path
         style="color:#000000;font-style:normal;font-variant:normal;font-weight:normal;font-stretch:normal;font-size:medium;line-height:normal;font-family:sans-serif;font-variant-ligatures:normal;font-variant-position:normal;font-variant-caps:normal;font-variant-numeric:normal;font-variant-alternates:normal;font-variant-east-asian:normal;font-feature-settings:normal;font-variation-settings:normal;text-indent:0;text-align:start;text-decoration:none;text-decoration-line:none;text-decoration-style:solid;text-decoration-color:#000000;letter-spacing:normal;word-spacing:normal;text-transform:none;writing-mode:lr-tb;direction:ltr;text-orientation:mixed;dominant-baseline:auto;baseline-shift:baseline;text-anchor:start;white-space:normal;shape-padding:0;shape-margin:0;inline-size:0;clip-rule:nonzero;display:inline;overflow:visible;visibility:visible;isolation:auto;mix-blend-mode:normal;color-interpolation:sRGB;color-interpolation-filters:linearRGB;solid-color:#000000;solid-opacity:1;vector-effect:none;fill:#febe40;fill-opacity:1;fill-rule:nonzero;stroke:none;stroke-width:0.429941;stroke-linecap:round;stroke-linejoin:round;stroke-miterlimit:4;stroke-dasharray:none;stroke-dashoffset:0;stroke-opacity:1;color-rendering:auto;image-rendering:auto;shape-rendering:auto;text-rendering:auto;enable-background:accumulate;stop-color:#000000"
         d="m 25.982422,265.20508 a 0.2645835,0.2645835 0 0 0 -0.265625,0.26367 0.2645835,0.2645835 0 0 0 0.265625,0.26563 h 0.792969 a 0.2645835,0.2645835 0 0 0 0.265625,-0.26563 0.2645835,0.2645835 0 0 0 -0.265625,-0.26367 z"
         id="path1278" />
      <path
         style="color:#000000;font-style:normal;font-variant:normal;font-weight:normal;font-stretch:normal;font-size:medium;line-height:normal;font-family:sans-serif;font-variant-ligatures:normal;font-variant-position:normal;font-variant-caps:normal;font-variant-numeric:normal;font-variant-alternates:normal;font-variant-east-asian:normal;font-feature-settings:normal;font-variation-settings:normal;text-indent:0;text-align:start;text-decoration:none;text-decoration-line:none;text-decoration-style:solid;text-decoration-color:#000000;letter-spacing:normal;word-spacing:normal;text-transform:none;writing-mode:lr-tb;direction:ltr;text-orientation:mixed;dominant-baseline:auto;baseline-shift:baseline;text-anchor:start;white-space:normal;shape-padding:0;shape-margin:0;inline-size:0;clip-rule:nonzero;display:inline;overflow:visible;visibility:visible;isolation:auto;mix-blend-mode:normal;color-interpolation:sRGB;color-interpolation-filters:linearRGB;solid-color:#000000;solid-opacity:1;vector-effect:none;fill:#f5f6e8;fill-opacity:1;fill-rule:nonzero;stroke:none;stroke-width:0.429941;stroke-linecap:round;stroke-linejoin:round;stroke-miterlimit:4;stroke-dasharray:none;stroke-dashoffset:0;stroke-opacity:1;color-rendering:auto;image-rendering:auto;shape-rendering:auto;text-rendering:auto;enable-background:accumulate;stop-color:#000000"
         d="m 26.775391,263.88086 a 0.26460996,0.26460996 0 0 0 -0.263672,0.26562 v 1.58594 a 0.26460996,0.26460996 0 0 0 0.263672,0.26563 h 1.58789 a 0.26460996,0.26460996 0 0 0 0.263672,-0.26563 v -0.76758 a 0.2645835,0.2645835 0 0 0 0,-0.0254 v -0.79297 a 0.26460996,0.26460996 0 0 0 -0.263672,-0.26562 z"
         id="path1258" />
      <path
         id="path1300"
         style="fill:#46a05d;fill-opacity:1;stroke:none;stroke-width:1.62497;stroke-linecap:round;stroke-linejoin:round;stroke-opacity:1"
         d="m 100.4668,-63.142578 c -1.677209,-0.02542 -3.308999,0.956735 -3.953128,2.554687 -0.308521,0.827954 -0.432791,1.059554 -0.620505,2.134475 3.120982,1.806315 11.399363,1.79086 15.554103,3.457322 4.44561,1.783128 6.09843,6.622623 8.32226,10.826172 h 4.43164 4 c 0.64402,3.13e-4 1.12044,-0.599274 0.97461,-1.226562 l -0.46484,-2 c -0.004,-0.02231 -0.01,-0.04446 -0.0156,-0.06641 -0.5956,-1.963956 -1.419,-5.02943 -3.14453,-7.271484 -1.16834,-1.915351 -2.70914,-3.214349 -4.25195,-4.265625 -0.0216,-0.01387 -0.0438,-0.0269 -0.0664,-0.03906 -3.26388,-1.862589 -6.43041,-2.711166 -9.33789,-3.115235 -4.27866,-0.784176 -8.26357,-0.938202 -11.42773,-0.988281 z"
         transform="matrix(0.26458333,0,0,0.26458333,0,284.3)"
         sodipodi:nodetypes="cccscccccccccccc" />
      <path
         style="color:#000000;font-style:normal;font-variant:normal;font-weight:normal;font-stretch:normal;font-size:medium;line-height:normal;font-family:sans-serif;font-variant-ligatures:normal;font-variant-position:normal;font-variant-caps:normal;font-variant-numeric:normal;font-variant-alternates:normal;font-variant-east-asian:normal;font-feature-settings:normal;font-variation-settings:normal;text-indent:0;text-align:start;text-decoration:none;text-decoration-line:none;text-decoration-style:solid;text-decoration-color:#000000;letter-spacing:normal;word-spacing:normal;text-transform:none;writing-mode:lr-tb;direction:ltr;text-orientation:mixed;dominant-baseline:auto;baseline-shift:baseline;text-anchor:start;white-space:normal;shape-padding:0;shape-margin:0;inline-size:0;clip-rule:nonzero;display:inline;overflow:visible;visibility:visible;isolation:auto;mix-blend-mode:normal;color-interpolation:sRGB;color-interpolation-filters:linearRGB;solid-color:#000000;solid-opacity:1;vector-effect:none;fill:#31934e;fill-opacity:1;fill-rule:nonzero;stroke:none;stroke-width:0.429941;stroke-linecap:round;stroke-linejoin:round;stroke-miterlimit:4;stroke-dasharray:none;stroke-dashoffset:0;stroke-opacity:1;color-rendering:auto;image-rendering:auto;shape-rendering:auto;text-rendering:auto;enable-background:accumulate;stop-color:#000000"
         d="m 29.951172,270.76172 a 0.26460996,0.26460996 0 0 0 -0.265625,0.26367 v 1.32227 a 0.26460996,0.26460996 0 0 0 0.265625,0.26562 h 0.951172 0.939453 1.019531 a 0.26460996,0.26460996 0 0 0 0.248047,-0.35742 c -0.06339,-0.17023 -0.151606,-0.35565 -0.277344,-0.55664 l -0.002,-0.002 c -0.103698,-0.2035 -0.284548,-0.43603 -0.626953,-0.63282 -0.251304,-0.16303 -0.554083,-0.28136 -0.914063,-0.30273 a 0.26460996,0.26460996 0 0 0 -0.01562,0 z"
         id="path1174" />
      <path
         style="color:#000000;font-style:normal;font-variant:normal;font-weight:normal;font-stretch:normal;font-size:medium;line-height:normal;font-family:sans-serif;font-variant-ligatures:normal;font-variant-position:normal;font-variant-caps:normal;font-variant-numeric:normal;font-variant-alternates:normal;font-variant-east-asian:normal;font-feature-settings:normal;font-variation-settings:normal;text-indent:0;text-align:start;text-decoration:none;text-decoration-line:none;text-decoration-style:solid;text-decoration-color:#000000;letter-spacing:normal;word-spacing:normal;text-transform:none;writing-mode:lr-tb;direction:ltr;text-orientation:mixed;dominant-baseline:auto;baseline-shift:baseline;text-anchor:start;white-space:normal;shape-padding:0;shape-margin:0;inline-size:0;clip-rule:nonzero;display:inline;overflow:visible;visibility:visible;isolation:auto;mix-blend-mode:normal;color-interpolation:sRGB;color-interpolation-filters:linearRGB;solid-color:#000000;solid-opacity:1;vector-effect:none;fill:#f5f6e8;fill-opacity:1;fill-rule:nonzero;stroke:none;stroke-width:0.429941;stroke-linecap:round;stroke-linejoin:round;stroke-miterlimit:4;stroke-dasharray:none;stroke-dashoffset:0;stroke-opacity:1;color-rendering:auto;image-rendering:auto;shape-rendering:auto;text-rendering:auto;enable-background:accumulate;stop-color:#000000"
         d="m 28.90625,268.64453 a 0.26460996,0.26460996 0 0 0 -0.279297,0.26367 v 1.0586 a 0.26460996,0.26460996 0 0 0 0.265625,0.26562 h 1.058594 1.755859 a 0.26460996,0.26460996 0 0 0 0.195313,-0.44336 c -0.776154,-0.84515 -1.948904,-1.09227 -2.996094,-1.14453 z"
         id="path1145" />
      <path
         style="color:#000000;font-style:normal;font-variant:normal;font-weight:normal;font-stretch:normal;font-size:medium;line-height:normal;font-family:sans-serif;font-variant-ligatures:normal;font-variant-position:normal;font-variant-caps:normal;font-variant-numeric:normal;font-variant-alternates:normal;font-variant-east-asian:normal;font-feature-settings:normal;font-variation-settings:normal;text-indent:0;text-align:start;text-decoration:none;text-decoration-line:none;text-decoration-style:solid;text-decoration-color:#000000;letter-spacing:normal;word-spacing:normal;text-transform:none;writing-mode:lr-tb;direction:ltr;text-orientation:mixed;dominant-baseline:auto;baseline-shift:baseline;text-anchor:start;white-space:normal;shape-padding:0;shape-margin:0;inline-size:0;clip-rule:nonzero;display:inline;overflow:visible;visibility:visible;isolation:auto;mix-blend-mode:normal;color-interpolation:sRGB;color-interpolation-filters:linearRGB;solid-color:#000000;solid-opacity:1;vector-effect:none;fill:#f5f6e8;fill-opacity:1;fill-rule:nonzero;stroke:none;stroke-width:0.429941;stroke-linecap:round;stroke-linejoin:round;stroke-miterlimit:4;stroke-dasharray:none;stroke-dashoffset:0;stroke-opacity:1;color-rendering:auto;image-rendering:auto;shape-rendering:auto;text-rendering:auto;enable-background:accumulate;stop-color:#000000"
         d="m 26.775391,268.64453 a 0.26460996,0.26460996 0 0 0 -0.263672,0.26367 v 1.0586 a 0.26460996,0.26460996 0 0 0 0.263672,0.26562 h 1.058593 a 0.26460996,0.26460996 0 0 0 0.265625,-0.26562 v -1.0586 a 0.26460996,0.26460996 0 0 0 -0.265625,-0.26367 z"
         id="path1129" />
      <path
         id="path1305"
         style="fill:#dbdccf;fill-opacity:1;stroke:none;stroke-width:1.62497;stroke-linecap:round;stroke-linejoin:round;stroke-opacity:1"
         d="m 101.19922,-59.169922 c -0.54998,0.0011 -0.99585,0.446118 -0.99805,0.996094 l -0.0172,0.983079 c 1.06594,0.284376 3.92303,0.733136 6.0191,0.956374 v -1.939453 c -0.002,-0.552261 -0.45164,-0.998196 -1.0039,-0.996094 z"
         transform="matrix(0.26458333,0,0,0.26458333,0,284.3)"
         sodipodi:nodetypes="ccccccc" />
      <path
         id="path1310"
         style="fill:#dbdccf;fill-opacity:1;stroke:none;stroke-width:1.62497;stroke-linecap:round;stroke-linejoin:round;stroke-opacity:1"
         d="m 109.16797,-59.171875 c -0.54003,0.01588 -0.96982,0.457785 -0.9707,0.998047 v 2.267805 c 1.15216,0.196777 2.25986,0.414859 3.25,0.909929 0.98849,0.494245 1.995,1.065587 2.75588,1.776685 l 5.63474,0.05144 c 0.87057,8.26e-4 1.32645,-1.033946 0.73828,-1.675781 -2.93349,-3.194268 -7.36633,-4.128654 -11.32422,-4.326172 -0.0279,-0.0018 -0.056,-0.0025 -0.084,-0.002 z"
         transform="matrix(0.26458333,0,0,0.26458333,0,284.3)"
         sodipodi:nodetypes="cccsccccc" />
      <path
         id="path1315"
         style="fill:#2c8346;fill-opacity:1;stroke:none;stroke-width:1.62497;stroke-linecap:round;stroke-linejoin:round;stroke-opacity:1"
         d="m 115.91105,-51.150822 c 1.54886,2.099477 2.58324,4.570394 3.85848,6.9809 h 0.57813 3.85351 c 0.69892,8.32e-4 1.18312,-0.697223 0.9375,-1.351562 -0.23958,-0.643389 -0.5736,-1.343869 -1.04883,-2.103516 l -0.008,-0.0078 c -0.39193,-0.769134 -1.07501,-1.646852 -2.36914,-2.390626 -0.94981,-0.616176 -2.09452,-1.063762 -3.45508,-1.144531 -0.0195,-5.72e-4 -0.0391,-5.72e-4 -0.0586,0 z"
         transform="matrix(0.26458333,0,0,0.26458333,0,284.3)"
         sodipodi:nodetypes="ccccccccccc" />
      <path
         style="color:#000000;font-style:normal;font-variant:normal;font-weight:normal;font-stretch:normal;font-size:medium;line-height:normal;font-family:sans-serif;font-variant-ligatures:normal;font-variant-position:normal;font-variant-caps:normal;font-variant-numeric:normal;font-variant-alternates:normal;font-variant-east-asian:normal;font-feature-settings:normal;font-variation-settings:normal;text-indent:0;text-align:start;text-decoration:none;text-decoration-line:none;text-decoration-style:solid;text-decoration-color:#000000;letter-spacing:normal;word-spacing:normal;text-transform:none;writing-mode:lr-tb;direction:ltr;text-orientation:mixed;dominant-baseline:auto;baseline-shift:baseline;text-anchor:start;white-space:normal;shape-padding:0;shape-margin:0;inline-size:0;clip-rule:nonzero;display:inline;overflow:visible;visibility:visible;isolation:auto;mix-blend-mode:normal;color-interpolation:sRGB;color-interpolation-filters:linearRGB;solid-color:#000000;solid-opacity:1;vector-effect:none;fill:#143441;fill-opacity:1;fill-rule:nonzero;stroke:none;stroke-width:0.429941;stroke-linecap:round;stroke-linejoin:round;stroke-miterlimit:4;stroke-dasharray:none;stroke-dashoffset:0;stroke-opacity:1;color-rendering:auto;image-rendering:auto;shape-rendering:auto;text-rendering:auto;enable-background:accumulate;stop-color:#000000"
         d="m 31.375,271.80469 c -0.435244,0 -0.794925,0.35772 -0.794922,0.79297 -1.1e-5,0.43525 0.359672,0.79492 0.794922,0.79492 0.43525,0 0.79298,-0.35967 0.792969,-0.79492 3e-6,-0.43525 -0.357725,-0.79297 -0.792969,-0.79297 z"
         id="path1205" />
      <path
         id="path1322"
         style="fill:#2c8346;fill-opacity:1;stroke:none;stroke-width:1.62497;stroke-linecap:round;stroke-linejoin:round;stroke-opacity:1"
         d="m 91.203125,-51.167969 a 1.0001006,1.0001006 0 0 0 -0.675781,0.259766 c -0.07463,0.124658 -0.160048,0.243923 -0.22461,0.373047 0.439805,0.456642 1.017661,1.915105 1.648438,2.230468 1.489349,0.744681 3.481199,0.864784 4.65625,1.746094 0.713208,0.534897 1.122898,1.444069 1.503906,2.388672 h 0.238281 3.853511 a 1.0001006,1.0001006 0 0 0 0.9375,-1.351562 c -0.2423,-0.650646 -0.58622,-1.3553 -1.07031,-2.125 -0.39309,-0.765733 -1.07713,-1.637754 -2.363279,-2.376954 -0.948741,-0.614324 -2.089334,-1.063913 -3.447265,-1.144531 a 1.0001006,1.0001006 0 0 0 -0.05859,0 z"
         transform="matrix(0.26458333,0,0,0.26458333,0,284.3)" />
      <path
         style="color:#000000;font-style:normal;font-variant:normal;font-weight:normal;font-stretch:normal;font-size:medium;line-height:normal;font-family:sans-serif;font-variant-ligatures:normal;font-variant-position:normal;font-variant-caps:normal;font-variant-numeric:normal;font-variant-alternates:normal;font-variant-east-asian:normal;font-feature-settings:normal;font-variation-settings:normal;text-indent:0;text-align:start;text-decoration:none;text-decoration-line:none;text-decoration-style:solid;text-decoration-color:#000000;letter-spacing:normal;word-spacing:normal;text-transform:none;writing-mode:lr-tb;direction:ltr;text-orientation:mixed;dominant-baseline:auto;baseline-shift:baseline;text-anchor:start;white-space:normal;shape-padding:0;shape-margin:0;inline-size:0;clip-rule:nonzero;display:inline;overflow:visible;visibility:visible;isolation:auto;mix-blend-mode:normal;color-interpolation:sRGB;color-interpolation-filters:linearRGB;solid-color:#000000;solid-opacity:1;vector-effect:none;fill:#143441;fill-opacity:1;fill-rule:nonzero;stroke:none;stroke-width:0.429941;stroke-linecap:round;stroke-linejoin:round;stroke-miterlimit:4;stroke-dasharray:none;stroke-dashoffset:0;stroke-opacity:1;color-rendering:auto;image-rendering:auto;shape-rendering:auto;text-rendering:auto;enable-background:accumulate;stop-color:#000000"
         d="m 25.554688,271.80469 c -0.435244,0 -0.794925,0.35772 -0.794922,0.79297 -1.1e-5,0.43525 0.359672,0.79492 0.794922,0.79492 0.435249,0 0.792979,-0.35967 0.792968,-0.79492 3e-6,-0.43525 -0.357724,-0.79297 -0.792968,-0.79297 z"
         id="path1190" />
      <path
         id="path1327"
         style="color:#000000;font-style:normal;font-variant:normal;font-weight:normal;font-stretch:normal;font-size:medium;line-height:normal;font-family:sans-serif;font-variant-ligatures:normal;font-variant-position:normal;font-variant-caps:normal;font-variant-numeric:normal;font-variant-alternates:normal;font-variant-east-asian:normal;font-feature-settings:normal;font-variation-settings:normal;text-indent:0;text-align:start;text-decoration:none;text-decoration-line:none;text-decoration-style:solid;text-decoration-color:#000000;letter-spacing:normal;word-spacing:normal;text-transform:none;writing-mode:lr-tb;direction:ltr;text-orientation:mixed;dominant-baseline:auto;baseline-shift:baseline;text-anchor:start;white-space:normal;shape-padding:0;shape-margin:0;inline-size:0;clip-rule:nonzero;display:inline;overflow:visible;visibility:visible;isolation:auto;mix-blend-mode:normal;color-interpolation:sRGB;color-interpolation-filters:linearRGB;solid-color:#000000;solid-opacity:1;vector-effect:none;fill:#e4e5d8;fill-opacity:1;fill-rule:nonzero;stroke:none;stroke-width:0.429941;stroke-linecap:round;stroke-linejoin:round;stroke-miterlimit:4;stroke-dasharray:none;stroke-dashoffset:0;stroke-opacity:1;color-rendering:auto;image-rendering:auto;shape-rendering:auto;text-rendering:auto;enable-background:accumulate;stop-color:#000000"
         d="m 26.775624,263.88109 a 0.26460995,0.26460995 0 0 0 -0.264067,0.26562 v 0.26355 h 1.322401 a 0.26460995,0.26460995 0 0 1 0.264067,0.26562 v 0.79271 a 0.26458349,0.26458349 0 0 1 0,0.0253 v 0.50436 h 0.265099 a 0.26460995,0.26460995 0 0 0 0.264068,-0.26561 v -0.76791 a 0.26458349,0.26458349 0 0 0 0,-0.0253 v -0.79271 a 0.26460995,0.26460995 0 0 0 -0.264068,-0.26562 z" />
      <path
         id="path1332"
         style="color:#000000;font-style:normal;font-variant:normal;font-weight:normal;font-stretch:normal;font-size:medium;line-height:normal;font-family:sans-serif;font-variant-ligatures:normal;font-variant-position:normal;font-variant-caps:normal;font-variant-numeric:normal;font-variant-alternates:normal;font-variant-east-asian:normal;font-feature-settings:normal;font-variation-settings:normal;text-indent:0;text-align:start;text-decoration:none;text-decoration-line:none;text-decoration-style:solid;text-decoration-color:#000000;letter-spacing:normal;word-spacing:normal;text-transform:none;writing-mode:lr-tb;direction:ltr;text-orientation:mixed;dominant-baseline:auto;baseline-shift:baseline;text-anchor:start;white-space:normal;shape-padding:0;shape-margin:0;inline-size:0;clip-rule:nonzero;display:inline;overflow:visible;visibility:visible;isolation:auto;mix-blend-mode:normal;color-interpolation:sRGB;color-interpolation-filters:linearRGB;solid-color:#000000;solid-opacity:1;vector-effect:none;fill:#0f2437;fill-opacity:1;fill-rule:nonzero;stroke:none;stroke-width:0.429941;stroke-linecap:round;stroke-linejoin:round;stroke-miterlimit:4;stroke-dasharray:none;stroke-dashoffset:0;stroke-opacity:1;color-rendering:auto;image-rendering:auto;shape-rendering:auto;text-rendering:auto;enable-background:accumulate;stop-color:#000000"
         d="m 25.554513,271.80463 c -0.356182,0 -0.657798,0.24132 -0.757059,0.56689 0.07281,-0.0222 0.148288,-0.0377 0.227893,-0.0377 0.435244,0 0.793236,0.35798 0.793233,0.79323 2e-6,0.0796 -0.01551,0.15508 -0.03772,0.22789 0.325573,-0.0993 0.5669,-0.40087 0.566891,-0.75705 3e-6,-0.43525 -0.357989,-0.79324 -0.793234,-0.79324 z" />
      <path
         d="m 31.37535,271.80463 c -0.356182,0 -0.657798,0.24132 -0.757059,0.56689 0.07281,-0.0222 0.148288,-0.0377 0.227893,-0.0377 0.435244,0 0.793236,0.35798 0.793233,0.79323 2e-6,0.0796 -0.01551,0.15508 -0.03772,0.22789 0.325573,-0.0993 0.5669,-0.40087 0.566891,-0.75705 3e-6,-0.43525 -0.357989,-0.79324 -0.793234,-0.79324 z"
         style="color:#000000;font-style:normal;font-variant:normal;font-weight:normal;font-stretch:normal;font-size:medium;line-height:normal;font-family:sans-serif;font-variant-ligatures:normal;font-variant-position:normal;font-variant-caps:normal;font-variant-numeric:normal;font-variant-alternates:normal;font-variant-east-asian:normal;font-feature-settings:normal;font-variation-settings:normal;text-indent:0;text-align:start;text-decoration:none;text-decoration-line:none;text-decoration-style:solid;text-decoration-color:#000000;letter-spacing:normal;word-spacing:normal;text-transform:none;writing-mode:lr-tb;direction:ltr;text-orientation:mixed;dominant-baseline:auto;baseline-shift:baseline;text-anchor:start;white-space:normal;shape-padding:0;shape-margin:0;inline-size:0;clip-rule:nonzero;display:inline;overflow:visible;visibility:visible;isolation:auto;mix-blend-mode:normal;color-interpolation:sRGB;color-interpolation-filters:linearRGB;solid-color:#000000;solid-opacity:1;vector-effect:none;fill:#0f2437;fill-opacity:1;fill-rule:nonzero;stroke:none;stroke-width:0.429941;stroke-linecap:round;stroke-linejoin:round;stroke-miterlimit:4;stroke-dasharray:none;stroke-dashoffset:0;stroke-opacity:1;color-rendering:auto;image-rendering:auto;shape-rendering:auto;text-rendering:auto;enable-background:accumulate;stop-color:#000000"
         id="path1343" />
    </g>
  </g>
</svg>
