<?xml version="1.0" encoding="utf-8"?>
<!-- Generator: Adobe Illustrator 21.0.0, SVG Export Plug-In . SVG Version: 6.00 Build 0)  -->
<svg version="1.1" id="Layer_1" xmlns="http://www.w3.org/2000/svg" xmlns:xlink="http://www.w3.org/1999/xlink" x="0px" y="0px"
	 viewBox="0 0 2000 2000" style="enable-background:new 0 0 2000 2000;" xml:space="preserve">
<path d="M1407.5,474.4c5.2-11.7,10.4-23.4,15.5-35.1c36.6-83.1,73.2-166.3,109.8-249.3c8.8-19.9,37.8-2.6,29.2,17.1
	c-5.2,11.7-10.4,23.4-15.5,35.1c-36.6,83.1-73.2,166.2-109.8,249.3C1427.9,511.3,1398.8,494.1,1407.5,474.4z M1265.3,454
	c3.3,8.8,6.6,17.7,9.8,26.4c7.5,20.3,40.2,11.5,32.6-9c-23-62-46.1-123.9-69.1-185.8c-3.3-8.8-6.5-17.7-9.8-26.4
	c-7.5-20.3-40.2-11.5-32.6,9C1219.1,330.2,1242.3,392.2,1265.3,454z M1717.2,494.6c-63.2,15.8-126.4,31.8-189.8,47.6
	c-8.9,2.3-17.8,4.4-26.7,6.7c-21.1,5.4-12.2,37.9,9,32.6c63.2-15.9,126.4-31.8,189.8-47.6c8.9-2.3,17.8-4.4,26.7-6.7
	C1747.3,521.9,1738.4,489.2,1717.2,494.6z M1688.2,915.6c0,0.5,0,1,0.1,1.4c0,0.1-0.1,0.2-0.1,0.5c-0.1,1.1-0.3,2.2-0.6,3.3
	c-0.2,0.9-0.5,1.7-0.8,2.5c-0.5,1.1-1.1,2.2-1.8,3.2c-0.3,0.5-0.6,1-0.9,1.5c0,0.1,0,0.1-0.1,0.2c-28.6,34.3-57.1,68.7-85.7,103
	c-202.5,243.4-404.9,486.7-607.4,730.1c-1.1,2.4-2.8,4.3-5.1,5.7c-3.3,3.3-7.1,4.8-10.7,4.6c-3.8,0.2-7.5-1.3-10.8-4.7
	c-0.1-0.1-0.2-0.2-0.3-0.3c-0.2-0.3-0.6-0.3-0.8-0.7c-0.3-0.3-0.7-0.8-1-1.1c-0.9-0.9-1.8-1.8-2.5-3c-27.5-32.9-54.8-65.8-82.2-98.8
	C673.5,1418,469.8,1173.1,266,928.1c-0.1-0.1-0.2-0.3-0.3-0.6c-0.9-1-1.6-2.2-2.2-3.4c0-0.2-0.1-0.3-0.2-0.6c-0.5-1-0.8-2.1-1-3.2
	c-0.2-0.7-0.3-1.3-0.5-1.9c0-0.2,0-0.6,0-0.9c-0.3-4.7,1-9.2,3.9-12.6c0.1-0.1,0.2-0.3,0.3-0.6C354.5,793.5,443,682.8,531.5,572
	c4.2-5.4,7.7-10.8,12.1-15.1c2.7-4.2,7.5-6.7,12.5-7.5c0.9-0.3,1.6-0.8,2.6-1c9.3-1.8,20.7,0,30.2,0c57.9,0,115.6,0,173.4,0
	c159.6,0,319.3,0,478.8,0c39.8,0,83.1-5,122.8,0c0.7,0,1.4,0.5,2.1,0.6c6-0.3,12.2,2.4,15.7,7.1c20.7,14.1,38.7,44.4,52.2,59.9
	c83.4,96.1,166.8,192.3,250.1,288.4c0,0.1,0.1,0.2,0.1,0.2c0.1,0.2,0.2,0.5,0.5,0.7c1.1,1.4,2.1,3.1,2.7,4.8c0,0.1,0.1,0.2,0.1,0.3
	c0.2,0.6,0.2,1,0.3,1.6C1688,913.2,1688.2,914.3,1688.2,915.6z M1283.8,899.4c117,0,234.1,0,351.2,0
	c-83.4-96.1-166.6-192.2-249.8-288.3c-0.9-1-5.4-5.6-10.5-10.9c-1.5,4.8-2.8,9.5-4.3,14.1C1341.6,709.3,1312.7,804.4,1283.8,899.4z
	 M1001.4,582c62.9,74.8,125.9,149.6,188.9,224.3c20.7,24.6,43.6,48.6,63.9,73.9c1.4-4.3,2.6-8.7,4-13c28.8-95,57.7-190.1,86.6-285.1
	c-52.5,0-105,0-157.8-0.1C1125.1,582,1063.2,582,1001.4,582z M965.1,591.2c-88.5,102.7-176.9,205.5-265.4,308.2c167,0,334,0,500.9,0
	c8,0,16.1,0,24,0C1138.2,796.7,1051.7,693.9,965.1,591.2z M581.3,582.5c2.3,7.5,4.4,15.1,6.7,22.7c27.5,92.1,54.8,184.4,82.2,276.6
	c86.1-99.9,172.1-199.8,258.1-299.7c-72.3,0-144.8,0-217.2,0C668.4,582.1,624.1,585.3,581.3,582.5z M312.7,899.3
	c45.7,0,91.2,0,136.8,0c63.6,0,127,0,190.6,0c-2.3-7.7-4.6-15.4-6.8-23.1c-27-90.9-54-181.9-81.1-272.9
	c-8.7,10.3-18.7,20.2-25.7,28.7C455.1,721,383.9,810.2,312.7,899.3z M924.6,1667.2c-1.7-4.4-3.3-9-5-13.4
	c-89.4-240.1-178.9-480.3-268.4-720.5c-112.4,0-224.8,0-337.3,0c20.5,24.7,41.1,49.3,61.6,74
	C558.6,1227.3,741.5,1447.3,924.6,1667.2z M994.3,1645.1c81-237.4,162-474.6,243-711.9c-162.7,0-325.4,0-488.1,0
	c-20.7,0-41.3,0-62.1,0c10.4,27.8,20.7,55.6,31.1,83.4c85.4,229.1,170.7,458.2,256.1,687.3C981,1684.2,987.6,1664.6,994.3,1645.1z
	 M1635.8,933.1c-45.2,0-90.4,0-135.8,0c-75.6,0-151.3,0-226.9,0c-1.3,3.6-2.7,7.4-4.2,11.7c-31,90.7-61.8,181.3-92.8,272
	c-51.9,151.9-103.8,304-155.7,456.1c9.5-11.3,18.8-22.6,28.2-33.8C1244.4,1403.9,1440.2,1168.6,1635.8,933.1z"/>
</svg>
