<?xml version="1.0" encoding="UTF-8" standalone="no"?>
<svg
   xmlns:dc="http://purl.org/dc/elements/1.1/"
   xmlns:cc="http://creativecommons.org/ns#"
   xmlns:rdf="http://www.w3.org/1999/02/22-rdf-syntax-ns#"
   xmlns:svg="http://www.w3.org/2000/svg"
   xmlns="http://www.w3.org/2000/svg"
   xmlns:sodipodi="http://sodipodi.sourceforge.net/DTD/sodipodi-0.dtd"
   xmlns:inkscape="http://www.inkscape.org/namespaces/inkscape"
   inkscape:export-ydpi="576"
   inkscape:export-xdpi="576"
   inkscape:export-filename="E:\Filedline\2 - Ice Cream.png"
   width="64pt"
   height="64pt"
   viewBox="0 0 22.577778 22.577778"
   version="1.1"
   id="svg831"
   inkscape:version="1.0 (4035a4fb49, 2020-05-01)"
   sodipodi:docname="EXPORT 64px.svg">
  <defs
     id="defs825">
    <pattern
       id="EMFhbasepattern"
       patternUnits="userSpaceOnUse"
       width="6"
       height="6"
       x="0"
       y="0" />
    <pattern
       id="EMFhbasepattern-9"
       patternUnits="userSpaceOnUse"
       width="6"
       height="6"
       x="0"
       y="0" />
    <pattern
       id="EMFhbasepattern-0"
       patternUnits="userSpaceOnUse"
       width="6"
       height="6"
       x="0"
       y="0" />
    <pattern
       id="EMFhbasepattern-7"
       patternUnits="userSpaceOnUse"
       width="6"
       height="6"
       x="0"
       y="0" />
    <pattern
       id="EMFhbasepattern-2"
       patternUnits="userSpaceOnUse"
       width="6"
       height="6"
       x="0"
       y="0" />
    <pattern
       id="EMFhbasepattern-98"
       patternUnits="userSpaceOnUse"
       width="6"
       height="6"
       x="0"
       y="0" />
    <pattern
       id="EMFhbasepattern-6"
       patternUnits="userSpaceOnUse"
       width="6"
       height="6"
       x="0"
       y="0" />
    <pattern
       id="EMFhbasepattern-01"
       patternUnits="userSpaceOnUse"
       width="6"
       height="6"
       x="0"
       y="0" />
    <pattern
       id="EMFhbasepattern-07"
       patternUnits="userSpaceOnUse"
       width="6"
       height="6"
       x="0"
       y="0" />
    <pattern
       id="EMFhbasepattern-8"
       patternUnits="userSpaceOnUse"
       width="6"
       height="6"
       x="0"
       y="0" />
    <pattern
       id="EMFhbasepattern-4"
       patternUnits="userSpaceOnUse"
       width="6"
       height="6"
       x="0"
       y="0" />
    <pattern
       id="EMFhbasepattern-40"
       patternUnits="userSpaceOnUse"
       width="6"
       height="6"
       x="0"
       y="0" />
    <pattern
       id="EMFhbasepattern-08"
       patternUnits="userSpaceOnUse"
       width="6"
       height="6"
       x="0"
       y="0" />
    <pattern
       id="EMFhbasepattern-04"
       patternUnits="userSpaceOnUse"
       width="6"
       height="6"
       x="0"
       y="0" />
    <pattern
       id="EMFhbasepattern-014"
       patternUnits="userSpaceOnUse"
       width="6"
       height="6"
       x="0"
       y="0" />
    <pattern
       id="EMFhbasepattern-27"
       patternUnits="userSpaceOnUse"
       width="6"
       height="6"
       x="0"
       y="0" />
    <pattern
       id="EMFhbasepattern-09"
       patternUnits="userSpaceOnUse"
       width="6"
       height="6"
       x="0"
       y="0" />
    <pattern
       id="EMFhbasepattern-5"
       patternUnits="userSpaceOnUse"
       width="6"
       height="6"
       x="0"
       y="0" />
    <pattern
       id="EMFhbasepattern-018"
       patternUnits="userSpaceOnUse"
       width="6"
       height="6"
       x="0"
       y="0" />
  </defs>
  <sodipodi:namedview
     id="base"
     pagecolor="#ffffff"
     bordercolor="#666666"
     borderopacity="1.0"
     inkscape:pageopacity="0.0"
     inkscape:pageshadow="2"
     inkscape:zoom="3.3909162"
     inkscape:cx="9.805947"
     inkscape:cy="23.142722"
     inkscape:document-units="pt"
     inkscape:current-layer="layer1"
     showgrid="false"
     units="pt"
     inkscape:window-width="1366"
     inkscape:window-height="715"
     inkscape:window-x="-8"
     inkscape:window-y="-8"
     inkscape:window-maximized="1"
     inkscape:pagecheckerboard="true"
     inkscape:showpageshadow="false"
     inkscape:object-paths="true"
     inkscape:snap-intersection-paths="true"
     inkscape:snap-smooth-nodes="true"
     inkscape:snap-midpoints="true"
     showguides="true"
     inkscape:snap-bbox="true"
     inkscape:bbox-nodes="true"
     inkscape:snap-nodes="false"
     inkscape:snap-global="true"
     inkscape:document-rotation="0">
    <inkscape:grid
       type="xygrid"
       id="grid1378" />
    <sodipodi:guide
       position="0.97013831,21.607643"
       orientation="78.000048,0"
       id="guide1380"
       inkscape:locked="false" />
    <sodipodi:guide
       position="0.97013831,0.97013129"
       orientation="0,78.000005"
       id="guide1382"
       inkscape:locked="false" />
    <sodipodi:guide
       position="21.607639,0.97013129"
       orientation="-78.000048,0"
       id="guide1384"
       inkscape:locked="false" />
    <sodipodi:guide
       position="21.607639,21.607643"
       orientation="0,-78.000005"
       id="guide1386"
       inkscape:locked="false" />
  </sodipodi:namedview>
  <metadata
     id="metadata828">
    <rdf:RDF>
      <cc:Work
         rdf:about="">
        <dc:format>image/svg+xml</dc:format>
        <dc:type
           rdf:resource="http://purl.org/dc/dcmitype/StillImage" />
        <dc:title></dc:title>
      </cc:Work>
    </rdf:RDF>
  </metadata>
  <g
     inkscape:label="Icon"
     inkscape:groupmode="layer"
     id="layer1"
     transform="translate(0,-274.42223)">
    <g
       transform="matrix(1.2398846,0,0,1.2398846,37.95113,-34.217965)"
       style="display:inline"
       id="g1620">
      <path
         style="color:#000000;font-style:normal;font-variant:normal;font-weight:normal;font-stretch:normal;font-size:medium;line-height:normal;font-family:sans-serif;font-variant-ligatures:normal;font-variant-position:normal;font-variant-caps:normal;font-variant-numeric:normal;font-variant-alternates:normal;font-variant-east-asian:normal;font-feature-settings:normal;font-variation-settings:normal;text-indent:0;text-align:start;text-decoration:none;text-decoration-line:none;text-decoration-style:solid;text-decoration-color:#000000;letter-spacing:normal;word-spacing:normal;text-transform:none;writing-mode:lr-tb;direction:ltr;text-orientation:mixed;dominant-baseline:auto;baseline-shift:baseline;text-anchor:start;white-space:normal;shape-padding:0;shape-margin:0;inline-size:0;clip-rule:nonzero;display:inline;overflow:visible;visibility:visible;isolation:auto;mix-blend-mode:normal;color-interpolation:sRGB;color-interpolation-filters:linearRGB;solid-color:#000000;solid-opacity:1;vector-effect:none;fill:#ffa185;fill-opacity:1;fill-rule:evenodd;stroke:none;stroke-width:0.529167;stroke-linecap:round;stroke-linejoin:round;stroke-miterlimit:4;stroke-dasharray:none;stroke-dashoffset:0;stroke-opacity:1;color-rendering:auto;image-rendering:auto;shape-rendering:auto;text-rendering:auto;enable-background:accumulate;stop-color:#000000"
         d="m -24.150391,261.0918 0.496094,4.47265 c 0.03233,0.29096 0.220441,0.52063 0.513672,0.5918 1.092088,0.26539 2.184827,0.26111 3.265625,0 0.293153,-0.0708 0.483277,-0.30072 0.515625,-0.5918 l 0.496094,-4.47265 c 0.02036,-0.17892 -0.140054,-0.32547 -0.316407,-0.28907 -1.450585,0.29982 -2.958203,0.39005 -3.90715,0.18696 -0.948946,-0.20309 -1.082775,-0.0618 -1.063553,0.10211 z"
         id="path540"
         sodipodi:nodetypes="ccccccccc" />
      <path
         id="path1660"
         style="color:#000000;font-style:normal;font-variant:normal;font-weight:normal;font-stretch:normal;font-size:medium;line-height:normal;font-family:sans-serif;font-variant-ligatures:normal;font-variant-position:normal;font-variant-caps:normal;font-variant-numeric:normal;font-variant-alternates:normal;font-variant-east-asian:normal;font-feature-settings:normal;font-variation-settings:normal;text-indent:0;text-align:start;text-decoration:none;text-decoration-line:none;text-decoration-style:solid;text-decoration-color:#000000;letter-spacing:normal;word-spacing:normal;text-transform:none;writing-mode:lr-tb;direction:ltr;text-orientation:mixed;dominant-baseline:auto;baseline-shift:baseline;text-anchor:start;white-space:normal;shape-padding:0;shape-margin:0;inline-size:0;clip-rule:nonzero;display:inline;overflow:visible;visibility:visible;isolation:auto;mix-blend-mode:normal;color-interpolation:sRGB;color-interpolation-filters:linearRGB;solid-color:#000000;solid-opacity:1;vector-effect:none;fill:#e07a5f;fill-opacity:1;fill-rule:evenodd;stroke:none;stroke-width:0.529167;stroke-linecap:round;stroke-linejoin:round;stroke-miterlimit:4;stroke-dasharray:none;stroke-dashoffset:0;stroke-opacity:1;color-rendering:auto;image-rendering:auto;shape-rendering:auto;text-rendering:auto;enable-background:accumulate;stop-color:#000000"
         d="m -24.150464,261.09159 0.09198,0.83044 c 1.56923,0.31208 2.985632,0.22094 4.349606,-0.061 0.176207,-0.0363 0.336444,0.11011 0.31626,0.28887 l -0.442867,3.99356 c 0.270102,-0.0815 0.445107,-0.30133 0.47594,-0.57878 l 0.496093,-4.47311 c 0.02018,-0.17876 -0.140052,-0.32512 -0.316259,-0.28887 -1.450585,0.29982 -2.958062,0.39012 -3.913735,0.19359 -0.955674,-0.19653 -1.075013,-0.0597 -1.057018,0.0953 z"
         sodipodi:nodetypes="cccccccccc" />
      <path
         style="color:#000000;font-style:normal;font-variant:normal;font-weight:normal;font-stretch:normal;font-size:medium;line-height:normal;font-family:sans-serif;font-variant-ligatures:normal;font-variant-position:normal;font-variant-caps:normal;font-variant-numeric:normal;font-variant-alternates:normal;font-variant-east-asian:normal;font-feature-settings:normal;font-variation-settings:normal;text-indent:0;text-align:start;text-decoration:none;text-decoration-line:none;text-decoration-style:solid;text-decoration-color:#000000;letter-spacing:normal;word-spacing:normal;text-transform:none;writing-mode:lr-tb;direction:ltr;text-orientation:mixed;dominant-baseline:auto;baseline-shift:baseline;text-anchor:start;white-space:normal;shape-padding:0;shape-margin:0;inline-size:0;clip-rule:nonzero;display:inline;overflow:visible;visibility:visible;isolation:auto;mix-blend-mode:normal;color-interpolation:sRGB;color-interpolation-filters:linearRGB;solid-color:#000000;solid-opacity:1;vector-effect:none;fill:#ffccbc;fill-opacity:1;fill-rule:nonzero;stroke:none;stroke-width:0.529167;stroke-linecap:round;stroke-linejoin:round;stroke-miterlimit:4;stroke-dasharray:none;stroke-dashoffset:0;stroke-opacity:1;color-rendering:auto;image-rendering:auto;shape-rendering:auto;text-rendering:auto;enable-background:accumulate;stop-color:#000000"
         d="m -24.777344,259.73828 c 0,0.0443 -0.0724,0.36609 -0.03125,0.69531 0.04115,0.32923 0.259693,0.71872 0.740235,0.87891 0.0083,0.003 0.0168,0.006 0.02539,0.008 0.887475,0.20376 1.729803,0.28142 2.539063,0.26953 0.807008,0.0113 1.648427,-0.0664 2.533203,-0.26953 0.0086,-0.002 0.01707,-0.005 0.02539,-0.008 0.480541,-0.16019 0.699084,-0.54968 0.740234,-0.87891 0.04115,-0.32922 -0.03125,-0.65106 -0.03125,-0.69531 1.75e-4,-0.18481 -0.184349,-0.31287 -0.357422,-0.24805 -1.015041,0.38313 -1.978805,0.53259 -2.914061,0.53261 -0.935257,1e-5 -1.897069,-0.14948 -2.521184,-0.35135 -0.624116,-0.20188 -0.747901,-0.0825 -0.748348,0.0668 z"
         id="path554"
         sodipodi:nodetypes="cscccccsccccc" />
      <path
         id="path1654"
         style="color:#000000;font-style:normal;font-variant:normal;font-weight:normal;font-stretch:normal;font-size:medium;line-height:normal;font-family:sans-serif;font-variant-ligatures:normal;font-variant-position:normal;font-variant-caps:normal;font-variant-numeric:normal;font-variant-alternates:normal;font-variant-east-asian:normal;font-feature-settings:normal;font-variation-settings:normal;text-indent:0;text-align:start;text-decoration:none;text-decoration-line:none;text-decoration-style:solid;text-decoration-color:#000000;letter-spacing:normal;word-spacing:normal;text-transform:none;writing-mode:lr-tb;direction:ltr;text-orientation:mixed;dominant-baseline:auto;baseline-shift:baseline;text-anchor:start;white-space:normal;shape-padding:0;shape-margin:0;inline-size:0;clip-rule:nonzero;display:inline;overflow:visible;visibility:visible;isolation:auto;mix-blend-mode:normal;color-interpolation:sRGB;color-interpolation-filters:linearRGB;solid-color:#000000;solid-opacity:1;vector-effect:none;fill:#e89c87;fill-opacity:1;fill-rule:nonzero;stroke:none;stroke-width:0.529167;stroke-linecap:round;stroke-linejoin:round;stroke-miterlimit:4;stroke-dasharray:none;stroke-dashoffset:0;stroke-opacity:1;color-rendering:auto;image-rendering:auto;shape-rendering:auto;text-rendering:auto;enable-background:accumulate;stop-color:#000000"
         d="m -18.593703,259.49014 c -1.015041,0.38313 -1.978779,0.53276 -2.914034,0.53278 -0.935257,10e-6 -1.896925,-0.14965 -2.911967,-0.53278 l -0.357594,0.24804 c 0,0.0443 -0.07267,0.36635 -0.03152,0.69557 1.122856,0.48972 2.296928,0.64128 3.30109,0.64751 1.296315,-0.032 2.213619,-0.1974 3.302636,-0.64751 0.04115,-0.32922 -0.03101,-0.65132 -0.03101,-0.69557 -0.02564,-0.27637 -0.254041,-0.28123 -0.357601,-0.24804 z"
         sodipodi:nodetypes="ccccccccc" />
      <path
         id="path621"
         style="color:#000000;font-style:normal;font-variant:normal;font-weight:normal;font-stretch:normal;font-size:medium;line-height:normal;font-family:sans-serif;font-variant-ligatures:normal;font-variant-position:normal;font-variant-caps:normal;font-variant-numeric:normal;font-variant-alternates:normal;font-variant-east-asian:normal;font-feature-settings:normal;font-variation-settings:normal;text-indent:0;text-align:start;text-decoration:none;text-decoration-line:none;text-decoration-style:solid;text-decoration-color:#000000;letter-spacing:normal;word-spacing:normal;text-transform:none;writing-mode:lr-tb;direction:ltr;text-orientation:mixed;dominant-baseline:auto;baseline-shift:baseline;text-anchor:start;white-space:normal;shape-padding:0;shape-margin:0;inline-size:0;clip-rule:nonzero;display:inline;overflow:visible;visibility:visible;isolation:auto;mix-blend-mode:normal;color-interpolation:sRGB;color-interpolation-filters:linearRGB;solid-color:#000000;solid-opacity:1;vector-effect:none;fill:#ed2175;fill-opacity:1;fill-rule:nonzero;stroke:none;stroke-width:0.529167;stroke-linecap:round;stroke-linejoin:round;stroke-miterlimit:4;stroke-dasharray:none;stroke-dashoffset:0;stroke-opacity:1;color-rendering:auto;image-rendering:auto;shape-rendering:auto;text-rendering:auto;enable-background:accumulate;stop-color:#000000"
         d="m -24.384042,252.91586 c -0.872104,0.19862 -1.25933,1.48262 -1.254704,2.18385 0.04956,0.41319 0.09561,0.78703 0.371037,1.01699 1.217106,0.12696 2.634467,0.17273 3.743509,0.14901 0.301374,-0.002 0.545635,0.23639 0.545635,0.53777 v 0.81959 c -2.6e-5,0.55352 0.548272,0.9341 1.058849,0.74621 v 0.83974 c -7e-6,0.43524 0.359553,0.79476 0.794784,0.79478 0.435245,0 0.792716,-0.35953 0.792716,-0.79478 v -0.31316 c 0.08312,0.03 0.171163,0.0496 0.264067,0.0496 0.435244,0 0.794783,-0.36006 0.794783,-0.7953 V 256.184 c 0.0095,-1.21456 -0.667441,-1.73932 -1.230416,-2.0646 -0.562975,-0.32528 -1.215377,-0.3519 -1.855701,-0.3204 -0.640324,0.0315 -1.281328,0.12163 -1.839681,0.0935 -0.558352,-0.028 -1.009984,-0.15921 -1.361157,-0.55863 -0.274307,-0.25933 -0.475737,-0.38667 -0.823721,-0.41806 z"
         sodipodi:nodetypes="cccccccccsccscssccc" />
      <path
         id="path569"
         style="color:#000000;font-style:normal;font-variant:normal;font-weight:normal;font-stretch:normal;font-size:medium;line-height:normal;font-family:sans-serif;font-variant-ligatures:normal;font-variant-position:normal;font-variant-caps:normal;font-variant-numeric:normal;font-variant-alternates:normal;font-variant-east-asian:normal;font-feature-settings:normal;font-variation-settings:normal;text-indent:0;text-align:start;text-decoration:none;text-decoration-line:none;text-decoration-style:solid;text-decoration-color:#000000;letter-spacing:normal;word-spacing:normal;text-transform:none;writing-mode:lr-tb;direction:ltr;text-orientation:mixed;dominant-baseline:auto;baseline-shift:baseline;text-anchor:start;white-space:normal;shape-padding:0;shape-margin:0;inline-size:0;clip-rule:nonzero;display:inline;overflow:visible;visibility:visible;isolation:auto;mix-blend-mode:normal;color-interpolation:sRGB;color-interpolation-filters:linearRGB;solid-color:#000000;solid-opacity:1;vector-effect:none;fill:#ffa185;fill-opacity:1;fill-rule:nonzero;stroke:none;stroke-width:0.529167;stroke-linecap:round;stroke-linejoin:round;stroke-miterlimit:4;stroke-dasharray:none;stroke-dashoffset:0;stroke-opacity:1;color-rendering:auto;image-rendering:auto;shape-rendering:auto;text-rendering:auto;enable-background:accumulate;stop-color:#000000"
         d="m -19.124931,260.00379 c -0.435231,-2e-5 -0.794791,-0.35954 -0.794783,-0.79478 v -0.83974 c -0.08288,0.0295 -0.171633,0.0465 -0.264067,0.0465 -0.435231,-2e-5 -0.794791,-0.35747 -0.794784,-0.79271 v -0.27957 c -1.321623,0.0456 -2.624474,-0.0164 -3.368007,-0.134 -0.743534,-0.11759 -0.863714,10e-4 -0.864293,0.14796 -0.004,1.05866 -0.02051,1.9324 0.548804,2.5585 0.992049,0.42785 2.199907,0.59714 3.154334,0.61339 0.973252,0.0121 2.057932,-0.12318 2.382796,-0.52555 z"
         sodipodi:nodetypes="ccccscccccc" />
      <path
         id="path1581"
         style="color:#000000;font-style:normal;font-variant:normal;font-weight:normal;font-stretch:normal;font-size:medium;line-height:normal;font-family:sans-serif;font-variant-ligatures:normal;font-variant-position:normal;font-variant-caps:normal;font-variant-numeric:normal;font-variant-alternates:normal;font-variant-east-asian:normal;font-feature-settings:normal;font-variation-settings:normal;text-indent:0;text-align:start;text-decoration:none;text-decoration-line:none;text-decoration-style:solid;text-decoration-color:#000000;letter-spacing:normal;word-spacing:normal;text-transform:none;writing-mode:lr-tb;direction:ltr;text-orientation:mixed;dominant-baseline:auto;baseline-shift:baseline;text-anchor:start;white-space:normal;shape-padding:0;shape-margin:0;inline-size:0;clip-rule:nonzero;display:inline;overflow:visible;visibility:visible;isolation:auto;mix-blend-mode:normal;color-interpolation:sRGB;color-interpolation-filters:linearRGB;solid-color:#000000;solid-opacity:1;vector-effect:none;fill:#ed2175;fill-opacity:1;fill-rule:nonzero;stroke:none;stroke-width:1.99999;stroke-linecap:round;stroke-linejoin:round;stroke-miterlimit:4;stroke-dasharray:none;stroke-dashoffset:0;stroke-opacity:1;color-rendering:auto;image-rendering:auto;shape-rendering:auto;text-rendering:auto;enable-background:accumulate;stop-color:#000000"
         d="m -86.544922,-112.19141 c -1.010387,1.07914 -1.498078,2.40982 -1.664062,3.78125 0.06199,-0.003 0.123078,-0.0123 0.185546,-0.0117 v 0.002 c 1.058472,0.01 2.190782,0.49458 3.337891,1.44922 0.01272,0.0127 0.02509,0.0257 0.03711,0.0391 0.829985,0.76388 1.819882,1.00499 3.064454,1.08398 1.244575,0.0774 2.680261,-0.0452 4.15625,0.0742 0.776343,0.0627 1.57887,0.21122 2.351562,0.51367 0.228321,-0.98331 0.256736,-1.78718 0.09766,-2.48632 -0.208781,-0.91756 -0.763603,-1.56371 -1.253906,-1.98633 -0.490303,-0.42263 -0.910113,-0.70117 -1.136719,-0.9668 -0.728089,-0.8864 0.130569,-1.71292 -0.916015,-3.16797 -0.463926,-0.59576 -1.299529,-0.9465 -3.136473,-0.76301 -1.836943,0.18349 -3.844181,1.07257 -5.123298,2.43871 z"
         transform="matrix(0.26458334,0,0,0.26458334,0,280.06666)"
         sodipodi:nodetypes="sccccccccsscccs" />
      <path
         id="path1593"
         style="color:#000000;font-style:normal;font-variant:normal;font-weight:normal;font-stretch:normal;font-size:medium;line-height:normal;font-family:sans-serif;font-variant-ligatures:normal;font-variant-position:normal;font-variant-caps:normal;font-variant-numeric:normal;font-variant-alternates:normal;font-variant-east-asian:normal;font-feature-settings:normal;font-variation-settings:normal;text-indent:0;text-align:start;text-decoration:none;text-decoration-line:none;text-decoration-style:solid;text-decoration-color:#000000;letter-spacing:normal;word-spacing:normal;text-transform:none;writing-mode:lr-tb;direction:ltr;text-orientation:mixed;dominant-baseline:auto;baseline-shift:baseline;text-anchor:start;white-space:normal;shape-padding:0;shape-margin:0;inline-size:0;clip-rule:nonzero;display:inline;overflow:visible;visibility:visible;isolation:auto;mix-blend-mode:normal;color-interpolation:sRGB;color-interpolation-filters:linearRGB;solid-color:#000000;solid-opacity:1;vector-effect:none;fill:#d9216d;fill-opacity:1;fill-rule:nonzero;stroke:none;stroke-width:0.529167;stroke-linecap:round;stroke-linejoin:round;stroke-miterlimit:4;stroke-dasharray:none;stroke-dashoffset:0;stroke-opacity:1;color-rendering:auto;image-rendering:auto;shape-rendering:auto;text-rendering:auto;enable-background:accumulate;stop-color:#000000"
         d="m -23.166545,250.77646 v 5.1e-4 c -0.09328,0.19141 -0.146942,0.39689 -0.171566,0.60617 0.332673,0.0496 0.696055,0.19258 0.93173,0.38095 0.0034,0.003 0.0066,0.007 0.0098,0.0103 0.2196,0.20211 0.48151,0.2659 0.810803,0.2868 0.329294,0.0205 0.709153,-0.012 1.099675,0.0196 0.205345,0.0166 0.4178,0.0554 0.622184,0.13539 0.0578,-0.25027 0.06604,-0.45599 0.02894,-0.63614 -0.209652,-0.0624 -0.4155,-0.096 -0.602548,-0.1111 -0.45529,-0.0368 -0.849512,-0.004 -1.109492,-0.0196 h -0.0021 c -0.214036,0.018 -0.325706,-0.0817 -0.464639,-0.15692 -0.344435,-0.28664 -0.739423,-0.48047 -1.152901,-0.51573 z"
         sodipodi:nodetypes="ccccccccccccccc" />
      <path
         id="path734"
         style="color:#000000;font-style:normal;font-variant:normal;font-weight:normal;font-stretch:normal;font-size:medium;line-height:normal;font-family:sans-serif;font-variant-ligatures:normal;font-variant-position:normal;font-variant-caps:normal;font-variant-numeric:normal;font-variant-alternates:normal;font-variant-east-asian:normal;font-feature-settings:normal;font-variation-settings:normal;text-indent:0;text-align:start;text-decoration:none;text-decoration-line:none;text-decoration-style:solid;text-decoration-color:#000000;letter-spacing:normal;word-spacing:normal;text-transform:none;writing-mode:lr-tb;direction:ltr;text-orientation:mixed;dominant-baseline:auto;baseline-shift:baseline;text-anchor:start;white-space:normal;shape-padding:0;shape-margin:0;inline-size:0;clip-rule:nonzero;display:inline;overflow:visible;visibility:visible;isolation:auto;mix-blend-mode:normal;color-interpolation:sRGB;color-interpolation-filters:linearRGB;solid-color:#000000;solid-opacity:1;vector-effect:none;fill:#ed2175;fill-opacity:1;fill-rule:nonzero;stroke:none;stroke-width:0.529167;stroke-linecap:round;stroke-linejoin:round;stroke-miterlimit:4;stroke-dasharray:none;stroke-dashoffset:0;stroke-opacity:1;color-rendering:auto;image-rendering:auto;shape-rendering:auto;text-rendering:auto;enable-background:accumulate;stop-color:#000000"
         d="m -23.289535,251.38004 c -0.04001,-3.8e-4 -0.07969,0.002 -0.118856,0.007 -0.31331,0.0381 -0.555801,0.23555 -0.716752,0.46457 -0.160951,0.22903 -0.256011,0.49774 -0.302824,0.75396 -0.02114,0.11569 -0.03245,0.22708 -0.03307,0.33486 0.02573,-0.008 0.05036,-0.0182 0.077,-0.0243 0.347984,0.0314 0.549416,0.15874 0.823723,0.41806 0.351173,0.39942 0.802805,0.53063 1.361157,0.55863 0.558353,0.0281 1.199357,-0.062 1.839681,-0.0935 0.581638,-0.0286 1.172594,-0.007 1.698088,0.24081 -0.136773,-0.70775 -0.36562,-1.18394 -0.680579,-1.49086 -0.337135,-0.32854 -0.753594,-0.43716 -1.144116,-0.46871 -0.390522,-0.0316 -0.770381,8.7e-4 -1.099675,-0.0196 -0.329293,-0.0209 -0.591203,-0.0847 -0.810803,-0.28681 a 0.26460945,0.26460945 0 0 0 -0.0098,-0.0103 c -0.303506,-0.25258 -0.603096,-0.38081 -0.88315,-0.38344 z" />
      <path
         id="path1630"
         style="color:#000000;font-style:normal;font-variant:normal;font-weight:normal;font-stretch:normal;font-size:medium;line-height:normal;font-family:sans-serif;font-variant-ligatures:normal;font-variant-position:normal;font-variant-caps:normal;font-variant-numeric:normal;font-variant-alternates:normal;font-variant-east-asian:normal;font-feature-settings:normal;font-variation-settings:normal;text-indent:0;text-align:start;text-decoration:none;text-decoration-line:none;text-decoration-style:solid;text-decoration-color:#000000;letter-spacing:normal;word-spacing:normal;text-transform:none;writing-mode:lr-tb;direction:ltr;text-orientation:mixed;dominant-baseline:auto;baseline-shift:baseline;text-anchor:start;white-space:normal;shape-padding:0;shape-margin:0;inline-size:0;clip-rule:nonzero;display:inline;overflow:visible;visibility:visible;isolation:auto;mix-blend-mode:normal;color-interpolation:sRGB;color-interpolation-filters:linearRGB;solid-color:#000000;solid-opacity:1;vector-effect:none;fill:#e07a5f;fill-opacity:1;fill-rule:nonzero;stroke:none;stroke-width:0.529167;stroke-linecap:round;stroke-linejoin:round;stroke-miterlimit:4;stroke-dasharray:none;stroke-dashoffset:0;stroke-opacity:1;color-rendering:auto;image-rendering:auto;shape-rendering:auto;text-rendering:auto;enable-background:accumulate;stop-color:#000000"
         d="m -25.210866,257.35745 c -0.0013,0.34952 -0.0123,0.49133 0.0052,0.79827 1.343237,0.21724 3.025956,0.28364 4.227091,0.24598 v 0.27957 c -7e-6,0.43524 0.359553,0.7927 0.794784,0.79272 0.09243,0 0.181186,-0.017 0.264066,-0.0465 v 0.83974 c 0,0.0396 0.0062,0.0777 0.01189,0.11576 0.354699,-0.0838 0.642275,-0.20514 0.782898,-0.37931 -0.435231,-2e-5 -0.794792,-0.35954 -0.794784,-0.79478 v -0.83974 c -0.08288,0.0295 -0.171632,0.0465 -0.264066,0.0465 -0.435231,-2e-5 -0.794791,-0.35747 -0.794784,-0.79271 v -0.27957 c -1.321622,0.0456 -2.624475,-0.0164 -3.368004,-0.13394 -0.74353,-0.11754 -0.863711,0.001 -0.864291,0.14801 z"
         sodipodi:nodetypes="cccsscscccccsccc" />
      <path
         id="path584"
         style="color:#000000;font-style:normal;font-variant:normal;font-weight:normal;font-stretch:normal;font-size:medium;line-height:normal;font-family:sans-serif;font-variant-ligatures:normal;font-variant-position:normal;font-variant-caps:normal;font-variant-numeric:normal;font-variant-alternates:normal;font-variant-east-asian:normal;font-feature-settings:normal;font-variation-settings:normal;text-indent:0;text-align:start;text-decoration:none;text-decoration-line:none;text-decoration-style:solid;text-decoration-color:#000000;letter-spacing:normal;word-spacing:normal;text-transform:none;writing-mode:lr-tb;direction:ltr;text-orientation:mixed;dominant-baseline:auto;baseline-shift:baseline;text-anchor:start;white-space:normal;shape-padding:0;shape-margin:0;inline-size:0;clip-rule:nonzero;display:inline;overflow:visible;visibility:visible;isolation:auto;mix-blend-mode:normal;color-interpolation:sRGB;color-interpolation-filters:linearRGB;solid-color:#000000;solid-opacity:1;vector-effect:none;fill:#ffccbc;fill-opacity:1;fill-rule:nonzero;stroke:none;stroke-width:0.529167;stroke-linecap:round;stroke-linejoin:round;stroke-miterlimit:4;stroke-dasharray:none;stroke-dashoffset:0;stroke-opacity:1;color-rendering:auto;image-rendering:auto;shape-rendering:auto;text-rendering:auto;enable-background:accumulate;stop-color:#000000"
         d="m -20.933605,257.87253 c -0.08923,-0.5119 -0.04496,-1.07831 -0.04496,-1.61489 -1.289243,0.0306 -2.604138,-0.0209 -3.919657,-0.1912 -0.456917,0.007 -0.837402,0.39985 -0.836125,0.74221 0.0054,0.15671 0.01501,0.27239 0.04289,0.38085 0.02788,0.10847 0.09339,0.22843 0.19327,0.29508 0.199766,0.13328 0.358973,0.12271 1.085798,0.22864 0.768167,0.14313 2.117855,0.20767 3.478784,0.15931 z"
         sodipodi:nodetypes="ccccsccc" />
      <path
         id="path710"
         style="color:#000000;font-style:normal;font-variant:normal;font-weight:normal;font-stretch:normal;font-size:medium;line-height:normal;font-family:sans-serif;font-variant-ligatures:normal;font-variant-position:normal;font-variant-caps:normal;font-variant-numeric:normal;font-variant-alternates:normal;font-variant-east-asian:normal;font-feature-settings:normal;font-variation-settings:normal;text-indent:0;text-align:start;text-decoration:none;text-decoration-line:none;text-decoration-style:solid;text-decoration-color:#000000;letter-spacing:normal;word-spacing:normal;text-transform:none;writing-mode:lr-tb;direction:ltr;text-orientation:mixed;dominant-baseline:auto;baseline-shift:baseline;text-anchor:start;white-space:normal;shape-padding:0;shape-margin:0;inline-size:0;clip-rule:nonzero;display:inline;overflow:visible;visibility:visible;isolation:auto;mix-blend-mode:normal;color-interpolation:sRGB;color-interpolation-filters:linearRGB;solid-color:#000000;solid-opacity:1;vector-effect:none;fill:#d9216d;fill-opacity:1;fill-rule:nonzero;stroke:none;stroke-width:2;stroke-linecap:round;stroke-linejoin:round;stroke-miterlimit:4;stroke-dasharray:none;stroke-dashoffset:0;stroke-opacity:1;color-rendering:auto;image-rendering:auto;shape-rendering:auto;text-rendering:auto;enable-background:accumulate;stop-color:#000000"
         d="m -24.356653,252.33089 c -0.07356,0.20056 -0.08916,0.41276 -0.10438,0.60926 0.362009,-0.0239 0.701187,0.20705 0.900723,0.39376 0.351173,0.39942 0.802805,0.53063 1.361157,0.55863 0.558353,0.0281 1.199357,-0.062 1.839681,-0.0935 0.580255,-0.0285 1.169913,-0.007 1.69447,0.23875 -0.05129,-0.26225 -0.112681,-0.49886 -0.189136,-0.70022 -0.525439,-0.15005 -1.05684,-0.15425 -1.53479,-0.13074 -0.676462,0.0333 -1.308816,0.11783 -1.78077,0.0941 -1.007401,-0.027 -1.294273,-0.96566 -2.186946,-0.96996 l -5e-6,-4e-5 z"
         sodipodi:nodetypes="cccccccccccc" />
      <path
         sodipodi:nodetypes="ccccscccccscsscccscsccccccscscsscsccsscccc"
         id="path1610"
         style="color:#000000;font-style:normal;font-variant:normal;font-weight:normal;font-stretch:normal;font-size:medium;line-height:normal;font-family:sans-serif;font-variant-ligatures:normal;font-variant-position:normal;font-variant-caps:normal;font-variant-numeric:normal;font-variant-alternates:normal;font-variant-east-asian:normal;font-feature-settings:normal;font-variation-settings:normal;text-indent:0;text-align:start;text-decoration:none;text-decoration-line:none;text-decoration-style:solid;text-decoration-color:#000000;letter-spacing:normal;word-spacing:normal;text-transform:none;writing-mode:lr-tb;direction:ltr;text-orientation:mixed;dominant-baseline:auto;baseline-shift:baseline;text-anchor:start;white-space:normal;shape-padding:0;shape-margin:0;inline-size:0;clip-rule:nonzero;display:inline;overflow:visible;visibility:visible;isolation:auto;mix-blend-mode:normal;color-interpolation:sRGB;color-interpolation-filters:linearRGB;solid-color:#000000;solid-opacity:1;vector-effect:none;fill:#d9216d;fill-opacity:1;fill-rule:nonzero;stroke:none;stroke-width:0.529164;stroke-linecap:round;stroke-linejoin:round;stroke-miterlimit:4;stroke-dasharray:none;stroke-dashoffset:0;stroke-opacity:1;color-rendering:auto;image-rendering:auto;shape-rendering:auto;text-rendering:auto;enable-background:accumulate;stop-color:#000000"
         d="m -21.277255,249.7109 c -0.08894,0.009 -0.17454,0.0203 -0.257347,0.0336 0.341678,0.12629 0.418412,0.43416 0.447,0.73795 -9.14e-4,0.28601 0.211143,0.40819 0.388607,0.55087 0.129725,0.11181 0.276523,0.28276 0.331761,0.52555 0.03535,0.15539 0.03563,0.33029 -9.98e-4,0.5365 -0.01102,0.21821 0.340903,0.33065 0.497088,0.45361 0.286279,0.27898 0.501414,0.6978 0.640929,1.30324 0.02901,0.17437 0.08921,0.1832 0.197263,0.26723 0.562975,0.32528 1.239917,0.84992 1.230416,2.06448 v 1.96629 c 0,0.3421 -0.223248,0.63482 -0.529683,0.74569 0.08312,0.03 0.171162,0.0496 0.264068,0.0496 0.435242,0 0.794781,-0.36007 0.794781,-0.7953 v -1.96629 c 0.0095,-1.21457 -0.66744,-1.7392 -1.230415,-2.06448 -0.0516,-0.0298 -0.10459,-0.0546 -0.157613,-0.0796 -0.136773,-0.70775 -0.365619,-1.18394 -0.680579,-1.49087 -0.159819,-0.15574 -0.337574,-0.26066 -0.521931,-0.33279 0.06031,-0.25996 0.0679,-0.47245 0.02584,-0.65732 -0.05524,-0.24278 -0.202036,-0.41374 -0.331761,-0.52555 -0.220465,-0.16784 -0.410834,-0.2896 -0.388607,-0.55087 0.0079,-0.49504 -0.280437,-0.80074 -0.71882,-0.77153 h 1e-6 z m 2.94504,9.18497 c -0.08342,0.0302 -0.171971,0.0496 -0.265099,0.0496 -0.09291,0 -0.180949,-0.0196 -0.264068,-0.0496 v 0.31315 c 0,0.34217 -0.222173,0.63449 -0.528132,0.74518 0.08328,0.03 0.17163,0.0496 0.264584,0.0496 0.435245,0 0.792715,-0.35954 0.792715,-0.79479 z m -3.721219,-2.63034 c -0.140907,0.003 -0.29822,0.002 -0.448035,0.003 0.16551,0.002 0.319186,5.1e-4 0.477491,0 -0.0099,-4.7e-4 -0.01938,-0.003 -0.02946,-0.003 z m 1.603518,2.10375 c 3.54e-4,1.3e-4 6.8e-4,3.9e-4 0.001,5.2e-4 v -5.2e-4 c -3.25e-4,1.2e-4 -7.06e-4,-1.2e-4 -0.001,0 z" />
      <path
         id="path1620"
         style="color:#000000;font-style:normal;font-variant:normal;font-weight:normal;font-stretch:normal;font-size:medium;line-height:normal;font-family:sans-serif;font-variant-ligatures:normal;font-variant-position:normal;font-variant-caps:normal;font-variant-numeric:normal;font-variant-alternates:normal;font-variant-east-asian:normal;font-feature-settings:normal;font-variation-settings:normal;text-indent:0;text-align:start;text-decoration:none;text-decoration-line:none;text-decoration-style:solid;text-decoration-color:#000000;letter-spacing:normal;word-spacing:normal;text-transform:none;writing-mode:lr-tb;direction:ltr;text-orientation:mixed;dominant-baseline:auto;baseline-shift:baseline;text-anchor:start;white-space:normal;shape-padding:0;shape-margin:0;inline-size:0;clip-rule:nonzero;display:inline;overflow:visible;visibility:visible;isolation:auto;mix-blend-mode:normal;color-interpolation:sRGB;color-interpolation-filters:linearRGB;solid-color:#000000;solid-opacity:1;vector-effect:none;fill:#e89c87;fill-opacity:1;fill-rule:nonzero;stroke:none;stroke-width:0.529167;stroke-linecap:round;stroke-linejoin:round;stroke-miterlimit:4;stroke-dasharray:none;stroke-dashoffset:0;stroke-opacity:1;color-rendering:auto;image-rendering:auto;shape-rendering:auto;text-rendering:auto;enable-background:accumulate;stop-color:#000000"
         d="m -25.711092,256.61538 c 1.350155,0.14956 2.580898,0.18295 3.666276,0.17939 0.296651,-0.002 0.534621,0.2326 0.530482,0.52925 -0.0026,0.18624 -0.0035,0.37272 0.0035,0.55634 0.192392,-0.002 0.384411,-9e-4 0.577226,-0.008 -0.05822,-0.51602 -0.03049,-1.0473 -0.04496,-1.61489 -1.289242,0.0306 -2.604139,-0.0209 -3.919658,-0.19121 -0.482821,-0.0354 -0.742358,0.26123 -0.812866,0.54912 z"
         sodipodi:nodetypes="ccsccccc" />
    </g>
  </g>
</svg>
