<?xml version="1.0" encoding="UTF-8" standalone="no"?>
<svg
   sodipodi:docname="19 - Mochi.svg"
   inkscape:version="1.1.1 (1:1.1+202109281949+c3084ef5ed)"
   id="svg831"
   version="1.1"
   viewBox="0 0 22.577778 22.577778"
   height="64pt"
   width="64pt"
   inkscape:export-filename="/media/taufikramadhan/Data/Tr Design Studio/Project Design/TR Creative Design/Icon Design/Project Hiring/Icon Icons/010 - Food/Send/3 - Flat/19 - Mochi.png"
   inkscape:export-xdpi="576"
   inkscape:export-ydpi="576"
   xmlns:inkscape="http://www.inkscape.org/namespaces/inkscape"
   xmlns:sodipodi="http://sodipodi.sourceforge.net/DTD/sodipodi-0.dtd"
   xmlns="http://www.w3.org/2000/svg"
   xmlns:svg="http://www.w3.org/2000/svg"
   xmlns:rdf="http://www.w3.org/1999/02/22-rdf-syntax-ns#"
   xmlns:cc="http://creativecommons.org/ns#"
   xmlns:dc="http://purl.org/dc/elements/1.1/">
  <defs
     id="defs825">
    <pattern
       y="0"
       x="0"
       height="6"
       width="6"
       patternUnits="userSpaceOnUse"
       id="EMFhbasepattern" />
    <pattern
       y="0"
       x="0"
       height="6"
       width="6"
       patternUnits="userSpaceOnUse"
       id="EMFhbasepattern-9" />
    <pattern
       y="0"
       x="0"
       height="6"
       width="6"
       patternUnits="userSpaceOnUse"
       id="EMFhbasepattern-0" />
    <pattern
       y="0"
       x="0"
       height="6"
       width="6"
       patternUnits="userSpaceOnUse"
       id="EMFhbasepattern-7" />
    <pattern
       y="0"
       x="0"
       height="6"
       width="6"
       patternUnits="userSpaceOnUse"
       id="EMFhbasepattern-2" />
    <pattern
       y="0"
       x="0"
       height="6"
       width="6"
       patternUnits="userSpaceOnUse"
       id="EMFhbasepattern-98" />
    <pattern
       y="0"
       x="0"
       height="6"
       width="6"
       patternUnits="userSpaceOnUse"
       id="EMFhbasepattern-6" />
    <pattern
       y="0"
       x="0"
       height="6"
       width="6"
       patternUnits="userSpaceOnUse"
       id="EMFhbasepattern-01" />
    <pattern
       y="0"
       x="0"
       height="6"
       width="6"
       patternUnits="userSpaceOnUse"
       id="EMFhbasepattern-07" />
    <pattern
       y="0"
       x="0"
       height="6"
       width="6"
       patternUnits="userSpaceOnUse"
       id="EMFhbasepattern-8" />
    <pattern
       y="0"
       x="0"
       height="6"
       width="6"
       patternUnits="userSpaceOnUse"
       id="EMFhbasepattern-4" />
    <pattern
       y="0"
       x="0"
       height="6"
       width="6"
       patternUnits="userSpaceOnUse"
       id="EMFhbasepattern-40" />
    <pattern
       y="0"
       x="0"
       height="6"
       width="6"
       patternUnits="userSpaceOnUse"
       id="EMFhbasepattern-08" />
    <pattern
       y="0"
       x="0"
       height="6"
       width="6"
       patternUnits="userSpaceOnUse"
       id="EMFhbasepattern-04" />
    <pattern
       y="0"
       x="0"
       height="6"
       width="6"
       patternUnits="userSpaceOnUse"
       id="EMFhbasepattern-014" />
    <pattern
       y="0"
       x="0"
       height="6"
       width="6"
       patternUnits="userSpaceOnUse"
       id="EMFhbasepattern-27" />
    <pattern
       y="0"
       x="0"
       height="6"
       width="6"
       patternUnits="userSpaceOnUse"
       id="EMFhbasepattern-09" />
    <pattern
       y="0"
       x="0"
       height="6"
       width="6"
       patternUnits="userSpaceOnUse"
       id="EMFhbasepattern-5" />
    <pattern
       y="0"
       x="0"
       height="6"
       width="6"
       patternUnits="userSpaceOnUse"
       id="EMFhbasepattern-018" />
  </defs>
  <sodipodi:namedview
     inkscape:document-rotation="0"
     inkscape:snap-global="true"
     inkscape:snap-nodes="false"
     inkscape:bbox-nodes="true"
     inkscape:snap-bbox="true"
     showguides="false"
     inkscape:snap-midpoints="true"
     inkscape:snap-smooth-nodes="true"
     inkscape:snap-intersection-paths="true"
     inkscape:object-paths="true"
     inkscape:showpageshadow="false"
     inkscape:pagecheckerboard="true"
     inkscape:window-maximized="1"
     inkscape:window-y="31"
     inkscape:window-x="0"
     inkscape:window-height="705"
     inkscape:window-width="1366"
     units="pt"
     showgrid="false"
     inkscape:current-layer="layer1"
     inkscape:document-units="pt"
     inkscape:cy="42.732286"
     inkscape:cx="42.628314"
     inkscape:zoom="4.8090103"
     inkscape:pageshadow="2"
     inkscape:pageopacity="0.0"
     borderopacity="1.0"
     bordercolor="#666666"
     pagecolor="#ffffff"
     id="base">
    <inkscape:grid
       id="grid1378"
       type="xygrid" />
    <sodipodi:guide
       inkscape:locked="false"
       id="guide1380"
       orientation="78.000048,0"
       position="0.97013831,21.607643" />
    <sodipodi:guide
       inkscape:locked="false"
       id="guide1382"
       orientation="0,78.000005"
       position="0.97013831,0.97013129" />
    <sodipodi:guide
       inkscape:locked="false"
       id="guide1384"
       orientation="-78.000048,0"
       position="21.607639,0.97013129" />
    <sodipodi:guide
       inkscape:locked="false"
       id="guide1386"
       orientation="0,-78.000005"
       position="21.607639,21.607643" />
  </sodipodi:namedview>
  <metadata
     id="metadata828">
    <rdf:RDF>
      <cc:Work
         rdf:about="">
        <dc:format>image/svg+xml</dc:format>
        <dc:type
           rdf:resource="http://purl.org/dc/dcmitype/StillImage" />
      </cc:Work>
    </rdf:RDF>
  </metadata>
  <g
     transform="translate(0,-274.42223)"
     id="layer1"
     inkscape:groupmode="layer"
     inkscape:label="Icon">
    <g
       id="g824499"
       style="display:inline"
       transform="matrix(1.2582045,0,0,1.2582045,77.393774,-154.08056)">
      <g
         id="g823906">
        <path
           style="color:#000000;fill:#a8c2e1;stroke-linecap:round;stroke-linejoin:round;-inkscape-stroke:none;paint-order:markers fill stroke"
           d="m -58.992187,352.16016 a 0.26460996,0.26460996 0 0 0 -0.242188,0.375 l 0.546875,1.20898 a 0.26460996,0.26460996 0 0 0 0,0.004 c 0.274917,0.58855 0.788749,1.17623 1.740234,1.59375 0.951486,0.41752 2.335871,0.67968 4.408204,0.67968 2.072332,0 3.456717,-0.26216 4.408203,-0.67968 0.951485,-0.41752 1.465317,-1.0052 1.740234,-1.59375 a 0.26460996,0.26460996 0 0 0 0.01953,-0.0605 l 0.240235,-1.21094 a 0.26460996,0.26460996 0 0 0 -0.257813,-0.3164 z"
           id="path796245" />
        <path
           style="color:#000000;fill:#d0e2ee;stroke-linecap:round;stroke-linejoin:round;-inkscape-stroke:none;paint-order:markers fill stroke"
           d="m -59.105469,349.4375 a 0.26460996,0.26460996 0 0 0 -0.134765,0.0371 c -0.935648,0.55565 -1.49952,1.25138 -1.5,2.02344 -1.1e-5,0.53053 0.268577,1.0214 0.705078,1.4375 0.436501,0.41609 1.04531,0.77201 1.785156,1.07031 1.479693,0.5966 3.490221,0.95703 5.710938,0.95703 2.220716,0 4.231244,-0.36043 5.710937,-0.95703 0.739846,-0.2983 1.348655,-0.65422 1.785156,-1.07031 0.436501,-0.4161 0.705088,-0.90697 0.705078,-1.4375 -7.96e-4,-0.77185 -0.562655,-1.46795 -1.498046,-2.02344 a 0.26460996,0.26460996 0 0 0 -0.136719,-0.0371 z"
           id="path796251" />
        <path
           style="color:#000000;fill:#a8c2e1;stroke-linecap:round;stroke-linejoin:round;-inkscape-stroke:none;paint-order:markers fill stroke"
           d="m -52.472656,352.53906 a 0.2645835,0.2645835 0 0 0 -0.339844,0.15625 0.2645835,0.2645835 0 0 0 0.15625,0.33985 c 0,0 1.617678,0.62032 2.904297,0.50976 a 0.2645835,0.2645835 0 0 0 0.240234,-0.28711 0.2645835,0.2645835 0 0 0 -0.285156,-0.24023 c -1.069079,0.0919 -2.675781,-0.47852 -2.675781,-0.47852 z"
           id="path796307" />
      </g>
      <g
         id="g823901">
        <path
           style="color:#000000;fill:#50b86b;stroke-linecap:round;stroke-linejoin:round;-inkscape-stroke:none;paint-order:markers fill stroke"
           d="m -45.3125,343.60352 a 0.26460996,0.26460996 0 0 0 -0.265625,0.0586 c -0.204493,0.19281 -0.464522,0.27644 -0.789062,0.31445 -0.324541,0.038 -0.699192,0.0233 -1.083985,0.0391 -0.384793,0.0158 -0.786306,0.063 -1.15039,0.25977 -0.364085,0.19673 -0.66947,0.5502 -0.84961,1.0918 a 0.26460996,0.26460996 0 0 0 -0.01172,0.0586 l -0.195312,2.13672 a 0.26460996,0.26460996 0 0 0 0.292969,0.28711 l 1.93164,-0.21875 a 0.26460996,0.26460996 0 0 0 0.06055,-0.0137 c 1.342173,-0.48741 1.929198,-1.45786 2.146485,-2.28125 0.217286,-0.82339 0.0918,-1.52735 0.0918,-1.52735 a 0.26460996,0.26460996 0 0 0 -0.177734,-0.20507 z"
           id="path796227" />
        <path
           id="path818576"
           style="color:#000000;fill:#349951;fill-opacity:1;stroke-width:1;stroke-linecap:round;stroke-linejoin:round;-inkscape-stroke:none;paint-order:markers fill stroke"
           d="m -45.425136,343.59147 a 0.26460996,0.26460996 0 0 0 -0.152961,0.0708 c -0.03353,0.0316 -0.06886,0.0598 -0.105421,0.0858 a 0.26460996,0.26460996 0 0 1 0.01963,0.0605 c 0,0 0.125302,0.70416 -0.09199,1.52755 -0.217286,0.82339 -0.803949,1.79359 -2.146122,2.281 a 0.26460996,0.26460996 0 0 1 -0.06098,0.0139 l -1.574583,0.17829 a 0.26460996,0.26460996 0 0 0 0.172085,0.0403 l 1.931664,-0.21859 a 0.26460996,0.26460996 0 0 0 0.06098,-0.0139 c 1.342173,-0.48741 1.928837,-1.45761 2.146123,-2.281 0.217286,-0.82339 0.09199,-1.52755 0.09199,-1.52755 a 0.26460996,0.26460996 0 0 0 -0.177768,-0.20516 0.26460996,0.26460996 0 0 0 -0.112654,-0.0119 z" />
        <path
           style="color:#000000;fill:#50b86b;stroke-linecap:round;stroke-linejoin:round;-inkscape-stroke:none;paint-order:markers fill stroke"
           d="m -59.765625,343.60352 a 0.26460996,0.26460996 0 0 0 -0.177734,0.20507 c 0,0 -0.12549,0.70396 0.0918,1.52735 0.217286,0.82339 0.804311,1.79384 2.146484,2.28125 a 0.26460996,0.26460996 0 0 0 0.03125,0.01 l 1.675781,0.38867 a 0.26460996,0.26460996 0 0 0 0.324219,-0.25 l 0.06055,-2.30859 a 0.26460996,0.26460996 0 0 0 -0.01367,-0.0898 c -0.18014,-0.5416 -0.487478,-0.89507 -0.851563,-1.0918 -0.364084,-0.19673 -0.763644,-0.24397 -1.148437,-0.25977 -0.384793,-0.0158 -0.761397,-10e-4 -1.085938,-0.0391 -0.32454,-0.038 -0.584569,-0.12164 -0.789062,-0.31445 a 0.26460996,0.26460996 0 0 0 -0.263672,-0.0586 z"
           id="path796233" />
        <path
           id="path820713"
           style="color:#000000;fill:#349951;fill-opacity:1;stroke-width:1;stroke-linecap:round;stroke-linejoin:round;-inkscape-stroke:none;paint-order:markers fill stroke"
           d="m -59.710052,343.59198 a 0.26460996,0.26460996 0 0 0 -0.05581,0.0119 v -5.3e-4 a 0.26460996,0.26460996 0 0 0 -0.17725,0.20516 c 0,0 -0.02944,0.16584 -0.03514,0.42943 0.195882,0.1601 0.439222,0.2334 0.736388,0.2682 0.324541,0.0381 0.700929,0.023 1.085723,0.0388 0.384792,0.0158 0.784165,0.0632 1.14825,0.25993 0.364085,0.19673 0.671489,0.55032 0.851627,1.09192 a 0.26460996,0.26460996 0 0 1 0.01394,0.0899 l -0.05219,1.98386 0.196371,0.0455 a 0.26460996,0.26460996 0 0 0 0.324528,-0.25012 l 0.06046,-2.30839 a 0.26460996,0.26460996 0 0 0 -0.01394,-0.0899 c -0.180139,-0.5416 -0.487542,-0.8952 -0.851627,-1.09193 -0.364086,-0.19673 -0.763458,-0.24413 -1.14825,-0.25993 -0.384794,-0.0158 -0.761182,-5.3e-4 -1.085723,-0.0388 -0.32454,-0.038 -0.584605,-0.1219 -0.789099,-0.31471 a 0.26460996,0.26460996 0 0 0 -0.208256,-0.0703 z" />
        <path
           style="color:#000000;fill:#ee8eb4;stroke-linecap:round;stroke-linejoin:round;-inkscape-stroke:none;paint-order:markers fill stroke"
           d="m -52.539062,343.05664 c -0.591415,0 -1.522424,0.14101 -2.337891,0.69336 -0.815468,0.55235 -1.488396,1.53879 -1.498047,3.10742 a 0.26460996,0.26460996 0 0 0 0.119141,0.22461 l 3.349609,2.1875 a 0.26460996,0.26460996 0 0 0 0.277344,0.008 l 3.792969,-2.18945 a 0.26460996,0.26460996 0 0 0 0.132812,-0.23047 c -0.0098,-1.56839 -0.682749,-2.55501 -1.498047,-3.10742 -0.815298,-0.55241 -1.746469,-0.69336 -2.33789,-0.69336 z"
           id="path796239" />
        <path
           style="color:#000000;fill:#349951;stroke-linecap:round;stroke-linejoin:round;-inkscape-stroke:none;paint-order:markers fill stroke"
           d="m -47.230469,345.13477 c -1.263199,0.3956 -1.710937,1.63281 -1.710937,1.63281 a 0.2645835,0.2645835 0 0 0 0.15625,0.33984 0.2645835,0.2645835 0 0 0 0.339844,-0.15625 c 0,0 0.378586,-1.00106 1.373046,-1.3125 a 0.2645835,0.2645835 0 0 0 0.173829,-0.33203 0.2645835,0.2645835 0 0 0 -0.332032,-0.17187 z"
           id="path19182" />
        <path
           id="path802342"
           style="fill:#e75f96;fill-opacity:1;stroke-width:3.77953;stroke-linecap:round;stroke-linejoin:round;paint-order:markers fill stroke"
           d="m -187.07227,249.45508 c -3.61111,0 -10.18147,1.19601 -13.90625,7.07226 -0.28856,0.456 -0.43773,0.99556 -0.43554,1.53516 v 2.54297 l 1.45312,0.94922 a 1.0001006,1.0001006 0 0 0 1.04883,0.0293 l 14.33594,-8.27539 a 1.0001006,1.0001006 0 0 0 0.50195,-0.87109 c -0.006,-0.98269 -0.0819,-1.9032 -0.2168,-2.76758 -1.0253,-0.15618 -1.97144,-0.21484 -2.78125,-0.21484 z"
           transform="matrix(0.26458334,0,0,0.26458334,0,280.06666)" />
        <path
           style="color:#000000;fill:#ee8eb4;stroke-linecap:round;stroke-linejoin:round;-inkscape-stroke:none;paint-order:markers fill stroke"
           d="m -49.496094,346.55664 c -0.843371,0 -2.406956,0.28988 -3.265625,1.64453 a 0.26460996,0.26460996 0 0 0 -0.04102,0.14258 v 3.20117 a 0.26460996,0.26460996 0 0 0 0.08789,0.19727 c 0.543846,0.48021 1.508851,0.84018 3.21875,0.83984 1.685851,3.4e-4 2.646834,-0.34994 3.195313,-0.82031 0.548479,-0.47038 0.640625,-1.04851 0.640625,-1.36719 0,-1.58334 -0.670616,-2.58117 -1.488281,-3.13867 -0.817666,-0.5575 -1.754041,-0.69922 -2.347657,-0.69922 z"
           id="path796261" />
        <path
           style="color:#000000;fill:#349951;stroke-linecap:round;stroke-linejoin:round;-inkscape-stroke:none;paint-order:markers fill stroke"
           d="m -57.849609,345.13477 a 0.2645835,0.2645835 0 0 0 -0.330078,0.17187 0.2645835,0.2645835 0 0 0 0.173828,0.33203 c 0.99446,0.31144 1.373046,1.3125 1.373047,1.3125 a 0.2645835,0.2645835 0 0 0 0.339843,0.15625 0.2645835,0.2645835 0 0 0 0.15625,-0.33984 c 0,0 -0.449691,-1.23721 -1.71289,-1.63281 z"
           id="path19673" />
        <path
           id="path802100"
           style="fill:#e75f96;fill-opacity:1;stroke-width:3.77953;stroke-linecap:round;stroke-linejoin:round;paint-order:markers fill stroke"
           d="m -210.07422,249.15234 c -0.79851,0 -1.72503,0.057 -2.72851,0.20508 -0.16716,0.95302 -0.26081,1.9788 -0.26758,3.08008 a 1.0001006,1.0001006 0 0 0 0.44922,0.84961 l 12.66015,8.26758 a 1.0001006,1.0001006 0 0 0 1.04883,0.0293 l 4.30469,-2.48437 c -1.18606,-3.09061 -3.15364,-5.40784 -5.38281,-6.92773 -3.58089,-2.4415 -7.49864,-3.01954 -10.08399,-3.01954 z"
           transform="matrix(0.26458334,0,0,0.26458334,0,280.06666)" />
        <path
           id="path802239"
           style="color:#000000;fill:#e75f96;fill-opacity:1;stroke-width:3.77953;stroke-linecap:round;stroke-linejoin:round;-inkscape-stroke:none;paint-order:markers fill stroke"
           d="m -197.0918,254.81836 c -0.85695,0.74302 -1.64733,1.63247 -2.32226,2.69726 a 1.0001006,1.0001006 0 0 0 -0.15625,0.53907 v 12.09961 a 1.0001006,1.0001006 0 0 0 0.33398,0.74609 c 0.69742,0.61582 1.57773,1.17856 2.68945,1.6543 0.33442,-0.28989 0.64209,-0.59437 0.91993,-0.91016 1.85455,-2.1078 2.19922,-4.46709 2.19922,-5.83789 0,-4.69874 -1.49327,-8.37125 -3.66407,-10.98828 z"
           transform="matrix(0.26458334,0,0,0.26458334,0,280.06666)" />
        <path
           style="color:#000000;fill:#ee8eb4;stroke-linecap:round;stroke-linejoin:round;-inkscape-stroke:none;paint-order:markers fill stroke"
           d="m -55.582031,346.55664 c -0.593616,0 -1.529991,0.14172 -2.347656,0.69922 -0.817666,0.5575 -1.488282,1.55533 -1.488282,3.13867 0,0.26355 0.05863,0.70273 0.394532,1.11524 0.335897,0.4125 0.933716,0.77819 1.941406,0.95507 a 0.26460996,0.26460996 0 0 0 0.04102,0.004 l 2.642579,0.043 a 0.26460996,0.26460996 0 0 0 0.03906,-0.004 c 1.131784,-0.14958 1.797899,-0.51608 2.173828,-0.94336 0.375929,-0.42727 0.439453,-0.89463 0.439453,-1.16992 0,-1.58334 -0.670615,-2.58117 -1.488281,-3.13867 -0.817666,-0.5575 -1.754041,-0.69922 -2.347656,-0.69922 z"
           id="path796271" />
        <path
           style="color:#000000;fill:#e75f96;stroke-linecap:round;stroke-linejoin:round;-inkscape-stroke:none;paint-order:markers fill stroke"
           d="m -50.724609,344.73242 a 0.2645835,0.2645835 0 0 0 -0.05273,0.36914 c 0.022,0.0291 0.04295,0.0604 0.0625,0.0918 a 0.2645835,0.2645835 0 0 0 0.365235,0.084 0.2645835,0.2645835 0 0 0 0.08398,-0.36328 c -0.02825,-0.0454 -0.05651,-0.0894 -0.08789,-0.13086 a 0.2645835,0.2645835 0 0 0 -0.371093,-0.0508 z"
           id="path796463" />
        <path
           style="color:#000000;fill:#e75f96;stroke-linecap:round;stroke-linejoin:round;-inkscape-stroke:none;paint-order:markers fill stroke"
           d="m -52.539062,343.84961 a 0.2645835,0.2645835 0 0 0 -0.263672,0.26562 0.2645835,0.2645835 0 0 0 0.263672,0.26368 c 0,0 0.573591,0.006 1.105468,0.23632 a 0.2645835,0.2645835 0 0 0 0.34961,-0.13867 0.2645835,0.2645835 0 0 0 -0.138672,-0.34765 c -0.654874,-0.28375 -1.316406,-0.2793 -1.316406,-0.2793 z"
           id="path17041" />
        <path
           style="color:#000000;fill:#e75f96;stroke-linecap:round;stroke-linejoin:round;-inkscape-stroke:none;paint-order:markers fill stroke"
           d="m -47.550781,348.17187 a 0.2645835,0.2645835 0 0 0 -0.05078,0.3711 c 0.022,0.0291 0.04295,0.0584 0.0625,0.0898 a 0.2645835,0.2645835 0 0 0 0.365234,0.084 0.2645835,0.2645835 0 0 0 0.08398,-0.36328 c -0.02825,-0.0454 -0.05847,-0.0894 -0.08984,-0.13086 a 0.2645835,0.2645835 0 0 0 -0.371094,-0.0508 z"
           id="path796467" />
        <path
           style="color:#000000;fill:#e75f96;stroke-linecap:round;stroke-linejoin:round;-inkscape-stroke:none;paint-order:markers fill stroke"
           d="m -49.363281,347.29102 a 0.2645835,0.2645835 0 0 0 -0.265625,0.26367 0.2645835,0.2645835 0 0 0 0.265625,0.26367 c 0,0 0.573593,0.006 1.105469,0.23633 a 0.2645835,0.2645835 0 0 0 0.347656,-0.13867 0.2645835,0.2645835 0 0 0 -0.136719,-0.34766 c -0.654873,-0.28375 -1.316406,-0.27734 -1.316406,-0.27734 z"
           id="path18390" />
        <path
           style="color:#000000;fill:#349951;stroke-linecap:round;stroke-linejoin:round;-inkscape-stroke:none;paint-order:markers fill stroke"
           d="m -48.076172,345.0957 a 0.2645835,0.2645835 0 0 0 -0.287109,0.24024 c -0.01695,0.19389 -0.04386,0.46677 -0.0098,0.6875 a 0.2645835,0.2645835 0 0 0 0.302735,0.2207 0.2645835,0.2645835 0 0 0 0.220703,-0.30078 c -0.01189,-0.077 -0.0022,-0.37876 0.01367,-0.56055 a 0.2645835,0.2645835 0 0 0 -0.240235,-0.28711 z"
           id="path19184" />
        <path
           style="color:#000000;fill:#349951;stroke-linecap:round;stroke-linejoin:round;-inkscape-stroke:none;paint-order:markers fill stroke"
           d="m -47.681641,345.93359 -0.707031,0.0781 a 0.2645835,0.2645835 0 0 0 -0.234375,0.29101 0.2645835,0.2645835 0 0 0 0.292969,0.23438 l 0.705078,-0.0781 a 0.2645835,0.2645835 0 0 0 0.234375,-0.29101 0.2645835,0.2645835 0 0 0 -0.291016,-0.23438 z"
           id="path19186" />
        <path
           style="color:#000000;fill:#349951;stroke-linecap:round;stroke-linejoin:round;-inkscape-stroke:none;paint-order:markers fill stroke"
           d="m -57.001953,345.0957 a 0.2645835,0.2645835 0 0 0 -0.240234,0.28711 c 0.01589,0.18179 0.02556,0.48359 0.01367,0.56055 a 0.2645835,0.2645835 0 0 0 0.220704,0.30078 0.2645835,0.2645835 0 0 0 0.302734,-0.2207 c 0.03409,-0.22073 0.0052,-0.49361 -0.01172,-0.6875 a 0.2645835,0.2645835 0 0 0 -0.285156,-0.24024 z"
           id="path19675" />
        <path
           style="color:#000000;fill:#349951;stroke-linecap:round;stroke-linejoin:round;-inkscape-stroke:none;paint-order:markers fill stroke"
           d="m -57.396484,345.93359 a 0.2645835,0.2645835 0 0 0 -0.291016,0.23438 0.2645835,0.2645835 0 0 0 0.232422,0.29101 l 0.707031,0.0781 a 0.2645835,0.2645835 0 0 0 0.291016,-0.23438 0.2645835,0.2645835 0 0 0 -0.234375,-0.29101 z"
           id="path19677" />
        <path
           style="color:#000000;fill:#f6fbfe;stroke-linecap:round;stroke-linejoin:round;-inkscape-stroke:none;paint-order:markers fill stroke"
           d="m -55.582031,347.37109 c -0.430854,0 -1.101542,0.10088 -1.695313,0.50586 -0.59377,0.40499 -1.082031,1.13786 -1.082031,2.27344 0,0.17335 0.03284,0.44901 0.214844,0.72461 0.14857,0.22498 0.473643,0.41018 0.84375,0.57031 v 1.26953 c 0,0.50845 0.417331,0.92578 0.925781,0.92578 0.430745,0 0.740131,-0.32581 0.841797,-0.72656 0.14574,0.0957 0.294486,0.19727 0.480469,0.19727 0.50845,0 0.925781,-0.41733 0.925781,-0.92578 v -0.65039 c 0.473237,-0.15073 0.871087,-0.34175 1.058594,-0.58985 0.224168,-0.2966 0.265625,-0.60694 0.265625,-0.79492 0,-1.13558 -0.490214,-1.86845 -1.083985,-2.27344 -0.593771,-0.40498 -1.264458,-0.50586 -1.695312,-0.50586 z"
           id="path796301" />
        <path
           id="path810956"
           style="color:#000000;fill:#d0e2ee;fill-opacity:1;stroke-width:1;stroke-linecap:round;stroke-linejoin:round;-inkscape-stroke:none;paint-order:markers fill stroke"
           d="m -55.582139,347.37108 c -0.430853,0 -1.101214,0.10093 -1.694987,0.50591 -0.212251,0.14477 -0.410972,0.33181 -0.578776,0.56379 0.516726,-0.31955 1.155084,-0.53502 1.744596,-0.54053 0.430856,0 1.101733,0.10093 1.695503,0.50591 0.593773,0.40499 1.083657,1.13767 1.083657,2.27325 0,0.14367 -0.02389,0.35911 -0.135393,0.58497 0.171345,-0.0944 0.309187,-0.20008 0.398942,-0.31884 0.224168,-0.2966 0.265618,-0.60732 0.265618,-0.7953 0,-1.13558 -0.489884,-1.86826 -1.083657,-2.27325 -0.59377,-0.40498 -1.264647,-0.50591 -1.695503,-0.50591 z"
           sodipodi:nodetypes="ssccsscssss" />
        <path
           id="path813935"
           style="color:#000000;fill:#a8c2e1;fill-opacity:1;stroke-width:1;stroke-linecap:round;stroke-linejoin:round;-inkscape-stroke:none;paint-order:markers fill stroke"
           d="m -54.656097,351.53516 v 0.65061 c 0,0.40354 -0.263134,0.74922 -0.625801,0.87488 0.07103,0.0308 0.146167,0.0506 0.228926,0.0506 0.50845,0 0.926042,-0.41707 0.926042,-0.92552 v -0.65061"
           sodipodi:nodetypes="cscssc" />
      </g>
    </g>
  </g>
</svg>
