<?xml version="1.0" encoding="UTF-8" standalone="no"?>
<svg
   sodipodi:docname="18 - Maple Syrup.svg"
   inkscape:version="1.1.1 (1:1.1+202109281949+c3084ef5ed)"
   id="svg831"
   version="1.1"
   viewBox="0 0 22.577778 22.577778"
   height="64pt"
   width="64pt"
   inkscape:export-filename="/media/taufikramadhan/Data/Tr Design Studio/Project Design/TR Creative Design/Icon Design/Project Hiring/Icon Icons/010 - Food/Send/3 - Flat/18 - Maple Syrup.png"
   inkscape:export-xdpi="576"
   inkscape:export-ydpi="576"
   xmlns:inkscape="http://www.inkscape.org/namespaces/inkscape"
   xmlns:sodipodi="http://sodipodi.sourceforge.net/DTD/sodipodi-0.dtd"
   xmlns="http://www.w3.org/2000/svg"
   xmlns:svg="http://www.w3.org/2000/svg"
   xmlns:rdf="http://www.w3.org/1999/02/22-rdf-syntax-ns#"
   xmlns:cc="http://creativecommons.org/ns#"
   xmlns:dc="http://purl.org/dc/elements/1.1/">
  <defs
     id="defs825">
    <pattern
       y="0"
       x="0"
       height="6"
       width="6"
       patternUnits="userSpaceOnUse"
       id="EMFhbasepattern" />
    <pattern
       y="0"
       x="0"
       height="6"
       width="6"
       patternUnits="userSpaceOnUse"
       id="EMFhbasepattern-9" />
    <pattern
       y="0"
       x="0"
       height="6"
       width="6"
       patternUnits="userSpaceOnUse"
       id="EMFhbasepattern-0" />
    <pattern
       y="0"
       x="0"
       height="6"
       width="6"
       patternUnits="userSpaceOnUse"
       id="EMFhbasepattern-7" />
    <pattern
       y="0"
       x="0"
       height="6"
       width="6"
       patternUnits="userSpaceOnUse"
       id="EMFhbasepattern-2" />
    <pattern
       y="0"
       x="0"
       height="6"
       width="6"
       patternUnits="userSpaceOnUse"
       id="EMFhbasepattern-98" />
    <pattern
       y="0"
       x="0"
       height="6"
       width="6"
       patternUnits="userSpaceOnUse"
       id="EMFhbasepattern-6" />
    <pattern
       y="0"
       x="0"
       height="6"
       width="6"
       patternUnits="userSpaceOnUse"
       id="EMFhbasepattern-01" />
    <pattern
       y="0"
       x="0"
       height="6"
       width="6"
       patternUnits="userSpaceOnUse"
       id="EMFhbasepattern-07" />
    <pattern
       y="0"
       x="0"
       height="6"
       width="6"
       patternUnits="userSpaceOnUse"
       id="EMFhbasepattern-8" />
    <pattern
       y="0"
       x="0"
       height="6"
       width="6"
       patternUnits="userSpaceOnUse"
       id="EMFhbasepattern-4" />
    <pattern
       y="0"
       x="0"
       height="6"
       width="6"
       patternUnits="userSpaceOnUse"
       id="EMFhbasepattern-40" />
    <pattern
       y="0"
       x="0"
       height="6"
       width="6"
       patternUnits="userSpaceOnUse"
       id="EMFhbasepattern-08" />
    <pattern
       y="0"
       x="0"
       height="6"
       width="6"
       patternUnits="userSpaceOnUse"
       id="EMFhbasepattern-04" />
    <pattern
       y="0"
       x="0"
       height="6"
       width="6"
       patternUnits="userSpaceOnUse"
       id="EMFhbasepattern-014" />
    <pattern
       y="0"
       x="0"
       height="6"
       width="6"
       patternUnits="userSpaceOnUse"
       id="EMFhbasepattern-27" />
    <pattern
       y="0"
       x="0"
       height="6"
       width="6"
       patternUnits="userSpaceOnUse"
       id="EMFhbasepattern-09" />
    <pattern
       y="0"
       x="0"
       height="6"
       width="6"
       patternUnits="userSpaceOnUse"
       id="EMFhbasepattern-5" />
    <pattern
       y="0"
       x="0"
       height="6"
       width="6"
       patternUnits="userSpaceOnUse"
       id="EMFhbasepattern-018" />
  </defs>
  <sodipodi:namedview
     inkscape:document-rotation="0"
     inkscape:snap-global="true"
     inkscape:snap-nodes="false"
     inkscape:bbox-nodes="true"
     inkscape:snap-bbox="true"
     showguides="false"
     inkscape:snap-midpoints="true"
     inkscape:snap-smooth-nodes="true"
     inkscape:snap-intersection-paths="true"
     inkscape:object-paths="true"
     inkscape:showpageshadow="false"
     inkscape:pagecheckerboard="true"
     inkscape:window-maximized="1"
     inkscape:window-y="31"
     inkscape:window-x="0"
     inkscape:window-height="705"
     inkscape:window-width="1366"
     units="pt"
     showgrid="false"
     inkscape:current-layer="layer1"
     inkscape:document-units="pt"
     inkscape:cy="42.732286"
     inkscape:cx="42.628314"
     inkscape:zoom="4.8090103"
     inkscape:pageshadow="2"
     inkscape:pageopacity="0.0"
     borderopacity="1.0"
     bordercolor="#666666"
     pagecolor="#ffffff"
     id="base">
    <inkscape:grid
       id="grid1378"
       type="xygrid" />
    <sodipodi:guide
       inkscape:locked="false"
       id="guide1380"
       orientation="78.000048,0"
       position="0.97013831,21.607643" />
    <sodipodi:guide
       inkscape:locked="false"
       id="guide1382"
       orientation="0,78.000005"
       position="0.97013831,0.97013129" />
    <sodipodi:guide
       inkscape:locked="false"
       id="guide1384"
       orientation="-78.000048,0"
       position="21.607639,0.97013129" />
    <sodipodi:guide
       inkscape:locked="false"
       id="guide1386"
       orientation="0,-78.000005"
       position="21.607639,21.607643" />
  </sodipodi:namedview>
  <metadata
     id="metadata828">
    <rdf:RDF>
      <cc:Work
         rdf:about="">
        <dc:format>image/svg+xml</dc:format>
        <dc:type
           rdf:resource="http://purl.org/dc/dcmitype/StillImage" />
      </cc:Work>
    </rdf:RDF>
  </metadata>
  <g
     transform="translate(0,-274.42223)"
     id="layer1"
     inkscape:groupmode="layer"
     inkscape:label="Icon">
    <g
       id="g483328"
       style="display:inline"
       transform="matrix(1.2580365,0,0,1.2580365,-114.48677,-115.64786)">
      <path
         style="color:#000000;fill:#4d4d4d;stroke-linecap:round;stroke-linejoin:round;-inkscape-stroke:none;paint-order:markers fill stroke"
         d="m 101.82813,311.89258 a 0.2645835,0.2645835 0 0 0 -0.26563,0.26367 0.2645835,0.2645835 0 0 0 0.26563,0.26562 h 0.73437 c 0.87413,0 1.52889,0.99948 1.23438,2.00196 l -0.63672,2.16211 a 0.2645835,0.2645835 0 0 0 0.17968,0.32812 0.2645835,0.2645835 0 0 0 0.32813,-0.17969 l 0.63476,-2.1621 c 0.38234,-1.30141 -0.47396,-2.67969 -1.74023,-2.67969 z"
         id="path44314" />
      <path
         style="color:#000000;fill:#d0e2ee;stroke-linecap:round;stroke-linejoin:round;-inkscape-stroke:none;paint-order:markers fill stroke"
         d="m 98.652344,312.68555 a 0.26460996,0.26460996 0 0 0 -0.263672,0.26562 v 2.38086 a 0.26460996,0.26460996 0 0 0 0.263672,0.26367 h 2.646486 a 0.26460996,0.26460996 0 0 0 0.26367,-0.26367 v -2.38086 a 0.26460996,0.26460996 0 0 0 -0.26367,-0.26562 z"
         id="path447026" />
      <path
         id="path457784"
         style="color:#000000;fill:#a8c2e1;fill-opacity:1;stroke-width:3.77953;stroke-linecap:round;stroke-linejoin:round;-inkscape-stroke:none;paint-order:markers fill stroke"
         d="m 372.85938,123.2832 a 1.0001006,1.0001006 0 0 0 -0.9961,1.00391 v 2.82422 c 0.31213,0.11129 0.6476,0.17383 0.9961,0.17383 h 10.00195 c 0.34835,0 0.68407,-0.0626 0.99609,-0.17383 v -2.82422 a 1.0001006,1.0001006 0 0 0 -0.99609,-1.00391 z"
         transform="matrix(0.26458334,0,0,0.26458334,0,280.06666)" />
      <g
         id="g481676">
        <path
           style="color:#000000;fill:#ec7523;stroke-linecap:round;stroke-linejoin:round;-inkscape-stroke:none;paint-order:markers fill stroke"
           d="m 97.064453,325.65039 a 0.26460996,0.26460996 0 0 0 -0.263672,0.26563 v 0.52929 c 0,0.43525 0.357735,0.79296 0.792969,0.79297 1.255976,4e-5 3.62294,2e-5 4.87891,0 0.20564,-10e-6 0.38515,-0.11059 0.5,-0.25781 0.11484,-0.14722 0.17773,-0.33326 0.17773,-0.53516 v -0.52929 a 0.26460996,0.26460996 0 0 0 -0.26562,-0.26563 z"
           id="path447038" />
        <path
           id="path463696"
           style="color:#000000;fill:#e05e10;fill-opacity:1;stroke-width:3.77953;stroke-linecap:round;stroke-linejoin:round;-inkscape-stroke:none;paint-order:markers fill stroke"
           d="m 366.85742,172.28516 a 1.0001006,1.0001006 0 0 0 -0.99609,1.0039 v 2 c 0,0.14289 0.0115,0.2841 0.0312,0.42188 0.74956,0.36835 1.58853,0.57422 2.4707,0.57422 h 18.98633 c 0.88679,0 1.73085,-0.2081 2.48437,-0.58008 0.016,-0.13644 0.0254,-0.27493 0.0254,-0.41602 v -2 a 1.0001006,1.0001006 0 0 0 -1.00391,-1.0039 z"
           transform="matrix(0.26458334,0,0,0.26458334,0,280.06666)" />
      </g>
      <path
         style="color:#000000;fill:#fca311;stroke-linecap:round;stroke-linejoin:round;-inkscape-stroke:none;paint-order:markers fill stroke"
         d="m 98.388672,315.06836 c -0.581365,0 -1.058594,0.47527 -1.058594,1.05664 v 0.26562 h -0.685547 c -0.857052,0 -1.526226,0.75895 -1.419922,1.60938 l -0.002,-0.004 0.761719,6.87305 a 0.26460996,0.26460996 0 0 0 0,0.004 c 0.09303,0.74425 0.728477,1.30664 1.478516,1.30664 h 5.023436 c 0.75004,0 1.38744,-0.56239 1.48047,-1.30664 a 0.26460996,0.26460996 0 0 0 0,-0.004 L 104.72656,318 v -0.002 c 0.10496,-0.84961 -0.5655,-1.60743 -1.42187,-1.60743 h -0.6836 V 316.125 c 0,-0.58137 -0.47722,-1.05664 -1.05859,-1.05664 z"
         id="path447044" />
      <path
         id="path468471"
         style="color:#000000;fill:#ec7523;fill-opacity:1;stroke-width:3.77953;stroke-linecap:round;stroke-linejoin:round;-inkscape-stroke:none;paint-order:markers fill stroke"
         d="m 383.85742,132.28516 -11.99414,0.004 c -2.19728,0 -4.00195,1.79688 -4.00195,3.99414 v 1.00391 h -2.58985 c -3.23924,0 -5.76897,2.86781 -5.36718,6.08203 l -0.008,-0.0156 0.0469,0.42382 c 0.43813,-2.51232 2.6376,-4.49218 5.32812,-4.49218 h 2.58985 v -1.00391 c 0,-2.1973 1.80467,-3.99414 4.00195,-3.99414 h 11.99414 c 2.19731,0 4.00196,1.79684 4.00196,3.99414 v 1.00391 h 2.58398 c 2.5894,0.0219 3.62072,1.83904 3.37305,4.07812 l -2.8711,25.98633 c -0.35149,2.81291 -2.7609,4.9375 -5.5957,4.9375 h 2 c 2.8348,0 5.24409,-2.12459 5.5957,-4.9375 l 2.82813,-25.5918 c 0.35085,-1.83901 -0.24605,-3.35173 -1.12898,-4.45765 -0.98911,-1.22122 -2.49668,-2.01758 -4.20117,-2.01758 h -2.58398 v -1.0039 c 0,-2.19731 -1.80462,-3.99414 -4.00196,-3.99414 z"
         transform="matrix(0.26458334,0,0,0.26458334,0,280.06666)"
         sodipodi:nodetypes="ccscscccscsssscccccscccscscc" />
      <g
         id="g481672">
        <path
           style="color:#000000;fill:#f6fbfe;stroke-linecap:round;stroke-linejoin:round;-inkscape-stroke:none;paint-order:markers fill stroke"
           d="m 99.974609,316.39062 c -0.624815,0 -1.076465,0.47373 -1.21289,1.0586 h -0.908203 c -0.85976,0 -1.541269,0.74316 -1.466797,1.59961 l 0.208984,2.93554 a 0.26460996,0.26460996 0 0 0 0,0.004 c 0.12796,1.47154 1.364782,2.60352 2.841797,2.60352 h 1.07617 c 1.4761,0 2.74399,-1.12753 2.8418,-2.60743 v -0.002 l 0.20898,-2.93359 c 0.0745,-0.85645 -0.60704,-1.59961 -1.46679,-1.59961 h -0.90821 c -0.13642,-0.58487 -0.59002,-1.05859 -1.214841,-1.0586 z"
           id="path447056" />
        <path
           style="color:#000000;fill:#4d4d4d;stroke-linecap:round;stroke-linejoin:round;-inkscape-stroke:none;paint-order:markers fill stroke"
           d="m 99.974609,321.94727 a 0.2645835,0.2645835 0 0 0 -0.263672,0.26367 v 1.05859 a 0.2645835,0.2645835 0 0 0 0.263672,0.26367 0.2645835,0.2645835 0 0 0 0.265621,-0.26367 v -1.05859 a 0.2645835,0.2645835 0 0 0 -0.265621,-0.26367 z"
           id="path48441" />
        <path
           style="color:#000000;fill:#dc1c4b;stroke-linecap:round;stroke-linejoin:round;-inkscape-stroke:none;paint-order:markers fill stroke"
           d="m 99.974609,318.24219 a 0.26460996,0.26460996 0 0 0 -0.21875,0.11718 l -0.40039,0.59961 -0.320313,-0.16015 a 0.26460996,0.26460996 0 0 0 -0.378906,0.2832 l 0.199219,1.15234 -0.679688,-0.13476 a 0.26460996,0.26460996 0 0 0 -0.289062,0.37695 l 0.160156,0.32031 -0.599609,0.4004 a 0.26460996,0.26460996 0 0 0 0,0.43945 l 0.599609,0.40039 -0.160156,0.32031 a 0.26460996,0.26460996 0 0 0 0.273437,0.38086 l 1.814453,-0.25976 1.814451,0.25976 a 0.26460996,0.26460996 0 0 0 0.27539,-0.38086 l -0.16015,-0.32031 0.59961,-0.40039 a 0.26460996,0.26460996 0 0 0 0,-0.43945 l -0.59961,-0.4004 0.16015,-0.32031 a 0.26460996,0.26460996 0 0 0 -0.28906,-0.37695 l -0.67969,0.13476 0.19922,-1.15234 a 0.26460996,0.26460996 0 0 0 -0.3789,-0.2832 l -0.32032,0.16015 -0.40039,-0.59961 a 0.26460996,0.26460996 0 0 0 -0.220701,-0.11718 z"
           id="path447066" />
        <path
           id="path474846"
           style="color:#000000;fill:#b01d47;fill-opacity:1;stroke-width:1;stroke-linecap:round;stroke-linejoin:round;-inkscape-stroke:none;paint-order:markers fill stroke"
           d="m 100.5957,318.95898 -0.40023,-0.59951 c -0.0493,-0.0736 -0.13211,-0.11759 -0.22066,-0.11731 l -3.2e-5,-5e-5 c -0.088,2.4e-4 -0.170119,0.0442 -0.219107,0.11731 l -0.04444,0.0672 0.479289,0.71786 z m 0.4462,-0.18822 c -0.0437,-10e-4 -0.087,0.008 -0.12609,0.0279 l -0.18811,0.0941 c 0.0361,0.056 0.0498,0.12353 0.0383,0.18914 l -0.21807,1.26098 0.54777,-0.10851 0.19946,-1.15247 c 0.0285,-0.15931 -0.0914,-0.30665 -0.25321,-0.31109 z m 0.79892,1.32395 c -0.022,-0.001 -0.044,2.6e-4 -0.0656,0.005 l -0.30386,0.0605 c 0.0909,0.0788 0.11717,0.20889 0.0641,0.31677 l -0.1602,0.3204 0.59945,0.40049 c 0.15602,0.10485 0.15602,0.3344 0,0.43925 l -0.59945,0.40049 0.1602,0.32039 c 0.058,0.11596 0.0234,0.25685 -0.0816,0.3328 l 0.33538,0.0481 c 0.21231,0.0318 0.37211,-0.18918 0.27543,-0.38086 l -0.16019,-0.32039 0.59944,-0.40049 c 0.15603,-0.10485 0.15603,-0.3344 0,-0.43925 l -0.59944,-0.40049 0.16019,-0.3204 c 0.0847,-0.17073 -0.0334,-0.37232 -0.22375,-0.38189 z"
           sodipodi:nodetypes="cccccccccccccccscccccccsccccccccsscc" />
      </g>
      <g
         id="g482223">
        <path
           style="color:#000000;fill:#dc1c4b;stroke-linecap:round;stroke-linejoin:round;-inkscape-stroke:none;paint-order:markers fill stroke"
           d="m 98.652344,310.83398 c -0.435245,0 -0.792969,0.35773 -0.792969,0.79297 v 0.79492 c 0,0.43525 0.357724,0.79297 0.792969,0.79297 h 2.646486 c 0.43524,0 0.79297,-0.35772 0.79297,-0.79297 v -0.79492 c 0,-0.43524 -0.35773,-0.79297 -0.79297,-0.79297 z"
           id="path447032" />
        <path
           id="path447050"
           style="color:#000000;fill:#b01d47;fill-opacity:1;stroke-width:3.77953;stroke-linecap:round;stroke-linejoin:round;-inkscape-stroke:none;paint-order:markers fill stroke"
           d="m 372.85938,116.28516 c -0.25425,0 -0.50195,0.0331 -0.73829,0.0937 l 0.86329,1.39843 0.98242,1.95508 a 1.0001006,1.0001006 0 0 0 1.78711,0 l 0.99609,-1.99219 0.75781,-1.45507 z"
           transform="matrix(0.26458334,0,0,0.26458334,0,280.06666)" />
        <path
           id="path455710"
           style="color:#000000;fill:#b01d47;fill-opacity:1;stroke-width:1;stroke-linecap:round;stroke-linejoin:round;-inkscape-stroke:none;paint-order:markers fill stroke"
           d="m 98.65238,310.83378 c -0.355531,0 -0.659254,0.23913 -0.758611,0.56379 0.07279,-0.0223 0.149728,-0.0346 0.229444,-0.0346 h 2.646347 c 0.43524,0 0.79324,0.35799 0.79324,0.79323 v 0.79479 c 0,0.0796 -0.0124,0.15677 -0.0346,0.22944 0.32486,-0.0992 0.56379,-0.40293 0.56379,-0.75861 v -0.79478 c 0,-0.43524 -0.35799,-0.79323 -0.79323,-0.79323 z" />
      </g>
    </g>
  </g>
</svg>
