<?xml version="1.0" encoding="UTF-8" standalone="no"?>
<svg
   xmlns:dc="http://purl.org/dc/elements/1.1/"
   xmlns:cc="http://creativecommons.org/ns#"
   xmlns:rdf="http://www.w3.org/1999/02/22-rdf-syntax-ns#"
   xmlns:svg="http://www.w3.org/2000/svg"
   xmlns="http://www.w3.org/2000/svg"
   xmlns:sodipodi="http://sodipodi.sourceforge.net/DTD/sodipodi-0.dtd"
   xmlns:inkscape="http://www.inkscape.org/namespaces/inkscape"
   inkscape:export-ydpi="576"
   inkscape:export-xdpi="576"
   inkscape:export-filename="D:\Project Real\November\export\flat\png\4 - Dimsum.png"
   width="64pt"
   height="64pt"
   viewBox="0 0 22.577778 22.577778"
   version="1.1"
   id="svg831"
   inkscape:version="1.0 (4035a4fb49, 2020-05-01)"
   sodipodi:docname="5 - Bread with cheese.svg">
  <defs
     id="defs825">
    <pattern
       id="EMFhbasepattern"
       patternUnits="userSpaceOnUse"
       width="6"
       height="6"
       x="0"
       y="0" />
    <pattern
       id="EMFhbasepattern-9"
       patternUnits="userSpaceOnUse"
       width="6"
       height="6"
       x="0"
       y="0" />
    <pattern
       id="EMFhbasepattern-0"
       patternUnits="userSpaceOnUse"
       width="6"
       height="6"
       x="0"
       y="0" />
    <pattern
       id="EMFhbasepattern-7"
       patternUnits="userSpaceOnUse"
       width="6"
       height="6"
       x="0"
       y="0" />
    <pattern
       id="EMFhbasepattern-2"
       patternUnits="userSpaceOnUse"
       width="6"
       height="6"
       x="0"
       y="0" />
    <pattern
       id="EMFhbasepattern-98"
       patternUnits="userSpaceOnUse"
       width="6"
       height="6"
       x="0"
       y="0" />
    <pattern
       id="EMFhbasepattern-6"
       patternUnits="userSpaceOnUse"
       width="6"
       height="6"
       x="0"
       y="0" />
    <pattern
       id="EMFhbasepattern-01"
       patternUnits="userSpaceOnUse"
       width="6"
       height="6"
       x="0"
       y="0" />
    <pattern
       id="EMFhbasepattern-07"
       patternUnits="userSpaceOnUse"
       width="6"
       height="6"
       x="0"
       y="0" />
    <pattern
       id="EMFhbasepattern-8"
       patternUnits="userSpaceOnUse"
       width="6"
       height="6"
       x="0"
       y="0" />
    <pattern
       id="EMFhbasepattern-4"
       patternUnits="userSpaceOnUse"
       width="6"
       height="6"
       x="0"
       y="0" />
    <pattern
       id="EMFhbasepattern-40"
       patternUnits="userSpaceOnUse"
       width="6"
       height="6"
       x="0"
       y="0" />
    <pattern
       id="EMFhbasepattern-08"
       patternUnits="userSpaceOnUse"
       width="6"
       height="6"
       x="0"
       y="0" />
    <pattern
       id="EMFhbasepattern-04"
       patternUnits="userSpaceOnUse"
       width="6"
       height="6"
       x="0"
       y="0" />
    <pattern
       id="EMFhbasepattern-014"
       patternUnits="userSpaceOnUse"
       width="6"
       height="6"
       x="0"
       y="0" />
    <pattern
       id="EMFhbasepattern-27"
       patternUnits="userSpaceOnUse"
       width="6"
       height="6"
       x="0"
       y="0" />
    <pattern
       id="EMFhbasepattern-09"
       patternUnits="userSpaceOnUse"
       width="6"
       height="6"
       x="0"
       y="0" />
    <pattern
       id="EMFhbasepattern-5"
       patternUnits="userSpaceOnUse"
       width="6"
       height="6"
       x="0"
       y="0" />
    <pattern
       id="EMFhbasepattern-018"
       patternUnits="userSpaceOnUse"
       width="6"
       height="6"
       x="0"
       y="0" />
  </defs>
  <sodipodi:namedview
     id="base"
     pagecolor="#ffffff"
     bordercolor="#666666"
     borderopacity="1.0"
     inkscape:pageopacity="0.0"
     inkscape:pageshadow="2"
     inkscape:zoom="6.2578125"
     inkscape:cx="42.666667"
     inkscape:cy="42.666667"
     inkscape:document-units="pt"
     inkscape:current-layer="layer1"
     showgrid="false"
     units="pt"
     inkscape:window-width="1366"
     inkscape:window-height="706"
     inkscape:window-x="-8"
     inkscape:window-y="-8"
     inkscape:window-maximized="1"
     inkscape:pagecheckerboard="true"
     inkscape:showpageshadow="false"
     inkscape:object-paths="true"
     inkscape:snap-intersection-paths="true"
     inkscape:snap-smooth-nodes="true"
     inkscape:snap-midpoints="true"
     showguides="true"
     inkscape:snap-bbox="true"
     inkscape:bbox-nodes="true"
     inkscape:snap-nodes="false"
     inkscape:snap-global="true"
     inkscape:document-rotation="0">
    <inkscape:grid
       type="xygrid"
       id="grid1378" />
    <sodipodi:guide
       position="0.97013831,21.607643"
       orientation="78.000048,0"
       id="guide1380"
       inkscape:locked="false" />
    <sodipodi:guide
       position="0.97013831,0.97013129"
       orientation="0,78.000005"
       id="guide1382"
       inkscape:locked="false" />
    <sodipodi:guide
       position="21.607639,0.97013129"
       orientation="-78.000048,0"
       id="guide1384"
       inkscape:locked="false" />
    <sodipodi:guide
       position="21.607639,21.607643"
       orientation="0,-78.000005"
       id="guide1386"
       inkscape:locked="false" />
  </sodipodi:namedview>
  <metadata
     id="metadata828">
    <rdf:RDF>
      <cc:Work
         rdf:about="">
        <dc:format>image/svg+xml</dc:format>
        <dc:type
           rdf:resource="http://purl.org/dc/dcmitype/StillImage" />
        <dc:title></dc:title>
      </cc:Work>
    </rdf:RDF>
  </metadata>
  <g
     inkscape:label="Icon"
     inkscape:groupmode="layer"
     id="layer1"
     transform="translate(0,-274.42223)">
    <g
       transform="matrix(1.258055,0,0,1.258055,-76.110303,-38.905158)"
       style="display:inline;stroke-width:0.794878"
       id="g336">
      <path
         id="path974"
         d="m 69.472656,249.82812 c -4.52674,10e-6 -8.203125,3.67639 -8.203125,8.20313 -5e-6,4.52674 3.676381,8.20117 8.203125,8.20117 4.526745,0 8.201178,-3.67442 8.201172,-8.20117 0,-4.52674 -3.674431,-8.20313 -8.201172,-8.20313 z"
         style="color:#000000;font-style:normal;font-variant:normal;font-weight:normal;font-stretch:normal;font-size:medium;line-height:normal;font-family:sans-serif;font-variant-ligatures:normal;font-variant-position:normal;font-variant-caps:normal;font-variant-numeric:normal;font-variant-alternates:normal;font-variant-east-asian:normal;font-feature-settings:normal;font-variation-settings:normal;text-indent:0;text-align:start;text-decoration:none;text-decoration-line:none;text-decoration-style:solid;text-decoration-color:#000000;letter-spacing:normal;word-spacing:normal;text-transform:none;writing-mode:lr-tb;direction:ltr;text-orientation:mixed;dominant-baseline:auto;baseline-shift:baseline;text-anchor:start;white-space:normal;shape-padding:0;shape-margin:0;inline-size:0;clip-rule:nonzero;display:inline;overflow:visible;visibility:visible;isolation:auto;mix-blend-mode:normal;color-interpolation:sRGB;color-interpolation-filters:linearRGB;solid-color:#000000;solid-opacity:1;vector-effect:none;fill:#ececec;fill-opacity:1;fill-rule:nonzero;stroke:none;stroke-width:0.420623;stroke-linecap:round;stroke-linejoin:round;stroke-miterlimit:1.5;stroke-dasharray:none;stroke-dashoffset:0;stroke-opacity:1;color-rendering:auto;image-rendering:auto;shape-rendering:auto;text-rendering:auto;enable-background:accumulate;stop-color:#000000" />
      <path
         id="path968"
         d="m 69.472656,250.9707 c -3.896268,0 -7.060549,3.16427 -7.060547,7.06055 a 0.2645835,0.2645835 0 0 0 0.263672,0.26367 0.2645835,0.2645835 0 0 0 0.265625,-0.26367 c -2e-6,-3.6103 2.920964,-6.53125 6.53125,-6.53125 a 0.2645835,0.2645835 0 0 0 0.263672,-0.26562 0.2645835,0.2645835 0 0 0 -0.263672,-0.26368 z m 6.794922,6.79492 a 0.2645835,0.2645835 0 0 0 -0.263672,0.26563 c 2e-6,1.07999 -0.261308,2.09546 -0.724609,2.99219 a 0.2645835,0.2645835 0 0 0 0.113281,0.35742 0.2645835,0.2645835 0 0 0 0.355469,-0.11328 c 0.500961,-0.96962 0.785158,-2.07078 0.785156,-3.23633 a 0.2645835,0.2645835 0 0 0 -0.265625,-0.26563 z"
         style="color:#000000;font-style:normal;font-variant:normal;font-weight:normal;font-stretch:normal;font-size:medium;line-height:normal;font-family:sans-serif;font-variant-ligatures:normal;font-variant-position:normal;font-variant-caps:normal;font-variant-numeric:normal;font-variant-alternates:normal;font-variant-east-asian:normal;font-feature-settings:normal;font-variation-settings:normal;text-indent:0;text-align:start;text-decoration:none;text-decoration-line:none;text-decoration-style:solid;text-decoration-color:#000000;letter-spacing:normal;word-spacing:normal;text-transform:none;writing-mode:lr-tb;direction:ltr;text-orientation:mixed;dominant-baseline:auto;baseline-shift:baseline;text-anchor:start;white-space:normal;shape-padding:0;shape-margin:0;inline-size:0;clip-rule:nonzero;display:inline;overflow:visible;visibility:visible;opacity:1;isolation:auto;mix-blend-mode:normal;color-interpolation:sRGB;color-interpolation-filters:linearRGB;solid-color:#000000;solid-opacity:1;vector-effect:none;fill:#cccccc;fill-opacity:1;fill-rule:nonzero;stroke:none;stroke-width:0.420623;stroke-linecap:round;stroke-linejoin:round;stroke-miterlimit:1.5;stroke-dasharray:none;stroke-dashoffset:0;stroke-opacity:1;color-rendering:auto;image-rendering:auto;shape-rendering:auto;text-rendering:auto;enable-background:accumulate;stop-color:#000000;stop-opacity:1" />
      <path
         id="path956"
         d="m 68.404304,262.16788 c 0.141924,-0.0218 0.277333,-0.008 0.474609,0.14258 0.04649,0.0357 0.103507,0.0549 0.16211,0.0547 1.209635,-0.008 2.419259,-0.008 3.628906,-0.006 0.146592,0.10035 0.294686,0.20898 0.486328,0.20898 0.463486,0 0.843753,-0.38026 0.84375,-0.84375 10e-7,-0.19026 -0.107055,-0.33471 -0.205078,-0.47852 l -0.01758,-1.51367 c -6.31e-4,-0.0573 -0.01982,-0.11277 -0.05469,-0.1582 -0.111765,-0.14703 -0.178795,-0.27577 -0.189453,-0.4082 -0.01066,-0.13244 0.02572,-0.29704 0.212891,-0.54493 0.03417,-0.0457 0.05266,-0.10116 0.05273,-0.1582 0.0017,-1.22527 -8.38e-4,-2.45052 -0.0039,-3.67578 0.09601,-0.14079 0.205079,-0.27921 0.205078,-0.46484 3e-6,-0.46349 -0.380259,-0.84375 -0.84375,-0.84375 -0.190006,0 -0.338651,0.11296 -0.486328,0.21679 -2.132128,0.0136 -4.264322,0.008 -6.396484,0.008 -0.148357,-0.10757 -0.296264,-0.2246 -0.494141,-0.2246 l -5e-6,3e-5 c -0.463492,0 -0.845708,0.38026 -0.845703,0.84375 -2e-6,0.18884 0.116309,0.3271 0.216797,0.46875 -0.0065,2.14648 -0.0031,4.29297 -0.0059,6.43945 -0.101591,0.14882 -0.210938,0.2996 -0.210937,0.49414 -3e-6,0.46349 0.382217,0.84375 0.845703,0.84375 0.179956,0 0.314355,-0.10982 0.453125,-0.20508 l 1.589844,0.0312 c 0.04942,0.001 0.09813,-0.0118 0.141625,-0.0381 0.147591,-0.0891 0.299287,-0.16678 0.440453,-0.1885 z"
         style="color:#000000;font-style:normal;font-variant:normal;font-weight:normal;font-stretch:normal;font-size:medium;line-height:normal;font-family:sans-serif;font-variant-ligatures:normal;font-variant-position:normal;font-variant-caps:normal;font-variant-numeric:normal;font-variant-alternates:normal;font-variant-east-asian:normal;font-feature-settings:normal;font-variation-settings:normal;text-indent:0;text-align:start;text-decoration:none;text-decoration-line:none;text-decoration-style:solid;text-decoration-color:#000000;letter-spacing:normal;word-spacing:normal;text-transform:none;writing-mode:lr-tb;direction:ltr;text-orientation:mixed;dominant-baseline:auto;baseline-shift:baseline;text-anchor:start;white-space:normal;shape-padding:0;shape-margin:0;inline-size:0;clip-rule:nonzero;display:inline;overflow:visible;visibility:visible;isolation:auto;mix-blend-mode:normal;color-interpolation:sRGB;color-interpolation-filters:linearRGB;solid-color:#000000;solid-opacity:1;vector-effect:none;fill:#fec872;fill-opacity:1;fill-rule:nonzero;stroke:none;stroke-width:0.420623;stroke-linecap:round;stroke-linejoin:round;stroke-miterlimit:1.5;stroke-dasharray:none;stroke-dashoffset:0;stroke-opacity:1;color-rendering:auto;image-rendering:auto;shape-rendering:auto;text-rendering:auto;enable-background:accumulate;stop-color:#000000"
         sodipodi:nodetypes="ccccsscccscccssccccsccsscccc" />
      <path
         id="path298"
         style="color:#000000;font-style:normal;font-variant:normal;font-weight:normal;font-stretch:normal;font-size:medium;line-height:normal;font-family:sans-serif;font-variant-ligatures:normal;font-variant-position:normal;font-variant-caps:normal;font-variant-numeric:normal;font-variant-alternates:normal;font-variant-east-asian:normal;font-feature-settings:normal;font-variation-settings:normal;text-indent:0;text-align:start;text-decoration:none;text-decoration-line:none;text-decoration-style:solid;text-decoration-color:#000000;letter-spacing:normal;word-spacing:normal;text-transform:none;writing-mode:lr-tb;direction:ltr;text-orientation:mixed;dominant-baseline:auto;baseline-shift:baseline;text-anchor:start;white-space:normal;shape-padding:0;shape-margin:0;inline-size:0;clip-rule:nonzero;display:inline;overflow:visible;visibility:visible;isolation:auto;mix-blend-mode:normal;color-interpolation:sRGB;color-interpolation-filters:linearRGB;solid-color:#000000;solid-opacity:1;vector-effect:none;fill:#e05e10;fill-opacity:1;fill-rule:nonzero;stroke:none;stroke-width:1.58976;stroke-linecap:round;stroke-linejoin:round;stroke-miterlimit:1.5;stroke-dasharray:none;stroke-dashoffset:0;stroke-opacity:1;color-rendering:auto;image-rendering:auto;shape-rendering:auto;text-rendering:auto;enable-background:accumulate;stop-color:#000000"
         d="m 271.36914,-99.654297 c -5.86713,0.02516 -11.73438,0.01172 -17.60156,0.01172 l -1.35938,1.359375 c -0.86533,0.866986 -0.91671,2.414715 -0.10937,3.335937 0.22692,0.257764 0.16981,0.270792 -0.0606,0.539063 -0.1426,0.165921 -0.21202,0.188258 -0.2793,0.199219 -0.0673,0.01134 -0.25793,0.03472 -0.73828,-0.257813 -0.003,-7e-6 -0.005,-7e-6 -0.008,0 -0.92622,-0.561675 -2.22391,-0.404253 -2.99023,0.361328 l -1.99414,1.996094 c -0.0145,5.87629 -3.8e-4,11.752607 -0.01,17.628906 l 7.63867,7.638672 2.47852,0.04883 c 0.18674,0.0037 0.37077,-0.04506 0.73203,-0.262281 0.36126,-0.21722 0.93384,-0.511137 1.46738,-0.593229 0.5364,-0.08239 1.04931,-0.03006 1.79492,0.539063 0.17582,0.135086 0.39156,0.207912 0.61328,0.207031 3.47918,-0.01535 6.9583,-0.0329 10.4375,-0.02735 l 7.49023,-7.49414 -0.0273,-2.431641 c -0.003,-0.21637 -0.0752,-0.42608 -0.20703,-0.597656 -0.42242,-0.555704 -0.67652,-1.042446 -0.7168,-1.542969 -0.0403,-0.50056 0.0973,-1.121686 0.80469,-2.058594 0.12906,-0.172555 0.19893,-0.382178 0.19922,-0.597656 8.1e-4,-3.484382 0.002,-6.968754 -0.006,-10.453125 l -2.14844,-2.148437 c -0.003,-0.002 -0.005,-0.0039 -0.008,-0.0059 -0.90205,-0.892157 -2.48142,-0.805266 -3.38867,0.06641 0.90165,-0.902967 0.91588,-2.541427 0.0156,-3.447266 -0.003,-7e-6 -0.005,-7e-6 -0.008,0 z"
         transform="matrix(0.26458334,0,0,0.26458334,0,280.06666)"
         sodipodi:nodetypes="cccccccccccccccccccccsccccccccc" />
      <path
         id="path942"
         d="m 69.464844,252.02148 c -0.06768,0.002 -0.131991,0.03 -0.179688,0.0781 l -2.232422,2.23242 c -0.0984,0.0986 -0.103523,0.25657 -0.01172,0.36133 0.181456,0.20619 0.141907,0.46141 -0.01367,0.64258 -0.15558,0.18117 -0.395194,0.28314 -0.757813,0.0625 -0.104187,-0.0632 -0.238036,-0.047 -0.324219,0.0391 l -2.404296,2.40625 c -0.102562,0.1032 -0.102562,0.26985 0,0.37305 l 4.099609,4.09961 c 0.09103,0.0912 0.234542,0.10359 0.339844,0.0293 0.441391,-0.31478 0.748764,-0.204 0.9375,0.0117 0.188735,0.21573 0.240861,0.55032 -0.03125,0.84766 -0.09534,0.1043 -0.0919,0.2651 0.0078,0.36523 l 0.390625,0.39258 c 0.103426,0.10386 0.271574,0.10386 0.375,0 l 4.039063,-4.04101 c 0.0943,-0.0944 0.103513,-0.24433 0.02148,-0.34961 -0.269937,-0.3462 -0.205801,-0.69966 -0.0078,-0.91797 0.197989,-0.21832 0.519164,-0.32386 0.964843,-0.0176 0.105352,0.0727 0.24763,0.0596 0.337891,-0.0312 l 0.388672,-0.38867 c 0.102562,-0.1032 0.102562,-0.26985 0,-0.37305 l -2.445313,-2.44531 c -0.109059,-0.10788 -0.286702,-0.10071 -0.386718,0.0156 -0.197271,0.18932 -0.336549,0.19844 -0.546875,0.0332 -0.244459,-0.26009 -0.06974,-0.39961 0.03516,-0.57032 0.104415,-0.10287 0.105312,-0.27102 0.002,-0.375 l -2.402344,-2.40234 c -0.05152,-0.0519 -0.122213,-0.0802 -0.195312,-0.0781 z"
         style="color:#000000;font-style:normal;font-variant:normal;font-weight:normal;font-stretch:normal;font-size:medium;line-height:normal;font-family:sans-serif;font-variant-ligatures:normal;font-variant-position:normal;font-variant-caps:normal;font-variant-numeric:normal;font-variant-alternates:normal;font-variant-east-asian:normal;font-feature-settings:normal;font-variation-settings:normal;text-indent:0;text-align:start;text-decoration:none;text-decoration-line:none;text-decoration-style:solid;text-decoration-color:#000000;letter-spacing:normal;word-spacing:normal;text-transform:none;writing-mode:lr-tb;direction:ltr;text-orientation:mixed;dominant-baseline:auto;baseline-shift:baseline;text-anchor:start;white-space:normal;shape-padding:0;shape-margin:0;inline-size:0;clip-rule:nonzero;display:inline;overflow:visible;visibility:visible;isolation:auto;mix-blend-mode:normal;color-interpolation:sRGB;color-interpolation-filters:linearRGB;solid-color:#000000;solid-opacity:1;vector-effect:none;fill:#fca311;fill-opacity:1;fill-rule:nonzero;stroke:none;stroke-width:0.420623;stroke-linecap:round;stroke-linejoin:round;stroke-miterlimit:1.5;stroke-dasharray:none;stroke-dashoffset:0;stroke-opacity:1;color-rendering:auto;image-rendering:auto;shape-rendering:auto;text-rendering:auto;enable-background:accumulate;stop-color:#000000"
         sodipodi:nodetypes="ccccscccccccccccccccccccccccccc" />
      <path
         id="path914"
         d="m 67.992188,257.62891 c -0.463488,0 -0.845706,0.38026 -0.845704,0.84375 -2e-6,0.46348 0.382216,0.8457 0.845704,0.8457 0.463487,0 0.845705,-0.38222 0.845703,-0.8457 2e-6,-0.46349 -0.382216,-0.84375 -0.845703,-0.84375 z"
         style="color:#000000;font-style:normal;font-variant:normal;font-weight:normal;font-stretch:normal;font-size:medium;line-height:normal;font-family:sans-serif;font-variant-ligatures:normal;font-variant-position:normal;font-variant-caps:normal;font-variant-numeric:normal;font-variant-alternates:normal;font-variant-east-asian:normal;font-feature-settings:normal;font-variation-settings:normal;text-indent:0;text-align:start;text-decoration:none;text-decoration-line:none;text-decoration-style:solid;text-decoration-color:#000000;letter-spacing:normal;word-spacing:normal;text-transform:none;writing-mode:lr-tb;direction:ltr;text-orientation:mixed;dominant-baseline:auto;baseline-shift:baseline;text-anchor:start;white-space:normal;shape-padding:0;shape-margin:0;inline-size:0;clip-rule:nonzero;display:inline;overflow:visible;visibility:visible;isolation:auto;mix-blend-mode:normal;color-interpolation:sRGB;color-interpolation-filters:linearRGB;solid-color:#000000;solid-opacity:1;vector-effect:none;fill:#fff79c;fill-opacity:1;fill-rule:nonzero;stroke:none;stroke-width:0.420623;stroke-linecap:round;stroke-linejoin:round;stroke-miterlimit:1.5;stroke-dasharray:none;stroke-dashoffset:0;stroke-opacity:1;color-rendering:auto;image-rendering:auto;shape-rendering:auto;text-rendering:auto;enable-background:accumulate;stop-color:#000000" />
      <path
         id="path989"
         style="color:#000000;font-style:normal;font-variant:normal;font-weight:normal;font-stretch:normal;font-size:medium;line-height:normal;font-family:sans-serif;font-variant-ligatures:normal;font-variant-position:normal;font-variant-caps:normal;font-variant-numeric:normal;font-variant-alternates:normal;font-variant-east-asian:normal;font-feature-settings:normal;font-variation-settings:normal;text-indent:0;text-align:start;text-decoration:none;text-decoration-line:none;text-decoration-style:solid;text-decoration-color:#000000;letter-spacing:normal;word-spacing:normal;text-transform:none;writing-mode:lr-tb;direction:ltr;text-orientation:mixed;dominant-baseline:auto;baseline-shift:baseline;text-anchor:start;white-space:normal;shape-padding:0;shape-margin:0;inline-size:0;clip-rule:nonzero;display:inline;overflow:visible;visibility:visible;isolation:auto;mix-blend-mode:normal;color-interpolation:sRGB;color-interpolation-filters:linearRGB;solid-color:#000000;solid-opacity:1;vector-effect:none;fill:#fed883;fill-opacity:1;fill-rule:nonzero;stroke:none;stroke-width:0.420623;stroke-linecap:round;stroke-linejoin:round;stroke-miterlimit:1.5;stroke-dasharray:none;stroke-dashoffset:0;stroke-opacity:1;color-rendering:auto;image-rendering:auto;shape-rendering:auto;text-rendering:auto;enable-background:accumulate;stop-color:#000000"
         d="m 67.991949,257.62729 c -0.09279,0 -0.180724,0.0188 -0.264583,0.047 0.335028,0.11275 0.581366,0.4277 0.581358,0.7984 3e-6,0.3707 -0.246332,0.6846 -0.581358,0.79685 0.08386,0.0281 0.171794,0.047 0.264583,0.047 0.463487,0 0.845944,-0.38039 0.845942,-0.84388 1e-5,-0.46349 -0.38245,-0.84543 -0.845942,-0.84543 z" />
      <path
         sodipodi:nodetypes="scccsccccccccccccscccccss"
         d="m 69.465012,252.02134 c -0.06773,0.002 -0.132091,0.03 -0.179835,0.078 l -2.232422,2.23242 c -0.0987,0.0986 -0.103894,0.25687 -0.01188,0.36173 0.181457,0.20619 0.142142,0.46117 -0.01344,0.64234 -0.05748,0.0669 -0.126383,0.12302 -0.208772,0.15606 0.210312,0.0127 0.420071,0.0222 0.628386,0.0222 4.947821,-0.27159 5.203586,3.57935 4.124812,6.53604 l 2.127519,-2.12856 c 0.09406,-0.0945 0.103138,-0.24417 0.02119,-0.34933 -0.269939,-0.3462 -0.205754,-0.69946 -0.0078,-0.91777 0.197988,-0.21832 0.519121,-0.32435 0.964798,-0.0181 0.105323,0.0728 0.247645,0.0597 0.337966,-0.031 l 0.388606,-0.38861 c 0.102598,-0.10321 0.102598,-0.2699 0,-0.3731 l -2.445334,-2.44533 c -0.109014,-0.10778 -0.286507,-0.10066 -0.386541,0.0155 -0.09491,0.11009 -0.184277,0.13849 -0.277503,0.13901 -0.09323,5.3e-4 -0.194394,-0.0382 -0.269232,-0.10542 -0.07484,-0.0673 -0.117567,-0.15559 -0.121441,-0.24443 -0.0039,-0.0888 0.02233,-0.19308 0.156581,-0.32608 0.10456,-0.10286 0.10551,-0.27114 0.0021,-0.37517 l -2.402438,-2.40243 c -0.05153,-0.0519 -0.12224,-0.0801 -0.195336,-0.078 z"
         style="fill:#ec7523;fill-opacity:1;stroke:none;stroke-width:0.420623;stroke-linecap:round;stroke-linejoin:round;stroke-miterlimit:1.5;stroke-opacity:1"
         id="path994" />
      <path
         id="path920"
         d="m 70.992188,256.69336 c -0.463494,0 -0.845714,0.38221 -0.845704,0.8457 -2e-6,0.46349 0.382216,0.84375 0.845704,0.84375 0.463487,0 0.845705,-0.38026 0.845703,-0.84375 1e-5,-0.46349 -0.38221,-0.8457 -0.845703,-0.8457 z"
         style="color:#000000;font-style:normal;font-variant:normal;font-weight:normal;font-stretch:normal;font-size:medium;line-height:normal;font-family:sans-serif;font-variant-ligatures:normal;font-variant-position:normal;font-variant-caps:normal;font-variant-numeric:normal;font-variant-alternates:normal;font-variant-east-asian:normal;font-feature-settings:normal;font-variation-settings:normal;text-indent:0;text-align:start;text-decoration:none;text-decoration-line:none;text-decoration-style:solid;text-decoration-color:#000000;letter-spacing:normal;word-spacing:normal;text-transform:none;writing-mode:lr-tb;direction:ltr;text-orientation:mixed;dominant-baseline:auto;baseline-shift:baseline;text-anchor:start;white-space:normal;shape-padding:0;shape-margin:0;inline-size:0;clip-rule:nonzero;display:inline;overflow:visible;visibility:visible;isolation:auto;mix-blend-mode:normal;color-interpolation:sRGB;color-interpolation-filters:linearRGB;solid-color:#000000;solid-opacity:1;vector-effect:none;fill:#fff79c;fill-opacity:1;fill-rule:nonzero;stroke:none;stroke-width:0.420623;stroke-linecap:round;stroke-linejoin:round;stroke-miterlimit:1.5;stroke-dasharray:none;stroke-dashoffset:0;stroke-opacity:1;color-rendering:auto;image-rendering:auto;shape-rendering:auto;text-rendering:auto;enable-background:accumulate;stop-color:#000000" />
      <path
         d="m 70.992049,256.69342 c -0.09279,0 -0.180724,0.0188 -0.264583,0.047 0.335028,0.11275 0.581366,0.4277 0.581358,0.7984 3e-6,0.3707 -0.246332,0.6846 -0.581358,0.79685 0.08386,0.0281 0.171794,0.047 0.264583,0.047 0.463487,0 0.845944,-0.38039 0.845942,-0.84388 1e-5,-0.46349 -0.38245,-0.84543 -0.845942,-0.84543 z"
         style="color:#000000;font-style:normal;font-variant:normal;font-weight:normal;font-stretch:normal;font-size:medium;line-height:normal;font-family:sans-serif;font-variant-ligatures:normal;font-variant-position:normal;font-variant-caps:normal;font-variant-numeric:normal;font-variant-alternates:normal;font-variant-east-asian:normal;font-feature-settings:normal;font-variation-settings:normal;text-indent:0;text-align:start;text-decoration:none;text-decoration-line:none;text-decoration-style:solid;text-decoration-color:#000000;letter-spacing:normal;word-spacing:normal;text-transform:none;writing-mode:lr-tb;direction:ltr;text-orientation:mixed;dominant-baseline:auto;baseline-shift:baseline;text-anchor:start;white-space:normal;shape-padding:0;shape-margin:0;inline-size:0;clip-rule:nonzero;display:inline;overflow:visible;visibility:visible;isolation:auto;mix-blend-mode:normal;color-interpolation:sRGB;color-interpolation-filters:linearRGB;solid-color:#000000;solid-opacity:1;vector-effect:none;fill:#fed883;fill-opacity:1;fill-rule:nonzero;stroke:none;stroke-width:0.420623;stroke-linecap:round;stroke-linejoin:round;stroke-miterlimit:1.5;stroke-dasharray:none;stroke-dashoffset:0;stroke-opacity:1;color-rendering:auto;image-rendering:auto;shape-rendering:auto;text-rendering:auto;enable-background:accumulate;stop-color:#000000"
         id="path984" />
      <path
         id="path320"
         style="color:#000000;font-style:normal;font-variant:normal;font-weight:normal;font-stretch:normal;font-size:medium;line-height:normal;font-family:sans-serif;font-variant-ligatures:normal;font-variant-position:normal;font-variant-caps:normal;font-variant-numeric:normal;font-variant-alternates:normal;font-variant-east-asian:normal;font-feature-settings:normal;font-variation-settings:normal;text-indent:0;text-align:start;text-decoration:none;text-decoration-line:none;text-decoration-style:solid;text-decoration-color:#000000;letter-spacing:normal;word-spacing:normal;text-transform:none;writing-mode:lr-tb;direction:ltr;text-orientation:mixed;dominant-baseline:auto;baseline-shift:baseline;text-anchor:start;white-space:normal;shape-padding:0;shape-margin:0;inline-size:0;clip-rule:nonzero;display:inline;overflow:visible;visibility:visible;isolation:auto;mix-blend-mode:normal;color-interpolation:sRGB;color-interpolation-filters:linearRGB;solid-color:#000000;solid-opacity:1;vector-effect:none;fill:#cccccc;fill-opacity:1;fill-rule:nonzero;stroke:none;stroke-width:0.420623;stroke-linecap:round;stroke-linejoin:round;stroke-miterlimit:1.5;stroke-dasharray:none;stroke-dashoffset:0;stroke-opacity:1;color-rendering:auto;image-rendering:auto;shape-rendering:auto;text-rendering:auto;enable-background:accumulate;stop-color:#000000"
         d="m 69.472769,249.82819 c -2.668196,1e-5 -5.04054,1.27772 -6.539135,3.25355 1.376617,-1.04479 3.09217,-1.66604 4.951635,-1.66605 4.526741,0 8.201049,3.67638 8.201049,8.20312 3e-6,1.85894 -0.620122,3.57354 -1.66398,4.94957 1.974786,-1.49807 3.251486,-3.86925 3.25148,-6.53707 0,-4.52674 -3.674308,-8.20312 -8.201049,-8.20312 z" />
    </g>
  </g>
</svg>
