<?xml version="1.0" ?><svg id="Virus" style="enable-background:new 0 0 32 32;" version="1.1" viewBox="0 0 32 32" xml:space="preserve" xmlns="http://www.w3.org/2000/svg" xmlns:xlink="http://www.w3.org/1999/xlink"><style type="text/css">
	.st0{fill:#FBC34E;}
	.st1{fill:#20A56C;}
	.st2{fill:#F25949;}
	.st3{fill:#085836;}
</style><g><path class="st0" d="M15,26.338v1.421c-0.106-0.046-0.211-0.075-0.319-0.135c-0.483-0.268-1.091-0.096-1.36,0.386   c-0.269,0.482-0.096,1.092,0.387,1.36c0.743,0.414,1.506,0.622,2.271,0.625C15.986,29.996,15.992,30,16,30s0.014-0.004,0.022-0.004   c0.764-0.004,1.528-0.211,2.271-0.625c0.482-0.269,0.655-0.878,0.386-1.36c-0.269-0.482-0.878-0.654-1.36-0.386   c-0.108,0.06-0.212,0.089-0.318,0.135v-1.421c-0.329,0.032-0.662,0.051-1,0.051S15.329,26.37,15,26.338z"/><path class="st0" d="M17,5.662V4.241c0.106,0.046,0.211,0.075,0.319,0.135c0.153,0.086,0.32,0.126,0.485,0.126   c0.352,0,0.691-0.185,0.875-0.513c0.269-0.483,0.095-1.092-0.388-1.36c-0.744-0.415-1.509-0.622-2.274-0.626   C16.012,2.004,16.006,2,16,2c-0.006,0-0.012,0.004-0.018,0.004c-0.765,0.003-1.53,0.211-2.274,0.626   c-0.482,0.269-0.656,0.877-0.387,1.36c0.269,0.482,0.877,0.657,1.36,0.387c0.108-0.06,0.213-0.089,0.319-0.135v1.421   c0.329-0.032,0.662-0.051,1-0.051S16.671,5.63,17,5.662z"/><path class="st0" d="M5.662,15H4.241c0.046-0.106,0.075-0.211,0.135-0.319c0.269-0.483,0.096-1.092-0.387-1.36   c-0.482-0.269-1.092-0.095-1.36,0.387c-0.414,0.743-0.621,1.507-0.625,2.272C2.004,15.987,2,15.993,2,16   c0,0.007,0.004,0.014,0.004,0.021c0.004,0.764,0.211,1.528,0.625,2.271c0.183,0.329,0.523,0.514,0.875,0.514   c0.165,0,0.332-0.041,0.486-0.126c0.482-0.27,0.656-0.878,0.387-1.36c-0.06-0.108-0.09-0.213-0.135-0.319h1.421   c-0.032-0.329-0.051-0.662-0.051-1S5.63,15.329,5.662,15z"/><path class="st0" d="M30,16c0-0.008-0.004-0.014-0.004-0.022c-0.004-0.764-0.211-1.528-0.625-2.271   c-0.269-0.482-0.878-0.656-1.36-0.387s-0.655,0.878-0.386,1.36c0.06,0.108,0.089,0.213,0.135,0.319h-1.421   c0.032,0.329,0.051,0.662,0.051,1s-0.019,0.671-0.051,1h1.421c-0.046,0.106-0.075,0.211-0.135,0.318   c-0.27,0.482-0.097,1.092,0.386,1.36c0.154,0.086,0.321,0.127,0.486,0.127c0.351,0,0.691-0.185,0.874-0.513   c0.414-0.743,0.622-1.507,0.625-2.271C29.996,16.014,30,16.008,30,16z"/><path class="st0" d="M9.398,7.984L8.393,6.979C8.5,6.936,8.595,6.882,8.713,6.849c0.531-0.151,0.839-0.704,0.688-1.235   c-0.151-0.532-0.706-0.84-1.235-0.688C7.348,5.158,6.661,5.551,6.118,6.089C6.113,6.094,6.106,6.095,6.101,6.101   S6.094,6.113,6.089,6.118c-0.538,0.543-0.931,1.23-1.164,2.048C4.774,8.698,5.082,9.25,5.613,9.402   C5.705,9.428,5.796,9.44,5.887,9.44c0.436,0,0.836-0.287,0.961-0.727C6.882,8.595,6.936,8.5,6.979,8.393l1.006,1.006   C8.41,8.883,8.883,8.41,9.398,7.984z"/><path class="st0" d="M22.602,24.016l1.006,1.006c-0.108,0.043-0.203,0.096-0.321,0.13c-0.531,0.151-0.84,0.704-0.688,1.235   c0.125,0.439,0.525,0.727,0.961,0.727c0.091,0,0.183-0.012,0.274-0.038c0.817-0.232,1.504-0.626,2.047-1.163   c0.006-0.006,0.014-0.007,0.02-0.013s0.007-0.014,0.013-0.02c0.537-0.543,0.93-1.229,1.163-2.047   c0.151-0.531-0.157-1.084-0.688-1.235c-0.533-0.154-1.085,0.157-1.235,0.688c-0.034,0.119-0.087,0.214-0.13,0.321l-1.006-1.006   C23.59,23.117,23.117,23.59,22.602,24.016z"/><path class="st0" d="M24.016,9.398l1.006-1.006c0.043,0.107,0.096,0.202,0.13,0.321c0.125,0.44,0.525,0.727,0.961,0.727   c0.091,0,0.184-0.013,0.274-0.039c0.531-0.151,0.84-0.704,0.688-1.235c-0.233-0.818-0.626-1.505-1.164-2.048   c-0.005-0.005-0.007-0.013-0.012-0.018c-0.005-0.005-0.012-0.007-0.018-0.012c-0.543-0.538-1.23-0.932-2.049-1.164   c-0.532-0.151-1.084,0.156-1.235,0.688c-0.151,0.531,0.157,1.084,0.688,1.235c0.119,0.034,0.214,0.087,0.321,0.13l-1.006,1.006   C23.117,8.409,23.59,8.883,24.016,9.398z"/><path class="st0" d="M7.984,22.601l-1.006,1.006c-0.043-0.107-0.096-0.202-0.13-0.321c-0.151-0.531-0.705-0.844-1.235-0.688   c-0.531,0.151-0.839,0.704-0.688,1.235c0.233,0.818,0.626,1.506,1.164,2.049c0.005,0.005,0.007,0.013,0.012,0.018   c0.005,0.005,0.013,0.007,0.018,0.012c0.543,0.538,1.23,0.931,2.048,1.164c0.091,0.026,0.183,0.038,0.274,0.038   c0.436,0,0.836-0.287,0.961-0.727c0.151-0.531-0.157-1.084-0.688-1.235c-0.119-0.034-0.214-0.087-0.321-0.13l1.006-1.006   C8.883,23.59,8.409,23.117,7.984,22.601z"/><path class="st1" d="M26.338,15c-0.203-2.115-1.04-4.048-2.323-5.602c-0.425-0.515-0.899-0.989-1.414-1.414   C21.047,6.702,19.115,5.865,17,5.662c-0.329-0.032-0.662-0.051-1-0.051s-0.671,0.019-1,0.051c-2.115,0.203-4.047,1.04-5.602,2.322   C8.883,8.41,8.41,8.883,7.984,9.398C6.702,10.953,5.865,12.885,5.662,15c-0.032,0.329-0.051,0.662-0.051,1s0.019,0.671,0.051,1   c0.203,2.115,1.04,4.047,2.322,5.601c0.425,0.515,0.899,0.989,1.414,1.414c1.554,1.282,3.487,2.119,5.602,2.323   c0.329,0.032,0.662,0.051,1,0.051s0.671-0.019,1-0.051c2.115-0.203,4.047-1.04,5.602-2.322c0.515-0.425,0.989-0.899,1.414-1.414   c1.282-1.554,2.119-3.487,2.322-5.602c0.032-0.329,0.051-0.662,0.051-1S26.37,15.329,26.338,15z M19,10c1.654,0,3,1.346,3,3   s-1.346,3-3,3s-3-1.346-3-3S17.346,10,19,10z M20.54,19.521c0,0.553-0.447,1-1,1c-0.552,0-1.005-0.447-1.005-1s0.443-1,0.995-1   h0.01C20.093,18.521,20.54,18.968,20.54,19.521z M13.499,12.479c0,0.552-0.448,1-1,1s-1.005-0.448-1.005-1s0.442-1,0.995-1h0.01   C13.051,11.479,13.499,11.927,13.499,12.479z M13,22c-1.654,0-3-1.346-3-3s1.346-3,3-3s3,1.346,3,3S14.654,22,13,22z"/><circle class="st2" cx="13" cy="19" r="3"/><circle class="st2" cx="19" cy="13" r="3"/><path class="st3" d="M19.53,18.521c-0.552,0-0.995,0.447-0.995,1s0.453,1,1.005,1c0.553,0,1-0.447,1-1s-0.447-1-1-1H19.53z"/><path class="st3" d="M12.489,11.479c-0.552,0-0.995,0.448-0.995,1s0.453,1,1.005,1s1-0.448,1-1s-0.448-1-1-1H12.489z"/></g></svg>