<?xml version="1.0" ?><svg id="First_Aid_Kit" style="enable-background:new 0 0 32 32;" version="1.1" viewBox="0 0 32 32" xml:space="preserve" xmlns="http://www.w3.org/2000/svg" xmlns:xlink="http://www.w3.org/1999/xlink"><style type="text/css">
	.st0{fill:#393B3D;}
	.st1{fill:#F25949;}
	.st2{fill:#FFFFFF;}
</style><g><path class="st0" d="M11,4h10v3.001h2V3c0-0.552-0.447-1-1-1H10C9.448,2,9,2.448,9,3v4.001h2V4z"/><path class="st1" d="M28,7.001h-5h-2H11H9H4c-1.103,0-2,0.897-2,2V28c0,1.103,0.897,2,2,2h24c1.103,0,2-0.897,2-2V9.001   C30,7.898,29.103,7.001,28,7.001z M23,18.501c0,3.859-3.141,6.999-7,6.999c-3.86,0-7-3.14-7-6.999c0-3.86,3.14-7,7-7   C19.859,11.501,23,14.641,23,18.501z"/><path class="st2" d="M9,18.501c0,3.859,3.14,6.999,7,6.999c3.859,0,7-3.14,7-6.999c0-3.86-3.141-7-7-7   C12.14,11.501,9,14.641,9,18.501z M17,21.5c0,0.553-0.448,1-1,1s-1-0.447-1-1v-1.999h-2c-0.552,0-1-0.447-1-1s0.448-1,1-1h2v-2   c0-0.552,0.448-1,1-1s1,0.448,1,1v2h2c0.553,0,1,0.447,1,1s-0.447,1-1,1h-2V21.5z"/><path class="st1" d="M20,18.501c0-0.553-0.447-1-1-1h-2v-2c0-0.552-0.448-1-1-1s-1,0.448-1,1v2h-2c-0.552,0-1,0.447-1,1   s0.448,1,1,1h2V21.5c0,0.553,0.448,1,1,1s1-0.447,1-1v-1.999h2C19.553,19.501,20,19.054,20,18.501z"/></g></svg>