<?xml version="1.0" ?><svg id="Call" style="enable-background:new 0 0 32 32;" version="1.1" viewBox="0 0 32 32" xml:space="preserve" xmlns="http://www.w3.org/2000/svg" xmlns:xlink="http://www.w3.org/1999/xlink"><style type="text/css">
	.st0{fill:#16F293;}
	.st1{fill:#F25949;}
	.st2{fill:#FFFFFF;}
</style><g><path class="st0" d="M21.169,19.985c-1.237-0.396-2.588,0.227-3.085,1.411c-0.029,0.068-0.057,0.138-0.083,0.207   c-1.567-0.676-2.991-1.618-4.244-2.809c-0.002-0.002-0.004-0.003-0.006-0.005c-0.187-0.176-0.367-0.356-0.543-0.543   c-0.001-0.001-0.002-0.002-0.003-0.004c-1.19-1.253-2.132-2.677-2.808-4.244c0.07-0.026,0.139-0.054,0.208-0.083   c1.186-0.499,1.805-1.854,1.41-3.085C9.184,2,9.109,2,8.199,2C4.781,2,2,4.781,2,8.199C2,20.22,11.78,30,23.801,30   C27.219,30,30,27.219,30,23.801C30,22.891,30,22.816,21.169,19.985z"/><path class="st1" d="M15.48,14.89c-0.123,0.458,0.009,0.95,0.344,1.286c0.336,0.336,0.828,0.468,1.286,0.344l1.739-0.466   c1.131,0.629,2.385,0.937,3.634,0.937c1.945,0,3.879-0.746,5.319-2.186v0C29.22,13.388,30,11.506,30,9.503   c0-2.003-0.779-3.886-2.196-5.302c-2.891-2.888-7.618-2.917-10.54-0.065c-2.426,2.366-2.948,6.09-1.317,9.016L15.48,14.89z    M24.5,8.268c0.553,0,1,0.448,1,1s-0.447,1-1,1h-1v1c0,0.552-0.447,1-1,1s-1-0.448-1-1v-1h-1c-0.553,0-1-0.448-1-1s0.447-1,1-1h1   v-1c0-0.552,0.447-1,1-1s1,0.448,1,1v1H24.5z"/><path class="st2" d="M22.5,6.268c-0.553,0-1,0.448-1,1v1h-1c-0.553,0-1,0.448-1,1s0.447,1,1,1h1v1c0,0.552,0.447,1,1,1s1-0.448,1-1   v-1h1c0.553,0,1-0.448,1-1s-0.447-1-1-1h-1v-1C23.5,6.716,23.053,6.268,22.5,6.268z"/></g></svg>