<?xml version="1.0" ?><svg id="Calendars" style="enable-background:new 0 0 32 32;" version="1.1" viewBox="0 0 32 32" xml:space="preserve" xmlns="http://www.w3.org/2000/svg" xmlns:xlink="http://www.w3.org/1999/xlink"><style type="text/css">
	.st0{fill:#E4EDF2;}
	.st1{fill:#F25949;}
	.st2{fill:#FFFFFF;}
	.st3{fill:#393B3D;}
</style><g><path class="st0" d="M2,11.97v13.96C2,28.18,3.82,30,6.07,30h19.86c2.25,0,4.07-1.82,4.07-4.07V11.97H2z M16,26.485   c-3.584,0-6.5-2.916-6.5-6.5c0-3.584,2.916-6.5,6.5-6.5s6.5,2.916,6.5,6.5C22.5,23.569,19.584,26.485,16,26.485z"/><path class="st1" d="M16,13.485c-3.584,0-6.5,2.916-6.5,6.5c0,3.584,2.916,6.5,6.5,6.5s6.5-2.916,6.5-6.5   C22.5,16.401,19.584,13.485,16,13.485z M17,22.735c0,0.553-0.448,1-1,1s-1-0.447-1-1v-1.75h-1.75c-0.552,0-1-0.447-1-1s0.448-1,1-1   H15v-1.75c0-0.552,0.448-1,1-1s1,0.448,1,1v1.75h1.75c0.553,0,1,0.447,1,1s-0.447,1-1,1H17V22.735z"/><path class="st2" d="M19.75,19.985c0-0.553-0.447-1-1-1H17v-1.75c0-0.552-0.448-1-1-1s-1,0.448-1,1v1.75h-1.75   c-0.552,0-1,0.447-1,1s0.448,1,1,1H15v1.75c0,0.553,0.448,1,1,1s1-0.447,1-1v-1.75h1.75C19.303,20.985,19.75,20.538,19.75,19.985z"/><path class="st1" d="M29,3.96h-3.875v2.959c0,0.552-0.447,1-1,1s-1-0.448-1-1V3.96H17v2.959c0,0.552-0.448,1-1,1s-1-0.448-1-1V3.96   H8.875v2.959c0,0.552-0.448,1-1,1s-1-0.448-1-1V3.96H3c-0.55,0-1,0.45-1,1v7.01h28V4.96C30,4.41,29.55,3.96,29,3.96z"/><path class="st3" d="M7.875,7.919c0.552,0,1-0.448,1-1V3.96V3c0-0.552-0.448-1-1-1s-1,0.448-1,1v0.96v2.959   C6.875,7.472,7.323,7.919,7.875,7.919z"/><path class="st3" d="M24.125,7.919c0.553,0,1-0.448,1-1V3.96V3c0-0.552-0.447-1-1-1s-1,0.448-1,1v0.96v2.959   C23.125,7.472,23.572,7.919,24.125,7.919z"/><path class="st3" d="M16,7.919c0.552,0,1-0.448,1-1V3.96V3c0-0.552-0.448-1-1-1s-1,0.448-1,1v0.96v2.959   C15,7.472,15.448,7.919,16,7.919z"/></g></svg>