<?xml version="1.0" ?><svg id="Heartbeat" style="enable-background:new 0 0 32 32;" version="1.1" viewBox="0 0 32 32" xml:space="preserve" xmlns="http://www.w3.org/2000/svg" xmlns:xlink="http://www.w3.org/1999/xlink"><style type="text/css">
	.st0{fill:#F25949;}
	.st1{fill:#FBC34E;}
</style><g><path class="st0" d="M21.191,17l-2.024,3.247c-0.183,0.293-0.504,0.471-0.849,0.471s-0.666-0.178-0.849-0.471l-2.318-3.717   c0,0,0,0,0,0l-1.47-2.357l-1.461,2.342c-0.183,0.307-0.518,0.491-0.875,0.485H5.893c0.184,0.244,0.379,0.482,0.599,0.706   l8.005,8.161c0.4,0.408,0.934,0.633,1.502,0.633h0c0.569,0,1.103-0.225,1.503-0.633l8.005-8.161   c0.22-0.224,0.415-0.462,0.599-0.706H21.191z"/><path class="st0" d="M10.808,15l2.025-3.247c0.183-0.293,0.503-0.471,0.849-0.471s0.666,0.178,0.849,0.471l2.318,3.717c0,0,0,0,0,0   l1.47,2.357l1.461-2.343c0.183-0.306,0.518-0.492,0.875-0.485h6.512c0.86-2.522,0.298-5.434-1.696-7.436   c-1.313-1.319-3.059-2.044-4.918-2.044c-0.009,0-0.018,0-0.027,0c-1.669,0.006-3.25,0.591-4.521,1.659   C14.738,6.092,13.151,5.5,11.475,5.5c-1.883,0-3.653,0.747-4.983,2.103C4.532,9.6,3.986,12.494,4.837,15H10.808z"/><path class="st1" d="M29,15h-1.834h-6.512c-0.357-0.007-0.692,0.18-0.875,0.485l-1.461,2.343l-1.47-2.357c0,0,0,0,0,0l-2.318-3.717   c-0.183-0.292-0.503-0.471-0.849-0.471s-0.666,0.178-0.849,0.471L10.808,15H4.837H3c-0.552,0-1,0.448-1,1s0.448,1,1,1h2.893h5.452   c0.357,0.006,0.692-0.178,0.875-0.485l1.461-2.342l1.47,2.357c0,0,0,0,0,0l2.318,3.717c0.183,0.293,0.504,0.471,0.849,0.471   s0.666-0.178,0.849-0.471L21.191,17h4.916H29c0.553,0,1-0.448,1-1S29.553,15,29,15z"/></g></svg>