<?xml version="1.0" ?><svg id="Nurse" style="enable-background:new 0 0 32 32;" version="1.1" viewBox="0 0 32 32" xml:space="preserve" xmlns="http://www.w3.org/2000/svg" xmlns:xlink="http://www.w3.org/1999/xlink"><style type="text/css">
	.st0{fill:#FCD2B4;}
	.st1{fill:#E4EDF2;}
	.st2{fill:#8B9CA5;}
	.st3{fill:#F25949;}
</style><g><path class="st0" d="M9.3,12.85c0.43,3.17,3.15,5.63,6.44,5.63c3.28,0,6-2.46,6.44-5.63H9.3z"/><path class="st1" d="M22.85,19.36h-2.16c-0.23,0.021-0.448,0.103-0.64,0.23l-3.1,2.6V30H27c0.55,0,1-0.45,1-1v-4.56   C28,21.64,25.69,19.36,22.85,19.36z M22.574,26.68h-2.2c-0.553,0-1-0.447-1-1s0.447-1,1-1h2.2c0.553,0,1,0.447,1,1   S23.127,26.68,22.574,26.68z"/><path class="st1" d="M11.4,19.57c-0.177-0.12-0.401-0.184-0.61-0.21H9.15C6.31,19.36,4,21.64,4,24.44V29c0,0.55,0.45,1,1,1h9.95   v-7.69L11.4,19.57z"/><polygon class="st2" points="15.92,23.06 14.95,22.31 14.95,30 16.95,30 16.95,22.19  "/><path class="st2" d="M22.574,24.68h-2.2c-0.553,0-1,0.447-1,1s0.447,1,1,1h2.2c0.553,0,1-0.447,1-1S23.127,24.68,22.574,24.68z"/><path class="st1" d="M8.89,10.86l0.36,1.25v0.01c0,0.25,0.02,0.49,0.05,0.73h12.88c0.03-0.25,0.05-0.52,0.06-0.78l0.34-1.21   l1.46-5.17c0.12-0.42-0.05-0.87-0.41-1.11c-5.24-3.45-10.55-3.45-15.78,0C7.48,4.82,7.31,5.27,7.43,5.69L8.89,10.86z M15.736,4.799   c0.552,0,1,0.448,1,1v0.625h0.65c0.553,0,1,0.448,1,1s-0.447,1-1,1h-0.65v0.625c0,0.552-0.448,1-1,1s-1-0.448-1-1V8.424h-0.65   c-0.552,0-1-0.448-1-1s0.448-1,1-1h0.65V5.799C14.736,5.247,15.184,4.799,15.736,4.799z"/><path class="st3" d="M14.736,5.799v0.625h-0.65c-0.552,0-1,0.448-1,1s0.448,1,1,1h0.65v0.625c0,0.552,0.448,1,1,1s1-0.448,1-1   V8.424h0.65c0.553,0,1-0.448,1-1s-0.447-1-1-1h-0.65V5.799c0-0.552-0.448-1-1-1S14.736,5.247,14.736,5.799z"/></g></svg>