<?xml version="1.0" ?><svg id="Microscope" style="enable-background:new 0 0 32 32;" version="1.1" viewBox="0 0 32 32" xml:space="preserve" xmlns="http://www.w3.org/2000/svg" xmlns:xlink="http://www.w3.org/1999/xlink"><style type="text/css">
	.st0{fill:#DAE1E5;}
	.st1{fill:#8B9CA5;}
	.st2{fill:#E4EDF2;}
	.st3{fill:#55C1FA;}
</style><g><path class="st0" d="M6.272,21.478c-0.552,0-1,0.447-1,1s0.448,1,1,1h10.674v-2H6.272z"/><path class="st0" d="M25.349,21.591c1.28-1.286,1.982-2.994,1.977-4.811c-0.012-3.667-2.992-6.65-6.646-6.65h-4.61l-0.931,2h5.541   c2.554,0,4.638,2.089,4.646,4.657c0.005,1.282-0.49,2.486-1.394,3.392c-0.222,0.222-0.461,0.414-0.712,0.581l0.503,2.023   C24.31,22.479,24.859,22.082,25.349,21.591z"/><path class="st1" d="M24.313,25.163l-0.591-2.38l-0.503-2.023l-0.074-0.297c-0.143-0.572-0.653-0.973-1.242-0.973h-3.678   c-0.705,0-1.279,0.575-1.279,1.283v0.704v2v1.686H24.313z"/><path class="st2" d="M26.597,25.163h-2.283h-7.367H5.404C4.078,25.163,3,26.243,3,27.571V29c0,0.553,0.448,1,1,1h24   c0.553,0,1-0.447,1-1v-1.429C29,26.243,27.922,25.163,26.597,25.163z"/><path class="st1" d="M8.646,16.366L8.123,17.49c-0.233,0.501-0.016,1.096,0.485,1.328c0.136,0.063,0.28,0.094,0.421,0.094   c0.376,0,0.738-0.214,0.907-0.578l0.521-1.119L8.646,16.366z"/><path class="st1" d="M15.729,5.892l0.531-1.14c0.135,0.062,0.278,0.093,0.418,0.093c0.376,0,0.736-0.213,0.906-0.576   c0.234-0.5,0.019-1.095-0.481-1.33l-1.804-0.846c-0.5-0.233-1.095-0.019-1.33,0.481c-0.234,0.499-0.019,1.094,0.48,1.329   l-0.53,1.139L15.729,5.892z"/><path class="st3" d="M17.088,7.943c0.299-0.64,0.021-1.404-0.617-1.703l-0.741-0.347l-1.811-0.849L13.184,4.7   c-0.31-0.145-0.657-0.162-0.979-0.044c-0.322,0.117-0.579,0.352-0.725,0.664l-4.19,9c-0.296,0.639-0.019,1.402,0.619,1.7   l0.739,0.346l1.811,0.849l0.735,0.345c0.173,0.081,0.358,0.122,0.543,0.122c0.147,0,0.294-0.025,0.437-0.077   c0.322-0.117,0.58-0.353,0.726-0.665l2.24-4.81l0.931-2L17.088,7.943z"/></g></svg>