<?xml version="1.0" ?><svg id="Stethoscope" style="enable-background:new 0 0 32 32;" version="1.1" viewBox="0 0 32 32" xml:space="preserve" xmlns="http://www.w3.org/2000/svg" xmlns:xlink="http://www.w3.org/1999/xlink"><style type="text/css">
	.st0{fill:#16F293;}
	.st1{fill:#E4EDF2;}
	.st2{fill:#8B9CA5;}
</style><g><path class="st0" d="M6.002,6.75c0.534,0.697,1.361,1.154,2.299,1.154c1.609,0,2.918-1.324,2.918-2.952S9.91,2,8.301,2   c-1.54,0-2.792,1.216-2.898,2.747C5.398,4.816,5.382,4.882,5.382,4.952C5.382,5.632,5.619,6.251,6.002,6.75z"/><path class="st0" d="M18.992,4.757c-0.111-1.526-1.361-2.737-2.897-2.737c-1.609,0-2.918,1.324-2.918,2.952   s1.309,2.952,2.918,2.952c0.939,0,1.766-0.458,2.301-1.157c0.381-0.499,0.618-1.117,0.618-1.795   C19.014,4.898,18.997,4.829,18.992,4.757z"/><ellipse class="st1" cx="25.564" cy="20.15" rx="1.936" ry="2"/><path class="st2" d="M29.5,20.15c0-2.206-1.766-4-3.936-4s-3.936,1.794-3.936,4c0,1.767,1.141,3.253,2.707,3.781   C23.648,26.278,21.464,28,18.879,28c-3.134,0-5.685-2.529-5.685-5.638v-1.5c0.125-0.076,0.246-0.163,0.356-0.27l6.385-6.36   c1.236-1.149,1.963-2.719,1.95-4.412c-0.004-1.601-0.64-3.103-1.785-4.222c-0.334-0.331-0.711-0.603-1.108-0.842   c0.005,0.072,0.021,0.141,0.021,0.215c0,0.678-0.236,1.296-0.618,1.795c0.103,0.083,0.207,0.163,0.301,0.256   c0.764,0.747,1.186,1.742,1.188,2.802c0.003,1.055-0.41,2.045-1.172,2.798l-6.516,6.495l-6.329-6.304   C5.009,12.05,4.493,10.978,4.5,9.827c0-1.053,0.414-2.043,1.164-2.789C5.77,6.933,5.886,6.842,6.002,6.75   c-0.383-0.5-0.62-1.118-0.62-1.798c0-0.07,0.016-0.136,0.021-0.206c-0.41,0.246-0.8,0.529-1.146,0.872   C3.124,6.742,2.5,8.237,2.5,9.828c0,1.59,0.624,3.084,1.763,4.215l6.584,6.554c0.107,0.105,0.224,0.191,0.347,0.267v1.499   c0,4.212,3.447,7.638,7.685,7.638c3.648,0,6.704-2.541,7.486-5.934C28.152,23.689,29.5,22.078,29.5,20.15z M25.564,22.15   c-1.067,0-1.936-0.897-1.936-2s0.868-2,1.936-2s1.936,0.897,1.936,2S26.632,22.15,25.564,22.15z"/></g></svg>