<?xml version="1.0" ?><svg id="Atom" style="enable-background:new 0 0 32 32;" version="1.1" viewBox="0 0 32 32" xml:space="preserve" xmlns="http://www.w3.org/2000/svg" xmlns:xlink="http://www.w3.org/1999/xlink"><style type="text/css">
	.st0{fill:#2A80AD;}
	.st1{fill:#55C1FA;}
	.st2{fill:#F25949;}
</style><g><path class="st0" d="M22.622,25.381c-0.132,0.493-0.341,0.824-0.621,0.986c-0.815,0.465-2.571-0.266-4.622-2.186   c0.673-0.753,1.327-1.575,1.949-2.438c0.508-0.705,0.99-1.44,1.444-2.189c0.12-0.198,0.242-0.396,0.358-0.596   c0.117-0.203,0.216-0.406,0.329-0.609c0.133,0.343,0.257,0.681,0.371,1.016c0.704-0.142,1.357-0.306,1.952-0.487   c-0.31-0.934-0.695-1.897-1.141-2.877c0.446-0.98,0.831-1.943,1.141-2.877c0.219-0.661,0.398-1.301,0.544-1.923   c0.472-2.002,0.581-3.782,0.229-5.098c-0.271-1.01-0.809-1.771-1.556-2.202C21.091,2.8,18.502,4.042,16,6.402   C13.499,4.042,10.91,2.8,9.001,3.9c-0.747,0.43-1.285,1.191-1.555,2.201c-0.353,1.316-0.244,3.096,0.228,5.098   c0.618-0.184,1.267-0.346,1.94-0.485C9.222,9.061,9.11,7.617,9.377,6.619C9.51,6.126,9.719,5.794,9.999,5.633   c0.814-0.47,2.572,0.263,4.624,2.187c-0.672,0.752-1.324,1.573-1.945,2.436c-0.509,0.706-0.993,1.439-1.448,2.189   c-0.121,0.199-0.245,0.396-0.361,0.596c-0.117,0.203-0.216,0.406-0.328,0.608c-0.133-0.343-0.257-0.681-0.371-1.015   c-0.704,0.142-1.357,0.306-1.952,0.487c0.31,0.934,0.695,1.897,1.14,2.877c-0.446,0.98-0.831,1.943-1.141,2.877   c-0.219,0.661-0.397,1.301-0.544,1.923c-0.472,2.002-0.581,3.782-0.228,5.098c0.271,1.01,0.809,1.771,1.555,2.201   c0.48,0.277,1.004,0.406,1.559,0.406c1.648,0,3.568-1.137,5.44-2.903c1.872,1.765,3.793,2.903,5.441,2.903   c0.555,0,1.078-0.129,1.559-0.406c0.747-0.43,1.284-1.191,1.556-2.201c0.352-1.316,0.244-3.096-0.229-5.098   c-0.618,0.184-1.267,0.346-1.94,0.485C22.778,22.939,22.89,24.383,22.622,25.381z M9.999,26.367   c-0.28-0.162-0.489-0.493-0.622-0.986c-0.267-0.998-0.156-2.442,0.237-4.095c0.146-0.615,0.33-1.255,0.556-1.921   c0.114-0.334,0.238-0.672,0.371-1.015c0.112,0.203,0.211,0.406,0.328,0.609c0.116,0.2,0.237,0.397,0.358,0.596   c0.794,0.125,1.647,0.219,2.548,0.28c-0.395-0.59-0.788-1.209-1.175-1.878c-0.375-0.648-0.714-1.303-1.034-1.956   c0.32-0.653,0.659-1.307,1.034-1.956c0.386-0.666,0.777-1.29,1.171-1.878c0.504-0.753,1.01-1.44,1.513-2.066   C15.525,9.802,15.763,9.519,16,9.25c0.237,0.269,0.475,0.553,0.714,0.851c0.872,0.019,1.745,0.071,2.606,0.156   c-0.621-0.863-1.273-1.684-1.945-2.436c1.648-1.546,3.107-2.326,4.04-2.326c0.229,0,0.425,0.046,0.585,0.139   c0.28,0.161,0.489,0.493,0.621,0.986c0.267,0.998,0.156,2.442-0.236,4.095c-0.146,0.615-0.33,1.255-0.556,1.922   c-0.114,0.335-0.238,0.673-0.371,1.016c-0.112-0.203-0.211-0.406-0.329-0.609c-0.116-0.201-0.24-0.398-0.361-0.597   c-0.793-0.125-1.645-0.219-2.545-0.28c0.395,0.59,0.788,1.21,1.175,1.878c0.375,0.648,0.714,1.302,1.034,1.956   c-0.32,0.653-0.659,1.307-1.034,1.956c-0.387,0.668-0.78,1.288-1.175,1.878c-0.503,0.751-1.008,1.441-1.51,2.066   c-0.24,0.298-0.478,0.582-0.715,0.851c-0.237-0.269-0.475-0.553-0.715-0.851c-0.875-0.019-1.75-0.071-2.614-0.157   c0.622,0.864,1.277,1.686,1.95,2.439C12.57,26.103,10.815,26.836,9.999,26.367z"/><path class="st1" d="M4,16c0-0.913,1.536-2.061,4.218-2.877c0.595-0.181,1.248-0.345,1.952-0.487   c0.341-0.069,0.694-0.132,1.06-0.19c0.455-0.75,0.94-1.483,1.448-2.189c-1.051,0.104-2.082,0.255-3.064,0.457   c-0.674,0.139-1.323,0.301-1.94,0.485C4.374,12.182,2,13.799,2,16s2.374,3.818,5.674,4.801c0.147-0.622,0.325-1.262,0.544-1.923   C5.536,18.061,4,16.913,4,16z"/><path class="st1" d="M18.224,12.166c0.9,0.061,1.752,0.155,2.545,0.28c0.366,0.058,0.719,0.121,1.06,0.19   c0.226-0.666,0.41-1.306,0.556-1.922c-0.982-0.202-2.013-0.353-3.065-0.457c-0.862-0.086-1.734-0.138-2.606-0.156   c-0.238-0.005-0.477-0.014-0.715-0.014c-0.238,0-0.477,0.009-0.715,0.014c-0.503,0.626-1.009,1.312-1.513,2.066   c0.714-0.048,1.453-0.079,2.228-0.079C16.774,12.087,17.512,12.118,18.224,12.166z"/><path class="st1" d="M30,16c0-2.201-2.374-3.818-5.674-4.801c-0.147,0.622-0.325,1.262-0.544,1.923C26.464,13.939,28,15.087,28,16   c0,0.913-1.536,2.061-4.218,2.877c-0.595,0.181-1.247,0.345-1.952,0.487c-0.341,0.069-0.693,0.132-1.058,0.189   c-0.454,0.749-0.936,1.484-1.444,2.189c1.049-0.104,2.078-0.255,3.058-0.457c0.674-0.139,1.323-0.301,1.94-0.485   C27.626,19.818,30,18.201,30,16z"/><path class="st1" d="M15.285,21.9c0.238,0.005,0.477,0.014,0.715,0.014c0.238,0,0.476-0.008,0.715-0.014   c0.502-0.624,1.007-1.314,1.51-2.066c-0.713,0.048-1.45,0.079-2.224,0.079c-0.774,0-1.512-0.031-2.224-0.079   c-0.902-0.061-1.754-0.155-2.548-0.28c-0.365-0.057-0.717-0.121-1.057-0.189c-0.226,0.666-0.41,1.306-0.556,1.921   c0.98,0.202,2.008,0.352,3.057,0.457C13.535,21.829,14.41,21.881,15.285,21.9z"/><circle class="st2" cx="16" cy="16" r="3"/></g></svg>