<?xml version="1.0" ?><svg id="Ambulance" style="enable-background:new 0 0 32 32;" version="1.1" viewBox="0 0 32 32" xml:space="preserve" xmlns="http://www.w3.org/2000/svg" xmlns:xlink="http://www.w3.org/1999/xlink"><style type="text/css">
	.st0{fill:#F25949;}
	.st1{fill:#E4EDF2;}
	.st2{fill:#DAE1E5;}
	.st3{fill:#393B3D;}
	.st4{fill:#ACE4E5;}
</style><g><path class="st0" d="M17.121,9.5v-1c0-1.654-1.345-3-3-3s-3,1.346-3,3v1H17.121z"/><path class="st1" d="M29.29,17.04l-3.2-0.97l-0.18-0.24c-0.13,0.07-0.27,0.1-0.42,0.1h-3.52c-0.55,0-1-0.45-1-1s0.45-1,1-1h2.54   l-1.38-1.88c-0.19-0.26-0.49-0.41-0.81-0.41h-2.16v12.72h0.99c-0.106-0.317-0.177-0.65-0.177-1.003   c0-1.733,1.395-3.144,3.108-3.144s3.108,1.41,3.108,3.144c0,0.353-0.071,0.686-0.177,1.003H29c0.55,0,1-0.45,1-1V18   C30,17.56,29.71,17.17,29.29,17.04z"/><path class="st2" d="M20.16,11.64V10.5c0-0.55-0.45-1-1-1h-2.039h-6H3c-0.55,0-1,0.45-1,1v12.86c0,0.55,0.45,1,1,1h2.486   c-0.106-0.317-0.177-0.65-0.177-1.003c0-1.733,1.394-3.144,3.108-3.144s3.108,1.41,3.108,3.144c0,0.353-0.071,0.686-0.177,1.003   h8.812V11.64z M13.081,18h-1v1c0,0.553-0.448,1-1,1s-1-0.447-1-1v-1h-1c-0.552,0-1-0.447-1-1c0-0.552,0.448-1,1-1h1v-1   c0-0.552,0.448-1,1-1s1,0.448,1,1v1h1c0.552,0,1,0.448,1,1C14.081,17.553,13.633,18,13.081,18z"/><path class="st3" d="M24.081,20.214c-1.714,0-3.108,1.41-3.108,3.144c0,0.353,0.071,0.686,0.177,1.003   c0.417,1.24,1.566,2.14,2.931,2.14s2.515-0.9,2.931-2.14c0.106-0.317,0.177-0.65,0.177-1.003   C27.189,21.624,25.795,20.214,24.081,20.214z M23.096,23.357c0-0.553,0.443-1,0.995-1h0.01c0.553,0,1,0.447,1,1s-0.447,1-1,1   C23.549,24.357,23.096,23.91,23.096,23.357z"/><path class="st3" d="M8.417,20.214c-1.714,0-3.108,1.41-3.108,3.144c0,0.353,0.071,0.686,0.177,1.003   c0.417,1.24,1.566,2.14,2.931,2.14s2.514-0.9,2.931-2.14c0.106-0.317,0.177-0.65,0.177-1.003   C11.525,21.624,10.131,20.214,8.417,20.214z M7.432,23.357c0-0.553,0.442-1,0.995-1h0.01c0.552,0,1,0.447,1,1s-0.448,1-1,1   S7.432,23.91,7.432,23.357z"/><path class="st4" d="M20.97,14.93c0,0.55,0.45,1,1,1h3.52c0.15,0,0.29-0.03,0.42-0.1l-1.4-1.9h-2.54   C21.42,13.93,20.97,14.38,20.97,14.93z"/><path class="st0" d="M13.081,16h-1v-1c0-0.552-0.448-1-1-1s-1,0.448-1,1v1h-1c-0.552,0-1,0.448-1,1c0,0.553,0.448,1,1,1h1v1   c0,0.553,0.448,1,1,1s1-0.447,1-1v-1h1c0.552,0,1-0.447,1-1C14.081,16.448,13.633,16,13.081,16z"/><path class="st1" d="M9.437,23.357c0-0.553-0.448-1-1-1h-0.01c-0.552,0-0.995,0.447-0.995,1s0.453,1,1.005,1   S9.437,23.91,9.437,23.357z"/><path class="st1" d="M25.101,23.357c0-0.553-0.447-1-1-1h-0.01c-0.552,0-0.995,0.447-0.995,1s0.453,1,1.005,1   C24.653,24.357,25.101,23.91,25.101,23.357z"/></g></svg>