<?xml version="1.0" ?><svg id="Pills" style="enable-background:new 0 0 32 32;" version="1.1" viewBox="0 0 32 32" xml:space="preserve" xmlns="http://www.w3.org/2000/svg" xmlns:xlink="http://www.w3.org/1999/xlink"><style type="text/css">
	.st0{fill:#55C1FA;}
	.st1{fill:#E4EDF2;}
	.st2{fill:#8B9CA5;}
	.st3{fill:#425158;}
</style><g><path class="st0" d="M11.62,11.63c0.003-0.003,1.408-1.408,1.42-1.42c0.57-0.57,0.88-1.33,0.88-2.13c0-0.8-0.31-1.55-0.88-2.12   c-1.17-1.17-3.08-1.17-4.25,0.01L7.38,7.38v0.01L11.62,11.63z"/><path class="st1" d="M8.08,13.91c0.77,0,1.54-0.29,2.13-0.87c0,0,1.4-1.39,1.41-1.41L7.38,7.39V7.38L5.96,8.79   c-1.17,1.17-1.17,3.08,0,4.25C6.55,13.62,7.32,13.91,8.08,13.91z"/><path class="st2" d="M27,2H5C3.346,2,2,3.346,2,5v22c0,1.654,1.346,3,3,3h22c1.654,0,3-1.346,3-3V5C30,3.346,28.654,2,27,2z    M6.09,17c-0.552,0-1-0.448-1-1s0.448-1,1-1H15V6.09c0-0.552,0.448-1,1-1s1,0.448,1,1V15h8.91c0.553,0,1,0.448,1,1s-0.447,1-1,1H17   v8.91c0,0.553-0.448,1-1,1s-1-0.447-1-1V17H6.09z M13.92,21.086c0,0.8-0.31,1.56-0.88,2.13c-0.723,0.723-2.108,2.108-2.83,2.83   c-0.59,0.58-1.36,0.87-2.13,0.87c-0.76,0-1.53-0.29-2.12-0.87c-1.17-1.17-1.17-3.08,0-4.25l1.42-1.41l1.41-1.41   c1.17-1.18,3.08-1.18,4.25-0.01C13.61,19.536,13.92,20.286,13.92,21.086z M5.96,8.79l1.42-1.41l1.41-1.41   c1.17-1.18,3.08-1.18,4.25-0.01c0.57,0.57,0.88,1.32,0.88,2.12c0,0.8-0.31,1.56-0.88,2.13c-0.709,0.706-2.116,2.129-2.83,2.83   c-0.59,0.58-1.36,0.87-2.13,0.87c-0.76,0-1.53-0.29-2.12-0.87C4.79,11.87,4.79,9.96,5.96,8.79z M19.539,8.79l1.42-1.41l1.41-1.41   c1.17-1.18,3.08-1.18,4.25-0.01c0.57,0.57,0.88,1.32,0.88,2.12c0,0.8-0.31,1.56-0.88,2.13c-0.723,0.723-2.108,2.108-2.83,2.83   c-0.59,0.58-1.36,0.87-2.13,0.87c-0.76,0-1.53-0.29-2.12-0.87C18.369,11.87,18.369,9.96,19.539,8.79z M19.538,21.796l1.42-1.41   l1.41-1.41c1.17-1.18,3.08-1.18,4.25-0.01c0.57,0.57,0.88,1.32,0.88,2.12c0,0.8-0.31,1.56-0.88,2.13   c-0.723,0.723-2.108,2.108-2.83,2.83c-0.59,0.58-1.36,0.87-2.13,0.87c-0.76,0-1.53-0.29-2.12-0.87   C18.368,24.876,18.368,22.966,19.538,21.796z"/><path class="st3" d="M16,26.91c0.552,0,1-0.447,1-1V17h8.91c0.553,0,1-0.448,1-1s-0.447-1-1-1H17V6.09c0-0.552-0.448-1-1-1   s-1,0.448-1,1V15H6.09c-0.552,0-1,0.448-1,1s0.448,1,1,1H15v8.91C15,26.463,15.448,26.91,16,26.91z"/><path class="st0" d="M25.199,11.63c0.003-0.003,1.408-1.408,1.42-1.42c0.57-0.57,0.88-1.33,0.88-2.13c0-0.8-0.31-1.55-0.88-2.12   c-1.17-1.17-3.08-1.17-4.25,0.01l-1.41,1.41v0.01L25.199,11.63z"/><path class="st1" d="M23.789,13.04c0.058-0.057,1.352-1.353,1.41-1.41l-4.24-4.24V7.38l-1.42,1.41c-1.17,1.17-1.17,3.08,0,4.25   c0.59,0.58,1.36,0.87,2.12,0.87C22.429,13.91,23.199,13.62,23.789,13.04z"/><path class="st0" d="M8.79,18.976l-1.41,1.41v0.01l4.24,4.24c0.003-0.003,1.408-1.408,1.42-1.42c0.57-0.57,0.88-1.33,0.88-2.13   c0-0.8-0.31-1.55-0.88-2.12C11.87,17.796,9.96,17.796,8.79,18.976z"/><path class="st1" d="M7.38,20.396v-0.01l-1.42,1.41c-1.17,1.17-1.17,3.08,0,4.25c0.59,0.58,1.36,0.87,2.12,0.87   c0.77,0,1.54-0.29,2.13-0.87c0.058-0.057,1.352-1.353,1.41-1.41L7.38,20.396L7.38,20.396z"/><path class="st0" d="M25.198,24.636c0.003-0.003,1.408-1.408,1.42-1.42c0.57-0.57,0.88-1.33,0.88-2.13c0-0.8-0.31-1.55-0.88-2.12   c-1.17-1.17-3.08-1.17-4.25,0.01l-1.41,1.41v0.01L25.198,24.636z"/><path class="st1" d="M21.658,26.916c0.77,0,1.54-0.29,2.13-0.87c0.058-0.057,1.352-1.353,1.41-1.41l-4.24-4.24v0v-0.01l-1.42,1.41   c-1.17,1.17-1.17,3.08,0,4.25C20.128,26.626,20.898,26.916,21.658,26.916z"/></g></svg>