<?xml version="1.0" ?><svg id="Stretcher" style="enable-background:new 0 0 32 32;" version="1.1" viewBox="0 0 32 32" xml:space="preserve" xmlns="http://www.w3.org/2000/svg" xmlns:xlink="http://www.w3.org/1999/xlink"><style type="text/css">
	.st0{fill:#55C1FA;}
	.st1{fill:#8B9CA5;}
	.st2{fill:#425158;}
</style><g><path class="st0" d="M25.639,11.565h2.814c0.059-0.211,0.101-0.428,0.101-0.656c0-1.464-1.308-2.656-2.915-2.656H10.202   L8.978,5.982c-0.692-1.283-2.36-1.835-3.798-1.254C4.428,5.031,3.85,5.612,3.593,6.324C3.353,6.99,3.407,7.703,3.746,8.331   l1.744,3.234H25.639z"/><path class="st1" d="M29,11.565h-0.547H5.49H3c-0.552,0-1,0.448-1,1s0.448,1,1,1h5.878l5.731,4.801l-4.533,3.61   c0.852,0.528,1.424,1.462,1.424,2.533c0,0.352-0.072,0.686-0.185,1h9.37c-0.113-0.314-0.185-0.648-0.185-1s0.073-0.686,0.185-1   h-9.324l4.813-3.832l4.525,3.79c0.243-0.647,0.702-1.181,1.292-1.527l-4.22-3.534l6.079-4.84H29c0.553,0,1-0.448,1-1   S29.553,11.565,29,11.565z M20.639,13.565l-4.433,3.529l-4.214-3.529H20.639z"/><path class="st1" d="M8.5,25.5c0.551,0,1-0.444,1-0.991c0-0.546-0.449-0.99-1-0.99s-1,0.444-1,0.99C7.5,25.056,7.949,25.5,8.5,25.5   z"/><path class="st2" d="M11.5,24.509c0-1.071-0.573-2.005-1.424-2.533C9.617,21.691,9.08,21.519,8.5,21.519c-1.654,0-3,1.342-3,2.99   c0,1.649,1.346,2.991,3,2.991c1.301,0,2.4-0.835,2.815-1.991C11.428,25.195,11.5,24.861,11.5,24.509z M8.5,23.519   c0.551,0,1,0.444,1,0.99c0,0.547-0.449,0.991-1,0.991s-1-0.444-1-0.991C7.5,23.963,7.949,23.519,8.5,23.519z"/><path class="st1" d="M23.5,23.519c-0.552,0-1,0.444-1,0.99c0,0.547,0.448,0.991,1,0.991s1-0.444,1-0.991   C24.5,23.963,24.052,23.519,23.5,23.519z"/><path class="st2" d="M20.698,23.467c-0.005,0.014-0.008,0.028-0.013,0.042c-0.113,0.314-0.185,0.648-0.185,1s0.072,0.686,0.185,1   C21.1,26.665,22.199,27.5,23.5,27.5c1.654,0,3-1.342,3-2.991c0-1.648-1.346-2.99-3-2.99c-0.553,0-1.064,0.16-1.509,0.421   C21.401,22.285,20.941,22.82,20.698,23.467z M23.5,25.5c-0.552,0-1-0.444-1-0.991c0-0.546,0.448-0.99,1-0.99s1,0.444,1,0.99   C24.5,25.056,24.052,25.5,23.5,25.5z"/></g></svg>