<?xml version="1.0" ?><svg id="Report" style="enable-background:new 0 0 32 32;" version="1.1" viewBox="0 0 32 32" xml:space="preserve" xmlns="http://www.w3.org/2000/svg" xmlns:xlink="http://www.w3.org/1999/xlink"><style type="text/css">
	.st0{fill:#E4EDF2;}
	.st1{fill:#F4D0B5;}
	.st2{fill:#F25949;}
</style><g><path class="st0" d="M23.5,4.281h-0.789c0.101,0.315,0.17,0.643,0.17,0.991c0,1.822-1.468,3.29-3.271,3.29H12.39   c-1.804,0-3.271-1.468-3.271-3.271c0-0.355,0.07-0.69,0.173-1.009H8.5c-1.654,0-3,1.346-3,3V27c0,1.654,1.346,3,3,3h15   c1.654,0,3-1.346,3-3V7.281C26.5,5.626,25.154,4.281,23.5,4.281z M10,16.14h2.179c0.353-0.007,0.687,0.177,0.87,0.479l1.049,1.654   l1.057-1.667c0,0,0.001-0.001,0.001-0.002l1.902-3c0.367-0.578,1.322-0.578,1.689,0l1.607,2.535H22c0.553,0,1,0.448,1,1   c0,0.553-0.447,1-1,1h-2.179c-0.353,0.006-0.686-0.176-0.87-0.479l-1.049-1.654l-1.058,1.667c0,0.001,0,0.002-0.001,0.003   l-1.901,2.997c-0.184,0.29-0.502,0.465-0.845,0.465s-0.661-0.175-0.845-0.465l-1.607-2.535H10c-0.552,0-1-0.447-1-1   C9,16.587,9.448,16.14,10,16.14z"/><path class="st1" d="M9.119,5.29c0,1.804,1.467,3.271,3.271,3.271h7.219c1.804,0,3.271-1.468,3.271-3.29   c0-0.348-0.069-0.676-0.17-0.991C22.288,2.963,21.066,2,19.609,2H12.39c-1.453,0-2.672,0.958-3.098,2.281   C9.189,4.6,9.119,4.935,9.119,5.29z"/><path class="st2" d="M10,18.14h1.646l1.607,2.535c0.184,0.29,0.502,0.465,0.845,0.465s0.661-0.175,0.845-0.465l1.901-2.997   c0-0.001,0.001-0.002,0.001-0.003l1.058-1.667l1.049,1.654c0.185,0.302,0.518,0.485,0.87,0.479H22c0.553,0,1-0.447,1-1   c0-0.552-0.447-1-1-1h-1.646l-1.607-2.535c-0.367-0.578-1.322-0.578-1.689,0l-1.902,3c0,0.001-0.001,0.001-0.001,0.002   l-1.057,1.667l-1.049-1.654c-0.183-0.302-0.517-0.486-0.87-0.479H10c-0.552,0-1,0.448-1,1C9,17.692,9.448,18.14,10,18.14z"/></g></svg>