<?xml version="1.0" ?><svg id="Lungs" style="enable-background:new 0 0 32 32;" version="1.1" viewBox="0 0 32 32" xml:space="preserve" xmlns="http://www.w3.org/2000/svg" xmlns:xlink="http://www.w3.org/1999/xlink"><style type="text/css">
	.st0{fill:#FF7566;}
	.st1{fill:#F2C09E;}
</style><g><path class="st0" d="M7.33,20.967c-0.483,0.267-1.092,0.091-1.358-0.393c-0.267-0.484-0.091-1.093,0.393-1.359l1.621-0.894   l-1.8-1.59c-0.414-0.366-0.453-0.998-0.087-1.412c0.366-0.414,0.998-0.453,1.412-0.087l2.335,2.064l3.772-2.08v-5.193   c0-0.552-0.541-1-1.093-1C6.721,9.022,2,13.744,2,19.547V27c0,0.553,0.448,1,1,1h4.855c3.177,0,5.762-2.585,5.762-5.762v-4.739   L7.33,20.967z"/><path class="st0" d="M19.383,9.022c-0.553,0-1,0.448-1,1v5.192l3.773,2.081l2.335-2.063c0.414-0.364,1.046-0.327,1.411,0.087   c0.366,0.414,0.327,1.046-0.087,1.412l-1.8,1.59l1.621,0.894c0.483,0.267,0.659,0.875,0.393,1.359   c-0.183,0.33-0.524,0.517-0.877,0.517c-0.163,0-0.329-0.04-0.482-0.124l-6.287-3.468v4.739c0,3.177,2.585,5.762,5.763,5.762H29   c0.553,0,1-0.447,1-1v-7.453C30,13.744,25.278,9.022,19.383,9.022z"/><path class="st1" d="M24.67,20.967c0.153,0.084,0.319,0.124,0.482,0.124c0.353,0,0.694-0.187,0.877-0.517   c0.267-0.484,0.091-1.093-0.393-1.359l-1.621-0.894l1.8-1.59c0.414-0.366,0.453-0.998,0.087-1.412   c-0.365-0.414-0.997-0.452-1.411-0.087l-2.335,2.063l-3.773-2.081L17,14.452V5c0-0.552-0.448-1-1-1s-1,0.448-1,1v9.452   l-1.383,0.763l-3.772,2.08l-2.335-2.064c-0.414-0.366-1.045-0.327-1.412,0.087c-0.366,0.414-0.327,1.046,0.087,1.412l1.8,1.59   l-1.621,0.894c-0.484,0.267-0.66,0.875-0.393,1.359c0.267,0.483,0.875,0.659,1.358,0.393l6.287-3.468L16,16.185l2.383,1.314   L24.67,20.967z"/></g></svg>