<?xml version="1.0" ?><svg id="Crutch" style="enable-background:new 0 0 32 32;" version="1.1" viewBox="0 0 32 32" xml:space="preserve" xmlns="http://www.w3.org/2000/svg" xmlns:xlink="http://www.w3.org/1999/xlink"><style type="text/css">
	.st0{fill:#C77C58;}
	.st1{fill:#7A442A;}
</style><g><rect class="st0" height="6.929" transform="matrix(0.7071 -0.7071 0.7071 0.7071 -3.8115 17.1654)" width="5" x="16.316" y="9.719"/><path class="st1" d="M29.279,12.182c-4.931-1.436-8.025-4.53-9.461-9.461c-0.154-0.53-0.709-0.837-1.239-0.681   c-0.53,0.154-0.835,0.709-0.681,1.239c0.232,0.797,0.518,1.544,0.832,2.262l-8.411,8.411c-0.203,0.203-0.309,0.483-0.291,0.77   l0.346,5.489l-5.79,5.79l-0.877-0.877c-0.391-0.391-1.023-0.391-1.414,0s-0.391,1.023,0,1.414l3.169,3.169   C5.658,29.902,5.914,30,6.169,30s0.512-0.098,0.707-0.293c0.391-0.391,0.391-1.023,0-1.414l-0.878-0.878l5.79-5.789l5.489,0.346   c0.021,0.001,0.042,0.002,0.062,0.002c0.265,0,0.519-0.104,0.707-0.293l8.411-8.411c0.718,0.315,1.465,0.6,2.263,0.833   c0.093,0.027,0.188,0.041,0.279,0.041c0.434,0,0.833-0.284,0.96-0.721C30.114,12.891,29.81,12.336,29.279,12.182z M23.034,13.866   l-3.536,3.536l-2.546,2.546l-4.608-0.29l-0.291-4.61l2.546-2.546l3.535-3.535l1.563-1.563c1.229,2.034,2.865,3.671,4.899,4.9   L23.034,13.866z"/></g></svg>