<?xml version="1.0" ?><svg id="Bandage" style="enable-background:new 0 0 32 32;" version="1.1" viewBox="0 0 32 32" xml:space="preserve" xmlns="http://www.w3.org/2000/svg" xmlns:xlink="http://www.w3.org/1999/xlink"><style type="text/css">
	.st0{fill:#F2C09E;}
	.st1{fill:#F4E8D0;}
	.st2{fill:#A79A7E;}
</style><g><path class="st0" d="M6.39,15.57l-2.31,2.31C2.74,19.22,2,21,2,22.9c0,1.9,0.74,3.68,2.08,5.02C5.42,29.26,7.2,30,9.1,30   c1.9,0,3.68-0.74,5.02-2.08l2.31-2.31L6.39,15.57z"/><path class="st0" d="M27.92,4.08C26.58,2.74,24.8,2,22.9,2c-1.9,0-3.68,0.74-5.02,2.08l-2.31,2.31l10.04,10.04l2.31-2.31   C29.26,12.78,30,11,30,9.1C30,7.2,29.26,5.42,27.92,4.08z"/><path class="st1" d="M15.57,6.39l-9.18,9.18l10.04,10.04l9.18-9.18L15.57,6.39z M14.865,11.417c0.39-0.39,1.02-0.39,1.41,0   c0.39,0.39,0.39,1.02,0,1.41c-0.189,0.2-0.45,0.3-0.7,0.3c-0.26,0-0.52-0.1-0.71-0.3C14.475,12.437,14.475,11.807,14.865,11.417z    M12.825,16.27c-0.189,0.2-0.45,0.3-0.7,0.3c-0.26,0-0.52-0.1-0.71-0.3c-0.39-0.39-0.39-1.02,0-1.41c0.39-0.39,1.02-0.39,1.41,0   S13.215,15.88,12.825,16.27z M14.98,18.43c-0.19,0.2-0.45,0.3-0.7,0.3c-0.26,0-0.52-0.1-0.71-0.3c-0.39-0.389-0.39-1.019,0-1.41   c0.39-0.39,1.02-0.39,1.41,0C15.37,17.41,15.37,18.04,14.98,18.43z M17.135,20.583c-0.189,0.2-0.45,0.3-0.7,0.3   c-0.26,0-0.52-0.1-0.71-0.3c-0.39-0.39-0.39-1.02,0-1.41c0.39-0.39,1.02-0.39,1.41,0S17.525,20.193,17.135,20.583z M18.429,14.98   c-0.189,0.2-0.45,0.3-0.7,0.3c-0.259,0-0.519-0.1-0.71-0.3c-0.39-0.39-0.39-1.02,0-1.41c0.39-0.39,1.02-0.39,1.41,0   C18.819,13.96,18.819,14.59,18.429,14.98z M20.585,17.13c-0.189,0.2-0.45,0.3-0.7,0.3c-0.26,0-0.52-0.1-0.71-0.3   c-0.39-0.39-0.39-1.02,0-1.41s1.02-0.39,1.41,0C20.975,16.11,20.975,16.74,20.585,17.13z"/><path class="st2" d="M13.57,17.02c-0.39,0.391-0.39,1.021,0,1.41c0.19,0.2,0.45,0.3,0.71,0.3c0.25,0,0.51-0.1,0.7-0.3   c0.39-0.39,0.39-1.02,0-1.41C14.59,16.63,13.96,16.63,13.57,17.02z"/><path class="st2" d="M17.019,13.57c-0.39,0.39-0.39,1.02,0,1.41c0.191,0.2,0.451,0.3,0.71,0.3c0.25,0,0.511-0.1,0.7-0.3   c0.39-0.39,0.39-1.02,0-1.41C18.039,13.18,17.409,13.18,17.019,13.57z"/><path class="st2" d="M19.175,15.72c-0.39,0.39-0.39,1.02,0,1.41c0.19,0.2,0.45,0.3,0.71,0.3c0.25,0,0.511-0.1,0.7-0.3   c0.39-0.39,0.39-1.02,0-1.41C20.195,15.33,19.565,15.33,19.175,15.72z"/><path class="st2" d="M15.575,13.127c0.25,0,0.511-0.1,0.7-0.3c0.39-0.39,0.39-1.02,0-1.41c-0.39-0.39-1.02-0.39-1.41,0   s-0.39,1.02,0,1.41C15.055,13.027,15.315,13.127,15.575,13.127z"/><path class="st2" d="M11.415,14.86c-0.39,0.39-0.39,1.02,0,1.41c0.19,0.2,0.45,0.3,0.71,0.3c0.25,0,0.511-0.1,0.7-0.3   c0.39-0.39,0.39-1.02,0-1.41S11.805,14.47,11.415,14.86z"/><path class="st2" d="M15.725,19.173c-0.39,0.39-0.39,1.02,0,1.41c0.19,0.2,0.45,0.3,0.71,0.3c0.25,0,0.511-0.1,0.7-0.3   c0.39-0.39,0.39-1.02,0-1.41S16.115,18.783,15.725,19.173z"/></g></svg>