<?xml version="1.0" ?><svg id="Book" style="enable-background:new 0 0 32 32;" version="1.1" viewBox="0 0 32 32" xml:space="preserve" xmlns="http://www.w3.org/2000/svg" xmlns:xlink="http://www.w3.org/1999/xlink"><style type="text/css">
	.st0{fill:#E4EDF2;}
	.st1{fill:#55C1FA;}
	.st2{fill:#F25949;}
</style><g><path class="st0" d="M8.73,8.38H26c-1.049-1.552-1.189-3.112-0.418-4.666C25.745,3.385,25.505,3,25.138,3H8.73C7.22,3,6,4.2,6,5.69   c0,0.75,0.3,1.42,0.8,1.9C7.29,8.08,7.98,8.38,8.73,8.38z"/><path class="st1" d="M8.73,8.38c-0.75,0-1.44-0.3-1.93-0.79C6.3,7.11,6,6.44,6,5.69v20.62C6,27.8,7.22,29,8.73,29H25.5   c0.276,0,0.5-0.224,0.5-0.5V8.38H8.73z M18.899,19.689H17v1.9c0,0.553-0.448,1-1,1s-1-0.447-1-1v-1.9h-1.9c-0.552,0-1-0.447-1-1   s0.448-1,1-1H15V15.79c0-0.552,0.448-1,1-1s1,0.448,1,1v1.899h1.899c0.553,0,1,0.447,1,1S19.452,19.689,18.899,19.689z"/><path class="st2" d="M18.899,17.689H17V15.79c0-0.552-0.448-1-1-1s-1,0.448-1,1v1.899h-1.9c-0.552,0-1,0.447-1,1s0.448,1,1,1H15   v1.9c0,0.553,0.448,1,1,1s1-0.447,1-1v-1.9h1.899c0.553,0,1-0.447,1-1S19.452,17.689,18.899,17.689z"/></g></svg>