<?xml version="1.0" ?><svg id="Blood_Drop" style="enable-background:new 0 0 32 32;" version="1.1" viewBox="0 0 32 32" xml:space="preserve" xmlns="http://www.w3.org/2000/svg" xmlns:xlink="http://www.w3.org/1999/xlink"><style type="text/css">
	.st0{fill:#F25949;}
	.st1{fill:#FCD2B4;}
</style><g><path class="st0" d="M28.691,21.689c-0.419-0.519-0.895-1.105-0.981-1.543c-0.107-0.455-0.547-0.797-1.012-0.797   c-0.047-0.001-0.093,0.003-0.139,0.01c-0.415,0.06-0.777,0.397-0.865,0.808c-0.086,0.407-0.558,0.993-0.973,1.511   c-0.643,0.8-1.308,1.627-1.308,2.578c0,1.789,1.478,3.244,3.293,3.244S30,26.045,30,24.256C30,23.308,29.335,22.485,28.691,21.689z   "/><path class="st1" d="M28.422,17.052c0.54-0.63,0.775-1.471,0.646-2.305c-0.21-1.355-1.452-2.376-2.889-2.376h-9.257   c0.294-0.57,0.565-1.124,0.782-1.639C18.24,9.43,18.49,8.442,18.49,7.62c0-0.004-0.002-0.006-0.002-0.01   c0-0.004,0.002-0.006,0.002-0.01c0-1.139-0.947-1.996-1.85-2.664c-0.657-0.52-1.673-0.576-2.408-0.126   c-0.843,0.523-0.851,1.354-0.855,1.801c0.012,0.338-0.055,0.691-0.287,0.975c-1.821,2.339-4.097,3.64-4.991,4.091   c-0.645,0.434-1.4,0.7-2.18,0.693H3c-0.552,0-1,0.448-1,1v9.84c0,0.553,0.448,1,1,1h4.48c0.353,0,0.697,0.048,1.037,0.145   c2.069,0.564,5.625,1.535,8.494,1.534c0.568,0,1.109-0.037,1.607-0.124c1.027-0.186,1.952-0.828,2.537-1.762   c0.389-0.616,0.595-1.334,0.595-2.073v-2.89c0-0.552,0.448-1,1-1h3.52C27.099,18.04,27.883,17.68,28.422,17.052z"/></g></svg>