<?xml version="1.0" ?><svg id="Glasses" style="enable-background:new 0 0 32 32;" version="1.1" viewBox="0 0 32 32" xml:space="preserve" xmlns="http://www.w3.org/2000/svg" xmlns:xlink="http://www.w3.org/1999/xlink"><style type="text/css">
	.st0{fill:#FBC34E;}
	.st1{fill:#B9F3F8;}
	.st2{fill:#6FA7AB;}
	.st3{fill:#FFFFFF;}
</style><g><path class="st0" d="M13.815,16.486c0.383,0.554,0.669,1.172,0.848,1.831c0.864-0.248,1.809-0.248,2.673,0   c0.179-0.659,0.466-1.277,0.848-1.831C16.78,16.008,15.22,16.008,13.815,16.486z"/><path class="st0" d="M4,15.415v-5.201C4,8.993,5.075,8,6.397,8c0.552,0,1-0.448,1-1s-0.448-1-1-1C3.973,6,2,7.89,2,10.214v9.642   C2,18.109,2.771,16.535,4,15.415z"/><path class="st0" d="M25.603,6c-0.553,0-1,0.448-1,1s0.447,1,1,1C26.925,8,28,8.993,28,10.214v5.201c1.229,1.12,2,2.694,2,4.44   v-9.642C30,7.89,28.027,6,25.603,6z"/><path class="st1" d="M8.438,15.711C5.991,15.711,4,17.57,4,19.855S5.991,24,8.438,24s4.438-1.859,4.438-4.145   S10.885,15.711,8.438,15.711z M8.438,18.925c-0.574,0-1.041,0.418-1.041,0.931c0,0.553-0.448,1-1,1s-1-0.447-1-1   c0-1.616,1.364-2.931,3.041-2.931c0.552,0,1,0.447,1,1S8.99,18.925,8.438,18.925z"/><path class="st2" d="M8.438,13.711c-1.72,0-3.282,0.651-4.438,1.704c-1.229,1.12-2,2.694-2,4.44C2,23.243,4.888,26,8.438,26   s6.438-2.757,6.438-6.145c0-0.532-0.079-1.046-0.213-1.539c-0.179-0.659-0.466-1.277-0.848-1.831   C12.663,14.816,10.684,13.711,8.438,13.711z M8.438,24C5.991,24,4,22.141,4,19.855s1.991-4.145,4.438-4.145   s4.438,1.859,4.438,4.145S10.885,24,8.438,24z"/><path class="st3" d="M8.438,16.925c-1.677,0-3.041,1.314-3.041,2.931c0,0.553,0.448,1,1,1s1-0.447,1-1   c0-0.513,0.467-0.931,1.041-0.931c0.552,0,1-0.447,1-1S8.99,16.925,8.438,16.925z"/><path class="st1" d="M23.562,15.711c-2.447,0-4.438,1.859-4.438,4.145S21.115,24,23.562,24S28,22.141,28,19.855   S26.01,15.711,23.562,15.711z M23.562,18.925c-0.573,0-1.04,0.418-1.04,0.931c0,0.553-0.447,1-1,1s-1-0.447-1-1   c0-1.616,1.363-2.931,3.04-2.931c0.553,0,1,0.447,1,1S24.114,18.925,23.562,18.925z"/><path class="st2" d="M28,15.415c-1.156-1.053-2.717-1.704-4.438-1.704c-2.246,0-4.225,1.106-5.378,2.775   c-0.383,0.554-0.669,1.172-0.848,1.831c-0.134,0.493-0.213,1.007-0.213,1.539c0,3.388,2.889,6.145,6.438,6.145S30,23.243,30,19.855   C30,18.109,29.229,16.535,28,15.415z M23.562,24c-2.447,0-4.438-1.859-4.438-4.145s1.991-4.145,4.438-4.145S28,17.57,28,19.855   S26.01,24,23.562,24z"/><path class="st3" d="M23.562,16.925c-1.677,0-3.04,1.314-3.04,2.931c0,0.553,0.447,1,1,1s1-0.447,1-1   c0-0.513,0.467-0.931,1.04-0.931c0.553,0,1-0.447,1-1S24.114,16.925,23.562,16.925z"/></g></svg>