<?xml version="1.0" ?><svg id="Doctor" style="enable-background:new 0 0 32 32;" version="1.1" viewBox="0 0 32 32" xml:space="preserve" xmlns="http://www.w3.org/2000/svg" xmlns:xlink="http://www.w3.org/1999/xlink"><style type="text/css">
	.st0{fill:#FCD2B4;}
	.st1{fill:#E4EDF2;}
	.st2{fill:#8B9CA5;}
	.st3{fill:#CCFFD9;}
</style><g><path class="st0" d="M15.736,16.375c3.949,0,7.161-3.224,7.161-7.188C22.896,5.224,19.685,2,15.736,2   c-3.948,0-7.16,3.224-7.16,7.187C8.576,13.15,11.788,16.375,15.736,16.375z"/><path class="st1" d="M23.31,17.71l-0.36,1.98l-0.81,4.51l-0.001,0.005c0.299,0.186,0.56,0.43,0.767,0.727   c0.401,0.573,0.555,1.267,0.432,1.953c-0.087,0.484-0.508,0.824-0.983,0.824c-0.059,0-0.117-0.005-0.177-0.016   c-0.544-0.098-0.906-0.617-0.809-1.16c0.028-0.159-0.008-0.321-0.102-0.455c-0.099-0.142-0.25-0.236-0.425-0.267   c-0.348-0.065-0.693,0.167-0.755,0.509c-0.098,0.544-0.619,0.903-1.16,0.809c-0.544-0.098-0.906-0.617-0.809-1.16   c0.193-1.079,1.028-1.884,2.05-2.104l0.001-0.005l0.73-4.06l0.38-2.12c-0.389-0.011-0.923-0.027-1.24,0.23l-4.12,3.46l-4.47-3.45   c-0.28-0.237-0.632-0.255-0.98-0.24l0.42,2.33l0.69,3.85c1.02,0.21,1.86,1.02,2.05,2.11c0.136,0.711-0.047,1.453-0.49,2.03   c-0.41,0.54-0.99,0.9-1.66,1.01c-0.15,0.03-0.31,0.04-0.46,0.04c-0.84,0-1.63-0.4-2.12-1.05c-0.24-0.32-0.41-0.7-0.48-1.12   c-0.13-0.68,0.03-1.38,0.43-1.95c0.2-0.29,0.46-0.54,0.76-0.72L8.8,19.7l-0.35-1.97C5.94,18.06,4,20.19,4,22.76V29   c0,0.55,0.45,1,1,1h22c0.55,0,1-0.45,1-1v-6.24C28,20.11,25.93,17.93,23.31,17.71z"/><path class="st2" d="M8.8,19.7l0.81,4.51c-0.3,0.18-0.56,0.43-0.76,0.72c-0.4,0.57-0.56,1.27-0.43,1.95   C8.49,27.3,8.66,27.68,8.9,28c0.49,0.65,1.28,1.05,2.12,1.05c0.15,0,0.31-0.01,0.46-0.04c0.67-0.11,1.25-0.47,1.66-1.01   c0.443-0.577,0.626-1.319,0.49-2.03c-0.19-1.09-1.03-1.9-2.05-2.11l-0.69-3.85l-0.42-2.33c-0.064,0.002-1.956,0.048-2.02,0.05   L8.8,19.7z M10.38,26.53c-0.02-0.16,0.01-0.32,0.11-0.45c0.09-0.15,0.24-0.24,0.42-0.27c0.04-0.01,0.08-0.01,0.12-0.01   c0.31,0,0.58,0.21,0.64,0.52c0.02,0.16-0.01,0.32-0.11,0.45c-0.1,0.15-0.25,0.24-0.42,0.27C10.79,27.1,10.45,26.87,10.38,26.53z"/><path class="st3" d="M11.56,26.77c0.1-0.13,0.13-0.29,0.11-0.45c-0.06-0.31-0.33-0.52-0.64-0.52c-0.04,0-0.08,0-0.12,0.01   c-0.18,0.03-0.33,0.12-0.42,0.27c-0.1,0.13-0.13,0.29-0.11,0.45c0.07,0.34,0.41,0.57,0.76,0.51   C11.31,27.01,11.46,26.92,11.56,26.77z"/><path class="st2" d="M20.9,19.8l-0.73,4.06l-0.001,0.005c-1.022,0.22-1.857,1.025-2.05,2.104c-0.098,0.543,0.265,1.062,0.809,1.16   c0.541,0.095,1.062-0.265,1.16-0.809c0.062-0.342,0.407-0.574,0.755-0.509c0.175,0.03,0.326,0.125,0.425,0.267   c0.094,0.134,0.13,0.296,0.102,0.455c-0.098,0.543,0.265,1.062,0.809,1.16c0.06,0.011,0.118,0.016,0.177,0.016   c0.476,0,0.896-0.34,0.983-0.824c0.123-0.687-0.03-1.38-0.432-1.953c-0.207-0.296-0.468-0.541-0.767-0.727L22.14,24.2l0.81-4.51   l0.36-1.98c-0.334-0.056-1.677-0.02-2.03-0.03L20.9,19.8z"/></g></svg>