<?xml version="1.0" ?><svg id="Disability" style="enable-background:new 0 0 32 32;" version="1.1" viewBox="0 0 32 32" xml:space="preserve" xmlns="http://www.w3.org/2000/svg" xmlns:xlink="http://www.w3.org/1999/xlink"><style type="text/css">
	.st0{fill:#55C1FA;}
	.st1{fill:#FCD2B4;}
	.st2{fill:#8B9CA5;}
</style><g><path class="st0" d="M26.69,25.716l-1.932,0.378l-2.48-6.837c-0.149-0.41-0.539-0.684-0.975-0.684h-6.756v-5.049h3.416   c0.573,0,1.037-0.464,1.037-1.037s-0.464-1.037-1.037-1.037h-3.416V9.532c-0.332,0.092-0.676,0.156-1.037,0.156   c-0.361,0-0.705-0.065-1.037-0.156V19.61c0,0.573,0.464,1.037,1.037,1.037h7.066l2.535,6.988c0.152,0.416,0.546,0.684,0.974,0.684   c0.067,0,0.133-0.006,0.2-0.019l2.803-0.548c0.562-0.109,0.929-0.654,0.819-1.216C27.796,25.972,27.25,25.604,26.69,25.716z"/><path class="st1" d="M14.547,9.532c1.639-0.452,2.852-1.926,2.852-3.688C17.399,3.725,15.654,2,13.51,2S9.621,3.725,9.621,5.844   c0,1.762,1.213,3.236,2.852,3.688c0.332,0.092,0.676,0.156,1.037,0.156C13.871,9.689,14.214,9.624,14.547,9.532z"/><path class="st2" d="M13.515,27.85c-4.009,0-7.268-3.203-7.268-7.147c0-2.784,1.63-5.202,4.009-6.363v-2.343   c-3.607,1.3-6.182,4.708-6.182,8.706C4.074,25.83,8.311,30,13.515,30c2.76,0,5.258-1.182,6.986-3.063l-0.869-2.397   C18.35,26.528,16.079,27.85,13.515,27.85z"/></g></svg>