<?xml version="1.0" ?><svg id="Dna" style="enable-background:new 0 0 32 32;" version="1.1" viewBox="0 0 32 32" xml:space="preserve" xmlns="http://www.w3.org/2000/svg" xmlns:xlink="http://www.w3.org/1999/xlink"><style type="text/css">
	.st0{fill:#55C1FA;}
	.st1{fill:#F25949;}
	.st2{fill:#8B9CA5;}
</style><g><path class="st0" d="M16.891,15.109c-0.537-4.131-0.837-8.027,2.537-11.402c0.391-0.391,0.391-1.023,0-1.414s-1.023-0.391-1.414,0   c-3.888,3.888-3.708,8.255-3.172,12.549c0.431,0.054,0.862,0.11,1.291,0.167C16.386,15.043,16.638,15.076,16.891,15.109z"/><path class="st0" d="M15.109,16.891c0.538,4.13,0.838,8.026-2.536,11.402c-0.391,0.391-0.391,1.023,0,1.414   C12.768,29.902,13.023,30,13.279,30s0.512-0.098,0.707-0.293c3.888-3.889,3.707-8.256,3.171-12.548   c-0.43-0.054-0.86-0.11-1.288-0.167C15.615,16.958,15.361,16.924,15.109,16.891z"/><path class="st1" d="M29.707,12.572c-0.391-0.391-1.023-0.391-1.414,0c-3.376,3.373-7.271,3.074-11.402,2.537   c-0.252-0.033-0.505-0.066-0.759-0.1c-0.429-0.057-0.859-0.113-1.291-0.167c-4.292-0.536-8.659-0.717-12.548,3.172   c-0.391,0.391-0.391,1.023,0,1.414C2.488,19.623,2.744,19.721,3,19.721s0.512-0.098,0.707-0.293   c3.374-3.375,7.269-3.076,11.402-2.536c0.253,0.033,0.506,0.067,0.761,0.101c0.428,0.057,0.858,0.113,1.288,0.167   c4.29,0.535,8.659,0.717,12.549-3.172C30.098,13.596,30.098,12.963,29.707,12.572z"/><path class="st2" d="M13.083,21.942c0.256,0,0.512-0.098,0.707-0.293c0.391-0.391,0.391-1.023,0-1.414l-2.025-2.025   c-0.391-0.391-1.023-0.391-1.414,0s-0.391,1.023,0,1.414l2.025,2.025C12.571,21.845,12.827,21.942,13.083,21.942z"/><path class="st2" d="M6.277,20.584c-0.391-0.391-1.023-0.391-1.414,0s-0.391,1.023,0,1.414l5.14,5.14   c0.195,0.195,0.451,0.293,0.707,0.293s0.512-0.098,0.707-0.293c0.391-0.391,0.391-1.023,0-1.414L6.277,20.584z"/><path class="st2" d="M25.724,11.417c0.195,0.195,0.451,0.293,0.707,0.293s0.512-0.098,0.707-0.293c0.391-0.391,0.391-1.023,0-1.414   l-5.14-5.14c-0.391-0.391-1.023-0.391-1.414,0s-0.391,1.023,0,1.414L25.724,11.417z"/><path class="st2" d="M18.21,10.351c-0.391,0.391-0.391,1.024,0,1.414l2.025,2.025c0.195,0.195,0.451,0.293,0.707,0.293   s0.512-0.098,0.707-0.293c0.391-0.391,0.391-1.024,0-1.414l-2.025-2.025C19.233,9.96,18.601,9.96,18.21,10.351z"/></g></svg>